<svg width="18" height="18" viewBox="0 0 18 18" xmlns="http://www.w3.org/2000/svg"><title>freight-mgmt</title><desc>Created with Sketch.</desc><path d="M16 18h-.004c1.105 0 2.004-.896 2.004-2v-7l-.01-.034c-.009-.275-.122-.544-.349-.734l-5.691-4.742c.027-.16.05-.322.05-.49 0-1.654-1.346-3-3-3-.553 0-1 .448-1 1s.447 1 1 1c.552 0 1 .449 1 1 0 .551-.448 1-1 1s-1-.449-1-1c0-.552-.447-1-1-1-.553 0-1 .448-1 1 0 .168.023.33.05.49l-5.691 4.742c-.227.19-.34.459-.349.734l-.01.034v7c0 1.104.899 2 2.004 2h-.004l-.004-8.533 1-.832 4.052-3.374c.526.454 1.203.739 1.951.739s1.425-.285 1.951-.739l4.05 3.374 1 .834v8.531zm-11 0c-.552 0-1-.448-1-1v-7c0-.552.448-1 1-1s1 .448 1 1v7c0 .552-.448 1-1 1m4 0c-.552 0-1-.448-1-1v-7c0-.552.448-1 1-1s1 .448 1 1v7c0 .552-.448 1-1 1m4 0c-.552 0-1-.448-1-1v-7c0-.552.448-1 1-1s1 .448 1 1v7c0 .552-.448 1-1 1" fill="#5C5C5C"/></svg>