<svg width="18" height="18" viewBox="0 0 18 18" xmlns="http://www.w3.org/2000/svg"><title>invoicing</title><desc>Created with Sketch.</desc><path d="M15.414 3.414l-2.828-2.828c-.375-.375-.884-.586-1.415-.586h-6.671c-1.378 0-2.5 1.121-2.5 2.5v13c0 1.379 1.122 2.5 2.5 2.5h9c1.378 0 2.5-1.121 2.5-2.5v-10.672c0-.53-.211-1.039-.586-1.414zm-1.414 12.086c0 .276-.224.5-.5.5h-9c-.276 0-.5-.224-.5-.5v-13c0-.276.224-.5.5-.5h5.5v3c0 .55.45 1 1 1h3v9.5zm-5.937-1.5c-.254 0-.508-.096-.703-.288l-2.062-2.001c-.393-.388-.397-1.021-.009-1.414s1.021-.396 1.414-.008l1.353 1.299 3.238-3.291c.391-.39 1.023-.392 1.415-.004.391.389.393 1.022.004 1.414l-3.94 3.998c-.196.196-.453.295-.71.295" fill="#5C5C5C"/></svg>