<svg width="18" height="18" viewBox="0 0 18 18" xmlns="http://www.w3.org/2000/svg"><title>item-purchase-data</title><desc>Created with Sketch.</desc><path d="M13 4c-1.936 0-3-.751-3-1s1.064-1 3-1 3 .751 3 1-1.064 1-3 1zm-5 3.429c0 1.766 2.592 2.571 5 2.571s5-.805 5-2.571v-4.429c0-1.71-2.149-3-5-3s-5 1.29-5 3v4.429zm2-.429v-1.579c.826.362 1.851.579 3 .579s2.174-.217 3-.579v1.894c-.257.255-1.33.685-3 .685-1.681 0-2.759-.437-3.007-.69l.007-.31zm-4 .429v-1.429h-4c-1.105 0-2 .896-2 2h6.047c-.029-.186-.047-.375-.047-.571m-2.5 8.571c-.828 0-1.5-.672-1.5-1.5s.672-1.5 1.5-1.5 1.5.672 1.5 1.5-.672 1.5-1.5 1.5m9.5-4c-2.67 0-4.777-.749-5.956-2h-7.044v6c0 1.104.895 2 2 2h14c1.105 0 2-.896 2-2v-5.219c-1.223.774-2.944 1.219-5 1.219" fill="#5C5C5C"/></svg>