<svg width="18" height="18" viewBox="0 0 18 18" xmlns="http://www.w3.org/2000/svg"><title>project</title><desc>Created with Sketch.</desc><path d="M4 13h10v-9h-10v9zm13-11h-7v-1c0-.553-.447-1-1-1-.553 0-1 .447-1 1v1h-7c-.553 0-1 .447-1 1 0 .553.447 1 1 1h1v9c0 1.103.897 2 2 2h2.001l-1.601 1.2c-.442.331-.532.958-.2 1.4.196.262.496.4.801.4.209 0 .419-.065.599-.2l3.4-2.55 3.4 2.55c.18.135.39.2.599.2.305 0 .605-.138.801-.4.332-.442.242-1.069-.2-1.4l-1.601-1.2h2.001c1.103 0 2-.897 2-2v-9h1c.553 0 1-.447 1-1 0-.553-.447-1-1-1zm-10 4c-.55 0-1 .45-1 1s.45 1 1 1h2c.55 0 1-.45 1-1s-.45-1-1-1h-2zm-1 4c0 .55.45 1 1 1h4c.55 0 1-.45 1-1s-.45-1-1-1h-4c-.55 0-1 .45-1 1" fill="#5C5C5C"/></svg>