<svg width="18" height="18" viewBox="0 0 18 18" xmlns="http://www.w3.org/2000/svg"><title>quality-mgmt</title><desc>Created with Sketch.</desc><path d="M7.063 9c-.254 0-.508-.096-.703-.288l-2.062-2.001c-.393-.388-.397-1.021-.009-1.414s1.021-.396 1.414-.008l1.353 1.299 6.235-6.293c.391-.391 1.023-.393 1.415-.005.392.39.393 1.023.004 1.415l-6.937 7c-.196.196-.453.295-.71.295m10.644 7.293l-5.108-5.109-.001.001c.876-1.169 1.402-2.615 1.402-4.185 0-.552-.447-1-1-1-.552 0-1 .448-1 1 0 2.757-2.243 5-5 5s-5-2.243-5-5 2.243-5 5-5c.572 0 1.132.096 1.665.284.522.186 1.092-.09 1.277-.61.183-.521-.09-1.092-.611-1.276-.748-.264-1.532-.398-2.331-.398-3.859 0-7 3.14-7 7s3.141 7 7 7c1.57 0 3.016-.526 4.185-1.402l5.108 5.109c.195.195.451.293.707.293.256 0 .512-.098.707-.293.391-.391.391-1.023 0-1.414" fill="#5C5C5C"/></svg>