<svg width="18" height="18" viewBox="0 0 18 18" xmlns="http://www.w3.org/2000/svg"><title>service</title><desc>Created with Sketch.</desc><path d="M11 5h-4v-1.5c0-.271.229-.5.5-.5h3c.271 0 .5.229.5.5v1.5zm4.5 0h-2.5v-1.5c0-1.375-1.125-2.5-2.5-2.5h-3c-1.375 0-2.5 1.125-2.5 2.5v1.5h-2.5c-1.381 0-2.5 1.119-2.5 2.5v7c0 1.381 1.119 2.5 2.5 2.5h8.813l-2.183-2.136c-.489.128-1.013.172-1.556.101-1.661-.217-3.037-1.525-3.378-3.165-.159-.769-.08-1.494.16-2.143.126-.34.571-.429.827-.173l2.223 2.223c.196.195.451.293.707.293.256 0 .512-.098.707-.293.391-.391.391-1.023 0-1.414l-2.223-2.223c-.256-.256-.167-.701.173-.827.649-.24 1.374-.319 2.143-.16 1.64.34 2.948 1.716 3.165 3.377.072.555.026 1.088-.109 1.586l4.685 4.659c.797-.418 1.346-1.243 1.346-2.205v-7c0-1.381-1.119-2.5-2.5-2.5z" fill="#5C5C5C"/></svg>