<svg width="18" height="18" viewBox="0 0 18 18" xmlns="http://www.w3.org/2000/svg"><title>new-tech</title><desc>Created with Sketch.</desc><g fill="#5C5C5C"><path d="M11 6h-4c-.552 0-1 .448-1 1v4c0 .552.448 1 1 1h4c.552 0 1-.448 1-1v-4c0-.552-.448-1-1-1"/><path d="M14 13.5c0 .275-.225.5-.5.5h-9c-.275 0-.5-.225-.5-.5v-9c0-.277.22-.5.497-.5h9.002c.279 0 .501.235.501.513v8.987zm3-3.5c.55 0 1-.45 1-1s-.45-1-1-1h-1v-2h1c.55 0 1-.45 1-1s-.45-1-1-1h-1.051c-.199-.978-.971-1.75-1.949-1.949v-1.051c0-.55-.45-1-1-1s-1 .45-1 1v1h-2v-1c0-.55-.45-1-1-1s-1 .45-1 1v1h-2v-1c0-.55-.45-1-1-1s-1 .45-1 1v1.051c-.978.199-1.75.971-1.949 1.949h-1.051c-.55 0-1 .45-1 1s.45 1 1 1h1v2h-1c-.55 0-1 .45-1 1s.45 1 1 1h1v2h-1c-.55 0-1 .45-1 1s.45 1 1 1h1.051c.199.978.971 1.75 1.949 1.949v1.051c0 .55.45 1 1 1s1-.45 1-1v-1h2v1c0 .55.45 1 1 1s1-.45 1-1v-1h2v1c0 .55.45 1 1 1s1-.45 1-1v-1.05c.978-.2 1.75-.972 1.95-1.95h1.05c.55 0 1-.45 1-1s-.45-1-1-1h-1v-2h1z"/></g></svg>