<svg width="18" height="18" viewBox="0 0 18 18" xmlns="http://www.w3.org/2000/svg"><title>tools-add-ons</title><desc>Created with Sketch.</desc><path d="M16.953 3h-2v-2c0-.552-.448-1-1-1s-1 .448-1 1v2h-2c-.552 0-1 .448-1 1s.448 1 1 1h2v2c0 .552.448 1 1 1s1-.448 1-1v-2h2c.552 0 1-.448 1-1s-.448-1-1-1m-3.438 12.153l-4.6-4.6c.3-.7.5-1.4.4-2.2-.2-2.8-2.9-4.7-5.5-4.3-.6.1-.8.9-.4 1.3l1.1 1.1c.8.8 1.9 1.8.9 2.9-1 1.1-2.1.2-2.9-.6l-1.2-1.2c-.5-.5-1.3-.1-1.3.5-.2 2.5 1.6 4.8 4.2 5.1.8.1 1.6-.1 2.3-.4l4.6 4.6c.6.6 1.6.6 2.2 0l.1-.1c.7-.5.7-1.5.1-2.1" fill="#5C5C5C"/></svg>