<svg width="18" height="18" viewBox="0 0 18 18" xmlns="http://www.w3.org/2000/svg"><title>tools</title><desc>Created with Sketch.</desc><path d="M8.915 6.75c.3-.7.5-1.4.4-2.2-.2-2.8-2.9-4.7-5.5-4.3-.6.1-.8.9-.4 1.3l1.1 1.1c.8.8 1.9 1.8.9 2.9-1 1.1-2.1.2-2.9-.6l-1.2-1.2c-.5-.5-1.3-.1-1.3.5-.2 2.5 1.6 4.8 4.2 5.1.8.1 1.6-.1 2.3-.4l8.519 8.519c.6.6 1.6.6 2.2 0l.1-.1c.7-.5.7-1.5.1-2.1l-8.519-8.519zm-3.192 4.684c-.385-.42-1.042-.434-1.444-.031l-3.754 3.753c-.605.605-.605 1.595 0 2.2l.1.1c.5.7 1.5.7 2.1.1l3.815-3.815c.379-.379.392-.988.03-1.383l-.847-.924zm6.23-4.434c.256 0 .512-.098.707-.293l2.818-2.818.354.354 2.121-2.122-2.121-2.121-2.122 2.121.354.354-2.818 2.818c-.391.391-.391 1.023 0 1.414.195.195.451.293.707.293" fill="#5C5C5C"/></svg>