<svg width="18" height="18" viewBox="0 0 18 18" xmlns="http://www.w3.org/2000/svg"><title>warehousing</title><desc>Created with Sketch.</desc><path d="M4.069 18c-1.105 0-2-.896-2-2v-2c0-1.104.895-2 2-2h2c1.105 0 2 .896 2 2v2c0 1.104-.895 2-2 2h-2zm8 0c-1.105 0-2-.896-2-2v-2c0-1.104.895-2 2-2h2c1.105 0 2 .896 2 2v2c0 1.104-.895 2-2 2h-2zm-4-7c-1.105 0-2-.896-2-2v-2c0-1.104.895-2 2-2h2c1.105 0 2 .896 2 2v2c0 1.104-.895 2-2 2h-2zm9 7h-16c-.55 0-1-.45-1-1s.45-1 1-1h16c.55 0 1 .45 1 1s-.45 1-1 1m.708-12.706l-7.071-5.071c-.108-.108-.238-.176-.374-.223h-2.596c-.135.047-.265.115-.373.223l-7.071 5.071c-.389.389-.389 1.025 0 1.414s1.025.389 1.414 0l6.708-4.708h1.241l6.708 4.708c.389.389 1.025.389 1.414 0s.389-1.025 0-1.414" fill="#5C5C5C"/></svg>