<svg width="18" height="18" viewBox="0 0 18 18" xmlns="http://www.w3.org/2000/svg"><title>zoom-fit-screen</title><desc>Created with Sketch.</desc><path d="M1 5c-.552 0-1-.447-1-1v-2c0-1.103.897-2 2-2h2c.552 0 1 .447 1 1 0 .553-.448 1-1 1h-2v2c0 .553-.448 1-1 1m16 0c-.552 0-1-.447-1-1v-2h-2c-.552 0-1-.447-1-1 0-.553.448-1 1-1h2c1.103 0 2 .897 2 2v2c0 .553-.448 1-1 1m-1 13h-2c-.552 0-1-.447-1-1 0-.553.448-1 1-1h2v-2c0-.553.448-1 1-1s1 .447 1 1v2c0 1.103-.897 2-2 2m-12 0h-2c-1.103 0-2-.897-2-2v-2c0-.553.448-1 1-1s1 .447 1 1v2h2c.552 0 1 .447 1 1 0 .553-.448 1-1 1m4-8c-1.102 0-2-.898-2-2 0-1.103.898-2 2-2 1.102 0 2 .897 2 2 0 1.102-.898 2-2 2m5.71 2.295l-2.276-2.276c.35-.595.566-1.28.566-2.019 0-2.206-1.794-4-4-4s-4 1.794-4 4 1.794 4 4 4c.739 0 1.424-.216 2.019-.566l2.276 2.276c.387.387 1.014.387 1.4 0l.015-.015c.387-.386.387-1.013 0-1.4" fill="#5C5C5D"/></svg>