<svg width="14" height="14" viewBox="0 0 14 14" xmlns="http://www.w3.org/2000/svg" xmlns:xlink="http://www.w3.org/1999/xlink"><title>alert</title><desc>Created with Sketch.</desc><defs><path id="a" d="M0 12.989h14v-12.988h-14v12.988z"/></defs><g fill="none"><mask id="b"><use xlink:href="#a"/></mask><path d="M8 6.989c0 .55-.45 1-1 1s-1-.45-1-1v-3c0-.55.45-1 1-1s1 .45 1 1v3zm0 3.5c0 .275-.225.5-.5.5h-1c-.275 0-.5-.225-.5-.5v-1c0-.275.225-.5.5-.5h1c.275 0 .5.225.5.5v1zm5.787.071l-5.446-9.743c-.599-1.101-2.082-1.082-2.681.019l-5.446 9.715c-.604 1.109.142 2.438 1.34 2.438h10.892c1.198 0 1.944-1.319 1.341-2.429z" fill="#FFD800" mask="url(#b)"/></g></svg>