<svg width="14" height="14" viewBox="0 0 14 14" xmlns="http://www.w3.org/2000/svg" xmlns:xlink="http://www.w3.org/1999/xlink"><title>attach</title><desc>Created with Sketch.</desc><defs><path id="a" d="M5.5 14h5.5v-14h-11v14h5.5z"/></defs><g transform="translate(2)" fill="none"><mask id="b"><use xlink:href="#a"/></mask><path d="M5.356 0c-2.953 0-5.356 2.46-5.356 5.485v4.545c0 2.226 1.7 3.97 3.931 3.97 2.205 0 4.069-1.818 4.069-3.97v-3.613c0-1.333-1.16-2.417-2.614-2.417-1.36 0-2.386 1.039-2.386 2.417v2.583c0 .553.447 1 1 1 .552 0 1-.447 1-1v-2.583c0-.277.129-.417.416-.417.275 0 .584.178.584.417v3.613c0 1.068-.948 1.97-2.129 1.97-1.067 0-1.871-.847-1.871-1.97v-4.545c0-1.954 1.474-3.485 3.446-3.485 1.927 0 3.554 1.596 3.554 3.485v3.515c0 .553.447 1 1 1 .552 0 1-.447 1-1v-3.515c0-2.973-2.543-5.485-5.644-5.485" fill="#5C5C5C" mask="url(#b)"/></g></svg>