<svg width="14" height="14" viewBox="0 0 14 14" xmlns="http://www.w3.org/2000/svg" xmlns:xlink="http://www.w3.org/1999/xlink"><title>close</title><desc>Created with Sketch.</desc><defs><path id="a" d="M0 10h10v-10h-10v10z"/></defs><g transform="translate(2 2)" fill="none"><mask id="b"><use xlink:href="#a"/></mask><path d="M6.414 5l3.293-3.293c.391-.391.391-1.023 0-1.414s-1.023-.391-1.414 0l-3.293 3.293-3.293-3.293c-.391-.391-1.023-.391-1.414 0s-.391 1.023 0 1.414l3.293 3.293-3.293 3.293c-.391.391-.391 1.023 0 1.414.195.195.451.293.707.293.256 0 .512-.098.707-.293l3.293-3.293 3.293 3.293c.195.195.451.293.707.293.256 0 .512-.098.707-.293.391-.391.391-1.023 0-1.414l-3.293-3.293z" fill="#5C5C5C" mask="url(#b)"/></g></svg>