<svg width="14" height="14" viewBox="0 0 14 14" xmlns="http://www.w3.org/2000/svg" xmlns:xlink="http://www.w3.org/1999/xlink"><title>save</title><desc>Created with Sketch.</desc><defs><path id="a" d="M0 12h14v-12h-14v12z"/></defs><g transform="translate(0 1)" fill="none"><path d="M8 2h-3c-.55 0-1-.45-1-1s.45-1 1-1h3c.55 0 1 .45 1 1s-.45 1-1 1z" fill="#5C5C5C"/><mask id="b"><use xlink:href="#a"/></mask><path d="M2 10h10v-4h-10v4zm9-8v1c0 .552-.448 1-1 1h-7c-.552 0-1-.448-1-1v-3h-1c-.55 0-1 .45-1 1v9c0 1.105.895 2 2 2h10c1.105 0 2-.895 2-2v-5s0-3-3-3z" fill="#5C5C5C" mask="url(#b)"/></g></svg>