<svg width="14" height="14" viewBox="0 0 14 14" xmlns="http://www.w3.org/2000/svg" xmlns:xlink="http://www.w3.org/1999/xlink"><title>search</title><desc>Created with Sketch.</desc><defs><path id="a" d="M13.999 0h-13.999v14h13.999v-14z"/></defs><g fill="none"><mask id="b"><use xlink:href="#a"/></mask><path d="M5.5 9c-1.93 0-3.5-1.57-3.5-3.5s1.57-3.5 3.5-3.5 3.5 1.57 3.5 3.5-1.57 3.5-3.5 3.5m8.207 3.293l-3.611-3.611-.077-.051c.617-.889.981-1.967.981-3.131 0-3.038-2.462-5.5-5.5-5.5s-5.5 2.462-5.5 5.5 2.462 5.5 5.5 5.5c1.164 0 2.242-.364 3.131-.981l.051.077 3.611 3.611c.195.196.451.293.707.293.256 0 .512-.097.707-.293.39-.39.39-1.023 0-1.414" fill="#5C5C5C" mask="url(#b)"/></g></svg>