<svg width="14" height="14" viewBox="0 0 14 14" xmlns="http://www.w3.org/2000/svg" xmlns:xlink="http://www.w3.org/1999/xlink"><title>settings</title><desc>Created with Sketch.</desc><defs><path id="a" d="M13 6.5v-6.5h-13v13h13v-6.5z"/></defs><g fill="none"><mask id="b"><use xlink:href="#a"/></mask><path d="M6.5 8.667c-1.197 0-2.167-.97-2.167-2.167 0-1.197.97-2.166 2.167-2.166 1.197 0 2.167.969 2.167 2.166s-.97 2.167-2.167 2.167m5.85-3.257l-1.004-.205c-.096-.019-.171-.091-.2-.184-.083-.262-.189-.516-.317-.759-.046-.087-.043-.191.011-.273l.566-.855c.213-.322.17-.75-.103-1.023l-.414-.414c-.273-.273-.7-.316-1.022-.103l-.856.567c-.082.053-.186.056-.273.01-.243-.128-.496-.233-.759-.316-.093-.03-.164-.105-.183-.201l-.206-1.003c-.077-.379-.409-.651-.796-.651h-.588c-.387 0-.719.272-.796.651l-.206 1.003c-.019.096-.09.171-.183.201-.263.083-.516.188-.759.316-.087.046-.191.043-.273-.01l-.856-.567c-.322-.213-.749-.17-1.022.103l-.414.414c-.273.273-.316.701-.103 1.023l.566.855c.054.082.057.186.011.273-.128.243-.234.497-.317.759-.029.093-.104.165-.2.184l-1.004.205c-.378.077-.65.41-.65.796v.588c0 .387.272.72.65.797l1.004.205c.096.019.171.09.2.183.083.263.189.517.317.759.046.088.043.191-.011.273l-.566.856c-.213.322-.17.749.103 1.022l.414.414c.273.273.7.316 1.022.103l.856-.566c.082-.054.186-.056.273-.011.243.129.496.234.759.317.093.029.164.104.183.2l.206 1.004c.077.379.409.65.796.65h.588c.387 0 .719-.271.796-.65l.206-1.004c.019-.096.09-.171.183-.2.263-.083.516-.188.759-.317.087-.045.191-.043.273.011l.856.566c.322.213.749.17 1.022-.103l.414-.414c.273-.273.316-.7.103-1.022l-.566-.856c-.054-.082-.057-.185-.011-.273.128-.242.234-.496.317-.759.029-.093.104-.164.2-.183l1.004-.205c.378-.077.65-.41.65-.797v-.588c0-.386-.272-.719-.65-.796" fill="#5C5C5C" mask="url(#b)"/></g></svg>