<svg xmlns="http://www.w3.org/2000/svg" width="32" height="32" viewBox="0 0 32 32"><path fill="#B3B4B4" d="M19.087 19.148c-.459 0-.893.106-1.278.296l-2.236-2.246c.164-.366.257-.773.257-1.201 0-.43-.093-.836-.257-1.202l2.227-2.237c.389.193.825.302 1.288.302 1.61 0 2.917-1.312 2.917-2.93s-1.307-2.93-2.917-2.93c-1.611 0-2.916 1.312-2.916 2.93 0 .393.078.766.216 1.107l-2.278 2.288c-.364-.165-.769-.257-1.195-.257-1.61 0-2.917 1.311-2.917 2.929s1.307 2.93 2.917 2.93c.427 0 .831-.094 1.195-.259l2.282 2.292c-.141.345-.22.722-.22 1.117 0 1.618 1.305 2.93 2.916 2.93 1.61 0 2.917-1.312 2.917-2.93s-1.308-2.929-2.918-2.929z" opacity=".502"/></svg>