<svg width="18" height="18" viewBox="0 0 18 18" xmlns="http://www.w3.org/2000/svg"><title>bold</title><desc>Created with Sketch.</desc><path d="M4 4.536c0-1.168.608-1.536 1.536-1.536h3.489c1.921 0 4.21.431 4.21 2.976 0 .977-.528 1.905-1.616 2.337v.032c1.216.321 2.016 1.185 2.016 2.77 0 2.417-1.968 3.409-4.242 3.409h-3.857c-.928 0-1.536-.368-1.536-1.537v-8.451zm2.625 3.201h2.16c1.233 0 1.825-.496 1.825-1.408 0-1.105-.929-1.409-1.904-1.409h-2.081v2.817zm0 4.77h2.209c1.024 0 2.176-.208 2.176-1.537 0-1.392-1.216-1.568-2.497-1.568h-1.888v3.105z" fill="#6F6F6F"/></svg>