<svg width="18" height="18" viewBox="0 0 18 18" xmlns="http://www.w3.org/2000/svg" xmlns:sketch="http://www.bohemiancoding.com/sketch/ns"><title>cart</title><desc>Created with Sketch.</desc><path d="M15 11h-8.612l.674-2h6.952c.488 0 .905-.352.986-.833l1.986-5c.103-.611-.367-1.167-.986-1.167h-12.382l-.723-1.447c-.17-.339-.516-.553-.895-.553h-1c-.553 0-1 .447-1 1 0 .553.447 1 1 1h.382l3.538 7.077-.868 2.607c-.103.304-.051.64.137.901s.49.415.811.415h10c.553 0 1-.447 1-1 0-.553-.447-1-1-1m-7 5c0-1.105-.895-2-2-2s-2 .895-2 2 .895 2 2 2 2-.895 2-2m8 0c0-1.105-.895-2-2-2s-2 .895-2 2 .895 2 2 2 2-.895 2-2" sketch:type="MSShapeGroup" fill="#3F4347"/></svg>