<svg width="14" height="14" viewBox="0 0 14 14" xmlns="http://www.w3.org/2000/svg" xmlns:sketch="http://www.bohemiancoding.com/sketch/ns"><title>doesn&apos;t-equal</title><desc>Created with Sketch.</desc><path d="M11 4.013h-1.236l-1.159 2h2.395c.55 0 1-.45 1-1s-.45-1-1-1m0 2.987h-2.974l-1.159 2h4.133c.55 0 1-.45 1-1s-.45-1-1-1m-3.018-4.897c-.238-.138-.545-.059-.683.182l-1.002 1.728h-4.297c-.55 0-1 .45-1 1s.45 1 1 1h3.138l-.579 1h-2.559c-.55 0-1 .45-1 1s.45 1 1 1h1.4l-.717 1.236c-.138.239-.056.545.182.684.079.045.165.067.251.067.172 0 .34-.089.433-.249l4.615-7.964c.139-.239.057-.545-.182-.684" sketch:type="MSShapeGroup" fill="#3F4347"/></svg>