<svg width="22" height="18" viewBox="0 0 22 18" xmlns="http://www.w3.org/2000/svg" xmlns:sketch="http://www.bohemiancoding.com/sketch/ns"><title>h3</title><desc>Created with Sketch.</desc><path d="M1.217 4.58c0-.784.511-1.312 1.312-1.312.8 0 1.313.528 1.313 1.312v3.265h4.769v-3.265c0-.784.513-1.312 1.313-1.312.801 0 1.312.528 1.312 1.312v9.316c0 .784-.511 1.312-1.312 1.312-.8 0-1.313-.528-1.313-1.312v-3.842h-4.769v3.842c0 .784-.513 1.312-1.313 1.312-.801 0-1.312-.528-1.312-1.312v-9.316m12.864 6.738c1.425 0 .656 1.969 2.865 1.969 1.2 0 1.841-.736 1.841-1.728 0-.769-.337-1.328-1.44-1.441-.449-.048-1.329-.128-1.329-.864 0-.833.48-1.009 1.392-1.057.801-.048 1.217-.512 1.217-1.248 0-.961-.753-1.409-1.601-1.409-1.937 0-1.489 1.825-2.753 1.825-.545 0-1.073-.24-1.073-.961 0-1.952 2.321-2.785 3.874-2.785 2.769 0 3.793 1.553 3.793 3.106 0 1.024-.464 1.76-1.36 2.241 1.201.336 1.713 1.296 1.713 2.497 0 2.528-1.953 3.745-4.322 3.745-3.009 0-3.954-1.873-3.954-2.768 0-.658.481-1.122 1.137-1.122" sketch:type="MSShapeGroup" fill="#3F4347"/></svg>