<svg width="22" height="18" viewBox="0 0 22 18" xmlns="http://www.w3.org/2000/svg" xmlns:sketch="http://www.bohemiancoding.com/sketch/ns"><title>h4</title><desc>Created with Sketch.</desc><g sketch:type="MSLayerGroup" fill="#3F4347"><path d="M1.217 4.68c0-.784.511-1.313 1.312-1.313.8 0 1.313.529 1.313 1.313v3.264h4.769v-3.264c0-.784.513-1.313 1.313-1.313.801 0 1.312.529 1.312 1.313v9.315c0 .784-.511 1.313-1.312 1.313-.8 0-1.313-.529-1.313-1.313v-3.842h-4.769v3.842c0 .784-.513 1.313-1.313 1.313-.801 0-1.312-.529-1.312-1.313v-9.315" sketch:type="MSShapeGroup"/><path d="M17.891 12.539h-4.018c-.833 0-1.217-.593-1.217-1.104 0-.417.096-.673.305-.945l4.93-6.323c.24-.32.591-.448 1.04-.448.864 0 1.2.465 1.2 1.152v5.843h.801c.544 0 .896.384.896.912s-.352.913-.896.913h-.801v1.649c0 .671-.288 1.12-1.12 1.12-.832 0-1.12-.449-1.12-1.12v-1.649zm0-5.971h-.033l-3.089 4.146h3.122v-4.146z" sketch:type="MSShapeGroup"/></g></svg>