<svg width="18" height="18" viewBox="0 0 18 18" xmlns="http://www.w3.org/2000/svg" xmlns:sketch="http://www.bohemiancoding.com/sketch/ns"><title>home</title><desc>Created with Sketch.</desc><path d="M16.999 9c-.209 0-.419-.065-.599-.2l-7.4-5.55-7.4 5.55c-.442.332-1.069.243-1.4-.2-.331-.442-.242-1.069.2-1.4l8-6c.355-.267.845-.267 1.2 0l8 6c.442.331.531.958.2 1.4-.197.262-.497.4-.801.4m-7.999-3l7 5v5c0 1.105-.895 2-2 2h-3v-5h-4v5h-2.987c-1.112 0-2.013-.901-2.013-2.013v-4.987l7-5" sketch:type="MSShapeGroup" fill="#3F4347"/></svg>