<svg width="50" height="18" viewBox="0 0 50 18" xmlns="http://www.w3.org/2000/svg" xmlns:sketch="http://www.bohemiancoding.com/sketch/ns"><title>html</title><desc>Created with Sketch.</desc><path d="M2.217 4.68c0-.784.511-1.313 1.312-1.313.8 0 1.313.529 1.313 1.313v3.264h4.769v-3.264c0-.784.513-1.313 1.313-1.313.801 0 1.312.529 1.312 1.313v9.315c0 .784-.511 1.313-1.312 1.313-.8 0-1.313-.529-1.313-1.313v-3.842h-4.769v3.842c0 .784-.513 1.313-1.313 1.313-.801 0-1.312-.529-1.312-1.313v-9.315m15.264 1.104h-2.48c-.752 0-1.36-.385-1.36-1.104 0-.721.608-1.105 1.36-1.105h7.587c.752 0 1.36.384 1.36 1.105 0 .719-.608 1.104-1.36 1.104h-2.481v8.211c0 .784-.512 1.313-1.313 1.313-.8 0-1.313-.529-1.313-1.313v-8.211m7.824-1.121c0-1.056.719-1.296 1.423-1.296h.769c.817 0 1.2.32 1.473 1.2l2.289 7.395h.032l2.257-7.395c.271-.88.656-1.2 1.473-1.2h.736c.704 0 1.424.24 1.424 1.296v9.364c0 .657-.32 1.281-1.168 1.281-.849 0-1.169-.624-1.169-1.281v-7.138h-.032l-2.449 7.65c-.176.545-.576.769-1.121.769-.544 0-.944-.224-1.12-.769l-2.449-7.65h-.031v7.138c0 .657-.321 1.281-1.169 1.281-.849 0-1.168-.624-1.168-1.281v-9.364m14.256.017c0-.784.511-1.313 1.312-1.313.8 0 1.313.529 1.313 1.313v8.211h4.385c.752 0 1.361.383 1.361 1.104 0 .721-.609 1.105-1.361 1.105h-5.474c-.928 0-1.536-.369-1.536-1.538v-8.882" sketch:type="MSShapeGroup" fill="#3F4347"/></svg>