<svg width="18" height="18" viewBox="0 0 18 18" xmlns="http://www.w3.org/2000/svg" xmlns:sketch="http://www.bohemiancoding.com/sketch/ns"><title>quote</title><desc>Created with Sketch.</desc><path d="M12.5 8c-.171 0-.338.018-.5.05v-.046c.008-.458.188-1.004 1-1.004.553 0 1-.447 1-1 0-.553-.447-1-1-1-1.088 0-1.758.445-2.129.818-.856.864-.872 2.057-.871 2.182v4c0 .553.447 1 1 1 .209 0 .392-.079.553-.188.292.119.611.188.947.188 1.381 0 2.5-1.119 2.5-2.5s-1.119-2.5-2.5-2.5m-7 0c-.171 0-.338.018-.5.05v-.046c.008-.458.188-1.004 1-1.004.553 0 1-.447 1-1 0-.553-.447-1-1-1-1.088 0-1.758.445-2.129.818-.856.864-.872 2.057-.871 2.182v4c0 .553.447 1 1 1 .209 0 .392-.079.553-.188.292.119.611.188.947.188 1.381 0 2.5-1.119 2.5-2.5s-1.119-2.5-2.5-2.5" sketch:type="MSShapeGroup" fill="#3F4347"/></svg>