<svg width="18" height="18" viewBox="0 0 18 18" xmlns="http://www.w3.org/2000/svg" xmlns:sketch="http://www.bohemiancoding.com/sketch/ns"><title>roles</title><desc>Created with Sketch.</desc><path d="M15.5 5h-2.5v-1.5c0-1.375-1.125-2.5-2.5-2.5h-3c-1.375 0-2.5 1.125-2.5 2.5v1.5h-2.5c-1.381 0-2.5 1.119-2.5 2.5v7c0 1.381 1.119 2.5 2.5 2.5h13c1.381 0 2.5-1.119 2.5-2.5v-7c0-1.381-1.119-2.5-2.5-2.5zm-8.5-1.5c0-.271.229-.5.5-.5h3c.271 0 .5.229.5.5v1.5h-4v-1.5z" sketch:type="MSShapeGroup" fill="#3F4347"/></svg>