<svg width="18" height="18" viewBox="0 0 18 18" xmlns="http://www.w3.org/2000/svg" xmlns:sketch="http://www.bohemiancoding.com/sketch/ns"><title>tree-collapse-folder</title><desc>Created with Sketch.</desc><path d="M6.67 2l.031.002.034.056 1.525 1.942h7.74v12h-14v-14h4.67m0-2h-4.67c-1.105 0-2 .895-2 2v14c0 1.104.895 2 2 2h14c1.104 0 2-.896 2-2v-12c0-1.105-.896-2-2-2h-6.768l-.846-1.078c-.362-.603-1.013-.922-1.716-.922m3.33 9h2c.552 0 1 .448 1 1s-.448 1-1 1h-6c-.552 0-1-.448-1-1s.448-1 1-1h4" sketch:type="MSShapeGroup" fill="#3F4347"/></svg>