<svg width="18" height="18" viewBox="0 0 18 18" xmlns="http://www.w3.org/2000/svg" xmlns:sketch="http://www.bohemiancoding.com/sketch/ns"><title>underline</title><desc>Created with Sketch.</desc><path d="M3.717 2.58c0-.784.512-1.312 1.312-1.312s1.313.528 1.313 1.312v6.307c0 1.568.88 2.272 2.385 2.272 1.504 0 2.384-.704 2.384-2.272v-6.307c0-.784.513-1.312 1.313-1.312.801 0 1.312.528 1.312 1.312v6.099c0 3.169-1.952 4.594-5.009 4.594-3.058 0-5.01-1.425-5.01-4.594v-6.099m1.283 11.42h8c.55 0 1 .45 1 1s-.45 1-1 1h-8c-.55 0-1-.45-1-1s.45-1 1-1" sketch:type="MSShapeGroup" fill="#3F4347"/></svg>