<svg xmlns="http://www.w3.org/2000/svg" width="34" height="34" viewBox="0 0 34 34"><path fill="#D52027" d="M0 0h34v34h-34z"/><g fill="#fff"><path d="M3.035 14.038h2.151v6.97h-2.151zM6.334 14.038h2.065v.64s.358-.812 2.065-.812c2.18 0 2.581 1.434 2.581 3.299v3.843h-2.151v-3.413c0-.803-.014-1.836-1.119-1.836-1.119 0-1.291.875-1.291 1.778v3.471h-2.15v-6.97zM14.194 12.805c0-1.521.387-2.811 2.725-2.811.43 0 .861.028 1.262.129l-.101 1.821c-.244-.086-.445-.144-.703-.144-.688 0-1.033.215-1.033 1.133v1.104h1.592v1.721h-1.592v5.249h-2.151v-8.202zM22.089 13.866c2.15 0 3.872 1.434 3.872 3.657 0 2.222-1.722 3.657-3.872 3.657-2.151 0-3.872-1.435-3.872-3.657 0-2.223 1.721-3.657 3.872-3.657m0 5.421c1.075 0 1.721-.718 1.721-1.764 0-1.047-.646-1.764-1.721-1.764-1.076 0-1.721.717-1.721 1.764 0 1.046.645 1.764 1.721 1.764"/><path d="M26.804 14.038h2.15v.609s.562-.88 2.754-.786v1.888c-.302-.086-.603-.143-.918-.143-1.635 0-1.836 1.176-1.836 2.567v2.835h-2.15v-6.97zM3.035 11.741l2.151-1.474v2.623h-2.151z"/></g></svg>