<?xml version="1.0" encoding="utf-8"?>
<!-- Generator: Adobe Illustrator 16.0.4, SVG Export Plug-In . SVG Version: 6.00 Build 0)  -->
<!DOCTYPE svg PUBLIC "-//W3C//DTD SVG 1.1//EN" "http://www.w3.org/Graphics/SVG/1.1/DTD/svg11.dtd">
<svg version="1.1" id="Layer_1" xmlns="http://www.w3.org/2000/svg" xmlns:xlink="http://www.w3.org/1999/xlink" x="0px" y="0px"
	 width="34px" height="34px" viewBox="0 0 34 34" enable-background="new 0 0 34 34" xml:space="preserve">
<g>
	<rect fill="#D52027" width="34" height="34"/>
	<g>
		<rect x="3.035" y="14.038" fill="#FFFFFF" width="2.151" height="6.97"/>
		<path fill="#FFFFFF" d="M6.334,14.038h2.065v0.64c0,0,0.358-0.812,2.065-0.812c2.18,0,2.581,1.434,2.581,3.299v3.843h-2.151
			v-3.413c0-0.803-0.014-1.836-1.119-1.836c-1.119,0-1.291,0.875-1.291,1.778v3.471H6.334V14.038z"/>
		<path fill="#FFFFFF" d="M14.194,12.805c0-1.521,0.387-2.811,2.725-2.811c0.43,0,0.861,0.028,1.262,0.129l-0.101,1.821
			c-0.244-0.086-0.445-0.144-0.703-0.144c-0.688,0-1.033,0.215-1.033,1.133v1.104h1.592v1.721h-1.592v5.249h-2.151V12.805z"/>
		<path fill="#FFFFFF" d="M22.089,13.866c2.15,0,3.872,1.434,3.872,3.657c0,2.222-1.722,3.657-3.872,3.657
			c-2.151,0-3.872-1.435-3.872-3.657C18.217,15.3,19.938,13.866,22.089,13.866 M22.089,19.287c1.075,0,1.721-0.718,1.721-1.764
			c0-1.047-0.646-1.764-1.721-1.764c-1.076,0-1.721,0.717-1.721,1.764C20.368,18.569,21.013,19.287,22.089,19.287"/>
		<path fill="#FFFFFF" d="M26.804,14.038h2.15v0.609c0,0,0.562-0.88,2.754-0.786v1.888c-0.302-0.086-0.603-0.143-0.918-0.143
			c-1.635,0-1.836,1.176-1.836,2.567v2.835h-2.15V14.038z"/>
		<polygon fill="#FFFFFF" points="3.035,11.741 5.186,10.267 5.186,12.89 3.035,12.89 		"/>
	</g>
</g>
</svg>
