<?xml version="1.0" encoding="utf-8"?>
<!-- Generator: Adobe Illustrator 16.0.4, SVG Export Plug-In . SVG Version: 6.00 Build 0)  -->
<!DOCTYPE svg PUBLIC "-//W3C//DTD SVG 1.1//EN" "http://www.w3.org/Graphics/SVG/1.1/DTD/svg11.dtd">
<svg version="1.1" id="Layer_1" xmlns="http://www.w3.org/2000/svg" xmlns:xlink="http://www.w3.org/1999/xlink" x="0px" y="0px"
	 width="32px" height="32px" viewBox="0 0 32 32" enable-background="new 0 0 32 32" xml:space="preserve">
<g id="Ellipse_2_copy_10" opacity="0.502">
	<g>
		<path fill="#B3B4B4" d="M23,21v-1h-1v-1h-1.282C21.515,17.864,22,16.494,22,15c0-3.866-3.134-7-7-7s-7,3.134-7,7s3.134,7,7,7
			c1.494,0,2.864-0.485,4-1.282V22h1v1h1v1h2v-1h1v-2H23z M15,20c-2.762,0-5-2.238-5-5s2.238-5,5-5s5,2.238,5,5S17.762,20,15,20z"/>
	</g>
</g>
</svg>
