<?xml version="1.0" encoding="utf-8"?>
<!-- Generator: Adobe Illustrator 16.0.4, SVG Export Plug-In . SVG Version: 6.00 Build 0)  -->
<!DOCTYPE svg PUBLIC "-//W3C//DTD SVG 1.1//EN" "http://www.w3.org/Graphics/SVG/1.1/DTD/svg11.dtd">
<svg version="1.1" id="Layer_1" xmlns="http://www.w3.org/2000/svg" xmlns:xlink="http://www.w3.org/1999/xlink" x="0px" y="0px"
	 width="32px" height="32px" viewBox="0 0 32 32" enable-background="new 0 0 32 32" xml:space="preserve">
<g id="Shape_6_copy_7" opacity="0.502">
	<g>
		<path fill="#B3B4B4" d="M19.087,19.148c-0.459,0-0.893,0.106-1.278,0.296l-2.236-2.246c0.164-0.366,0.257-0.773,0.257-1.201
			c0-0.43-0.093-0.836-0.257-1.202l2.227-2.237c0.389,0.193,0.825,0.302,1.288,0.302c1.61,0,2.917-1.312,2.917-2.93
			c0-1.618-1.307-2.93-2.917-2.93c-1.611,0-2.916,1.312-2.916,2.93c0,0.393,0.078,0.766,0.216,1.107l-2.278,2.288
			c-0.364-0.165-0.769-0.257-1.195-0.257c-1.61,0-2.917,1.311-2.917,2.929s1.307,2.93,2.917,2.93c0.427,0,0.831-0.094,1.195-0.259
			l2.282,2.292c-0.141,0.345-0.22,0.722-0.22,1.117c0,1.618,1.305,2.93,2.916,2.93c1.61,0,2.917-1.312,2.917-2.93
			S20.697,19.148,19.087,19.148z"/>
	</g>
</g>
</svg>
