<svg width="18" height="18" viewBox="0 0 18 18" xmlns="http://www.w3.org/2000/svg" xmlns:sketch="http://www.bohemiancoding.com/sketch/ns"><title>attach</title><desc>Created with Sketch.</desc><path d="M9.356 0c-2.953 0-5.356 2.46-5.356 5.485v8.545c0 2.226 1.7 3.97 3.932 3.97 2.205 0 4.068-1.818 4.068-3.97v-7.613c0-1.333-1.159-2.417-2.613-2.417-1.361 0-2.387 1.039-2.387 2.417v4.583c0 .553.447 1 1 1 .553 0 1-.447 1-1v-4.583c0-.277.13-.417.416-.417.275 0 .584.178.584.417v7.613c0 1.068-.947 1.97-2.129 1.97-1.066 0-1.871-.847-1.871-1.97v-8.545c0-1.954 1.475-3.485 3.446-3.485 1.927 0 3.554 1.596 3.554 3.485v8.515c0 .553.447 1 1 1 .553 0 1-.447 1-1v-8.515c0-2.973-2.543-5.485-5.644-5.485" sketch:type="MSShapeGroup" fill="#2B2A2A"/></svg>