<svg width="18" height="18" viewBox="0 0 18 18" xmlns="http://www.w3.org/2000/svg" xmlns:sketch="http://www.bohemiancoding.com/sketch/ns"><title>bullet-list</title><desc>Created with Sketch.</desc><path d="M18 3.99c0-.547-.443-.99-.99-.99h-12.02c-.547 0-.99.443-.99.99v.02c0 .547.443.99.99.99h12.02c.547 0 .99-.443.99-.99v-.02zm-16.98-.99h-.02c-.547 0-.99.443-.99.99v.02c0 .547.443.99.99.99h.02c.546 0 .99-.443.99-.99v-.02c0-.547-.444-.99-.99-.99zm16.98 5.99c0-.547-.443-.99-.99-.99h-12.02c-.547 0-.99.443-.99.99v.02c0 .547.443.99.99.99h12.02c.547 0 .99-.443.99-.99v-.02zm-16.98-.99h-.02c-.547 0-.99.443-.99.99v.02c0 .547.443.99.99.99h.02c.546 0 .99-.443.99-.99v-.02c0-.547-.444-.99-.99-.99zm16.98 5.99c0-.547-.443-.99-.99-.99h-12.02c-.547 0-.99.443-.99.99v.02c0 .547.443.99.99.99h12.02c.547 0 .99-.443.99-.99v-.02zm-16.98-.99h-.02c-.547 0-.99.443-.99.99v.02c0 .547.443.99.99.99h.02c.546 0 .99-.443.99-.99v-.02c0-.547-.444-.99-.99-.99z" sketch:type="MSShapeGroup" fill="#2B2A2A"/></svg>