<svg width="18" height="18" viewBox="0 0 18 18" xmlns="http://www.w3.org/2000/svg" xmlns:sketch="http://www.bohemiancoding.com/sketch/ns"><title>calendar</title><desc>Created with Sketch.</desc><path d="M15.5 2h-.5v-1.01c0-.547-.443-.99-.99-.99h-.02c-.547 0-.99.443-.99.99v1.01h-8v-1.01c0-.547-.443-.99-.99-.99h-.02c-.547 0-.99.443-.99.99v1.01h-.5c-1.378 0-2.5 1.122-2.5 2.5v11c0 1.378 1.122 2.5 2.5 2.5h13c1.378 0 2.5-1.122 2.5-2.5v-11c0-1.378-1.122-2.5-2.5-2.5zm.5 13.5c0 .276-.224.5-.5.5h-13c-.276 0-.5-.224-.5-.5v-7.5h14v7.5z" sketch:type="MSShapeGroup" fill="#2B2A2A"/></svg>