<svg width="18" height="18" viewBox="0 0 18 18" xmlns="http://www.w3.org/2000/svg" xmlns:sketch="http://www.bohemiancoding.com/sketch/ns"><title>check-box</title><desc>Created with Sketch.</desc><path d="M8.063 13c-.254 0-.508-.096-.703-.288l-4.063-4.001c-.393-.388-.397-1.021-.008-1.413.387-.395 1.021-.397 1.414-.009l3.353 3.299 7.235-7.293c.39-.39 1.022-.393 1.414-.005.392.391.394 1.024.004 1.415l-7.937 8c-.196.196-.453.295-.709.295zm5.937-3c-.552 0-1 .447-1 1v3.599c0 .389-.449.401-.5.401h-10c-.051 0-.5-.012-.5-.401v-10.099c0-.275.224-.5.5-.5h9.5c.552 0 1-.447 1-1 0-.553-.448-1-1-1h-9.5c-1.378 0-2.5 1.121-2.5 2.5v10.099c0 1.346 1.098 2.401 2.5 2.401h10c1.402 0 2.5-1.055 2.5-2.401v-3.599c0-.553-.448-1-1-1z" sketch:type="MSShapeGroup" fill="#2B2A2A"/></svg>