<svg width="18" height="18" viewBox="0 0 18 18" xmlns="http://www.w3.org/2000/svg" xmlns:sketch="http://www.bohemiancoding.com/sketch/ns"><title>clock</title><desc>Created with Sketch.</desc><path d="M9 0c-4.963 0-9 4.037-9 9s4.037 9 9 9 9-4.037 9-9-4.037-9-9-9zm0 16c-3.859 0-7-3.141-7-7s3.141-7 7-7 7 3.141 7 7-3.141 7-7 7zm1-7.414v-2.586c0-.553-.447-1-1-1-.553 0-1 .447-1 1v3c0 .266.105.519.293.707l2 2c.195.195.451.293.707.293.256 0 .512-.098.707-.293.391-.391.391-1.023 0-1.414l-1.707-1.707" sketch:type="MSShapeGroup" fill="#2B2A2A"/></svg>