<svg width="18" height="18" viewBox="0 0 18 18" xmlns="http://www.w3.org/2000/svg" xmlns:sketch="http://www.bohemiancoding.com/sketch/ns"><title>expand-context-app-tray</title><desc>Created with Sketch.</desc><path d="M4 15c-.256 0-.512-.098-.707-.293-.391-.391-.391-1.023 0-1.414l4.293-4.293-4.293-4.293c-.391-.391-.391-1.023 0-1.414s1.023-.391 1.414 0l5 5c.391.391.391 1.023 0 1.414l-5 5c-.195.195-.451.293-.707.293zm6 0c-.256 0-.512-.098-.707-.293-.391-.391-.391-1.023 0-1.414l4.293-4.293-4.293-4.293c-.391-.391-.391-1.023 0-1.414s1.023-.391 1.414 0l5 5c.391.391.391 1.023 0 1.414l-5 5c-.195.195-.451.293-.707.293z" sketch:type="MSShapeGroup" fill="#2B2A2A"/></svg>