<svg width="18" height="18" viewBox="0 0 18 18" xmlns="http://www.w3.org/2000/svg" xmlns:sketch="http://www.bohemiancoding.com/sketch/ns"><title>export-spreadsheet</title><desc>Created with Sketch.</desc><path d="M5 6h-1.269c-.604 0-.947-.861-.58-1.337l2.269-4.403c.292-.378.868-.328 1.16.05l2.269 4.329c.367.474.024 1.361-.58 1.361h-1.269v1c0 .553-.448 1-1 1s-1-.447-1-1v-1zm10.414-1.586l-2.828-2.828c-.375-.375-.884-.586-1.415-.586h-1.171c-.552 0-1 .447-1 1 0 .553.448 1 1 1v3c0 .55.45 1 1 1h3v2h-10c-.552 0-1 .447-1 1v5.5c0 1.381 1.119 2.5 2.5 2.5h8c1.381 0 2.5-1.119 2.5-2.5v-9.672c0-.53-.211-1.039-.586-1.414zm-10.414 6.586h4v1h-4v-1zm5 0h4v1h-4v-1zm-5 2h4v1h-4v-1zm5 0h4v1h-4v-1zm-5 2h4v1h-4v-1zm5 0h4v1h-4v-1z" sketch:type="MSShapeGroup" fill="#2B2A2A"/></svg>