<svg width="18" height="18" viewBox="0 0 18 18" xmlns="http://www.w3.org/2000/svg" xmlns:sketch="http://www.bohemiancoding.com/sketch/ns"><title>fullview</title><desc>Created with Sketch.</desc><path d="M5 16h-3v-3c0-.552-.447-1-1-1-.553 0-1 .448-1 1v4c0 .552.447 1 1 1h4c.553 0 1-.448 1-1s-.447-1-1-1zm12-16h-4c-.553 0-1 .448-1 1s.447 1 1 1h3v3c0 .552.447 1 1 1 .553 0 1-.448 1-1v-4c0-.552-.447-1-1-1zm-15 5v-3h3c.552 0 1-.447 1-1 0-.553-.448-1-1-1h-4c-.552 0-1 .447-1 1v4c0 .553.448 1 1 1s1-.447 1-1zm16 12v-4c0-.553-.448-1-1-1s-1 .447-1 1v3h-3c-.552 0-1 .447-1 1 0 .553.448 1 1 1h4c.552 0 1-.447 1-1z" sketch:type="MSShapeGroup" fill="#2B2A2A"/></svg>