<svg width="18" height="18" viewBox="0 0 18 18" xmlns="http://www.w3.org/2000/svg" xmlns:sketch="http://www.bohemiancoding.com/sketch/ns"><title>grid</title><desc>Created with Sketch.</desc><path d="M4 1h-2c-.553 0-1 .447-1 1v2c0 .552.447 1 1 1h2c.553 0 1-.448 1-1v-2c0-.553-.447-1-1-1zm6 0h-2c-.553 0-1 .447-1 1v2c0 .552.447 1 1 1h2c.553 0 1-.448 1-1v-2c0-.553-.447-1-1-1zm6 0h-2c-.553 0-1 .447-1 1v2c0 .552.447 1 1 1h2c.553 0 1-.448 1-1v-2c0-.553-.447-1-1-1zm-12 6h-2c-.553 0-1 .447-1 1v2c0 .552.447 1 1 1h2c.553 0 1-.448 1-1v-2c0-.553-.447-1-1-1zm6 0h-2c-.553 0-1 .447-1 1v2c0 .552.447 1 1 1h2c.553 0 1-.448 1-1v-2c0-.553-.447-1-1-1zm6 0h-2c-.553 0-1 .447-1 1v2c0 .552.447 1 1 1h2c.553 0 1-.448 1-1v-2c0-.553-.447-1-1-1zm-12 6h-2c-.553 0-1 .447-1 1v2c0 .552.447 1 1 1h2c.553 0 1-.448 1-1v-2c0-.553-.447-1-1-1zm6 0h-2c-.553 0-1 .447-1 1v2c0 .552.447 1 1 1h2c.553 0 1-.448 1-1v-2c0-.553-.447-1-1-1zm6 0h-2c-.553 0-1 .447-1 1v2c0 .552.447 1 1 1h2c.553 0 1-.448 1-1v-2c0-.553-.447-1-1-1z" sketch:type="MSShapeGroup" fill="#2B2A2A"/></svg>