<svg width="18" height="18" viewBox="0 0 18 18" xmlns="http://www.w3.org/2000/svg" xmlns:sketch="http://www.bohemiancoding.com/sketch/ns"><title>insert-image</title><desc>Created with Sketch.</desc><path d="M15.523 0h-13.046c-1.389 0-2.477 1.055-2.477 2.401v13.198c0 1.346 1.088 2.401 2.477 2.401h13.046c1.389 0 2.477-1.055 2.477-2.401v-13.198c0-1.346-1.088-2.401-2.477-2.401zm-13.046 2h13.046c.051 0 .496.012.496.401v11.619l-3.125-2.869-2.894 1.911-3.958-3.596-4.06 2.534v-9.5c0-.275.221-.5.495-.5zm11.523 4c0-1.105-.895-2-2-2s-2 .895-2 2 .895 2 2 2 2-.895 2-2" sketch:type="MSShapeGroup" fill="#2B2A2A"/></svg>