<svg width="18" height="18" viewBox="0 0 18 18" xmlns="http://www.w3.org/2000/svg" xmlns:sketch="http://www.bohemiancoding.com/sketch/ns"><title>inventory</title><desc>Created with Sketch.</desc>

<g id="toolbar-icons" stroke="none" stroke-width="1" fill="none" fill-rule="evenodd">
      <g id="inventory" fill="#2B2A2A">
            <path d="M4.8935,18 L2.992,18 L3.5,18 C2.119,18 1,16.881 1,15.5 L1,4.5 C1,3.248 1.924,2.22 3.125,2.038 L3.125,2 L4.843,2 L5.69,0.922 C6.051,0.319 6.703,0 7.406,0 L10.746,0 C11.449,0 12.1,0.319 12.462,0.922 L13.308,2 L14.875,2 L14.875,2.038 C16.076,2.22 17,3.248 17,4.5 L17,5 L17,15.5 C17,16.881 15.881,18 14.5,18 L4.8935,18 Z M4.8935,16 L2.992,16 L3.5,16 C3.224,16 3,15.776 3,15.5 L3,4.5 C3,4.224 3.224,4 3.5,4 L14.5,4 C14.776,4 15,4.224 15,4.5 L15,5 L15,15.5 C15,15.776 14.776,16 14.5,16 L4.8935,16 Z M12,7 L6,7 C5.45,7 5,7.45 5,8 C5,8.55 5.45,9 6,9 L12,9 C12.55,9 13,8.55 13,8 C13,7.45 12.55,7 12,7 M12,11 L6,11 C5.45,11 5,11.45 5,12 C5,12.55 5.45,13 6,13 L12,13 C12.55,13 13,12.55 13,12 C13,11.45 12.55,11 12,11"></path>
        </g>
    </g>
</svg>
