<svg width="18" height="18" viewBox="0 0 18 18" xmlns="http://www.w3.org/2000/svg" xmlns:sketch="http://www.bohemiancoding.com/sketch/ns"><title>left-arrow</title><desc>Created with Sketch.</desc><path d="M17 8h-13.564l5.33-5.289c.392-.388.396-1.02.008-1.413-.389-.394-1.021-.397-1.415-.009l-7.062 7c-.393.388-.397 1.021-.009 1.414l7 7.062c.196.198.454.298.712.298.254 0 .508-.097.703-.289.393-.388.397-1.021.009-1.414l-5.318-5.36h13.606c.553 0 1-.448 1-1s-.447-1-1-1" sketch:type="MSShapeGroup" fill="#2B2A2A"/></svg>