<svg width="18" height="18" viewBox="0 0 18 18" xmlns="http://www.w3.org/2000/svg" xmlns:sketch="http://www.bohemiancoding.com/sketch/ns"><title>load</title><desc>Created with Sketch.</desc><path d="M2.073 7.987h-1.322c-.605 0-.947.526-.58 1l2.268 4.436c.292.378.852.335 1.161-.15l2.268-4.286c.367-.474.025-1-.579-1h-1.187c.464-2.281 2.484-4.003 4.9-4.002 1.003-.001 1.932.303 2.711.818l1.435-1.435c-1.163-.862-2.591-1.383-4.146-1.383-3.52 0-6.443 2.614-6.929 6.002zm13.83 1.994h1.358c.604 0 .947-.526.58-1.001l-2.269-4.435c-.292-.378-.85-.336-1.16.149l-2.268 4.286c-.368.476-.025 1.001.58 1.001h1.15c-.466 2.278-2.486 3.998-4.899 3.998-1.003 0-1.933-.303-2.712-.818l-1.434 1.435c1.161.862 2.591 1.382 4.146 1.381 3.519.001 6.44-2.609 6.928-5.996z" sketch:type="MSShapeGroup" fill="#2B2A2A"/></svg>