<svg width="18" height="18" viewBox="0 0 18 18" xmlns="http://www.w3.org/2000/svg" xmlns:sketch="http://www.bohemiancoding.com/sketch/ns"><title>right-arrow</title><desc>Created with Sketch.</desc><path d="M1 10h13.564l-5.33 5.32c-.392.388-.396 1.037-.008 1.43.389.393 1.021.404 1.415.016l7.062-6.996c.393-.388.397-1.019.009-1.412l-7-7.061c-.196-.198-.454-.297-.712-.297-.254 0-.508.096-.703.289-.393.388-.397.989-.009 1.382l5.318 5.329h-13.606c-.553 0-1 .448-1 1s.447 1 1 1" sketch:type="MSShapeGroup" fill="#2B2A2A"/></svg>