<svg width="18" height="18" viewBox="0 0 18 18" xmlns="http://www.w3.org/2000/svg" xmlns:sketch="http://www.bohemiancoding.com/sketch/ns"><title>star-half</title><desc>Created with Sketch.</desc><path d="M17.139 5.989h-5.565l-1.755-5.399c-.129-.394-.468-.59-.809-.59l-.01.002v-.002l-.14.022-.11.017-.117.056-.118.058-.071.068c-.11.097-.204.218-.257.381l-1.755 5.387h-5.571c-.21 0-.39.067-.529.175-.418.325-.48 1.019.039 1.382l4.472 3.101-1.726 5.177c-.031.092-.041.18-.043.267l.004.07.031.181.02.067.098.185.014.023.168.168.047.031.157.086.068.025.177.035.058.007.018.003.142-.023.101-.016.19-.094.064-.032 4.043-2.911.528-.38 4.571 3.336c.16.116.333.167.501.167.539 0 1.018-.533.817-1.142l-1.728-5.23 4.464-3.101c.694-.483.355-1.557-.488-1.557zm-4.832 3.427l-.92.639 1.456 4.407-2.956-2.158-.879-.641-.008.006v-8.719l.004-.013 1.48 4.552h4.595l-2.772 1.927z" sketch:type="MSShapeGroup" fill="#555"/></svg>