<svg width="18" height="18" viewBox="0 0 18 18" xmlns="http://www.w3.org/2000/svg" xmlns:sketch="http://www.bohemiancoding.com/sketch/ns"><title>tack</title><desc>Created with Sketch.</desc><path d="M17.707 7.293l-7-7c-.391-.391-1.023-.391-1.414 0s-.391 1.023 0 1.414l.206.207c-1.022 2.36-3.307 4.562-5.677 5.494l-.115-.115c-.391-.391-1.023-.391-1.414 0s-.391 1.023 0 1.414l2.687 2.688-4.649 4.65c-.441.441-.441 1.155 0 1.597.22.22.509.331.798.331.29 0 .578-.111.799-.331l4.65-4.651 2.715 2.716c.195.195.451.293.707.293.256 0 .512-.098.707-.293.391-.391.391-1.023 0-1.414l-.197-.197c.97-2.328 3.238-4.604 5.565-5.607l.218.218c.195.195.451.293.707.293.256 0 .512-.098.707-.293.391-.391.391-1.023 0-1.414" sketch:type="MSShapeGroup" fill="#2B2A2A"/></svg>