<svg width="18" height="18" viewBox="0 0 18 18" xmlns="http://www.w3.org/2000/svg" xmlns:sketch="http://www.bohemiancoding.com/sketch/ns"><title>timer</title><desc>Created with Sketch.</desc><g sketch:type="MSArtboardGroup" fill="#2B2A2A"><path d="M10 9.586v-2.586c0-.552-.447-1-1-1-.553 0-1 .448-1 1v3c0 .265.105.52.293.707l2 2c.195.195.451.293.707.293.256 0 .512-.098.707-.293.391-.391.391-1.023 0-1.414l-1.707-1.707" sketch:type="MSShapeGroup"/><path d="M17.447 3.227l-2.675-2.677c-.747-.734-1.943-.734-2.676 0l-1.596 1.596c-.486-.093-.987-.146-1.5-.146-.51 0-1.008.053-1.491.145l-1.586-1.586c-.742-.742-1.952-.742-2.706 0l-2.705 2.706c-.742.754-.742 1.964 0 2.706l1.064 1.064c-.368.919-.576 1.917-.576 2.965 0 4.411 3.589 8 8 8s8-3.589 8-8c0-1.078-.217-2.105-.606-3.045l1.053-1.053c.734-.734.734-1.93 0-2.675zm-8.447 12.773c-3.309 0-6-2.691-6-6s2.691-6 6-6 6 2.691 6 6-2.691 6-6 6z" sketch:type="MSShapeGroup"/></g></svg>