<svg width="18" height="18" viewBox="0 0 18 18" xmlns="http://www.w3.org/2000/svg" xmlns:sketch="http://www.bohemiancoding.com/sketch/ns"><title>top-align</title><desc>Created with Sketch.</desc><path d="M6.55 5c.275 0 .5.225.5.5v10c0 .275-.225.5-.5.5h-2c-.276 0-.5-.225-.5-.5v-10c0-.275.224-.5.5-.5h2m0-2h-2c-1.379 0-2.5 1.121-2.5 2.5v10c0 1.378 1.121 2.5 2.5 2.5h2c1.378 0 2.5-1.122 2.5-2.5v-10c0-1.379-1.122-2.5-2.5-2.5zm10.46-3h-1.01v2h1.01c.547 0 .99-.443.99-.99v-.02c0-.547-.443-.99-.99-.99zm-1.01 0h-15.01c-.547 0-.99.443-.99.99v.02c0 .547.443.99.99.99h15.01v-2zm-2.5 3c-1.379 0-2.5 1.121-2.5 2.5v4c0 1.379 1.121 2.5 2.5 2.5s2.5-1.121 2.5-2.5v-4c0-1.379-1.121-2.5-2.5-2.5z" sketch:type="MSShapeGroup" fill="#2B2A2A"/></svg>