<svg width="18" height="18" viewBox="0 0 18 18" xmlns="http://www.w3.org/2000/svg" xmlns:sketch="http://www.bohemiancoding.com/sketch/ns"><title>up-arrow</title><desc>Created with Sketch.</desc><path d="M8.356 2.293l-.062.063h-.001l-5 4.999c-.391.391-.391 1.024 0 1.415.391.39 1.027.39 1.418 0l3.297-3.293v9.585c0 .552.448 1.001 1 1.001s1-.449 1-1.001v-9.71l3.352 3.355c.39.391 1.021.391 1.412 0 .195-.195.292-.451.292-.707 0-.256-.099-.512-.294-.707l-5-5c-.39-.391-1.024-.391-1.414 0" sketch:type="MSShapeGroup" fill="#2B2A2A"/></svg>