<svg width="18" height="18" viewBox="0 0 18 18" xmlns="http://www.w3.org/2000/svg" xmlns:sketch="http://www.bohemiancoding.com/sketch/ns"><title>alert</title><desc>Created with Sketch.</desc><path d="M17.726 13.877l-7.002-12.827c-.771-1.416-2.677-1.392-3.448.024l-7.002 12.791c-.775 1.427.184 3.135 1.724 3.135h14.004c1.54 0 2.499-1.696 1.724-3.123zm-7.726-.377c0 .276-.178.5-.471.5h-1.058c-.293 0-.471-.224-.471-.5v-1c0-.276.178-.5.471-.5h1.058c.293 0 .471.224.471.5v1zm0-4c0 .276-.178.5-.471.5h-1.058c-.293 0-.471-.224-.471-.5v-4c0-.276.178-.5.471-.5h1.058c.293 0 .471.224.471.5v4z" sketch:type="MSShapeGroup" fill="#FFD726"/></svg>