<svg xmlns="http://www.w3.org/2000/svg" viewBox="0 0 18 18" enable-background="new 0 0 18 18"><style type="text/css">.st0{fill:#806594;}</style><path id="XMLID_53_" class="st0" d="M9 6.3v-1.6c-2.5 0-4.8 1.8-5.3 4.4-.5 2.6.9 5.1 3.3 6 .7.3 1 1 .8 1.7-.2.6-.9 1-1.5.8-.1 0-.2 0-.2-.1-3.6-1.4-5.7-5.2-5-9 .8-3.8 4.1-6.5 7.9-6.5v-1.3c0-.6.8-1 1.3-.5l3.1 2.8c.3.3.3.8 0 1l-3.1 2.8c-.5.4-1.3.1-1.3-.5zm1.8 8.9l-.6.2c-.7.2-1.2.9-1 1.6.1.5.5.9 1.1 1h.5l.9-.3c.7-.2 1.1-1 .8-1.7-.3-.7-1-1.1-1.7-.8zm2.6-2.1l-.2.3c-.4.6-.3 1.4.2 1.9l.6.3c.5.1 1-.1 1.3-.5l.3-.4c.4-.6.3-1.5-.4-1.9-.5-.5-1.4-.3-1.8.3zm2.3-4.1c-.7 0-1.4.6-1.4 1.3 0 .7.5 1.2 1.1 1.3h.2c.7 0 1.3-.6 1.4-1.3 0-.7-.6-1.3-1.3-1.3z"/></svg>