<svg width="18" height="18" viewBox="0 0 18 18" xmlns="http://www.w3.org/2000/svg" xmlns:sketch="http://www.bohemiancoding.com/sketch/ns"><title>new</title><desc>Created with Sketch.</desc><path d="M14.273 8.412l-2.729 1.894 1.057 3.192c.161.488-.393.895-.806.594l-2.793-2.036-2.794 2.009c-.414.298-.965-.113-.803-.599l1.055-3.161-2.733-1.894c-.423-.295-.215-.938.299-.938h3.405l1.072-3.3c.159-.485.839-.492.998-.007l1.072 3.307h3.402c.514 0 .722.644.298.939m-5.273-8.412c-4.97 0-9 4.03-9 9 0 4.971 4.03 9 9 9 4.971 0 9-4.029 9-9 0-4.97-4.029-9-9-9" sketch:type="MSShapeGroup" fill="#EE9935"/></svg>