<?xml version="1.0" encoding="UTF-8" standalone="no"?>
<svg width="28px" height="28px" viewBox="0 0 28 28" version="1.1" xmlns="http://www.w3.org/2000/svg" xmlns:xlink="http://www.w3.org/1999/xlink" xmlns:sketch="http://www.bohemiancoding.com/sketch/ns">
    <!-- Generator: Sketch 3.3.2 (12043) - http://www.bohemiancoding.com/sketch -->
    <title>action-buttons</title>
    <desc>Created with Sketch.</desc>
    <defs></defs>
    <g id="Page-1" stroke="none" stroke-width="1" fill="none" fill-rule="evenodd" sketch:type="MSPage">
        <g id="action-buttons" sketch:type="MSArtboardGroup">
            <g id="Imported-Layers" sketch:type="MSLayerGroup" transform="translate(0.000000, 5.000000)">
                <path d="M26.5,17.958 L1.5,17.958 C0.675,17.958 0,17.283 0,16.458 L0,3.458 C0,2.633 0.675,1.958 1.5,1.958 L26.5,1.958 C27.325,1.958 28,2.633 28,3.458 L28,16.458 C28,17.283 27.325,17.958 26.5,17.958" id="Fill-1" fill="#3A8EC1" sketch:type="MSShapeGroup"></path>
                <path d="M26.5,16 L1.5,16 C0.675,16 0,15.325 0,14.5 L0,1.5 C0,0.675 0.675,0 1.5,0 L26.5,0 C27.325,0 28,0.675 28,1.5 L28,14.5 C28,15.325 27.325,16 26.5,16" id="Fill-2" fill="#69B5DD" sketch:type="MSShapeGroup"></path>
                <path d="M7,7 L7,8.958 C7,9.511 7.448,9.958 8,9.958 L20,9.958 C20.552,9.958 21,9.511 21,8.958 L21,7 C21,6.448 20.552,6 20,6 L8,6 C7.448,6 7,6.448 7,7" id="Fill-3" fill="#FFFFFF" sketch:type="MSShapeGroup"></path>
            </g>
        </g>
    </g>
</svg>