<?xml version="1.0" encoding="UTF-8" standalone="no"?>
<svg width="28px" height="28px" viewBox="0 0 28 28" version="1.1" xmlns="http://www.w3.org/2000/svg" xmlns:xlink="http://www.w3.org/1999/xlink" xmlns:sketch="http://www.bohemiancoding.com/sketch/ns">
    <!-- Generator: Sketch 3.3.2 (12043) - http://www.bohemiancoding.com/sketch -->
    <title>breadcrumbs</title>
    <desc>Created with Sketch.</desc>
    <defs></defs>
    <g id="Page-1" stroke="none" stroke-width="1" fill="none" fill-rule="evenodd" sketch:type="MSPage">
        <g id="breadcrumbs" sketch:type="MSArtboardGroup">
            <g id="Imported-Layers" sketch:type="MSLayerGroup" transform="translate(1.000000, 10.000000)">
                <path d="M0.172,4 L0.172,4 C0.172,4.552 0.619,5 1.172,5 L5.172,5 C5.724,5 6.172,4.552 6.172,4 C6.172,3.448 5.724,3 5.172,3 L1.172,3 C0.619,3 0.172,3.448 0.172,4" id="Fill-1" fill="#C8CBD4" sketch:type="MSShapeGroup"></path>
                <path d="M13.172,4 L13.172,4 C13.172,4.552 13.62,5 14.172,5 L18.172,5 C18.724,5 19.172,4.552 19.172,4 C19.172,3.448 18.724,3 18.172,3 L14.172,3 C13.62,3 13.172,3.448 13.172,4" id="Fill-2" fill="#69B5DD" sketch:type="MSShapeGroup"></path>
                <path d="M7.636,5.535 L7.636,5.535 C8.027,5.926 8.66,5.926 9.05,5.535 L11.879,2.707 C12.269,2.317 12.269,1.683 11.879,1.293 C11.488,0.902 10.855,0.902 10.465,1.293 L7.636,4.121 C7.246,4.512 7.246,5.145 7.636,5.535" id="Fill-3" fill="#C8CBD4" sketch:type="MSShapeGroup"></path>
                <path d="M20.465,5.535 L20.465,5.535 C20.855,5.926 21.488,5.926 21.879,5.535 L24.707,2.707 C25.098,2.317 25.098,1.683 24.707,1.293 C24.317,0.902 23.683,0.902 23.293,1.293 L20.465,4.121 C20.074,4.512 20.074,5.145 20.465,5.535" id="Fill-4" fill="#C8CBD4" sketch:type="MSShapeGroup"></path>
            </g>
        </g>
    </g>
</svg>