<?xml version="1.0" encoding="UTF-8" standalone="no"?>
<svg width="28px" height="28px" viewBox="0 0 28 28" version="1.1" xmlns="http://www.w3.org/2000/svg" xmlns:xlink="http://www.w3.org/1999/xlink" xmlns:sketch="http://www.bohemiancoding.com/sketch/ns">
    <!-- Generator: Sketch 3.3.2 (12043) - http://www.bohemiancoding.com/sketch -->
    <title>carousel</title>
    <desc>Created with Sketch.</desc>
    <defs></defs>
    <g id="Page-1" stroke="none" stroke-width="1" fill="none" fill-rule="evenodd" sketch:type="MSPage">
        <g id="carousel" sketch:type="MSArtboardGroup">
            <g id="Imported-Layers" sketch:type="MSLayerGroup" transform="translate(1.000000, 8.000000)">
                <path d="M16.5,11 L9.5,11 C8.675,11 8,10.325 8,9.5 L8,1.5 C8,0.675 8.675,0 9.5,0 L16.5,0 C17.325,0 18,0.675 18,1.5 L18,9.5 C18,10.325 17.325,11 16.5,11" id="Fill-1" fill="#F4C951" sketch:type="MSShapeGroup"></path>
                <path d="M24.5,9 L20.5,9 C19.675,9 19,8.325 19,7.5 L19,3.5 C19,2.675 19.675,2 20.5,2 L24.5,2 C25.325,2 26,2.675 26,3.5 L26,7.5 C26,8.325 25.325,9 24.5,9" id="Fill-2" fill="#C8CBD4" sketch:type="MSShapeGroup"></path>
                <path d="M5.5,9 L1.5,9 C0.675,9 0,8.325 0,7.5 L0,3.5 C0,2.675 0.675,2 1.5,2 L5.5,2 C6.325,2 7,2.675 7,3.5 L7,7.5 C7,8.325 6.325,9 5.5,9" id="Fill-3" fill="#C8CBD4" sketch:type="MSShapeGroup"></path>
            </g>
        </g>
    </g>
</svg>