<?xml version="1.0" encoding="UTF-8" standalone="no"?>
<svg width="28px" height="28px" viewBox="0 0 28 28" version="1.1" xmlns="http://www.w3.org/2000/svg" xmlns:xlink="http://www.w3.org/1999/xlink" xmlns:sketch="http://www.bohemiancoding.com/sketch/ns">
    <!-- Generator: Sketch 3.3.2 (12043) - http://www.bohemiancoding.com/sketch -->
    <title>check-boxes&amp;radio-buttons</title>
    <desc>Created with Sketch.</desc>
    <defs></defs>
    <g id="Page-1" stroke="none" stroke-width="1" fill="none" fill-rule="evenodd" sketch:type="MSPage">
        <g id="check-boxes&amp;radio-buttons" sketch:type="MSArtboardGroup">
            <g id="Imported-Layers" sketch:type="MSLayerGroup" transform="translate(3.000000, 3.000000)">
                <path d="M19.833,0 L2.167,0 C0.97,0 0,0.97 0,2.167 L0,19.833 C0,21.03 0.97,22 2.167,22 L19.833,22 C21.03,22 22,21.03 22,19.833 L22,2.167 C22,0.97 21.03,0 19.833,0" id="Fill-1" fill="#69B5DD" sketch:type="MSShapeGroup"></path>
                <path d="M2.167,22 L19.833,22 C20.432,22 20.973,21.757 21.366,21.365 L0.635,0.635 C0.243,1.027 0,1.568 0,2.167 L0,19.833 C0,21.03 0.97,22 2.167,22" id="Fill-2" fill="#54A1D3" sketch:type="MSShapeGroup"></path>
                <path d="M8,17 C7.744,17 7.488,16.902 7.293,16.707 L3.293,12.707 C2.902,12.316 2.902,11.684 3.293,11.293 C3.684,10.902 4.316,10.902 4.707,11.293 L8,14.586 L17.293,5.293 C17.684,4.902 18.316,4.902 18.707,5.293 C19.098,5.684 19.098,6.316 18.707,6.707 L8.707,16.707 C8.512,16.902 8.256,17 8,17" id="Fill-3" fill="#FFFFFF" sketch:type="MSShapeGroup"></path>
            </g>
        </g>
    </g>
</svg>