<?xml version="1.0" encoding="UTF-8" standalone="no"?>
<svg width="28px" height="28px" viewBox="0 0 28 28" version="1.1" xmlns="http://www.w3.org/2000/svg" xmlns:xlink="http://www.w3.org/1999/xlink" xmlns:sketch="http://www.bohemiancoding.com/sketch/ns">
    <!-- Generator: Sketch 3.3.2 (12043) - http://www.bohemiancoding.com/sketch -->
    <title>color-picker</title>
    <desc>Created with Sketch.</desc>
    <defs></defs>
    <g id="Page-1" stroke="none" stroke-width="1" fill="none" fill-rule="evenodd" sketch:type="MSPage">
        <g id="color-picker" sketch:type="MSArtboardGroup">
            <g id="Imported-Layers" sketch:type="MSLayerGroup">
                <path d="M6.6,0 L1.4,0 C0.627,0 0,0.627 0,1.4 L0,6.6 C0,7.373 0.627,8 1.4,8 L6.6,8 C7.373,8 8,7.373 8,6.6 L8,1.4 C8,0.627 7.373,0 6.6,0" id="Fill-1" fill="#54A1D3" sketch:type="MSShapeGroup"></path>
                <path d="M16.6,0 L11.4,0 C10.627,0 10,0.627 10,1.4 L10,6.6 C10,7.373 10.627,8 11.4,8 L16.6,8 C17.373,8 18,7.373 18,6.6 L18,1.4 C18,0.627 17.373,0 16.6,0" id="Fill-2" fill="#8DC9E6" sketch:type="MSShapeGroup"></path>
                <path d="M26.6,0 L21.4,0 C20.627,0 20,0.627 20,1.4 L20,6.6 C20,7.373 20.627,8 21.4,8 L26.6,8 C27.373,8 28,7.373 28,6.6 L28,1.4 C28,0.627 27.373,0 26.6,0" id="Fill-3" fill="#C8E9F4" sketch:type="MSShapeGroup"></path>
                <path d="M6.6,20 L1.4,20 C0.627,20 0,20.627 0,21.4 L0,26.6 C0,27.373 0.627,28 1.4,28 L6.6,28 C7.373,28 8,27.373 8,26.6 L8,21.4 C8,20.627 7.373,20 6.6,20" id="Fill-4" fill="#888B94" sketch:type="MSShapeGroup"></path>
                <path d="M16.6,20 L11.4,20 C10.627,20 10,20.627 10,21.4 L10,26.6 C10,27.373 10.627,28 11.4,28 L16.6,28 C17.373,28 18,27.373 18,26.6 L18,21.4 C18,20.627 17.373,20 16.6,20" id="Fill-5" fill="#ABAEB7" sketch:type="MSShapeGroup"></path>
                <path d="M26.6,20 L21.4,20 C20.627,20 20,20.627 20,21.4 L20,26.6 C20,27.373 20.627,28 21.4,28 L26.6,28 C27.373,28 28,27.373 28,26.6 L28,21.4 C28,20.627 27.373,20 26.6,20" id="Fill-6" fill="#C8CBD4" sketch:type="MSShapeGroup"></path>
                <path d="M6.6,10 L1.4,10 C0.627,10 0,10.627 0,11.4 L0,16.6 C0,17.373 0.627,18 1.4,18 L6.6,18 C7.373,18 8,17.373 8,16.6 L8,11.4 C8,10.627 7.373,10 6.6,10" id="Fill-7" fill="#F2BC41" sketch:type="MSShapeGroup"></path>
                <path d="M16.6,10 L11.4,10 C10.627,10 10,10.627 10,11.4 L10,16.6 C10,17.373 10.627,18 11.4,18 L16.6,18 C17.373,18 18,17.373 18,16.6 L18,11.4 C18,10.627 17.373,10 16.6,10" id="Fill-8" fill="#F7D67B" sketch:type="MSShapeGroup"></path>
                <path d="M26.6,10 L21.4,10 C20.627,10 20,10.627 20,11.4 L20,16.6 C20,17.373 20.627,18 21.4,18 L26.6,18 C27.373,18 28,17.373 28,16.6 L28,11.4 C28,10.627 27.373,10 26.6,10" id="Fill-9" fill="#FBE9BF" sketch:type="MSShapeGroup"></path>
            </g>
        </g>
    </g>
</svg>