<?xml version="1.0" encoding="UTF-8" standalone="no"?>
<svg width="28px" height="28px" viewBox="0 0 28 28" version="1.1" xmlns="http://www.w3.org/2000/svg" xmlns:xlink="http://www.w3.org/1999/xlink" xmlns:sketch="http://www.bohemiancoding.com/sketch/ns">
    <!-- Generator: Sketch 3.3.2 (12043) - http://www.bohemiancoding.com/sketch -->
    <title>data-grid</title>
    <desc>Created with Sketch.</desc>
    <defs></defs>
    <g id="Page-1" stroke="none" stroke-width="1" fill="none" fill-rule="evenodd" sketch:type="MSPage">
        <g id="data-grid" sketch:type="MSArtboardGroup">
            <g id="Imported-Layers" sketch:type="MSLayerGroup" transform="translate(1.000000, 4.000000)">
                <path d="M9,15 L9,19 C9,19.552 9.448,20 10,20 L16,20 C16.552,20 17,19.552 17,19 L17,15 C17,14.448 16.552,14 16,14 L10,14 C9.448,14 9,14.448 9,15" id="Fill-1" fill="#DDE0E8" sketch:type="MSShapeGroup"></path>
                <path d="M0,15 L0,19 C0,19.552 0.448,20 1,20 L7,20 C7.552,20 8,19.552 8,19 L8,15 C8,14.448 7.552,14 7,14 L1,14 C0.448,14 0,14.448 0,15" id="Fill-2" fill="#DDE0E8" sketch:type="MSShapeGroup"></path>
                <path d="M18,15 L18,19 C18,19.552 18.448,20 19,20 L25,20 C25.552,20 26,19.552 26,19 L26,15 C26,14.448 25.552,14 25,14 L19,14 C18.448,14 18,14.448 18,15" id="Fill-3" fill="#DDE0E8" sketch:type="MSShapeGroup"></path>
                <path d="M7,7 L1,7 C0.448,7 0,7.448 0,8 L0,12 C0,12.552 0.448,13 1,13 L7,13 C7.552,13 8,12.552 8,12 L8,8 C8,7.448 7.552,7 7,7" id="Fill-4" fill="#C7CAD3" sketch:type="MSShapeGroup"></path>
                <path d="M7,0 L1,0 C0.448,0 0,0.448 0,1 L0,5 C0,5.552 0.448,6 1,6 L7,6 C7.552,6 8,5.552 8,5 L8,1 C8,0.448 7.552,0 7,0" id="Fill-5" fill="#DDE0E8" sketch:type="MSShapeGroup"></path>
                <path d="M10,6 L16,6 C16.552,6 17,5.552 17,5 L17,1 C17,0.448 16.552,0 16,0 L10,0 C9.448,0 9,0.448 9,1 L9,5 C9,5.552 9.448,6 10,6" id="Fill-6" fill="#DDE0E8" sketch:type="MSShapeGroup"></path>
                <path d="M19,6 L25,6 C25.552,6 26,5.552 26,5 L26,1 C26,0.448 25.552,0 25,0 L19,0 C18.448,0 18,0.448 18,1 L18,5 C18,5.552 18.448,6 19,6" id="Fill-7" fill="#DDE0E8" sketch:type="MSShapeGroup"></path>
                <path d="M10,13 L16,13 C16.552,13 17,12.552 17,12 L17,8 C17,7.448 16.552,7 16,7 L10,7 C9.448,7 9,7.448 9,8 L9,12 C9,12.552 9.448,13 10,13" id="Fill-8" fill="#C7CAD3" sketch:type="MSShapeGroup"></path>
                <path d="M19,13 L25,13 C25.552,13 26,12.552 26,12 L26,8 C26,7.448 25.552,7 25,7 L19,7 C18.448,7 18,7.448 18,8 L18,12 C18,12.552 18.448,13 19,13" id="Fill-9" fill="#C7CAD3" sketch:type="MSShapeGroup"></path>
            </g>
        </g>
    </g>
</svg>