<?xml version="1.0" encoding="UTF-8" standalone="no"?>
<svg width="28px" height="28px" viewBox="0 0 28 28" version="1.1" xmlns="http://www.w3.org/2000/svg" xmlns:xlink="http://www.w3.org/1999/xlink" xmlns:sketch="http://www.bohemiancoding.com/sketch/ns">
    <!-- Generator: Sketch 3.3.2 (12043) - http://www.bohemiancoding.com/sketch -->
    <title>date-picker</title>
    <desc>Created with Sketch.</desc>
    <defs></defs>
    <g id="Page-1" stroke="none" stroke-width="1" fill="none" fill-rule="evenodd" sketch:type="MSPage">
        <g id="date-picker" sketch:type="MSArtboardGroup">
            <g id="Imported-Layers" sketch:type="MSLayerGroup" transform="translate(3.000000, 1.000000)">
                <path d="M22,9 L0,9 L0,4.5 C0,3.672 0.672,3 1.5,3 L20.5,3 C21.328,3 22,3.672 22,4.5 L22,9" id="Fill-1" fill="#D26D6D" sketch:type="MSShapeGroup"></path>
                <path d="M0,9.042 L0,23.5 C0,24.328 0.672,25 1.5,25 L20.5,25 C21.328,25 22,24.328 22,23.5 L22,9.042 L0,9.042" id="Fill-2" fill="#DEE1E8" sketch:type="MSShapeGroup"></path>
                <path d="M4,0 L4,0 C3.448,0 3,0.448 3,1 L3,5 C3,5.552 3.448,6 4,6 C4.552,6 5,5.552 5,5 L5,1 C5,0.448 4.552,0 4,0" id="Fill-3" fill="#FFFFFF" sketch:type="MSShapeGroup"></path>
                <path d="M18,0 L18,0 C17.448,0 17,0.448 17,1 L17,5 C17,5.552 17.448,6 18,6 C18.552,6 19,5.552 19,5 L19,1 C19,0.448 18.552,0 18,0" id="Fill-4" fill="#FFFFFF" sketch:type="MSShapeGroup"></path>
                <path d="M4,15 L3,15 C2.448,15 2,14.552 2,14 L2,13 C2,12.448 2.448,12 3,12 L4,12 C4.552,12 5,12.448 5,13 L5,14 C5,14.552 4.552,15 4,15" id="Fill-5" fill="#ABAEB7" sketch:type="MSShapeGroup"></path>
                <path d="M9,15 L8,15 C7.448,15 7,14.552 7,14 L7,13 C7,12.448 7.448,12 8,12 L9,12 C9.552,12 10,12.448 10,13 L10,14 C10,14.552 9.552,15 9,15" id="Fill-6" fill="#ABAEB7" sketch:type="MSShapeGroup"></path>
                <path d="M14,15 L13,15 C12.448,15 12,14.552 12,14 L12,13 C12,12.448 12.448,12 13,12 L14,12 C14.552,12 15,12.448 15,13 L15,14 C15,14.552 14.552,15 14,15" id="Fill-7" fill="#ABAEB7" sketch:type="MSShapeGroup"></path>
                <path d="M19,15 L18,15 C17.448,15 17,14.552 17,14 L17,13 C17,12.448 17.448,12 18,12 L19,12 C19.552,12 20,12.448 20,13 L20,14 C20,14.552 19.552,15 19,15" id="Fill-8" fill="#ABAEB7" sketch:type="MSShapeGroup"></path>
                <path d="M19,21 L18,21 C17.448,21 17,20.552 17,20 L17,19 C17,18.448 17.448,18 18,18 L19,18 C19.552,18 20,18.448 20,19 L20,20 C20,20.552 19.552,21 19,21" id="Fill-9" fill="#ABAEB7" sketch:type="MSShapeGroup"></path>
                <path d="M14,21 L13,21 C12.448,21 12,20.552 12,20 L12,19 C12,18.448 12.448,18 13,18 L14,18 C14.552,18 15,18.448 15,19 L15,20 C15,20.552 14.552,21 14,21" id="Fill-10" fill="#ABAEB7" sketch:type="MSShapeGroup"></path>
                <path d="M9,21 L8,21 C7.448,21 7,20.552 7,20 L7,19 C7,18.448 7.448,18 8,18 L9,18 C9.552,18 10,18.448 10,19 L10,20 C10,20.552 9.552,21 9,21" id="Fill-11" fill="#ABAEB7" sketch:type="MSShapeGroup"></path>
                <path d="M4,21 L3,21 C2.448,21 2,20.552 2,20 L2,19 C2,18.448 2.448,18 3,18 L4,18 C4.552,18 5,18.448 5,19 L5,20 C5,20.552 4.552,21 4,21" id="Fill-12" fill="#ABAEB7" sketch:type="MSShapeGroup"></path>
            </g>
        </g>
    </g>
</svg>