<?xml version="1.0" encoding="UTF-8" standalone="no"?>
<svg width="28px" height="28px" viewBox="0 0 28 28" version="1.1" xmlns="http://www.w3.org/2000/svg" xmlns:xlink="http://www.w3.org/1999/xlink" xmlns:sketch="http://www.bohemiancoding.com/sketch/ns">
    <!-- Generator: Sketch 3.3.2 (12043) - http://www.bohemiancoding.com/sketch -->
    <title>dialogs</title>
    <desc>Created with Sketch.</desc>
    <defs></defs>
    <g id="Page-1" stroke="none" stroke-width="1" fill="none" fill-rule="evenodd" sketch:type="MSPage">
        <g id="dialogs" sketch:type="MSArtboardGroup">
            <g id="Imported-Layers" sketch:type="MSLayerGroup" transform="translate(0.000000, 3.000000)">
                <path d="M27,19 L1,19 C0.448,19 0,18.552 0,18 L0,1.4 C0,0.627 0.627,0 1.4,0 L26.5,0 C27.328,0 28,0.672 28,1.5 L28,18 C28,18.552 27.552,19 27,19" id="Fill-1" fill="#DEE1E8" sketch:type="MSShapeGroup"></path>
                <path d="M14,22 L1.5,22 C0.675,22 0,21.325 0,20.5 L0,14 L14,14 L14,22" id="Fill-2" fill="#C8CBD4" sketch:type="MSShapeGroup"></path>
                <path d="M14,14 L28,14 L28,21 C28,21.55 27.55,22 27,22 L14,22 L14,14" id="Fill-3" fill="#69B5DD" sketch:type="MSShapeGroup"></path>
                <path d="M2,5 L2,5 C2,5.552 2.448,6 3,6 L25,6 C25.552,6 26,5.552 26,5 C26,4.448 25.552,4 25,4 L3,4 C2.448,4 2,4.448 2,5" id="Fill-4" fill="#888B94" sketch:type="MSShapeGroup"></path>
                <path d="M2,9 L2,9 C2,9.552 2.448,10 3,10 L21,10 C21.552,10 22,9.552 22,9 C22,8.448 21.552,8 21,8 L3,8 C2.448,8 2,8.448 2,9" id="Fill-5" fill="#888B94" sketch:type="MSShapeGroup"></path>
            </g>
        </g>
    </g>
</svg>