<?xml version="1.0" encoding="UTF-8" standalone="no"?>
<svg width="28px" height="28px" viewBox="0 0 28 28" version="1.1" xmlns="http://www.w3.org/2000/svg" xmlns:xlink="http://www.w3.org/1999/xlink" xmlns:sketch="http://www.bohemiancoding.com/sketch/ns">
    <!-- Generator: Sketch 3.3.2 (12043) - http://www.bohemiancoding.com/sketch -->
    <title>popover</title>
    <desc>Created with Sketch.</desc>
    <defs></defs>
    <g id="Page-1" stroke="none" stroke-width="1" fill="none" fill-rule="evenodd" sketch:type="MSPage">
        <g id="popover" sketch:type="MSArtboardGroup">
            <g id="Imported-Layers" sketch:type="MSLayerGroup" transform="translate(3.000000, 2.000000)">
                <path d="M0,22.5 L0,11.5 C0,10.672 0.672,10 1.5,10 L20.5,10 C21.328,10 22,10.672 22,11.5 L22,22.5 C22,23.328 21.328,24 20.5,24 L1.5,24 C0.672,24 0,23.328 0,22.5" id="Fill-1" fill="#DEE1E8" sketch:type="MSShapeGroup"></path>
                <path d="M14,10 L11,6 L8,10 L14,10" id="Fill-2" fill="#DEE1E8" sketch:type="MSShapeGroup"></path>
                <path d="M13,2 C13,0.895 12.105,0 11,0 C9.895,0 9,0.895 9,2 C9,3.105 9.895,4 11,4 C12.105,4 13,3.105 13,2" id="Fill-3" fill="#69B5DD" sketch:type="MSShapeGroup"></path>
                <path d="M7,2 C7,0.895 6.105,0 5,0 C3.895,0 3,0.895 3,2 C3,3.105 3.895,4 5,4 C6.105,4 7,3.105 7,2" id="Fill-4" fill="#69B5DD" sketch:type="MSShapeGroup"></path>
                <path d="M19,2 C19,0.895 18.105,0 17,0 C15.895,0 15,0.895 15,2 C15,3.105 15.895,4 17,4 C18.105,4 19,3.105 19,2" id="Fill-5" fill="#69B5DD" sketch:type="MSShapeGroup"></path>
            </g>
        </g>
    </g>
</svg>