<?xml version="1.0" encoding="UTF-8" standalone="no"?>
<svg width="28px" height="28px" viewBox="0 0 28 28" version="1.1" xmlns="http://www.w3.org/2000/svg" xmlns:xlink="http://www.w3.org/1999/xlink" xmlns:sketch="http://www.bohemiancoding.com/sketch/ns">
    <!-- Generator: Sketch 3.3.2 (12043) - http://www.bohemiancoding.com/sketch -->
    <title>progress-indicator</title>
    <desc>Created with Sketch.</desc>
    <defs></defs>
    <g id="Page-1" stroke="none" stroke-width="1" fill="none" fill-rule="evenodd" sketch:type="MSPage">
        <g id="progress-indicator" sketch:type="MSArtboardGroup">
            <g id="Imported-Layers" sketch:type="MSLayerGroup" transform="translate(0.000000, 9.000000)">
                <path d="M2,1 L17.2,1 C18.194,1 19,1.716 19,2.6 L19,7.4 C19,8.284 18.194,9 17.2,9 L2,9 L2,1" id="Fill-1" fill="#EE9A36" sketch:type="MSShapeGroup"></path>
                <path d="M17.2,1 L19,1 L19,9 L17.2,9 L17.2,1 Z" id="Fill-2" fill="#EE9A36" sketch:type="MSShapeGroup"></path>
                <path d="M2,2 L26,2 L26,8 L2,8 L2,2 Z M26,0 L2,0 C0.896,0 0,0.896 0,2 L0,8 C0,9.105 0.896,10 2,10 L26,10 C27.105,10 28,9.105 28,8 L28,2 C28,0.896 27.105,0 26,0 L26,0 Z" id="Fill-3" fill="#DEE1E8" sketch:type="MSShapeGroup"></path>
            </g>
        </g>
    </g>
</svg>