<?xml version="1.0" encoding="UTF-8" standalone="no"?>
<svg width="28px" height="28px" viewBox="0 0 28 28" version="1.1" xmlns="http://www.w3.org/2000/svg" xmlns:xlink="http://www.w3.org/1999/xlink" xmlns:sketch="http://www.bohemiancoding.com/sketch/ns">
    <!-- Generator: Sketch 3.3.2 (12043) - http://www.bohemiancoding.com/sketch -->
    <title>report-table</title>
    <desc>Created with Sketch.</desc>
    <defs></defs>
    <g id="Page-1" stroke="none" stroke-width="1" fill="none" fill-rule="evenodd" sketch:type="MSPage">
        <g id="report-table" sketch:type="MSArtboardGroup">
            <g id="Imported-Layers" sketch:type="MSLayerGroup" transform="translate(0.000000, 2.000000)">
                <path d="M26.887,14 L1,14 C0.448,14 0,14.448 0,15 C0,15.552 0.448,16 1,16 L26.887,16 C27.44,16 27.887,15.552 27.887,15 C27.887,14.448 27.44,14 26.887,14" id="Fill-1" fill="#DEE1E8" sketch:type="MSShapeGroup"></path>
                <path d="M5,14 L5,4.4 C5,3.627 5.627,3 6.4,3 L11.6,3 C12.373,3 13,3.627 13,4.4 L13,14 L5,14" id="Fill-2" fill="#D26D6D" sketch:type="MSShapeGroup"></path>
                <path d="M15,16 L15,22.6 C15,23.373 15.627,24 16.4,24 L21.6,24 C22.373,24 23,23.373 23,22.6 L23,16 L15,16" id="Fill-3" fill="#888B94" sketch:type="MSShapeGroup"></path>
                <path d="M15,14 L15,1.4 C15,0.627 15.627,0 16.4,0 L21.6,0 C22.373,0 23,0.627 23,1.4 L23,14 L15,14" id="Fill-4" fill="#9DCD7F" sketch:type="MSShapeGroup"></path>
            </g>
        </g>
    </g>
</svg>