<?xml version="1.0" encoding="UTF-8" standalone="no"?>
<svg width="28px" height="28px" viewBox="0 0 28 28" version="1.1" xmlns="http://www.w3.org/2000/svg" xmlns:xlink="http://www.w3.org/1999/xlink" xmlns:sketch="http://www.bohemiancoding.com/sketch/ns">
    <!-- Generator: Sketch 3.3.2 (12043) - http://www.bohemiancoding.com/sketch -->
    <title>rich-text-editor</title>
    <desc>Created with Sketch.</desc>
    <defs></defs>
    <g id="Page-1" stroke="none" stroke-width="1" fill="none" fill-rule="evenodd" sketch:type="MSPage">
        <g id="rich-text-editor" sketch:type="MSArtboardGroup">
            <g id="Imported-Layers" sketch:type="MSLayerGroup" transform="translate(2.000000, 2.000000)">
                <path d="M23,24 L1,24 C0.448,24 0,23.552 0,23 L0,1 C0,0.448 0.448,0 1,0 L23,0 C23.552,0 24,0.448 24,1 L24,23 C24,23.552 23.552,24 23,24" id="Fill-1" fill="#DEE1E8" sketch:type="MSShapeGroup"></path>
                <path d="M16,2 L18,2 L18,3 L16,3 L16,2 Z" id="Fill-2" fill="#888B94" sketch:type="MSShapeGroup"></path>
                <path d="M19,2 L21,2 L21,3 L19,3 L19,2 Z" id="Fill-3" fill="#888B94" sketch:type="MSShapeGroup"></path>
                <path d="M18,3 L19,3 L19,21 L18,21 L18,3 Z" id="Fill-4" fill="#888B94" sketch:type="MSShapeGroup"></path>
                <path d="M16,21 L18,21 L18,22 L16,22 L16,21 Z" id="Fill-5" fill="#888B94" sketch:type="MSShapeGroup"></path>
                <path d="M19,21 L21,21 L21,22 L19,22 L19,21 Z" id="Fill-6" fill="#888B94" sketch:type="MSShapeGroup"></path>
                <path d="M4,6 L14,6 L14,8 L4,8 L4,6 Z" id="Fill-7" fill="#EE9A36" sketch:type="MSShapeGroup"></path>
                <path d="M8,8 L10,8 L10,18 L8,18 L8,8 Z" id="Fill-8" fill="#EE9A36" sketch:type="MSShapeGroup"></path>
            </g>
        </g>
    </g>
</svg>