<?xml version="1.0" encoding="UTF-8" standalone="no"?>
<svg width="28px" height="28px" viewBox="0 0 28 28" version="1.1" xmlns="http://www.w3.org/2000/svg" xmlns:xlink="http://www.w3.org/1999/xlink" xmlns:sketch="http://www.bohemiancoding.com/sketch/ns">
    <!-- Generator: Sketch 3.3.2 (12043) - http://www.bohemiancoding.com/sketch -->
    <title>search-fields</title>
    <desc>Created with Sketch.</desc>
    <defs></defs>
    <g id="Page-1" stroke="none" stroke-width="1" fill="none" fill-rule="evenodd" sketch:type="MSPage">
        <g id="search-fields" sketch:type="MSArtboardGroup" fill="#DEE1E8">
            <path d="M22.621,21.293 L17.537,16.184 C18.409,15.015 18.932,13.569 18.932,12 C18.932,8.14 15.807,5 11.966,5 C8.125,5 5,8.14 5,12 C5,15.86 8.125,19 11.966,19 C13.528,19 14.967,18.474 16.13,17.598 L21.214,22.707 C21.408,22.902 21.663,23 21.917,23 C22.172,23 22.427,22.902 22.621,22.707 C23.01,22.316 23.01,21.684 22.621,21.293 L22.621,21.293 Z M11.966,17 C9.222,17 6.99,14.757 6.99,12 C6.99,9.243 9.222,7 11.966,7 C14.709,7 16.942,9.243 16.942,12 C16.942,14.757 14.709,17 11.966,17 L11.966,17 Z" id="Imported-Layers" sketch:type="MSShapeGroup"></path>
        </g>
    </g>
</svg>