<?xml version="1.0" encoding="UTF-8" standalone="no"?>
<svg width="28px" height="28px" viewBox="0 0 28 28" version="1.1" xmlns="http://www.w3.org/2000/svg" xmlns:xlink="http://www.w3.org/1999/xlink" xmlns:sketch="http://www.bohemiancoding.com/sketch/ns">
    <!-- Generator: Sketch 3.3.2 (12043) - http://www.bohemiancoding.com/sketch -->
    <title>slider</title>
    <desc>Created with Sketch.</desc>
    <defs></defs>
    <g id="Page-1" stroke="none" stroke-width="1" fill="none" fill-rule="evenodd" sketch:type="MSPage">
        <g id="slider" sketch:type="MSArtboardGroup">
            <g id="Imported-Layers" sketch:type="MSLayerGroup" transform="translate(0.000000, 9.000000)">
                <path d="M27,3 L1,3 C0.448,3 0,3.448 0,4 L0,6 C0,6.552 0.448,7 1,7 L27,7 C27.552,7 28,6.552 28,6 L28,4 C28,3.448 27.552,3 27,3" id="Fill-1" fill="#C8CBD4" sketch:type="MSShapeGroup"></path>
                <path d="M22,5 C22,2.239 19.761,0 17,0 C14.239,0 12,2.239 12,5 C12,7.761 14.239,10 17,10 C19.761,10 22,7.761 22,5" id="Fill-2" fill="#EE9A36" sketch:type="MSShapeGroup"></path>
            </g>
        </g>
    </g>
</svg>