<?xml version="1.0" encoding="UTF-8" standalone="no"?>
<svg width="28px" height="28px" viewBox="0 0 28 28" version="1.1" xmlns="http://www.w3.org/2000/svg" xmlns:xlink="http://www.w3.org/1999/xlink" xmlns:sketch="http://www.bohemiancoding.com/sketch/ns">
    <!-- Generator: Sketch 3.3.2 (12043) - http://www.bohemiancoding.com/sketch -->
    <title>spinner</title>
    <desc>Created with Sketch.</desc>
    <defs></defs>
    <g id="Page-1" stroke="none" stroke-width="1" fill="none" fill-rule="evenodd" sketch:type="MSPage">
        <g id="spinner" sketch:type="MSArtboardGroup">
            <g id="Imported-Layers" sketch:type="MSLayerGroup" transform="translate(0.000000, 6.000000)">
                <path d="M10,7 L6,7 C5.448,7 5,7.448 5,8 C5,8.552 5.448,9 6,9 L10,9 C10.552,9 11,8.552 11,8 C11,7.448 10.552,7 10,7" id="Fill-1" fill="#C8CBD4" sketch:type="MSShapeGroup"></path>
                <path d="M22,7 L18,7 C17.448,7 17,7.448 17,8 C17,8.552 17.448,9 18,9 L22,9 C22.552,9 23,8.552 23,8 C23,7.448 22.552,7 22,7" id="Fill-2" fill="#C8CBD4" sketch:type="MSShapeGroup"></path>
                <path d="M2,2 L26,2 L26,14 L2,14 L2,2 Z M26.5,0 L1.5,0 C0.675,0 0,0.675 0,1.5 L0,14.5 C0,15.325 0.675,16 1.5,16 L26.5,16 C27.325,16 28,15.325 28,14.5 L28,1.5 C28,0.675 27.325,0 26.5,0 L26.5,0 Z" id="Fill-3" fill="#69B5DD" sketch:type="MSShapeGroup"></path>
                <path d="M21,10 L21,6 C21,5.448 20.552,5 20,5 C19.448,5 19,5.448 19,6 L19,10 C19,10.552 19.448,11 20,11 C20.552,11 21,10.552 21,10" id="Fill-4" fill="#C8CBD4" sketch:type="MSShapeGroup"></path>
            </g>
        </g>
    </g>
</svg>