<?xml version="1.0" encoding="UTF-8" standalone="no"?>
<svg width="28px" height="28px" viewBox="0 0 28 28" version="1.1" xmlns="http://www.w3.org/2000/svg" xmlns:xlink="http://www.w3.org/1999/xlink" xmlns:sketch="http://www.bohemiancoding.com/sketch/ns">
    <!-- Generator: Sketch 3.3.2 (12043) - http://www.bohemiancoding.com/sketch -->
    <title>standard-tree</title>
    <desc>Created with Sketch.</desc>
    <defs></defs>
    <g id="Page-1" stroke="none" stroke-width="1" fill="none" fill-rule="evenodd" sketch:type="MSPage">
        <g id="standard-tree" sketch:type="MSArtboardGroup">
            <g id="Imported-Layers" sketch:type="MSLayerGroup" transform="translate(0.000000, 4.000000)">
                <path d="M6,0 L1,0 C0.448,0 0,0.448 0,1 C0,1.552 0.448,2 1,2 L6,2 C6.552,2 7,1.552 7,1 C7,0.448 6.552,0 6,0" id="Fill-1" fill="#69B5DD" sketch:type="MSShapeGroup"></path>
                <path d="M19.793,0 L10,0 C9.448,0 9,0.448 9,1 C9,1.552 9.448,2 10,2 L19.793,2 C20.346,2 20.794,1.552 20.794,1 C20.794,0.448 20.346,0 19.793,0" id="Fill-2" fill="#69B5DD" sketch:type="MSShapeGroup"></path>
                <path d="M15,8 L11,8 C10.448,8 10,8.448 10,9 C10,9.552 10.448,10 11,10 L15,10 C15.552,10 16,9.552 16,9 C16,8.448 15.552,8 15,8" id="Fill-3" fill="#888B94" sketch:type="MSShapeGroup"></path>
                <path d="M27,8 L20.113,8 C19.56,8 19.113,8.448 19.113,9 C19.113,9.552 19.56,10 20.113,10 L27,10 C27.552,10 28,9.552 28,9 C28,8.448 27.552,8 27,8" id="Fill-4" fill="#C8CBD4" sketch:type="MSShapeGroup"></path>
                <path d="M15,16 L11,16 C10.448,16 10,16.448 10,17 C10,17.552 10.448,18 11,18 L15,18 C15.552,18 16,17.552 16,17 C16,16.448 15.552,16 15,16" id="Fill-5" fill="#888B94" sketch:type="MSShapeGroup"></path>
                <path d="M27,16 L20.113,16 C19.56,16 19.113,16.448 19.113,17 C19.113,17.552 19.56,18 20.113,18 L27,18 C27.552,18 28,17.552 28,17 C28,16.448 27.552,16 27,16" id="Fill-6" fill="#C8CBD4" sketch:type="MSShapeGroup"></path>
                <path d="M14,11 L14,7 C14,6.448 13.552,6 13,6 C12.448,6 12,6.448 12,7 L12,11 C12,11.552 12.448,12 13,12 C13.552,12 14,11.552 14,11" id="Fill-7" fill="#888B94" sketch:type="MSShapeGroup"></path>
                <path d="M14,19 L14,15 C14,14.448 13.552,14 13,14 C12.448,14 12,14.448 12,15 L12,19 C12,19.552 12.448,20 13,20 C13.552,20 14,19.552 14,19" id="Fill-8" fill="#888B94" sketch:type="MSShapeGroup"></path>
            </g>
        </g>
    </g>
</svg>