<?xml version="1.0" encoding="UTF-8" standalone="no"?>
<svg width="28px" height="28px" viewBox="0 0 28 28" version="1.1" xmlns="http://www.w3.org/2000/svg" xmlns:xlink="http://www.w3.org/1999/xlink" xmlns:sketch="http://www.bohemiancoding.com/sketch/ns">
    <!-- Generator: Sketch 3.3.2 (12043) - http://www.bohemiancoding.com/sketch -->
    <title>swap-list</title>
    <desc>Created with Sketch.</desc>
    <defs></defs>
    <g id="Page-1" stroke="none" stroke-width="1" fill="none" fill-rule="evenodd" sketch:type="MSPage">
        <g id="swap-list" sketch:type="MSArtboardGroup">
            <g id="Imported-Layers" sketch:type="MSLayerGroup" transform="translate(0.000000, 3.000000)">
                <path d="M0.06,0.04 L13,0.04 L13,4 L0.06,4 L0.06,0.04 Z" id="Fill-1" fill="#DEE1E8" sketch:type="MSShapeGroup"></path>
                <path d="M15,0.04 L28,0.04 L28,4 L15,4 L15,0.04 Z" id="Fill-2" fill="#DEE1E8" sketch:type="MSShapeGroup"></path>
                <path d="M0.06,8 L13,8 L13,12 L0.06,12 L0.06,8 Z" id="Fill-3" fill="#DEE1E8" sketch:type="MSShapeGroup"></path>
                <path d="M15,8 L28,8 L28,12 L15,12 L15,8 Z" id="Fill-4" fill="#DEE1E8" sketch:type="MSShapeGroup"></path>
                <path d="M0.06,16 L13,16 L13,20 L0.06,20 L0.06,16 Z" id="Fill-5" fill="#DEE1E8" sketch:type="MSShapeGroup"></path>
                <path d="M18,15.732 L18,17 L15.938,17 C15.385,17 14.938,17.447 14.938,18 C14.938,18.553 15.385,19 15.938,19 L18,19 L18,20.268 C18,20.873 18.855,21.216 19.33,20.849 L22.643,18.58 C23.021,18.288 23.064,17.712 22.686,17.42 L19.309,15.152 C18.834,14.784 18,15.127 18,15.732" id="Fill-6" fill="#ABAEB7" sketch:type="MSShapeGroup"></path>
            </g>
        </g>
    </g>
</svg>