<?xml version="1.0" encoding="UTF-8" standalone="no"?>
<svg width="28px" height="28px" viewBox="0 0 28 28" version="1.1" xmlns="http://www.w3.org/2000/svg" xmlns:xlink="http://www.w3.org/1999/xlink" xmlns:sketch="http://www.bohemiancoding.com/sketch/ns">
    <!-- Generator: Sketch 3.3.2 (12043) - http://www.bohemiancoding.com/sketch -->
    <title>tabs</title>
    <desc>Created with Sketch.</desc>
    <defs></defs>
    <g id="Page-1" stroke="none" stroke-width="1" fill="none" fill-rule="evenodd" sketch:type="MSPage">
        <g id="tabs" sketch:type="MSArtboardGroup">
            <g id="Imported-Layers" sketch:type="MSLayerGroup" transform="translate(0.000000, 11.000000)">
                <path d="M10,0 L1,0 C0.448,0 0,0.448 0,1 L0,5 C0,5.552 0.448,6 1,6 L10,6 C10.552,6 11,5.552 11,5 L11,1 C11,0.448 10.552,0 10,0" id="Fill-1" fill="#69B5DD" sketch:type="MSShapeGroup"></path>
                <path d="M24,5 L0,5 L0,6 C0,6.55 0.45,7 1,7 L27,7 C27.55,7 28,6.55 28,6 L28,5 L24,5" id="Fill-2" fill="#DDE0E8" sketch:type="MSShapeGroup"></path>
            </g>
        </g>
    </g>
</svg>