<?xml version="1.0" encoding="UTF-8" standalone="no"?>
<svg width="28px" height="28px" viewBox="0 0 28 28" version="1.1" xmlns="http://www.w3.org/2000/svg" xmlns:xlink="http://www.w3.org/1999/xlink" xmlns:sketch="http://www.bohemiancoding.com/sketch/ns">
    <!-- Generator: Sketch 3.3.2 (12043) - http://www.bohemiancoding.com/sketch -->
    <title>wizard</title>
    <desc>Created with Sketch.</desc>
    <defs></defs>
    <g id="Page-1" stroke="none" stroke-width="1" fill="none" fill-rule="evenodd" sketch:type="MSPage">
        <g id="wizard" sketch:type="MSArtboardGroup">
            <g id="Imported-Layers" sketch:type="MSLayerGroup" transform="translate(0.000000, 11.000000)">
                <path d="M27,2 L16,2 C15.448,2 15,2.448 15,3 C15,3.552 15.448,4 16,4 L27,4 C27.552,4 28,3.552 28,3 C28,2.448 27.552,2 27,2" id="Fill-1" fill="#C8CBD4" sketch:type="MSShapeGroup"></path>
                <path d="M15,2 L1,2 C0.448,2 0,2.448 0,3 C0,3.552 0.448,4 1,4 L15,4 C15.552,4 16,3.552 16,3 C16,2.448 15.552,2 15,2" id="Fill-2" fill="#9DCD7F" sketch:type="MSShapeGroup"></path>
                <path d="M17,3 C17,1.343 15.657,0 14,0 C12.343,0 11,1.343 11,3 C11,4.657 12.343,6 14,6 C15.657,6 17,4.657 17,3" id="Fill-3" fill="#9DCD7F" sketch:type="MSShapeGroup"></path>
                <path d="M28,3 C28,1.343 26.657,0 25,0 C23.343,0 22,1.343 22,3 C22,4.657 23.343,6 25,6 C26.657,6 28,4.657 28,3" id="Fill-4" fill="#C8CBD4" sketch:type="MSShapeGroup"></path>
                <path d="M6,3 C6,1.343 4.657,0 3,0 C1.343,0 0,1.343 0,3 C0,4.657 1.343,6 3,6 C4.657,6 6,4.657 6,3" id="Fill-5" fill="#9DCD7F" sketch:type="MSShapeGroup"></path>
            </g>
        </g>
    </g>
</svg>