<?xml version="1.0" encoding="utf-8"?>
<!-- Generator: Adobe Illustrator 16.0.4, SVG Export Plug-In . SVG Version: 6.00 Build 0)  -->
<!DOCTYPE svg PUBLIC "-//W3C//DTD SVG 1.1 Tiny//EN" "http://www.w3.org/Graphics/SVG/1.1/DTD/svg11-tiny.dtd">
<svg version="1.1" baseProfile="tiny" id="Layer_1" xmlns="http://www.w3.org/2000/svg" xmlns:xlink="http://www.w3.org/1999/xlink"
	 x="0px" y="0px" width="72.334px" height="63.333px" viewBox="15 2.667 72.334 63.333" overflow="auto" xml:space="preserve">
<g>
	<g>
		<path d="M84.387,64.986H18.205c-1.072,0-1.942-0.871-1.942-1.941V15.921c0-1.073,0.869-1.942,1.942-1.942h66.182
			c1.072,0,1.943,0.869,1.943,1.942v47.124C86.33,64.116,85.459,64.986,84.387,64.986z M20.146,61.102h62.299V17.864H20.146V61.102z
			"/>
	</g>
	<g>
		<path d="M84.387,17.864H18.205c-1.072,0-1.942-0.869-1.942-1.942V5.844c0-1.072,0.869-1.942,1.942-1.942h66.182
			c1.072,0,1.943,0.869,1.943,1.942v10.077C86.33,16.994,85.459,17.864,84.387,17.864z M20.146,13.98h62.299V7.787H20.146V13.98z"/>
	</g>
	<g>
		<circle cx="23.907" cy="10.883" r="1.358"/>
	</g>
	<g>
		<circle cx="27.971" cy="10.883" r="1.358"/>
	</g>
	<g>
		<circle cx="32.035" cy="10.883" r="1.358"/>
	</g>
	<g>
		<g>
			<path d="M41.53,45.717c-0.435,0-0.869-0.167-1.202-0.498l-5.288-5.287c-0.664-0.664-0.664-1.74,0-2.403l5.278-5.279
				c0.664-0.664,1.739-0.664,2.404,0c0.664,0.664,0.664,1.739,0,2.403l-4.077,4.079l4.086,4.086c0.664,0.664,0.664,1.739,0,2.402
				C42.399,45.55,41.964,45.717,41.53,45.717z"/>
		</g>
		<g>
			<path d="M61.07,45.717c-0.435,0-0.87-0.167-1.201-0.498c-0.664-0.664-0.664-1.739,0-2.402l4.078-4.078l-4.088-4.086
				c-0.663-0.664-0.663-1.739,0-2.403c0.664-0.664,1.74-0.664,2.402,0l5.289,5.287c0.318,0.319,0.498,0.75,0.498,1.202
				c0,0.45-0.18,0.882-0.498,1.201l-5.279,5.279C61.939,45.55,61.506,45.717,61.07,45.717z"/>
		</g>
		<g>
			<path d="M48.861,49.642c-0.139,0-0.281-0.016-0.422-0.052c-0.91-0.232-1.458-1.157-1.226-2.067l4.318-16.918
				c0.233-0.91,1.162-1.457,2.067-1.227c0.91,0.231,1.459,1.158,1.228,2.067l-4.319,16.918
				C50.311,49.131,49.619,49.642,48.861,49.642z"/>
		</g>
	</g>
</g>
</svg>
