<svg width="18" height="18" viewBox="0 0 18 18" xmlns="http://www.w3.org/2000/svg"><title>copy</title><desc>Created with Sketch.</desc><path d="M10.414 9.747l-2.161-2.161c-.376-.375-.884-.586-1.415-.586h-2.338c-1.379 0-2.5 1.121-2.5 2.5v6c0 1.379 1.121 2.5 2.5 2.5h4c1.379 0 2.5-1.121 2.5-2.5v-4.338c0-.531-.211-1.039-.586-1.415zm-1.414 5.753c0 .276-.224.5-.5.5h-4c-.276 0-.5-.224-.5-.5v-6c0-.276.224-.5.5-.5h1.5v2c0 .55.45 1 1 1h2v3.5zm6.414-12.086l-2.828-2.828c-.375-.375-.884-.586-1.414-.586h-6.672c-1.381 0-2.5 1.119-2.5 2.5v2.5c0 .553.447 1 1 1 .553 0 1-.447 1-1v-2.5c0-.276.224-.5.5-.5h5.5v3c0 .55.45 1 1 1h3v9.5c0 .276-.224.5-.5.5h-.521c-.543 0-.984.437-.987.98v.03c-.003.546.44.99.985.99h.523c1.381 0 2.5-1.119 2.5-2.5v-10.672c0-.53-.211-1.039-.586-1.414z" fill="#5C5C5C"/></svg>