<svg width="18" height="18" viewBox="0 0 18 18" xmlns="http://www.w3.org/2000/svg"><title>cut</title><desc>Created with Sketch.</desc><path d="M11.414 9l6.311-6.311c.379-.379.372-.998-.015-1.385l-.014-.014c-.387-.387-1.006-.394-1.385-.015l-6.311 6.311-2.247-2.247c.15-.421.247-.867.247-1.339 0-2.206-1.794-4-4-4s-4 1.794-4 4 1.794 4 4 4c.997 0 1.899-.38 2.601-.985l1.985 1.985-1.985 1.986c-.702-.606-1.604-.986-2.601-.986-2.206 0-4 1.794-4 4s1.794 4 4 4 4-1.794 4-4c0-.472-.097-.918-.247-1.339l2.247-2.247 6.311 6.311c.379.379.998.372 1.385-.015l.014-.014c.387-.387.394-1.006.015-1.385l-6.311-6.311zm-7.414-3c-1.102 0-2-.897-2-2 0-1.102.898-2 2-2 1.102 0 2 .898 2 2 0 1.103-.898 2-2 2zm0 10c-1.102 0-2-.898-2-2 0-1.102.898-2 2-2 1.102 0 2 .898 2 2 0 1.102-.898 2-2 2z" fill="#5C5C5C"/></svg>