<svg width="14" height="14" viewBox="0 0 14 14" xmlns="http://www.w3.org/2000/svg"><title>double-chevron</title><desc>Created with Sketch.</desc><path d="M2 12c-.256 0-.512-.098-.707-.293-.391-.391-.391-1.023 0-1.414l3.293-3.293-3.293-3.293c-.391-.391-.391-1.023 0-1.414s1.023-.391 1.414 0l4 4c.391.391.391 1.023 0 1.414l-4 4c-.195.195-.451.293-.707.293m6 0c-.256 0-.512-.098-.707-.293-.391-.391-.391-1.023 0-1.414l3.293-3.293-3.293-3.293c-.391-.391-.391-1.023 0-1.414s1.023-.391 1.414 0l4 4c.391.391.391 1.023 0 1.414l-4 4c-.195.195-.451.293-.707.293" fill="#5C5C5C"/></svg>