<svg width="18" height="18" viewBox="0 0 18 18" xmlns="http://www.w3.org/2000/svg"><title>duplicate</title><desc>Created with Sketch.</desc><g fill="#6F6F6F"><path d="M16 6.5v9c0 .275-.225.5-.5.5h-9c-.275 0-.5-.225-.5-.5v-9c0-.276.224-.5.5-.5h9c.276 0 .5.224.5.5m-.5-2.5h-9c-1.378 0-2.5 1.122-2.5 2.5v9c0 1.379 1.122 2.5 2.5 2.5h9c1.379 0 2.5-1.121 2.5-2.5v-9c0-1.378-1.121-2.5-2.5-2.5M13 2h-11v11c0 .552-.448 1-1 1s-1-.448-1-1v-10.5c0-1.381 1.119-2.5 2.5-2.5h10.5c.552 0 1 .448 1 1s-.448 1-1 1"/></g></svg>