<svg width="18" height="18" viewBox="0 0 18 18" xmlns="http://www.w3.org/2000/svg"><title>export-spreadsheet</title><desc>Created with Sketch.</desc><path d="M5 6h-1.269c-.604 0-.947-.861-.58-1.337l2.269-4.403c.292-.378.868-.328 1.16.05l2.269 4.329c.367.474.024 1.361-.58 1.361h-1.269v1c0 .553-.448 1-1 1s-1-.447-1-1v-1zm10.414-1.586l-2.828-2.828c-.375-.375-.884-.586-1.415-.586h-1.171c-.552 0-1 .447-1 1 0 .553.448 1 1 1v3c0 .55.45 1 1 1h3v1.5c0 .276-.224.5-.5.5h-9.5c-.552 0-1 .448-1 1v5.5c0 1.381 1.119 2.5 2.5 2.5h8c1.381 0 2.5-1.119 2.5-2.5v-9.671c0-.531-.211-1.04-.586-1.415zm-10.414 7.586h4v-1h-4v1zm5 0h4v-1h-4v1zm-5 2h4v-1h-4v1zm5 0h4v-1h-4v1zm-5 2h4v-1h-4v1zm5 0h4v-1h-4v1z" fill="#5C5C5C"/></svg>