<svg width="18" height="18" viewBox="0 0 18 18" xmlns="http://www.w3.org/2000/svg"><title>grid-layout</title><desc>Created with Sketch.</desc><g fill="#5C5C5C"><path d="M5.5 8h-3c-1.381 0-2.5-1.119-2.5-2.5v-3c0-1.381 1.119-2.5 2.5-2.5h3c1.381 0 2.5 1.119 2.5 2.5v3c0 1.381-1.119 2.5-2.5 2.5M15.5 8h-3c-1.381 0-2.5-1.119-2.5-2.5v-3c0-1.381 1.119-2.5 2.5-2.5h3c1.381 0 2.5 1.119 2.5 2.5v3c0 1.381-1.119 2.5-2.5 2.5M15.5 18h-3c-1.381 0-2.5-1.119-2.5-2.5v-3c0-1.381 1.119-2.5 2.5-2.5h3c1.381 0 2.5 1.119 2.5 2.5v3c0 1.381-1.119 2.5-2.5 2.5M5.5 18h-3c-1.381 0-2.5-1.119-2.5-2.5v-3c0-1.381 1.119-2.5 2.5-2.5h3c1.381 0 2.5 1.119 2.5 2.5v3c0 1.381-1.119 2.5-2.5 2.5"/></g></svg>