<svg width="18" height="18" viewBox="0 0 18 18" xmlns="http://www.w3.org/2000/svg"><title>horiz-center-align</title><desc>Created with Sketch.</desc><path d="M2 8v-1.5c0-1.379 1.121-2.5 2.5-2.5s2.5 1.121 2.5 2.5v1.5h2v2h-2v1.5c0 1.379-1.121 2.5-2.5 2.5s-2.5-1.121-2.5-2.5v-1.5h-1.01c-.547 0-.99-.443-.99-.99v-.02c0-.547.443-.99.99-.99h1.01zm15.01 0h-1.01v2h1.01c.547 0 .99-.443.99-.99v-.02c0-.547-.443-.99-.99-.99zm-3.51-5c.275 0 .5.225.5.5v11c0 .275-.225.5-.5.5h-2c-.275 0-.5-.225-.5-.5v-11c0-.275.225-.5.5-.5h2zm0-2h-2c-1.378 0-2.5 1.122-2.5 2.5v11c0 1.379 1.122 2.5 2.5 2.5h2c1.378 0 2.5-1.121 2.5-2.5v-11c0-1.378-1.122-2.5-2.5-2.5z" fill="#5C5C5C"/></svg>