<svg width="18" height="18" viewBox="0 0 18 18" xmlns="http://www.w3.org/2000/svg"><title>menu@1x</title><desc>Created with Sketch.</desc><g fill="#5C5C5C"><path d="M17.01 3h-16.02c-.546 0-.99.443-.99.99v.02c0 .547.444.99.99.99h16.02c.547 0 .99-.443.99-.99v-.02c0-.547-.443-.99-.99-.99M17.01 13h-16.02c-.546 0-.99.443-.99.99v.02c0 .547.444.99.99.99h16.02c.547 0 .99-.443.99-.99v-.02c0-.547-.443-.99-.99-.99M17.01 8h-16.02c-.546 0-.99.443-.99.99v.02c0 .547.444.99.99.99h16.02c.547 0 .99-.443.99-.99v-.02c0-.547-.443-.99-.99-.99"/></g></svg>