<svg width="18" height="18" viewBox="0 0 18 18" xmlns="http://www.w3.org/2000/svg"><title>notes</title><desc>Created with Sketch.</desc><g fill="#5C5C5C"><path d="M14.5 2h-11c-1.378 0-2.5 1.122-2.5 2.5v11c0 1.378 1.122 2.5 2.5 2.5h11c1.378 0 2.5-1.122 2.5-2.5v-11c0-1.378-1.122-2.5-2.5-2.5m0 2c.275 0 .5.225.5.5v11c0 .275-.225.5-.5.5h-11c-.275 0-.5-.225-.5-.5v-11c0-.275.225-.5.5-.5h11"/><path d="M13 9.01c0 .547-.443.99-.99.99h-6.01c-.547 0-.99-.443-.99-.99v-.02c0-.546.443-.99.99-.99h6.01c.547 0 .99.444.99.99v.02zM13 13.01c0 .547-.443.99-.99.99h-6.02c-.547 0-.99-.443-.99-.99v-.02c0-.546.443-.99.99-.99h6.02c.547 0 .99.444.99.99v.02zM13 5.01c0 .547-.443.99-.99.99h-.02c-.547 0-.99-.443-.99-.99v-4.02c0-.546.443-.99.99-.99h.02c.547 0 .99.444.99.99v4.02zM7 5.01c0 .547-.443.99-.99.99h-.02c-.547 0-.99-.443-.99-.99v-4.02c0-.546.443-.99.99-.99h.02c.547 0 .99.444.99.99v4.02z"/></g></svg>