<svg width="18" height="18" viewBox="0 0 18 18" xmlns="http://www.w3.org/2000/svg"><title>notification</title><desc>Created with Sketch.</desc><path d="M17.496 14.152l.017-.006s-1.503-1.187-1.503-4.146l-.01-.321v-.679c0-3.509-2.621-6.429-6-6.919v-1.081c0-.55-.45-1-1-1s-1 .45-1 1v1.081c-3.379.49-6 3.41-6 6.919v.514c-.018.104-.029.258-.029.486 0 2.959-1.502 4.146-1.502 4.146l.029.01c-.292.176-.498.481-.498.844 0 .55.45 1 1 1h5.184c.413 1.163 1.512 2 2.816 2 1.304 0 2.403-.837 2.816-2h5.184c.55 0 1-.45 1-1 0-.366-.209-.674-.504-.848" fill="#5C5C5C"/></svg>