<svg width="18" height="18" viewBox="0 0 18 18" xmlns="http://www.w3.org/2000/svg"><title>open-folder</title><desc>Created with Sketch.</desc><g fill="#5C5C5C"><path d="M3.081 9.671l-2.443 5.756c-.514 1.285.515 2.571 1.929 2.571h10.284c1.157 0 2.186-.643 2.572-1.671l2.442-5.756c.514-1.286-.514-2.571-1.928-2.571h-10.285c-1.157 0-2.185.643-2.571 1.671"/><path d="M2.499 1c-1.414 0-2.5.586-2.5 2v3h16v-1c0-.969-1-2-2-2h-6.786c-.514 0-.9-.257-1.157-.771 0 0-.557-1.229-2.057-1.229h-1.5zM2 6c0-.552-.448-1-1-1s-1 .448-1 1 .448 1 1 1 1-.448 1-1"/></g></svg>