<svg width="18" height="18" viewBox="0 0 18 18" xmlns="http://www.w3.org/2000/svg"><title>refresh</title><desc>Created with Sketch.</desc><path d="M16.099 6.507l-2.806-4.116c-.241-.551-.866-.501-1.156.029l-.667 1.223c-1.073-.613-2.27-.926-3.47-.926v-.004c-.652 0-1.28.096-1.878.264l-.134.034-.419.146-.242.089-.302.14-.332.16-.195.115-.401.243-.091.068c-.335.233-.657.493-.956.792-.3.3-.561.623-.795.96l-.064.087-.246.404-.113.191-.162.337-.137.296-.093.252-.142.408-.038.15c-.048.173-.094.346-.128.525l-.002.012c-.083.43-.13.873-.13 1.327 0 .448.046.885.127 1.31l.005.031.124.51.043.166.136.39.099.27.126.272.175.363.093.157.267.438.024.034c.242.355.516.695.831 1.009.313.314.651.586 1.004.827l.038.028.437.265.16.095.36.174.274.127.268.097.393.138.161.041.515.126.023.003c.427.082.866.129 1.317.129.444 0 .877-.046 1.299-.126l.043-.007.492-.119.185-.048.366-.128.297-.108.24-.111.394-.191.116-.068c.543-.306 1.056-.683 1.518-1.144l-.003-.003c1.267-1.267 2.053-3.017 2.053-4.947l-2.001-.001c.001 1.567-.738 2.95-1.87 3.868l-.347.283c-.155.105-.327.182-.494.269l-.373.196c-.161.067-.335.107-.505.156l-.435.129c-.244.049-.497.065-.751.077l-.464-.002c-.249-.012-.497-.028-.736-.075l-.438-.13c-.169-.049-.341-.088-.502-.155l-.389-.205c-.16-.084-.326-.158-.476-.259-.154-.103-.294-.235-.438-.357-.197-.168-.38-.348-.549-.543-.133-.155-.275-.307-.386-.474-.089-.132-.153-.279-.228-.419-.08-.15-.172-.293-.236-.449l-.127-.407c-.055-.178-.122-.353-.158-.535l-.043-.432c-.038-.357-.038-.714 0-1.07l.043-.432c.036-.182.103-.357.158-.535l.127-.407c.064-.155.156-.3.236-.449l.228-.419c.115-.173.26-.33.4-.49.151-.174.313-.335.486-.487.161-.139.317-.284.49-.399.131-.089.278-.153.418-.228.15-.08.295-.173.45-.236l.405-.126c.179-.057.355-.123.538-.159l.427-.043c1.045-.114 2.111.097 3.045.64l-.542.994c-.29.532.007 1.084.6.989l4.849.062c.574-.039.879-.508.687-.946" fill="#5C5C5C"/></svg>