<svg width="18" height="18" viewBox="0 0 18 18" xmlns="http://www.w3.org/2000/svg"><title>search-list</title><desc>Created with Sketch.</desc><path d="M9.815 11.726c.622-.901.949-1.947.949-3.04 0-2.968-2.414-5.383-5.382-5.383-2.968 0-5.382 2.415-5.382 5.383 0 2.967 2.414 5.381 5.382 5.381 1.094 0 2.141-.328 3.042-.95l3.595 3.597c.186.185.433.286.695.286.264 0 .51-.101.695-.287.383-.384.383-1.008 0-1.391l-3.594-3.596zm-4.433.375c-1.883 0-3.415-1.532-3.415-3.415s1.532-3.416 3.415-3.416c1.884 0 3.416 1.533 3.416 3.416s-1.532 3.415-3.416 3.415zm11.618-8.101h-6c-.55 0-1-.45-1-1s.45-1 1-1h6c.55 0 1 .45 1 1s-.45 1-1 1zm0 4h-4c-.55 0-1-.45-1-1s.45-1 1-1h4c.55 0 1 .45 1 1s-.45 1-1 1zm0 4h-4c-.55 0-1-.45-1-1s.45-1 1-1h4c.55 0 1 .45 1 1s-.45 1-1 1z" fill="#5C5C5C"/></svg>