<svg width="18" height="18" viewBox="0 0 18 18" xmlns="http://www.w3.org/2000/svg"><title>search-folder</title><desc>Created with Sketch.</desc><path d="M16 2h-6.768l-.846-1.078c-.362-.603-1.013-.922-1.716-.922h-4.67c-1.105 0-2 .895-2 2v14c0 1.104.895 2 2 2h14c1.105 0 2-.896 2-2v-12c0-1.105-.895-2-2-2m-2.457 12.528l-.015.015c-.386.387-1.013.387-1.4 0l-2.108-2.109c-.596.35-1.281.566-2.02.566-2.206 0-4-1.794-4-4s1.794-4 4-4 4 1.794 4 4c0 .739-.216 1.424-.566 2.019l2.109 2.109c.387.387.387 1.014 0 1.4m-5.543-7.528c-1.102 0-2 .897-2 2 0 1.102.898 2 2 2 1.102 0 2-.898 2-2 0-1.103-.898-2-2-2" fill="#5C5C5C"/></svg>