<svg width="18" height="18" viewBox="0 0 18 18" xmlns="http://www.w3.org/2000/svg"><title>trash</title><desc>Created with Sketch.</desc><path d="M3.722 16.328c.16.965.995 1.672 1.972 1.672h6.612c.977 0 1.812-.707 1.972-1.672l.722-10.328h-12l.722 10.328zm6.278-6.828c0-.276.224-.5.5-.5h1c.276 0 .5.224.5.5v5c0 .275-.224.5-.5.5h-1c-.276 0-.5-.225-.5-.5v-5zm-4 0c0-.276.224-.5.5-.5h1c.276 0 .5.224.5.5v5c0 .275-.224.5-.5.5h-1c-.276 0-.5-.225-.5-.5v-5zm10-7.5h-4c0-1.105-.895-2-2-2h-2c-1.105 0-2 .895-2 2h-4c-.552 0-1 .447-1 1 0 .553.448 1 1 1h14c.552 0 1-.447 1-1 0-.553-.448-1-1-1z" fill="#5C5C5C"/></svg>