<svg width="18" height="18" viewBox="0 0 18 18" xmlns="http://www.w3.org/2000/svg"><title>tree-expand-folder</title><desc>Created with Sketch.</desc><path d="M6.67 2l.031.002.034.056 1.525 1.942h7.24c.276 0 .5.224.5.5v11c0 .276-.224.5-.5.5h-13c-.276 0-.5-.224-.5-.5v-13c0-.276.224-.5.5-.5h4.17m0-2h-4.67c-1.105 0-2 .895-2 2v14c0 1.104.895 2 2 2h14c1.104 0 2-.896 2-2v-12c0-1.105-.896-2-2-2h-6.768l-.846-1.078c-.362-.603-1.013-.922-1.716-.922m5.33 9h-2v-2c0-.552-.448-1-1-1s-1 .448-1 1v2h-2c-.552 0-1 .448-1 1s.448 1 1 1h2v2c0 .552.448 1 1 1s1-.448 1-1v-2h2c.552 0 1-.448 1-1s-.448-1-1-1" fill="#5C5C5C"/></svg>