<?xml version="1.0" encoding="utf-8"?>
<!-- Generator: Adobe Illustrator 16.0.0, SVG Export Plug-In . SVG Version: 6.00 Build 0)  -->
<!DOCTYPE svg PUBLIC "-//W3C//DTD SVG 1.1//EN" "http://www.w3.org/Graphics/SVG/1.1/DTD/svg11.dtd">
<svg version="1.1" id="Layer_1" xmlns="http://www.w3.org/2000/svg" xmlns:xlink="http://www.w3.org/1999/xlink" x="0px" y="0px"
	 width="32px" height="32px" viewBox="0 0 32 32" enable-background="new 0 0 32 32" xml:space="preserve">
<g>
	<path fill="#FFFFFF" d="M16,31.488C7.459,31.488,0.512,24.54,0.512,16C0.512,7.459,7.459,0.512,16,0.512
		c8.54,0,15.488,6.948,15.488,15.488C31.488,24.54,24.54,31.488,16,31.488z M16,1.417C7.958,1.417,1.417,7.958,1.417,16
		c0,8.041,6.542,14.583,14.583,14.583c8.041,0,14.583-6.542,14.583-14.583C30.583,7.958,24.041,1.417,16,1.417z M11.695,27.983
		c-0.197,0-0.392-0.038-0.577-0.11c-0.375-0.147-0.695-0.438-0.875-0.802c-0.189-0.381-0.214-0.799-0.073-1.183l2.405-9.102v-5.431
		l-4.938-0.672c-0.348-0.027-0.685-0.199-0.925-0.482C6.459,9.907,6.339,9.524,6.372,9.126c0.057-0.785,0.762-1.398,1.572-1.33
		l6.458,0.556h2.801l6.955-0.569c0.783,0,1.415,0.613,1.442,1.395c0.031,0.789-0.577,1.46-1.361,1.504l-5.372,0.678l0.002,5.326
		l2.782,9.292c0.106,0.422,0.047,0.838-0.166,1.191c-0.211,0.354-0.548,0.604-0.947,0.704c-0.129,0.032-0.262,0.049-0.393,0.049
		c-0.7,0-1.306-0.462-1.48-1.124l-2.762-8.194h-0.223l-2.556,8.405C12.893,27.601,12.332,27.983,11.695,27.983z M7.826,8.696
		c-0.285,0-0.532,0.224-0.553,0.5C7.26,9.357,7.306,9.505,7.4,9.617c0.059,0.069,0.164,0.154,0.333,0.168l5.746,0.781l-0.015,6.396
		l-2.442,9.23c-0.079,0.202-0.014,0.385,0.032,0.477c0.081,0.163,0.224,0.296,0.393,0.361c0.327,0.128,0.7-0.026,0.828-0.336
		l2.733-8.994h1.544l2.985,8.859c0.081,0.326,0.431,0.522,0.78,0.437c0.165-0.042,0.304-0.144,0.391-0.29
		c0.088-0.147,0.113-0.32,0.071-0.489l-2.815-9.399l-0.003-6.255l6.219-0.784c0.296-0.012,0.527-0.267,0.516-0.568
		c-0.01-0.295-0.245-0.523-0.538-0.523l-6.936,0.569l-2.878-0.002L7.868,8.697C7.855,8.697,7.841,8.696,7.826,8.696z M15.771,8.294
		c-1.319,0-2.393-1.077-2.394-2.402c0-1.32,1.074-2.394,2.394-2.394c1.325,0,2.402,1.073,2.402,2.394
		C18.174,7.217,17.097,8.294,15.771,8.294z M15.771,4.402c-0.821,0-1.489,0.669-1.489,1.49c0,0.825,0.668,1.497,1.489,1.497
		c0.825,0,1.497-0.672,1.497-1.497C17.269,5.071,16.597,4.402,15.771,4.402z"/>
</g>
</svg>
