<?xml version="1.0" encoding="utf-8"?>
<!-- Generator: Adobe Illustrator 16.0.0, SVG Export Plug-In . SVG Version: 6.00 Build 0)  -->
<!DOCTYPE svg PUBLIC "-//W3C//DTD SVG 1.1//EN" "http://www.w3.org/Graphics/SVG/1.1/DTD/svg11.dtd">
<svg version="1.1" id="Layer_1" xmlns="http://www.w3.org/2000/svg" xmlns:xlink="http://www.w3.org/1999/xlink" x="0px" y="0px"
	 width="32px" height="32px" viewBox="0 0 32 32" enable-background="new 0 0 32 32" xml:space="preserve">
<path fill="#FFFFFF" d="M31.873,4.306c0-0.887-0.343-1.717-0.968-2.341l-0.896-0.898c-1.291-1.29-3.392-1.289-4.683,0l-4.651,4.651
	l-0.211-0.211c-0.482-0.481-1.327-0.482-1.808,0l-0.878,0.878c-0.24,0.239-0.373,0.561-0.373,0.903c0,0.34,0.133,0.663,0.373,0.902
	l0.539,0.539L0.814,26.235l-0.24,0.24l0.154,0.309c0.04,0.078,0.975,1.966-0.269,3.21l-0.332,0.335L1.799,32l0.333-0.332
	c0.331-0.329,0.847-0.499,1.539-0.499c0.908,0,1.769,0.299,1.777,0.301l0.28,0.1l17.713-17.715l0.746,0.747
	c0.239,0.24,0.562,0.374,0.904,0.374c0.341,0,0.662-0.133,0.901-0.374l0.88-0.877c0.24-0.242,0.373-0.562,0.373-0.904
	c0-0.341-0.133-0.662-0.373-0.903l-0.617-0.617l4.649-4.653C31.53,6.023,31.873,5.192,31.873,4.306z M16.183,19.781l-1.896-1.896
	L1.675,30.544l-0.24-0.241c0.992-1.333,0.537-2.947,0.272-3.629L18.732,9.646l3.795,3.792L16.183,19.781z M26.206,13.057
	l-0.876,0.878c-0.064,0.062-0.148,0.096-0.238,0.096c-0.092,0-0.176-0.034-0.238-0.096l-6.409-6.41
	c-0.062-0.063-0.098-0.148-0.098-0.237c0-0.091,0.036-0.175,0.098-0.238l0.878-0.877c0.062-0.063,0.147-0.098,0.237-0.098
	s0.176,0.035,0.236,0.098l6.41,6.411c0.062,0.062,0.099,0.146,0.099,0.236C26.305,12.91,26.268,12.994,26.206,13.057z
	 M25.589,10.632l-4.247-4.248l4.649-4.651c0.924-0.923,2.427-0.923,3.351,0l0.898,0.899c0.445,0.445,0.69,1.039,0.69,1.674
	s-0.245,1.231-0.69,1.675L25.589,10.632z"/>
</svg>
