<?xml version="1.0" encoding="utf-8"?>
<!-- Generator: Adobe Illustrator 19.0.0, SVG Export Plug-In . SVG Version: 6.00 Build 0)  -->
<svg version="1.1" id="Layer_1" xmlns="http://www.w3.org/2000/svg" xmlns:xlink="http://www.w3.org/1999/xlink" x="0px" y="0px"
	 viewBox="334 -423 968 897" style="enable-background:new 334 -423 968 897;" xml:space="preserve">
<style type="text/css">
	.st0{display:none;}
	.st1{display:inline;fill:#33B555;}
	.st2{clip-path:url(#SVGID_2_);}
	.st3{fill:none;stroke:#00A24E;stroke-width:50;stroke-miterlimit:10;}
	.st4{fill:#00A24E;}
	.st5{fill:none;stroke:#00A24E;stroke-width:25;stroke-miterlimit:10;}
	.st6{fill:none;stroke:#008947;stroke-width:100;stroke-miterlimit:10;}
	.st7{fill:#008947;}
</style>
<g id="BG_Color" class="st0">
	<rect id="XMLID_6554_" x="612" y="-423" class="st1" width="968" height="897"/>
</g>
<g>
	<defs>
		<rect id="SVGID_1_" x="334" y="-423" width="968" height="897"/>
	</defs>
	<clipPath id="SVGID_2_">
		<use xlink:href="#SVGID_1_"  style="overflow:visible;"/>
	</clipPath>
	<g id="Layer_1_1_" class="st2">
		<g id="XMLID_6550_">
			<g id="XMLID_6557_">
				<line id="XMLID_6560_" class="st3" x1="1435.9" y1="-975.7" x2="585" y2="-124.9"/>
				<g id="XMLID_6558_">
					<polygon id="XMLID_6559_" class="st4" points="593.4,-253.1 593.3,-133.2 713.2,-133.2 662.3,-82.3 542.5,-82.3 542.5,-202.2 
											"/>
				</g>
			</g>
		</g>
		<g id="XMLID_6549_">
			<g id="XMLID_2963_">
				<line id="XMLID_2966_" class="st5" x1="1523.8" y1="-835.9" x2="672.9" y2="14.9"/>
				<g id="XMLID_2964_">
					<polygon id="XMLID_2965_" class="st4" points="677.1,-49.2 677.1,10.7 737,10.7 711.6,36.2 651.7,36.2 651.7,-23.8 					"/>
				</g>
			</g>
		</g>
		<g id="XMLID_6548_">
			<g id="XMLID_6551_">
				<line id="XMLID_6555_" class="st5" x1="1490.5" y1="-1135.8" x2="639.7" y2="-284.9"/>
				<g id="XMLID_6552_">
					<polygon id="XMLID_6553_" class="st4" points="643.9,-349 643.9,-289.1 703.8,-289.1 678.4,-263.6 618.4,-263.6 618.4,-323.6 
											"/>
				</g>
			</g>
		</g>
		<g id="XMLID_6547_">
			<g id="XMLID_2968_">
				<line id="XMLID_2971_" class="st5" x1="1567.8" y1="-594" x2="716.9" y2="256.9"/>
				<g id="XMLID_2969_">
					<polygon id="XMLID_2970_" class="st4" points="721.1,192.8 721.1,252.7 781,252.7 755.6,278.1 695.6,278.1 695.6,218.2 					
						"/>
				</g>
			</g>
		</g>
		<g id="XMLID_6546_">
			<g id="XMLID_2984_">
				<line id="XMLID_2989_" class="st6" x1="1269.8" y1="-462.5" x2="419" y2="388.4"/>
				<g id="XMLID_2985_">
					<polygon id="XMLID_2986_" class="st7" points="435.7,131.9 435.6,371.7 675.4,371.6 573.7,473.4 333.9,473.4 333.9,233.7 					
						"/>
				</g>
			</g>
		</g>
		<g id="XMLID_6545_">
			<g id="XMLID_2978_">
				<line id="XMLID_2982_" class="st3" x1="1657.1" y1="-504.7" x2="806.2" y2="346.2"/>
				<g id="XMLID_2980_">
					<polygon id="XMLID_2981_" class="st4" points="814.6,217.9 814.5,337.9 934.4,337.8 883.6,388.7 763.7,388.7 763.7,268.8 					
						"/>
				</g>
			</g>
		</g>
		<g id="XMLID_6544_">
			<g id="XMLID_2973_">
				<line id="XMLID_2976_" class="st3" x1="1310.9" y1="-766.6" x2="460" y2="84.3"/>
				<g id="XMLID_2974_">
					<polygon id="XMLID_2975_" class="st4" points="468.4,-44 468.4,75.9 588.3,75.9 537.4,126.8 417.5,126.8 417.5,6.9 					"/>
				</g>
			</g>
		</g>
	</g>
</g>
</svg>
