<?xml version="1.0" encoding="utf-8"?>
<!-- Generator: Adobe Illustrator 19.0.0, SVG Export Plug-In . SVG Version: 6.00 Build 0)  -->
<svg version="1.1" xmlns="http://www.w3.org/2000/svg" xmlns:xlink="http://www.w3.org/1999/xlink" x="0px" y="0px"
	 viewBox="0 0 96 96" style="enable-background:new 0 0 96 96;" xml:space="preserve">
<style type="text/css">
	.st0{display:none;}
	.st1{display:inline;}
	.st2{fill:#FFFFFF;}
	.st3{fill:#55A1D2;}
	.st4{fill:#AED8EA;}
</style>
<g id="BG" class="st0">
	<rect id="XMLID_125_" x="124.3" class="st1" width="96" height="96"/>
	<rect id="XMLID_28_" x="0" class="st1" width="96" height="96"/>
	<rect id="XMLID_42_" x="-119.8" class="st1" width="96" height="96"/>
</g>
<g id="Layer_1">
</g>
<g id="Layer_2">
	<g id="XMLID_280_">
		<g id="XMLID_2_">
			<path id="XMLID_11_" class="st2" d="M63.9,86.1H26.7c-5,0-9-4-9-9V30.3h55.2v46.8C72.9,82.1,68.9,86.1,63.9,86.1z M21.3,33.9
				v43.2c0,3,2.4,5.4,5.4,5.4h37.2c3,0,5.4-2.4,5.4-5.4V33.9H21.3z"/>
		</g>
		<g id="XMLID_10_">
			<path id="XMLID_12_" class="st2" d="M71.8,35c0,0-0.1,0-0.1,0H18.9c-0.2,0-2.6-0.2-4.2-1.9c-0.7-0.7-1.5-2-1.5-4
				c0-2,0.8-3.2,1.5-3.9c1.7-1.6,4.1-1.5,4.3-1.5l52.7,0c0.2,0,2.5,0,4.1,1.6c0.7,0.7,1.5,1.9,1.5,3.9c0,2-0.8,3.4-1.5,4.1
				C74.4,34.6,72.4,35,71.8,35z M71.8,31c0.3,0,1.1-0.1,1.6-0.6c0.1-0.1,0.4-0.4,0.4-1.3c0-0.9-0.2-1.2-0.3-1.3
				c-0.5-0.5-1.5-0.4-1.5-0.4V28H18.9c-0.4,0-1.3-0.3-1.7,0.2c-0.1,0.1-0.4,0.2-0.4,1c0,0.9,0.3,1.1,0.4,1.2
				c0.5,0.5,1.4,0.6,1.7,0.6c0,0,0,0,0,0H71.8z"/>
		</g>
		<g id="XMLID_13_">
			<circle id="XMLID_54_" class="st3" cx="45.9" cy="44.7" r="4.2"/>
		</g>
		<g id="XMLID_14_">
			<path id="XMLID_49_" class="st3" d="M44.5,13.4c-2.3-2.3-5.3-3.5-8.5-3.5c-6.6,0-12,5.4-12,12V25h4v-3.1c0-2.2,0.7-4.3,2.3-5.9
				c1.6-1.6,3.6-2.5,5.8-2.5c2.2,0,4.1,0.9,5.7,2.5c1.6,1.6,2.2,3.7,2.2,5.9V47h4V21.9C48,18.7,46.8,15.7,44.5,13.4z"/>
		</g>
		<g id="XMLID_107_">
			<path id="XMLID_108_" class="st4" d="M71.7,74.3c-5.3,0-9.6-4-9.6-8.9c0-4.2,6.9-14.9,9.6-14.9c2.7,0,9.6,10.8,9.6,14.9
				C81.3,70.3,77,74.3,71.7,74.3z"/>
		</g>
		<g id="XMLID_18_">
			<path id="XMLID_19_" class="st2" d="M71.7,75.9c-6.1,0-11.1-4.6-11.1-10.3c0-4.9,8-17.3,11.1-17.3c3.1,0,11.1,12.5,11.1,17.3
				C82.8,71.3,77.8,75.9,71.7,75.9z M71.7,52.2c-2.2,2.1-7.5,10-7.5,13.4c0,3.7,3.4,6.7,7.5,6.7c4.2,0,7.5-3,7.5-6.7
				C79.2,62.3,73.9,54.3,71.7,52.2z"/>
		</g>
		<g id="XMLID_20_">
			<path id="XMLID_50_" class="st2" d="M71.7,69.9c-0.8,0-1.5-0.5-1.7-1.3c-0.3-1,0.3-1.9,1.3-2.2c0.4-0.1,1.5-0.6,1.8-1.4
				c0.3-0.6,0.2-1.3-0.1-2.2c-0.4-0.9,0.1-2,1-2.3c0.9-0.4,2,0.1,2.3,1c1,2.3,0.6,4.1,0,5.1c-1.2,2.4-3.8,3.2-4.1,3.3
				C72,69.9,71.9,69.9,71.7,69.9z"/>
		</g>
	</g>
</g>
</svg>
