<?xml version="1.0" encoding="utf-8"?>
<!-- Generator: Adobe Illustrator 19.0.0, SVG Export Plug-In . SVG Version: 6.00 Build 0)  -->
<svg version="1.1" xmlns="http://www.w3.org/2000/svg" xmlns:xlink="http://www.w3.org/1999/xlink" x="0px" y="0px"
	 viewBox="0 0 96 96" style="enable-background:new 0 0 96 96;" xml:space="preserve">
<style type="text/css">
	.st0{display:none;}
	.st1{display:inline;}
	.st2{fill:#FFFFFF;}
	.st3{fill:#AED8EA;}
	.st4{fill:#55A1D2;}
</style>
<g id="BG" class="st0">
	<rect id="XMLID_125_" x="244.2" class="st1" width="96" height="96"/>
	<rect id="XMLID_28_" x="119.8" class="st1" width="96" height="96"/>
	<rect id="XMLID_42_" x="0" class="st1" width="96" height="96"/>
</g>
<g id="Layer_1">
	<g id="XMLID_159_">
		<g id="XMLID_177_">
			<path id="XMLID_178_" class="st2" d="M65.5,79.2c-3.7,0-8.2-1.3-13.2-3.9l-0.2-0.1c-0.1-0.1-2.4-1.7-3.9-4l3-2
				c1,1.5,2.5,2.7,2.9,3c7.6,3.9,13.8,4.5,16.7,1.5c4.9-5.1,0.1-21.1-14.9-36.7C45.9,26.5,34,19.5,26.3,19.5c-2.3,0-4.1,0.6-5.3,1.9
				c-1.4,1.5-2,3.7-1.8,6.7c0,0.1,0,0.9,0.4,1.8l-3.3,1.5c-0.7-1.5-0.7-2.9-0.7-3.1c-0.3-3.9,0.7-7.2,2.8-9.4c1.9-2,4.6-3,7.9-3h0
				c8.7,0,21.3,7.3,32.1,18.6c15.3,16.1,21.9,34.4,14.9,41.7C71.4,78.2,68.7,79.2,65.5,79.2z"/>
		</g>
		<g id="XMLID_175_">
			<path id="XMLID_176_" class="st2" d="M26.3,79.2c-3.3,0-6-1-7.9-3c-7-7.3-0.4-25.6,14.9-41.7c10.8-11.3,23.4-18.6,32.1-18.6
				c3.3,0,6,1,7.9,3c2.1,2.2,3,5.4,2.8,9.3c0,0.5,0,2.2-0.7,4.2L72,31.2c0.6-1.5,0.5-2.9,0.5-2.9l0-0.1l0-0.1c0.2-3-0.4-5.2-1.8-6.7
				c-1.2-1.3-3-1.9-5.3-1.9c-7.7,0-19.5,7-29.5,17.5C21,52.6,16.2,68.6,21.1,73.7c2.8,2.9,8.9,2.4,16.3-1.3c0.3-0.2,2.3-1.5,4.1-3.4
				l2.6,2.5c-2.4,2.5-4.9,4-5,4.1L39,75.6C34.3,78,30,79.2,26.3,79.2z"/>
		</g>
		<g id="XMLID_173_">
			<path id="XMLID_174_" class="st2" d="M45.9,66.1c-21.7,0-38.8-8.1-38.8-18.5c0-4.2,2.7-8.1,7.8-11.3c0.3-0.2,2.5-1.5,5-1.5v3.6
				c-1.5,0-3.1,0.9-3.1,0.9c-2.8,1.7-6.1,4.6-6.1,8.2c0,8.1,16.1,14.9,35.2,14.9s35.2-6.8,35.2-14.9c0-3.6-3.3-6.4-6-8.2l-0.1-0.1
				c-0.4-0.3-1.3-0.8-1.7-1l1-3.4c1.2,0.3,2.4,1.2,2.8,1.5c5,3.2,7.7,7.1,7.7,11.2C84.7,57.9,67.6,66.1,45.9,66.1z"/>
		</g>
		<g id="XMLID_171_">
			<circle id="XMLID_172_" class="st3" cx="34.9" cy="19.8" r="4.8"/>
		</g>
		<g id="XMLID_169_">
			<path id="XMLID_170_" class="st4" d="M55.3,47.4c0-4.6-3.8-8.4-8.4-8.4s-8.4,3.8-8.4,8.4s3.8,8.4,8.4,8.4
				C53.1,55.8,55.3,50.4,55.3,47.4z"/>
		</g>
		<g id="XMLID_167_">
			<path id="XMLID_168_" class="st3" d="M33.7,76.8c0-2.3-1.9-4.2-4.2-4.2s-4.2,1.9-4.2,4.2s1.9,4.2,4.2,4.2
				C33.4,81,33.7,77.5,33.7,76.8z"/>
		</g>
		<g id="XMLID_163_">
			<circle id="XMLID_166_" class="st3" cx="82.9" cy="49.8" r="6"/>
		</g>
	</g>
</g>
<g id="Layer_2">
</g>
</svg>
