<?xml version="1.0" encoding="utf-8"?>
<!-- Generator: Adobe Illustrator 16.0.0, SVG Export Plug-In . SVG Version: 6.00 Build 0)  -->
<!DOCTYPE svg PUBLIC "-//W3C//DTD SVG 1.1//EN" "http://www.w3.org/Graphics/SVG/1.1/DTD/svg11.dtd">
<svg version="1.1" id="Layer_1" xmlns="http://www.w3.org/2000/svg" xmlns:xlink="http://www.w3.org/1999/xlink" x="0px" y="0px"
	 width="32px" height="32px" viewBox="0 0 32 32" enable-background="new 0 0 32 32" xml:space="preserve">
<g>
	<path fill="#FFFFFF" d="M24.604,31.887H13.491c-0.292,0-0.53-0.235-0.533-0.528l-0.026-2.851c-0.788-0.59-2.084-1.778-3.276-3.861
		l-5.46-4.619c-0.59-0.495-0.95-1.193-1.014-1.965c-0.066-0.768,0.172-1.517,0.673-2.107c0.548-0.65,1.354-1.024,2.21-1.024
		c0.676,0,1.334,0.239,1.852,0.673l2.633,2.067c0.073-0.641,0.141-1.784,0.141-3.823L10.573,3.084
		c-0.021-0.756,0.253-1.486,0.772-2.048c0.527-0.565,1.242-0.892,2.014-0.92c0.006,0,0.096-0.003,0.103-0.003
		c1.564,0,2.833,1.225,2.89,2.787c0.002,0.241,0.031,3.248,0.052,6.002c0.387-0.294,0.966-0.499,1.856-0.573
		c0.167-0.016,0.321-0.021,0.469-0.021c1.457,0,2.407,0.756,2.562,2.03c0.354-0.377,0.792-0.632,1.308-0.632
		c0.236,0,0.494,0.024,0.787,0.076c2.804,0.499,2.714,2.329,2.618,2.878l-0.013,0.074c0.122-0.044,0.233-0.07,0.325-0.074
		c0.726-0.034,1.288,0.249,1.727,0.851c0.969,1.328,0.931,2.366,0.492,4.056l-0.082,0.323c-0.004,0.014-0.014,0.047-0.018,0.06
		l-3.249,10.244l-0.048,3.168C25.134,31.652,24.896,31.887,24.604,31.887z M14.02,30.821h10.06l0.035-2.253H13.999L14.02,30.821z
		 M13.375,27.502h10.912l3.129-9.868l0.087-0.333c0-0.001,0-0.001,0-0.001c0.413-1.594,0.347-2.244-0.322-3.162
		c-0.189-0.26-0.412-0.433-0.822-0.412c-0.103,0.027-0.563,0.277-0.72,0.505c-0.146,0.215-0.429,0.291-0.664,0.181
		c-0.236-0.109-0.358-0.375-0.288-0.626c0.005-0.02,0.035-0.158,0.066-0.295c0.037-0.166,0.075-0.331,0.079-0.349
		c0.001-0.001,0.002-0.006,0.004-0.011l0.117-0.655c0.146-0.844-0.461-1.414-1.753-1.644c-0.231-0.041-0.429-0.061-0.603-0.061
		c-0.541,0-1.15,1.065-1.313,1.981c-0.049,0.279-0.304,0.472-0.592,0.436c-0.282-0.036-0.486-0.286-0.464-0.569l0.067-0.873
		l-0.056-1.195c0-0.005-0.001-0.01-0.001-0.015c-0.066-0.782-0.561-1.163-1.511-1.163c-0.116,0-0.239,0.005-0.375,0.018
		c-1.511,0.127-1.583,0.541-1.723,1.367l-0.036,0.208c-0.13,1.133-0.206,1.234-0.379,1.368c-0.16,0.125-0.377,0.147-0.56,0.059
		s-0.299-0.274-0.3-0.478c-0.012-2.887-0.066-8.665-0.069-8.966c-0.035-0.997-0.837-1.771-1.824-1.771l-0.083,0.003
		c-0.469,0.018-0.92,0.224-1.252,0.58c-0.328,0.354-0.502,0.817-0.488,1.301l0.117,10.779c0,3.671-0.208,4.599-0.364,4.979
		c-0.062,0.151-0.19,0.266-0.348,0.311c-0.157,0.045-0.327,0.015-0.458-0.082l-0.123-0.092l-3.218-2.526
		c-0.34-0.284-0.754-0.435-1.181-0.435c-0.541,0-1.05,0.235-1.396,0.646c-0.316,0.373-0.467,0.846-0.425,1.33
		c0.041,0.488,0.267,0.928,0.639,1.24l5.534,4.681c0.048,0.041,0.089,0.09,0.12,0.145C11.568,25.867,12.695,26.955,13.375,27.502z
		 M20.603,21.604c-0.295,0-0.533-0.239-0.533-0.533v-3.993c0-0.295,0.238-0.533,0.533-0.533c0.294,0,0.533,0.238,0.533,0.533v3.993
		C21.136,21.365,20.896,21.604,20.603,21.604z M17.191,21.604c-0.294,0-0.534-0.239-0.534-0.533v-3.993
		c0-0.295,0.239-0.533,0.534-0.533c0.294,0,0.533,0.238,0.533,0.533v3.993C17.725,21.365,17.485,21.604,17.191,21.604z"/>
</g>
</svg>
