<?xml version="1.0" encoding="utf-8"?>
<!-- Generator: Adobe Illustrator 16.0.0, SVG Export Plug-In . SVG Version: 6.00 Build 0)  -->
<!DOCTYPE svg PUBLIC "-//W3C//DTD SVG 1.1//EN" "http://www.w3.org/Graphics/SVG/1.1/DTD/svg11.dtd">
<svg version="1.1" id="Layer_1" xmlns="http://www.w3.org/2000/svg" xmlns:xlink="http://www.w3.org/1999/xlink" x="0px" y="0px"
	 width="32px" height="32px" viewBox="0 0 32 32" enable-background="new 0 0 32 32" xml:space="preserve">
<path fill="#FFFFFF" d="M16.067,18.598c0.592,0,1.168-0.209,1.623-0.586c0.522-0.435,0.845-1.045,0.909-1.721
	c0.062-0.677-0.142-1.338-0.576-1.86c-0.484-0.584-1.199-0.918-1.959-0.918c-0.59,0-1.166,0.208-1.621,0.585
	c-1.079,0.896-1.228,2.502-0.333,3.58C14.595,18.262,15.309,18.598,16.067,18.598z M15.012,14.782c0.296-0.245,0.67-0.38,1.053-0.38
	c0.495,0,0.959,0.217,1.274,0.597c0.282,0.34,0.414,0.77,0.374,1.208c-0.041,0.439-0.251,0.836-0.591,1.118
	c-0.296,0.247-0.671,0.382-1.055,0.382c-0.493,0-0.956-0.218-1.271-0.598C14.214,16.408,14.311,15.365,15.012,14.782z M9.992,27.734
	l10.702-9.331l1.313-14.138l-10.701,9.331L9.992,27.734z M20.915,6.399L19.84,17.967l-8.755,7.635l1.075-11.568L20.915,6.399z
	 M16.001,0.125C7.247,0.125,0.126,7.247,0.126,16c0,8.751,7.121,15.875,15.875,15.875c8.752,0,15.873-7.123,15.873-15.875
	C31.874,7.247,24.753,0.125,16.001,0.125z M16.001,30.984C7.737,30.984,1.016,24.262,1.016,16c0-8.263,6.722-14.985,14.985-14.985
	c8.261,0,14.983,6.722,14.983,14.985C30.984,24.262,24.262,30.984,16.001,30.984z"/>
</svg>
