<svg width="18" height="18" viewBox="0 0 18 18" xmlns="http://www.w3.org/2000/svg" xmlns:sketch="http://www.bohemiancoding.com/sketch/ns"><title>bookmark-outlined</title><desc>Created with Sketch.</desc><path d="M12.5 0h-7c-1.375 0-2.5 1.125-2.5 2.5v14.5l.004-.022c-.006.265.088.53.29.732.195.193.45.29.705.29.256 0 .513-.098.709-.294l4.292-4.706 4.296 4.711c.196.193.45.29.704.29.258 0 .515-.1.71-.297.206-.209.303-.483.29-.754v-14.45c0-1.375-1.125-2.5-2.5-2.5zm-7.5 13.701v-11.201c0-.271.229-.5.5-.5h7c.271 0 .5.229.5.5l-.001 11.918-3.999-4.386-1.478 1.62-2.522 2.754v-.705z" sketch:type="MSShapeGroup" fill="#3F4347"/></svg>