<svg width="18" height="18" viewBox="0 0 18 18" xmlns="http://www.w3.org/2000/svg" xmlns:sketch="http://www.bohemiancoding.com/sketch/ns"><title>columns</title><desc>Created with Sketch.</desc><path d="M15.5 0h-12c-1.379 0-2.5 1.121-2.5 2.5v13c0 1.378 1.121 2.5 2.5 2.5h12c1.378 0 2.5-1.122 2.5-2.5v-13c0-1.379-1.122-2.5-2.5-2.5zm-12 16c-.275 0-.5-.225-.5-.5v-13c0-.275.225-.5.5-.5h2.5v14h-2.5zm4.5-14h3v14h-3v-14zm8 13.5c0 .275-.225.5-.5.5h-2.5v-14h2.5c.275 0 .5.225.5.5v13z" sketch:type="MSShapeGroup" fill="#3F4347"/></svg>