<svg width="18" height="18" viewBox="0 0 18 18" xmlns="http://www.w3.org/2000/svg" xmlns:sketch="http://www.bohemiancoding.com/sketch/ns"><title>compose</title><desc>Created with Sketch.</desc><g sketch:type="MSLayerGroup" fill="#3F4347"><path d="M6.875 11.724h-.002.002m6.436-8.673l1.186-1.16c.175-.17.417-.266.674-.266.257 0 .499.096.678.27l1.085 1.058c.164.164.258.383.258.615 0 .232-.094.452-.263.619l-1.075 1.051-2.543-2.187m3.699 4.949c-.547 0-.992.447-.992 1v6.599c0 .389-.444.401-.495.401h-13.046c-.051 0-.495-.012-.495-.401v-13.099c0-.275.221-.5.495-.5h6.533c.547 0 .99-.447.99-1 0-.553-.443-1-.99-1h-6.533c-1.366 0-2.477 1.121-2.477 2.5v13.099c0 1.346 1.088 2.401 2.477 2.401h13.046c1.389 0 2.477-1.055 2.477-2.401v-6.599c0-.553-.443-1-.99-1" sketch:type="MSShapeGroup"/><path d="M14.974 1.985l.98.958-.326.319-1.029-.885.383-.376.007-.001-.015-.015zm.015-1.985c-.494 0-.988.183-1.365.548l-.878.858-8.245 8.384c-.285.278-.501.791-.501 1.182v2.274c0 .415.348.754.771.754h2.335c.409 0 .917-.212 1.203-.489l8.499-8.616.632-.62c.747-.737.747-1.927 0-2.666l-1.087-1.061c-.378-.365-.871-.548-1.364-.548zm-9.484 12.545v-1.491l.047-.152 7.264-7.431 1.61 1.61-7.218 7.396-.138.068h-1.565z" sketch:type="MSShapeGroup"/></g></svg>