<svg width="18" height="18" viewBox="0 0 18 18" xmlns="http://www.w3.org/2000/svg" xmlns:sketch="http://www.bohemiancoding.com/sketch/ns"><title>confirm</title><desc>Created with Sketch.</desc><g sketch:type="MSLayerGroup" fill="none"><path d="M9 0c-4.971 0-9 4.029-9 9s4.029 9 9 9 9-4.029 9-9-4.029-9-9-9" fill="#3F4347" sketch:type="MSShapeGroup"/><path d="M8.063 13c-.254 0-.508-.096-.703-.288l-2.062-2.001c-.394-.388-.398-1.021-.009-1.413.388-.395 1.021-.397 1.413-.009l1.354 1.299 4.234-4.293c.392-.39 1.024-.393 1.415-.005.392.391.394 1.023.005 1.415l-4.937 5c-.197.196-.454.295-.71.295" fill="#fff" sketch:type="MSShapeGroup"/></g></svg>