<svg width="14" height="14" viewBox="0 0 14 14" xmlns="http://www.w3.org/2000/svg" xmlns:sketch="http://www.bohemiancoding.com/sketch/ns"><title>date-calendar-dropdown</title><desc>Created with Sketch.</desc><path d="M9.01 2h-.01c0-.547-.443-.99-.99-.99h-.02c-.547 0-.99.443-.99.99h-3c0-.547-.443-.99-.99-.99h-.02c-.547 0-.99.443-.99.99h-.005c-.549 0-.995.446-.995.995v7.004c0 .553.448 1.001 1.001 1.001h6.999c.553 0 1-.447 1-1v-7.01c0-.547-.443-.99-.99-.99zm-6.01 3h5v4h-5v-4zm2 1h2v2h-2v-2zm8 3.999v3.001h-3.001l3.001-3.001" sketch:type="MSShapeGroup" fill="#3F4347"/></svg>