<svg width="14" height="14" viewBox="0 0 14 14" xmlns="http://www.w3.org/2000/svg" xmlns:sketch="http://www.bohemiancoding.com/sketch/ns"><title>doesn&apos;t-equal</title><desc>Created with Sketch.</desc><path d="M4.116 11.987c-.086 0-.172-.022-.251-.067-.238-.139-.32-.445-.181-.684l4.615-7.964c.138-.241.445-.32.683-.181.239.138.321.444.182.683l-4.615 7.964c-.093.16-.261.249-.433.249m7.884-6.987h-1.236l-1.159 2h2.395c.55 0 1-.45 1-1s-.45-1-1-1m-3.548 0h-5.452c-.55 0-1 .45-1 1s.45 1 1 1h4.293l1.159-2m3.548 3h-2.974l-1.159 2h4.133c.55 0 1-.45 1-1s-.45-1-1-1m-5.287 0h-3.713c-.55 0-1 .45-1 1s.45 1 1 1h2.554l1.159-2" sketch:type="MSShapeGroup" fill="#3F4347"/></svg>