<svg width="14" height="14" viewBox="0 0 14 14" xmlns="http://www.w3.org/2000/svg" xmlns:sketch="http://www.bohemiancoding.com/sketch/ns"><title>doesn&apos;t-contain-dropdown</title><desc>Created with Sketch.</desc><g sketch:type="MSLayerGroup" fill="none"><path d="M14 10.999v3.001h-3.001l3.001-3.001" fill="#3F4347" sketch:type="MSShapeGroup"/><path d="M8 1l-4.615 7.964" stroke="#3F4347" stroke-width="2" stroke-linecap="round" sketch:type="MSShapeGroup"/><path d="M9.5 11h-.5c-.552 0-1-.448-1-1s.448-1 1-1v-5c0-.552.448-1 1-1s1 .448 1 1v6.003c0 .551-.446.997-.997.997h-.503zm-8-11h.5c.552 0 1 .448 1 1s-.448 1-1 1v5c0 .552-.448 1-1 1s-1-.448-1-1v-6.003c0-.551.446-.997.997-.997h.503z" fill="#3F4347" sketch:type="MSShapeGroup"/></g></svg>