<svg width="14" height="14" viewBox="0 0 14 14" xmlns="http://www.w3.org/2000/svg" xmlns:sketch="http://www.bohemiancoding.com/sketch/ns"><title>doesn&apos;t-contain</title><desc>Created with Sketch.</desc><g sketch:type="MSLayerGroup" fill="none"><path d="M10 3l-4.615 7.964" stroke="#3F4347" stroke-width="2" stroke-linecap="round" sketch:type="MSShapeGroup"/><path d="M12 5c-.552 0-1 .448-1 1v5c-.552 0-1 .448-1 1s.448 1 1 1h1.003c.551 0 .997-.446.997-.997v-6.003c0-.552-.448-1-1-1m-8-3h-1.003c-.551 0-.997.446-.997.997v6.003c0 .552.448 1 1 1s1-.448 1-1v-5c.552 0 1-.448 1-1s-.448-1-1-1" fill="#3F4347" sketch:type="MSShapeGroup"/></g></svg>