<svg width="18" height="18" viewBox="0 0 18 18" xmlns="http://www.w3.org/2000/svg" xmlns:sketch="http://www.bohemiancoding.com/sketch/ns"><title>download</title><desc>Created with Sketch.</desc><path d="M1 13c-.553 0-1 .447-1 1v1.599c0 1.346 1.098 2.401 2.5 2.401h13c1.402 0 2.5-1.055 2.5-2.401v-1.599c0-.553-.448-1-1-1s-1 .447-1 1v1.599c0 .389-.448.401-.5.401h-13c-.052 0-.5-.012-.5-.401v-1.599c0-.553-.447-1-1-1m5.586-1.901h-.001.001m3.121 2.67l5.062-5.062c.391-.391.391-1.023 0-1.414-.39-.391-1.054-.391-1.445 0l-3.324 3.293v-9.586c0-.553-.448-1-1-1s-1 .447-1 1v9.711l-3.324-3.356c-.391-.39-1.008-.39-1.399 0-.195.196-.285.452-.285.707 0 .256.102.512.297.707l5.002 5c.391.391 1.025.391 1.416 0" sketch:type="MSShapeGroup" fill="#3F4347"/></svg>