<svg width="18" height="18" viewBox="0 0 18 18" xmlns="http://www.w3.org/2000/svg" xmlns:sketch="http://www.bohemiancoding.com/sketch/ns"><title>down-arrow</title><desc>Created with Sketch.</desc><path d="M9.715 15.77l.062-.063h.001l4.999-5c.391-.391.391-1.023 0-1.414-.39-.391-1.054-.391-1.445 0l-3.324 3.293v-9.586c0-.553-.448-1-1-1s-1 .447-1 1v9.711l-3.324-3.355c-.391-.391-1.008-.391-1.399 0-.195.195-.285.451-.285.706 0 .256.102.512.297.707l5.002 5.001c.391.39 1.025.39 1.416 0" sketch:type="MSShapeGroup" fill="#3F4347"/></svg>