<svg width="18" height="18" viewBox="0 0 18 18" xmlns="http://www.w3.org/2000/svg" xmlns:sketch="http://www.bohemiancoding.com/sketch/ns"><title>duplicate</title><desc>Created with Sketch.</desc><path d="M8 7.731v1.269h-3c-.553 0-1 .447-1 1 0 .553.447 1 1 1h3v1.269c0 .604.887.947 1.362.58l3.328-2.269c.378-.292.429-.868.051-1.16l-3.404-2.269c-.476-.367-1.337-.024-1.337.58m9.414-4.317l-2.828-2.828c-.375-.375-.884-.586-1.415-.586h-6.671c-1.381 0-2.5 1.119-2.5 2.5v3.5c0 .553.448 1 1 1s1-.447 1-1v-3.5c0-.276.224-.5.5-.5h5.5v3c0 .55.45 1 1 1h3v9.5c0 .276-.224.5-.5.5h-9c-.276 0-.5-.224-.5-.5v-1.5c0-.553-.448-1-1-1s-1 .447-1 1v1.5c0 1.381 1.119 2.5 2.5 2.5h9c1.381 0 2.5-1.119 2.5-2.5v-10.672c0-.53-.211-1.039-.586-1.414m-14.945-3.414l.01.002.021-.002h-.031m.062 16h-.031c-.276 0-.5-.224-.5-.5v-13c0-.276.224-.5.5-.5h.031c.553 0 1-.448 1-1h.016c0-.549-.519-.992-1.068-.998-1.37.012-2.479 1.124-2.479 2.498v13c0 1.374 1.109 2.486 2.479 2.498.549-.006 1.068-.449 1.068-.998h-.016c0-.552-.447-1-1-1" sketch:type="MSShapeGroup" fill="#3F4347"/></svg>