<svg width="18" height="18" viewBox="0 0 18 18" xmlns="http://www.w3.org/2000/svg" xmlns:sketch="http://www.bohemiancoding.com/sketch/ns"><title>edit</title><desc>Created with Sketch.</desc><g sketch:type="MSLayerGroup" fill="#3F4347"><path d="M17 16h-7.22l-2 2h9.22c.55 0 1-.45 1-1s-.45-1-1-1m0 0h-7.22l-2 2h9.22c.55 0 1-.45 1-1s-.45-1-1-1" sketch:type="MSShapeGroup"/><path d="M1 13.98v3.02-3.02zm13.981-7.437l-3.755-3.304-.589.589 2.39-2.391c.282-.279.661-.435 1.063-.435.402 0 .781.156 1.066.439l1.407 1.406c.579.585.579 1.542-.003 2.13l-7.455 7.447 5.876-5.881zm-.891-4.54c.097 0 .239.026.356.141l1.403 1.403c.198.2.198.526.007.719l-.819.819-.094.093-2.257-1.986 1.041-1.04c.124-.123.266-.149.363-.149zm0-2c-.64 0-1.28.242-1.77.727l-11.67 11.68c-.37.37-.65 1.05-.65 1.57v3.02c0 .55.45 1 1 1h3.03c.53 0 1.19-.28 1.56-.65l10.86-10.85.82-.82c.97-.98.97-2.56 0-3.54l-1.41-1.41c-.49-.485-1.13-.727-1.77-.727zm-12.09 15.997v-1.98l.06-.2 9.21-9.21 2.25 1.98-9.31 9.32-.18.09h-2.03z" sketch:type="MSShapeGroup"/></g></svg>