<svg width="14" height="14" viewBox="0 0 14 14" xmlns="http://www.w3.org/2000/svg" xmlns:sketch="http://www.bohemiancoding.com/sketch/ns"><title>either-selected-or-not-selected-dropdown</title><desc>Created with Sketch.</desc><path d="M7.5 1h-4c-1.379 0-2.5 1.121-2.5 2.5v4c0 1.379 1.121 2.5 2.5 2.5h4c1.379 0 2.5-1.121 2.5-2.5v-4c0-1.379-1.121-2.5-2.5-2.5zm-4.5 2.5c0-.275.225-.5.5-.5h4c.138 0 .263.056.353.147l-4.706 4.706c-.091-.09-.147-.215-.147-.353v-4zm10 6.499v3.001h-3.001l3.001-3.001" sketch:type="MSShapeGroup" fill="#3F4347"/></svg>