<svg width="18" height="18" viewBox="0 0 18 18" xmlns="http://www.w3.org/2000/svg" xmlns:sketch="http://www.bohemiancoding.com/sketch/ns"><title>export</title><desc>Created with Sketch.</desc><path d="M7 12.269v-1.269h3c.553 0 1-.447 1-1 0-.553-.447-1-1-1h-3v-1.269c0-.604-.887-.947-1.362-.58l-3.328 2.269c-.378.292-.428.868-.05 1.16l3.403 2.269c.476.367 1.337.024 1.337-.58m4.171-12.269h-1.171v5c0 .55.45 1 1 1h5v-1.172c0-.53-.211-1.039-.586-1.414l-2.828-2.828c-.375-.375-.884-.586-1.415-.586m-1.171 0h-5.5c-1.381 0-2.5 1.119-2.5 2.5v3.5c0 .553.448 1 1 1s1-.447 1-1v-3.5c0-.276.224-.5.5-.5h6.501l2.999 3v10.5c0 .276-.224.5-.5.5h-9c-.276 0-.5-.224-.5-.5v-1.5c0-.553-.448-1-1-1s-1 .447-1 1v1.5c0 1.381 1.119 2.5 2.5 2.5h9c1.381 0 2.5-1.119 2.5-2.5v-9.5l-6-6" sketch:type="MSShapeGroup" fill="#3F4347"/></svg>