<svg width="18" height="18" viewBox="0 0 18 18" xmlns="http://www.w3.org/2000/svg" xmlns:sketch="http://www.bohemiancoding.com/sketch/ns"><title>filter</title><desc>Created with Sketch.</desc><path d="M11 5h-8c-.552 0-1 .447-1 1 0 .553.448 1 1 1h8c.552 0 1-.447 1-1 0-.553-.448-1-1-1m2-4h-12c-.552 0-1 .447-1 1 0 .553.448 1 1 1h12c.552 0 1-.447 1-1 0-.553-.448-1-1-1m-4 8h-4c-.552 0-1 .447-1 1 0 .553.448 1 1 1h4c.552 0 1-.447 1-1 0-.553-.448-1-1-1m4.999 8h3.001v-3.001l-3.001 3.001" sketch:type="MSShapeGroup" fill="#3F4347"/></svg>