<svg width="14" height="14" viewBox="0 0 14 14" xmlns="http://www.w3.org/2000/svg" xmlns:sketch="http://www.bohemiancoding.com/sketch/ns"><title>greater-or-equal-to-dropdown</title><desc>Created with Sketch.</desc><path d="M9 10.01c0 .547-.443.99-.99.99h-5.02c-.547 0-.99-.443-.99-.99v-.02c0-.547.443-.99.99-.99h5.02c.547 0 .99.443.99.99v.02m-4-2.01c-.256 0-.512-.098-.707-.293-.391-.391-.391-1.023 0-1.414l1.293-1.293-1.293-1.293c-.391-.391-.391-1.023 0-1.414s1.023-.391 1.414 0l2 2c.391.391.391 1.023 0 1.414l-2 2c-.195.195-.451.293-.707.293m8 1.999v3.001h-3.001l3.001-3.001" sketch:type="MSShapeGroup" fill="#3F4347"/></svg>