<svg width="18" height="18" viewBox="0 0 18 18" xmlns="http://www.w3.org/2000/svg" xmlns:sketch="http://www.bohemiancoding.com/sketch/ns"><title>horiz-center-align</title><desc>Created with Sketch.</desc><path d="M4.5 4c-1.379 0-2.5 1.121-2.5 2.5v5c0 1.379 1.121 2.5 2.5 2.5s2.5-1.121 2.5-2.5v-5c0-1.379-1.121-2.5-2.5-2.5m4.5 4h-8.01c-.547 0-.99.443-.99.99v.02c0 .547.443.99.99.99h8.01v-2m8.01 0h-1.01v2h1.01c.547 0 .99-.443.99-.99v-.02c0-.547-.443-.99-.99-.99m-3.51-5c.275 0 .5.225.5.5v11c0 .275-.225.5-.5.5h-2c-.275 0-.5-.225-.5-.5v-11c0-.275.225-.5.5-.5h2m0-2h-2c-1.378 0-2.5 1.122-2.5 2.5v11c0 1.379 1.122 2.5 2.5 2.5h2c1.378 0 2.5-1.121 2.5-2.5v-11c0-1.378-1.122-2.5-2.5-2.5" sketch:type="MSShapeGroup" fill="#3F4347"/></svg>