<svg width="14" height="14" viewBox="0 0 14 14" xmlns="http://www.w3.org/2000/svg" xmlns:sketch="http://www.bohemiancoding.com/sketch/ns"><title>is-empty-dropdown</title><desc>Created with Sketch.</desc><path d="M6 1c-2.761 0-5 2.239-5 5s2.239 5 5 5 5-2.239 5-5-2.239-5-5-5zm0 2c.462 0 .894.114 1.285.301l-3.984 3.984c-.187-.391-.301-.823-.301-1.285 0-1.654 1.346-3 3-3zm0 6c-.462 0-.894-.113-1.285-.301l3.984-3.984c.187.391.301.823.301 1.285 0 1.654-1.346 3-3 3zm7 .999v3.001h-3.001l3.001-3.001" sketch:type="MSShapeGroup" fill="#3F4347"/></svg>