<svg width="18" height="18" viewBox="0 0 18 18" xmlns="http://www.w3.org/2000/svg" xmlns:sketch="http://www.bohemiancoding.com/sketch/ns"><title>left-arrow</title><desc>Created with Sketch.</desc><path d="M15 8h-9.565l3.331-3.289c.392-.388.396-1.021.008-1.414-.389-.393-1.021-.396-1.415-.008l-5.062 5c-.393.388-.397 1.021-.009 1.414l5 5.062c.196.198.454.297.712.297.254 0 .508-.096.703-.288.393-.388.397-1.021.009-1.414l-3.318-3.36h9.606c.553 0 1-.448 1-1s-.447-1-1-1" sketch:type="MSShapeGroup" fill="#3F4347"/></svg>