<svg width="18" height="18" viewBox="0 0 18 18" xmlns="http://www.w3.org/2000/svg" xmlns:sketch="http://www.bohemiancoding.com/sketch/ns"><title>load</title><desc>Created with Sketch.</desc><path d="M5.289 7.987c.604 0 .946.526.579 1l-2.268 4.286c-.309.485-.869.528-1.161.15l-2.268-4.436c-.367-.474-.025-1 .58-1h4.538m7.435 1.994c-.605 0-.948-.525-.58-1.001l2.268-4.286c.31-.485.868-.527 1.16-.149l2.269 4.435c.367.475.024 1.001-.58 1.001h-4.537m-7.895 4.615l1.434-1.435c.779.515 1.709.818 2.712.818 2.756 0 4.999-2.244 5-5.001h1.999c.001 3.861-3.14 7-6.999 6.999-1.555.001-2.985-.519-4.146-1.381m6.884-9.793c-.779-.515-1.708-.819-2.711-.818-2.758-.001-5 2.243-5 5h-2c0-3.859 3.141-7 7-7 1.555 0 2.983.521 4.146 1.383l-1.435 1.435" sketch:type="MSShapeGroup" fill="#3F4347"/></svg>