<svg width="18" height="18" viewBox="0 0 18 18" xmlns="http://www.w3.org/2000/svg" xmlns:sketch="http://www.bohemiancoding.com/sketch/ns"><title>menu</title><desc>Created with Sketch.</desc><path d="M17.01 3h-16.02c-.547 0-.99.443-.99.99v.02c0 .547.443.99.99.99h16.02c.547 0 .99-.443.99-.99v-.02c0-.547-.443-.99-.99-.99m0 10h-16.02c-.547 0-.99.443-.99.99v.02c0 .547.443.99.99.99h16.02c.547 0 .99-.443.99-.99v-.02c0-.547-.443-.99-.99-.99m0-5h-16.02c-.547 0-.99.443-.99.99v.02c0 .547.443.99.99.99h16.02c.547 0 .99-.443.99-.99v-.02c0-.547-.443-.99-.99-.99" sketch:type="MSShapeGroup" fill="#3F4347"/></svg>