<svg width="18" height="18" viewBox="0 0 18 18" xmlns="http://www.w3.org/2000/svg" xmlns:sketch="http://www.bohemiancoding.com/sketch/ns"><title>minimize</title><desc>Created with Sketch.</desc><path d="M.293 17.707c.391.391 1.023.391 1.414 0l4.293-4.293v3.586c0 .552.447 1 1 1 .553 0 1-.448 1-1v-6c0-.552-.447-1-1-1h-6c-.553 0-1 .448-1 1s.447 1 1 1h3.586l-4.293 4.293c-.391.391-.391 1.023 0 1.414m10.707-9.707h6c.553 0 1-.448 1-1s-.447-1-1-1h-3.586l4.293-4.293c.391-.391.391-1.023 0-1.414-.195-.195-.451-.293-.707-.293-.256 0-.512.098-.707.293l-4.293 4.293v-3.586c0-.552-.447-1-1-1-.553 0-1 .448-1 1v6c0 .552.447 1 1 1" sketch:type="MSShapeGroup" fill="#3F4347"/></svg>