<svg width="14" height="14" viewBox="0 0 14 14" xmlns="http://www.w3.org/2000/svg" xmlns:sketch="http://www.bohemiancoding.com/sketch/ns"><title>not-selected-dropdown</title><desc>Created with Sketch.</desc><path d="M7.5 3c.275 0 .5.225.5.5v4c0 .275-.225.5-.5.5h-4c-.275 0-.5-.225-.5-.5v-4c0-.275.225-.5.5-.5h4m0-2h-4c-1.379 0-2.5 1.121-2.5 2.5v4c0 1.379 1.121 2.5 2.5 2.5h4c1.379 0 2.5-1.121 2.5-2.5v-4c0-1.379-1.121-2.5-2.5-2.5m5.5 8.999v3.001h-3.001l3.001-3.001" sketch:type="MSShapeGroup" fill="#3F4347"/></svg>