<svg width="18" height="18" viewBox="0 0 18 18" xmlns="http://www.w3.org/2000/svg" xmlns:sketch="http://www.bohemiancoding.com/sketch/ns"><title>notes</title><desc>Created with Sketch.</desc><g sketch:type="MSLayerGroup" fill="#3F4347"><path d="M14 9.01c0 .547-.443.99-.99.99h-8.02c-.547 0-.99-.443-.99-.99v-.02c0-.547.443-.99.99-.99h8.02c.547 0 .99.443.99.99v.02m0 4c0 .547-.443.99-.99.99h-8.02c-.547 0-.99-.443-.99-.99v-.02c0-.547.443-.99.99-.99h8.02c.547 0 .99.443.99.99v.02" sketch:type="MSShapeGroup"/><path d="M14.5 2h-1.5v-1.01c0-.547-.443-.99-.99-.99h-.02c-.547 0-.99.443-.99.99v1.01h-4v-1.01c0-.547-.443-.99-.99-.99h-.02c-.547 0-.99.443-.99.99v1.01h-1.5c-1.379 0-2.5 1.121-2.5 2.5v11c0 1.378 1.121 2.5 2.5 2.5h11c1.378 0 2.5-1.122 2.5-2.5v-11c0-1.379-1.122-2.5-2.5-2.5zm.5 13.5c0 .275-.225.5-.5.5h-11c-.275 0-.5-.225-.5-.5v-11c0-.275.225-.5.5-.5h1.5v1.01c0 .547.443.99.99.99h.02c.547 0 .99-.443.99-.99v-1.01h4v1.01c0 .547.443.99.99.99h.02c.547 0 .99-.443.99-.99v-1.01h1.5c.275 0 .5.225.5.5v11z" sketch:type="MSShapeGroup"/></g></svg>