<svg width="18" height="18" viewBox="0 0 18 18" xmlns="http://www.w3.org/2000/svg" xmlns:sketch="http://www.bohemiancoding.com/sketch/ns"><title>output</title><desc>Created with Sketch.</desc><path d="M6.293 11.707c.391.391 1.023.391 1.414 0l6.293-6.293v3.586c0 .552.447 1 1 1 .553 0 1-.448 1-1v-6c0-.552-.447-1-1-1h-6c-.553 0-1 .448-1 1s.447 1 1 1h3.586l-6.293 6.293c-.391.391-.391 1.023 0 1.414m-2.768 2.392h-.002.002m11.485-2.099c-.547 0-.991.447-.991 1v.599c0 .389-.445.401-.496.401h-9.046c-.051 0-.495-.012-.495-.401v-9.099c0-.275.221-.5.495-.5h.533c.547 0 .99-.447.99-1 0-.553-.443-1-.99-1h-.533c-1.366 0-2.477 1.121-2.477 2.5v9.099c0 1.346 1.088 2.401 2.477 2.401h9.046c1.389 0 2.477-1.055 2.477-2.401v-.599c0-.553-.443-1-.99-1" sketch:type="MSShapeGroup" fill="#3F4347"/></svg>