<svg width="18" height="18" viewBox="0 0 18 18" xmlns="http://www.w3.org/2000/svg" xmlns:sketch="http://www.bohemiancoding.com/sketch/ns"><title>print</title><desc>Created with Sketch.</desc><path d="M14 1c0-.552-.447-1-1-1h-8c-.553 0-1 .448-1 1v3h10v-3m2 5h-14c-1.103 0-2 .897-2 2v5c0 1.103.897 2 2 2h1v-3.5c0-.828.672-1.5 1.5-1.5h9c.828 0 1.5.672 1.5 1.5v3.5h1c1.102 0 2-.897 2-2v-5c0-1.103-.898-2-2-2m-4 6h-6c-.553 0-1 .447-1 1v4c0 .552.447 1 1 1h6c.553 0 1-.448 1-1v-4c0-.553-.447-1-1-1" sketch:type="MSShapeGroup" fill="#3F4347"/></svg>