<svg width="18" height="18" viewBox="0 0 18 18" xmlns="http://www.w3.org/2000/svg" xmlns:sketch="http://www.bohemiancoding.com/sketch/ns"><title>right-arrow</title><desc>Created with Sketch.</desc><path d="M15.77 8.356l-.062-.063-5.001-5c-.391-.391-1.023-.391-1.414 0s-.391 1.023 0 1.414l3.293 3.293h-9.586c-.552 0-1 .448-1 1s.448 1 1 1h9.711l-3.356 3.355c-.39.391-.39 1.024 0 1.414.196.196.452.293.708.293.255 0 .511-.097.706-.293l5.001-5c.39-.39.39-1.023 0-1.413" sketch:type="MSShapeGroup" fill="#3F4347"/></svg>