<svg width="18" height="18" viewBox="0 0 18 18" xmlns="http://www.w3.org/2000/svg" xmlns:sketch="http://www.bohemiancoding.com/sketch/ns"><title>right-align</title><desc>Created with Sketch.</desc><path d="M6 4.5c0 1.379 1.121 2.5 2.5 2.5h4c1.379 0 2.5-1.121 2.5-2.5s-1.121-2.5-2.5-2.5h-4c-1.379 0-2.5 1.121-2.5 2.5m10-2.5v15.01c0 .547.443.99.99.99h.02c.547 0 .99-.443.99-.99v-15.01h-2m0-1.01v1.01h2v-1.01c0-.547-.443-.99-.99-.99h-.02c-.547 0-.99.443-.99.99m-3.5 10.01c.275 0 .5.225.5.5v2c0 .275-.225.5-.5.5h-10c-.275 0-.5-.225-.5-.5v-2c0-.275.225-.5.5-.5h10m0-2h-10c-1.379 0-2.5 1.121-2.5 2.5v2c0 1.378 1.121 2.5 2.5 2.5h10c1.378 0 2.5-1.122 2.5-2.5v-2c0-1.379-1.122-2.5-2.5-2.5" sketch:type="MSShapeGroup" fill="#3F4347"/></svg>