<svg width="14" height="14" viewBox="0 0 14 14" xmlns="http://www.w3.org/2000/svg" xmlns:sketch="http://www.bohemiancoding.com/sketch/ns"><title>selected</title><desc>Created with Sketch.</desc><path d="M7.063 10c-.254 0-.508-.096-.703-.288l-2.062-2.001c-.394-.388-.398-1.021-.009-1.413.388-.395 1.021-.398 1.413-.009l1.354 1.299 4.234-4.293c.392-.391 1.024-.393 1.415-.005.392.39.394 1.024.005 1.415l-4.937 5c-.197.196-.454.295-.71.295m4.937-2c-.552 0-1 .447-1 1v1.599c0 .389-.448.401-.5.401h-7c-.052 0-.5-.012-.5-.401v-7.099c0-.275.224-.5.5-.5h5.5c.552 0 1-.447 1-1 0-.553-.448-1-1-1h-5.5c-1.379 0-2.5 1.121-2.5 2.5v7.099c0 1.346 1.098 2.401 2.5 2.401h7c1.402 0 2.5-1.055 2.5-2.401v-1.599c0-.553-.448-1-1-1m-4.414-.901h-.001.001" sketch:type="MSShapeGroup" fill="#3F4347"/></svg>