<svg width="14" height="14" viewBox="0 0 14 14" xmlns="http://www.w3.org/2000/svg" xmlns:sketch="http://www.bohemiancoding.com/sketch/ns"><title>selected-dropdown</title><desc>Created with Sketch.</desc><path d="M7.062 8c-.253 0-.507-.096-.702-.288l-2.062-2.001c-.394-.388-.398-1.021-.009-1.413.388-.395 1.021-.398 1.413-.009l1.354 1.299 4.234-4.293c.392-.391 1.024-.393 1.415-.005.392.39.394 1.024.005 1.415l-4.937 5c-.197.196-.454.295-.711.295m1.938 2c0-.552-.448-1-1-1h-4.5c-.052 0-.5-.012-.5-.401v-5.099c0-.276.224-.5.5-.5h3.5c.552 0 1-.447 1-1 0-.553-.448-1-1-1h-3.5c-1.381 0-2.5 1.119-2.5 2.5v5.099c0 1.346 1.098 2.401 2.5 2.401h4.5c.552 0 1-.448 1-1m-1.414-2.901h-.001.001m5.414 2.9v3.001h-3.001l3.001-3.001" sketch:type="MSShapeGroup" fill="#3F4347"/></svg>