<svg width="18" height="18" viewBox="0 0 18 18" xmlns="http://www.w3.org/2000/svg" xmlns:sketch="http://www.bohemiancoding.com/sketch/ns"><title>send</title><desc>Created with Sketch.</desc><path d="M17 9c-.552 0-1 .447-1 1v5.599c0 .389-.449.401-.5.401h-13c-.051 0-.5-.012-.5-.401v-9.099c0-.275.224-.5.5-.5h1.5c.552 0 1-.447 1-1 0-.553-.448-1-1-1h-1.5c-1.378 0-2.5 1.121-2.5 2.5v9.099c0 1.346 1.098 2.401 2.5 2.401h13c1.402 0 2.5-1.055 2.5-2.401v-5.599c0-.553-.448-1-1-1m-10.414 2.099h-.001.001m0 0c.275 0 .5-.179.556-.415.551-2.343 2.131-3.536 4.858-3.9v1.393c0 .68.698 1.066 1.206.652l4.5-3.677c.404-.329.396-.975-.009-1.304l-4.487-3.678c-.507-.413-1.21-.027-1.21.653v1.58c-3.472.726-5.773 3.441-5.99 8.177-.012.281.254.519.576.519" sketch:type="MSShapeGroup" fill="#3F4347"/></svg>