<svg width="18" height="18" viewBox="0 0 18 18" xmlns="http://www.w3.org/2000/svg" xmlns:sketch="http://www.bohemiancoding.com/sketch/ns"><title>sort-up</title><desc>Created with Sketch.</desc><path d="M17.991 15.01c0 .547-.443.99-.99.99h-9.02c-.546 0-.99-.443-.99-.99v-.02c0-.547.444-.99.99-.99h9.02c.547 0 .99.443.99.99v.02m0-5c0 .547-.443.99-.99.99h-9.02c-.546 0-.99-.443-.99-.99v-.02c0-.547.444-.99.99-.99h9.02c.547 0 .99.443.99.99v.02m-.99-4.01h-6.01c-.547 0-1-.443-1-.99v-.02c0-.547.47-.99.99-.99h6.02c.547 0 .99.443.99.99v.02c0 .547-.443.99-.99.99m-9.738 0h-2.272v11c0 .553-.447 1-1 1-.552 0-1-.447-1-1v-11h-2.265c-.606 0-.948-.887-.58-1.361l3.267-4.329c.293-.378.868-.428 1.16-.05l3.27 4.403c.367.476.023 1.337-.58 1.337" sketch:type="MSShapeGroup" fill="#3F4347"/></svg>