<svg width="14" height="14" viewBox="0 0 14 14" xmlns="http://www.w3.org/2000/svg" xmlns:sketch="http://www.bohemiancoding.com/sketch/ns"><title>sort-a-to-z</title><desc>Created with Sketch.</desc><path d="M12.269 8h-1.269v-6c0-.553-.447-1-1-1-.553 0-1 .447-1 1v6h-1.269c-.604 0-.947.887-.579 1.361l2.268 3.329c.292.378.868.428 1.16.05l2.269-3.403c.367-.476.024-1.337-.58-1.337m-7.269-6h-3.5c-.276 0-.5-.224-.5-.5s.224-.5.5-.5h2.5c.552 0 1 .448 1 1m-3 3h3.5c.276 0 .5.224.5.5s-.224.5-.5.5h-3.5v-1m2-3h1v4h-1v-4zm0 3v1h-2c-.552 0-1-.448-1-1h3m0-2v1h-3c0-.552.448-1 1-1h2m-3 1h1v1h-1v-1zm5 5h-4.5c-.276 0-.5-.224-.5-.5s.224-.5.5-.5h3.5c.552 0 1 .448 1 1m-.5 4h-3.5c-.552 0-1-.448-1-1h4.5c.276 0 .5.224.5.5s-.224.5-.5.5m.354-4.146l-4 4-.708-.708 4-4 .708.708" sketch:type="MSShapeGroup" fill="#3F4347"/></svg>