<svg width="18" height="18" viewBox="0 0 18 18" xmlns="http://www.w3.org/2000/svg" xmlns:sketch="http://www.bohemiancoding.com/sketch/ns"><title>undo</title><desc>Created with Sketch.</desc><path d="M.999 15h10.001c2.757 0 5-2.243 5-5s-2.243-5-5-5h-5v1.269c0 .604-.554.947-1.055.58l-4.521-2.269c-.511-.31-.556-.868-.157-1.16l4.678-2.269c.501-.367 1.055-.024 1.055.58v1.269h5c3.86 0 7 3.141 7 7s-3.14 7-7 7h-10.001c-.552 0-.999-.447-.999-1 0-.553.447-1 .999-1" sketch:type="MSShapeGroup" fill="#3F4347"/></svg>