<svg width="18" height="18" viewBox="0 0 18 18" xmlns="http://www.w3.org/2000/svg" xmlns:sketch="http://www.bohemiancoding.com/sketch/ns"><title>user-profile</title><desc>Created with Sketch.</desc><path d="M9 0c-4.971 0-9 4.029-9 9s4.029 9 9 9 9-4.029 9-9-4.029-9-9-9zm2.501 7.052c0 1.379-1.118 2.5-2.5 2.5s-2.5-1.121-2.5-2.5c0-1.382 1.118-2.5 2.5-2.5s2.5 1.118 2.5 2.5zm-2.5 3.371c2.294 0 4.208 1.554 4.796 3.661-1.254 1.185-2.939 1.916-4.797 1.916-1.856 0-3.541-.731-4.795-1.914.588-2.109 2.501-3.663 4.796-3.663z" sketch:type="MSShapeGroup" fill="#3F4347"/></svg>