<svg width="18" height="18" viewBox="0 0 18 18" xmlns="http://www.w3.org/2000/svg" xmlns:sketch="http://www.bohemiancoding.com/sketch/ns"><title>vertical-middle-align</title><desc>Created with Sketch.</desc><path d="M14 4.5c0-1.379-1.121-2.5-2.5-2.5h-5c-1.379 0-2.5 1.121-2.5 2.5s1.121 2.5 2.5 2.5h5c1.379 0 2.5-1.121 2.5-2.5m-4 4.5v-8.01c0-.547-.443-.99-.99-.99h-.02c-.547 0-.99.443-.99.99v8.01h2m0 8.01v-1.01h-2v1.01c0 .547.443.99.99.99h.02c.547 0 .99-.443.99-.99m4.5-6.01c.275 0 .5.225.5.5v2c0 .275-.225.5-.5.5h-11c-.275 0-.5-.225-.5-.5v-2c0-.275.225-.5.5-.5h11m0-2h-11c-1.379 0-2.5 1.121-2.5 2.5v2c0 1.379 1.121 2.5 2.5 2.5h11c1.378 0 2.5-1.121 2.5-2.5v-2c0-1.379-1.122-2.5-2.5-2.5" sketch:type="MSShapeGroup" fill="#3F4347"/></svg>