<svg width="14" height="14" viewBox="0 0 14 14" xmlns="http://www.w3.org/2000/svg" xmlns:sketch="http://www.bohemiancoding.com/sketch/ns"><title>contains</title><desc>Created with Sketch.</desc><path d="M6 8v1.5c0 .276-.224.5-.5.5s-.5-.224-.5-.5v-4.5h1v2h2v-2h1v4.5c0 .276-.224.5-.5.5s-.5-.224-.5-.5v-1.5h-2zm3-3h-4c0-.552.448-1 1-1h2c.552 0 1 .448 1 1zm-5-2h-1c-.552 0-1 .448-1 1v6c0 .552.448 1 1 1h1v-1h-1v-6h1v-1zm6 0h1c.552 0 1 .448 1 1v6c0 .552-.448 1-1 1h-1v-1h1v-6h-1v-1z" sketch:type="MSShapeGroup" fill="#3D3D3D"/></svg>