<svg width="14" height="14" viewBox="0 0 14 14" xmlns="http://www.w3.org/2000/svg" xmlns:sketch="http://www.bohemiancoding.com/sketch/ns"><title>date-calendar</title><desc>Created with Sketch.</desc><path d="M11 3v-1.01c0-.547-.443-.99-.99-.99h-.02c-.547 0-.99.443-.99.99v1.01h-4v-1.01c0-.547-.443-.99-.99-.99h-.02c-.547 0-.99.443-.99.99v1.01c-1.378 0-2 .622-2 2v6c0 1.378.622 2 2 2h8c1.378 0 2-.622 2-2v-6c0-1.378-.622-2-2-2zm-8 4h8v4h-8v-4zm5 1h2v2h-2v-2z" sketch:type="MSShapeGroup" fill="#555"/></svg>