<svg width="14" height="14" viewBox="0 0 14 14" xmlns="http://www.w3.org/2000/svg" xmlns:sketch="http://www.bohemiancoding.com/sketch/ns"><title>doesn&apos;t-contain</title><desc>Created with Sketch.</desc><path d="M9.135 2.499l-4.615 7.964c-.277.478-.114 1.09.364 1.367.478.277 1.09.114 1.367-.364l4.615-7.964c.277-.478.114-1.09-.364-1.367-.478-.277-1.09-.114-1.367.364zm2.865 2.501c-.552 0-1 .448-1 1v5c-.552 0-1 .448-1 1s.448 1 1 1h1.003c.551 0 .997-.446.997-.997v-6.003c0-.552-.448-1-1-1zm-8-3h-1.003c-.551 0-.997.446-.997.997v6.003c0 .552.448 1 1 1s1-.448 1-1v-5c.552 0 1-.448 1-1s-.448-1-1-1z" sketch:type="MSShapeGroup" fill="#302E2E"/></svg>