<svg xmlns="http://www.w3.org/2000/svg" viewBox="0 0 28 18" enable-background="new 0 0 28 18"><style type="text/css">.st0{fill-rule:evenodd;clip-rule:evenodd;fill:#5C5C5C;} .st1{fill:#5C5C5C;}</style><g id="XMLID_4_"><path id="search_2_" class="st0" d="M7 12c-2.8 0-5-2.2-5-5s2.2-5 5-5 5 2.2 5 5-2.2 5-5 5zm10.7 4.3l-5.1-5.1c.9-1.2 1.4-2.6 1.4-4.2 0-3.9-3.1-7-7-7s-7 3.1-7 7 3.1 7 7 7c1.6 0 3-.5 4.2-1.4l5.1 5.1c.2.2.5.3.7.3s.5-.1.7-.3c.4-.4.4-1 0-1.4z"/><path id="XMLID_1_" class="st1" d="M18 6h10l-5 5z"/></g></svg>