<svg width="14" height="14" viewBox="0 0 14 14" xmlns="http://www.w3.org/2000/svg" xmlns:xlink="http://www.w3.org/1999/xlink"><title>audio</title><desc>Created with Sketch.</desc><defs><path id="a" d="M2.973 10v-9.999h-2.973v9.999h2.973z"/></defs><g fill="none"><path d="M7.433.161l-3.433 3.841-1.5-.001c-1.375 0-2.5 1.125-2.5 2.5v1c0 1.375 1.125 2.5 2.5 2.5l1.5.001 3.433 3.838c.666.428 1.541-.05 1.541-.841v-11.997c0-.791-.875-1.269-1.541-.841" fill="#5C5D5D"/><g transform="translate(11 2)"><mask id="b"><use xlink:href="#a"/></mask><path d="M.999 10c-.166 0-.335-.041-.491-.129-.481-.271-.65-.882-.379-1.363 1.877-3.323.004-7.007-.015-7.044-.254-.489-.065-1.093.423-1.349.486-.255 1.09-.07 1.348.418.099.189 2.408 4.669-.014 8.959-.184.325-.523.508-.872.508" fill="#5C5D5D" mask="url(#b)"/></g></g></svg>