<svg width="14" height="14" viewBox="0 0 14 14" xmlns="http://www.w3.org/2000/svg" xmlns:xlink="http://www.w3.org/1999/xlink"><title>expenses</title><desc>Created with Sketch.</desc><defs><path id="a" d="M5.5 14h-5.5v-14h11v14h-5.5z"/></defs><g transform="translate(2)" fill="none"><mask id="b"><use xlink:href="#a"/></mask><path d="M8.01 8h-3.01c-.547 0-.99-.443-.99-.99l-.01-.01c0-.547.453-1 1-1h3.01c.547 0 .99.443.99.99v.02c0 .547-.443.99-.99.99m-6.01-4.99v-.01c0-.547.444-1 .99-1h5.02c.547 0 .99.443.99.99v.02c0 .547-.443.99-.99.99h-5.02c-.546 0-.99-.443-.99-.99m6.5-3.01h-6c-1.378 0-2.5 1.122-2.5 2.5v10.51c0 .547.444.99.99.99h.02c.547 0 .99-.443.99-.99v-1.061c.162.033.329.051.5.051h.5v1.01c0 .547.444.99.99.99h.02c.547 0 .99-.443.99-.99v-1.01h1v1.01c0 .547.444.99.99.99h.02c.547 0 .99-.443.99-.99v-1.01h.5c.171 0 .339-.018.5-.051v1.061c0 .547.444.99.99.99h.02c.547 0 .99-.443.99-.99v-10.51c0-1.378-1.121-2.5-2.5-2.5" fill="#5C5D5D" mask="url(#b)"/></g></svg>