<svg width="14" height="14" viewBox="0 0 14 14" xmlns="http://www.w3.org/2000/svg"><title>pdf</title><desc>Created with Sketch.</desc><path d="M7 12h1v-3.001h-1v3.001zm-4-2h1v-1.001h-1v1.001zm10-1h-2v1h1v1h-1v2h-1v-5h3v1zm-4 3c0 .552-.448 1-1 1h-2v-5h2c.552 0 1 .448 1 1v3zm-4-3v2h-2v2h-1v-5h3v1zm-2-6.5c0-.276.224-.5.5-.5h4.5v2c0 .55.45 1 1 1h3v2h-8.5c-.276 0-.5-.224-.5-.5v-4zm10.414.914l-2.828-2.828c-.375-.375-.884-.586-1.414-.586h-5.672c-1.381 0-2.5 1.119-2.5 2.5v9c0 1.381 1.119 2.5 2.5 2.5h8c1.381 0 2.5-1.119 2.5-2.5v-6.672c0-.53-.211-1.039-.586-1.414z" fill="#5C5D5D"/></svg>