<svg width="14" height="14" viewBox="0 0 14 14" xmlns="http://www.w3.org/2000/svg" xmlns:xlink="http://www.w3.org/1999/xlink"><title>text</title><desc>Created with Sketch.</desc><defs><path id="a" d="M2 0h-2v4h2v-4z"/><path id="c" d="M2 0h-2v4h2v-4z"/></defs><g fill="none"><path d="M11.5 1h-9c-1.379 0-2.5 1.122-2.5 2.5v8c0 1.378 1.121 2.5 2.5 2.5h9c1.378 0 2.5-1.122 2.5-2.5v-8c0-1.378-1.122-2.5-2.5-2.5m0 2c.275 0 .5.225.5.5v8c0 .275-.225.5-.5.5h-9c-.275 0-.5-.225-.5-.5v-8c0-.275.225-.5.5-.5h9" fill="#5C5D5D"/><path d="M10 7.01c0 .547-.443.99-.99.99h-4.02c-.547 0-.99-.443-.99-.99v-.02c0-.546.443-.99.99-.99h4.02c.547 0 .99.444.99.99v.02zm0 3c0 .547-.443.99-.99.99h-4.02c-.547 0-.99-.443-.99-.99v-.02c0-.546.443-.99.99-.99h4.02c.547 0 .99.444.99.99v.02z" fill="#5C5D5D"/><g transform="translate(8)"><mask id="b"><use xlink:href="#a"/></mask><path d="M2 3.01c0 .547-.443.99-.99.99h-.02c-.547 0-.99-.443-.99-.99v-2.02c0-.546.443-.99.99-.99h.02c.547 0 .99.444.99.99v2.02z" fill="#5C5D5D" mask="url(#b)"/></g><g transform="translate(4)"><mask id="d"><use xlink:href="#c"/></mask><path d="M2 3.01c0 .547-.443.99-.99.99h-.02c-.547 0-.99-.443-.99-.99v-2.02c0-.546.443-.99.99-.99h.02c.547 0 .99.444.99.99v2.02z" fill="#5C5D5D" mask="url(#d)"/></g></g></svg>