<?xml version="1.0" encoding="utf-8"?>
<!-- Generator: Adobe Illustrator 16.0.0, SVG Export Plug-In . SVG Version: 6.00 Build 0)  -->
<!DOCTYPE svg PUBLIC "-//W3C//DTD SVG 1.1//EN" "http://www.w3.org/Graphics/SVG/1.1/DTD/svg11.dtd">
<svg version="1.1" id="Layer_1" xmlns="http://www.w3.org/2000/svg" xmlns:xlink="http://www.w3.org/1999/xlink" x="0px" y="0px"
	 width="32px" height="32px" viewBox="0 0 32 32" enable-background="new 0 0 32 32" xml:space="preserve">
<g>
	<path fill="#FFFFFF" d="M21.484,31.971H10.516c-0.546,0-0.99-0.444-0.99-0.991v-2.978c0-0.546,0.444-0.991,0.99-0.991h0.922
		c-0.374-3.066-3.673-6.299-3.708-6.333l-0.312-0.302l0.221-0.373c4.75-8.054,6.924-14.37,7.557-16.402H6.258v1.108
		c0,0.547-0.444,0.991-0.991,0.991h-3.69c-0.546,0-0.99-0.444-0.99-0.991V1.02c0-0.546,0.444-0.99,0.99-0.99h3.69
		c0.547,0,0.991,0.444,0.991,0.99V2.5h19.484V1.02c0-0.546,0.443-0.99,0.99-0.99h3.689c0.547,0,0.99,0.444,0.99,0.99v3.689
		c0,0.547-0.443,0.991-0.99,0.991h-3.689c-0.547,0-0.99-0.444-0.99-0.991V3.601h-9.006c0.635,2.032,2.809,8.349,7.559,16.402
		l0.221,0.373l-0.312,0.301c-0.035,0.034-3.334,3.272-3.709,6.334h0.99c0.545,0,0.99,0.445,0.99,0.991v2.978
		C22.475,31.526,22.029,31.971,21.484,31.971z M10.625,30.87h10.75v-2.759h-10.75V30.87z M12.544,27.011h6.845
		c0.297-2.944,2.848-5.868,3.744-6.812c-3.42-5.856-5.49-10.785-6.602-13.805v9.607c1.123,0.252,1.965,1.256,1.965,2.453
		c0,1.387-1.129,2.514-2.515,2.514s-2.514-1.127-2.514-2.514c0-1.197,0.841-2.201,1.963-2.453v-9.69
		c-1.104,3.012-3.18,7.978-6.632,13.888C9.696,21.143,12.248,24.066,12.544,27.011z M15.981,17.04c-0.78,0-1.414,0.635-1.414,1.414
		c0,0.78,0.634,1.414,1.414,1.414c0.78,0,1.413-0.634,1.413-1.414C17.395,17.675,16.762,17.04,15.981,17.04z M26.842,4.6h3.471
		V1.129h-3.471V4.6z M1.688,4.6h3.47V1.129h-3.47V4.6z"/>
</g>
</svg>
