<svg width="14" height="14" viewBox="0 0 14 14" xmlns="http://www.w3.org/2000/svg" xmlns:sketch="http://www.bohemiancoding.com/sketch/ns"><title>tree-link</title><desc>Created with Sketch.</desc><path d="M5 12h-.5c-2.482 0-4.5-2.019-4.5-4.5v-1c0-2.481 2.018-4.5 4.5-4.5h.5c.552 0 1 .447 1 1 0 .553-.448 1-1 1h-.5c-1.379 0-2.5 1.121-2.5 2.5v1c0 1.379 1.121 2.5 2.5 2.5h.5c.552 0 1 .447 1 1 0 .553-.448 1-1 1m4.5 0h-.5c-.552 0-1-.447-1-1 0-.553.448-1 1-1h.5c1.378 0 2.5-1.121 2.5-2.5v-1c0-1.379-1.122-2.5-2.5-2.5h-.5c-.552 0-1-.447-1-1 0-.553.448-1 1-1h.5c2.481 0 4.5 2.019 4.5 4.5v1c0 2.481-2.019 4.5-4.5 4.5m-.5-4h-4c-.55 0-1-.45-1-1s.45-1 1-1h4c.55 0 1 .45 1 1s-.45 1-1 1" sketch:type="MSShapeGroup" fill="#5C5C5C"/></svg>