<svg width="14" height="14" viewBox="0 0 14 14" xmlns="http://www.w3.org/2000/svg" xmlns:xlink="http://www.w3.org/1999/xlink" xmlns:sketch="http://www.bohemiancoding.com/sketch/ns"><title>tree-rar</title><desc>Created with Sketch.</desc><defs><path id="a" d="M0 0h13v14h-13v-14z"/></defs><g sketch:type="MSLayerGroup" transform="translate(1)" fill="none"><path d="M12 11h-1l1 2h-1l-1-2v2h-1v-5h3v3zm-4 2h-1v-2h-1v2h-1v-4h1v-1h1v1h1v4zm-4-2h-1l1 2h-1l-1-2v2h-1v-5h3v3zm-2-8.5c0-.276.224-.5.5-.5h4.5v2c0 .55.45 1 1 1h3v2h-9v-4.5zm10.414.914l-2.828-2.828c-.375-.375-.884-.586-1.414-.586h-5.672c-1.381 0-2.5 1.119-2.5 2.5v9c0 1.381 1.119 2.5 2.5 2.5h8c1.381 0 2.5-1.119 2.5-2.5v-6.672c0-.53-.211-1.039-.586-1.414z" fill="#5C5C5D" sketch:type="MSShapeGroup"/><mask id="b" sketch:name="Clip 4"><use xlink:href="#a"/></mask><path d="M7 9h-1v1h1v-1zm-5 1h1v-1h-1v1zm8 0h1v-1h-1v1z" fill="#5C5C5D" sketch:type="MSShapeGroup" mask="url(#b)"/></g></svg>