<svg width="14" height="14" viewBox="0 0 14 14" xmlns="http://www.w3.org/2000/svg" xmlns:xlink="http://www.w3.org/1999/xlink" xmlns:sketch="http://www.bohemiancoding.com/sketch/ns"><title>tree-audio</title><desc>Created with Sketch.</desc><defs><path id="a" d="M0 0h13.973v14h-13.973"/><path id="c" d="M0 0h13.973v14h-13.973"/></defs><g sketch:type="MSLayerGroup" fill="none"><mask id="b" sketch:name="Clip 2"><use xlink:href="#a"/></mask><path d="M7.433.161l-3.433 3.841-1.5-.001c-1.375 0-2.5 1.125-2.5 2.5v1c0 1.375 1.125 2.5 2.5 2.5l1.5.001 3.433 3.838c.666.428 1.541-.05 1.541-.841v-11.997c0-.791-.875-1.269-1.541-.841" fill="#5C5C5C" sketch:type="MSShapeGroup" mask="url(#b)"/><mask id="d" sketch:name="Clip 5"><use xlink:href="#c"/></mask><path d="M11.999 12c-.167 0-.335-.041-.491-.129-.481-.271-.65-.882-.379-1.363 1.877-3.323.004-7.007-.015-7.044-.254-.489-.065-1.093.423-1.349.486-.255 1.09-.07 1.348.418.099.189 2.408 4.669-.014 8.959-.184.325-.523.508-.872.508" fill="#5C5C5C" sketch:type="MSShapeGroup" mask="url(#d)"/></g></svg>