<svg width="14" height="14" viewBox="0 0 14 14" xmlns="http://www.w3.org/2000/svg" xmlns:sketch="http://www.bohemiancoding.com/sketch/ns"><title>tree-document</title><desc>Created with Sketch.</desc><path d="M11 11.5c0 .276-.224.5-.5.5h-7c-.276 0-.5-.224-.5-.5v-9c0-.276.224-.5.5-.5h3.5v3c0 .55.45 1 1 1h3v5.5zm1.414-8.086l-2.828-2.828c-.375-.375-.884-.586-1.415-.586h-4.671c-1.378 0-2.5 1.121-2.5 2.5v9c0 1.379 1.122 2.5 2.5 2.5h7c1.378 0 2.5-1.121 2.5-2.5v-6.672c0-.53-.211-1.039-.586-1.414z" sketch:type="MSShapeGroup" fill="#5C5C5C"/></svg>