<svg width="14" height="14" viewBox="0 0 14 14" xmlns="http://www.w3.org/2000/svg" xmlns:sketch="http://www.bohemiancoding.com/sketch/ns"><title>tree-open-folder</title><desc>Created with Sketch.</desc><path d="M13 4c0-1.104-.895-2-2-2h-4.438l-.846-1.078c-.362-.603-1.013-.922-1.716-.922h-1c-1.105 0-2 .896-2 2v3h12v-1zm-13 4c0-.552.448-1 1-1h12c.552 0 1 .448 1 1l-1.264 4.992c-.356.623-1.018 1.008-1.736 1.008h-8c-.8 0-1.523-.477-1.838-1.212l-1.162-4.788z" sketch:type="MSShapeGroup" fill="#5C5C5C"/></svg>