<svg width="14" height="14" viewBox="0 0 14 14" xmlns="http://www.w3.org/2000/svg" xmlns:xlink="http://www.w3.org/1999/xlink" xmlns:sketch="http://www.bohemiancoding.com/sketch/ns"><title>tree-chart</title><desc>Created with Sketch.</desc><defs><path id="a" d="M0 .355h13.645v13.645h-13.645"/></defs><g sketch:type="MSLayerGroup" fill="none"><mask id="b" sketch:name="Clip 2"><use xlink:href="#a"/></mask><path d="M11.631 12.237c.094-.069.182-.157.251-.251 3.582-4.877 1.243-10.096-2.879-11.57-.66-.236-1.358.239-1.358.939v5.645c0 .553-.448 1-1 1h-5.645c-.7 0-1.175.699-.939 1.358 1.473 4.123 6.692 6.461 11.57 2.879" fill="#5C5C5D" sketch:type="MSShapeGroup" mask="url(#b)"/><path d="M4.276.42c-1.956.704-3.506 2.254-4.21 4.21-.239.664.228 1.37.933 1.37h3.646c.553 0 1-.448 1-1v-3.646c0-.706-.705-1.173-1.369-.934" fill="#5C5C5D" sketch:type="MSShapeGroup"/></g></svg>