<svg width="14" height="14" viewBox="0 0 14 14" xmlns="http://www.w3.org/2000/svg" xmlns:sketch="http://www.bohemiancoding.com/sketch/ns"><title>tree-vis</title><desc>Created with Sketch.</desc><path d="M13 9h-2v1h1c.552 0 1 .448 1 1v1c0 .552-.448 1-1 1h-2v-1h2v-1h-1c-.552 0-1-.448-1-1v-1c0-.552.448-1 1-1h2v1zm-4 0h-1v3h1v1h-3v-1h1v-3h-1v-1h3v1zm-4 3h-1v1h-1v-1h-1v-4h1v3h1v-3h1v4zm-2-9.5c0-.276.224-.5.5-.5h4.5v2c0 .55.45 1 1 1h3v2h-9v-4.5zm10.414.914l-2.828-2.828c-.375-.375-.884-.586-1.414-.586h-5.672c-1.381 0-2.5 1.119-2.5 2.5v9c0 1.381 1.119 2.5 2.5 2.5h8c1.381 0 2.5-1.119 2.5-2.5v-6.672c0-.53-.211-1.039-.586-1.414z" sketch:type="MSShapeGroup" fill="#5C5C5D"/></svg>