<svg width="14" height="14" viewBox="0 0 14 14" xmlns="http://www.w3.org/2000/svg" xmlns:xlink="http://www.w3.org/1999/xlink" xmlns:sketch="http://www.bohemiancoding.com/sketch/ns"><title>tree-jpg</title><desc>Created with Sketch.</desc><defs><path id="a" d="M0 0h13v14h-13v-14z"/></defs><g sketch:type="MSLayerGroup" transform="translate(1)" fill="none"><path d="M11 12v-2h1v2c0 .552-.448 1-1 1h-1c-.552 0-1-.448-1-1v-3c0-.552.448-1 1-1h1c.552 0 1 .448 1 1h-2v3h1zm-3-1h-2v2h-1v-5h3v3zm-4 1h-1v1h-1v-1h-1v-1h1v1h1v-4h1v4zm-2-9.5c0-.276.224-.5.5-.5h4.5v2c0 .55.45 1 1 1h3v2h-9v-4.5zm10.414.914l-2.828-2.828c-.375-.375-.884-.586-1.414-.586h-5.672c-1.381 0-2.5 1.119-2.5 2.5v9c0 1.381 1.119 2.5 2.5 2.5h8c1.381 0 2.5-1.119 2.5-2.5v-6.672c0-.53-.211-1.039-.586-1.414z" fill="#5C5C5D" sketch:type="MSShapeGroup"/><mask id="b" sketch:name="Clip 4"><use xlink:href="#a"/></mask><path d="M7 10h-1v-1h1v1z" fill="#5C5C5D" sketch:type="MSShapeGroup" mask="url(#b)"/></g></svg>