<svg width="14" height="14" viewBox="0 0 14 14" xmlns="http://www.w3.org/2000/svg" xmlns:xlink="http://www.w3.org/1999/xlink" xmlns:sketch="http://www.bohemiancoding.com/sketch/ns"><title>tree-code</title><desc>Created with Sketch.</desc><defs><path id="a" d="M0 0h14v14h-14"/><path id="c" d="M0 0h14v14h-14"/></defs><g sketch:type="MSLayerGroup" fill="none"><mask id="b" sketch:name="Clip 2"><use xlink:href="#a"/></mask><path d="M3 10c-.256 0-.512-.098-.707-.293l-2-2c-.391-.391-.391-1.023 0-1.414l2-2c.391-.391 1.023-.391 1.414 0s.391 1.023 0 1.414l-1.293 1.293 1.293 1.293c.391.391.391 1.023 0 1.414-.195.195-.451.293-.707.293" fill="#5C5C5C" sketch:type="MSShapeGroup" mask="url(#b)"/><mask id="d" sketch:name="Clip 5"><use xlink:href="#c"/></mask><path d="M11 10c-.256 0-.512-.098-.707-.293-.391-.391-.391-1.023 0-1.414l1.293-1.293-1.293-1.293c-.391-.391-.391-1.023 0-1.414s1.023-.391 1.414 0l2 2c.391.391.391 1.023 0 1.414l-2 2c-.195.195-.451.293-.707.293" fill="#5C5C5C" sketch:type="MSShapeGroup" mask="url(#d)"/><path d="M6.001 14l-.166-.014c-.544-.09-.912-.606-.821-1.15l2-12c.091-.545.603-.913 1.151-.822.544.09.912.606.821 1.15l-2 12c-.081.489-.505.836-.985.836" fill="#5C5C5C" sketch:type="MSShapeGroup"/></g></svg>