<svg width="14" height="14" viewBox="0 0 14 14" xmlns="http://www.w3.org/2000/svg" xmlns:xlink="http://www.w3.org/1999/xlink" xmlns:sketch="http://www.bohemiancoding.com/sketch/ns"><title>tree-image</title><desc>Created with Sketch.</desc><defs><path id="a" d="M0 0h14v14h-14"/></defs><g sketch:type="MSLayerGroup" fill="none"><mask id="b" sketch:name="Clip 2"><use xlink:href="#a"/></mask><path d="M2.477 2h9.047c.051 0 .495.012.495.401l-.019 7.599-1.981-2-2 2-3.019-3-3 3-.018-7.5c0-.275.221-.5.495-.5m9.047-2h-9.047c-1.389 0-2.477 1.055-2.477 2.401v9.198c0 1.346 1.088 2.401 2.477 2.401h9.047c1.389 0 2.476-1.055 2.476-2.401v-9.198c0-1.346-1.087-2.401-2.476-2.401" fill="#5C5C5C" sketch:type="MSShapeGroup" mask="url(#b)"/><path d="M10 4.5c0-.828-.672-1.5-1.5-1.5s-1.5.672-1.5 1.5.672 1.5 1.5 1.5 1.5-.672 1.5-1.5" fill="#5C5C5C" sketch:type="MSShapeGroup"/></g></svg>