<svg width="14" height="14" viewBox="0 0 14 14" xmlns="http://www.w3.org/2000/svg" xmlns:xlink="http://www.w3.org/1999/xlink" xmlns:sketch="http://www.bohemiancoding.com/sketch/ns"><title>tree-text</title><desc>Created with Sketch.</desc><defs><path id="a" d="M0 0h14v14h-14v-14z"/><path id="c" d="M0 0h14v14h-14v-14z"/></defs><g sketch:type="MSLayerGroup" fill="none"><path d="M11.5 1h-9c-1.379 0-2.5 1.121-2.5 2.5v8c0 1.379 1.121 2.5 2.5 2.5h9c1.379 0 2.5-1.121 2.5-2.5v-8c0-1.379-1.121-2.5-2.5-2.5m0 2c.275 0 .5.225.5.5v8c0 .275-.225.5-.5.5h-9c-.275 0-.5-.225-.5-.5v-8c0-.275.225-.5.5-.5h9" fill="#5C5C5C" sketch:type="MSShapeGroup"/><path d="M11 7.01c0 .547-.443.99-.99.99h-6.02c-.547 0-.99-.443-.99-.99v-.02c0-.546.443-.99.99-.99h6.02c.547 0 .99.444.99.99v.02zm0 3c0 .547-.443.99-.99.99h-6.02c-.547 0-.99-.443-.99-.99v-.02c0-.546.443-.99.99-.99h6.02c.547 0 .99.444.99.99v.02z" fill="#5C5C5C" sketch:type="MSShapeGroup"/><mask id="b" sketch:name="Clip 8"><use xlink:href="#a"/></mask><path d="M10 3.01c0 .547-.443.99-.99.99h-.02c-.547 0-.99-.443-.99-.99v-2.02c0-.546.443-.99.99-.99h.02c.547 0 .99.444.99.99v2.02z" fill="#5C5C5C" sketch:type="MSShapeGroup" mask="url(#b)"/><mask id="d" sketch:name="Clip 11"><use xlink:href="#c"/></mask><path d="M6 3.01c0 .547-.443.99-.99.99h-.02c-.547 0-.99-.443-.99-.99v-2.02c0-.546.443-.99.99-.99h.02c.547 0 .99.444.99.99v2.02z" fill="#5C5C5C" sketch:type="MSShapeGroup" mask="url(#d)"/></g></svg>