<svg width="14" height="14" viewBox="0 0 14 14" xmlns="http://www.w3.org/2000/svg" xmlns:sketch="http://www.bohemiancoding.com/sketch/ns"><title>tree-zip</title><desc>Created with Sketch.</desc><path d="M9 10h-4v-2h4v2zm4.414-6.586l-2.828-2.828c-.375-.375-.884-.586-1.414-.586h-2.172v1h2v1h-2v1h2v1h-2v1h2v1h-2v1h-2v-1h2v-1h-2v-1h2v-1h-2v-1h2v-1h-2v-1h-1.5c-1.381 0-2.5 1.119-2.5 2.5v9c0 1.381 1.119 2.5 2.5 2.5h8c1.381 0 2.5-1.119 2.5-2.5v-6.672c0-.53-.211-1.039-.586-1.414z" sketch:type="MSShapeGroup" fill="#5C5C5C"/></svg>