<svg width="14" height="14" viewBox="0 0 14 14" xmlns="http://www.w3.org/2000/svg" xmlns:xlink="http://www.w3.org/1999/xlink" xmlns:sketch="http://www.bohemiancoding.com/sketch/ns"><title>tree-video</title><desc>Created with Sketch.</desc><defs><path id="a" d="M0 0h14v14h-14v-14z"/></defs><g sketch:type="MSLayerGroup" fill="none"><mask id="b" sketch:name="Clip 2"><use xlink:href="#a"/></mask><path d="M12.009 7l-.009 4h.018l.001.599c0 .389-.444.401-.495.401h-9.047c-.274 0-.495-.225-.495-.5l.001-.5h.017l-.008-4 .008-4h-.017l-.001-.5c0-.275.221-.5.495-.5h9.047c.051 0 .495.012.495.401l-.001.599h-.018l.009 4zm-.485-7h-9.047c-1.389 0-2.477 1.055-2.477 2.401v9.198c0 1.346 1.088 2.401 2.477 2.401h9.047c1.389 0 2.476-1.055 2.476-2.401v-9.198c0-1.346-1.087-2.401-2.476-2.401z" fill="#5C5C5C" sketch:type="MSShapeGroup" mask="url(#b)"/><path d="M5 4.883v4.234c0 .388.424.629.757.429l3.528-2.117c.324-.195.324-.664 0-.858l-3.528-2.117c-.333-.2-.757.04-.757.429" fill="#5C5C5C" sketch:type="MSShapeGroup"/></g></svg>