<svg xmlns="http://www.w3.org/2000/svg" width="32" height="32" viewBox="0 0 32 32"><path fill="#fff" d="M31.873 4.306c0-.887-.343-1.717-.968-2.341l-.896-.898c-1.291-1.29-3.392-1.289-4.683 0l-4.651 4.651-.211-.211c-.482-.481-1.327-.482-1.808 0l-.878.878c-.24.239-.373.561-.373.903 0 .34.133.663.373.902l.539.539-17.503 17.506-.24.24.154.309c.04.078.975 1.966-.269 3.21l-.332.335 1.672 1.671.333-.332c.331-.329.847-.499 1.539-.499.908 0 1.769.299 1.777.301l.28.1 17.713-17.715.746.747c.239.24.562.374.904.374.341 0 .662-.133.901-.374l.88-.877c.24-.242.373-.562.373-.904 0-.341-.133-.662-.373-.903l-.617-.617 4.649-4.653c.626-.625.969-1.456.969-2.342zm-15.69 15.475l-1.896-1.896-12.612 12.659-.24-.241c.992-1.333.537-2.947.272-3.629l17.025-17.028 3.795 3.792-6.344 6.343zm10.023-6.724l-.876.878c-.064.062-.148.096-.238.096-.092 0-.176-.034-.238-.096l-6.409-6.41c-.062-.063-.098-.148-.098-.237 0-.091.036-.175.098-.238l.878-.877c.062-.063.147-.098.237-.098s.176.035.236.098l6.41 6.411c.062.062.099.146.099.236s-.037.174-.099.237zm-.617-2.425l-4.247-4.248 4.649-4.651c.924-.923 2.427-.923 3.351 0l.898.899c.445.445.69 1.039.69 1.674s-.245 1.231-.69 1.675l-4.651 4.651z"/></svg>