<svg xmlns="http://www.w3.org/2000/svg" width="32" height="32" viewBox="0 0 32 32"><path fill="#fff" d="M16.067 18.598c.592 0 1.168-.209 1.623-.586.522-.435.845-1.045.909-1.721.062-.677-.142-1.338-.576-1.86-.484-.584-1.199-.918-1.959-.918-.59 0-1.166.208-1.621.585-1.079.896-1.228 2.502-.333 3.58.485.584 1.199.92 1.957.92zm-1.055-3.816c.296-.245.67-.38 1.053-.38.495 0 .959.217 1.274.597.282.34.414.77.374 1.208-.041.439-.251.836-.591 1.118-.296.247-.671.382-1.055.382-.493 0-.956-.218-1.271-.598-.582-.701-.485-1.744.216-2.327zm-5.02 12.952l10.702-9.331 1.313-14.138-10.701 9.331-1.314 14.138zm10.923-21.335l-1.075 11.568-8.755 7.635 1.075-11.568 8.755-7.635zm-4.914-6.274c-8.754 0-15.875 7.122-15.875 15.875 0 8.751 7.121 15.875 15.875 15.875 8.752 0 15.873-7.123 15.873-15.875 0-8.753-7.121-15.875-15.873-15.875zm0 30.859c-8.264 0-14.985-6.722-14.985-14.984 0-8.263 6.722-14.985 14.985-14.985 8.261 0 14.983 6.722 14.983 14.985 0 8.262-6.722 14.984-14.983 14.984z"/></svg>