<svg xmlns="http://www.w3.org/2000/svg" width="32" height="32" viewBox="0 0 32 32"><path fill="#fff" d="M28.432 30.553h-24.848c-1.495 0-2.629-.533-3.195-1.5-.566-.967-.475-2.219.257-3.521l12.396-22.056c.735-1.309 1.748-2.029 2.851-2.029 1.097 0 2.11.714 2.849 2.011l12.598 22.087c.741 1.299.841 2.545.279 3.512-.559.964-1.692 1.496-3.187 1.496zm-12.539-28.214c-.766 0-1.503.559-2.074 1.574l-12.395 22.056c-.57 1.016-.665 1.951-.265 2.633.4.684 1.261 1.059 2.425 1.059h24.847c1.163 0 2.021-.373 2.416-1.053.395-.678.294-1.609-.282-2.621l-12.597-22.087c-.574-1.007-1.312-1.561-2.075-1.561zm-.42 18.882l-.498-10.627h2.067l-.498 10.627h-1.071zm.535 1.588c-.678 0-1.228.549-1.228 1.227s.55 1.227 1.228 1.227 1.228-.549 1.228-1.227-.55-1.227-1.228-1.227z"/></svg>