<svg xmlns="http://www.w3.org/2000/svg" width="32" height="32" viewBox="0 0 32 32"><path fill="#fff" d="M30.951 3.309v25.382h-29.902v-25.382h29.902m1-1h-31.902v27.382h31.902v-27.382zm-21.84 5.734h1.504l5.383 14.148h-1.425l-1.642-4.452h-6.155l-1.662 4.452h-1.345l5.342-14.148zm3.424 8.607l-1.939-5.283-.248-.653c-.086-.237-.162-.461-.228-.673l-.237-.732h-.04l-.238.712-.217.673-.238.672-1.978 5.284h5.363zm7.42 5.779c-.475 0-.918-.06-1.326-.178-.408-.119-.762-.297-1.059-.534s-.531-.534-.703-.891c-.17-.356-.256-.771-.256-1.247 0-.606.111-1.101.336-1.483s.527-.689.91-.92c.383-.231.828-.406 1.336-.525.508-.118 1.051-.21 1.633-.277.5-.052.926-.108 1.275-.168s.633-.135.852-.228c.217-.092.375-.214.475-.366.1-.151.148-.359.148-.623v-.198c0-.699-.211-1.217-.633-1.553s-1.029-.504-1.82-.504c-1.82 0-2.777.759-2.869 2.275h-1.207c.064-.989.432-1.781 1.098-2.375s1.658-.891 2.979-.891c1.121 0 2.004.248 2.65.742s.971 1.303.971 2.424v5.56c0 .304.055.524.168.663.111.139.279.215.504.228l.209-.02.246-.06h.061v.891l-.338.108c-.131.033-.297.05-.494.05-.449 0-.805-.116-1.068-.347s-.408-.597-.436-1.098v-.218h-.059c-.146.197-.32.402-.525.613s-.451.402-.742.574c-.289.171-.627.31-1.008.415-.384.108-.82.161-1.308.161zm.217-.99c.555 0 1.047-.089 1.475-.268.43-.178.789-.405 1.078-.683.291-.276.508-.59.654-.939.145-.35.217-.702.217-1.059v-1.84c-.33.186-.729.326-1.197.426s-.953.182-1.453.247c-.436.066-.838.136-1.207.208-.371.072-.689.188-.961.347-.27.158-.484.373-.643.643-.158.271-.238.624-.238 1.059 0 .356.062.653.189.891.125.237.289.429.494.574.203.146.445.247.723.307.275.058.566.087.869.087z"/></svg>