<svg xmlns="http://www.w3.org/2000/svg" width="32" height="32" viewBox="0 0 32 32"><path fill="#fff" d="M32 29.873h-32v-27.746h32v27.746zm-9.729-1.039h8.688v-14.831l-4.185-5.63-9.857 13.26 5.354 7.201zm-20.585 0h19.292l-9.646-12.976-9.646 12.976zm-.647-25.668v24.795l10.292-13.844 4.939 6.645 10.504-14.13 4.185 5.63v-9.096h-29.92zm6.419 8.9c-1.571 0-2.85-1.279-2.85-2.851s1.279-2.851 2.85-2.851 2.85 1.279 2.85 2.851-1.279 2.851-2.85 2.851zm0-4.661c-.999 0-1.811.812-1.811 1.811 0 .999.812 1.812 1.811 1.812s1.811-.812 1.811-1.812c0-.999-.813-1.811-1.811-1.811z"/></svg>