<svg width="18" height="18" viewBox="0 0 18 18" xmlns="http://www.w3.org/2000/svg"><title>in-progress</title><desc>Created with Sketch.</desc><path d="M9.012 6.278v-1.577c-2.524-.004-4.778 1.809-5.254 4.403-.471 2.563.935 5.092 3.343 6.014.689.264 1.035 1.04.774 1.736-.232.618-.867.963-1.488.847l-.232-.065c-3.615-1.382-5.726-5.177-5.019-9.021.714-3.889 4.093-6.598 7.876-6.593v-1.307c0-.627.789-.95 1.267-.517l3.074 2.781c.311.282.311.754 0 1.036l-3.074 2.781c-.478.432-1.267.11-1.267-.518m1.763 8.883c-.198.072-.402.132-.608.178-.719.161-1.174.88-1.015 1.606.119.544.549.937 1.059 1.033.171.031.351.03.531-.01.314-.071.623-.161.925-.269.693-.249 1.057-1.02.811-1.72-.247-.701-1.011-1.067-1.703-.818m2.651-2.071l-.179.252c-.449.589-.341 1.434.243 1.888.174.134.368.219.57.256.476.089.984-.088 1.301-.503l.277-.389c.411-.617.25-1.453-.36-1.869-.611-.413-1.44-.252-1.852.365m2.276-4.13c-.736-.02-1.35.593-1.369 1.337-.018.669.452 1.227 1.084 1.345l.21.022c.735.022 1.349-.575 1.372-1.318l.001-.031c.02-.744-.567-1.342-1.298-1.355" fill="#806594"/></svg>