<?xml version="1.0" encoding="UTF-8" standalone="no"?>
<svg width="18px" height="18px" viewBox="0 0 18 18" version="1.1" xmlns="http://www.w3.org/2000/svg" xmlns:xlink="http://www.w3.org/1999/xlink">
    <!-- Generator: Sketch 3.8.3 (29802) - http://www.bohemiancoding.com/sketch -->
    <title>make-same-width@1x</title>
    <desc>Created with Sketch.</desc>
    <defs></defs>
    <g id="Page-1" stroke="none" stroke-width="1" fill="none" fill-rule="evenodd">
        <g id="make-same-width" fill="#6F6F6F">
            <path d="M2.5,2 C2.224,2 2,2.224 2,2.5 L2,7.5 C2,7.776 2.224,8 2.5,8 L15.5,8 C15.776,8 16,7.776 16,7.5 L16,2.5 C16,2.224 15.776,2 15.5,2 L2.5,2 Z M15.5,10 L2.5,10 C1.122,10 0,8.878 0,7.5 L0,2.5 C0,1.122 1.122,0 2.5,0 L15.5,0 C16.878,0 18,1.122 18,2.5 L18,7.5 C18,8.878 16.878,10 15.5,10 L15.5,10 Z" id="Fill-1"></path>
            <path d="M17.707,14.293 L15.707,12.293 C15.512,12.098 15.256,12 15,12 C14.744,12 14.488,12.098 14.293,12.293 C13.902,12.684 13.902,13.316 14.293,13.707 L14.586,14 L8,14 L7,14 L3.414,14 L3.707,13.707 C4.098,13.316 4.098,12.684 3.707,12.293 C3.316,11.902 2.684,11.902 2.293,12.293 L0.293,14.293 C-0.098,14.684 -0.098,15.316 0.293,15.707 L2.293,17.707 C2.488,17.902 2.744,18 3,18 C3.256,18 3.512,17.902 3.707,17.707 C4.098,17.316 4.098,16.684 3.707,16.293 L3.414,16 L7,16 L8,16 L14.586,16 L14.293,16.293 C13.902,16.684 13.902,17.316 14.293,17.707 C14.684,18.098 15.316,18.098 15.707,17.707 L17.707,15.707 C18.098,15.316 18.098,14.684 17.707,14.293" id="Fill-3"></path>
        </g>
    </g>
</svg>