<?xml version="1.0" encoding="UTF-8" standalone="no"?>
<svg width="18px" height="18px" viewBox="0 0 18 18" version="1.1" xmlns="http://www.w3.org/2000/svg" xmlns:xlink="http://www.w3.org/1999/xlink">
    <!-- Generator: Sketch 3.8.3 (29802) - http://www.bohemiancoding.com/sketch -->
    <title>make-same-size@1x</title>
    <desc>Created with Sketch.</desc>
    <defs></defs>
    <g id="Page-1" stroke="none" stroke-width="1" fill="none" fill-rule="evenodd">
        <g id="make-same-size" fill="#6F6F6F">
            <path d="M13,12.5 C13,12.776 12.776,13 12.5,13 L5.5,13 C5.224,13 5,12.776 5,12.5 L5,5.5 C5,5.224 5.224,5 5.5,5 L12.5,5 C12.776,5 13,5.224 13,5.5 L13,12.5 Z M16,7 C15.634,7 15.295,7.106 15,7.277 L15,5.5 C15,4.122 13.878,3 12.5,3 L10.723,3 C10.894,2.705 11,2.366 11,2 C11,0.895 10.105,0 9,0 C7.895,0 7,0.895 7,2 C7,2.366 7.106,2.705 7.277,3 L5.5,3 C4.122,3 3,4.122 3,5.5 L3,7.277 C2.705,7.106 2.366,7 2,7 C0.895,7 0,7.895 0,9 C0,10.105 0.895,11 2,11 C2.366,11 2.705,10.894 3,10.723 L3,12.5 C3,13.878 4.122,15 5.5,15 L7.277,15 C7.106,15.295 7,15.634 7,16 C7,17.105 7.895,18 9,18 C10.105,18 11,17.105 11,16 C11,15.634 10.894,15.295 10.723,15 L12.5,15 C13.878,15 15,13.878 15,12.5 L15,10.723 C15.295,10.894 15.634,11 16,11 C17.105,11 18,10.105 18,9 C18,7.895 17.105,7 16,7 L16,7 Z" id="Page-1"></path>
        </g>
    </g>
</svg>