<?xml version="1.0" encoding="UTF-8" standalone="no"?>
<svg width="18px" height="18px" viewBox="0 0 18 18" version="1.1" xmlns="http://www.w3.org/2000/svg" xmlns:xlink="http://www.w3.org/1999/xlink">
    <!-- Generator: Sketch 3.8.3 (29802) - http://www.bohemiancoding.com/sketch -->
    <title>make-same-height@1x</title>
    <desc>Created with Sketch.</desc>
    <defs></defs>
    <g id="Page-1" stroke="none" stroke-width="1" fill="none" fill-rule="evenodd">
        <g id="make-same-height" fill="#6F6F6F">
            <path d="M16,2.5 C16,2.224 15.776,2 15.5,2 L10.5,2 C10.224,2 10,2.224 10,2.5 L10,15.5 C10,15.776 10.224,16 10.5,16 L15.5,16 C15.776,16 16,15.776 16,15.5 L16,2.5 Z M8,15.5 L8,2.5 C8,1.122 9.122,0 10.5,0 L15.5,0 C16.878,0 18,1.122 18,2.5 L18,15.5 C18,16.878 16.878,18 15.5,18 L10.5,18 C9.122,18 8,16.878 8,15.5 L8,15.5 Z" id="Fill-1"></path>
            <path d="M3.707,17.707 L5.707,15.707 C5.902,15.512 6,15.256 6,15 C6,14.744 5.902,14.488 5.707,14.293 C5.316,13.902 4.684,13.902 4.293,14.293 L4,14.586 L4,8 L4,7 L4,3.414 L4.293,3.707 C4.684,4.098 5.316,4.098 5.707,3.707 C6.098,3.316 6.098,2.684 5.707,2.293 L3.707,0.293 C3.316,-0.098 2.684,-0.098 2.293,0.293 L0.293,2.293 C0.098,2.488 0,2.744 0,3 C0,3.256 0.098,3.512 0.293,3.707 C0.684,4.098 1.316,4.098 1.707,3.707 L2,3.414 L2,7 L2,8 L2,14.586 L1.707,14.293 C1.316,13.902 0.684,13.902 0.293,14.293 C-0.098,14.684 -0.098,15.316 0.293,15.707 L2.293,17.707 C2.684,18.098 3.316,18.098 3.707,17.707" id="Fill-3"></path>
        </g>
    </g>
</svg>