<?xml version="1.0" encoding="UTF-8" standalone="no"?>
<svg width="18px" height="18px" viewBox="0 0 18 18" version="1.1" xmlns="http://www.w3.org/2000/svg" xmlns:xlink="http://www.w3.org/1999/xlink">
    <!-- Generator: Sketch 3.8.3 (29802) - http://www.bohemiancoding.com/sketch -->
    <title>space-horiz@1x</title>
    <desc>Created with Sketch.</desc>
    <defs></defs>
    <g id="Page-1" stroke="none" stroke-width="1" fill="none" fill-rule="evenodd">
        <g id="space-horiz" fill="#6F6F6F">
            <path d="M8,13.5 C8,13.776 7.776,14 7.5,14 L2.5,14 C2.224,14 2,13.776 2,13.5 L2,4.5 C2,4.224 2.224,4 2.5,4 L7.5,4 C7.776,4 8,4.224 8,4.5 L8,13.5 Z M7.5,2 L7,2 L6,2 L6,1 C6,0.45 5.55,0 5,0 C4.45,0 4,0.45 4,1 L4,2 L3,2 L2.5,2 C1.122,2 0,3.122 0,4.5 L0,6 L0,12 L0,13.5 C0,14.878 1.122,16 2.5,16 L3,16 L4,16 L4,17 C4,17.55 4.45,18 5,18 C5.55,18 6,17.55 6,17 L6,16 L7,16 L7.5,16 C8.878,16 10,14.878 10,13.5 L10,12 L10,6 L10,4.5 C10,3.122 8.878,2 7.5,2 L7.5,2 Z" id="Fill-1"></path>
            <path d="M16,3.0506 L16,0.9996 C16,0.4496 15.55,-0.0004 15,-0.0004 C14.45,-0.0004 14,0.4496 14,0.9996 L14,3.0506 C12.86,3.2826 12,4.2926 12,5.4996 L12,5.9996 L12,11.9996 L12,12.4996 C12,13.7076 12.86,14.7176 14,14.9496 L14,16.9996 C14,17.5496 14.45,17.9996 15,17.9996 C15.55,17.9996 16,17.5496 16,16.9996 L16,14.9496 C17.14,14.7176 18,13.7076 18,12.4996 L18,11.9996 L18,5.9996 L18,5.4996 C18,4.2926 17.14,3.2826 16,3.0506" id="Fill-3"></path>
        </g>
    </g>
</svg>