<?xml version="1.0" encoding="UTF-8" standalone="no"?>
<svg width="18px" height="18px" viewBox="0 0 18 18" version="1.1" xmlns="http://www.w3.org/2000/svg" xmlns:xlink="http://www.w3.org/1999/xlink">
    <!-- Generator: Sketch 3.8.3 (29802) - http://www.bohemiancoding.com/sketch -->
    <title>space-vert@1x</title>
    <desc>Created with Sketch.</desc>
    <defs></defs>
    <g id="Page-1" stroke="none" stroke-width="1" fill="none" fill-rule="evenodd">
        <g id="space-vert" fill="#6F6F6F">
            <path d="M14,15.5 C14,15.776 13.776,16 13.5,16 L4.5,16 C4.224,16 4,15.776 4,15.5 L4,10.5 C4,10.224 4.224,10 4.5,10 L13.5,10 C13.776,10 14,10.224 14,10.5 L14,15.5 Z M2,10.5 L2,11 L2,12 L1,12 C0.45,12 0,12.45 0,13 C0,13.55 0.45,14 1,14 L2,14 L2,15 L2,15.5 C2,16.878 3.122,18 4.5,18 L6,18 L12,18 L13.5,18 C14.878,18 16,16.878 16,15.5 L16,15 L16,14 L17,14 C17.55,14 18,13.55 18,13 C18,12.45 17.55,12 17,12 L16,12 L16,11 L16,10.5 C16,9.122 14.878,8 13.5,8 L12,8 L6,8 L4.5,8 C3.122,8 2,9.122 2,10.5 L2,10.5 Z" id="Fill-1"></path>
            <path d="M3.0506,2 L0.9996,2 C0.4496,2 -0.0004,2.45 -0.0004,3 C-0.0004,3.55 0.4496,4 0.9996,4 L3.0506,4 C3.2826,5 4.2926,6 5.4996,6 L5.9996,6 L11.9996,6 L12.4996,6 C13.7076,6 14.7176,5.14 14.9496,4 L16.9996,4 C17.5496,4 17.9996,3.55 17.9996,3 C17.9996,2.45 17.5496,2 16.9996,2 L14.9496,2 C14.7176,0.86 13.7076,0 12.4996,0 L11.9996,0 L5.9996,0 L5.4996,0 C4.2926,0 3.2826,1 3.0506,2" id="Fill-3"></path>
        </g>
    </g>
</svg>