<svg width="18" height="18" viewBox="0 0 18 18" xmlns="http://www.w3.org/2000/svg"><title>bullet-list</title><desc>Created with Sketch.</desc><path d="M17.99 3.99c0-.547-.443-.99-.99-.99h-12.02c-.547 0-.99.443-.99.99v.02c0 .547.443.99.99.99h12.02c.547 0 .99-.443.99-.99v-.02zm-16.981-.99h-.019c-.547 0-.99.443-.99.99v.02c0 .547.443.99.99.99h.019c.547 0 .991-.443.991-.99v-.02c0-.547-.444-.99-.991-.99zm16.981 5.99c0-.547-.443-.99-.99-.99h-12.02c-.547 0-.99.443-.99.99v.02c0 .547.443.99.99.99h12.02c.547 0 .99-.443.99-.99v-.02zm-16.981-.99h-.019c-.547 0-.99.443-.99.99v.02c0 .547.443.99.99.99h.019c.547 0 .991-.443.991-.99v-.02c0-.547-.444-.99-.991-.99zm16.981 5.99c0-.547-.443-.99-.99-.99h-12.02c-.547 0-.99.443-.99.99v.02c0 .547.443.99.99.99h12.02c.547 0 .99-.443.99-.99v-.02zm-16.981-.99h-.019c-.547 0-.99.443-.99.99v.02c0 .547.443.99.99.99h.019c.547 0 .991-.443.991-.99v-.02c0-.547-.444-.99-.991-.99z" fill="#6F6F6F"/></svg>