<svg width="14" height="13" viewBox="0 0 14 13" xmlns="http://www.w3.org/2000/svg"><title>icon/rich-text-editor/strikethrough</title><desc>Created with Sketch.</desc><path d="M14.003 5.535h-4.057c-.337-.163-.714-.308-1.176-.413l-2.193-.496c-.832-.192-1.793-.448-1.793-1.248 0-.801.673-1.361 1.89-1.361 2.448 0 2.224 1.713 3.441 1.713.64 0 1.2-.384 1.2-1.04 0-1.537-2.417-2.69-4.466-2.69-2.224 0-4.593.961-4.593 3.522 0 .694.152 1.408.697 2.013h-2.953v1h4.638l.434.14 2.962.752c.896.225 1.12.736 1.12 1.201 0 .768-.752 1.521-2.112 1.521-2.658 0-2.289-2.081-3.714-2.081-.64 0-1.105.448-1.105 1.089 0 1.248 1.489 2.913 4.819 2.913 3.169 0 4.737-1.553 4.737-3.634 0-.652-.148-1.321-.569-1.901h2.793v-1z" fill="#5C5C5C"/></svg>