<svg width="58" height="18" viewBox="0 0 58 18" xmlns="http://www.w3.org/2000/svg" xmlns:xlink="http://www.w3.org/1999/xlink"><title>visual</title><desc>Created with Sketch.</desc><defs><path id="a" d="M9.839 0h-9.502v11.999h9.502v-11.999z"/></defs><g fill="none"><path d="M7.558 14.03c-.271.748-.781.907-1.592.907-.812 0-1.321-.159-1.591-.907l-3.215-9.04c-.112-.303-.16-.557-.16-.764 0-.876.669-1.162 1.321-1.162.701 0 1.083.366 1.322 1.146l2.355 7.799h.032l2.45-7.799c.239-.78.621-1.146 1.227-1.146.652 0 1.32.286 1.32 1.162 0 .207-.048.461-.159.764l-3.31 9.04zm4.58-9.661c0-.78.509-1.305 1.305-1.305.795 0 1.305.525 1.305 1.305v9.263c0 .78-.51 1.305-1.305 1.305-.796 0-1.305-.525-1.305-1.305v-9.263z" fill="#6F6F6F"/><g transform="translate(1 3) translate(15 .001)"><mask id="b"><use xlink:href="#a"/></mask><path d="M6.848 5.093c2.387.541 2.992 1.957 2.992 3.294 0 2.069-1.56 3.613-4.711 3.613-3.311 0-4.791-1.655-4.791-2.896 0-.637.461-1.083 1.098-1.083 1.417 0 1.051 2.069 3.693 2.069 1.352 0 2.101-.748 2.101-1.512 0-.461-.223-.97-1.114-1.193l-2.944-.748c-2.373-.605-2.802-1.91-2.802-3.136 0-2.546 2.355-3.501 4.567-3.501 2.038 0 4.441 1.146 4.441 2.674 0 .652-.557 1.034-1.193 1.034-1.21 0-.988-1.703-3.423-1.703-1.209 0-1.877.557-1.877 1.353 0 .796.955 1.051 1.782 1.241l2.181.494z" fill="#6F6F6F" mask="url(#b)"/></g><path d="M27.029 4.369c0-.78.509-1.305 1.305-1.305.796 0 1.304.525 1.304 1.305v6.271c0 1.559.876 2.26 2.373 2.26 1.495 0 2.371-.701 2.371-2.26v-6.271c0-.78.509-1.305 1.305-1.305.796 0 1.305.525 1.305 1.305v6.064c0 3.151-1.942 4.568-4.981 4.568-3.041 0-4.982-1.417-4.982-4.568v-6.064zm14.304-.51c.222-.589.636-.796 1.273-.796h.621c.588 0 1.114.143 1.4.955l3.151 8.77c.096.254.255.716.255 1.002 0 .637-.556 1.146-1.225 1.146-.573 0-.987-.207-1.178-.716l-.669-1.91h-4.202l-.683 1.91c-.175.509-.542.716-1.162.716-.716 0-1.21-.446-1.21-1.146 0-.286.16-.748.255-1.002l3.374-8.929zm1.576 2.037h-.032l-1.544 4.6h3.055l-1.479-4.6zm6.236-1.527c0-.78.509-1.305 1.305-1.305.795 0 1.305.525 1.305 1.305v8.165h4.36c.749 0 1.354.382 1.354 1.098 0 .716-.605 1.098-1.354 1.098h-5.442c-.923 0-1.528-.366-1.528-1.528v-8.833z" fill="#6F6F6F"/></g></svg>