<?xml version="1.0" encoding="utf-8"?>
<!-- Generator: Adobe Illustrator 16.0.0, SVG Export Plug-In . SVG Version: 6.00 Build 0)  -->
<!DOCTYPE svg PUBLIC "-//W3C//DTD SVG 1.1//EN" "http://www.w3.org/Graphics/SVG/1.1/DTD/svg11.dtd">
<svg version="1.1" id="Layer_1" xmlns="http://www.w3.org/2000/svg" xmlns:xlink="http://www.w3.org/1999/xlink" x="0px" y="0px"
	 width="32px" height="32px" viewBox="0 0 32 32" enable-background="new 0 0 32 32" xml:space="preserve">
<g id="XMLID_13_">
	<g>
		<g id="XMLID_10_">
			<g>
				<path d="M27.146,30.23l-6.868-6.865c-1.881,1.23-4.131,1.953-6.558,1.953c-6.618,0-11.97-5.365-11.97-11.984
					c0-6.605,5.352-11.97,11.97-11.97c6.608,0,11.969,5.365,11.969,11.97c0,2.311-0.649,4.464-1.774,6.287l6.915,6.914
					c0.366,0.359,0.06,1.246-0.677,1.979l-1.028,1.033C28.391,30.279,27.502,30.584,27.146,30.23z M21.712,13.334
					c0-4.416-3.575-7.991-7.992-7.991c-4.416,0-8.003,3.575-8.003,7.991c0,4.417,3.587,8.003,8.003,8.003
					C18.137,21.338,21.712,17.752,21.712,13.334z"/>
			</g>
		</g>
	</g>
</g>
</svg>
