<svg width="1642" height="272" viewBox="0 0 1642 272" fill="none" xmlns="http://www.w3.org/2000/svg">
<rect width="1642" height="272" fill="#150A57"/>
<g clip-path="url(#clip0_22_24138)">
<path d="M137.625 68.5922L119.051 59.6571V40L137.625 68.5922ZM139.102 72L119.051 63.5429V72H139.102Z" fill="#98002E"/>
<path d="M100.477 68.5922L119.051 40V59.6571L100.477 68.5922Z" fill="#E31837"/>
<path d="M99 72.0001H119.051V63.543L99 72.0001Z" fill="#E31837"/>
<path d="M140.724 66.1401C141.452 66.1401 142.056 66.722 142.056 67.4492C142.056 68.1765 141.473 68.7791 140.745 68.7791C140.017 68.7791 139.414 68.1973 139.414 67.47C139.414 66.722 139.996 66.1401 140.724 66.1401ZM140.724 68.5713C141.348 68.5713 141.848 68.0726 141.848 67.4492C141.848 66.8259 141.348 66.3271 140.724 66.3271C140.1 66.3271 139.601 66.8259 139.601 67.4492C139.601 68.0726 140.1 68.5713 140.724 68.5713ZM140.433 68.2181H140.246V66.7012H140.828C141.182 66.7012 141.307 66.8466 141.307 67.1168C141.328 67.3453 141.14 67.5323 140.932 67.5531L141.39 68.2181H141.182L140.724 67.5531H140.454L140.433 68.2181ZM140.433 67.3661H140.683C140.891 67.3661 141.12 67.3453 141.12 67.096C141.12 66.909 140.932 66.8466 140.787 66.8466H140.454V67.3661H140.433Z" fill="#98002E"/>
<path d="M154.765 68.5923H163.771C173.048 68.5923 178.56 63.7923 178.56 55.8339C178.56 47.8754 173.048 43.0962 163.771 43.0962H154.765V68.5923ZM160.464 47.5222H163.771C169.782 47.5222 172.798 50.4936 172.798 55.8339C172.798 61.1741 169.782 64.1455 163.771 64.1455H160.464V47.5222Z" fill="white"/>
<path d="M197.946 57.5378H208.782V53.1118H197.946V47.5222H210.197V43.0962H192.226V68.5923H210.592V64.1663H197.946V57.5378Z" fill="white"/>
<path d="M243.082 64.1663H232.078V43.0962H226.358V68.5923H243.082V64.1663Z" fill="white"/>
<path d="M273.866 43.0962H250.965V47.5222H259.534V68.5923H265.275V47.5222H273.866V43.0962Z" fill="white"/>
<path d="M307 68.5922H301.031L298.535 62.213H288.155L285.659 68.5922H280.085L290.755 42.9922H296.517L307 68.5922ZM296.912 57.9324L293.355 48.8727L289.778 57.9324H296.912Z" fill="white"/>
</g>
<defs>
<clipPath id="clip0_22_24138">
<rect width="208" height="32" fill="white" transform="translate(99 40)"/>
</clipPath>
</defs>
</svg>
