<?xml version="1.0" encoding="UTF-8" standalone="no"?>
<svg width="51px" height="46px" viewBox="0 0 51 46" version="1.1" xmlns="http://www.w3.org/2000/svg" xmlns:xlink="http://www.w3.org/1999/xlink">
    <!-- Generator: Sketch 46.2 (44496) - http://www.bohemiancoding.com/sketch -->
    <title>Infor_TMLogo_RGB_080512</title>
    <desc>Created with Sketch.</desc>
    <defs></defs>
    <g id="Design-Page" stroke="none" stroke-width="1" fill="none" fill-rule="evenodd">
        <g id="Page-Type---Design---Inline-Index" transform="translate(-40.000000, -27.000000)">
            <g id="header-bar">
                <g id="Infor_TMLogo_RGB_080512" transform="translate(40.000000, 27.000000)">
                    <polygon id="Fill-1" fill="#C2252C" points="0 46 45.964552 46 45.964552 0.0357777778 0 0.0357777778"></polygon>
                    <polygon id="Fill-2" fill="#FFFFFE" points="4.10257348 28.4360789 7.01063082 28.4360789 7.01063082 19.0136631 4.10257348 19.0136631"></polygon>
                    <path d="M8.56275986,19.0134982 L11.3545806,19.0134982 L11.3545806,19.8790896 C11.3545806,19.8790896 11.8394767,18.78119 14.1462366,18.7808602 C17.0928746,18.7806953 17.6359713,20.7194552 17.6359713,23.2402222 L17.6359713,28.4357491 L14.7282437,28.4357491 L14.7282437,23.8217348 C14.7282437,22.735871 14.7086237,21.3402079 13.2158495,21.3402079 C11.7034552,21.3402079 11.4709821,22.5226882 11.4709821,23.7442437 L11.4709821,28.4357491 L8.56275986,28.4357491 L8.56275986,19.0134982" id="Fill-3" fill="#FFFFFE"></path>
                    <path d="M19.1882652,17.3462867 C19.1882652,15.2909606 19.7115771,13.5464229 22.8715627,13.5464229 C23.4530753,13.5464229 24.0352473,13.5851685 24.5778495,13.7210251 L24.4419928,16.1830968 C24.1122437,16.0666953 23.8410251,15.9892043 23.4919857,15.9892043 C22.5614337,15.9892043 22.0963226,16.280043 22.0963226,17.5208889 L22.0963226,19.0134982 L24.2481004,19.0134982 L24.2481004,21.3402079 L22.0963226,21.3402079 L22.0963226,28.4357491 L19.1882652,28.4357491 L19.1882652,17.3462867" id="Fill-4" fill="#FFFFFE"></path>
                    <path d="M29.8612545,26.1095341 C31.3151183,26.1095341 32.1877993,25.1399068 32.1877993,23.7247885 C32.1877993,22.3093405 31.3151183,21.3402079 29.8612545,21.3402079 C28.4065663,21.3402079 27.5348746,22.3093405 27.5348746,23.7247885 C27.5348746,25.1399068 28.4065663,26.1095341 29.8612545,26.1095341 M29.8612545,18.78119 C32.7688172,18.78119 35.0956918,20.7196201 35.0956918,23.7247885 C35.0956918,26.7296272 32.7688172,28.6682222 29.8612545,28.6682222 C26.9527025,28.6682222 24.6264875,26.7296272 24.6264875,23.7247885 C24.6264875,20.7196201 26.9527025,18.78119 29.8612545,18.78119" id="Fill-5" fill="#FFFFFE"></path>
                    <path d="M36.2349749,19.0134982 L39.1428674,19.0134982 L39.1428674,19.8372115 C39.1428674,19.8372115 39.9014552,18.6469821 42.865405,18.7742652 L42.865405,21.3270179 C42.458,21.2107814 42.0509247,21.1332903 41.6245591,21.1332903 C39.4145806,21.1332903 39.1428674,22.7233405 39.1428674,24.6035699 L39.1428674,28.4357491 L36.2349749,28.4357491 L36.2349749,19.0134982" id="Fill-6" fill="#FFFFFE"></path>
                    <polyline id="Fill-7" fill="#FFFFFE" points="4.10257348 15.9085806 7.01063082 13.9160717 7.01063082 17.4615341 4.10257348 17.4615341 4.10257348 15.9085806"></polyline>
                    <polyline id="Fill-8" fill="#7A7C7A" points="47.6319283 46 47.6319283 44.4409462 47.0771254 44.4409462 47.0771254 44.2463943 48.4074982 44.2463943 48.4074982 44.4409462 47.8500573 44.4409462 47.8500573 46 47.6319283 46"></polyline>
                    <polyline id="Fill-9" fill="#7A7C7A" points="50.1693477 46 50.1693477 44.5251971 49.5749749 46 49.4856129 46 48.8889319 44.5251971 48.8889319 46 48.6708029 46 48.6708029 44.2463943 48.9835699 44.2463943 49.5304588 45.597871 50.0745448 44.2463943 50.3874767 44.2463943 50.3874767 46 50.1693477 46"></polyline>
                </g>
            </g>
        </g>
    </g>
</svg>
