<svg width="15" height="15" viewBox="0 0 15 15" xmlns="http://www.w3.org/2000/svg"><title>available</title><desc>Created with Sketch.</desc><g fill="none"><path d="M7.696.197c-3.924 0-7.105 3.181-7.105 7.105 0 3.924 3.181 7.105 7.105 7.105 3.924 0 7.105-3.181 7.105-7.105 0-3.924-3.181-7.105-7.105-7.105" fill="#80CE4D"/><path d="M6.956 10.461c-.201 0-.401-.076-.555-.227l-1.628-1.58c-.311-.306-.314-.806-.007-1.116.306-.312.806-.313 1.116-.007l1.069 1.026 3.343-3.389c.309-.308.808-.31 1.117-.004.309.309.311.808.004 1.117l-3.898 3.947c-.156.155-.358.233-.561.233" fill="#fff"/></g></svg>