<?xml version="1.0" encoding="UTF-8" standalone="no"?>
<svg width="18px" height="18px" viewBox="0 0 18 18" version="1.1" xmlns="http://www.w3.org/2000/svg" xmlns:xlink="http://www.w3.org/1999/xlink" xmlns:sketch="http://www.bohemiancoding.com/sketch/ns">
    <!-- Generator: Sketch 3.5.2 (25235) - http://www.bohemiancoding.com/sketch -->
    <title>close</title>
    <desc>Created with Sketch.</desc>
    <defs></defs>
    <g id="standard-icons" stroke="none" stroke-width="1" fill="none" fill-rule="evenodd" sketch:type="MSPage">
        <g id="close" sketch:type="MSArtboardGroup" fill="#2B2A2A">
            <path d="M10.41425,9.00025 L15.70725,3.70725 C16.09825,3.31625 16.09825,2.68425 15.70725,2.29325 C15.31625,1.90225 14.68425,1.90225 14.29325,2.29325 L9.00025,7.58625 L3.70725,2.29325 C3.31625,1.90225 2.68425,1.90225 2.29325,2.29325 C1.90225,2.68425 1.90225,3.31625 2.29325,3.70725 L7.58625,9.00025 L2.29325,14.29325 C1.90225,14.68425 1.90225,15.31625 2.29325,15.70725 C2.48825,15.90225 2.74425,16.00025 3.00025,16.00025 C3.25625,16.00025 3.51225,15.90225 3.70725,15.70725 L9.00025,10.41425 L14.29325,15.70725 C14.48825,15.90225 14.74425,16.00025 15.00025,16.00025 C15.25625,16.00025 15.51225,15.90225 15.70725,15.70725 C16.09825,15.31625 16.09825,14.68425 15.70725,14.29325 L10.41425,9.00025" id="Imported-Layers" sketch:type="MSShapeGroup"></path>
        </g>
    </g>
</svg>