<?xml version="1.0" encoding="UTF-8" standalone="no"?>
<svg width="18px" height="18px" viewBox="0 0 18 18" version="1.1" xmlns="http://www.w3.org/2000/svg" xmlns:xlink="http://www.w3.org/1999/xlink" xmlns:sketch="http://www.bohemiancoding.com/sketch/ns">
    <!-- Generator: Sketch 3.5.2 (25235) - http://www.bohemiancoding.com/sketch -->
    <title>grid</title>
    <desc>Created with Sketch.</desc>
    <defs></defs>
    <g id="standard-icons" stroke="none" stroke-width="1" fill="none" fill-rule="evenodd" sketch:type="MSPage">
        <g id="grid" sketch:type="MSArtboardGroup" fill="#2B2A2A">
            <path d="M4,1 L2,1 C1.447,1 1,1.447 1,2 L1,4 C1,4.552 1.447,5 2,5 L4,5 C4.553,5 5,4.552 5,4 L5,2 C5,1.447 4.553,1 4,1 Z M10,1 L8,1 C7.447,1 7,1.447 7,2 L7,4 C7,4.552 7.447,5 8,5 L10,5 C10.553,5 11,4.552 11,4 L11,2 C11,1.447 10.553,1 10,1 Z M16,1 L14,1 C13.447,1 13,1.447 13,2 L13,4 C13,4.552 13.447,5 14,5 L16,5 C16.553,5 17,4.552 17,4 L17,2 C17,1.447 16.553,1 16,1 Z M4,7 L2,7 C1.447,7 1,7.447 1,8 L1,10 C1,10.552 1.447,11 2,11 L4,11 C4.553,11 5,10.552 5,10 L5,8 C5,7.447 4.553,7 4,7 Z M10,7 L8,7 C7.447,7 7,7.447 7,8 L7,10 C7,10.552 7.447,11 8,11 L10,11 C10.553,11 11,10.552 11,10 L11,8 C11,7.447 10.553,7 10,7 Z M16,7 L14,7 C13.447,7 13,7.447 13,8 L13,10 C13,10.552 13.447,11 14,11 L16,11 C16.553,11 17,10.552 17,10 L17,8 C17,7.447 16.553,7 16,7 Z M4,13 L2,13 C1.447,13 1,13.447 1,14 L1,16 C1,16.552 1.447,17 2,17 L4,17 C4.553,17 5,16.552 5,16 L5,14 C5,13.447 4.553,13 4,13 Z M10,13 L8,13 C7.447,13 7,13.447 7,14 L7,16 C7,16.552 7.447,17 8,17 L10,17 C10.553,17 11,16.552 11,16 L11,14 C11,13.447 10.553,13 10,13 Z M16,13 L14,13 C13.447,13 13,13.447 13,14 L13,16 C13,16.552 13.447,17 14,17 L16,17 C16.553,17 17,16.552 17,16 L17,14 C17,13.447 16.553,13 16,13 Z" id="Fill-1" sketch:type="MSShapeGroup"></path>
        </g>
    </g>
</svg>