<svg width="14" height="14" viewBox="0 0 14 14" xmlns="http://www.w3.org/2000/svg"><title>contains</title><desc>Created with Sketch.</desc><path d="M11 12h1v-10h-1c-.552 0-1-.448-1-1s.448-1 1-1h2c.552 0 1 .448 1 1v12c0 .552-.448 1-1 1h-2c-.552 0-1-.448-1-1s.448-1 1-1zm-5-5h2v-2h-2v2zm4 3c0 .552-.448 1-1 1h-1v-2h-2v2h-1c-.552 0-1-.448-1-1v-6c0-.552.448-1 1-1h4c.552 0 1 .448 1 1v6zm-6 3c0 .552-.448 1-1 1h-2c-.552 0-1-.448-1-1v-12c0-.552.448-1 1-1h2c.552 0 1 .448 1 1s-.448 1-1 1h-1v10h1c.552 0 1 .448 1 1z" fill="#5C5C5C"/></svg>