<svg width="14" height="14" viewBox="0 0 14 14" xmlns="http://www.w3.org/2000/svg" xmlns:xlink="http://www.w3.org/1999/xlink"><title>contains</title><desc>Created with Sketch.</desc><defs><path id="a" d="M0 14h14v-14h-14v14z"/></defs><g fill="none"><path d="M3 12h-1v-10h1c.552 0 1-.448 1-1s-.448-1-1-1h-2c-.552 0-1 .448-1 1v12c0 .552.448 1 1 1h2c.552 0 1-.448 1-1s-.448-1-1-1zm10-12h-2c-.552 0-1 .448-1 1s.448 1 1 1h1v10h-1c-.552 0-1 .448-1 1s.448 1 1 1h2c.552 0 1-.448 1-1v-12c0-.552-.448-1-1-1" fill="#5C5C5C"/><mask id="b"><use xlink:href="#a"/></mask><path d="M6 7h2v-2h-2v2zm4-3c0-.552-.448-1-1-1h-4c-.552 0-1 .448-1 1v6c0 .552.448 1 1 1h1v-2h2v2h1c.552 0 1-.448 1-1v-6z" fill="#5C5C5C" mask="url(#b)"/></g></svg>