<svg width="14" height="14" viewBox="0 0 14 14" xmlns="http://www.w3.org/2000/svg"><title>does-not-equal</title><desc>Created with Sketch.</desc><path d="M13 5c0-.55-.45-1-1-1h-1.873l-.984 2h2.857c.55 0 1-.45 1-1m-4.694-3.924c-.508-.211-1.096.033-1.306.541l-1.173 2.383h-3.827c-.55 0-1 .45-1 1s.45 1 1 1h2.842l-.985 2h-1.857c-.55 0-1 .45-1 1s.45 1 1 1h.873l-.797 1.618c-.21.508.034 1.096.542 1.306.508.211 1.096-.033 1.306-.541l4.924-10.001c.21-.508-.034-1.096-.542-1.306m4.694 7.924c0 .55-.45 1-1 1h-4.827l.985-2h3.842c.55 0 1 .45 1 1" fill="#5C5C5C"/></svg>