<svg width="14" height="14" viewBox="0 0 14 14" xmlns="http://www.w3.org/2000/svg"><title>does-not-start-with</title><desc>Created with Sketch.</desc><path d="M9 11h1c.552 0 1-.448 1-1v-3.345l-2 2.667v1.678zm-2-4.988l.759-1.012h-.759v1.012zm5.865-4.511l-9 12c-.277.478-.888.641-1.366.364-.478-.277-.641-.888-.364-1.366l2.865-3.821v-4.678c0-.552.448-1 1-1h3.259l1.876-2.501c.277-.478.888-.641 1.366-.364.478.277.641.889.364 1.366zm-9.865 6.499c0 .552-.448 1-1 1s-1-.448-1-1v-7c0-.552.448-1 1-1h2c.552 0 1 .448 1 1s-.448 1-1 1h-1v6z" fill="#5C5C5C"/></svg>