<svg width="14" height="14" viewBox="0 0 14 14" xmlns="http://www.w3.org/2000/svg"><title>does-not-end-with</title><desc>Created with Sketch.</desc><g fill="#5C5C5C"><path d="M12 12h-1c-.552 0-1 .448-1 1s.448 1 1 1h2c.552 0 1-.448 1-1v-7c0-.552-.448-1-1-1s-1 .448-1 1v6zm-1.865-11.501l-9 12c-.277.478-.114 1.09.364 1.366.478.277 1.09.114 1.367-.363l8.999-12c.277-.478.114-1.09-.363-1.367-.478-.277-1.09-.114-1.367.364"/><path d="M8 11h1c.552 0 1-.448 1-1v-3.345l-2 2.667v1.678zm-2-4v-2h2v1.012l1.864-2.486c-.17-.309-.487-.526-.864-.526h-4c-.552 0-1 .448-1 1v6c0 .33.17.608.416.79l2.843-3.79h-1.259z"/></g></svg>