<svg width="14" height="14" viewBox="0 0 14 14" xmlns="http://www.w3.org/2000/svg"><title>does-not-equal</title><desc>Created with Sketch.</desc><path d="M11.167 8h-3.202l-.82 2h4.022c.458 0 .833-.45.833-1s-.375-1-.833-1m.833-3c0-.55-.375-1-.833-1h-1.56l-.821 2h2.381c.458 0 .833-.45.833-1m-3.911-3.924c-.423-.211-.913.033-1.089.541l-.978 2.383h-3.189c-.458 0-.833.45-.833 1s.375 1 .833 1h2.369l-.821 2h-1.548c-.458 0-.833.45-.833 1s.375 1 .833 1h.727l-.663 1.618c-.176.508.027 1.096.451 1.307.423.21.913-.034 1.089-.542l4.103-10c.175-.509-.028-1.097-.451-1.307" fill="#5C5C5C"/></svg>