<svg width="14" height="14" viewBox="0 0 14 14" xmlns="http://www.w3.org/2000/svg"><title>does-not-equal</title><desc>Created with Sketch.</desc><path d="M12 8h-3.842l-.985 2h4.827c.55 0 1-.45 1-1s-.45-1-1-1m-3.694-6.924c-.508-.211-1.096.033-1.306.541l-1.174 2.383h-3.827c-.549 0-.999.45-.999 1s.45 1 .999 1h2.843l-.985 2h-1.858c-.549 0-.999.45-.999 1s.45 1 .999 1h.873l-.796 1.618c-.21.508.033 1.096.541 1.307.508.21 1.096-.034 1.307-.542l4.923-10c.21-.509-.033-1.097-.541-1.307m4.694 3.924c0-.55-.45-1-1-1h-1.873l-.984 2h2.857c.55 0 1-.45 1-1" fill="#5C5C5C"/></svg>