<svg width="14" height="14" viewBox="0 0 14 14" xmlns="http://www.w3.org/2000/svg"><title>greater-or-equal-to</title><desc>Created with Sketch.</desc><path d="M13 12.009c0 .547-.443.99-.991.99h-10.018c-.548 0-.991-.443-.991-.99v-.02c0-.547.443-.99.991-.99h10.018c.548 0 .991.443.991.99v.02zm-10.937-3.658c-.193-.518.069-1.094.585-1.288l5.504-2.063-5.504-2.064c-.516-.194-.778-.77-.585-1.288.195-.517.771-.776 1.289-.585l8 3c.389.146.648.52.648.937 0 .417-.259.79-.648.936l-8 3c-.117.043-.235.064-.352.064-.404 0-.786-.248-.937-.649z" fill="#5C5C5C"/></svg>