<svg width="14" height="14" viewBox="0 0 14 14" xmlns="http://www.w3.org/2000/svg"><title>greater-or-equal-to</title><desc>Created with Sketch.</desc><path d="M3.352 8.936l8-3c.39-.146.648-.52.648-.937 0-.417-.258-.79-.648-.936l-8-3c-.518-.191-1.094.068-1.288.585-.193.517.068 1.094.585 1.288l5.504 2.063-5.504 2.064c-.517.194-.778.77-.585 1.288.15.401.532.649.936.649.118 0 .236-.021.352-.064zm9.648 3.073c0 .547-.443.99-.99.99h-10.019c-.547 0-.991-.443-.991-.99v-.02c0-.547.444-.99.991-.99h10.019c.547 0 .99.443.99.99v.02z" fill="#5C5C5C"/></svg>