<svg width="14" height="6" viewBox="0 0 14 6" xmlns="http://www.w3.org/2000/svg" xmlns:xlink="http://www.w3.org/1999/xlink"><title>Page 1</title><desc>Created with Sketch.</desc><defs><path id="a" d="M0 6h14v-6h-14z"/></defs><g fill="none"><mask id="b"><use xlink:href="#a"/></mask><path d="M13.707 2.293l-2-2c-.195-.195-.451-.293-.707-.293-.256 0-.512.098-.707.293-.391.391-.391 1.023 0 1.414l.293.293h-7.172l.293-.293c.391-.391.391-1.023 0-1.414-.195-.195-.451-.293-.707-.293-.256 0-.512.098-.707.293l-2 2c-.391.391-.391 1.023 0 1.414l2 2c.391.391 1.023.391 1.414 0s.391-1.023 0-1.414l-.293-.293h7.172l-.293.293c-.391.391-.391 1.023 0 1.414s1.023.391 1.414 0l2-2c.391-.391.391-1.023 0-1.414" fill="#5C5C5C" mask="url(#b)"/></g></svg>