<svg width="14" height="14" viewBox="0 0 14 14" xmlns="http://www.w3.org/2000/svg"><title>less-or-equal-to</title><desc>Created with Sketch.</desc><path d="M11 9c.404 0 .786-.248.937-.649.193-.518-.069-1.094-.585-1.288l-5.504-2.063 5.504-2.064c.516-.194.778-.77.585-1.288-.195-.517-.771-.776-1.289-.585l-8 3c-.389.146-.648.52-.648.937 0 .417.259.79.648.936l8 3c.117.043.235.064.352.064zm-10 2.99c0-.547.443-.99.991-.99h10.018c.548 0 .991.443.991.99v.02c0 .547-.443.99-.991.99h-10.018c-.548 0-.991-.443-.991-.99v-.02z" fill="#5C5C5C"/></svg>