<svg width="14" height="14" viewBox="0 0 14 14" xmlns="http://www.w3.org/2000/svg" xmlns:xlink="http://www.w3.org/1999/xlink"><title>less-or-equal-to</title><desc>Created with Sketch.</desc><defs><path id="a" d="M0 12h12v-12h-12v12z"/></defs><g transform="translate(1 1)" fill="none"><mask id="b"><use xlink:href="#a"/></mask><path d="M0 11c0-.547.453-1 1-1h10.01c.547 0 .99.443.99.99v.02c0 .547-.443.99-.99.99h-10.01c-.547 0-.99-.443-.99-.99l-.01-.01zm6.293-3.293l-3-3c-.391-.391-.391-1.023 0-1.414l3-3c.391-.391 1.023-.391 1.414 0s.391 1.023 0 1.414l-2.293 2.293 2.293 2.293c.391.391.391 1.023 0 1.414-.195.195-.451.293-.707.293-.256 0-.512-.098-.707-.293z" fill="#5C5C5C" mask="url(#b)"/></g></svg>