<svg width="14" height="14" viewBox="0 0 14 14" xmlns="http://www.w3.org/2000/svg"><title>selected</title><desc>Created with Sketch.</desc><path d="M12.707 3.707c.391-.391.391-1.023 0-1.414s-1.023-.391-1.414 0l-4.293 4.293-1.293-1.293c-.391-.391-1.023-.391-1.414 0s-.391 1.023 0 1.414l2.707 2.707 5.707-5.707zm-2.707 9.293h-7c-1.654 0-3-1.346-3-3v-7c0-1.654 1.346-3 3-3h5c.553 0 1 .448 1 1s-.447 1-1 1h-5c-.552 0-1 .449-1 1v7c0 .551.448 1 1 1h7c.552 0 1-.449 1-1v-1c0-.552.447-1 1-1 .553 0 1 .448 1 1v1c0 1.654-1.346 3-3 3z" fill="#5C5C5C"/></svg>