<svg width="14" height="14" viewBox="0 0 14 14" xmlns="http://www.w3.org/2000/svg"><title>sort-z-to-a</title><desc>Created with Sketch.</desc><path d="M5.708 2h.292c0-.552-.448-1-1-1h-3.5c-.276 0-.5.224-.5.5s.224.5.5.5h2.792l-3 3h-.292c0 .552.448 1 1 1h3.5c.276 0 .5-.224.5-.5s-.224-.5-.5-.5h-2.792l3-3zm-.708 10v-3h-1v3h-3c0 .552.448 1 1 1h3.5c.276 0 .5-.224.5-.5s-.224-.5-.5-.5h-.5zm7.269-4h-1.269v-6c0-.553-.447-1-1-1-.553 0-1 .447-1 1v6h-1.269c-.604 0-.947.887-.579 1.361l2.268 3.329c.292.378.868.428 1.16.05l2.269-3.403c.367-.476.024-1.337-.58-1.337zm-7.269 1h-3.5c-.276 0-.5-.224-.5-.5s.224-.5.5-.5h2.5c.552 0 1 .448 1 1zm-1 1v1h-3c0-.552.448-1 1-1h2zm-3 2h1v-1h-1v1z" fill="#5C5C5C"/></svg>