<svg width="18" height="18" viewBox="0 0 18 18" xmlns="http://www.w3.org/2000/svg"><title>all-cases</title><desc>Created with Sketch.</desc><path d="M2 16h6v-4h-6v4zm5.5-8h-5c-1.375 0-2.5 1.125-2.5 2.5v5c0 1.375 1.125 2.5 2.5 2.5h5c1.375 0 2.5-1.125 2.5-2.5v-5c0-1.375-1.125-2.5-2.5-2.5zm5.5 4c-.552 0-1-.447-1-1v-5h-5c-.552 0-1-.447-1-1 0-.553.448-1 1-1h5c1.103 0 2 .897 2 2v5c0 .553-.448 1-1 1zm4-4c-.552 0-1-.447-1-1v-5h-5c-.552 0-1-.447-1-1 0-.553.448-1 1-1h5c1.103 0 2 .897 2 2v5c0 .553-.448 1-1 1z" fill="#5C5C5C"/></svg>