<svg width="18" height="18" viewBox="0 0 18 18" xmlns="http://www.w3.org/2000/svg"><title>apply-rule</title><desc>Created with Sketch.</desc><g fill="#5C5C5C"><path d="M4 9.999v1c0 .552.447 1 1 1 .553 0 1-.448 1-1v-1h-2zM4.063 7.999c-.254 0-.508-.096-.703-.288l-3.062-3.001c-.393-.388-.397-1.021-.009-1.414s1.021-.396 1.414-.008l2.353 2.299 5.235-5.293c.391-.39 1.023-.393 1.415-.005.391.39.393 1.023.004 1.415l-5.937 6c-.196.196-.453.295-.71.295M10.5 5.999h5c1.375 0 2.5 1.125 2.5 2.5v7c0 1.375-1.125 2.5-2.5 2.5h-13c-1.375 0-2.5-1.125-2.5-2.5v-5.5c0-.552.447-1 1-1 .552 0 1 .448 1 1v5.5c0 .275.225.5.5.5h13c.275 0 .5-.225.5-.5v-7c0-.275-.225-.5-.5-.5h-1.5v3c0 .552-.447 1-1 1-.553 0-1-.448-1-1v-3h-2v5c0 .552-.447 1-1 1-.553 0-1-.448-1-1v-4.5c0-1.381 1.119-2.5 2.5-2.5"/></g></svg>