<svg width="18" height="18" viewBox="0 0 18 18" xmlns="http://www.w3.org/2000/svg" xmlns:xlink="http://www.w3.org/1999/xlink"><title>approve-cancel</title><desc>Created with Sketch.</desc><defs><path id="a" d="M0 17.999h18v-17.999h-18v17.999z"/></defs><g fill="none"><mask id="b"><use xlink:href="#a"/></mask><path d="M14.414 12.999l3.293-3.293c.391-.391.391-1.023 0-1.414s-1.023-.391-1.414 0l-3.293 3.293-3.293-3.293c-.391-.391-1.023-.391-1.414 0s-.391 1.023 0 1.414l3.293 3.293-3.293 3.293c-.391.39-.391 1.023 0 1.414.195.195.451.293.707.293.256 0 .512-.098.707-.293l3.293-3.293 3.293 3.293c.195.195.451.293.707.293.256 0 .512-.098.707-.293.391-.391.391-1.024 0-1.414l-3.293-3.293zm-10.351-5c-.254 0-.508-.096-.703-.288l-3.063-3.001c-.393-.388-.397-1.021-.008-1.414.387-.394 1.021-.396 1.414-.009l2.353 2.3 5.235-5.293c.39-.39 1.022-.393 1.414-.005.392.39.394 1.023.004 1.415l-5.937 6c-.196.196-.453.295-.709.295z" fill="#6F6F6F" mask="url(#b)"/></g></svg>