<svg xmlns="http://www.w3.org/2000/svg" width="18" height="18" viewBox="0 0 18 18"><title>thumbs-up</title><desc>Created with Sketch.</desc><path fill="#414548" d="M17.48 12.7l.01-.08-1.89-11.33c-.08-.46-.47-.79-.93-.79h-11.34c-.46 0-.85.33-.93.79l-1.89 11.33v.08l-.01.08v3.779c0 .521.42.94.94.94h15.12c.521 0 .94-.42.94-.94v-3.779l-.02-.08zm-4.7-1.2c-.521 0-1.28.76-1.28 1.28v.72h-5v-.72c0-.521-.76-1.28-1.28-1.28h-2.66l1.57-9h9.74l1.57 9h-2.66z"/><path fill="#404447" d="M9.715 11.565s-.668.668-1.336 0l-2.004-3.534s-.647-.531 0-1.531h1.659l.01-2.335c0-.521.423-.665.944-.665h.116c.521 0 .944.144.944.665l-.011 2.335h1.68s.441.679 0 1.531c-.489.95-2.002 3.534-2.002 3.534"/></svg>