<svg width="18" height="18" viewBox="0 0 18 18" xmlns="http://www.w3.org/2000/svg" xmlns:xlink="http://www.w3.org/1999/xlink"><title>binoculars</title><desc>Created with Sketch.</desc><defs><path id="a" d="M0 17.037h18.031v-17.037h-18.031v17.037z"/></defs><g fill="none"><mask id="b"><use xlink:href="#a"/></mask><path d="M17.914 12.118l-.143-.809-.035-.141-1.599-8.633c-.16-.885-.682-1.643-1.432-2.081-.753-.436-1.577-.56-2.383-.358-1.349.339-2.291 1.604-2.291 3.077v.864h-2.031v-.864c0-1.473-.943-2.738-2.291-3.077-.806-.205-1.629-.081-2.384.359-.749.437-1.271 1.195-1.432 2.077l-1.771 9.569c-.073.302-.122.612-.122.936 0 2.206 1.794 4 4 4 2.153 0 3.902-1.713 3.984-3.847l.007-.02c.016-.113.061-.566.024-1.133h2.001c-.038.567.008 1.02.024 1.133l.007.02c.082 2.134 1.83 3.847 3.984 3.847 2.206 0 4-1.794 4-4 0-.317-.047-.623-.117-.919zm-13.914 2.92c-1.105 0-2-.895-2-2s.895-2 2-2c1.104 0 2 .895 2 2s-.896 2-2 2zm4-5.001h2.031v-4h-2.031v4zm6 5.001c-1.105 0-2-.895-2-2s.895-2 2-2c1.104 0 2 .895 2 2s-.896 2-2 2z" fill="#6F6F6F" mask="url(#b)"/></g></svg>