<svg width="18" height="18" viewBox="0 0 18 18" xmlns="http://www.w3.org/2000/svg"><title>boat-2</title><desc>Created with Sketch.</desc><path d="M17.126 11.046l-6.916-3.787c-.093-.051-.193-.092-.297-.112-.379-.073-.768-.073-1.147.001-.101.02-.198.059-.289.107l-6.949 3.722c-.542.29-.696.996-.325 1.486l3.845 5.067c.183.292.503.47.848.47h6.933c.322 0 .625-.156.813-.419l3.803-5.057c.366-.487.215-1.185-.319-1.478m-8.36-6.898c.379-.074.768-.074 1.147-.001.104.02.204.061.297.112l4.79 2.262v-3.521c0-.55-.45-1-1-1h-5.658v-1c0-.55-.45-1-1-1s-1 .45-1 1v1h-1.342c-.55 0-1 .45-1 1v3.47l4.477-2.215c.091-.048.188-.087.289-.107" fill="#6F6F6F"/></svg>