<svg width="18" height="18" viewBox="0 0 18 18" xmlns="http://www.w3.org/2000/svg"><title>bubble-chart</title><desc>Created with Sketch.</desc><path d="M17 16h-14.5c-.276 0-.5-.224-.5-.5v-14.5c0-.552-.448-1-1-1s-1 .448-1 1v15c0 1.105.895 2 2 2h15c.552 0 1-.447 1-1 0-.553-.448-1-1-1m-11-7c1.105 0 2-.895 2-2s-.895-2-2-2-2 .895-2 2 .895 2 2 2m7-1c1.657 0 3-1.343 3-3s-1.343-3-3-3-3 1.343-3 3 1.343 3 3 3m-2.5 5c.828 0 1.5-.671 1.5-1.5 0-.828-.672-1.5-1.5-1.5s-1.5.672-1.5 1.5c0 .829.672 1.5 1.5 1.5" fill="#6F6F6F"/></svg>