<svg width="18" height="18" viewBox="0 0 18 18" xmlns="http://www.w3.org/2000/svg"><title>calendar-date</title><desc>Created with Sketch.</desc><path d="M15.5 2h-.5v-1.01c0-.547-.443-.99-.99-.99h-.02c-.547 0-.99.443-.99.99v1.01h-7v-1.01c0-.547-.443-.99-.99-.99h-.02c-.547 0-.99.443-.99.99v1.01h-.5c-1.378 0-2.5 1.122-2.5 2.5v11c0 1.378 1.122 2.5 2.5 2.5h12c1.378 0 2.5-1.122 2.5-2.5v-11c0-1.378-1.122-2.5-2.5-2.5zm.5 13.5c0 .276-.224.5-.5.5h-12c-.276 0-.5-.224-.5-.5v-10c0-.276.224-.5.5-.5h12c.276 0 .5.224.5.5v10zm-3.293-8.207c-.391-.391-1.023-.391-1.414 0l-1.793 1.793-1.793-1.793c-.391-.391-1.023-.391-1.414 0s-.391 1.023 0 1.414l1.793 1.793-1.793 1.793c-.391.391-.391 1.023 0 1.414.195.195.451.293.707.293.256 0 .512-.098.707-.293l1.793-1.793 1.793 1.793c.195.195.451.293.707.293.256 0 .512-.098.707-.293.391-.391.391-1.023 0-1.414l-1.793-1.793 1.793-1.793c.391-.391.391-1.023 0-1.414z" fill="#6F6F6F"/></svg>