<svg width="18" height="18" viewBox="0 0 18 18" xmlns="http://www.w3.org/2000/svg"><title>cascade</title><desc>Created with Sketch.</desc><path d="M6 11v-4.5c0-.276.224-.5.5-.5h4.5c.552 0 1-.448 1-1s-.448-1-1-1h-4.5c-1.381 0-2.5 1.119-2.5 2.5v4.5c0 .552.448 1 1 1s1-.448 1-1m-4-4v-4.5c0-.276.224-.5.5-.5h4.5c.552 0 1-.448 1-1s-.448-1-1-1h-4.5c-1.381 0-2.5 1.119-2.5 2.5v4.5c0 .552.448 1 1 1s1-.448 1-1m13.5 1h-5c-1.379 0-2.5 1.122-2.5 2.5v5c0 1.379 1.121 2.5 2.5 2.5h5c1.379 0 2.5-1.121 2.5-2.5v-5c0-1.378-1.121-2.5-2.5-2.5m-5 4h5c.276 0 .5.224.5.5v3c0 .276-.224.5-.5.5h-5c-.276 0-.5-.224-.5-.5v-3c0-.276.224-.5.5-.5" fill="#6F6F6F"/></svg>