<svg xmlns="http://www.w3.org/2000/svg" viewBox="0 0 18 18" enable-background="new 0 0 18 18"><path d="M10 5c0-.6.4-1 1-1h6c.6 0 1 .4 1 1s-.4 1-1 1h-6c-.6 0-1-.4-1-1zm0 4c0-.6.4-1 1-1h6c.6 0 1 .4 1 1s-.4 1-1 1h-6c-.6 0-1-.4-1-1zm0 4c0-.6.4-1 1-1h6c.6 0 1 .4 1 1s-.4 1-1 1h-6c-.6 0-1-.4-1-1zm-2.3.3c-.4-.4-1-.4-1.4 0l-1.3 1.3v-11.2l1.3 1.3c.4.4 1 .4 1.4 0 .4-.4.4-1 0-1.4l-3-3c-.1-.1-.2-.2-.3-.2-.1-.1-.3-.1-.4-.1-.3 0-.5.1-.7.3l-3 3c-.4.4-.4 1 0 1.4.4.4 1 .4 1.4 0l1.3-1.3v11.2l-1.3-1.3c-.4-.4-1-.4-1.4 0-.4.4-.4 1 0 1.4l3 3c.1.1.2.2.3.2.1.1.3.1.4.1.3 0 .5-.1.7-.3l3-3c.4-.4.4-1 0-1.4z"/></svg>