<svg width="18" height="18" viewBox="0 0 18 18" xmlns="http://www.w3.org/2000/svg"><title>clear-supply-details</title><desc>Created with Sketch.</desc><path d="M.762 9.5h1.328c.485 3.389 3.404 6.004 6.927 6.004 2.868 0 5.335-1.66 6.416-4.153.248-.574-.122-1.232-.735-1.354-.46-.092-.92.151-1.103.583-.767 1.806-2.521 2.924-4.572 2.924-2.417 0-4.446-1.722-4.911-4.004h1.187c.605 0 .857-.479.732-1l-2.42-4.286c-.372-.526-.868-.527-1.161-.15l-2.419 4.436c-.125.417.126 1 .731 1m8.238-5.5h8c.553 0 1-.447 1-1 0-.553-.447-1-1-1h-8c-.553 0-1 .447-1 1 0 .553.447 1 1 1" fill="#6F6F6F"/></svg>