<svg width="18" height="18" viewBox="0 0 18 18" xmlns="http://www.w3.org/2000/svg" xmlns:xlink="http://www.w3.org/1999/xlink"><title>code</title><desc>Created with Sketch.</desc><defs><path id="a" d="M0 0v10h6v-10h-6z"/><path id="c" d="M6 10v-10h-6v10h6z"/></defs><g fill="none"><g transform="translate(0 2) translate(0 2.003)"><mask id="b"><use xlink:href="#a"/></mask><path d="M5 10c-.256 0-.512-.098-.707-.293l-4-4c-.391-.391-.391-1.023 0-1.414l4-4c.391-.391 1.023-.391 1.414 0s.391 1.023 0 1.414l-3.293 3.293 3.293 3.293c.391.391.391 1.023 0 1.414-.195.195-.451.293-.707.293" fill="#6F6F6F" mask="url(#b)"/></g><g transform="translate(0 2) translate(12 2.003)"><mask id="d"><use xlink:href="#c"/></mask><path d="M1 10c-.256 0-.512-.098-.707-.293-.391-.391-.391-1.023 0-1.414l3.293-3.293-3.293-3.293c-.391-.391-.391-1.023 0-1.414s1.023-.391 1.414 0l4 4c.391.391.391 1.023 0 1.414l-4 4c-.195.195-.451.293-.707.293" fill="#6F6F6F" mask="url(#d)"/></g><path d="M8.001 16.003l-.165-.014c-.545-.091-.913-.606-.822-1.15l2-12c.09-.546.607-.923 1.15-.822.545.09.913.606.822 1.15l-2 12c-.081.489-.505.836-.985.836" fill="#6F6F6F"/></g></svg>