<svg xmlns="http://www.w3.org/2000/svg" width="18" height="18" viewBox="0 0 18 18"><path fill="#5C5C5C" d="M9 9c0 .55-.45 1-1 1h-3c-.55 0-1-.45-1-1s.45-1 1-1h3c.55 0 1 .45 1 1zm-1 3h-3c-.55 0-1 .45-1 1 0 .551.45 1 1 1h3c.55 0 1-.449 1-1 0-.55-.45-1-1-1zm0-8h-3c-.55 0-1 .45-1 1s.45 1 1 1h3c.55 0 1-.45 1-1s-.45-1-1-1zm9 7v4.5c0 1.381-1.119 2.5-2.5 2.5h-12c-1.375 0-2.5-1.125-2.5-2.5v-13c0-1.375 1.125-2.5 2.5-2.5h8c1.375 0 2.5 1.125 2.5 2.5v7.5h3c.552 0 1 .448 1 1zm-5.818 5c-.112-.314-.182-.648-.182-1v-12.5c0-.271-.229-.5-.5-.5h-8c-.271 0-.5.229-.5.5v13c0 .271.229.5.5.5h8.682zm3.818-4h-2.002v3c0 .553.447 1 1 1h.002c.551 0 1-.447 1-1v-3z"/></svg>