<svg width="18" height="18" viewBox="0 0 18 18" xmlns="http://www.w3.org/2000/svg"><title>component1</title><desc>Created with Sketch.</desc><path d="M12 9c0-1.657-1.343-3-3-3s-3 1.343-3 3 1.343 3 3 3 3-1.343 3-3m-3 9c-4.963 0-9-4.038-9-9s4.037-9 9-9c1.583 0 3.141.417 4.504 1.206l-1.002 1.731c-1.06-.613-2.271-.937-3.502-.937-3.859 0-7 3.14-7 7s3.141 7 7 7 7-3.14 7-7c0-1.23-.323-2.44-.936-3.499l1.733-1.001c.787 1.363 1.203 2.919 1.203 4.5 0 4.962-4.037 9-9 9m6-18c-1.657 0-3 1.343-3 3s1.343 3 3 3 3-1.343 3-3-1.343-3-3-3m0 2c.551 0 1 .449 1 1 0 .551-.449 1-1 1-.551 0-1-.449-1-1 0-.551.449-1 1-1" fill="#6F6F6F"/></svg>