<svg width="18" height="18" viewBox="0 0 18 18" xmlns="http://www.w3.org/2000/svg"><title>copy-mail</title><desc>Created with Sketch.</desc><path d="M12.977 18h.523c1.381 0 2.5-1.119 2.5-2.5v-10.672c0-.53-.211-1.039-.586-1.414l-2.828-2.828c-.375-.375-.884-.586-1.414-.586h-6.672c-1.381 0-2.5 1.119-2.5 2.5v4.5c0 .553.447 1 1 1 .553 0 1-.447 1-1v-4.5c0-.276.224-.5.5-.5h5.5v3c0 .55.45 1 1 1h3v9.5c0 .276-.224.5-.5.5h-.522c-.543 0-.983.437-.986.979v.031c-.003.546.44.99.985.99zm-2.977-6c0-1.105-.895-2-2-2h-4c-1.105 0-2 .895-2 2l3.776 1.888c.141.071.307.071.448 0l3.776-1.888zm-8 2v2c0 1.104.895 2 2 2h4c1.105 0 2-.896 2-2v-2l-3.553 1.776c-.281.141-.613.141-.894 0l-3.553-1.776z" fill="#6F6F6F"/></svg>