<svg width="18" height="18" viewBox="0 0 18 18" xmlns="http://www.w3.org/2000/svg" xmlns:xlink="http://www.w3.org/1999/xlink"><title>del-grid-row</title><desc>Created with Sketch.</desc><defs><path id="a" d="M8 18h8v-18h-16v18h8z"/></defs><g transform="translate(1)" fill="none"><mask id="b"><use xlink:href="#a"/></mask><path d="M6 16h-3.5c-.275 0-.5-.225-.5-.5v-1c0-.275.225-.5.5-.5h3.5c.552 0 1-.448 1-1s-.448-1-1-1h-3.5c-.275 0-.5-.225-.5-.5v-2c0-.275.225-.5.5-.5h12.5c.552 0 1-.448 1-1v-5.541h-.004c-.023-1.359-1.132-2.459-2.496-2.459h-11c-1.364 0-2.473 1.1-2.496 2.459h-.004v13.041c0 1.381 1.119 2.5 2.5 2.5h3.5c.552 0 1-.448 1-1 0-.553-.448-1-1-1zm-4-13.5c0-.275.225-.5.5-.5h11c.275 0 .5.225.5.5v1c0 .275-.225.5-.5.5h-11c-.275 0-.5-.225-.5-.5v-1zm13.707 8.793c-.391-.391-1.023-.391-1.414 0l-1.793 1.793-1.793-1.793c-.391-.391-1.023-.391-1.414 0s-.391 1.023 0 1.414l1.793 1.793-1.793 1.793c-.391.391-.391 1.024 0 1.414.195.195.451.293.707.293.256 0 .512-.098.707-.293l1.793-1.793 1.793 1.793c.195.195.451.293.707.293.256 0 .512-.098.707-.293.391-.39.391-1.023 0-1.414l-1.793-1.793 1.793-1.793c.391-.391.391-1.023 0-1.414z" fill="#6F6F6F" mask="url(#b)"/></g></svg>