<svg width="18" height="18" viewBox="0 0 18 18" xmlns="http://www.w3.org/2000/svg" xmlns:xlink="http://www.w3.org/1999/xlink"><title>del-grid-record</title><desc>Created with Sketch.</desc><defs><path id="a" d="M8 18h8v-18h-16v18h8z"/></defs><g transform="translate(1)" fill="none"><mask id="b"><use xlink:href="#a"/></mask><path d="M15.707 11.293c-.391-.391-1.023-.391-1.414 0l-1.793 1.793-1.793-1.793c-.391-.391-1.023-.391-1.414 0s-.391 1.023 0 1.414l1.793 1.793-1.793 1.793c-.391.39-.391 1.023 0 1.414.195.195.451.293.707.293.256 0 .512-.098.707-.293l1.793-1.793 1.793 1.793c.195.195.451.293.707.293.256 0 .512-.098.707-.293.391-.391.391-1.024 0-1.414l-1.793-1.793 1.793-1.793c.391-.391.391-1.023 0-1.414zm-8.207-2.293h7.5c.552 0 1-.448 1-1v-5.542h-.004c-.023-1.359-1.132-2.458-2.496-2.458h-11c-1.381 0-2.5 1.119-2.5 2.5v13c0 1.381 1.119 2.5 2.5 2.5h3.5c.552 0 1-.448 1-1v-7.5c0-.276.224-.5.5-.5zm3.5-7h2.5c.275 0 .5.225.5.5v1c0 .275-.225.5-.5.5h-2.5v-2zm0 4h2.5c.275 0 .5.225.5.5v1c0 .275-.225.5-.5.5h-2.5v-2zm-4 2h2v-2h-2v2zm-2 8h-2.5c-.275 0-.5-.225-.5-.5v-1c0-.275.225-.5.5-.5h2.5v2zm0-4h-2.5c-.275 0-.5-.225-.5-.5v-1c0-.275.225-.5.5-.5h2.5v2zm0-4h-2.5c-.275 0-.5-.225-.5-.5v-1c0-.275.225-.5.5-.5h2.5v2zm0-4h-2.5c-.275 0-.5-.225-.5-.5v-1c0-.275.225-.5.5-.5h2.5v2z" fill="#6F6F6F" mask="url(#b)"/></g></svg>