<svg xmlns="http://www.w3.org/2000/svg" width="18" height="18" viewBox="0.5 0.5 18 18" enable-background="new 0.5 0.5 18 18"><path fill-rule="evenodd" clip-rule="evenodd" fill="#5C5C5C" d="M18.208 2.211l-8.288 9.509c-.27-.569-.63-1.09-1.09-1.55s-.98-.83-1.55-1.09l9.508-8.289c.39-.389 1.03-.389 1.42 0 .39.39.39 1.031 0 1.42zm-14.707 9.289c-1.941 1.956-.604 4.415-3 6.998 4.281 0 6.124-1.875 6.999-3 .875-1.124 1-2.998 0-3.998-.999-1-2.999-1-3.999 0zm13.999-1c-.553 0-1 .447-1 1v4.498c0 .276-.226.502-.502.502h-4.498c-.553 0-1 .447-1 1s.447 1 1 1h4.498c1.381 0 2.502-1.121 2.502-2.502v-4.498c0-.553-.447-1-1-1zm-16-2c.553 0 1-.447 1-1v-4.499c0-.276.225-.501.501-.501h4.499c.553 0 1-.447 1-1s-.447-1-1-1h-4.499c-1.38 0-2.501 1.121-2.501 2.501v4.499c0 .553.447 1 1 1z"/></svg>