<svg width="18" height="18" viewBox="0 0 18 18" xmlns="http://www.w3.org/2000/svg"><title>emoticon-2</title><desc>Created with Sketch.</desc><path d="M6.5 8c.828 0 1.5-.672 1.5-1.5s-.672-1.5-1.5-1.5-1.5.672-1.5 1.5.672 1.5 1.5 1.5m5 0c.828 0 1.5-.672 1.5-1.5s-.672-1.5-1.5-1.5-1.5.672-1.5 1.5.672 1.5 1.5 1.5m-2.5 8.2c-3.97 0-7.2-3.23-7.2-7.2s3.23-7.2 7.2-7.2 7.2 3.23 7.2 7.2-3.23 7.2-7.2 7.2m0-16.2c-4.971 0-9 4.029-9 9s4.029 9 9 9 9-4.029 9-9-4.029-9-9-9m4.457 10.12c-.485-.255-1.085-.061-1.345.42-.032.059-.813 1.46-3.112 1.46-2.278 0-3.066-1.376-3.111-1.458-.25-.485-.845-.68-1.336-.437-.494.247-.694.848-.448 1.342.052.105 1.318 2.553 4.895 2.553 3.577 0 4.843-2.448 4.894-2.553.245-.488.049-1.076-.437-1.327" fill="#6F6F6F"/></svg>