<svg width="18" height="18" viewBox="0 0 18 18" xmlns="http://www.w3.org/2000/svg"><title>emoticon-3</title><desc>Created with Sketch.</desc><path d="M6.5 8c.828 0 1.5-.672 1.5-1.5s-.672-1.5-1.5-1.5-1.5.672-1.5 1.5.672 1.5 1.5 1.5m5 0c.828 0 1.5-.672 1.5-1.5s-.672-1.5-1.5-1.5-1.5.672-1.5 1.5.672 1.5 1.5 1.5m-2.5 8.2c-3.97 0-7.2-3.23-7.2-7.2s3.23-7.2 7.2-7.2 7.2 3.23 7.2 7.2-3.23 7.2-7.2 7.2m0-16.2c-4.971 0-9 4.029-9 9s4.029 9 9 9 9-4.029 9-9-4.029-9-9-9m.001 10.001c-3.577 0-4.843 2.448-4.895 2.553-.247.494-.046 1.094.448 1.342.491.243 1.086.048 1.336-.437.045-.082.833-1.458 3.111-1.458 2.299 0 3.08 1.4 3.112 1.46.26.48.86.675 1.345.42.485-.251.682-.839.437-1.327-.051-.105-1.317-2.553-4.894-2.553" fill="#6F6F6F"/></svg>