<svg width="18" height="18" viewBox="0 0 18 18" xmlns="http://www.w3.org/2000/svg"><title>exceptions</title><desc>Created with Sketch.</desc><path d="M17.461 6.768c-.49-1.928-1.623-3.724-3.411-5.044-3.116-2.298-7.494-2.298-10.609 0-1.788 1.32-2.922 3.116-3.411 5.044-.159.625.334 1.231.979 1.231h15.472c.646 0 1.138-.606.98-1.231m-17.431 4.462c.489 1.928 1.623 3.724 3.411 5.044 3.115 2.298 7.493 2.298 10.609 0 1.788-1.32 2.921-3.116 3.411-5.044.158-.625-.334-1.231-.98-1.231h-15.472c-.645 0-1.138.606-.979 1.231" fill="#6F6F6F"/></svg>