<svg width="18" height="18" viewBox="0 0 18 18" xmlns="http://www.w3.org/2000/svg" xmlns:xlink="http://www.w3.org/1999/xlink"><title>expense-report</title><desc>Created with Sketch.</desc><defs><path id="a" d="M14 9v-9h-14v18h14v-9z"/></defs><g transform="translate(2)" fill="none"><mask id="b"><use xlink:href="#a"/></mask><path d="M11 3.009c0 .547-.443.991-.99.991h-6.02c-.547 0-.99-.444-.99-.991v-.019c0-.547.443-.99.99-.99h6.02c.547 0 .99.443.99.99v.019zm0 4.001c0 .546-.443.99-.99.99h-6.02c-.547 0-.99-.444-.99-.99v-.02c0-.547.443-.99.99-.99h6.02c.547 0 .99.443.99.99v.02zm0 4c0 .547-.443.99-.99.99h-3.02c-.547 0-.99-.443-.99-.99v-.02c0-.547.443-.99.99-.99h3.02c.547 0 .99.443.99.99v.02zm3 2.49v-11c0-1.379-1.122-2.5-2.5-2.5h-9c-1.378 0-2.5 1.121-2.5 2.5v14.5c0 .55.45 1 1 1s1-.45 1-1v-1.05l2 .05v1c0 .55.45 1 1 1s1-.45 1-1v-1l2-.016v1.016c0 .55.45 1 1 1s1-.45 1-1v-1.033l2-.017v1.05c0 .55.45 1 1 1s1-.45 1-1v-3.5z" fill="#6F6F6F" mask="url(#b)"/></g></svg>