<svg width="18" height="18" viewBox="0 0 18 18" xmlns="http://www.w3.org/2000/svg" xmlns:xlink="http://www.w3.org/1999/xlink"><title>find-prev</title><desc>Created with Sketch.</desc><defs><path id="a" d="M9.249 18h9.015v-17.037h-18.031v17.037h9.015z"/></defs><g fill="none"><path d="M.314 2.328s2.53-1.602 3.536-2.121c.902-.466 1.414 0 1.414 0v1.793h2c.55 0 1 .45 1 1s-.45 1-1 1h-2v1.864c-.685.685-1.414 0-1.414 0l-3.536-2.122c-.707-.707 0-1.414 0-1.414" fill="#6F6F6F"/><mask id="b"><use xlink:href="#a"/></mask><path d="M2.264 14.001c0-1.105.896-2 2-2 1.105 0 2 .895 2 2s-.895 2-2 2c-1.104 0-2-.895-2-2zm5.969-3.001h2.031v-4h-2.031v4zm4.031 3.001c0-1.105.896-2 2-2 1.105 0 2 .895 2 2s-.895 2-2 2c-1.104 0-2-.895-2-2zm-5.586-6.723c-.574.574-1.314.89-2.085.89-.877 0-1.22-.231-1.893-.662l-1.184-.71-.988 5.335-.035.141-.143.809c-.07.296-.117.602-.117.919 0 2.206 1.794 4 4 4 2.154 0 3.902-1.713 3.984-3.847l.007-.02c.016-.113.062-.566.024-1.133h2.001c-.037.567.008 1.02.024 1.133l.007.02c.082 2.134 1.831 3.847 3.984 3.847 2.206 0 4-1.794 4-4 0-.324-.049-.634-.122-.936l-1.771-9.569c-.161-.882-.683-1.64-1.432-2.077-.755-.44-1.578-.564-2.384-.359-1.348.339-2.291 1.604-2.291 3.077v.864h-.78c-.55.609-1.337 1-2.22 1 0 0-.068.765-.586 1.278z" fill="#6F6F6F" mask="url(#b)"/></g></svg>