<svg width="18" height="18" viewBox="0 0 18 18" xmlns="http://www.w3.org/2000/svg"><title>find-next</title><desc>Created with Sketch.</desc><g fill="#6F6F6F"><path d="M17.95 2.328s-2.53-1.602-3.536-2.121c-.902-.466-1.414 0-1.414 0v1.793h-2c-.55 0-1 .45-1 1s.45 1 1 1h2v1.864c.685.685 1.414 0 1.414 0l3.536-2.122c.707-.707 0-1.414 0-1.414"/><path d="M14 16.001c-1.105 0-2-.895-2-2s.895-2 2-2c1.104 0 2 .895 2 2s-.896 2-2 2zm-6-5.001h2.031v-4h-2.031v4zm-4 5.001c-1.105 0-2-.895-2-2s.895-2 2-2c1.104 0 2 .895 2 2s-.896 2-2 2zm7-10.001c-.883 0-1.67-.391-2.22-1h-.78v-.864c0-1.473-.943-2.738-2.291-3.077-.806-.205-1.629-.081-2.384.359-.749.437-1.271 1.195-1.432 2.077l-1.771 9.569c-.073.302-.122.612-.122.936 0 2.206 1.794 4 4 4 2.153 0 3.902-1.713 3.984-3.847l.007-.02c.016-.113.061-.566.024-1.133h2.001c-.038.567.008 1.02.024 1.133l.007.02c.082 2.134 1.83 3.847 3.984 3.847 2.206 0 4-1.794 4-4 0-.317-.047-.623-.117-.919l-.143-.809-.035-.141-.988-5.335-1.184.71c-.673.431-1.016.662-1.893.662-.771 0-1.511-.316-2.085-.89-.518-.513-.586-1.278-.586-1.278z"/></g></svg>