<svg width="18" height="18" viewBox="0 0 18 18" xmlns="http://www.w3.org/2000/svg"><title>formula-constituents</title><desc>Created with Sketch.</desc><path d="M15.978 14.891l-.041-.202-.082-.174-.05-.109-3.805-4.74v-5.666c.55 0 1-.45 1-1s-.45-1-1-1h-6c-.55 0-1 .45-1 1s.45 1 1 1v5.666l-3.805 4.74-.05.109-.082.174-.041.202-.022.109.014.071.042.205.058.165.115.17.119.132.056.062.115.054.166.077.206.042.109.022h12l.109-.022.206-.042.166-.077.115-.054.056-.062.119-.132.115-.17.058-.165.042-.205.014-.071-.022-.109m-7.478-10.891h1c.276 0 .5.224.5.5v5c0 .276-.224.5-.5.5h-1c-.276 0-.5-.224-.5-.5v-5c0-.276.224-.5.5-.5" fill="#6F6F6F"/></svg>