<svg width="18" height="18" viewBox="0 0 18 18" xmlns="http://www.w3.org/2000/svg"><title>genealogy</title><desc>Created with Sketch.</desc><g fill="#5C5C5C"><path d="M4 18c-.552 0-1-.448-1-1v-1.343c0-1.336.52-2.591 1.464-3.535l7.658-7.658c.558-.558.878-1.331.878-2.121v-1.343c0-.552.448-1 1-1s1 .448 1 1v1.343c0 1.336-.52 2.591-1.464 3.535l-7.658 7.658c-.558.558-.878 1.331-.878 2.121v1.343c0 .552-.448 1-1 1"/><path d="M5.878 4.464c-.558-.559-.878-1.332-.878-2.121v-1.343c0-.553-.448-1-1-1-.553 0-1 .447-1 1v1.343c0 1.335.52 2.591 1.464 3.535l1.622 1.622 1.414-1.414-1.622-1.622zM13.536 12.122l-1.622-1.622-1.414 1.414 1.622 1.622c.558.559.878 1.332.878 2.121v1.343c0 .553.448 1 1 1 .553 0 1-.447 1-1v-1.343c0-1.335-.52-2.591-1.464-3.535M10 3h-2c-.552 0-1-.448-1-1s.448-1 1-1h2c.552 0 1 .448 1 1s-.448 1-1 1M10 17h-2c-.552 0-1-.448-1-1s.448-1 1-1h2c.552 0 1 .448 1 1s-.448 1-1 1"/></g></svg>