<svg width="18" height="18" viewBox="0 0 18 18" xmlns="http://www.w3.org/2000/svg"><title>heart-outlined</title><desc>Created with Sketch.</desc><path d="M13.028 1c-1.28 0-2.559.488-3.535 1.464-.977-.976-2.256-1.464-3.536-1.464-1.43 0-2.859.609-3.866 1.828-1.663 2.014-1.364 5.013.482 6.86l6.212 6.211c.196.196.452.293.708.293.255 0 .511-.097.707-.293l6.212-6.211c1.846-1.847 2.145-4.846.482-6.86-1.006-1.219-2.436-1.828-3.866-1.828m0 2c.899 0 1.746.402 2.324 1.102.968 1.172.812 3.004-.354 4.171l-5.505 5.505-5.505-5.505c-1.167-1.167-1.323-2.999-.355-4.171.578-.7 1.425-1.102 2.324-1.102.801 0 1.555.312 2.121.879l1.415 1.414 1.414-1.414c.566-.567 1.32-.879 2.121-.879" fill="#5C5C5C"/></svg>