<svg width="18" height="18" viewBox="0 0 18 18" xmlns="http://www.w3.org/2000/svg"><title>history</title><desc>Created with Sketch.</desc><path d="M13.774 5.56c.173.115.329.26.49.4.173.151.335.312.486.486.139.16.285.317.4.49l.228.419c.08.15.172.294.236.449l.127.408c.055.177.122.352.158.535l.038.245s.071 1.008 1.059 1.008c1.118 0 1-1 1-1-.067-.416-.064-.321-.13-.613l-.002-.012c-.035-.179-.08-.353-.128-.525l-.038-.15-.143-.409-.092-.251-.137-.296-.163-.337-.112-.191-.246-.405-.064-.086c-.234-.337-.496-.661-.795-.961-.299-.298-.621-.559-.956-.792l-.091-.067-.402-.243-.194-.116-.332-.159-.302-.141-.242-.088-.419-.146-.134-.035c-.598-.168-1.226-.264-1.878-.264v.004c-1.2 0-2.397.314-3.47.926l-.667-1.222c-.29-.531-.915-.58-1.156-.03l-2.806 4.117c-.192.437.113.907.687.946l4.849-.062c.593.094.89-.458.6-.989l-.542-.994c.934-.543 2-.754 3.045-.641l.427.044c.183.035.359.102.538.158l.405.126c.155.064.3.156.45.237l.418.227zm-10.774 6.44h-1c-1.101 0-2 .9-2 2v1c0 1.1.899 2 2 2h1c1.1 0 2-.9 2-2v-1c0-1.1-.9-2-2-2zm-1 3h1v-1h-1v1zm7-3h-1.001c-1.1 0-2 .9-2 2v1c0 1.1.9 2 2 2h1.001c1.099 0 2-.9 2-2v-1c0-1.1-.901-2-2-2zm-1.001 3h1.001v-1h-1.001v1zm8.001-3h-1.001c-1.1 0-2 .9-2 2v1c0 1.1.9 2 2 2h1.001c1.1 0 2-.9 2-2v-1c0-1.1-.9-2-2-2z" fill="#6F6F6F"/></svg>