<svg xmlns="http://www.w3.org/2000/svg" width="18" height="18" viewBox="-2.5 -1.5 18 18" enable-background="new -2.5 -1.5 18 18"><path d="M6.5 4.498c-.553 0-1 .449-1 1v2.587l-1.712 1.706c-.392.393-.36 1.021.028 1.413.194.196.44.297.695.297.257 0 .518-.101.715-.297l1.973-1.999c.187-.184.301-.441.301-.707v-3.002c0-.551-.448-.998-1-.998zm8.445-.051c.73-.738.73-1.94 0-2.691l-2.66-2.703c-.745-.737-1.941-.737-2.674 0l-1.556 1.563c.188.036-.832-.162-1.558-.162-.529 0-1.043.054-1.544.153l-1.547-1.554c-.732-.737-1.928-.737-2.673 0l-2.662 2.703c-.731.75-.731 1.952 0 2.691l1.003 1.02c-.385.943-.602 1.978-.602 3.06 0 3.912 2.772 7.254 6.592 7.943l.195.021c.519 0 .981-.375 1.077-.906.107-.6-.289-1.174-.884-1.281-2.777-.503-4.791-2.929-4.791-5.775 0-3.235 2.618-5.868 5.834-5.868 2.507 0 4.729 1.604 5.528 3.991.189.576.81.887 1.387.691.572-.193.882-.818.689-1.396-.072-.222-.211-.518-.186-.454l1.032-1.046zm-.445 7.053h-2v-2c0-.553-.447-1-1-1s-1 .447-1 1v2h-2c-.553 0-1 .447-1 1s.447 1 1 1h2v2c0 .553.447 1 1 1s1-.447 1-1v-2h2c.553 0 1-.447 1-1s-.447-1-1-1z" fill="#5C5C5C"/></svg>