<svg xmlns="http://www.w3.org/2000/svg" width="18" height="18" viewBox="-2.5 -1.5 18 18" enable-background="new -2.5 -1.5 18 18"><path d="M6.5 4.498c-.552 0-1 .449-1 1.001v2.585l-1.708 1.707c-.393.392-.358 1.022.03 1.413.195.196.44.297.696.297.258 0 .518-.1.716-.297l1.969-1.999c.187-.184.297-.441.297-.707v-3.002c0-.551-.448-.998-1-.998zm8.453-.051c.729-.738.729-1.941 0-2.691l-2.661-2.703c-.744-.737-1.942-.737-2.674 0l-1.556 1.563c.187.036-.833-.162-1.56-.162-.529 0-1.043.054-1.543.153l-1.547-1.554c-.731-.737-1.928-.737-2.673 0l-2.662 2.703c-.731.75-.731 1.952 0 2.691l1.003 1.02c-.385.943-.601 1.978-.601 3.06 0 3.912 2.771 7.254 6.592 7.944l.196.021c.519 0 .98-.374 1.077-.907.107-.6-.29-1.174-.886-1.281-2.777-.503-4.79-2.929-4.79-5.776 0-3.235 2.618-5.868 5.834-5.868 2.508 0 4.73 1.604 5.53 3.991.188.576.809.887 1.384.691.573-.193.884-.819.69-1.396-.073-.222-.211-.518-.185-.454l1.032-1.045zM10.5 15.938c0 .311-.252.562-.562.562h-.876c-.311 0-.562-.252-.562-.562v-5.875c0-.311.252-.563.562-.563h.875c.311 0 .562.252.562.562v5.876zm3 0c0 .311-.252.562-.562.562h-.875c-.311 0-.562-.252-.562-.562v-5.875c0-.311.252-.562.562-.562h.875c.311 0 .562.252.562.562v5.875z" fill="#5C5C5C"/></svg>