<svg xmlns="http://www.w3.org/2000/svg" width="14" height="14" viewBox="-0.5 0.5 14 14" enable-background="new -0.5 0.5 14 14"><path fill="#5C5C5C" d="M9.5.5h-6c-1.1 0-2 .9-2 2v1h-1.5c-.28 0-.5.22-.5.5s.22.5.5.5h1.5v1h-1.5c-.28 0-.5.22-.5.5s.22.5.5.5h1.5v1h-1.5c-.28 0-.5.22-.5.5s.22.5.5.5h1.5v1h-1.5c-.28 0-.5.22-.5.5s.22.5.5.5h1.5c0 1.1.9 2 2 2h3v-3.5c0-1.38 1.12-2.5 2.5-2.5h2.5v-4c0-1.1-.9-2-2-2zm-1.43 3.43h-3.43c-.47 0-.85-.39-.85-.86s.38-.86.85-.86h3.43c.47 0 .859.39.859.86.001.47-.389.86-.859.86zM12.215 12.896c0 .178-.146.321-.32.321h-2.49c-.178 0-.32-.145-.32-.321v-4c0-.178.144-.32.32-.32h1.454v1.281c0 .354.287.643.641.643h.715v2.396zm.906-3.414l-1.811-1.812c-.24-.241-.568-.377-.908-.377h-.996c-.885 0-1.604.72-1.604 1.604v3.998c0 .886.72 1.604 1.604 1.604h2.489c.883 0 1.604-.719 1.604-1.604v-2.504c-.001-.342-.136-.668-.378-.909z"/></svg>