<svg xmlns="http://www.w3.org/2000/svg" width="18" height="18" viewBox="-2.5 -1.5 18 18" enable-background="new -2.5 -1.5 18 18"><g fill="#5C5C5C"><path d="M15.177 9.11c-.431-.433-1.129-.433-1.56 0l-1.976 1.976-1.975-1.976c-.431-.433-1.128-.433-1.559 0-.432.431-.432 1.127 0 1.556l1.976 1.978-1.975 1.976c-.431.43-.431 1.126 0 1.557.215.213.498.323.779.323s.562-.11.777-.323l1.975-1.977 1.978 1.977c.216.213.497.323.778.323.283 0 .562-.11.777-.323.431-.431.431-1.127 0-1.557l-1.973-1.979 1.977-1.976c.431-.428.431-1.126.001-1.555"/><path d="M6.5 4.498c-.553 0-1 .449-1 1v2.587l-1.712 1.706c-.392.392-.36 1.022.028 1.413.194.196.44.297.695.297.257 0 .518-.1.715-.297l1.973-1.999c.187-.184.301-.441.301-.707v-3.002c0-.551-.448-.998-1-.998zm8.446-.051c.73-.738.73-1.94 0-2.691l-2.661-2.703c-.745-.737-1.941-.737-2.674 0l-1.556 1.563c.188.036-.832-.162-1.558-.162-.529 0-1.043.054-1.544.153l-1.547-1.554c-.732-.737-1.928-.737-2.673 0l-2.662 2.703c-.731.75-.731 1.952 0 2.691l1.003 1.02c-.385.943-.602 1.978-.602 3.06 0 3.912 2.772 7.254 6.592 7.944l.195.021c.519 0 .981-.375 1.077-.906.107-.6-.289-1.174-.884-1.281-2.777-.503-4.791-2.929-4.791-5.776 0-3.235 2.618-5.868 5.834-5.868 2.507 0 4.729 1.604 5.528 3.991.19.576.81.887 1.387.691.573-.193.882-.818.689-1.396-.072-.222-.211-.518-.185-.454l1.032-1.046z"/></g></svg>