<svg xmlns="http://www.w3.org/2000/svg" width="14" height="14" viewBox="-0.5 1.5 14 14" enable-background="new -0.5 1.5 14 14"><path d="M4.334 10.281l1.273-1.327v-2.013c0-.428.445-.777.875-.777.429 0 .875.35.875.777v2.334c0 .207-.133.404-.277.551l-1.579 1.556c-.151.152-.362.229-.562.229s-.403-.076-.557-.229c-.3-.304-.351-.795-.048-1.101zm8.739-6.254l-2.073-2.096c-.578-.572-1.507-.572-2.075 0l-1.211 1.219c-.402-.082-.814-.128-1.235-.128-.397 0-.785.041-1.164.112l-1.186-1.195c-.568-.581-1.515-.581-2.102 0l-2.101 2.124c-.569.59-.569 1.531 0 2.113l.754.756c.016-.037-.47 1.138-.463 2.388 0 2.767 1.838 5.25 4.471 6.039l.25.037c.379 0 .726-.248.84-.629.139-.467-.125-.957-.588-1.097-1.896-.567-3.222-2.358-3.222-4.353 0-2.502 2.024-4.537 4.513-4.537 2.23 0 4.149 1.67 4.467 3.888.068.479.508.812.99.746.479-.069.812-.515.742-.996-.072-.519-.215-1.013-.406-1.481l.801-.815c.568-.572.568-1.505-.002-2.095zM9 15.5h-1c-.276 0-.5-.224-.5-.5v-4c0-.276.224-.5.5-.5h1c.276 0 .5.224.5.5v4c0 .276-.224.5-.5.5zm3 0h-1c-.276 0-.5-.224-.5-.5v-4c0-.276.224-.5.5-.5h1c.276 0 .5.224.5.5v4c0 .276-.224.5-.5.5z" fill="#5C5C5C"/></svg>