<svg xmlns="http://www.w3.org/2000/svg" width="18" height="18" viewBox="-2.5 -1.5 18 18" enable-background="new -2.5 -1.5 18 18"><path fill="#5C5C5C" d="M15.21 8.12l-2.95 2.96c-.2.189-.45.29-.71.29s-.51-.101-.71-.29c-.39-.4-.39-1.03 0-1.42l1.17-1.16h-4.51v4.58l1.29-1.29c.39-.39 1.03-.39 1.42 0s.39 1.03 0 1.42l-2.95 2.95c-.2.189-.46.29-.71.29-.26 0-.51-.101-.71-.29l-2.95-2.95c-.39-.39-.39-1.03 0-1.42.39-.39 1.03-.39 1.42 0l1.19 1.19v-4.48h-4.59l1.25 1.24c.39.39.39 1.029 0 1.42-.2.189-.45.29-.71.29-.26 0-.51-.101-.71-.29l-2.95-2.95c-.39-.39-.39-1.03 0-1.42l2.95-2.95c.39-.39 1.03-.39 1.42 0 .39.39.39 1.03 0 1.42l-1.25 1.24h4.59v-4.58l-1.23 1.24c-.4.39-1.03.39-1.42 0-.39-.39-.39-1.03 0-1.42l2.95-2.95c.39-.39 1.02-.39 1.41 0l2.96 2.95c.39.39.39 1.03 0 1.42-.2.19-.46.29-.71.29-.26 0-.51-.1-.71-.29l-1.25-1.26v4.6h4.67l-1.33-1.33c-.39-.39-.39-1.02 0-1.41.391-.39 1.03-.39 1.42 0l2.95 2.95c.39.39.39 1.02 0 1.41z"/></svg>