<svg xmlns="http://www.w3.org/2000/svg" width="18" height="18" viewBox="-2.5 -1.5 18 18" enable-background="new -2.5 -1.5 18 18"><path fill="#5C5C5C" d="M.5 10.5h-1c-1.1 0-2 .9-2 2v1c0 1.1.9 2 2 2h1c1.1 0 2-.9 2-2v-1c0-1.1-.9-2-2-2zm0 3h-1v-1h1v1zm6-3h-1c-1.1 0-2 .9-2 2v1c0 1.1.9 2 2 2h1c1.1 0 2-.9 2-2v-1c0-1.1-.9-2-2-2zm0 3h-1v-1h1v1zm7-3h-1c-1.1 0-2 .9-2 2v1c0 1.1.9 2 2 2h1c1.1 0 2-.9 2-2v-1c0-1.1-.9-2-2-2zm1.87-3l-.042-.178c-.72-3.359-3.712-5.832-7.298-5.832-1.34 0-2.59.38-3.68 1.01l-.56-1.01c-.31-.56-.83-.61-1.24-.02l-2.99 4.2c-.2.47.12.83.74.83h4.86c.63 0 1.25-.37.94-.93l-.74-1.265c.78-.46 1.7-.667 2.67-.667 2.42 0 4.47 1.642 5.12 3.862h.012l.094.364c.147.576.732.922 1.307.773.517-.132.854-.621.807-1.137z"/></svg>