<svg width="18" height="18" viewBox="0 0 18 18" xmlns="http://www.w3.org/2000/svg"><title>import-xml</title><desc>Created with Sketch.</desc><path d="M4 2h-1.269c-.605 0-.947.861-.58 1.337l2.269 4.403c.292.378.868.328 1.16-.05l2.269-4.329c.367-.474.025-1.361-.58-1.361h-1.269v-1c0-.553-.448-1-1-1s-1 .447-1 1v1zm11 14h-3v-5h1v4h2v1zm-4 0h-1v-3h-1v3h-1v-5h1v1h1v-1h1v5zm-4-3h-1v1h1v2h-1v-2h-1v2h-1v-2h1v-1h-1v-2h1v2h1v-2h1v2zm9.414-8.586l-2.828-2.828c-.375-.375-.884-.586-1.415-.586h-1.171c-.552 0-1 .447-1 1 0 .553.448 1 1 1v3c0 .55.45 1 1 1h3v2h-12c-.552 0-1 .447-1 1v5.5c0 1.381 1.119 2.5 2.5 2.5h10c1.381 0 2.5-1.119 2.5-2.5v-9.672c0-.53-.211-1.039-.586-1.414z" fill="#5C5C5C"/></svg>