<svg width="18" height="18" viewBox="0 0 18 18" xmlns="http://www.w3.org/2000/svg"><title>infinite-resource</title><desc>Created with Sketch.</desc><path d="M3.981 7c-1.083 0-1.98.898-1.98 2 0 1.103.897 2 2 2-.003 0 1.371-.087 3.541-2-2.17-1.913-3.546-2-3.561-2zm6.479 2c2.169 1.913 3.545 2 3.56 2 1.083 0 1.981-.897 1.981-2 0-1.098-.89-1.992-1.986-2-.096.008-1.453.146-3.555 2zm3.535 4c-.247 0-2.183-.088-4.994-2.621-2.833 2.553-4.762 2.669-5.006 2.621-2.201 0-3.994-1.794-3.994-4s1.793-4 4-4c.222.009 2.167.067 5 2.621 2.811-2.533 4.747-2.621 5-2.621h.002c2.206.002 3.998 1.796 3.998 4 0 2.206-1.794 4-4 4h-.006z" fill="#6F6F6F"/></svg>