<svg width="18" height="18" viewBox="0 0 18 18" xmlns="http://www.w3.org/2000/svg"><title>invoice-released</title><desc>Created with Sketch.</desc><path d="M1 10h9.565l-2.331 2.32c-.392.388-.396 1.037-.009 1.43.39.393 1.022.404 1.416.016l4.062-3.996c.393-.388.396-1.019.009-1.412l-4-4.061c-.196-.198-.454-.297-.712-.297-.254 0-.508.096-.703.289-.393.388-.397.989-.009 1.382l2.318 2.329h-9.606c-.553 0-1 .448-1 1s.447 1 1 1m14.599-10h-13.099c-1.379 0-2.5 1.122-2.5 2.5v2.5c0 .552.447 1 1 1 .553 0 1-.448 1-1v-2.5c0-.276.225-.5.5-.5h13.099c.389 0 .401.449.401.5v13c0 .051-.012.5-.401.5h-13.099c-.275 0-.5-.224-.5-.5v-2.5c0-.552-.447-1-1-1-.553 0-1 .448-1 1v2.5c0 1.379 1.121 2.5 2.5 2.5h13.099c1.346 0 2.401-1.098 2.401-2.5v-13c0-1.402-1.055-2.5-2.401-2.5" fill="#6F6F6F"/></svg>