<svg width="18" height="18" viewBox="0 0 18 18" xmlns="http://www.w3.org/2000/svg"><title>KB</title><desc>Created with Sketch.</desc><path d="M15.103 15.136c0-.015.03-1.136-1.103-1.136-1 0-1-1-1-1 0-.635.423-1 1-1 1.128 0 1.127-1.113 1.127-1.115.539.543.873 1.289.873 2.115 0 .837-.344 1.592-.897 2.136zm-2.091.864c-1.683 0-3.012-1.343-3.012-3 0-.354.059-.689.172-1.005.064.002.84.027.84 1.005 0 1 1 1 1 1s1 0 1 1v1zm-.012-8c-2.722 0-5 2.278-5 5 0 2.721 2.279 5 5 5 2.72 0 5-2.279 5-5 0-2.722-2.278-5-5-5zm-6.318 8h-3.683c-.551 0-1-.448-1-1s.449-1 1-1h3.08c-.047-.327-.08-.66-.08-1 0-2.551 1.369-4.777 3.408-6h-3.408c-.55 0-1-.45-1-1v-2c0-.55.45-1 1-1h5c.55 0 1 .45 1 1v2l-.016.082c.333-.049.67-.082 1.016-.082 1.076 0 2.09.25 3 .683v-4.683c0-1.103-.897-2-2-2h-11c-1.654 0-3 1.346-3 3v12c0 1.654 1.346 3 3 3h5.106c-.586-.574-1.067-1.251-1.423-2z" fill="#5C5C5C"/></svg>