<svg width="18" height="18" viewBox="0 0 18 18" xmlns="http://www.w3.org/2000/svg"><title>key</title><desc>Created with Sketch.</desc><path d="M17.459 16.046l-7.288-7.289c1.286-1.941 1.075-4.582-.636-6.292-.976-.977-2.256-1.465-3.535-1.465-1.28 0-2.559.488-3.536 1.465-1.952 1.952-1.952 5.118 0 7.071.977.976 2.256 1.464 3.536 1.464.962 0 1.924-.277 2.757-.829l1.485 1.486-1.585 1.586c-.389.389-.389 1.025 0 1.414.388.389 1.025.389 1.414 0l1.586-1.586 1.414 1.414-1.586 1.586c-.389.389-.389 1.025 0 1.414s1.025.389 1.414 0l1.586-1.585 1.56 1.56c.389.388 1.025.388 1.414 0 .389-.389.389-1.026 0-1.414m-11.459-7.046c-.802 0-1.555-.312-2.122-.879-.566-.566-.878-1.32-.878-2.121 0-.801.312-1.555.878-2.121.567-.567 1.32-.879 2.122-.879.801 0 1.554.312 2.121.879.567.566.879 1.32.879 2.121 0 .801-.312 1.555-.879 2.121-.567.567-1.32.879-2.121.879" fill="#6F6F6F"/></svg>