<svg width="18" height="18" viewBox="0 0 18 18" xmlns="http://www.w3.org/2000/svg"><title>lasso</title><desc>Created with Sketch.</desc><path d="M14.443 8.972c-1.239 1.098-3.066 1.84-5.015 2.036l-.499.025c-.231-1.143-1.239-2.003-2.45-2.003-.872 0-1.638.448-2.085 1.125-1.353-.697-2.261-1.74-2.38-2.927-.145-1.445.879-2.588 1.501-3.14 1.239-1.098 3.067-1.84 5.015-2.035.35-.036.703-.053 1.05-.053 3.353 0 6.149 1.683 6.364 3.832.145 1.445-.878 2.588-1.501 3.14m3.491-3.34c-.327-3.267-3.953-5.632-8.354-5.632-.411 0-.827.02-1.249.062-4.946.496-8.665 3.794-8.307 7.366.211 2.103 1.793 3.828 4.064 4.794l.068.217-2.884 2.884c-.39.391-.39 1.023 0 1.414.196.195.451.293.707.293.256 0 .512-.098.707-.293l2.884-2.884c.282.111.588.177.909.177.803 0 1.509-.385 1.967-.973.389-.002.783-.019 1.182-.059 4.945-.496 8.664-3.794 8.306-7.366" fill="#6F6F6F"/></svg>