<svg width="18" height="18" viewBox="0 0 18 18" xmlns="http://www.w3.org/2000/svg"><title>line-chart</title><desc>Created with Sketch.</desc><path d="M17 18h-14.5c-1.381 0-2.5-1.119-2.5-2.5v-14.5c0-.553.448-1 1-1s1 .447 1 1v14.5c0 .276.224.5.5.5h14.5c.552 0 1 .447 1 1 0 .553-.448 1-1 1m-12.001-6c-.208 0-.419-.066-.599-.2-.442-.331-.531-.958-.2-1.4l3-4c.332-.441.958-.531 1.4-.2l3.24 2.43 4.392-5.27c.353-.425.983-.481 1.408-.128.424.353.482.984.128 1.409l-5 6c-.34.409-.942.478-1.368.159l-3.2-2.4-2.4 3.2c-.196.262-.497.4-.801.4" fill="#6F6F6F"/></svg>