<svg width="18" height="18" viewBox="0 0 18 18" xmlns="http://www.w3.org/2000/svg"><title>log-off-shut-down</title><desc>Created with Sketch.</desc><path d="M9 10c-.553 0-1-.447-1-1v-6c0-.553.447-1 1-1 .553 0 1 .447 1 1v6c0 .553-.447 1-1 1m0 6c-3.859 0-7-3.141-7-7 0-1.988.851-3.89 2.333-5.217.411-.368 1.044-.333 1.412.078.368.412.333 1.044-.078 1.412-1.06.949-1.667 2.307-1.667 3.727 0 2.757 2.243 5 5 5s5-2.243 5-5c0-1.42-.607-2.778-1.666-3.727-.411-.369-.446-1.001-.078-1.412.369-.411 1.003-.444 1.412-.078 1.482 1.327 2.332 3.229 2.332 5.217 0 3.859-3.141 7-7 7" fill="#6F6F6F"/></svg>