<svg width="18" height="18" viewBox="0 0 18 18" xmlns="http://www.w3.org/2000/svg" xmlns:xlink="http://www.w3.org/1999/xlink"><title>logout</title><desc>Created with Sketch.</desc><defs><path id="a" d="M9 18h9v-18h-18v18h9z"/></defs><g fill="none"><mask id="b"><use xlink:href="#a"/></mask><path d="M13 8h-9.564l2.33-2.295c.392-.388.396-1.024.008-1.417-.389-.393-1.021-.398-1.415-.01l-4.062 3.999c-.393.388-.397 1.021-.009 1.414l4 4.062c.196.198.454.297.712.297.254 0 .508-.096.703-.288.393-.389.397-1.015.009-1.408l-2.318-2.354h9.606c.553 0 1-.448 1-1s-.447-1-1-1m-5 9c0 .552.448 1 1 1h6.599c1.346 0 2.401-1.098 2.401-2.5v-13c0-1.402-1.055-2.5-2.401-2.5h-6.599c-.552 0-1 .448-1 1s.448 1 1 1h6.599c.389 0 .401.449.401.5v13c0 .051-.012.5-.401.5h-6.599c-.552 0-1 .448-1 1" fill="#6F6F6F" mask="url(#b)"/></g></svg>