<svg xmlns="http://www.w3.org/2000/svg" width="18" height="18" viewBox="0 0 18 18"><title>quick-reference</title><desc>Created with Sketch.</desc><path fill="#3F4347" d="M10.889 12.943c-1.043 0-1.889-.845-1.889-1.888s.846-1.889 1.889-1.889c1.045 0 1.889.846 1.889 1.889s-.844 1.888-1.889 1.888m4.611-5.443h-9.333c-1.044 0-1.667.623-1.667 1.666v3.777c0 1.043.623 1.557 1.667 1.557h9.444c1.043 0 1.889-.514 1.889-1.557v-3.777c0-1.043-.846-1.666-1.889-1.666m-11.111-2h9.223c0-1-.846-2-1.89-2h-9.444c-1.044 0-1.889.845-1.889 1.889v3.777c0 1.043 1 1.889 2 1.889v-3.777c0-1.039.739-1.778 1.777-1.778"/></svg>