<svg width="18" height="18" viewBox="0 0 18 18" xmlns="http://www.w3.org/2000/svg"><title>new-case</title><desc>Created with Sketch.</desc><path d="M12 12h-2v2c0 .552-.448 1-1 1s-1-.448-1-1v-2h-2c-.552 0-1-.448-1-1s.448-1 1-1h2v-2c0-.552.448-1 1-1s1 .448 1 1v2h2c.552 0 1 .448 1 1s-.448 1-1 1zm-5-8.5c0-.271.229-.5.5-.5h3c.271 0 .5.229.5.5v1.5h-4v-1.5zm8.5 1.5h-2.5v-1.5c0-1.375-1.125-2.5-2.5-2.5h-3c-1.375 0-2.5 1.125-2.5 2.5v1.5h-2.5c-1.381 0-2.5 1.119-2.5 2.5v7c0 1.381 1.119 2.5 2.5 2.5h13c1.381 0 2.5-1.119 2.5-2.5v-7c0-1.381-1.119-2.5-2.5-2.5z" fill="#5C5C5C"/></svg>