<svg width="18" height="18" viewBox="0 0 18 18" xmlns="http://www.w3.org/2000/svg"><title>new-time-sheet</title><desc>Created with Sketch.</desc><path d="M17 2h-1v-1c0-.552-.448-1-1-1s-1 .448-1 1v1h-1c-.552 0-1 .448-1 1s.448 1 1 1h1v1c0 .552.448 1 1 1s1-.448 1-1v-1h1c.552 0 1-.448 1-1s-.448-1-1-1m-7 5.5v-7.5h-7.5c-1.375 0-2.5 1.125-2.5 2.5v13c0 1.375 1.125 2.5 2.5 2.5h9c1.375 0 2.5-1.125 2.5-2.5v-7.5h-3.5c-.276 0-.5-.224-.5-.5m-4 8.5c-2.206 0-4-1.795-4-4 0-2.206 1.794-4 4-4s4 1.794 4 4c0 2.205-1.794 4-4 4m1-4.414v-.586c0-.553-.447-1-1-1-.553 0-1 .447-1 1v1c0 .265.105.519.293.707l1 1c.195.195.451.293.707.293.256 0 .512-.098.707-.293.391-.391.391-1.024 0-1.414l-.707-.707" fill="#6F6F6F"/></svg>