<svg width="18" height="18" viewBox="0 0 18 18" xmlns="http://www.w3.org/2000/svg" xmlns:xlink="http://www.w3.org/1999/xlink"><title>new-expense-report</title><desc>Created with Sketch.</desc><defs><path id="a" d="M14 .518h-14v18h14v-18z"/></defs><g fill="none"><path d="M17 14.482h-1v-1c0-.553-.448-1-1-1s-1 .447-1 1v1h-1c-.552 0-1 .447-1 1 0 .552.448 1 1 1h1v1c0 .552.448 1 1 1s1-.448 1-1v-1h1c.552 0 1-.448 1-1 0-.553-.448-1-1-1" fill="#6F6F6F"/><g transform="translate(0 -1) translate(0 .482)"><mask id="b"><use xlink:href="#a"/></mask><path d="M11 3.528c0 .547-.443.99-.99.99h-6.02c-.547 0-.99-.443-.99-.99v-.02c0-.547.443-.99.99-.99h6.02c.547 0 .99.443.99.99v.02zm0 4c0 .546-.443.99-.99.99h-6.02c-.547 0-.99-.444-.99-.99v-.02c0-.547.443-.99.99-.99h6.02c.547 0 .99.443.99.99v.02zm3-4.51c0-1.38-1.119-2.5-2.5-2.5h-9c-1.381 0-2.5 1.12-2.5 2.5v14.5c0 .55.45 1 1 1s1-.45 1-1v-1.05l2 .017v1.033c0 .55.45 1 1 1s1-.45 1-1v-1.016l2 .016v1c0 .55.45 1 1 1s1-.45 1-1v-6.5c0-.276.224-.5.5-.5h3.5v-7.5z" fill="#6F6F6F" mask="url(#b)"/></g></g></svg>