<svg xmlns="http://www.w3.org/2000/svg" width="18" height="18" viewBox="0 0 18 18"><title>thumbs-up</title><desc>Created with Sketch.</desc><path d="M3.37 11.62c-.57.97-1.03 1.88.13 1.88h1.01c.27 0 .52.109.7.29.18.19.29.431.29.71 0 .1-.01.21-.04.3-.13.41-.5.7-.95.7h-.51c-2.76 0-3.92-1.85-2.58-4.26l1.24-2.21-.27-.15-.34-.18c-.41-.22-.37-.7-.13-.94l3.25-2.13c.33-.15.67.03.73.52l.09 3.78c-.11.4-.45.631-.86.41l-.78-.41-.98 1.69zm9.525-6.585l-1.584-2.755c-1.381-2.4-3.581-2.35-4.911.07l-.445.79c-.246.437-.051 1.003.435 1.265s1.065.18 1.292-.185l.412-.659c.57-.97.932-1.051 1.522-.081l1.53 2.487-.24.129-.338.18c-.409.219-.369.705-.133.941l3.248 2.131c.336.15.672-.03.73-.522l.087-3.783c-.104-.397-.446-.63-.856-.411l-.749.403zm3.308 6.133l-.112-.198-.137-.244c-.222-.394-.654-.573-1.075-.485-.094.018-.199.055-.286.104-.245.137-.403.362-.473.608-.067.245-.043.519.089.752l.137.243.002.002.355.636c.566 1.013-.452 1.058-1.577 1.033l-1.953-.028-.022-.882c-.01-.465-.375-.649-.778-.55l-3.253 1.926c-.398.293-.389.678-.098.893l3.447 1.793c.327.094.767-.107.757-.572l-.01-.387-.003-.312h2.535c2.758 0 3.805-1.924 2.455-4.332z" fill="#3F4347"/></svg>