<svg width="18" height="18" viewBox="0 0 18 18" xmlns="http://www.w3.org/2000/svg"><title>report</title><desc>Created with Sketch.</desc><path d="M15.5 0h-11c-1.207 0-2.217.86-2.449 2h-1.061c-.547 0-.99.443-.99.99v.02c0 .547.443.99.99.99h1.01v2h-1.01c-.547 0-.99.443-.99.99v.02c0 .546.443.99.99.99h1.01v2h-1.01c-.547 0-.99.443-.99.99v.02c0 .547.443.99.99.99h1.01v2h-1.01c-.547 0-.99.443-.99.99v.02c0 .547.443.99.99.99h1.061c.232 1.14 1.242 2 2.449 2h11c1.379 0 2.5-1.122 2.5-2.5v-13c0-1.379-1.121-2.5-2.5-2.5zm-6.5 13.907c0 .378-.405.64-.739.462-.692-.371-1.259-.938-1.63-1.63-.178-.334.083-.739.462-.739h1.396c.282 0 .511.229.511.511v1.396zm4.926-2.173l-.027.135c-.048.216-.113.425-.194.626l-.069.153c-.082.181-.175.355-.282.521l-.137.188-.266.323-.31.303-.244.201c-.215.161-.446.303-.692.419-.327.155-.705-.099-.705-.461v-4.142h-4.142c-.362 0-.616-.378-.461-.705.115-.246.258-.477.419-.692l.201-.245.303-.309.322-.266.189-.137c.166-.107.34-.2.521-.283l.153-.068c.201-.081.41-.146.626-.194l.135-.027c.229-.043.462-.069.702-.071l.098.004c.247.004.49.026.725.073l.02.003c1.558.321 2.785 1.548 3.106 3.106l.003.02c.047.235.069.478.073.726l.004.097c-.002.24-.028.473-.071.702zm.074-8.724c0 .547-.443.99-.99.99h-6.02c-.547 0-.99-.443-.99-.99v-.02c0-.547.443-.99.99-.99h6.02c.547 0 .99.443.99.99v.02z" fill="#6F6F6F"/></svg>