<svg width="18" height="18" viewBox="0 0 18 18" xmlns="http://www.w3.org/2000/svg" xmlns:xlink="http://www.w3.org/1999/xlink"><title>resource-group</title><desc>Created with Sketch.</desc><defs><path id="a" d="M12.309.942h-11.701v13.155h11.701v-13.155z"/></defs><g fill="none"><path d="M13.515 15.408l-4.6-4.6c.3-.7.5-1.4.4-2.2-.2-2.8-2.9-4.7-5.5-4.3-.6.1-.8.9-.4 1.3l1.1 1.1c.8.8 1.9 1.8.9 2.9-1 1.1-2.1.2-2.9-.6l-1.2-1.2c-.5-.5-1.3-.1-1.3.5-.2 2.5 1.6 4.8 4.2 5.1.8.1 1.6-.1 2.3-.4l4.6 4.6c.6.6 1.6.6 2.2 0l.1-.1c.7-.5.7-1.5.1-2.1" fill="#6F6F6F"/><g transform="translate(5 .058)"><mask id="b"><use xlink:href="#a"/></mask><path d="M11.309 14.097c-.256 0-.512-.098-.707-.293l-4.601-4.601c-.289-.289-.373-.725-.212-1.101.295-.689.39-1.176.328-1.681-.078-1.054-.566-1.964-1.38-2.613-.854-.683-1.941-.982-2.976-.823-.556.087-1.057-.291-1.141-.836-.084-.546.291-1.057.836-1.141 1.591-.248 3.239.206 4.528 1.236 1.257 1.003 2.01 2.417 2.122 3.982.096.754-.04 1.441-.233 2.021l4.143 4.143c.391.391.391 1.023 0 1.414-.195.195-.451.293-.707.293" fill="#6F6F6F" mask="url(#b)"/></g></g></svg>