<svg width="18" height="18" viewBox="0 0 18 18" xmlns="http://www.w3.org/2000/svg" xmlns:xlink="http://www.w3.org/1999/xlink"><title>run-job</title><desc>Created with Sketch.</desc><defs><path id="a" d="M8.957 11h8.957v-11h-17.913v11h8.957z"/></defs><g transform="translate(0 4)" fill="none"><mask id="b"><use xlink:href="#a"/></mask><path d="M15.901 0h-8.703c-.508 0-1.038.32-1.153.78l-.517 2.22h-2.528c-.55 0-1 .45-1 1s.45 1 1 1h2.061l-.467 2h-3.594c-.55 0-1 .45-1 1s.45 1 1 1h3.128c-.188 1.14.25 2 2 2h8.532c1.1 0 1.74-.48 2-2l1.241-7c.099-1.08-.401-2-2-2zm-4.434 8.837c-.076.406-.47.675-.876.599l-.49-.092c-.406-.076-.675-.47-.599-.876l.092-.49c.076-.406.47-.676.876-.599l.49.092c.406.076.676.47.599.876l-.092.49zm.622-3.312c-.102.541-.627.9-1.167.799-.541-.102-.9-.627-.799-1.168l.532-2.83c.101-.541.626-.9 1.167-.799.54.102.9.627.798 1.168l-.531 2.83z" fill="#6F6F6F" mask="url(#b)"/></g></svg>