<svg width="18" height="18" viewBox="0 0 18 18" xmlns="http://www.w3.org/2000/svg"><title>save-as</title><desc>Created with Sketch.</desc><path d="M9 1h-6c-1.1 0-2 .9-2 2v9c0 .55.45 1 1 1s1-.45 1-1v-8.5c0-.276.224-.5.5-.5h5.5c.55 0 1-.45 1-1s-.45-1-1-1m3 6h-2c-.55 0-1-.45-1-1s.45-1 1-1h2c.55 0 1 .45 1 1s-.45 1-1 1m3 0v1c0 .552-.448 1-1 1h-6c-.552 0-1-.448-1-1v-3h-1c-.55 0-1 .45-1 1v9c0 1.104.895 2 2 2h9c1.105 0 2-.896 2-2v-5s0-3-3-3m-7.5 4h8c.276 0 .5.224.5.5v3c0 .276-.224.5-.5.5h-8c-.276 0-.5-.224-.5-.5v-3c0-.276.224-.5.5-.5" fill="#6F6F6F"/></svg>