<svg xmlns="http://www.w3.org/2000/svg" width="18" height="18" viewBox="0 0 18 18"><path fill-rule="evenodd" clip-rule="evenodd" fill="#5C5C5C" d="M5 2.5v-2c0-.277.224-.5.5-.5h5c.275 0 .5.223.5.5v2c0 .275-.225.5-.5.5h-5c-.276 0-.5-.225-.5-.5zm8.01 9.5h-2.01c-.547 0-.99.442-.99.989v.021c0 .546.443.99.99.99h2.01c.547 0 .99-.444.99-.99v-.021c0-.547-.443-.989-.99-.989zm.99-1.99v-.021c0-.547-.443-.989-.99-.989h-4.02c-.547 0-.99.442-.99.989v.021c0 .546.443.99.99.99h4.02c.547 0 .99-.444.99-.99zm-7 2.99h-2v-2c0-.553-.447-1-1-1s-1 .447-1 1v2h-2c-.553 0-1 .447-1 1s.447 1 1 1h2v2c0 .553.447 1 1 1s1-.447 1-1v-2h2c.553 0 1-.447 1-1s-.447-1-1-1zm10.44-8.68l-3.44-3.73c-.29-.29-.65-.48-1.05-.55.03.14.05.3.05.46v2c0 1.38-1.12 2.5-2.5 2.5h-4.9c-1.38 0-2.6-1.12-2.6-2.5v-2c0-.17.12-.34.15-.5h-.65c-1.38 0-2.5 1.12-2.5 2.5v5.5c0 .553.448 1 1 1s1-.447 1-1v-.5c0-.28.22-.5.5-.5h13c.28 0 .5.22.5.5v8c0 .27-.22.5-.5.5h-5.5c-.553 0-1 .447-1 1s.447 1 1 1h5.5c1.38 0 2.5-1.12 2.5-2.5v-9.79c0-.54-.21-1.04-.56-1.39z"/></svg>