<svg xmlns="http://www.w3.org/2000/svg" width="18" height="18" viewBox="-0.5 0.5 18 18" enable-background="new -0.5 0.5 18 18"><path fill="#5C5C5C" d="M3.5 3.5c0-.55.45-1 1-1h4c.55 0 1 .45 1 1s-.45 1-1 1h-4c-.55 0-1-.45-1-1zm13-1h-1v-1c0-.552-.448-1-1-1s-1 .448-1 1v1h-1c-.552 0-1 .448-1 1s.448 1 1 1h1v1c0 .552.448 1 1 1s1-.448 1-1v-1h1c.552 0 1-.448 1-1s-.448-1-1-1zm-2 6c-.552 0-1 .448-1 1v6.5c0 .275-.225.5-.5.5h-11c-.275 0-.5-.225-.5-.5v-7c0-.275.225-.5.5-.5h8.5c.552 0 1-.448 1-1s-.448-1-1-1h-8.5c-.275 0-.5-.225-.5-.5v-3.5h-1c-.55 0-1 .45-1 1v13c0 1.105.895 2 2 2h12c1.105 0 2-.895 2-2v-7c0-.552-.448-1-1-1z"/></svg>