<svg width="18" height="18" viewBox="0 0 18 18" xmlns="http://www.w3.org/2000/svg"><title>save-options</title><desc>Created with Sketch.</desc><g fill="#5C5C5C"><path d="M14 12.99c0-.547-.443-.99-.99-.99h-2.01c-.546 0-.99.443-.99.99v.02c0 .546.444.99.99.99h2.01c.547 0 .99-.444.99-.99v-.02zM4 15.333c-.736 0-1.333-.597-1.333-1.333 0-.737.597-1.334 1.333-1.334s1.333.597 1.333 1.334c0 .736-.597 1.333-1.333 1.333m3.6-2.004l-.618-.127c-.059-.011-.105-.055-.123-.112-.051-.162-.116-.318-.195-.468-.028-.053-.027-.117.007-.167l.348-.527c.131-.198.105-.461-.063-.629l-.255-.255c-.168-.168-.431-.195-.629-.063l-.527.348c-.05.033-.114.035-.168.007-.149-.079-.305-.144-.467-.195-.057-.018-.101-.064-.113-.124l-.126-.617c-.048-.233-.252-.4-.49-.4h-.362c-.238 0-.442.167-.49.4l-.126.617c-.012.06-.056.106-.113.124-.162.051-.318.116-.467.195-.054.028-.118.026-.168-.007l-.527-.348c-.198-.132-.461-.105-.629.063l-.255.255c-.168.168-.194.431-.063.629l.348.527c.034.05.035.114.007.167-.079.15-.144.306-.195.468-.018.057-.064.101-.123.112l-.618.127c-.233.047-.4.252-.4.49v.362c0 .238.167.442.4.49l.618.126c.059.012.105.056.123.113.051.161.116.318.195.467.028.054.027.117-.007.168l-.348.526c-.131.199-.105.462.063.63l.255.254c.168.168.431.195.629.064l.527-.349c.05-.033.114-.034.168-.006.149.079.305.143.467.195.057.017.101.064.113.122l.126.618c.048.234.252.401.49.401h.362c.238 0 .442-.167.49-.401l.126-.618c.012-.058.056-.105.113-.122.162-.052.318-.116.467-.195.054-.028.118-.027.168.006l.527.349c.198.131.461.104.629-.064l.255-.254c.168-.168.194-.431.063-.63l-.348-.526c-.034-.051-.035-.114-.007-.168.079-.149.144-.306.195-.467.018-.057.064-.101.123-.113l.618-.126c.233-.048.4-.252.4-.49v-.362c0-.238-.167-.443-.4-.49"/><path d="M14 9.99c0-.547-.443-.99-.99-.99h-4.01c-.546 0-.99.443-.99.99v.02c0 .546.444.99.99.99h4.01c.547 0 .99-.444.99-.99v-.02zM5.5 3h5c.276 0 .5-.224.5-.5v-2c0-.276-.224-.5-.5-.5h-5c-.276 0-.5.224-.5.5v2c0 .276.224.5.5.5M0 5v-2.5c0-1.381 1.119-2.5 2.5-2.5h.649c-.033.161-.149.329-.149.5v1.901c0 1.43 1.169 2.599 2.599 2.599h4.901c1.381 0 2.5-1.119 2.5-2.5v-2c0-.159-.019-.314-.047-.464.394.072.757.26 1.047.55l3.442 3.736c.35.349.558.851.558 1.385v9.793c0 1.381-1.119 2.5-2.5 2.5h-5.5c-.552 0-1-.448-1-1s.448-1 1-1h5.5c.276 0 .5-.224.5-.5v-8.5h-14c-1.105 0-2-.895-2-2M1 9c-.55 0-1-.45-1-1v-3c0-.55.45-1 1-1s1 .45 1 1v3c0 .55-.45 1-1 1"/></g></svg>