<svg width="18" height="18" viewBox="0 0 18 18" xmlns="http://www.w3.org/2000/svg"><title>scale</title><desc>Created with Sketch.</desc><path d="M13.031 12l.969-3.876.969 3.876h-1.938zm-10.007 2l.976-4.391.976 4.391h-1.952zm14.009-1.993l-2.063-8.25-.053-.112-.053-.141-.042-.058-.108-.124-.099-.106-.063-.039-.143-.072-.141-.063-.025-.012-.046-.002-.167-.01-.129-.013-3.901.39v-2.395c0-.552-.448-1-1-1s-1 .448-1 1v2.595l-4.099.41-.04.012-.059.007h-.019l-.126.056-.163.065-.049.029-.117.108-.118.115-.035.047-.067.143-.068.159-.016.037-2.066 9.225c-.531.024-.958.455-.958.992 0 1.682 1.757 3 4 3 2.243 0 4-1.318 4-3 0-.54-.431-.975-.967-.993l-1.812-8.124 7.464-.746-1.726 6.871c-.532.023-.959.454-.959.992 0 1.682 1.757 3 4 3 2.243 0 4-1.318 4-3 0-.541-.431-.975-.967-.993z" fill="#6F6F6F"/></svg>