<svg width="18" height="18" viewBox="0 0 18 18" xmlns="http://www.w3.org/2000/svg"><title>search-results-history</title><desc>Created with Sketch.</desc><path d="M8.707 11.707l2-2c.188-.188.293-.441.293-.707v-3c0-.553-.447-1-1-1-.553 0-1 .447-1 1v2.586l-1.707 1.707c-.391.391-.391 1.023 0 1.414.195.195.451.293.707.293.256 0 .512-.098.707-.293m.293-11.707c-1.655 0-3.195.468-4.528 1.25l-.453-.83c-.29-.53-.915-.58-1.156-.029l-2.805 4.116c-.193.438.112.908.686.947l4.85-.063c.592.095.889-.457.599-.988l-.542-.994-.228-.417c1.423-.85 3.166-1.215 5.004-.85 2.715.54 4.9 2.731 5.434 5.448.879 4.474-2.541 8.41-6.861 8.41-3.566 0-6.518-2.681-6.947-6.133-.061-.496-.484-.867-.984-.867-.601 0-1.074.529-.999 1.125.566 4.518 4.492 8.004 9.19 7.871 4.692-.133 8.603-4.044 8.736-8.736.144-5.081-3.947-9.26-8.996-9.26" fill="#6F6F6F"/></svg>