<svg width="18" height="18" viewBox="0 0 18 18" xmlns="http://www.w3.org/2000/svg"><title>show-pushed-critical-path</title><desc>Created with Sketch.</desc><g fill="#6F6F6F"><path d="M13.95 8.328s-2.53-1.602-3.536-2.121c-.902-.466-1.414 0-1.414 0v1.793h-2c-.55 0-1 .45-1 1s.45 1 1 1h2v1.864c.685.685 1.414 0 1.414 0l3.536-2.122c.707-.707 0-1.414 0-1.414"/><path d="M15.5 2c.275 0 .5.225.5.5v13c0 .275-.225.5-.5.5h-11c-.276 0-.5-.224-.5-.5v-13c0-.276.224-.5.5-.5h11zm-15.5.5v13c0 1.378 1.122 2.5 2.5 2.5h13c1.378 0 2.5-1.122 2.5-2.5v-13c0-1.378-1.122-2.5-2.5-2.5h-13c-1.378 0-2.5 1.122-2.5 2.5z"/></g></svg>