<svg width="18" height="18" viewBox="0 0 18 18" xmlns="http://www.w3.org/2000/svg" xmlns:xlink="http://www.w3.org/1999/xlink"><title>spell-check</title><desc>Created with Sketch.</desc><defs><path id="a" d="M0 .643v5.487h5.167v-5.487h-5.167z"/><path id="c" d="M4.976 6.13v-5.487h-4.866v5.487h4.866z"/></defs><g fill="none"><g transform="translate(1) translate(0 1.326)"><mask id="b"><use xlink:href="#a"/></mask><path d="M3.558 3.541c-.159.15-.46.2-.63.23l-.529.081c-.61.089-.94.279-.94.718 0 .33.31.601.81.601.8 0 1.289-.521 1.289-1.06v-.57zm1.46 1.05c0 .609.149.75.149.979 0 .33-.309.56-.659.56-.631 0-.84-.4-.86-.85-.57.63-1.23.85-1.999.85-.829 0-1.649-.569-1.649-1.489 0-1.209.919-1.549 2.039-1.679l.889-.101c.35-.04.63-.119.63-.539 0-.42-.43-.599-.919-.599-1.08 0-1.109.798-1.689.798-.371 0-.62-.259-.62-.559 0-.579.819-1.319 2.319-1.319 1.398 0 2.369.45 2.369 1.5v2.448z" fill="#6F6F6F" mask="url(#b)"/></g><path d="M9.828 3.108c-.89-.01-1.17.869-1.17 1.619 0 .83.32 1.589 1.17 1.589.779-.019 1.159-.729 1.159-1.589 0-.68-.229-1.619-1.159-1.619zm-2.549-2.379c0-.479.29-.729.73-.729s.729.25.729.729v1.98h.021c.29-.47.79-.741 1.438-.741 1.539 0 2.25 1.31 2.25 2.709 0 1.889-1.07 2.779-2.289 2.779-.71 0-1.3-.3-1.539-.92h-.02v.23c0 .449-.23.69-.66.69-.45 0-.66-.241-.66-.69v-6.037z" fill="#6F6F6F"/><g transform="translate(1) translate(12 1.326)"><mask id="d"><use xlink:href="#c"/></mask><path d="M2.848.643c1.22 0 2.129.69 2.129 1.369 0 .42-.31.63-.68.63-.689 0-.439-.859-1.488-.859-.57 0-1.24.389-1.24 1.709 0 .909.429 1.499 1.229 1.499 1.02 0 .8-.94 1.57-.94.369 0 .609.271.609.56 0 .639-.719 1.519-2.219 1.519-1.799 0-2.648-1.109-2.648-2.638 0-1.679.949-2.849 2.738-2.849" fill="#6F6F6F" mask="url(#d)"/></g><path d="M8.652 17.326c-.254 0-.508-.096-.703-.288l-3.062-3.001c-.393-.388-.397-1.021-.009-1.414s1.021-.396 1.414-.008l2.353 2.299 5.235-5.293c.391-.39 1.023-.393 1.415-.005.391.39.393 1.023.004 1.415l-5.937 6c-.196.196-.453.295-.71.295" fill="#6F6F6F"/></g></svg>