<svg width="18" height="18" viewBox="0 0 18 18" xmlns="http://www.w3.org/2000/svg" xmlns:xlink="http://www.w3.org/1999/xlink"><title>swaplist-left</title><desc>Created with Sketch.</desc><defs><path id="a" d="M4 0h-4v4h4v-4z"/><path id="c" d="M4 2v-2h-4v4h4v-2z"/></defs><g fill="none"><mask id="b"><use xlink:href="#a"/></mask><path d="M3 2c.55 0 1-.45 1-1s-.45-1-1-1h-.5c-1.375 0-2.5 1.125-2.5 2.5v.5c0 .55.45 1 1 1s1-.45 1-1c0 0-.094-1.094 1-1" fill="#6F6F6F" mask="url(#b)"/><path d="M2 15c0-.55-.45-1-1-1s-1 .45-1 1v.5c0 1.375 1.125 2.5 2.5 2.5h.5c.55 0 1-.45 1-1s-.45-1-1-1c0 0-1.094.094-1-1m-1-5c.55 0 1 .45 1 1v1c0 .55-.45 1-1 1s-1-.45-1-1v-1c0-.55.45-1 1-1m0-5c.55 0 1 .45 1 1v1c0 .55-.45 1-1 1s-1-.45-1-1v-1c0-.55.45-1 1-1" fill="#6F6F6F"/><g transform="translate(14)"><mask id="d"><use xlink:href="#c"/></mask><path d="M1 2c-.55 0-1-.45-1-1s.45-1 1-1h.5c1.375 0 2.5 1.125 2.5 2.5v.5c0 .55-.45 1-1 1s-1-.45-1-1c0 0 .094-1.094-1-1" fill="#6F6F6F" mask="url(#d)"/></g><path d="M16 15c0-.55.45-1 1-1s1 .45 1 1v.5c0 1.375-1.125 2.5-2.5 2.5h-.5c-.55 0-1-.45-1-1s.45-1 1-1c0 0 1.094.094 1-1m1-5c-.55 0-1 .45-1 1v1c0 .55.45 1 1 1s1-.45 1-1v-1c0-.55-.45-1-1-1m0-5c-.55 0-1 .45-1 1v1c0 .55.45 1 1 1s1-.45 1-1v-1c0-.55-.45-1-1-1" fill="#6F6F6F"/><path d="M4 9.001c0 .132.027.263.078.386l.043.065c.047.091.095.181.171.257l.007.004 3.995 3.996c.389.389 1.025.389 1.414 0s.389-1.025 0-1.414l-2.294-2.295h5.586c.55 0 1-.45 1-1s-.45-1-1-1h-5.586l2.294-2.293c.389-.39.389-1.026 0-1.415s-1.025-.389-1.414 0l-3.995 3.995-.007.005c-.075.075-.123.165-.169.255l-.045.067c-.051.123-.078.254-.078.386v.001z" fill="#6F6F6F"/></g></svg>