<svg width="18" height="18" viewBox="0 0 18 18" xmlns="http://www.w3.org/2000/svg" xmlns:sketch="http://www.bohemiancoding.com/sketch/ns"><title>thumbs-up</title><desc>Created with Sketch.</desc><g sketch:type="MSLayerGroup" fill="#3A3D3D"><path d="M15 18h2c.55 0 1-.45 1-1v-11c0-.55-.45-1-1-1h-2c-.55 0-1 .45-1 1v11c0 .55.45 1 1 1M6 6l-.984-4c-.208-1.46 1.593-2.312 2.59-1.227l4.219 5.661c.11.161.175.356.175.566v10c0 .552-.448 1-1 1h-7c-.442 0-.831-.29-.958-.713l-2.283-8.72c-.379-1.281.582-2.567 1.918-2.567h3.323" sketch:type="MSShapeGroup"/></g></svg>