<svg width="18" height="18" viewBox="0 0 18 18" xmlns="http://www.w3.org/2000/svg" xmlns:xlink="http://www.w3.org/1999/xlink"><title>train</title><desc>Created with Sketch.</desc><defs><path id="a" d="M15.412 17v-17h-15.412v17h15.412z"/></defs><g transform="translate(1 1)" fill="none"><mask id="b"><use xlink:href="#a"/></mask><path d="M12.578 5c0 1.1-.9 2-2 2h-6c-1.1 0-2-.9-2-2v-1c0-1.1.9-2 2-2h6c1.1 0 2 .9 2 2v1zm-1.373 7.294c-.828 0-1.5-.671-1.5-1.5 0-.828.672-1.5 1.5-1.5.829 0 1.5.672 1.5 1.5 0 .829-.671 1.5-1.5 1.5zm-7 0c-.828 0-1.5-.671-1.5-1.5 0-.828.672-1.5 1.5-1.5.829 0 1.5.672 1.5 1.5 0 .829-.671 1.5-1.5 1.5zm10.915 3l-1.327-1.327c.547-.358.785-1.268.785-1.967v-10c0-1.1-.9-2-2-2h-10c-1.1 0-2 .9-2 2v10c0 .699.493 1.609 1.04 1.967l-1.327 1.327c-.389.389-.389 1.025 0 1.414s1.026.389 1.414 0l2.242-2.241.114-.173h7.289l.114.173 2.241 2.241c.389.389 1.026.389 1.415 0s.389-1.025 0-1.414z" fill="#6F6F6F" mask="url(#b)"/></g></svg>