<svg xmlns="http://www.w3.org/2000/svg" width="18" height="18" viewBox="0 0 18 18"><title>truck</title><desc>Created with Sketch.</desc><path fill="#3F4347" d="M15.611 6.5h-4.111v-1.278c0-1.043-.512-1.722-1.557-1.722h-7.554c-1.044 0-1.889.679-1.889 1.722v6.611c0 .522.423.667.944.667h.944c0 1 .846 1.891 1.889 1.891s1.889-.891 1.889-1.891h5.668c0 1 .846 1.891 1.889 1.891s1.889-.891 1.889-1.891h.945c.521 0 .943-.145.943-.667v-3.777c0-1.044-.846-1.556-1.889-1.556zm-1.418 4.389c-.781 0-1.416-.635-1.416-1.417s.635-1.417 1.416-1.417c.783 0 1.418.634 1.418 1.417 0 .782-.634 1.417-1.418 1.417z"/></svg>