<svg width="18" height="18" viewBox="0 0 18 18" xmlns="http://www.w3.org/2000/svg" xmlns:xlink="http://www.w3.org/1999/xlink"><title>update-preview</title><desc>Created with Sketch.</desc><defs><path id="a" d="M0 18h18v-18h-18v18z"/></defs><g fill="none"><mask id="b"><use xlink:href="#a"/></mask><path d="M9.543 16.295l-2.109-2.108c.35-.596.566-1.281.566-2.02 0-2.206-1.794-4-4-4s-4 1.794-4 4 1.794 4 4 4c.739 0 1.424-.216 2.02-.566l2.108 2.109c.387.387 1.014.387 1.4 0l.015-.015c.387-.386.387-1.013 0-1.4m-5.543-2.128c-1.103 0-2-.897-2-2 0-1.102.897-2 2-2s2 .898 2 2c0 1.103-.897 2-2 2m13.414-10.753l-2.828-2.828c-.375-.375-.884-.586-1.415-.586h-6.671c-1.381 0-2.5 1.119-2.5 2.5v2.5c0 .552.448 1 1 1s1-.448 1-1v-2.5c0-.276.224-.5.5-.5h5.5v3c0 .55.45 1 1 1h3v9.5c0 .276-.224.5-.5.5h-2.5c-.55 0-1 .45-1 1s.45 1 1 1h3c1.1 0 2-.9 2-2v-11.171c0-.531-.211-1.04-.586-1.415" fill="#6F6F6F" mask="url(#b)"/></g></svg>