<svg width="18" height="18" viewBox="0 0 18 18" xmlns="http://www.w3.org/2000/svg" xmlns:xlink="http://www.w3.org/1999/xlink"><title>zoom-in</title><desc>Created with Sketch.</desc><defs><path id="a" d="M8.354 16.707h8.354v-16.707h-16.707v16.708h8.354z"/></defs><g transform="translate(1 1)" fill="none"><mask id="b"><use xlink:href="#a"/></mask><path d="M16.414 15l-3.815-3.816c.876-1.169 1.401-2.615 1.401-4.184 0-3.86-3.141-7-7-7s-7 3.14-7 7 3.141 7 7 7c1.569 0 3.016-.526 4.185-1.402l3.815 3.816c.195.195.451.293.707.293.256 0 .512-.098.707-.293.391-.391.391-1.023 0-1.414m-9.414-3c-2.757 0-5-2.243-5-5s2.243-5 5-5 5 2.243 5 5-2.243 5-5 5m2-6h-1v-1c0-.552-.448-1-1-1s-1 .448-1 1v1h-1c-.552 0-1 .448-1 1s.448 1 1 1h1v1c0 .552.448 1 1 1s1-.448 1-1v-1h1c.552 0 1-.448 1-1s-.448-1-1-1" fill="#6F6F6F" mask="url(#b)"/></g></svg>