<svg width="65" height="65" viewBox="0 0 65 65" xmlns="http://www.w3.org/2000/svg" xmlns:xlink="http://www.w3.org/1999/xlink" xmlns:sketch="http://www.bohemiancoding.com/sketch/ns"><title>error-loading</title><desc>Created with Sketch.</desc><defs><path id="a" d="M0 0h60v56h-60"/><path id="c" d="M0 0h60v56h-60"/></defs><g sketch:type="MSLayerGroup" fill="none"><g transform="translate(3 5)"><mask id="b" sketch:name="Clip 2"><use xlink:href="#a"/></mask><path d="M33.25 14.564l-2.703-.552c-.258-.051-.461-.243-.538-.494-.226-.706-.51-1.39-.854-2.046-.124-.233-.117-.511.029-.733l1.525-2.302c.573-.867.457-2.018-.278-2.753l-1.113-1.114c-.737-.735-1.888-.852-2.753-.279l-2.304 1.525c-.222.144-.5.152-.735.029-.654-.346-1.336-.628-2.044-.853-.251-.08-.441-.281-.494-.539l-.552-2.703c-.208-1.019-1.104-1.75-2.143-1.75h-1.586c-1.039 0-1.935.731-2.143 1.75l-.552 2.703c-.053.258-.243.459-.494.539-.708.225-1.39.507-2.044.853-.235.123-.513.115-.735-.029l-2.304-1.525c-.865-.573-2.016-.456-2.753.279l-1.113 1.114c-.735.735-.851 1.886-.278 2.753l1.525 2.302c.146.222.153.5.029.733-.344.656-.628 1.34-.854 2.046-.077.251-.28.443-.538.494l-2.703.552c-1.019.208-1.75 1.104-1.75 2.145v1.582c0 1.041.731 1.937 1.75 2.145l2.703.552c.258.051.461.243.538.494.226.706.51 1.391.854 2.044.124.235.117.513-.029.735l-1.525 2.302c-.573.867-.457 2.019.278 2.754l1.113 1.114c.735.735 1.888.851 2.753.278l2.304-1.525c.222-.146.5-.151.735-.029.654.346 1.336.628 2.044.854.251.078.441.28.494.536l.552 2.705c.208 1.019 1.104 1.75 2.143 1.75h1.586c1.039 0 1.935-.731 2.143-1.75l.552-2.705c.053-.256.243-.458.494-.536.708-.226 1.39-.508 2.044-.854.235-.122.513-.117.735.029l2.304 1.525c.865.573 2.018.457 2.753-.278l1.113-1.114c.735-.735.851-1.887.278-2.754l-1.525-2.302c-.146-.222-.153-.5-.029-.735.344-.653.628-1.338.854-2.044.077-.251.28-.443.538-.494l2.703-.552c1.019-.208 1.75-1.104 1.75-2.145v-1.582c0-1.041-.731-1.937-1.75-2.145m-15.75 8.769c-3.222 0-5.833-2.611-5.833-5.833s2.611-5.833 5.833-5.833 5.833 2.611 5.833 5.833-2.611 5.833-5.833 5.833" fill="#368AC0" sketch:type="MSShapeGroup" mask="url(#b)"/></g><path d="M42.234 24.807c-.604.728-.502 1.822.225 2.426.726.602 1.821.502 2.424-.226.604-.726.501-1.821-.225-2.424-.727-.603-1.82-.503-2.424.224m10.149-9.53c-.808-.671-1.625-.641-2.309.184l-1.555 1.874c-.201.242-.383.528-.567.812l-2.636 4.196c-.326.523-.205.841.214 1.189.42.349.753.407 1.207-.008l3.639-3.364c.246-.232.494-.463.695-.705l1.556-1.874c.684-.825.564-1.634-.244-2.304" fill="#368AC0" sketch:type="MSShapeGroup"/><g transform="translate(3 5)"><mask id="d" sketch:name="Clip 9"><use xlink:href="#c"/></mask><path d="M58.45 37.899l-2.394-.489c-.229-.045-.408-.215-.477-.438-.2-.625-.451-1.231-.756-1.811-.11-.207-.103-.453.026-.65l1.35-2.039c.508-.768.405-1.787-.246-2.438l-.985-.987c-.653-.651-1.673-.755-2.439-.246l-2.041 1.35c-.196.127-.442.134-.651.026-.578-.307-1.183-.557-1.81-.757-.222-.07-.391-.248-.437-.477l-.489-2.393c-.185-.903-.979-1.55-1.898-1.55h-1.406c-.919 0-1.713.647-1.898 1.55l-.489 2.393c-.046.229-.215.407-.437.477-.627.2-1.231.45-1.81.757-.209.108-.455.101-.651-.026l-2.041-1.35c-.766-.509-1.786-.405-2.439.246l-.985.987c-.651.651-.754 1.67-.246 2.438l1.35 2.039c.129.197.136.443.026.65-.305.58-.556 1.186-.756 1.811-.069.223-.248.393-.477.438l-2.394.489c-.902.184-1.55.978-1.55 1.9v1.401c0 .922.648 1.716 1.55 1.9l2.394.489c.229.045.408.216.477.438.2.625.451 1.231.756 1.81.11.208.103.454-.026.651l-1.35 2.039c-.508.768-.405 1.787.246 2.438l.985.987c.651.651 1.673.755 2.439.247l2.041-1.351c.196-.129.442-.134.651-.025.579.306 1.183.556 1.81.756.222.069.391.248.437.475l.489 2.396c.185.902.979 1.55 1.898 1.55h1.406c.919 0 1.713-.648 1.898-1.55l.489-2.396c.046-.227.215-.406.437-.475.627-.2 1.232-.45 1.81-.756.209-.109.455-.104.651.025l2.041 1.351c.766.508 1.788.404 2.439-.247l.985-.987c.651-.651.754-1.67.246-2.438l-1.35-2.039c-.129-.197-.136-.443-.026-.651.305-.579.556-1.185.756-1.81.069-.222.248-.393.477-.438l2.394-.489c.902-.184 1.55-.978 1.55-1.9v-1.401c0-.922-.648-1.716-1.55-1.9m-13.95 7.767c-2.854 0-5.167-2.313-5.167-5.166 0-2.854 2.313-5.167 5.167-5.167 2.854 0 5.167 2.313 5.167 5.167 0 2.853-2.313 5.166-5.167 5.166" fill="#8DC9E6" sketch:type="MSShapeGroup" mask="url(#d)"/></g></g></svg>