<svg width="65" height="65" viewBox="0 0 65 65" xmlns="http://www.w3.org/2000/svg" xmlns:xlink="http://www.w3.org/1999/xlink" xmlns:sketch="http://www.bohemiancoding.com/sketch/ns"><title>generic-empty-state</title><desc>Created with Sketch.</desc><defs><path id="a" d="M0 .226h31v59.774h-31"/></defs><g sketch:type="MSLayerGroup" fill="none"><g transform="translate(17 3)"><mask id="b" sketch:name="Clip 2"><use xlink:href="#a"/></mask><path d="M14.502 33.053c2.564 0 4.673 2.108 4.673 4.673 0 2.564-2.109 4.674-4.673 4.674s-4.674-2.11-4.674-4.674c0-2.565 2.11-4.673 4.674-4.673m.285-32.827c7.295 0 14.476 3.362 14.476 11.397 0 7.409-8.492 10.259-10.316 12.938-1.368 1.995-.912 4.787-4.674 4.787-2.45 0-3.647-1.994-3.647-3.818 0-6.783 9.974-8.321 9.974-13.907 0-3.077-2.052-4.9-5.471-4.9-7.295 0-4.445 7.522-9.974 7.522-1.995 0-3.705-1.197-3.705-3.476 0-5.585 6.384-10.543 13.337-10.543" fill="#368AC0" sketch:type="MSShapeGroup" mask="url(#b)"/></g><path d="M48 60c0 1.657-6.94 3-15.5 3-8.56 0-15.5-1.343-15.5-3s6.94-3 15.5-3c8.56 0 15.5 1.343 15.5 3" fill="#8DC9E6" sketch:type="MSShapeGroup"/></g></svg>