<svg width="65" height="65" viewBox="0 0 65 65" xmlns="http://www.w3.org/2000/svg" xmlns:sketch="http://www.bohemiancoding.com/sketch/ns"><title>new-project</title><desc>Created with Sketch.</desc><g sketch:type="MSLayerGroup" fill="none"><path d="M2 19l.021 4.999-.012 30.221.012.221c.225 2.029 1.934 3.559 3.975 3.559h52.013c2.041 0 3.75-1.53 3.975-3.559l.025-35.441h-60.009z" fill="#368AC0" sketch:type="MSShapeGroup"/><path d="M39.009 37h-5v-5c0-1.1-.9-2-2-2s-2 .9-2 2v5h-5c-1.1 0-2 .9-2 2s.9 2 2 2h5v5c0 1.1.9 2 2 2s2-.9 2-2v-5h5c1.1 0 2-.9 2-2s-.9-2-2-2" fill="#fff" sketch:type="MSShapeGroup"/><path d="M58.009 12.001h-22.781l-1.421.005c-3.802.016-7.072.034-8.391-1.332-3.663-3.793-9.218-3.67-9.407-3.673l-10-.001c-2.206 0-4 1.794-4 4v6h60v-.999c0-2.206-1.794-4-4-4" fill="#8DC9E6" sketch:type="MSShapeGroup"/></g></svg>