<svg width="65" height="65" viewBox="0 0 65 65" xmlns="http://www.w3.org/2000/svg" xmlns:xlink="http://www.w3.org/1999/xlink" xmlns:sketch="http://www.bohemiancoding.com/sketch/ns"><title>no-alerts</title><desc>Created with Sketch.</desc><defs><path id="a" d="M0 .972h59.25v60.028h-59.25"/></defs><g sketch:type="MSLayerGroup" fill="none"><path d="M15.25 14.025c0 .321-.573.725-.914.725h-1.231c-.34 0-.855-.404-.855-.725v-4.654c0-.321.515-.621.855-.621h1.231c.341 0 .914.3.914.621v4.654zm0 4.653c0 .321-.573 1.072-.914 1.072h-1.231c-.34 0-.855-.751-.855-1.072v-1.163c0-.321.515-.765.855-.765h1.231c.341 0 .914.444.914.765v1.163z" fill="#FDFEFF" sketch:type="MSShapeGroup"/><g transform="translate(3 2)"><mask id="b" sketch:name="Clip 6"><use xlink:href="#a"/></mask><path d="M54.583 18.95l-.044.002c.028-.308.044-.62.044-.935 0-5.671-4.597-10.267-10.267-10.267-5.049 0-9.243 3.646-10.102 8.447-.998-.618-2.171-.98-3.431-.98-3.608 0-6.533 3.158-6.533 6.766 0 3.609 2.925 6.767 6.533 6.767h23.8c2.577 0 4.667-2.323 4.667-4.9 0-2.577-2.09-4.9-4.667-4.9" fill="#8DC9E6" sketch:type="MSShapeGroup" mask="url(#b)"/></g><path d="M23.873 19.117l-8.146-14.923c-.897-1.647-3.115-1.619-4.012.028l-8.146 14.881c-.901 1.66.214 3.647 2.006 3.647h16.292c1.792 0 2.908-1.973 2.006-3.633zm-8.988-.439c0 .322-.208.582-.548.582h-1.231c-.341 0-.548-.26-.548-.582v-1.163c0-.321.207-.582.548-.582h1.231c.34 0 .548.261.548.582v1.163zm0-4.653c0 .321-.208.582-.548.582h-1.231c-.341 0-.548-.261-.548-.582v-4.654c0-.321.207-.581.548-.581h1.231c.34 0 .548.26.548.581v4.654z" fill="#8DC9E6" sketch:type="MSShapeGroup"/><path d="M23.625 21.75c-11.392 0-20.625 9.233-20.625 20.625s9.233 20.625 20.625 20.625 20.625-9.233 20.625-20.625-9.233-20.625-20.625-20.625" fill="#368AC0" sketch:type="MSShapeGroup"/><path d="M22.25 50.75c-.265 0-.52-.105-.707-.293l-7-7c-.391-.391-.391-1.023 0-1.414s1.023-.391 1.414 0l6.264 6.264 11.295-12.236c.374-.404 1.007-.43 1.413-.055.405.374.43 1.006.055 1.413l-12 13c-.184.199-.442.315-.714.321h-.02" fill="#FDFEFF" sketch:type="MSShapeGroup"/></g></svg>