<svg width="65" height="65" viewBox="0 0 65 65" xmlns="http://www.w3.org/2000/svg" xmlns:xlink="http://www.w3.org/1999/xlink" xmlns:sketch="http://www.bohemiancoding.com/sketch/ns"><title>no-analytics</title><desc>Created with Sketch.</desc><defs><path id="a" d="M0 .227h59.875v59.773h-59.875v-59.773z"/></defs><g sketch:type="MSLayerGroup" fill="none"><g transform="translate(3 3)"><mask id="b" sketch:name="Clip 2"><use xlink:href="#a"/></mask><path d="M28.861 4.125c-1.07 0-1.957-.775-1.998-1.853-.041-1.104.819-1.996 1.924-2.038.36-.014.723-.002 1.088-.002 1.104 0 2.014.842 2.014 1.947 0 1.104-.881 1.946-1.985 1.946h-1.043zm8.254 1.075c-.171 0-.346-.022-.52-.069-.309-.083-.621-.161-.935-.233-1.077-.244-1.753-1.315-1.508-2.392.245-1.077 1.317-1.752 2.393-1.508.365.083.727.173 1.087.27 1.067.286 1.7 1.382 1.414 2.45-.24.892-1.048 1.482-1.931 1.482zm-15.426.273c-.855 0-1.647-.554-1.911-1.414-.324-1.057.27-2.175 1.325-2.499.355-.109.713-.211 1.073-.308 1.076-.286 2.165.351 2.449 1.417.284 1.067-.35 2.163-1.417 2.448-.314.083-.623.172-.931.267-.195.059-.394.089-.588.089zm22.138 2.515c-.341 0-.686-.087-1.001-.269-.277-.16-.556-.316-.84-.465-.977-.516-1.352-1.725-.837-2.702.515-.977 1.724-1.351 2.702-.837.331.175.657.355.981.543.956.554 1.281 1.778.727 2.733-.371.64-1.043.997-1.732.997zm-28.749.511c-.665 0-1.316-.331-1.696-.936-.587-.936-.305-2.17.63-2.757.316-.199.635-.392.959-.578.957-.55 2.181-.222 2.732.735.551.957.221 2.18-.736 2.731-.279.161-.555.327-.828.498-.33.208-.698.307-1.061.307zm34.515 3.925c-.513 0-1.026-.196-1.417-.589-.226-.228-.457-.45-.692-.668-.811-.751-.858-2.017-.107-2.826.753-.813 2.016-.858 2.826-.108.274.255.544.515.807.78.78.782.778 2.049-.005 2.828-.39.388-.901.583-1.412.583zm-40.125.711c-.488 0-.977-.178-1.362-.536-.808-.753-.854-2.018-.101-2.827.252-.272.511-.541.776-.803.782-.78 2.05-.778 2.828.006.779.782.777 2.048-.006 2.828-.227.227-.451.459-.671.694-.393.424-.928.638-1.464.638zm44.558 5.058c-.692 0-1.365-.359-1.735-1.002-.16-.278-.326-.552-.497-.824-.59-.933-.311-2.169.624-2.759.933-.587 2.169-.309 2.758.624.201.317.394.638.581.963.551.957.222 2.18-.735 2.732-.314.18-.657.266-.996.266zm-48.779.862c-.316 0-.635-.075-.933-.232-.976-.516-1.349-1.726-.834-2.703.175-.33.357-.655.543-.977.556-.956 1.781-1.28 2.734-.728.956.555 1.281 1.778.727 2.733-.161.278-.317.558-.467.841-.359.679-1.052 1.066-1.77 1.066zm51.56 5.86c-.884 0-1.692-.59-1.93-1.484-.084-.311-.172-.619-.267-.926-.327-1.056.264-2.176 1.318-2.502 1.052-.329 2.175.263 2.502 1.318.111.356.214.715.31 1.076.286 1.068-.348 2.164-1.415 2.449-.173.047-.347.069-.518.069zm-54.1.954c-.149 0-.299-.016-.45-.051-1.077-.247-1.749-1.321-1.501-2.397.084-.363.173-.724.269-1.082.286-1.066 1.377-1.701 2.45-1.413 1.067.286 1.699 1.383 1.413 2.45-.084.311-.162.625-.234.941-.213.926-1.036 1.552-1.947 1.552zm55.168 6.374c-1.105 0-2-.895-2-2v-.118c0-.324-.07-.647-.081-.968-.04-1.103.79-2.031 1.894-2.072 1.099-.062 2.078.822 2.119 1.926.014.369.068.741.068 1.114v.118c0 1.105-.896 2-2 2zm-55.859.882c-1.072 0-1.959-.857-1.998-1.937-.012-.351-.018-.705-.018-1.059 0-1.104.833-2.032 1.937-2.032 1.105 0 1.938.864 1.938 1.968v.06c0 .305.068.617.079.921.039 1.103-.761 2.079-1.865 2.079h-.073zm54.762 6.326c-.174 0-.35-.023-.525-.071-1.067-.29-1.696-1.389-1.406-2.454.084-.309.162-.62.235-.935.247-1.076 1.319-1.746 2.397-1.501 1.076.247 1.748 1.322 1.501 2.398-.084.365-.176.727-.273 1.087-.242.89-1.048 1.476-1.929 1.476zm-53.566.831c-.856 0-1.648-.553-1.912-1.414-.109-.356-.211-.716-.307-1.079-.282-1.067.355-2.162 1.424-2.443 1.066-.282 2.161.355 2.443 1.424.082.31.171.619.265.924.324 1.057-.27 2.175-1.326 2.499-.195.06-.393.089-.587.089zm50.753 5.873c-.343 0-.691-.088-1.008-.273-.953-.558-1.275-1.783-.717-2.736.161-.276.317-.555.468-.838.518-.975 1.726-1.345 2.705-.827.974.519 1.344 1.73.826 2.706-.176.33-.357.656-.546.978-.372.636-1.041.99-1.728.99zm-47.73.744c-.666 0-1.317-.333-1.697-.939-.198-.315-.389-.634-.575-.957-.551-.957-.222-2.18.735-2.732.956-.549 2.18-.221 2.731.736.161.28.328.557.499.832.586.935.302 2.17-.634 2.756-.329.206-.697.304-1.059.304zm43.28 5.006c-.513 0-1.026-.196-1.417-.589-.779-.782-.777-2.048.006-2.828.229-.228.454-.46.676-.696.754-.808 2.019-.85 2.826-.096.808.754.851 2.02.096 2.826-.253.272-.512.539-.776.8-.389.389-.9.583-1.411.583zm-38.652.606c-.491 0-.982-.18-1.368-.541-.27-.253-.536-.51-.797-.773-.779-.782-.777-2.049.006-2.828.782-.778 2.05-.776 2.828.006.229.229.463.455.699.677.806.756.846 2.021.091 2.827-.395.42-.926.632-1.459.632zm32.869 3.806c-.693 0-1.368-.361-1.737-1.005-.549-.959-.217-2.181.741-2.73.279-.16.556-.325.829-.496.935-.584 2.169-.302 2.756.635.586.935.302 2.17-.635 2.756-.316.198-.638.39-.962.576-.313.179-.655.264-.992.264zm-26.956.42c-.316 0-.638-.075-.937-.234-.33-.175-.654-.357-.975-.543-.954-.555-1.278-1.779-.723-2.734.556-.955 1.782-1.28 2.735-.723.276.161.557.317.841.469.975.518 1.345 1.729.827 2.705-.36.676-1.052 1.06-1.768 1.06zm20.224 2.345c-.887 0-1.697-.594-1.933-1.491-.282-1.068.356-2.162 1.424-2.444.31-.082.619-.169.925-.263 1.056-.321 2.175.269 2.499 1.325.324 1.057-.27 2.175-1.325 2.499-.357.109-.716.211-1.08.307-.17.045-.341.067-.51.067zm-13.41.205c-.148 0-.298-.016-.45-.051-.365-.084-.727-.174-1.087-.272-1.066-.29-1.695-1.389-1.405-2.454.289-1.067 1.388-1.697 2.454-1.406.309.084.62.162.935.234 1.076.247 1.748 1.321 1.501 2.397-.213.926-1.036 1.552-1.948 1.552zm6.285.713c-1.105 0-2.044-.896-2.044-2.001 0-1.104.85-2 1.955-2l.153.002.821-.016c1.08-.05 2.029.828 2.067 1.932.037 1.104-.827 2.028-1.932 2.066-.339.012-.679.017-1.02.017z" fill="#8DC9E6" sketch:type="MSShapeGroup" mask="url(#b)"/></g><path d="M32.875 56.125c-1.104 0-2-.896-2-2v-1c0-1.104.896-2 2-2s2 .896 2 2v1c0 1.104-.896 2-2 2m0-14c-1.104 0-2-.896-2-2v-1c0-1.104.896-2 2-2s2 .896 2 2v1c0 1.104-.896 2-2 2m0 7c-1.104 0-2-.896-2-2v-1c0-1.104.896-2 2-2s2 .896 2 2v1c0 1.104-.896 2-2 2m0-13.48c-1.104 0-2-.896-2-2v-.52c0-.648.314-1.256.843-1.631.528-.374 1.205-.47 1.819-.256l.49.172c1.042.366 1.591 1.506 1.226 2.549-.179.509-.542.901-.989 1.125-.36.347-.85.561-1.389.561m7.148 1.983c-.22 0-.442-.037-.661-.113l-.951-.333c-1.042-.366-1.592-1.506-1.227-2.549.364-1.043 1.507-1.589 2.549-1.227l.951.333c1.042.366 1.592 1.506 1.227 2.549-.288.823-1.062 1.34-1.888 1.34m6.656 2.33c-.219 0-.442-.037-.661-.113l-.951-.333c-1.042-.365-1.592-1.506-1.227-2.549.365-1.042 1.507-1.59 2.549-1.227l.951.333c1.042.366 1.592 1.506 1.227 2.549-.288.823-1.062 1.34-1.888 1.34m6.196 2.168c-.22 0-.442-.037-.662-.113l-.49-.172c-1.042-.366-1.591-1.507-1.226-2.55.365-1.042 1.502-1.59 2.55-1.226l.49.172c1.042.367 1.591 1.507 1.226 2.55-.289.823-1.062 1.339-1.888 1.339m-18.002-13.001c-.336 0-.678-.085-.99-.264-.959-.548-1.292-1.769-.744-2.728l.257-.451c.549-.959 1.771-1.291 2.729-.744.959.547 1.292 1.769.744 2.728l-.258.451c-.369.647-1.044 1.008-1.738 1.008m3.712-6.496c-.336 0-.677-.085-.989-.263-.96-.548-1.293-1.769-.746-2.728l.575-1.008c.548-.959 1.77-1.29 2.728-.746.96.548 1.293 1.769.746 2.728l-.575 1.008c-.369.647-1.045 1.009-1.739 1.009m4.03-7.053c-.336 0-.678-.085-.99-.264-.959-.548-1.292-1.769-.744-2.728l.257-.451c.548-.958 1.772-1.292 2.729-.744.959.547 1.292 1.769.744 2.728l-.258.451c-.369.647-1.044 1.008-1.738 1.008" fill="#368AC0" sketch:type="MSShapeGroup"/></g></svg>