<svg width="65" height="65" viewBox="0 0 65 65" xmlns="http://www.w3.org/2000/svg" xmlns:xlink="http://www.w3.org/1999/xlink" xmlns:sketch="http://www.bohemiancoding.com/sketch/ns"><title>no-budget</title><desc>Created with Sketch.</desc><defs><path id="a" d="M0 .875h59.571v59.125h-59.571"/></defs><g sketch:type="MSLayerGroup" fill="none"><g transform="translate(3 3)"><mask id="b" sketch:name="Clip 2"><use xlink:href="#a"/></mask><path d="M59.44 38.121c-2.077-4.184-3.739-4.773-4.759-4.533-1.722.404-1.954 2.799-1.954 5.089 0 1.047-.078 1.682-.156 2.057-.231-.236-.511-.586-.798-.987.069-.573.108-1.154.108-1.742 0-10.099-10.42-18.286-23.273-18.286-3.948 0-7.677.775-10.935 2.138l-6.068-4.097v7.746c-2.573 2.32-4.651 5.206-5.645 8.413h-3.059c-1.602 0-2.901 1.299-2.901 2.901v3.627c0 1.602 1.299 2.901 2.901 2.901h3.441c1.174 3.016 3.311 5.702 6.132 7.834l-1.381 4.31c-.439 1.368.444 2.6 1.812 3.039l3.615 1.16c1.368.439 2.847-.321 3.286-1.689l.88-2.799c2.473.703 5.14 1.088 7.922 1.088 2.893 0 5.66-.418 8.215-1.175l1.039 3.114c.463 1.36 1.955 2.094 3.315 1.631l3.593-1.223c1.36-.463 2.22-1.71 1.757-3.07l-1.554-4.564c2.888-2.244 5.029-5.079 6.112-8.254.566.48 1.164.786 1.776.786.148 0 .298-.018.448-.056 1.69-.422 1.917-2.666 1.917-4.803 0-1.151.081-1.853.164-2.272.524.59 1.261 1.723 1.812 2.828.307.617 1.058.87 1.675.562.618-.307.87-1.056.563-1.674" fill="#368AC0" sketch:type="MSShapeGroup" mask="url(#b)"/></g><path d="M33.5 3.875c-4.211 0-7.625 3.414-7.625 7.625s3.414 7.625 7.625 7.625 7.625-3.414 7.625-7.625-3.414-7.625-7.625-7.625" fill="#8DC9E6" sketch:type="MSShapeGroup"/><path d="M36.207 10.712c-.47.292-1.086.148-1.378-.319-.248-.4-.638-.678-1.095-.785-.458-.104-.927-.026-1.325.221-.399.249-.677.637-.782 1.093-.107.457-.028.928.219 1.325.248.399.636.678 1.093.784.458.105.928.027 1.326-.22.469-.292 1.086-.149 1.378.319.292.469.149 1.086-.32 1.378-.56.349-1.188.533-1.831.559l-.201.867c-.107.462-.519.773-.973.773l-.227-.026c-.538-.125-.872-.662-.747-1.2l.203-.876c-.564-.307-1.051-.741-1.4-1.301-.529-.852-.696-1.858-.468-2.834.225-.976.819-1.807 1.672-2.338.559-.348 1.187-.522 1.828-.549l.174-.746c.125-.539.665-.877 1.2-.747.538.125.872.662.747 1.2l-.173.745c.564.306 1.051.74 1.399 1.299.292.469.15 1.086-.319 1.378m-19.789 27.295c-1.2 0-2.176-.976-2.176-2.176 0-1.199.976-2.176 2.176-2.176 1.2 0 2.176.977 2.176 2.176 0 1.2-.976 2.176-2.176 2.176m15.625 12.881c-1.206 0-2.196-.991-2.196-2.197 0-1.204.99-2.196 2.196-2.196 1.206 0 2.196.992 2.196 2.196 0 1.206-.99 2.197-2.196 2.197m2.089-8.384c-.642.938-.428 2.25-2.196 2.25-1.151 0-1.714-.938-1.714-1.794 0-3.187 4.687-3.91 4.687-6.535 0-1.446-.964-2.303-2.571-2.303-3.428 0-2.089 3.535-4.687 3.535-.937 0-1.741-.563-1.741-1.634 0-2.624 3-4.955 6.267-4.955 3.428 0 6.802 1.58 6.802 5.357 0 3.482-3.99 4.82-4.847 6.079" fill="#fff" sketch:type="MSShapeGroup"/></g></svg>