<svg width="65" height="65" viewBox="0 0 65 65" xmlns="http://www.w3.org/2000/svg" xmlns:sketch="http://www.bohemiancoding.com/sketch/ns"><title>no-data</title><desc>Created with Sketch.</desc><g sketch:type="MSLayerGroup" fill="none"><path d="M48 63h-7c-2.209 0-4-1.791-4-4v-41c0-2.209 1.791-4 4-4h7c2.209 0 4 1.791 4 4v41c0 2.209-1.791 4-4 4m-17 0h-7c-2.209 0-4-1.791-4-4v-41c0-2.209 1.791-4 4-4h7c2.209 0 4 1.791 4 4v41c0 2.209-1.791 4-4 4m-17 0h-7c-2.209 0-4-1.791-4-4v-41c0-2.209 1.791-4 4-4h7c2.209 0 4 1.791 4 4v41c0 2.209-1.791 4-4 4" fill="#8DC9E6" sketch:type="MSShapeGroup"/><path d="M62.726 16.877l-7.002-12.827c-.771-1.416-2.677-1.392-3.448.024l-7.002 12.791c-.775 1.427.184 3.135 1.724 3.135h14.004c1.54 0 2.499-1.696 1.724-3.123" fill="#368AC0" sketch:type="MSShapeGroup"/><path d="M55 12.5c0 .276-.178.5-.471.5h-1.058c-.293 0-.471-.224-.471-.5v-4c0-.276.178-.5.471-.5h1.058c.293 0 .471.224.471.5v4zm0 4c0 .276-.178.5-.471.5h-1.058c-.293 0-.471-.224-.471-.5v-1c0-.276.178-.5.471-.5h1.058c.293 0 .471.224.471.5v1z" fill="#fff" sketch:type="MSShapeGroup"/></g></svg>