<svg width="65" height="65" viewBox="0 0 65 65" xmlns="http://www.w3.org/2000/svg" xmlns:sketch="http://www.bohemiancoding.com/sketch/ns"><title>no-events</title><desc>Created with Sketch.</desc><g sketch:type="MSLayerGroup" fill="none"><path d="M46 13c-1.104 0-2-.896-2-2v-5.557c0-1.104.896-2 2-2s2 .896 2 2v5.557c0 1.104-.896 2-2 2m-26 0c-1.104 0-2-.896-2-2v-5.557c0-1.104.896-2 2-2s2 .896 2 2v5.557c0 1.104-.896 2-2 2" fill="#368AC0" sketch:type="MSShapeGroup"/><path d="M50 8v3c0 2.206-1.794 4-4 4s-4-1.794-4-4v-3h-18v3c0 2.206-1.794 4-4 4s-4-1.794-4-4v-3h-13v55h60v-55h-13z" fill="#8DC9E6" sketch:type="MSShapeGroup"/><path d="M40.414 39.586c.781.781.781 2.047 0 2.828-.391.391-.902.586-1.414.586-.512 0-1.024-.195-1.414-.586l-4.086-4.086-4.086 4.086c-.391.391-.902.586-1.414.586-.512 0-1.024-.195-1.414-.586-.781-.781-.781-2.047 0-2.828l4.086-4.086-4.086-4.086c-.781-.781-.781-2.047 0-2.828.781-.781 2.047-.781 2.828 0l4.086 4.086 4.086-4.086c.781-.781 2.047-.781 2.828 0 .781.781.781 2.047 0 2.828l-4.086 4.086 4.086 4.086z" fill="#fff" sketch:type="MSShapeGroup"/></g></svg>