<svg width="65" height="65" viewBox="0 0 65 65" xmlns="http://www.w3.org/2000/svg" xmlns:sketch="http://www.bohemiancoding.com/sketch/ns"><title>no-notes</title><desc>Created with Sketch.</desc><g sketch:type="MSLayerGroup" fill="none"><path d="M3 13h60v-10h-60v10z" fill="#368AC0" sketch:type="MSShapeGroup"/><path d="M53 53v10l10-10h-10zm-50-38v48h48v-12h12v-36h-60z" fill="#8DC9E6" sketch:type="MSShapeGroup"/><path d="M39.414 41.586c.781.781.781 2.047 0 2.828-.391.391-.902.586-1.414.586-.512 0-1.024-.195-1.414-.586l-4.086-4.086-4.086 4.086c-.391.391-.902.586-1.414.586-.512 0-1.024-.195-1.414-.586-.781-.781-.781-2.047 0-2.828l4.086-4.086-4.086-4.086c-.781-.781-.781-2.047 0-2.828.781-.781 2.047-.781 2.828 0l4.086 4.086 4.086-4.086c.781-.781 2.047-.781 2.828 0 .781.781.781 2.047 0 2.828l-4.086 4.086 4.086 4.086z" fill="#fff" sketch:type="MSShapeGroup"/></g></svg>