<svg width="65" height="65" viewBox="0 0 65 65" xmlns="http://www.w3.org/2000/svg" xmlns:sketch="http://www.bohemiancoding.com/sketch/ns"><title>no-tasks</title><desc>Created with Sketch.</desc><g sketch:type="MSLayerGroup" fill="none"><path d="M6.586 12.414c.391.391.902.586 1.414.586.512 0 1.024-.195 1.414-.586l6-6c.781-.781.781-2.047 0-2.828-.781-.781-2.047-.781-2.828 0l-4.586 4.586-1.586-1.586c-.781-.781-2.047-.781-2.828 0-.781.781-.781 2.047 0 2.828l3 3zm6 16.172l-4.586 4.586-1.586-1.586c-.781-.781-2.047-.781-2.828 0-.781.781-.781 2.047 0 2.828l3 3c.391.391.902.586 1.414.586.512 0 1.023-.195 1.414-.586l6-6c.781-.781.781-2.047 0-2.828-.781-.781-2.047-.781-2.828 0m0 25l-4.586 4.586-1.586-1.586c-.781-.781-2.047-.781-2.828 0-.781.781-.781 2.047 0 2.828l3 3c.391.391.902.586 1.414.586.512 0 1.023-.195 1.414-.586l6-6c.781-.781.781-2.047 0-2.828-.781-.781-2.047-.781-2.828 0" fill="#368AC0" sketch:type="MSShapeGroup"/><path d="M23 11h38c1.104 0 2-.896 2-2s-.896-2-2-2h-38c-1.104 0-2 .896-2 2s.896 2 2 2m38 21h-38c-1.104 0-2 .896-2 2s.896 2 2 2h38c1.104 0 2-.896 2-2s-.896-2-2-2m0 25h-38c-1.104 0-2 .896-2 2s.896 2 2 2h38c1.104 0 2-.896 2-2s-.896-2-2-2" fill="#8DC9E6" sketch:type="MSShapeGroup"/></g></svg>