<svg width="18" height="18" viewBox="0 0 18 18" xmlns="http://www.w3.org/2000/svg"><title>camera</title><desc>Created with Sketch.</desc><g fill="#5C5C5C"><path d="M13.239 4l-.846-1.078c-.362-.603-1.013-.922-1.716-.922h-3.34c-.703 0-1.355.319-1.716.922l-.847 1.078h-2.774c-1.105 0-2 .895-2 2v9.996c0 1.104.895 2 2 2h13.994c1.104 0 2-.896 2-2v-9.996c0-1.105-.896-2-2-2h-2.755zm-9.251 6.998c0-2.761 2.242-4.998 5.009-4.998 2.766 0 5.009 2.237 5.009 4.998 0 2.759-2.243 4.998-5.009 4.998-2.767 0-5.009-2.239-5.009-4.998zM8.997 7.999c-1.658 0-3.006 1.344-3.006 2.999 0 1.653 1.348 2.998 3.006 2.998 1.657 0 3.006-1.345 3.006-2.998 0-1.655-1.349-2.999-3.006-2.999"/></g></svg>