<svg width="18" height="18" viewBox="0 0 18 18" xmlns="http://www.w3.org/2000/svg"><title>close</title><desc>Created with Sketch.</desc><path d="M10.414 9l5.293-5.293c.391-.391.391-1.023 0-1.414s-1.023-.391-1.414 0l-5.293 5.293-5.293-5.293c-.391-.391-1.023-.391-1.414 0s-.391 1.023 0 1.414l5.293 5.293-5.293 5.293c-.391.391-.391 1.023 0 1.414.195.195.451.293.707.293.256 0 .512-.098.707-.293l5.293-5.293 5.293 5.293c.195.195.451.293.707.293.256 0 .512-.098.707-.293.391-.391.391-1.023 0-1.414l-5.293-5.293" fill="#5C5C5C"/></svg>