<svg width="18" height="18" viewBox="0 0 18 18" xmlns="http://www.w3.org/2000/svg"><title>collapse-context-app-tray@1x</title><desc>Created with Sketch.</desc><path d="M15 15c-.256 0-.512-.098-.707-.293l-5-5c-.391-.391-.391-1.023 0-1.414l5-5c.391-.391 1.023-.391 1.414 0s.391 1.023 0 1.414l-4.293 4.293 4.293 4.293c.391.391.391 1.023 0 1.414-.195.195-.451.293-.707.293m-6 0c-.256 0-.512-.098-.707-.293l-5-5c-.391-.391-.391-1.023 0-1.414l5-5c.391-.391 1.023-.391 1.414 0s.391 1.023 0 1.414l-4.293 4.293 4.293 4.293c.391.391.391 1.023 0 1.414-.195.195-.451.293-.707.293" fill="#5C5C5C"/></svg>