<svg width="18" height="18" viewBox="0 0 18 18" xmlns="http://www.w3.org/2000/svg"><title>edit</title><desc>Created with Sketch.</desc><path d="M17 16h-7l-2.22 1.997h9.22c.55 0 1-.45 1-1s-.45-.997-1-.997zm-2.91-16c-.64 0-1.28.242-1.77.727l-11.67 11.68c-.37.37-.65 1.05-.65 1.57v3.02c0 .55.45 1 1 1h3.03c.53 0 1.19-.28 1.56-.65l10.86-10.85.82-.82c.97-.98.97-2.56 0-3.54l-1.41-1.41c-.49-.485-1.13-.727-1.77-.727zm-12.09 15.997v-1.98l.06-.2 9.21-9.21 2.25 1.98-9.31 9.32-.18.09h-2.03z" fill="#5C5C5C"/></svg>