<svg width="18" height="18" viewBox="0 0 18 18" xmlns="http://www.w3.org/2000/svg"><title>link</title><desc>Created with Sketch.</desc><path d="M7 14h-2.5c-2.481 0-4.5-2.019-4.5-4.5v-1c0-2.481 2.019-4.5 4.5-4.5h2.5c.553 0 1 .447 1 1 0 .553-.447 1-1 1h-2.5c-1.379 0-2.5 1.121-2.5 2.5v1c0 1.379 1.121 2.5 2.5 2.5h2.5c.553 0 1 .447 1 1 0 .553-.447 1-1 1m6.5 0h-2.5c-.553 0-1-.447-1-1 0-.553.447-1 1-1h2.5c1.379 0 2.5-1.121 2.5-2.5v-1c0-1.379-1.121-2.5-2.5-2.5h-2.5c-.553 0-1-.447-1-1 0-.553.447-1 1-1h2.5c2.481 0 4.5 2.019 4.5 4.5v1c0 2.481-2.019 4.5-4.5 4.5m-1.5-4h-6c-.55 0-1-.45-1-1s.45-1 1-1h6c.55 0 1 .45 1 1s-.45 1-1 1" fill="#5C5C5C"/></svg>