<svg width="18" height="18" viewBox="0 0 18 18" xmlns="http://www.w3.org/2000/svg"><title>new-document</title><desc>Created with Sketch.</desc><g fill="#5C5C5C"><path d="M15.414 3.414l-2.828-2.828c-.375-.375-.884-.586-1.415-.586h-6.671c-1.378 0-2.5 1.121-2.5 2.5v13c0 1.379 1.122 2.5 2.5 2.5h9c1.378 0 2.5-1.121 2.5-2.5v-10.672c0-.53-.211-1.039-.586-1.414zm-1.414 12.086c0 .276-.224.5-.5.5h-9c-.276 0-.5-.224-.5-.5v-13c0-.276.224-.5.5-.5h5.5v3c0 .55.45 1 1 1h3v9.5zM8 9v-1.01c0-.547.443-.99.99-.99h.02c.547 0 .99.443.99.99v1.01h1.01c.547 0 .99.443.99.99v.02c0 .547-.443.99-.99.99h-1.01v1.01c0 .547-.443.99-.99.99h-.02c-.547 0-.99-.443-.99-.99v-1.01h-1.01c-.547 0-.99-.443-.99-.99v-.02c0-.547.443-.99.99-.99h1.01z"/></g></svg>