<svg width="18" height="18" viewBox="0 0 18 18" xmlns="http://www.w3.org/2000/svg"><title>number-list</title><desc>Created with Sketch.</desc><path d="M18 3.99c0-.547-.443-.99-.99-.99h-11.02c-.547 0-.99.443-.99.99v.02c0 .547.443.99.99.99h11.02c.547 0 .99-.443.99-.99v-.02zm0 5c0-.547-.443-.99-.99-.99h-11.02c-.547 0-.99.443-.99.99v.02c0 .547.443.99.99.99h11.02c.547 0 .99-.443.99-.99v-.02zm0 5c0-.547-.443-.99-.99-.99h-11.02c-.547 0-.99.443-.99.99v.02c0 .547.443.99.99.99h11.02c.547 0 .99-.443.99-.99v-.02zm-18-.99h2v.5h-1v1h1v.5h-2v1h3v-4h-3v1zm1-7h1v-4h-2v1h1v3zm-1 2h1.8l-1.8 2.1v.9h3v-1h-1.8l1.8-2.1v-.9h-3v1z" fill="#5C5C5C"/></svg>