<svg width="18" height="18" viewBox="0 0 18 18" xmlns="http://www.w3.org/2000/svg"><title>paste</title><desc>Created with Sketch.</desc><path d="M16.414 9.747l-2.161-2.161c-.376-.375-.884-.586-1.415-.586h-2.338c-1.379 0-2.5 1.121-2.5 2.5v6c0 1.379 1.121 2.5 2.5 2.5h4c1.379 0 2.5-1.121 2.5-2.5v-4.338c0-.531-.211-1.039-.586-1.415zm-1.414 5.753c0 .276-.224.5-.5.5h-4c-.276 0-.5-.224-.5-.5v-6c0-.276.224-.5.5-.5h1.5v2c0 .55.45 1 1 1h2v3.5zm-2.125-13.462v-.038h-.567l-.846-1.078c-.362-.603-1.013-.922-1.716-.922h-3.34c-.703 0-1.355.319-1.716.922l-.847 1.078h-.718v.038c-1.201.182-2.125 1.21-2.125 2.462v9c0 1.381 1.119 2.5 2.5 2.5h2.5c.552 0 1-.448 1-1s-.448-1-1-1h-2.5c-.276 0-.5-.224-.5-.5v-9c0-.276.224-.5.5-.5h9c.276 0 .5.224.5.5v.5c0 .552.448 1 1 1s1-.448 1-1v-.5c0-1.252-.924-2.28-2.125-2.462z" fill="#5C5C5C"/></svg>