<svg width="18" height="18" viewBox="0 0 18 18" xmlns="http://www.w3.org/2000/svg"><title>responsive-app-switcher</title><desc>Created with Sketch.</desc><g fill="#5C5D5D"><path d="M15.01 10c-.547 0-.991.447-.991 1v3.599c0 .389-.445.401-.496.401h-9.046c-.051 0-.495-.012-.495-.401v-9.099c0-.275.221-.5.495-.5h3.533c.547 0 .99-.447.99-1 0-.553-.443-1-.99-1h-3.533c-1.366 0-2.477 1.121-2.477 2.5v9.099c0 1.346 1.088 2.401 2.477 2.401h9.046c1.389 0 2.477-1.055 2.477-2.401v-3.599c0-.553-.443-1-.99-1M17 5c0-1.657-1.343-3-3-3s-3 1.343-3 3 1.343 3 3 3 3-1.343 3-3"/></g></svg>