<svg width="18" height="18" viewBox="0 0 18 18" xmlns="http://www.w3.org/2000/svg"><title>save</title><desc>Created with Sketch.</desc><g fill="#5C5C5C"><path d="M13 9.99c0-.547-.443-.99-.99-.99h-6.02c-.547 0-.99.443-.99.99v.02c0 .547.443.99.99.99h6.02c.547 0 .99-.443.99-.99v-.02zm0 3c0-.547-.443-.99-.99-.99h-6.02c-.547 0-.99.443-.99.99v.02c0 .547.443.99.99.99h6.02c.547 0 .99-.443.99-.99v-.02zm-7.5-9.99h5c.276 0 .5-.224.5-.5v-2c0-.276-.224-.5-.5-.5h-5c-.276 0-.5.224-.5.5v2c0 .276.224.5.5.5zM17.442 4.322l-3.442-3.736c-.29-.29-.653-.478-1.047-.55.028.15.047.305.047.464v2c0 1.379-1.122 2.5-2.5 2.5h-4.901c-1.379 0-2.599-1.121-2.599-2.5v-2c0-.171.116-.339.149-.5h-.649c-1.378 0-2.5 1.121-2.5 2.5v13c0 1.379 1.122 2.5 2.5 2.5h13c1.378 0 2.5-1.121 2.5-2.5v-9.793c0-.534-.208-1.036-.558-1.385zm-1.442 11.178c0 .275-.225.5-.5.5h-13c-.275 0-.5-.225-.5-.5v-8c0-.276.224-.5.5-.5h13c.276 0 .5.224.5.5v8z"/></g></svg>