<svg width="18" height="18" viewBox="0 0 18 18" xmlns="http://www.w3.org/2000/svg"><title>settings</title><desc>Created with Sketch.</desc><path d="M17.1 7.49l-1.39-.284c-.133-.026-.237-.125-.277-.254-.116-.363-.262-.715-.439-1.052-.064-.12-.06-.263.015-.377l.784-1.184c.295-.446.235-1.038-.143-1.416l-.572-.573c-.379-.378-.971-.438-1.416-.143l-1.185.784c-.114.074-.257.078-.378.015-.336-.178-.687-.323-1.051-.439-.129-.041-.227-.144-.254-.277l-.284-1.39c-.107-.524-.568-.9-1.102-.9h-.816c-.534 0-.995.376-1.102.9l-.284 1.39c-.027.133-.125.236-.254.277-.364.116-.715.261-1.051.439-.121.063-.264.059-.378-.015l-1.185-.784c-.445-.295-1.037-.235-1.416.143l-.572.573c-.378.378-.438.97-.143 1.416l.784 1.184c.075.114.079.257.015.377-.177.337-.323.689-.439 1.052-.04.129-.144.228-.277.254l-1.39.284c-.524.107-.9.568-.9 1.103v.814c0 .535.376.996.9 1.103l1.39.284c.133.026.237.125.277.254.116.363.262.715.439 1.051.064.121.06.264-.015.378l-.784 1.184c-.295.446-.235 1.038.143 1.416l.572.573c.378.378.971.438 1.416.143l1.185-.784c.114-.075.257-.078.378-.015.336.178.687.323 1.051.439.129.04.227.144.254.276l.284 1.391c.107.524.568.9 1.102.9h.816c.534 0 .995-.376 1.102-.9l.284-1.391c.027-.132.125-.236.254-.276.364-.116.715-.261 1.051-.439.121-.063.264-.06.378.015l1.185.784c.445.295 1.038.235 1.416-.143l.572-.573c.378-.378.438-.97.143-1.416l-.784-1.184c-.075-.114-.079-.257-.015-.378.177-.336.323-.688.439-1.051.04-.129.144-.228.277-.254l1.39-.284c.524-.107.9-.568.9-1.103v-.814c0-.535-.376-.996-.9-1.103m-8.1 4.51c-1.657 0-3-1.343-3-3s1.343-3 3-3 3 1.343 3 3-1.343 3-3 3" fill="#5C5C5C"/></svg>