<svg width="18" height="18" viewBox="0 0 18 18" xmlns="http://www.w3.org/2000/svg"><title>sort-down</title><desc>Created with Sketch.</desc><path d="M17.997 2.99c0-.547-.443-.99-.99-.99h-9.02c-.547 0-.99.443-.99.99v.02c0 .547.443.99.99.99h9.02c.547 0 .99-.443.99-.99v-.02zm0 5c0-.547-.443-.99-.99-.99h-9.02c-.547 0-.99.443-.99.99v.02c0 .547.443.99.99.99h9.02c.547 0 .99-.443.99-.99v-.02zm-.99 4.01h-6.01c-.547 0-1 .443-1 .99v.02c0 .547.47.99.99.99h6.02c.547 0 .99-.443.99-.99v-.02c0-.547-.443-.99-.99-.99zm-9.739 0h-2.271v-11c0-.553-.447-1-1-1-.553 0-1 .447-1 1v11h-2.266c-.605 0-.947.887-.58 1.361l3.268 4.329c.293.378.868.428 1.16.05l3.269-4.403c.367-.476.025-1.337-.58-1.337z" fill="#5C5C5C"/></svg>