<svg width="18" height="18" viewBox="0 0 18 18" xmlns="http://www.w3.org/2000/svg"><title>star-outlined</title><desc>Created with Sketch.</desc><path d="M9.005 2.937l1.479 4.552h4.596l-2.772 1.927-.921.639 1.457 4.407-2.957-2.158-.878-.641-3.846 2.769 1.459-4.376-.923-.64-2.777-1.927h4.599l1.484-4.552m.006-2.937c-.346 0-.694.201-.824.602l-1.754 5.387h-5.572c-.842 0-1.182 1.073-.489 1.557l4.472 3.102-1.727 5.176c-.202.611.277 1.148.817 1.148.166 0 .337-.051.497-.165l4.572-3.291 4.57 3.336c.16.116.333.168.501.168.539 0 1.019-.534.817-1.143l-1.728-5.229 4.465-3.102c.693-.482.354-1.557-.488-1.557h-5.566l-1.755-5.399c-.129-.394-.468-.59-.808-.59" fill="#5C5C5C"/></svg>