<svg width="18" height="18" viewBox="0 0 18 18" xmlns="http://www.w3.org/2000/svg"><title>url</title><desc>Created with Sketch.</desc><path d="M9 0c-4.963 0-9 4.037-9 9s4.037 9 9 9 9-4.037 9-9-4.037-9-9-9m7 9c0 1.074-.25 2.089-.685 3h-4.315c-1.016 0-1-1-1-1 0-.55-.45-1-1-1h-1.833l-.081.017-.086-.017c-.55 0-1-.45-1-1s.45-1 1-1v-.006l2 .006c.55 0 1-.45 1-1 0 0 0-1 1-1h1c.55 0 1-.45 1-1v-1.736c1.811 1.267 3 3.364 3 5.736m-14 0c0-.337.032-.666.078-.99.914.056.922.99.922.99 0 .55.45 1 1 1 0 0 1 .021 1 1v1c0 .55.45 1 1 1 1 0 1 1 1 1v1.705c-2.887-.863-5-3.541-5-6.705" fill="#5C5C5C"/></svg>