<svg width="14" height="14" viewBox="0 0 14 14" xmlns="http://www.w3.org/2000/svg"><title>delete</title><desc>Created with Sketch.</desc><path d="M2.028 12.328c.16.965.995 1.672 1.972 1.672h6.028c.977 0 1.812-.707 1.972-1.672v-6.328h-10l.028 6.328zm5.972-3.828c0-.276.224-.5.5-.5h1c.276 0 .5.224.5.5v3c0 .275-.224.5-.5.5h-1c-.276 0-.5-.225-.5-.5v-3zm-4 0c0-.276.224-.5.5-.5h1c.276 0 .5.224.5.5v3c0 .275-.224.5-.5.5h-1c-.276 0-.5-.225-.5-.5v-3zm9-6.5h-3c0-1.105-.895-2-2-2h-2c-1.105 0-2 .895-2 2h-3c-.552 0-1 .447-1 1 0 .553.448 1 1 1h12c.552 0 1-.447 1-1 0-.553-.448-1-1-1z" fill="#5C5C5C"/></svg>