<svg width="14" height="14" viewBox="0 0 14 14" xmlns="http://www.w3.org/2000/svg" xmlns:xlink="http://www.w3.org/1999/xlink"><title>edit</title><desc>Created with Sketch.</desc><defs><path id="a" d="M7 14h7v-14h-14v14h7z"/></defs><g fill="none"><path d="M13 12h-3.22l-2 2h5.22c.55 0 1-.45 1-1s-.45-1-1-1M13 12h-3.22l-2 2h5.22c.55 0 1-.45 1-1s-.45-1-1-1" fill="#5C5C5C"/><mask id="b"><use xlink:href="#a"/></mask><path d="M2 12v-1.98l.06-.2 5.94-5.82 2 2-5.79 5.91-.18.09h-2.03zm8.092-12c-.64 0-1.28.242-1.77.727l-1.139 1.14-6.533 6.543c-.37.37-.65 1.05-.65 1.57v3.02c0 .55.45 1 1 1h3.03c.53 0 1.19-.28 1.56-.65l6.863-6.853.819-.819c.971-.981.971-2.561 0-3.541l-1.41-1.41c-.49-.485-1.13-.727-1.77-.727z" fill="#5C5C5C" mask="url(#b)"/></g></svg>