<svg width="14" height="14" viewBox="0 0 14 14" xmlns="http://www.w3.org/2000/svg" xmlns:xlink="http://www.w3.org/1999/xlink"><title>info</title><desc>Created with Sketch.</desc><defs><path id="a" d="M14 7v-7h-14v14h14v-7z"/></defs><g fill="none"><mask id="b"><use xlink:href="#a"/></mask><path d="M7 11c-.552 0-1-.448-1-1v-3c0-.552.448-1 1-1s1 .448 1 1v3c0 .552-.448 1-1 1m.5-6h-1c-.276 0-.5-.224-.5-.5v-1c0-.276.224-.5.5-.5h1c.276 0 .5.224.5.5v1c0 .276-.224.5-.5.5m-.5-5c-3.866 0-7 3.134-7 7s3.134 7 7 7 7-3.134 7-7-3.134-7-7-7" fill="#3188C1" mask="url(#b)"/></g></svg>