<svg width="14" height="14" viewBox="0 0 14 14" xmlns="http://www.w3.org/2000/svg" xmlns:xlink="http://www.w3.org/1999/xlink"><title>search-list</title><desc>Created with Sketch.</desc><defs><path id="a" d="M10 10h-10v-10h10v10z"/></defs><g fill="none"><g transform="translate(0 2)"><mask id="b"><use xlink:href="#a"/></mask><path d="M4 6c-1.103 0-2-.897-2-2 0-1.102.897-2 2-2 1.102 0 2 .898 2 2 0 1.103-.898 2-2 2m5.71 2.295l-2.276-2.275c.35-.596.566-1.281.566-2.02 0-2.206-1.794-4-4-4s-4 1.794-4 4 1.794 4 4 4c.739 0 1.424-.216 2.019-.566l2.276 2.276c.387.387 1.014.387 1.4 0l.015-.015c.387-.386.387-1.013 0-1.4" fill="#5C5C5C" mask="url(#b)"/></g><path d="M13 4c.553 0 1-.447 1-1 0-.553-.447-1-1-1h-3c-.553 0-1 .447-1 1 0 .553.447 1 1 1h3zM13 8c.553 0 1-.447 1-1 0-.553-.447-1-1-1h-2c-.553 0-1 .447-1 1 0 .553.447 1 1 1h2z" fill="#5C5C5C"/></g></svg>