<svg width="40" height="40" viewBox="0 0 40 40" xmlns="http://www.w3.org/2000/svg" xmlns:sketch="http://www.bohemiancoding.com/sketch/ns"><title>ellipses</title><desc>Created with Sketch.</desc><g sketch:type="MSLayerGroup"><path d="M6 16c-2.208 0-4 1.792-4 4 0 2.21 1.792 4 4 4 2.21 0 4-1.79 4-4 0-2.208-1.79-4-4-4M20 16c-2.208 0-4 1.792-4 4 0 2.21 1.792 4 4 4s4-1.79 4-4c0-2.208-1.792-4-4-4M34 16c-2.208 0-4 1.792-4 4 0 2.21 1.792 4 4 4s4-1.79 4-4c0-2.208-1.792-4-4-4" sketch:type="MSShapeGroup"/></g></svg>