<svg xmlns="http://www.w3.org/2000/svg">
  <path d="m22.799969,17.766659c-0.980831,0 -1.783331,-0.8025 -1.783331,-1.783331c0,-0.980832 0.8025,-1.783333 1.783331,-1.783333c0.980837,0 1.783333,0.802501 1.783333,1.783333c0,0.980831 -0.802496,1.783331 -1.783333,1.783331zm-7.133332,0c-0.980835,0 -1.783333,-0.8025 -1.783333,-1.783331c0,-0.980832 0.802498,-1.783333 1.783333,-1.783333c0.980834,0 1.78333,0.802501 1.78333,1.783333c0,0.980831 -0.802496,1.783331 -1.78333,1.783331zm-7.13333,0c-0.980836,0 -1.783337,-0.8025 -1.783337,-1.783331c0,-0.980832 0.802501,-1.783333 1.783337,-1.783333c0.98083,0 1.783332,0.802501 1.783332,1.783333c0,0.980831 -0.802502,1.783331 -1.783332,1.783331z" fill-rule="evenodd"></path>
</svg>
