<svg width="40" height="40" viewBox="0 0 40 40" xmlns="http://www.w3.org/2000/svg" xmlns:sketch="http://www.bohemiancoding.com/sketch/ns"><title>arrow right</title><desc>Created with Sketch.</desc><path d="M35.048 17.273l-.149-.15-12.002-11.923c-.938-.932-2.455-.932-3.394 0-.938.932-.938 2.439 0 3.372l7.903 7.853h-23.006c-1.325 0-2.4 1.068-2.4 2.385 0 1.316 1.075 2.385 2.4 2.385h23.306l-8.054 8c-.936.932-.936 2.442 0 3.372.47.467 1.085.699 1.699.699.612 0 1.226-.231 1.694-.699l12.002-11.923c.936-.93.936-2.439 0-3.369" sketch:type="MSShapeGroup"/></svg>