<?xml version="1.0" encoding="utf-8"?>
<!-- Generator: Adobe Illustrator 16.0.0, SVG Export Plug-In . SVG Version: 6.00 Build 0)  -->
<!DOCTYPE svg PUBLIC "-//W3C//DTD SVG 1.1//EN" "http://www.w3.org/Graphics/SVG/1.1/DTD/svg11.dtd">
<svg version="1.1" id="Layer_1" xmlns="http://www.w3.org/2000/svg" xmlns:xlink="http://www.w3.org/1999/xlink" x="0px" y="0px"
	 width="32px" height="32px" viewBox="0 0 32 32" enable-background="new 0 0 32 32" xml:space="preserve">
<path d="M9.286,23v-6.025c-0.026-0.866,0.099-1.682,0.374-2.442s0.662-1.431,1.162-2.009c0.498-0.578,1.097-1.057,1.791-1.438
	c0.695-0.381,1.453-0.623,2.268-0.729v2.601c-1,0.342-1.684,0.846-2.049,1.517c-0.368,0.669-0.551,1.489-0.551,2.462h2.6V23H9.286z
	 M17.676,23v-6.025c-0.025-0.866,0.1-1.682,0.375-2.442s0.663-1.431,1.162-2.009c0.498-0.578,1.096-1.057,1.792-1.438
	c0.695-0.381,1.45-0.623,2.265-0.729v2.601c-0.998,0.342-1.681,0.846-2.049,1.517c-0.367,0.669-0.552,1.489-0.552,2.462h2.601V23
	H17.676z"/>
</svg>
