<?xml version="1.0" encoding="utf-8"?>
<!-- Generator: Adobe Illustrator 16.0.0, SVG Export Plug-In . SVG Version: 6.00 Build 0)  -->
<!DOCTYPE svg PUBLIC "-//W3C//DTD SVG 1.1//EN" "http://www.w3.org/Graphics/SVG/1.1/DTD/svg11.dtd">
<svg version="1.1" id="Layer_1" xmlns="http://www.w3.org/2000/svg" xmlns:xlink="http://www.w3.org/1999/xlink" x="0px" y="0px"
	 width="32px" height="32px" viewBox="0 0 32 32" enable-background="new 0 0 32 32" xml:space="preserve">
<path fill="#000" d="M27,6.7H12.312v4.549H27V6.7z M27,13.872H12.312v4.55H27V13.872z M12.312,21.044v4.55H27
	v-4.55H12.312z M7.118,6.632c-1.315,0-2.381,1.066-2.381,2.382s1.065,2.382,2.381,2.382c1.316,0,2.383-1.066,2.383-2.382
	S8.435,6.632,7.118,6.632z M7.118,13.481c-1.315,0-2.381,1.066-2.381,2.382s1.065,2.382,2.381,2.382
	c1.316,0,2.383-1.066,2.383-2.382S8.435,13.481,7.118,13.481z M7.118,20.812c-1.315,0-2.381,1.066-2.381,2.383
	c0,1.314,1.065,2.382,2.381,2.382c1.316,0,2.383-1.067,2.383-2.382C9.501,21.878,8.435,20.812,7.118,20.812z"/>
</svg>
