<svg xmlns="http://www.w3.org/2000/svg" width="32" height="32" viewBox="0 0 32 32"><path d="M27 6.7h-14.688v4.549h14.688v-4.549zm0 7.172h-14.688v4.55h14.688v-4.55zm-14.688 7.172v4.55h14.688v-4.55h-14.688zm-5.194-14.412c-1.315 0-2.381 1.066-2.381 2.382s1.065 2.382 2.381 2.382c1.316 0 2.383-1.066 2.383-2.382s-1.066-2.382-2.383-2.382zm0 6.849c-1.315 0-2.381 1.066-2.381 2.382s1.065 2.382 2.381 2.382c1.316 0 2.383-1.066 2.383-2.382s-1.066-2.382-2.383-2.382zm0 7.331c-1.315 0-2.381 1.066-2.381 2.383 0 1.314 1.065 2.382 2.381 2.382 1.316 0 2.383-1.067 2.383-2.382 0-1.317-1.066-2.383-2.383-2.383z"/></svg>