<?xml version="1.0" encoding="utf-8"?>
<!-- Generator: Adobe Illustrator 16.0.0, SVG Export Plug-In . SVG Version: 6.00 Build 0)  -->
<!DOCTYPE svg PUBLIC "-//W3C//DTD SVG 1.1//EN" "http://www.w3.org/Graphics/SVG/1.1/DTD/svg11.dtd">
<svg version="1.1" id="Layer_1" xmlns="http://www.w3.org/2000/svg" xmlns:xlink="http://www.w3.org/1999/xlink" x="0px" y="0px"
	 width="32px" height="32px" viewBox="0 0 32 32" enable-background="new 0 0 32 32" xml:space="preserve">
<path fill="#231F20" d="M29.986,6.938V5.613c0-0.778-0.63-1.409-1.407-1.409h-1.655c-0.063,0-0.124,0.005-0.184,0.013h-1.959V0.897
	c0-0.493-0.396-0.891-0.892-0.891c-0.487,0-0.884,0.398-0.884,0.891v3.319H9.146V0.897c0-0.493-0.4-0.891-0.889-0.891
	c-0.492,0-0.891,0.398-0.891,0.891v3.319H5.396C5.335,4.209,5.275,4.204,5.212,4.204H3.556c-0.779,0-1.409,0.631-1.409,1.409v2.291
	c0,0.027,0.002,0.053,0.004,0.078V28.3v1.558v0.731c0,0.779,0.631,1.41,1.41,1.41h0.701h0.955h21.717h0.819h0.837
	c0.78,0,1.41-0.631,1.41-1.41v-1.367V28.3V6.952L29.986,6.938z M23.003,6.432h1.778v4.057c0,0.493-0.399,0.891-0.892,0.891
	c-0.49,0-0.887-0.398-0.887-0.891V6.432z M27.152,14.332V29.37H5.001V14.332H27.152z M7.367,6.432h1.778v4.057
	c0,0.493-0.398,0.891-0.889,0.891c-0.49,0-0.889-0.398-0.889-0.891V6.432z"/>
</svg>
