<svg xmlns="http://www.w3.org/2000/svg" width="32" height="32" viewBox="0 0 32 32"><path fill="#231F20" d="M28.862 7.343v-1.213c0-.712-.578-1.291-1.289-1.291h-1.516l-.169.013h-1.791v-3.036c.001-.451-.363-.816-.812-.816s-.812.365-.812.816v3.037h-12.68v-3.037c0-.451-.365-.816-.814-.816s-.813.365-.813.816v3.037h-1.804l-.167-.013h-1.515c-.713 0-1.29.578-1.29 1.291v2.095l.003.072v20.685000000000002c0 .712.577 1.29 1.289 1.29h22.901c.713 0 1.291-.578 1.291-1.29v-21.628l-.012-.012zm-6.391-.463h1.627v3.712c0 .45-.365.814-.812.814-.449 0-.814-.365-.814-.814v-3.712zm3.795 7.226v13.762h-20.265v-13.762h20.265zm-18.1-7.226h1.626v3.712c0 .45-.364.814-.813.814-.448 0-.813-.365-.813-.814v-3.712z"/></svg>