<svg width="40" height="40" viewBox="0 0 40 40" xmlns="http://www.w3.org/2000/svg" xmlns:sketch="http://www.bohemiancoding.com/sketch/ns"><title>clip</title><desc>Created with Sketch.</desc><path d="M19.712 2c-5.906 0-10.712 4.92-10.712 10.97v17.09c0 4.452 3.4 7.94 7.864 7.94 4.41 0 8.136-3.636 8.136-7.94v-15.226c0-2.666-2.318-4.834-5.226-4.834-2.722 0-4.774 2.078-4.774 4.834v9.166c0 1.106.894 2 2 2 1.106 0 2-.894 2-2v-9.166c0-.554.26-.834.832-.834.55 0 1.168.356 1.168.834v15.226c0 2.136-1.894 3.94-4.258 3.94-2.132 0-3.742-1.694-3.742-3.94v-17.09c0-3.908 2.95-6.97 6.892-6.97 3.854 0 7.108 3.192 7.108 6.97v17.03c0 1.106.894 2 2 2 1.106 0 2-.894 2-2v-17.03c0-5.946-5.086-10.97-11.288-10.97" sketch:type="MSShapeGroup"/></svg>