<svg xmlns="http://www.w3.org/2000/svg" width="32" height="32" viewBox="0 0 32 32"><path d="M15.982 1c-8.274 0-14.982 6.708-14.982 14.982s6.708 14.982 14.982 14.982 14.982-6.708 14.982-14.982-6.707-14.982-14.982-14.982zm0 26.708c-6.475 0-11.726-5.25-11.726-11.726 0-6.476 5.25-11.726 11.726-11.726 6.477 0 11.726 5.25 11.726 11.726 0 6.476-5.249 11.726-11.726 11.726zM20.849 11.83c-.213 0-.409.068-.566.196l-3.176 2.567v-6.536c0-.675-.501-1.225-1.114-1.225-.614 0-1.113.549-1.113 1.225v8.712c0 .412.186.775.468.998l.02.016.006.004c.203.16.447.251.689.251.213 0 .409-.068.567-.196l5.053-4.084c.416-.337.443-1 .059-1.479-.23-.281-.563-.449-.893-.449z"/></svg>