<svg xmlns="http://www.w3.org/2000/svg" width="32" height="32" viewBox="0 0 32 32"><g fill-rule="evenodd" clip-rule="evenodd" fill="#0C0101"><path d="M29.913 4.836v-1.325c0-.778-.631-1.409-1.407-1.409h-1.655l-.184.013h-1.959l-1.776-.001h-17.608999999999998l-.184-.011h-1.656c-.779 0-1.409.631-1.409 1.409v2.291l.004.078v22.607000000000003c0 .779.631 1.41 1.41 1.41h25.028c.78 0 1.41-.631 1.41-1.41v-23.637l-.013-.015zm-4.016 21.091h-19.853v-13.898h19.853v13.898zM17.956 24.718l5.937-5.719-5.937-5.937v4.923h-9.926v1.953h9.926z"/></g></svg>