<svg version="1" xmlns="http://www.w3.org/2000/svg" width="30" height="30" viewBox="0 0 30 30"><path d="M14.937-.025c-8.246 0-14.93 6.685-14.93 14.93 0 8.247 6.685 14.931 14.93 14.931 8.247 0 14.931-6.685 14.931-14.931 0-8.246-6.684-14.93-14.931-14.93zm1.454 22.74h-2.362v-2.359h2.362v2.359zm3.264-10.114c-.106.348-.245.664-.415.948-.171.284-.366.545-.585.786-.22.241-.442.475-.671.703-.227.212-.451.429-.67.649-.22.219-.418.452-.595.701s-.319.519-.426.808c-.106.292-.16.621-.16.99v.829h-1.808v-.999c.029-.596.139-1.104.329-1.522.192-.417.427-.789.702-1.116.277-.326.568-.627.874-.904.303-.277.588-.568.85-.873.263-.305.471-.642.627-1.01.156-.37.22-.815.19-1.34-.056-.779-.307-1.39-.755-1.83-.446-.439-1.052-.66-1.817-.66-.51 0-.951.094-1.318.277-.37.185-.679.433-.925.745-.249.311-.429.68-.543 1.105-.113.425-.17.887-.17 1.382h-1.808c-.013-.723.089-1.396.309-2.02.22-.625.535-1.167.946-1.628.412-.46.915-.818 1.51-1.074.596-.255 1.262-.382 2-.382.667 0 1.272.095 1.817.287.547.191 1.018.468 1.416.83.396.361.704.805.925 1.33.219.525.33 1.127.33 1.808 0 .439-.052.833-.159 1.18z" fill="#B0B0B0"/></svg>