<svg xmlns="http://www.w3.org/2000/svg" width="32" height="32" viewBox="0 0 32 32"><path fill="#010101" d="M26.743 17.103v-2.54l-.345-.116-2.618-.888-.696-1.75 1.342-2.95-1.73-1.795-.323.17-2.453 1.296-1.687-.726-1.063-3.07h-2.444l-.112.36-.855 2.717-1.687.725-2.842-1.394-1.726 1.795.165.336 1.246 2.55-.697 1.747-2.96 1.1v2.54l.346.116 2.618.887.7 1.752-1.343 2.947 1.728 1.795.323-.17 2.456-1.294 1.686.726 1.06 3.07h2.445l.114-.36.853-2.716 1.686-.726 2.84 1.393 1.73-1.793-.166-.337-1.247-2.548.7-1.75 2.956-1.1zm-10.743 2.337c-1.89 0-3.424-1.59-3.424-3.554 0-1.964 1.533-3.554 3.424-3.554 1.893 0 3.425 1.59 3.425 3.554s-1.53 3.554-3.425 3.554z"/></svg>