<?xml version="1.0" encoding="utf-8"?>
<!-- Generator: Adobe Illustrator 16.0.0, SVG Export Plug-In . SVG Version: 6.00 Build 0)  -->
<!DOCTYPE svg PUBLIC "-//W3C//DTD SVG 1.0//EN" "http://www.w3.org/TR/2001/REC-SVG-20010904/DTD/svg10.dtd">
<svg version="1.0" id="Layer_1" xmlns="http://www.w3.org/2000/svg" xmlns:xlink="http://www.w3.org/1999/xlink" x="0px" y="0px"
	 width="500px" height="500px" viewBox="0 0 500 500" style="enable-background:new 0 0 500 500;" xml:space="preserve">
<path d="M36.047,19.745v-4.053l-0.58-0.187l-4.391-1.417l-1.169-2.794l2.252-4.708l-2.903-2.866l-0.543,0.273l-4.116,2.066
	l-2.83-1.159L19.987,0h-4.101l-0.188,0.574l-1.434,4.337l-2.828,1.157L6.668,3.844l-2.9,2.865l0.277,0.536l2.091,4.07l-1.17,2.792
	L0,15.863v4.055l0.58,0.185l4.393,1.417l1.171,2.794l-2.251,4.708l2.899,2.864l0.543-0.272l4.12-2.065l2.827,1.157l1.778,4.903
	h4.102l0.191-0.572l1.433-4.338l2.827-1.158l4.766,2.225l2.903-2.865l-0.277-0.537l-2.092-4.068l1.173-2.795L36.047,19.745z
	 M18.023,23.478c-3.171,0-5.743-2.54-5.743-5.673c0-3.135,2.572-5.674,5.743-5.674c3.175,0,5.746,2.54,5.746,5.674
	C23.769,20.938,21.198,23.478,18.023,23.478z"/>
</svg>
