<!DOCTYPE svg PUBLIC "-//W3C//DTD SVG 1.0//EN" "http://www.w3.org/TR/2001/REC-SVG-20010904/DTD/svg10.dtd">
<svg version="1.0" id="Layer_1" xmlns="http://www.w3.org/2000/svg" xmlns:xlink="http://www.w3.org/1999/xlink" x="0px" y="0px"
	 width="32px" height="32px" viewBox="0 0 32 32" style="enable-background:new 0 0 32 32;" xml:space="preserve">

<path class="st0" d="M16.447,18.566l-3.881-4.127l-2.638,4.879v1.347h13.107c-1.669-1.44-5.189-4.52-5.189-4.52L16.447,18.566z
	 M21.003,15.459c0.729,0,1.317-0.589,1.317-1.317c0-0.726-0.588-1.317-1.317-1.317c-0.726,0-1.315,0.591-1.315,1.317
	C19.688,14.87,20.277,15.459,21.003,15.459z M6.984,9.653v13.898h19.706V9.653H6.984z M24.939,21.8H8.793L8.792,11.462h16.091l0,0
	h0.059V21.8H24.939z"/>
</svg>
