<?xml version="1.0" encoding="utf-8"?>
<!-- Generator: Adobe Illustrator 16.0.0, SVG Export Plug-In . SVG Version: 6.00 Build 0)  -->
<!DOCTYPE svg PUBLIC "-//W3C//DTD SVG 1.1//EN" "http://www.w3.org/Graphics/SVG/1.1/DTD/svg11.dtd">
<svg version="1.1" id="Layer_1" xmlns="http://www.w3.org/2000/svg" xmlns:xlink="http://www.w3.org/1999/xlink" x="0px" y="0px"
	 width="32px" height="32px" viewBox="0 0 32 32" enable-background="new 0 0 32 32" xml:space="preserve">
<path d="M24.231,6.398L24.072,6.24c-1.014-1.016-2.356-1.529-3.686-1.527
	C19.059,4.711,17.714,5.225,16.7,6.24l-1.537,1.537c-0.63,0.63-0.63,1.652,0,2.281s1.651,0.629,2.28,0l1.537-1.537
	c0.393-0.392,0.893-0.58,1.406-0.583c0.514,0.003,1.013,0.191,1.405,0.583l0.159,0.158c0.392,0.393,0.58,0.892,0.581,1.402
	c-0.001,0.517-0.189,1.016-0.582,1.408l-3.738,3.74c-0.392,0.391-0.894,0.579-1.42,0.582c-0.501-0.002-0.998-0.19-1.39-0.582
	l-0.16-0.16l-2.281,2.281l0.159,0.159c1.006,1.007,2.34,1.528,3.672,1.526h0.009c1.323,0,2.672-0.506,3.692-1.526l3.738-3.739
	c1.017-1.016,1.529-2.361,1.527-3.689C25.761,8.753,25.245,7.411,24.231,6.398z M14.63,19.975l-1.611,1.611
	c-0.391,0.391-0.894,0.579-1.42,0.582c-0.501-0.001-0.998-0.19-1.39-0.582l-0.16-0.159c-0.391-0.393-0.58-0.892-0.582-1.411
	c0.002-0.51,0.19-1.008,0.582-1.4l3.738-3.738c0.393-0.391,0.893-0.58,1.406-0.582c0.514,0.002,1.013,0.191,1.405,0.582l0.16,0.159
	l2.279-2.28l0,0l0,0l-0.159-0.16l-0.288-0.289c-0.125-0.124-0.263-0.223-0.412-0.298c-0.893-0.626-1.943-0.941-2.985-0.94
	c-1.328-0.001-2.673,0.514-3.687,1.527l-3.739,3.74c-1.012,1.01-1.528,2.352-1.526,3.68c-0.003,1.329,0.51,2.676,1.526,3.693
	l0.159,0.158c1.006,1.006,2.341,1.528,3.672,1.526h0.009c1.323,0,2.672-0.506,3.692-1.526l1.61-1.611
	c0.631-0.631,0.631-1.651,0-2.281C16.281,19.346,15.26,19.346,14.63,19.975z"/>
</svg>
