<svg xmlns="http://www.w3.org/2000/svg" width="32" height="32" viewBox="0 0 32 32"><path d="M24.231 6.398l-.159-.158c-1.014-1.016-2.356-1.529-3.686-1.527-1.327-.002-2.672.512-3.686 1.527l-1.537 1.537c-.63.63-.63 1.652 0 2.281s1.651.629 2.28 0l1.537-1.537c.393-.392.893-.58 1.406-.583.514.003 1.013.191 1.405.583l.159.158c.392.393.58.892.581 1.402-.001.517-.189 1.016-.582 1.408l-3.738 3.74c-.392.391-.894.579-1.42.582-.501-.002-.998-.19-1.39-.582l-.16-.16-2.281 2.281.159.159c1.006 1.007 2.34 1.528 3.672 1.526h.009c1.323 0 2.672-.506 3.692-1.526l3.738-3.739c1.017-1.016 1.529-2.361 1.527-3.689.004-1.328-.512-2.67-1.526-3.683zm-9.601 13.577l-1.611 1.611c-.391.391-.894.579-1.42.582-.501-.001-.998-.19-1.39-.582l-.16-.159c-.391-.393-.58-.892-.582-1.411.002-.51.19-1.008.582-1.4l3.738-3.738c.393-.391.893-.58 1.406-.582.514.002 1.013.191 1.405.582l.16.159 2.279-2.28-.159-.16-.288-.289c-.125-.124-.263-.223-.412-.298-.893-.626-1.943-.941-2.985-.94-1.328-.001-2.673.514-3.687 1.527l-3.739 3.74c-1.012 1.01-1.528 2.352-1.526 3.68-.003 1.329.51 2.676 1.526 3.693l.159.158c1.006 1.006 2.341 1.528 3.672 1.526h.009c1.323 0 2.672-.506 3.692-1.526l1.61-1.611c.631-.631.631-1.651 0-2.281-.628-.63-1.649-.63-2.279-.001z"/></svg>