<?xml version="1.0" encoding="utf-8"?>
<!-- Generator: Adobe Illustrator 18.1.1, SVG Export Plug-In . SVG Version: 6.00 Build 0)  -->
<!DOCTYPE svg PUBLIC "-//W3C//DTD SVG 1.1//EN" "http://www.w3.org/Graphics/SVG/1.1/DTD/svg11.dtd">
<svg version="1.1" id="Layer_1" xmlns="http://www.w3.org/2000/svg" xmlns:xlink="http://www.w3.org/1999/xlink" x="0px" y="0px"
	 viewBox="0 0 32 32" enable-background="new 0 0 32 32" xml:space="preserve">
<path id="path-1" d="M16,30C8.3,30,2,23.7,2,16S8.3,2,16,2s14,6.3,14,14S23.7,30,16,30z M16,6.2c-5.4,0-9.8,4.4-9.8,9.8
	s4.4,9.8,9.8,9.8s9.8-4.4,9.8-9.8S21.4,6.2,16,6.2z M16.9,17c-0.1,0.1-0.1,0.2-0.2,0.3l-4,4c-0.5,0.5-1.4,0.5-2,0
	c-0.5-0.5-0.5-1.4,0-2l3.8-3.8V9c0-0.8,0.6-1.4,1.4-1.4s1.4,0.6,1.4,1.4v7C17.4,16.4,17.2,16.8,16.9,17z"/>
</svg>
