<?xml version="1.0" encoding="utf-8"?>
<!-- Generator: Adobe Illustrator 18.1.1, SVG Export Plug-In . SVG Version: 6.00 Build 0)  -->
<!DOCTYPE svg PUBLIC "-//W3C//DTD SVG 1.1//EN" "http://www.w3.org/Graphics/SVG/1.1/DTD/svg11.dtd">
<svg version="1.1" id="Layer_1" xmlns="http://www.w3.org/2000/svg" xmlns:xlink="http://www.w3.org/1999/xlink" x="0px" y="0px"
	 viewBox="0 0 32 32" enable-background="new 0 0 32 32" xml:space="preserve">
<path id="path-1" d="M28.2,9.5h-5.9V6.8c0-1-0.8-1.8-1.8-1.8h-9.2c-1,0-1.8,0.8-1.8,1.8v2.7H3.8c-1,0-1.8,0.8-1.8,1.8v13.9
	c0,1,0.8,1.8,1.8,1.8h24.5c1,0,1.8-0.8,1.8-1.8V11.3C30,10.3,29.2,9.5,28.2,9.5z M11.6,8.1c0-0.7,0.2-1.3,1-1.3h6.8
	c0.7,0,1,0.6,1,1.3v1.4h-8.8V8.1z"/>
</svg>
