<?xml version="1.0" encoding="utf-8"?>
<!-- Generator: Adobe Illustrator 18.1.1, SVG Export Plug-In . SVG Version: 6.00 Build 0)  -->
<!DOCTYPE svg PUBLIC "-//W3C//DTD SVG 1.1//EN" "http://www.w3.org/Graphics/SVG/1.1/DTD/svg11.dtd">
<svg version="1.1" id="Layer_1" xmlns="http://www.w3.org/2000/svg" xmlns:xlink="http://www.w3.org/1999/xlink" x="0px" y="0px"
	 viewBox="0 0 32 32" enable-background="new 0 0 32 32" xml:space="preserve">
<path id="path-1" d="M27.9,18.6L26,16.7l-10-10L6,16.7l0,0l-1.9,1.9L2,16.5l1.9-1.9l0,0l0,0l0.2-0.2v0L14.9,3.5
	c0.3-0.3,0.7-0.4,1.1-0.4c0.4,0,0.8,0.1,1.1,0.4l10.8,10.8v0l2.1,2.1L27.9,18.6z M24.8,17.8v2.9V26c0,1.6-1.3,2.9-2.9,2.9H10.1
	c-1.6,0-2.9-1.3-2.9-2.9v-5.2v-2.9L16,9L24.8,17.8z"/>
</svg>
