<?xml version="1.0" encoding="utf-8"?>
<!-- Generator: Adobe Illustrator 18.1.1, SVG Export Plug-In . SVG Version: 6.00 Build 0)  -->
<!DOCTYPE svg PUBLIC "-//W3C//DTD SVG 1.1//EN" "http://www.w3.org/Graphics/SVG/1.1/DTD/svg11.dtd">
<svg version="1.1" id="Layer_1" xmlns="http://www.w3.org/2000/svg" xmlns:xlink="http://www.w3.org/1999/xlink" x="0px" y="0px"
	 viewBox="0 0 32 32" enable-background="new 0 0 32 32" xml:space="preserve">
<path d="M21.4,20.9c-0.7,0-1.4,0.2-2,0.5l-3.5-3.5c0.3-0.6,0.4-1.2,0.4-1.9c0-0.7-0.1-1.3-0.4-1.9l3.5-3.5c0.6,0.3,1.3,0.5,2,0.5
	c2.5,0,4.5-2,4.5-4.6S23.9,2,21.4,2c-2.5,0-4.5,2-4.5,4.6c0,0.6,0.1,1.2,0.3,1.7l-3.5,3.6c-0.6-0.3-1.2-0.4-1.9-0.4
	c-2.5,0-4.5,2-4.5,4.6s2,4.6,4.5,4.6c0.7,0,1.3-0.1,1.9-0.4l3.5,3.6c-0.2,0.5-0.3,1.1-0.3,1.7c0,2.5,2,4.6,4.5,4.6
	c2.5,0,4.5-2,4.5-4.6S23.9,20.9,21.4,20.9L21.4,20.9z"/>
</svg>
