<?xml version="1.0" encoding="utf-8"?>
<!-- Generator: Adobe Illustrator 16.0.0, SVG Export Plug-In . SVG Version: 6.00 Build 0)  -->
<!DOCTYPE svg PUBLIC "-//W3C//DTD SVG 1.1//EN" "http://www.w3.org/Graphics/SVG/1.1/DTD/svg11.dtd">
<svg version="1.1" id="Layer_1" xmlns="http://www.w3.org/2000/svg" xmlns:xlink="http://www.w3.org/1999/xlink" x="0px" y="0px"
	 width="32px" height="32px" viewBox="0 0 32 32" enable-background="new 0 0 32 32" xml:space="preserve">
<path d="M12.312,25.594H27 M7.118,25.577"/>
<path fill="#000" d="M12.266,6.354v4.549h14.687V6.354H12.266z M12.265,18.076h14.688v-4.549H12.265V18.076z
	 M12.266,25.249h14.687v-4.55H12.266V25.249z M7.127,11.062h0.991V6.14H7.311c0,0.042-0.013,0.108-0.038,0.196
	C7.23,6.484,7.167,6.601,7.084,6.689c-0.122,0.129-0.28,0.215-0.475,0.258C6.488,6.975,6.274,6.996,5.97,7.009v0.659h1.157V11.062z
	 M7.152,17.202c0.09-0.077,0.256-0.202,0.499-0.373l0.387-0.275c0.327-0.231,0.562-0.44,0.704-0.628
	c0.218-0.283,0.327-0.606,0.327-0.971c0-0.475-0.154-0.857-0.463-1.146c-0.308-0.289-0.723-0.433-1.243-0.433
	c-0.659,0-1.118,0.246-1.376,0.737c-0.137,0.258-0.213,0.596-0.229,1.015h0.94c0.012-0.276,0.048-0.478,0.108-0.604
	c0.106-0.22,0.308-0.329,0.601-0.329c0.216,0,0.381,0.069,0.497,0.207c0.115,0.138,0.172,0.312,0.172,0.52
	c0,0.256-0.101,0.491-0.302,0.706c-0.132,0.138-0.42,0.367-0.865,0.686c-0.515,0.367-0.84,0.715-0.978,1.043
	c-0.143,0.291-0.219,0.613-0.228,0.967h3.37v-0.852H6.927C6.988,17.369,7.063,17.279,7.152,17.202z M8.322,22.684
	c0.117-0.046,0.23-0.13,0.339-0.255c0.173-0.199,0.258-0.443,0.258-0.733c0-0.41-0.144-0.736-0.432-0.979
	c-0.288-0.244-0.668-0.365-1.138-0.365c-0.254,0-0.468,0.029-0.642,0.092c-0.174,0.061-0.324,0.148-0.451,0.265
	c-0.168,0.162-0.293,0.341-0.372,0.532c-0.075,0.221-0.117,0.451-0.126,0.696h0.903c-0.005-0.242,0.046-0.437,0.154-0.581
	c0.106-0.145,0.274-0.217,0.503-0.217c0.198,0,0.353,0.059,0.461,0.176c0.11,0.119,0.165,0.271,0.165,0.459
	c0,0.29-0.107,0.482-0.321,0.577c-0.124,0.057-0.343,0.087-0.656,0.092v0.693c0.32,0,0.555,0.03,0.704,0.091
	c0.262,0.109,0.392,0.325,0.392,0.647c0,0.245-0.069,0.432-0.212,0.563c-0.141,0.129-0.306,0.195-0.495,0.195
	c-0.31,0-0.523-0.119-0.641-0.357c-0.062-0.13-0.095-0.292-0.095-0.488h-0.95c0.017,0.391,0.095,0.709,0.237,0.95
	c0.271,0.454,0.756,0.682,1.451,0.682c0.565,0,0.992-0.158,1.28-0.474c0.288-0.314,0.433-0.681,0.433-1.098
	c0-0.396-0.123-0.708-0.37-0.937C8.537,22.76,8.41,22.684,8.322,22.684z"/>
</svg>
