<?xml version="1.0" encoding="utf-8"?>
<!-- Generator: Adobe Illustrator 16.0.0, SVG Export Plug-In . SVG Version: 6.00 Build 0)  -->
<!DOCTYPE svg PUBLIC "-//W3C//DTD SVG 1.0//EN" "http://www.w3.org/TR/2001/REC-SVG-20010904/DTD/svg10.dtd">
<svg version="1.0" id="Layer_1" xmlns="http://www.w3.org/2000/svg" xmlns:xlink="http://www.w3.org/1999/xlink" x="0px" y="0px"
	 width="32px" height="32px" viewBox="0 0 32 32" style="enable-background:new 0 0 32 32;" xml:space="preserve">
<style type="text/css">
<![CDATA[
	.st0{fill:#333333;}
]]>
</style>
<path class="st0" d="M9.262,21.621l7.275,4.268c0.222,0.129,0.49,0.129,0.712,0l7.274-4.268c0.221-0.129,0.355-0.366,0.355-0.625
	v-7.248v-1.285c0-0.257-0.136-0.497-0.355-0.624l-7.274-4.267c-0.11-0.065-0.233-0.097-0.356-0.097s-0.246,0.032-0.354,0.097
	l-7.274,4.267c-0.22,0.127-0.356,0.367-0.356,0.624v1.285v7.248C8.906,21.255,9.043,21.492,9.262,21.621z M16.182,17.182v6.83
	l-5.854-3.433v-6.83L16.182,17.182z M17.604,24.012v-6.83l5.854-3.434v6.83L17.604,24.012z M22.748,12.463l-5.855,3.433
	l-5.854-3.433l5.854-3.433L22.748,12.463z"/>
</svg>
