<svg width="40" height="40" viewBox="0 0 40 40" xmlns="http://www.w3.org/2000/svg" xmlns:sketch="http://www.bohemiancoding.com/sketch/ns"><title>pencil</title><desc>Created with Sketch.</desc><g sketch:type="MSLayerGroup"><path d="M36 34h-14.44l-4 4h18.44c1.1 0 2-.9 2-2s-.9-2-2-2M36 34h-14.44l-4 4h18.44c1.1 0 2-.9 2-2s-.9-2-2-2" sketch:type="MSShapeGroup"/><path d="M4 29.96v6.04-6.04zm27.962-14.874l-7.51-6.608-1.178 1.178 4.78-4.782c.564-.558 1.322-.87 2.126-.87.804 0 1.562.312 2.132.878l2.814 2.812c1.158 1.17 1.158 3.084-.006 4.26l-14.91 14.894 11.752-11.762zM30.18 6.006c.194 0 .478.05.712.282l2.806 2.806c.396.402.396 1.052.014 1.438l-1.638 1.638-.188.186-4.514-3.972 2.082-2.08c.248-.248.532-.298.726-.298zm0-4c-1.28 0-2.56.484-3.54 1.454l-23.34 23.36c-.74.74-1.3 2.1-1.3 3.14v6.04c0 1.1.9 2 2 2h6.06c1.06 0 2.38-.56 3.12-1.3l21.72-21.7 1.64-1.64c1.94-1.96 1.94-5.12 0-7.08l-2.82-2.82c-.98-.97-2.26-1.454-3.54-1.454zm-24.18 31.994v-3.96l.12-.4 18.42-18.42 4.5 3.96-18.62 18.64c-.1.08-.32.16-.36.18h-4.06z" sketch:type="MSShapeGroup"/></g></svg>