<svg width="40" height="40" viewBox="0 0 40 40" xmlns="http://www.w3.org/2000/svg" xmlns:sketch="http://www.bohemiancoding.com/sketch/ns"><title>print</title><desc>Created with Sketch.</desc><g sketch:type="MSLayerGroup"><path d="M30 4c0-1.104-.894-2-2-2h-16c-1.106 0-2 .896-2 2v6h20v-6M34 14h-28c-2.206 0-4 1.794-4 4v10c0 2.206 1.794 4 4 4h2v-7c0-1.656 1.344-3 3-3h18c1.656 0 3 1.344 3 3v7h2c2.204 0 4-1.794 4-4v-10c0-2.206-1.796-4-4-4M26 26h-12c-1.106 0-2 .894-2 2v8c0 1.104.894 2 2 2h12c1.106 0 2-.896 2-2v-8c0-1.106-.894-2-2-2" sketch:type="MSShapeGroup"/></g></svg>