<?xml version="1.0" encoding="utf-8"?>
<!-- Generator: Adobe Illustrator 16.0.0, SVG Export Plug-In . SVG Version: 6.00 Build 0)  -->
<!DOCTYPE svg PUBLIC "-//W3C//DTD SVG 1.1//EN" "http://www.w3.org/Graphics/SVG/1.1/DTD/svg11.dtd">
<svg version="1.1" id="Layer_1" xmlns="http://www.w3.org/2000/svg" xmlns:xlink="http://www.w3.org/1999/xlink" x="0px" y="0px"
	 width="32px" height="32px" viewBox="0 0 32 32" enable-background="new 0 0 32 32" xml:space="preserve">
<path fill="#333333" d="M16.026,13.572c-1.657,0-3.005,1.349-3.005,3.007c0,1.658,1.348,3.009,3.005,3.009
	c1.656,0,3.004-1.352,3.004-3.009C19.03,14.921,17.682,13.572,16.026,13.572z M16.026,8C8.061,8,0.04,16.673,0.04,16.673
	s8.021,8.67,15.986,8.67c7.963,0,15.985-8.67,15.985-8.67S23.989,8,16.026,8z M16.026,22.719c-3.386,0-6.131-2.747-6.131-6.139
	c0-3.391,2.745-6.137,6.131-6.137c3.384,0,6.127,2.746,6.127,6.137C22.153,19.972,19.41,22.719,16.026,22.719z"/>
</svg>
