<svg width="40" height="40" viewBox="0 0 40 40" xmlns="http://www.w3.org/2000/svg" xmlns:sketch="http://www.bohemiancoding.com/sketch/ns"><title>save</title><desc>Created with Sketch.</desc><g sketch:type="MSLayerGroup"><path d="M28 21.98c0-1.094-.886-1.98-1.98-1.98h-12.04c-1.094 0-1.98.886-1.98 1.98v.04c0 1.094.886 1.98 1.98 1.98h12.04c1.094 0 1.98-.886 1.98-1.98v-.04M28 27.98c0-1.094-.886-1.98-1.98-1.98h-12.04c-1.094 0-1.98.886-1.98 1.98v.04c0 1.094.886 1.98 1.98 1.98h12.04c1.094 0 1.98-.886 1.98-1.98v-.04M13 8h10c.552 0 1-.448 1-1v-4c0-.552-.448-1-1-1h-10c-.552 0-1 .448-1 1v4c0 .552.448 1 1 1" sketch:type="MSShapeGroup"/><path d="M36.884 10.644l-6.884-7.472c-.58-.58-1.306-.956-2.094-1.1.056.3.094.61.094.928v4c0 2.758-2.244 5-5 5h-9.802c-2.758 0-5.198-2.242-5.198-5v-4c0-.342.232-.678.298-1h-1.298c-2.756 0-5 2.242-5 5v26c0 2.758 2.244 5 5 5h26c2.756 0 5-2.242 5-5v-19.586c0-1.068-.416-2.072-1.116-2.77zm-2.884 22.356c0 .55-.448 1-1 1h-26c-.552 0-1-.45-1-1v-17h28v17z" sketch:type="MSShapeGroup"/></g></svg>