<?xml version="1.0" encoding="utf-8"?>
<!-- Generator: Adobe Illustrator 18.1.1, SVG Export Plug-In . SVG Version: 6.00 Build 0)  -->
<!DOCTYPE svg PUBLIC "-//W3C//DTD SVG 1.1//EN" "http://www.w3.org/Graphics/SVG/1.1/DTD/svg11.dtd">
<svg version="1.1" xmlns="http://www.w3.org/2000/svg" xmlns:xlink="http://www.w3.org/1999/xlink" x="0px" y="0px"
	 viewBox="0 0 32 32" enable-background="new 0 0 32 32" xml:space="preserve">
<path d="M16,7.6c0.8,0,1.4,0.6,1.4,1.4v7c0,0.4-0.2,0.8-0.5,1c-0.1,0.1-0.1,0.2-0.2,0.3l-4,4c-0.5,0.5-1.4,0.5-2,0 c-0.5-0.5-0.5-1.4,0-2l3.8-3.8V9C14.6,8.2,15.2,7.6,16,7.6z M16,30C8.3,30,2,23.7,2,16h3.1c0,6,4.9,10.9,10.9,10.9 c6,0,10.9-4.9,10.9-10.9C26.9,10,22,5.1,16,5.1c-3.4,0-6.3,1.5-8.3,4l2.7,2.7H2V3.4l3.4,3.4C8,3.9,11.8,2,16,2c7.7,0,14,6.3,14,14 C30,23.7,23.7,30,16,30z"></path>
</svg>
