<?xml version="1.0" encoding="utf-8"?>
<!-- Generator: Adobe Illustrator 18.1.1, SVG Export Plug-In . SVG Version: 6.00 Build 0)  -->
<!DOCTYPE svg PUBLIC "-//W3C//DTD SVG 1.1//EN" "http://www.w3.org/Graphics/SVG/1.1/DTD/svg11.dtd">
<svg version="1.1" xmlns="http://www.w3.org/2000/svg" xmlns:xlink="http://www.w3.org/1999/xlink" x="0px" y="0px"
	 viewBox="0 0 32 32" enable-background="new 0 0 32 32" xml:space="preserve">
  <path d="M28.4,17.6H7.3l9.8,9.8c0.6,0.6,0.6,1.6,0,2.2c-0.6,0.6-1.6,0.6-2.2,0L2.6,17.2c0,0-0.1-0.1-0.1-0.1 C2.1,16.8,2,16.4,2,16c0,0,0,0,0-0.1c0-0.1,0-0.3,0.1-0.4c0.1-0.2,0.2-0.4,0.4-0.6c0,0,0,0,0.1,0L14.9,2.4c0.6-0.6,1.6-0.6,2.2,0 c0.6,0.6,0.6,1.6,0,2.2l-9.8,9.8h21.2c0.9,0,1.6,0.7,1.6,1.6C30,16.9,29.3,17.6,28.4,17.6z"></path>
</svg>
