<?xml version="1.0" encoding="utf-8"?>
<!-- Generator: Adobe Illustrator 18.1.1, SVG Export Plug-In . SVG Version: 6.00 Build 0)  -->
<!DOCTYPE svg PUBLIC "-//W3C//DTD SVG 1.1//EN" "http://www.w3.org/Graphics/SVG/1.1/DTD/svg11.dtd">
<svg version="1.1" id="Layer_1" xmlns="http://www.w3.org/2000/svg" xmlns:xlink="http://www.w3.org/1999/xlink" x="0px" y="0px"
	 viewBox="0 0 32 32" enable-background="new 0 0 32 32" xml:space="preserve">
<path d="M29.8,27.3c0.3,0.3,0.3,0.9,0,1.2l-1.2,1.2c-0.3,0.3-0.9,0.3-1.2,0l-8.5-8.5c-0.1-0.1-0.2-0.2-0.2-0.3c-1.7,1.3-3.9,2-6.2,2
	C6.7,23,2,18.3,2,12.5C2,6.7,6.7,2,12.5,2C18.3,2,23,6.7,23,12.5c0,2.3-0.8,4.4-2,6.2c0.1,0,0.2,0.1,0.3,0.2L29.8,27.3z M12.5,5.5
	c-3.9,0-7,3.1-7,7c0,3.9,3.1,7,7,7c3.9,0,7-3.1,7-7C19.5,8.6,16.4,5.5,12.5,5.5z"/>
</svg>
