<?xml version="1.0" encoding="utf-8"?>
<!-- Generator: Adobe Illustrator 18.1.1, SVG Export Plug-In . SVG Version: 6.00 Build 0)  -->
<!DOCTYPE svg PUBLIC "-//W3C//DTD SVG 1.1//EN" "http://www.w3.org/Graphics/SVG/1.1/DTD/svg11.dtd">
<svg version="1.1" xmlns="http://www.w3.org/2000/svg" xmlns:xlink="http://www.w3.org/1999/xlink" x="0px" y="0px"
	 viewBox="0 0 32 32" enable-background="new 0 0 32 32" xml:space="preserve">
	<path fill="#6DC80D" d="M21,7c-4.9,0-9,4-9,9c0,4.9,4,9,9,9c4.9,0,9-4,9-9C30,11,26,7,21,7z M21,21.4c-3,0-5.4-2.4-5.4-5.4 c0-3,2.4-5.4,5.4-5.4c3,0,5.4,2.4,5.4,5.4C26.5,19,24,21.4,21,21.4z"></path>
	<path fill="#1C9A17" d="M10.7,21.4c-2.9-0.1-5.2-2.5-5.2-5.4s2.3-5.3,5.2-5.4c0.9-1.2,2.2-2.2,3.7-2.9C13.3,7.2,12.1,7,10.9,7 C6,7,2,11,2,16c0,4.9,4,9,9,9c1.2,0,2.4-0.2,3.4-0.7C12.9,23.6,11.7,22.6,10.7,21.4z"></path>
</svg>
