<svg width="40" height="40" viewBox="0 0 40 40" xmlns="http://www.w3.org/2000/svg" xmlns:sketch="http://www.bohemiancoding.com/sketch/ns"><title>search</title><desc>Created with Sketch.</desc><path d="M37.414 34.586l-10.216-10.218c1.752-2.338 2.802-5.23 2.802-8.368 0-7.72-6.282-14-14-14s-14 6.28-14 14 6.282 14 14 14c3.138 0 6.032-1.052 8.37-2.804l10.216 10.218c.39.39.902.586 1.414.586.512 0 1.024-.196 1.414-.586.782-.782.782-2.046 0-2.828zm-21.414-8.586c-5.514 0-10-4.486-10-10s4.486-10 10-10 10 4.486 10 10-4.486 10-10 10z" sketch:type="MSShapeGroup"/></svg>