<svg width="40" height="40" viewBox="0 0 40 40" xmlns="http://www.w3.org/2000/svg" xmlns:sketch="http://www.bohemiancoding.com/sketch/ns"><title>sort - down</title><desc>Created with Sketch.</desc><g sketch:type="MSLayerGroup"><path d="M38 7.98c0-1.094-.886-1.98-1.98-1.98h-18.04c-1.094 0-1.98.886-1.98 1.98v.04c0 1.094.886 1.98 1.98 1.98h18.04c1.094 0 1.98-.886 1.98-1.98v-.04M38 17.98c0-1.094-.886-1.98-1.98-1.98h-18.04c-1.094 0-1.98.886-1.98 1.98v.04c0 1.094.886 1.98 1.98 1.98h18.04c1.094 0 1.98-.886 1.98-1.98v-.04M36.02 26h-12.02c-1.094 0-2 .886-2 1.98v.04c0 1.094.94 1.98 1.98 1.98h12.04c1.094 0 1.98-.886 1.98-1.98v-.04c0-1.094-.886-1.98-1.98-1.98M16.542 26h-4.542v-22c0-1.106-.894-2-2-2-1.106 0-2 .894-2 2v22h-4.532c-1.21 0-1.894 1.774-1.16 2.722l6.536 8.658c.586.756 1.736.856 2.32.1l6.538-8.806c.734-.952.05-2.674-1.16-2.674" sketch:type="MSShapeGroup"/></g></svg>