<?xml version="1.0" encoding="utf-8"?>
<!-- Generator: Adobe Illustrator 16.0.4, SVG Export Plug-In . SVG Version: 6.00 Build 0)  -->
<!DOCTYPE svg PUBLIC "-//W3C//DTD SVG 1.1//EN" "http://www.w3.org/Graphics/SVG/1.1/DTD/svg11.dtd">
<svg version="1.1" id="Layer_1" xmlns="http://www.w3.org/2000/svg" xmlns:xlink="http://www.w3.org/1999/xlink" x="0px" y="0px"
	 width="32px" height="32px" viewBox="0 0 32 32" enable-background="new 0 0 32 32" xml:space="preserve">

<path fill="#666666" d="M298.721,46.182v-1.494c0-1.072-0.832-1.944-1.852-1.944h-8.008l-2.141-2.167h-4.807
  c-1.023,0-1.85,0.87-1.85,1.942v13.438c0,1.071,0.826,1.944,1.85,1.944h0.922h13.957h0.076v-0.009
  c1.068-0.04,1.924-0.913,1.924-1.992l1-7.957C299.793,47.176,299.356,46.518,298.721,46.182z M296.87,44.077
  c0.285,0,0.518,0.274,0.518,0.611v1.257h-13.551c-1.105,0-2,0.895-2,1.999l-0.439,3.505v-7.373H296.87z M297.471,55.281
  c0,0.52-0.24,0.979-0.609,1.288h-13.938c-0.369-0.309-0.609-0.768-0.609-1.288l0.941-6.438c0-0.931,0.758-1.687,1.689-1.687h11.779
  c0.934,0,1.688,0.756,1.688,1.687L297.471,55.281z"/>
<path fill="#333333" d="M299.098,107.544v-1.494c0-1.072-0.832-1.944-1.852-1.944h-8.008l-2.141-2.167h-4.807
  c-1.023,0-1.85,0.87-1.85,1.942v13.438c0,1.071,0.826,1.944,1.85,1.944h0.922h13.957h0.076v-0.009
  c1.068-0.04,1.924-0.913,1.924-1.992l1-7.957C300.17,108.539,299.733,107.88,299.098,107.544z M297.247,105.439
  c0.285,0,0.518,0.274,0.518,0.611v1.257h-13.551c-1.105,0-2,0.895-2,1.999l-0.439,3.505v-7.373H297.247z M297.848,116.644
  c0,0.52-0.24,0.979-0.609,1.288h-13.938c-0.369-0.309-0.609-0.768-0.609-1.288l0.941-6.438c0-0.931,0.758-1.687,1.689-1.687h11.779
  c0.934,0,1.688,0.756,1.688,1.687L297.848,116.644z"/>
</svg>
