<?xml version="1.0" encoding="utf-8"?>
<!-- Generator: Adobe Illustrator 16.0.4, SVG Export Plug-In . SVG Version: 6.00 Build 0)  -->
<!DOCTYPE svg PUBLIC "-//W3C//DTD SVG 1.1 Tiny//EN" "http://www.w3.org/Graphics/SVG/1.1/DTD/svg11-tiny.dtd">
<svg version="1.1" baseProfile="tiny" id="Layer_1" xmlns="http://www.w3.org/2000/svg" xmlns:xlink="http://www.w3.org/1999/xlink"
	 x="0px" y="0px" width="54.667px" height="61.833px" viewBox="25.167 3.583 54.667 61.833" xml:space="preserve">
<path d="M79.283,37.005c-0.025-0.087-2.539-8.567-4.527-15.401c-1.212-4.172-4.059-8.398-7.805-11.592
	c-3.184-2.718-8.545-5.957-15.97-5.957c-6.232,0-12.598,2.604-17.47,7.144c-4.92,4.588-7.744,10.63-7.744,16.578
	c0,5.564,1.762,11.084,5.089,15.957c1.754,2.568,3.512,4.333,4.453,5.194v10.299c0,0.893,0.642,1.654,1.521,1.807l7.804,1.353
	V35.685h-4.829c-1.769,0-3.205-1.434-3.205-3.205c0-0.604,0.17-1.168,0.463-1.649c-0.463,0.259-0.995,0.409-1.562,0.409
	c-1.769,0-3.203-1.436-3.203-3.205c0-1.421,0.926-2.624,2.208-3.044c-0.977-0.549-1.635-1.593-1.635-2.79
	c0-1.769,1.434-3.205,3.204-3.205c0.27,0,0.528,0.038,0.782,0.102c-0.333-0.537-0.528-1.168-0.528-1.845
	c0-1.942,1.573-3.516,3.514-3.516c0.787,0,1.51,0.263,2.096,0.698c-0.05-0.225-0.078-0.458-0.078-0.698
	c0-1.769,1.434-3.204,3.203-3.204c1.205,0,2.253,0.665,2.799,1.647c0.277-1.745,1.785-3.08,3.61-3.08
	c1.822,0,3.329,1.335,3.605,3.08c0.548-0.982,1.595-1.647,2.799-1.647c1.77,0,3.205,1.436,3.205,3.204
	c0,0.239-0.029,0.472-0.078,0.698c0.546-0.438,1.237-0.698,1.991-0.698c1.769,0,3.2,1.436,3.2,3.205
	c0,0.559-0.143,1.085-0.394,1.543c0.206-0.038,0.418-0.062,0.636-0.062c1.926,0,3.488,1.564,3.488,3.492
	c0,1.302-0.714,2.436-1.771,3.035c1.352,0.376,2.346,1.613,2.346,3.085c0,1.769-1.435,3.205-3.203,3.205c0,0-16.354,0-17.262,0
	c-0.908,0-1.769,0.018-1.769,1.624c0,2.143,0,23.079,0,30.153l10.325,1.79c0.103,0.018,0.208,0.027,0.312,0.027
	c0.429,0,0.849-0.15,1.181-0.431c0.414-0.349,0.652-0.863,0.652-1.403v-9.219l10.854-0.651c0.976-0.058,1.733-0.869,1.726-1.848
	L73.209,39.36h4.312c0.581,0,1.126-0.273,1.472-0.738C79.34,38.159,79.447,37.561,79.283,37.005z"/>
</svg>
