<svg width="40" height="40" viewBox="0 0 40 40" xmlns="http://www.w3.org/2000/svg" xmlns:sketch="http://www.bohemiancoding.com/sketch/ns"><title>warning</title><desc>Created with Sketch.</desc><path d="M37.453 30.754l-14.004-25.654c-1.542-2.832-5.354-2.784-6.896.048l-14.004 25.582c-1.55 2.854.368 6.27 3.448 6.27h28.008c3.08 0 4.998-3.392 3.448-6.246zm-15.452-.754c0 .552-.356 1-.942 1h-2.116c-.586 0-.942-.448-.942-1v-2c0-.552.356-1 .942-1h2.116c.586 0 .942.448.942 1v2zm0-8c0 .552-.356 1-.942 1h-2.116c-.586 0-.942-.448-.942-1v-8c0-.552.356-1 .942-1h2.116c.586 0 .942.448.942 1v8z" sketch:type="MSShapeGroup"/></svg>