<svg width="18" height="18" viewBox="0 0 18 18" xmlns="http://www.w3.org/2000/svg" xmlns:xlink="http://www.w3.org/1999/xlink"><title>rewind</title><desc>Created with Sketch.</desc><defs><path id="a" d="M2 0h-2v18h2v-18z"/></defs><g fill="none"><path d="M15.664 17.849c.475.367 1.336.024 1.336-.58v-16.537c0-.605-.886-.948-1.361-.58l-9.945 8.271c-.361.3-.36.854.001 1.154l9.969 8.272z" fill="#5C5C5C"/><g transform="translate(1)"><mask id="b"><use xlink:href="#a"/></mask><path d="M2 17.01c0 .547-.443.99-.99.99h-.02c-.547 0-.99-.443-.99-.99v-16.02c0-.546.443-.99.99-.99h.02c.547 0 .99.444.99.99v16.02z" fill="#5C5C5C" mask="url(#b)"/></g></g></svg>