<svg xmlns="http://www.w3.org/2000/svg" width="32" height="32" viewBox="0 0 32 32"><path d="M31.681 6.594l-4.952-4.954c-.295-.295-.816-.295-1.111 0l-3.081 3.083c-.241-.83-1-1.441-1.906-1.441h-18.639c-1.098-.001-1.992.893-1.992 1.992v14.845c0 1.099.894 1.991 1.992 1.991h3.197l-.959.961-.009.009-.018.017-.064.08-.066.102-.046.097-.015.029-2.477 7.43c-.094.283-.021.593.19.805.15.149.35.23.556.23l.249-.04 7.431-2.479.02-.009.153-.074.009-.004.126-.102 7.048-7.05h3.317c1.097 0 1.991-.895 1.991-1.993v-3.316l4.789-4.792.117-.157 4.15-4.15c.308-.306.308-.803 0-1.11zm-10.627 13.525c0 .231-.191.423-.424.423h-1.744l2.165-2.168v1.745h.003zm.804-12.459l1.416 1.417-15.987 15.992-1.418-1.416 15.989-15.993zm-20.288 12.459v-14.845c0-.233.189-.421.421-.421h18.639c.232 0 .424.188.424.421v.941l-14.297 14.327h-4.765c-.232 0-.422-.191-.422-.423zm1.951 9.722l1.579-4.735 3.157 3.157-4.736 1.578zm17.762-13.919l-.854.854-10.718 10.719-1.314-1.315 15.991-15.992 1.314 1.315-4.419 4.419zm5.556-5.595l-3.845-3.841 3.178-3.18 3.845 3.843-3.178 3.178zm-19.536-.95c0-.208-.082-.407-.23-.555l-1.888-1.888c-.307-.306-.804-.307-1.11 0-.307.307-.307.804 0 1.111l1.332 1.332-1.332 1.333c-.307.307-.307.804 0 1.111.152.153.354.231.555.231.201 0 .402-.078.556-.23l1.888-1.888c.147-.149.229-.348.229-.557zm1.148 2.673h2.25c.434 0 .785-.352.785-.785 0-.434-.352-.786-.785-.786h-2.25c-.433 0-.785.352-.785.786 0 .435.352.785.785.785z"/></svg>