<?xml version="1.0" encoding="utf-8"?>
<!-- Generator: Adobe Illustrator 16.0.4, SVG Export Plug-In . SVG Version: 6.00 Build 0)  -->
<!DOCTYPE svg PUBLIC "-//W3C//DTD SVG 1.1//EN" "http://www.w3.org/Graphics/SVG/1.1/DTD/svg11.dtd">
<svg version="1.1" id="Layer_1" xmlns="http://www.w3.org/2000/svg" xmlns:xlink="http://www.w3.org/1999/xlink" x="0px" y="0px"
	 width="200px" height="200px" viewBox="0 0 200 200" enable-background="new 0 0 200 200" xml:space="preserve">
<g>
	<g>
		<circle fill="#F0F0F0" cx="100" cy="100" r="79.999"/>
	</g>
	<g>
		<path fill="#F0F0F0" d="M20.001,100c0,44.183,35.816,80,79.999,80V20C55.817,20,20.001,55.817,20.001,100z"/>
		<path fill="#E8E9EA" d="M179.999,100c0-44.183-35.818-80-79.999-80v160C144.181,180,179.999,144.183,179.999,100z"/>
	</g>
	<g>
		<g>
			<g>
				<path fill="#23A4F3" d="M52.502,90.83c-6.447,0-8.787-4.754-8.787-7.949c0-13.343,10.854-24.198,24.198-24.198
					c13.341,0,24.194,10.854,24.194,24.198c0,3.195-2.34,7.949-8.787,7.949H52.502z"/>
				<path fill="#50535A" d="M67.913,61.308c11.913,0,21.569,9.656,21.569,21.573c0,0,0,5.324-6.162,5.324h-4.125H67.913h-15.41
					c-6.162,0-6.162-5.324-6.162-5.324C46.34,70.965,55.998,61.308,67.913,61.308 M67.913,56.058
					c-14.79,0-26.823,12.032-26.823,26.823c0,0.643,0.106,2.926,1.477,5.292c1.141,1.973,3.95,5.281,9.936,5.281h15.409h11.283
					h4.125c5.985,0,8.794-3.309,9.936-5.281c1.37-2.367,1.477-4.65,1.477-5.292C94.731,68.091,82.701,56.058,67.913,56.058
					L67.913,56.058z"/>
			</g>
			<g>
				<path fill="#23A4F3" d="M67.913,59.707c-7.395,0-13.412-6.015-13.412-13.411c0-7.395,6.015-13.41,13.412-13.41
					c7.396,0,13.411,6.015,13.411,13.41S75.308,59.707,67.913,59.707z"/>
				<path fill="#50535A" d="M67.913,35.511c5.957,0,10.786,4.83,10.786,10.785c0,5.957-4.829,10.786-10.786,10.786
					c-5.96,0-10.787-4.83-10.787-10.786C57.126,40.34,61.953,35.511,67.913,35.511 M67.913,30.261
					c-8.843,0-16.037,7.192-16.037,16.035s7.194,16.036,16.037,16.036c8.842,0,16.036-7.194,16.036-16.036
					C83.949,37.455,76.755,30.261,67.913,30.261L67.913,30.261z"/>
			</g>
		</g>
		<g>
			<path fill="#8EC033" d="M78.699,46.295c0-5.955-4.829-10.785-10.786-10.785v21.571C73.87,57.082,78.699,52.252,78.699,46.295z"/>
			<path fill="#8EC033" d="M67.913,61.308v26.895h11.282h4.125c6.162,0,6.162-5.324,6.162-5.324
				C89.481,70.965,79.826,61.308,67.913,61.308z"/>
			<path fill="#9ED639" d="M57.126,46.295c0,5.957,4.826,10.786,10.787,10.786V35.511C61.953,35.511,57.126,40.34,57.126,46.295z"/>
			<path fill="#9ED639" d="M46.34,82.881c0,0,0,5.324,6.162,5.324h15.409V61.308C55.998,61.308,46.34,70.965,46.34,82.881z"/>
		</g>
		<g>
			<g>
				<path fill="#23A4F3" d="M52.502,162.192c-6.447,0-8.787-4.751-8.787-7.948c0-13.342,10.854-24.197,24.198-24.197
					c13.341,0,24.194,10.855,24.194,24.197c0,3.197-2.34,7.948-8.787,7.948H52.502z"/>
				<path fill="#50535A" d="M67.913,132.672c11.913,0,21.569,9.657,21.569,21.573c0,0,0,5.323-6.162,5.323h-4.125H67.913h-15.41
					c-6.162,0-6.162-5.323-6.162-5.323C46.34,142.329,55.998,132.672,67.913,132.672 M67.913,127.422
					c-14.79,0-26.823,12.033-26.823,26.823c0,0.643,0.106,2.927,1.477,5.293c1.141,1.972,3.95,5.279,9.936,5.279h15.409h11.283
					h4.125c5.985,0,8.794-3.308,9.936-5.279c1.37-2.369,1.477-4.65,1.477-5.293C94.731,139.455,82.701,127.422,67.913,127.422
					L67.913,127.422z"/>
			</g>
			<g>
				<path fill="#23A4F3" d="M67.913,131.07c-7.395,0-13.412-6.017-13.412-13.411s6.015-13.411,13.412-13.411
					c7.396,0,13.411,6.017,13.411,13.411S75.308,131.07,67.913,131.07z"/>
				<path fill="#50535A" d="M67.913,106.873c5.957,0,10.786,4.831,10.786,10.786c0,5.956-4.829,10.786-10.786,10.786
					c-5.96,0-10.787-4.83-10.787-10.786C57.126,111.704,61.953,106.873,67.913,106.873 M67.913,101.623
					c-8.843,0-16.037,7.193-16.037,16.036s7.194,16.036,16.037,16.036c8.842,0,16.036-7.193,16.036-16.036
					C83.949,108.817,76.755,101.623,67.913,101.623L67.913,101.623z"/>
			</g>
		</g>
		<g>
			<path fill="#E79B42" d="M78.699,117.659c0-5.955-4.829-10.786-10.786-10.786v21.572C73.87,128.445,78.699,123.615,78.699,117.659
				z"/>
			<path fill="#E79B42" d="M67.913,132.672v26.896h11.282h4.125c6.162,0,6.162-5.323,6.162-5.323
				C89.481,142.329,79.826,132.672,67.913,132.672z"/>
			<path fill="#FAAF44" d="M57.126,117.659c0,5.956,4.826,10.786,10.787,10.786v-21.572
				C61.953,106.873,57.126,111.704,57.126,117.659z"/>
			<path fill="#FAAF44" d="M46.34,154.244c0,0,0,5.323,6.162,5.323h15.409v-26.896C55.998,132.672,46.34,142.329,46.34,154.244z"/>
		</g>
		<g>
			<g>
				<path fill="#23A4F3" d="M116.68,90.83c-6.448,0-8.789-4.754-8.789-7.949c0-13.343,10.856-24.198,24.198-24.198
					s24.196,10.854,24.196,24.198c0,3.195-2.341,7.949-8.788,7.949H116.68z"/>
				<path fill="#50535A" d="M132.088,61.308c11.912,0,21.57,9.656,21.57,21.573c0,0,0,5.324-6.161,5.324h-4.127h-11.282H116.68
					c-6.164,0-6.164-5.324-6.164-5.324C110.516,70.965,120.173,61.308,132.088,61.308 M132.088,56.058
					c-14.792,0-26.822,12.032-26.822,26.823c0,0.643,0.104,2.926,1.477,5.292c1.141,1.971,3.95,5.28,9.937,5.28h15.406h11.283h4.126
					c5.987,0,8.795-3.309,9.937-5.282c1.37-2.366,1.477-4.649,1.477-5.292C158.908,68.091,146.877,56.058,132.088,56.058
					L132.088,56.058z"/>
			</g>
			<g>
				<path fill="#23A4F3" d="M132.088,59.707c-7.396,0-13.412-6.015-13.412-13.411c0-7.395,6.016-13.41,13.412-13.41
					c7.395,0,13.411,6.015,13.411,13.41S139.482,59.707,132.088,59.707z"/>
				<path fill="#50535A" d="M132.088,35.511c5.957,0,10.786,4.83,10.786,10.785c0,5.957-4.829,10.786-10.786,10.786
					c-5.959,0-10.787-4.83-10.787-10.786C121.301,40.34,126.129,35.511,132.088,35.511 M132.088,30.261
					c-8.843,0-16.038,7.192-16.038,16.035s7.193,16.036,16.038,16.036c8.844,0,16.036-7.194,16.036-16.036
					C148.124,37.455,140.932,30.261,132.088,30.261L132.088,30.261z"/>
			</g>
		</g>
		<g>
			<path fill="#B19060" d="M142.874,46.295c0-5.955-4.829-10.785-10.786-10.785v21.571
				C138.045,57.082,142.874,52.252,142.874,46.295z"/>
			<path fill="#B19060" d="M132.088,61.308v26.895h11.282h4.127c6.161,0,6.161-5.324,6.161-5.324
				C153.658,70.965,144,61.308,132.088,61.308z"/>
			<path fill="#C5A16B" d="M121.301,46.295c0,5.957,4.828,10.786,10.787,10.786V35.511C126.129,35.511,121.301,40.34,121.301,46.295
				z"/>
			<path fill="#C5A16B" d="M110.516,82.881c0,0,0,5.324,6.164,5.324h15.408V61.308C120.173,61.308,110.516,70.965,110.516,82.881z"
				/>
		</g>
		<g>
			<g>
				<path fill="#23A4F3" d="M116.68,162.192c-6.448,0-8.789-4.751-8.789-7.948c0-13.342,10.856-24.197,24.198-24.197
					s24.196,10.855,24.196,24.197c0,3.197-2.341,7.948-8.788,7.948H116.68z"/>
				<path fill="#50535A" d="M132.088,132.672c11.912,0,21.57,9.657,21.57,21.573c0,0,0,5.323-6.161,5.323h-4.127h-11.282H116.68
					c-6.164,0-6.164-5.323-6.164-5.323C110.516,142.329,120.173,132.672,132.088,132.672 M132.088,127.422
					c-14.792,0-26.822,12.033-26.822,26.823c0,0.643,0.104,2.927,1.477,5.293c1.141,1.973,3.95,5.279,9.937,5.279h15.406h11.283
					h4.126c5.987,0,8.795-3.308,9.937-5.279c1.37-2.369,1.477-4.65,1.477-5.293C158.908,139.455,146.877,127.422,132.088,127.422
					L132.088,127.422z"/>
			</g>
			<g>
				<path fill="#23A4F3" d="M132.088,131.07c-7.396,0-13.412-6.017-13.412-13.411s6.016-13.411,13.412-13.411
					c7.395,0,13.411,6.017,13.411,13.411S139.482,131.07,132.088,131.07z"/>
				<path fill="#50535A" d="M132.088,106.873c5.957,0,10.786,4.831,10.786,10.786c0,5.956-4.829,10.786-10.786,10.786
					c-5.959,0-10.787-4.83-10.787-10.786C121.301,111.704,126.129,106.873,132.088,106.873 M132.088,101.623
					c-8.843,0-16.038,7.193-16.038,16.036s7.193,16.036,16.038,16.036c8.844,0,16.036-7.193,16.036-16.036
					C148.124,108.817,140.932,101.623,132.088,101.623L132.088,101.623z"/>
			</g>
		</g>
		<g>
			<path fill="#1F93DA" d="M142.874,117.659c0-5.955-4.829-10.786-10.786-10.786v21.572
				C138.045,128.445,142.874,123.615,142.874,117.659z"/>
			<path fill="#1F93DA" d="M132.088,132.672v26.896h11.282h4.127c6.161,0,6.161-5.323,6.161-5.323
				C153.658,142.329,144,132.672,132.088,132.672z"/>
			<path fill="#23A4F3" d="M121.301,117.659c0,5.956,4.828,10.786,10.787,10.786v-21.572
				C126.129,106.873,121.301,111.704,121.301,117.659z"/>
			<path fill="#23A4F3" d="M110.516,154.244c0,0,0,5.323,6.164,5.323h15.408v-26.896
				C120.173,132.672,110.516,142.329,110.516,154.244z"/>
		</g>
	</g>
</g>
</svg>
