<svg xmlns="http://www.w3.org/2000/svg" width="32" height="32" viewBox="0 0 32 32"><path fill="#fff" d="M16 31.488c-8.541 0-15.488-6.948-15.488-15.488 0-8.541 6.947-15.488 15.488-15.488 8.54 0 15.488 6.948 15.488 15.488s-6.948 15.488-15.488 15.488zm0-30.071c-8.042 0-14.583 6.541-14.583 14.583 0 8.041 6.542 14.583 14.583 14.583s14.583-6.542 14.583-14.583c0-8.042-6.542-14.583-14.583-14.583zm-4.305 26.566c-.197 0-.392-.038-.577-.11-.375-.147-.695-.438-.875-.802-.189-.381-.214-.799-.073-1.183l2.405-9.102v-5.431l-4.938-.672c-.348-.027-.685-.199-.925-.482-.253-.294-.373-.677-.34-1.075.057-.785.762-1.398 1.572-1.33l6.458.556h2.801l6.955-.569c.783 0 1.415.613 1.442 1.395.031.789-.577 1.46-1.361 1.504l-5.372.678.002 5.326 2.782 9.292c.106.422.047.838-.166 1.191-.211.354-.548.604-.947.704-.129.032-.262.049-.393.049-.7 0-1.306-.462-1.48-1.124l-2.762-8.194h-.223l-2.556 8.405c-.231.592-.792.974-1.429.974zm-3.869-19.287c-.285 0-.532.224-.553.5-.013.161.033.309.127.421.059.069.164.154.333.168l5.746.781-.015 6.396-2.442 9.23c-.079.202-.014.385.032.477.081.163.224.296.393.361.327.128.7-.026.828-.336l2.733-8.994h1.544l2.985 8.859c.081.326.431.522.78.437.165-.042.304-.144.391-.29.088-.147.113-.32.071-.489l-2.815-9.399-.003-6.255 6.219-.784c.296-.012.527-.267.516-.568-.01-.295-.245-.523-.538-.523l-6.936.569-2.878-.002-6.476-.558-.042-.001zm7.945-.402c-1.319 0-2.393-1.077-2.394-2.402 0-1.32 1.074-2.394 2.394-2.394 1.325 0 2.402 1.073 2.402 2.394.001 1.325-1.076 2.402-2.402 2.402zm0-3.892c-.821 0-1.489.669-1.489 1.49 0 .825.668 1.497 1.489 1.497.825 0 1.497-.672 1.497-1.497.001-.821-.671-1.49-1.497-1.49z"/></svg>