<?xml version="1.0" encoding="utf-8"?>
<!-- Generator: Adobe Illustrator 16.0.0, SVG Export Plug-In . SVG Version: 6.00 Build 0)  -->
<!DOCTYPE svg PUBLIC "-//W3C//DTD SVG 1.1//EN" "http://www.w3.org/Graphics/SVG/1.1/DTD/svg11.dtd">
<svg version="1.1" id="Layer_1" xmlns="http://www.w3.org/2000/svg" xmlns:xlink="http://www.w3.org/1999/xlink" x="0px" y="0px"
	 width="32px" height="32px" viewBox="0 0 32 32" enable-background="new 0 0 32 32" xml:space="preserve">
<g id="layer1" transform="translate(0,-952.36218)" inkscape:label="Layer 1" inkscape:groupmode="layer">
	<path id="path3883" inkscape:connector-curvature="0" d="M15.801,953.734c-2.361,0-4.3,1.939-4.3,4.3s1.939,4.299,4.3,4.299
		c2.36,0,4.3-1.938,4.3-4.299S18.161,953.734,15.801,953.734z M15.801,955.817c1.232,0,2.205,0.983,2.205,2.217
		c0,1.233-0.973,2.216-2.205,2.216c-1.234,0-2.217-0.983-2.217-2.216C13.584,956.8,14.566,955.817,15.801,955.817z M6.954,956.987
		c-2.36,0-4.31,1.938-4.31,4.3s1.949,4.29,4.31,4.29c2.361,0,4.29-1.928,4.29-4.29S9.315,956.987,6.954,956.987z M24.657,956.987
		c-2.361,0-4.29,1.938-4.29,4.3s1.929,4.29,4.29,4.29c2.36,0,4.311-1.928,4.311-4.29S27.018,956.987,24.657,956.987z M6.954,959.07
		c1.234,0,2.207,0.983,2.207,2.217s-0.973,2.207-2.207,2.207c-1.233,0-2.216-0.974-2.216-2.207S5.721,959.07,6.954,959.07z
		 M24.657,959.07c1.233,0,2.216,0.983,2.216,2.217s-0.982,2.207-2.216,2.207c-1.235,0-2.207-0.974-2.207-2.207
		S23.422,959.07,24.657,959.07z M15.801,963.257c-3.538,0-6.415,2.876-6.415,6.415v8.907v0.205v1.879
		c0,1.477,1.222,2.698,2.699,2.698c0.565,0.032,1.109-0.48,1.109-1.047s-0.544-1.068-1.109-1.037c-0.365,0-0.616-0.251-0.616-0.614
		v-1.879v-0.205v-8.907c0-2.417,1.914-4.331,4.331-4.331c2.416,0,4.33,1.914,4.33,4.331v8.907v0.205v1.879
		c0,0.355-0.252,0.614-0.616,0.614c-0.564-0.031-1.106,0.471-1.106,1.037s0.542,1.079,1.106,1.047c1.478,0,2.709-1.215,2.709-2.698
		v-1.879v-0.205v-8.907C22.224,966.134,19.338,963.257,15.801,963.257z M5.907,966.121c-0.197,0.001-0.384,0.032-0.575,0.082
		c-2.673,0.775-4.628,3.249-4.628,6.168v8.292c0,1.477,1.222,2.698,2.699,2.698H7.17c0.551,0.009,1.067-0.495,1.067-1.047
		c0-0.551-0.516-1.044-1.067-1.037H3.404c-0.365,0-0.616-0.251-0.616-0.614v-8.292c0-1.93,1.214-3.535,2.936-4.106
		c0.398-0.117,0.561-0.161,0.78-0.307c0.257-0.186,0.42-0.482,0.42-0.821C6.923,966.574,6.471,966.121,5.907,966.121z
		 M25.704,966.121c-0.564,0-1.017,0.453-1.017,1.016c0,0.339,0.164,0.635,0.421,0.821c0.218,0.146,0.382,0.19,0.78,0.307
		c1.72,0.572,2.936,2.177,2.936,4.106v8.292c0,0.363-0.254,0.614-0.616,0.614h-3.767c-0.55-0.007-1.067,0.486-1.067,1.037
		c0,0.552,0.518,1.056,1.067,1.047h3.767c1.477,0,2.699-1.222,2.699-2.698v-8.292c0-2.92-1.954-5.394-4.628-6.168
		C26.089,966.153,25.901,966.122,25.704,966.121z"/>
</g>
</svg>
