<svg xmlns="http://www.w3.org/2000/svg" viewBox="0 0 465 475" enable-background="new 0 0 465 475"><style type="text/css">.st0{fill:#E9292F;} .st1{fill:#870E0E;} .st2{fill:none;stroke:#870E0E;stroke-width:25;stroke-miterlimit:10;}</style><path class="st0" d="M317.6 15.9h130.2v459.1h-130.2zm-160 155.8h130.2v303.3h-130.2zm0 302.8h130.2v.5h-130.2zm-157.6-264.5h130.2v265h-130.2zm0 264.5h130.2v.5h-130.2z"/><path class="st1" d="M38 196.6h83.9v278.4h25.1v-303.3h-134.1v303.3h25.1zm96.9-12.5h-109v290.9h33.8v-10.6h41.5v10.6h33.8v-290.9zm-33.8 256.2h-41.5v-64h41.5v64zm0-88h-41.5v-64h41.5v64zm-41.5-88.1v-64h41.5v64h-41.5zm-33.7 210.3h33.8v.5h-33.8zm75.2 0h33.8v.5h-33.8zm254.8-449.6h84v450.1h25.1v-475h-134.1v475h25zm-158.9 142.3h83.9v307.8h25.1v-332.7h-134.1v332.7h25.1z"/><path class="st2" d="M184.4 100.4h109.1v6.9h-109.1z"/><path class="st1" d="M223.9 200.3h30.1v274.7h-30.1zm0 274.2h30.1v.5h-30.1zm212.5-474.5l-32.4 24.8-47.8 36.7-25 19.2v49l25-19.2 83.8-64.2 25-19.2v-27.1zm-80.2 132.2l-25 19.2v49l25-19.1 83.8-64.3 25-19.1v-49.1l-25 19.2zm0 70.8l-25 19.2v49l25-19.2 83.8-64.2 25-19.2v-49l-25 19.2zm0 70.8l-25 19.1v49.1l25-19.2 83.8-64.2 25-19.2v-49l-25 19.1zm0 70.7l-25 19.2v49l25-19.2 83.8-64.2 25-19.1v-49.1l-25 19.2zm0 70.8l-25 19.2v39.4h12.5l12.5-9.6 83.8-64.2 25-19.2v-49l-25 19.2zm16.9 59.7h64l2.9-2.2 25-19.2v-49l-25 19.1z"/></svg>