<?xml version="1.0" encoding="utf-8"?>
<!-- Generator: Adobe Illustrator 19.0.0, SVG Export Plug-In . SVG Version: 6.00 Build 0)  -->
<svg version="1.1" id="Layer_1" xmlns="http://www.w3.org/2000/svg" xmlns:xlink="http://www.w3.org/1999/xlink" x="0px" y="0px"
	 viewBox="445 -18 1340.1 550" style="enable-background:new 445 -18 1340.1 550;" xml:space="preserve">
<style type="text/css">
	.st0{clip-path:url(#SVGID_2_);}
	.st1{fill:#00A24E;}
	.st2{fill:#008947;}
</style>
<g id="Layer_2">
</g>
<g>
	<defs>
		<rect id="SVGID_1_" x="325.3" y="-301.9" width="1694" height="1569.8"/>
	</defs>
	<clipPath id="SVGID_2_">
		<use xlink:href="#SVGID_1_"  style="overflow:visible;"/>
	</clipPath>
	<g id="XMLID_6550_" class="st0">
		<g id="XMLID_6557_">
			
				<rect x="1465.3" y="-1577.6" transform="matrix(-0.7071 -0.7071 0.7071 -0.7071 2947.1687 171.3139)" class="st1" width="87.5" height="2105.7"/>
			<g id="XMLID_6558_">
				<polygon id="XMLID_6559_" class="st1" points="779.2,-4.5 779,205.3 988.9,205.3 899.8,294.4 690.1,294.4 690.1,84.5 				"/>
			</g>
		</g>
	</g>
	<g id="XMLID_6549_" class="st0">
		<g id="XMLID_2963_">
			
				<rect x="1641.1" y="-1332.9" transform="matrix(-0.7071 -0.7071 0.7071 -0.7071 3036.9006 697.7488)" class="st1" width="43.8" height="2105.7"/>
			<g id="XMLID_2964_">
				<polygon id="XMLID_2965_" class="st1" points="925.7,352.3 925.7,457.1 1030.5,457.1 986.1,501.7 881.2,501.7 881.2,396.7 				
					"/>
			</g>
		</g>
	</g>
	<g id="XMLID_6548_" class="st0">
		<g id="XMLID_6551_">
			
				<rect x="1582.8" y="-1857.7" transform="matrix(-0.7072 -0.707 0.707 -0.7072 3308.593 -239.467)" class="st1" width="43.8" height="2105.7"/>
			<g id="XMLID_6552_">
				<polygon id="XMLID_6553_" class="st1" points="867.6,-172.4 867.6,-67.5 972.4,-67.5 928,-22.9 823,-22.9 823,-127.9 				"/>
			</g>
		</g>
	</g>
	<g id="XMLID_6547_" class="st0">
		<g id="XMLID_2968_">
			
				<rect x="1718" y="-909.5" transform="matrix(-0.7071 -0.7071 0.7071 -0.7071 2868.6912 1475.1619)" class="st1" width="43.8" height="2105.9"/>
			<g id="XMLID_2969_">
				<polygon id="XMLID_2970_" class="st1" points="1002.7,775.8 1002.7,880.6 1107.5,880.6 1063.1,925.1 958.1,925.1 958.1,820.2 
									"/>
			</g>
		</g>
	</g>
	<g id="XMLID_6545_" class="st0">
		<g id="XMLID_2978_">
			
				<rect x="1852.4" y="-753.2" transform="matrix(-0.7071 -0.7071 0.7071 -0.7071 3024.9075 1852.4154)" class="st1" width="87.5" height="2105.9"/>
			<g id="XMLID_2980_">
				<polygon id="XMLID_2981_" class="st1" points="1166.3,819.7 1166.1,1029.7 1376,1029.5 1287.1,1118.6 1077.2,1118.6 
					1077.2,908.8 				"/>
			</g>
		</g>
	</g>
	<g id="XMLID_6544_" class="st0">
		<g id="XMLID_2973_">
			
				<rect x="1246.5" y="-1211.6" transform="matrix(-0.7071 -0.7071 0.7071 -0.7071 2314.8311 641.4789)" class="st1" width="87.5" height="2105.9"/>
			<g id="XMLID_2974_">
				<polygon id="XMLID_2975_" class="st1" points="560.5,361.4 560.5,571.2 770.3,571.2 681.2,660.3 471.4,660.3 471.4,450.5 				
					"/>
			</g>
		</g>
	</g>
	<g id="XMLID_2984_" class="st0">
		
			<rect x="1130.9" y="-679.2" transform="matrix(-0.7071 -0.7071 0.7071 -0.7071 1815.8207 1499.3459)" class="st2" width="175" height="2105.7"/>
		<g id="XMLID_2985_">
			<polygon id="XMLID_2986_" class="st2" points="503.2,669.2 503.1,1088.9 922.7,1088.7 744.7,1266.8 325.1,1266.8 325.1,847.4 			
				"/>
		</g>
	</g>
</g>
</svg>
