<?xml version="1.0" encoding="utf-8"?>
<!-- Generator: Adobe Illustrator 19.0.0, SVG Export Plug-In . SVG Version: 6.00 Build 0)  -->
<svg version="1.1" id="Layer_1" xmlns="http://www.w3.org/2000/svg" xmlns:xlink="http://www.w3.org/1999/xlink" x="0px" y="0px"
	 viewBox="0 0 465 475" style="enable-background:new 0 0 465 475;" xml:space="preserve">
<style type="text/css">
	.st0{fill:#E9292F;}
	.st1{fill:#870E0E;}
	.st2{fill:none;stroke:#870E0E;stroke-width:25;stroke-miterlimit:10;}
</style>
<rect x="317.6" y="15.9" class="st0" width="130.2" height="459.1"/>
<rect x="157.6" y="171.7" class="st0" width="130.2" height="303.3"/>
<rect x="157.6" y="474.5" class="st0" width="130.2" height="0.5"/>
<rect y="210" class="st0" width="130.2" height="265"/>
<rect y="474.5" class="st0" width="130.2" height="0.5"/>
<polygon class="st1" points="38,196.6 121.9,196.6 121.9,475 147,475 147,171.7 12.9,171.7 12.9,475 38,475 "/>
<path class="st1" d="M134.9,184.1H25.9V475h33.8v-10.6h41.5V475h33.8V184.1z M101.1,440.3H59.6v-64h41.5V440.3z M101.1,352.3H59.6
	v-64h41.5V352.3z M59.6,264.2v-64h41.5v64H59.6z"/>
<rect x="25.9" y="474.5" class="st1" width="33.8" height="0.5"/>
<rect x="101.1" y="474.5" class="st1" width="33.8" height="0.5"/>
<g>
	<polygon class="st1" points="355.9,24.9 439.9,24.9 439.9,475 465,475 465,0 330.9,0 330.9,475 355.9,475 	"/>
</g>
<g>
	<polygon class="st1" points="197,167.2 280.9,167.2 280.9,475 306,475 306,142.3 171.9,142.3 171.9,475 197,475 	"/>
	<rect x="184.4" y="100.4" class="st2" width="109.1" height="6.9"/>
</g>
<rect x="223.9" y="200.3" class="st1" width="30.1" height="274.7"/>
<rect x="223.9" y="474.5" class="st1" width="30.1" height="0.5"/>
<g>
	<polygon class="st1" points="436.4,0 404,24.8 356.2,61.5 331.2,80.7 331.2,129.7 356.2,110.5 440,46.3 465,27.1 465,0 	"/>
	<polygon class="st1" points="356.2,132.2 331.2,151.4 331.2,200.4 356.2,181.3 440,117 465,97.9 465,48.8 440,68 	"/>
	<polygon class="st1" points="356.2,203 331.2,222.2 331.2,271.2 356.2,252 440,187.8 465,168.6 465,119.6 440,138.8 	"/>
	<polygon class="st1" points="356.2,273.8 331.2,292.9 331.2,342 356.2,322.8 440,258.6 465,239.4 465,190.4 440,209.5 	"/>
	<polygon class="st1" points="356.2,344.5 331.2,363.7 331.2,412.7 356.2,393.5 440,329.3 465,310.2 465,261.1 440,280.3 	"/>
	<polygon class="st1" points="356.2,415.3 331.2,434.5 331.2,473.9 343.7,473.9 356.2,464.3 440,400.1 465,380.9 465,331.9 
		440,351.1 	"/>
	<polygon class="st1" points="373.1,475 437.1,475 440,472.8 465,453.6 465,404.6 440,423.7 	"/>
</g>
</svg>
