<?xml version="1.0" encoding="utf-8"?>
<!-- Generator: Adobe Illustrator 19.0.0, SVG Export Plug-In . SVG Version: 6.00 Build 0)  -->
<svg version="1.1" id="Layer_1" xmlns="http://www.w3.org/2000/svg" xmlns:xlink="http://www.w3.org/1999/xlink" x="0px" y="0px"
	 viewBox="445 -18 1340.1 550" style="enable-background:new 445 -18 1340.1 550;" xml:space="preserve">
<style type="text/css">
	.st0{fill:#00A24E;}
	.st1{fill:#008947;}
</style>
<g id="Layer_2">
</g>
<g>
	<polygon class="st0" points="925.7,352.3 881.2,396.7 881.2,501.7 986.1,501.7 1030.5,457.1 956.7,457.1 1431.8,-18 1369.9,-18 
		925.7,426.2 	"/>
	<polygon class="st0" points="1725.7,532 1785,472.7 1785,349 1602,532 	"/>
	<polygon class="st0" points="1785,129.3 1785,67.3 1320.3,532 1382.3,532 	"/>
	<polygon class="st0" points="899.8,294.4 988.9,205.3 988.2,205.3 1211.5,-18 1087.7,-18 864.4,205.3 840.9,205.3 1064.2,-18 
		940.5,-18 779.1,143.4 779.2,-4.5 690.1,84.5 690.1,294.4 775.3,294.4 560.5,509.2 560.5,361.4 471.4,450.5 471.4,532 661.5,532 
		899.1,294.4 	"/>
</g>
<polygon class="st1" points="1486.3,-18 936.3,532 1183.8,532 1733.8,-18 "/>
</svg>
