<svg xmlns="http://www.w3.org/2000/svg" viewBox="445 -18 1340.1 550" enable-background="new 445 -18 1340.1 550"><style type="text/css">.st0{fill:#00A24E;} .st1{fill:#008947;}</style><path class="st0" d="M925.7 352.3l-44.5 44.4v105h104.9l44.4-44.6h-73.8l475.1-475.1h-61.9l-444.2 444.2zm800 179.7l59.3-59.3v-123.7l-183 183zm59.3-402.7v-62l-464.7 464.7h62zm-885.2 165.1l89.1-89.1h-.7l223.3-223.3h-123.8l-223.3 223.3h-23.5l223.3-223.3h-123.7l-161.4 161.4.1-147.9-89.1 89v209.9h85.2l-214.8 214.8v-147.8l-89.1 89.1v81.5h190.1l237.6-237.6z"/><path class="st1" d="M1486.3-18l-550 550h247.5l550-550z"/></svg>