<?xml version="1.0" encoding="utf-8"?>
<!-- Generator: Adobe Illustrator 19.0.0, SVG Export Plug-In . SVG Version: 6.00 Build 0)  -->
<svg version="1.1" xmlns="http://www.w3.org/2000/svg" xmlns:xlink="http://www.w3.org/1999/xlink" x="0px" y="0px"
	 viewBox="198.9 -191 1340.1 550" style="enable-background:new 198.9 -191 1340.1 550;" xml:space="preserve">
<style type="text/css">
	.st0{clip-path:url(#SVGID_2_);}
	.st1{fill:#00A24E;}
	.st2{fill:#008947;}
</style>
<g id="Layer_2">
</g>
<g id="Layer_1">
	<g>
		<g>
			<defs>
				<rect id="SVGID_1_" x="79.3" y="-473.9" width="1694" height="1569.8"/>
			</defs>
			<clipPath id="SVGID_2_">
				<use xlink:href="#SVGID_1_"  style="overflow:visible;"/>
			</clipPath>
			<g id="XMLID_6550_" class="st0">
				<g id="XMLID_6557_">
					
						<rect x="1219.3" y="-1749.5" transform="matrix(0.7071 0.7071 -0.7071 0.7071 -122.6392 -1097.2231)" class="st1" width="87.5" height="2105.7"/>
					<g id="XMLID_6558_">
						<polygon id="XMLID_6559_" class="st1" points="533.2,-176.5 533,33.3 742.9,33.3 653.8,122.4 444.1,122.4 444.1,-87.5 						
							"/>
					</g>
				</g>
			</g>
			<g id="XMLID_6549_" class="st0">
				<g id="XMLID_2963_">
					
						<rect x="1395" y="-1504.9" transform="matrix(0.7071 0.7071 -0.7071 0.7071 95.4243 -1134.3337)" class="st1" width="43.8" height="2105.7"/>
					<g id="XMLID_2964_">
						<polygon id="XMLID_2965_" class="st1" points="679.7,180.3 679.7,285.1 784.5,285.1 740.1,329.7 635.2,329.7 635.2,224.7 
													"/>
					</g>
				</g>
			</g>
			<g id="XMLID_6548_" class="st0">
				<g id="XMLID_6551_">
					
						<rect x="1336.8" y="-2029.6" transform="matrix(0.7072 0.707 -0.707 0.7072 -292.7238 -1246.6719)" class="st1" width="43.8" height="2105.7"/>
					<g id="XMLID_6552_">
						<polygon id="XMLID_6553_" class="st1" points="621.6,-344.4 621.6,-239.5 726.4,-239.5 682,-194.9 577,-194.9 577,-299.9 
													"/>
					</g>
				</g>
			</g>
			<g id="XMLID_6547_" class="st0">
				<g id="XMLID_2968_">
					
						<rect x="1472" y="-1081.5" transform="matrix(0.7071 0.7071 -0.7071 0.7071 417.3372 -1064.6934)" class="st1" width="43.8" height="2105.9"/>
					<g id="XMLID_2969_">
						<polygon id="XMLID_2970_" class="st1" points="756.7,603.8 756.7,708.6 861.5,708.6 817.1,753.1 712.1,753.1 712.1,648.2 
													"/>
					</g>
				</g>
			</g>
			<g id="XMLID_6545_" class="st0">
				<g id="XMLID_2978_">
					
						<rect x="1606.4" y="-925.2" transform="matrix(0.7071 0.7071 -0.7071 0.7071 573.6125 -1129.4242)" class="st1" width="87.5" height="2105.9"/>
					<g id="XMLID_2980_">
						<polygon id="XMLID_2981_" class="st1" points="920.3,647.7 920.1,857.7 1130,857.5 1041.1,946.6 831.2,946.6 831.2,736.8 
													"/>
					</g>
				</g>
			</g>
			<g id="XMLID_6544_" class="st0">
				<g id="XMLID_2973_">
					
						<rect x="1000.5" y="-1383.6" transform="matrix(0.7071 0.7071 -0.7071 0.7071 72.0784 -835.2643)" class="st1" width="87.5" height="2105.9"/>
					<g id="XMLID_2974_">
						<polygon id="XMLID_2975_" class="st1" points="314.5,189.4 314.5,399.2 524.3,399.2 435.2,488.3 225.4,488.3 225.4,278.5 
													"/>
					</g>
				</g>
			</g>
		</g>
		<g id="XMLID_6546_">
			<g id="XMLID_2984_">
				
					<rect x="885" y="-851.3" transform="matrix(0.7071 0.7071 -0.7071 0.7071 427.2963 -628.5665)" class="st2" width="175" height="2105.7"/>
				<g id="XMLID_2985_">
					<polygon id="XMLID_2986_" class="st2" points="257.2,497.2 257.1,916.9 676.7,916.7 498.7,1094.8 79.1,1094.8 79.1,675.4 					
						"/>
				</g>
			</g>
		</g>
	</g>
</g>
</svg>
