<?xml version="1.0" encoding="utf-8"?>
<!-- Generator: Adobe Illustrator 19.0.0, SVG Export Plug-In . SVG Version: 6.00 Build 0)  -->
<svg version="1.1" id="Layer_1" xmlns="http://www.w3.org/2000/svg" xmlns:xlink="http://www.w3.org/1999/xlink" x="0px" y="0px"
	 viewBox="-176 210 96 96" style="enable-background:new -176 210 96 96;" xml:space="preserve">
<style type="text/css">
	.st0{fill:#FFFFFF;}
	.st1{fill:none;stroke:#FFFFFF;stroke-width:1.5;stroke-miterlimit:10;}
	.st2{fill:none;stroke:#8DC9E6;stroke-width:1.5;stroke-miterlimit:10;}
</style>
<g id="Layer_1_1_">
	<g>
		<g>
			<path class="st0" d="M-103.8,230.3c1.5,0,2.8,1.2,2.8,2.8v11.4c0,1.5-1.2,2.8-2.8,2.8h-12.8c-1.5,0-2.8-1.2-2.8-2.8v-11.4
				c0-1.5,1.2-2.8,2.8-2.8H-103.8 M-103.8,228.8h-12.8c-2.4,0-4.3,1.9-4.3,4.3v11.4c0,2.4,1.9,4.3,4.3,4.3h12.8
				c2.4,0,4.3-1.9,4.3-4.3v-11.4C-99.5,230.7-101.4,228.8-103.8,228.8L-103.8,228.8z"/>
		</g>
		<g>
			<g>
				<path class="st0" d="M-100.9,223.2c3.9,0,7,3.2,7,7v44.2c0,3.9-3.2,7-7,7h-65.6c-3.9,0-7-3.2-7-7v-44.2c0-3.9,3.2-7,7-7H-100.9
					 M-100.9,221.7h-65.6c-4.7,0-8.5,3.8-8.5,8.5v44.2c0,4.7,3.8,8.5,8.5,8.5h65.5c4.7,0,8.5-3.8,8.5-8.5v-44.2
					C-92.4,225.5-96.2,221.7-100.9,221.7L-100.9,221.7z"/>
			</g>
		</g>
		<path class="st1" d="M-92.4,235.9h2.8c4.7,0,8.5,3.8,8.5,8.5v41.3c0,4.7-3.8,8.5-8.5,8.5h-61.2c-4.7,0-8.5-3.8-8.5-8.5v-2.8"/>
		<g>
			<path class="st0" d="M-129.6,228.8h-4v1.5h4V228.8L-129.6,228.8L-129.6,228.8z M-137.6,228.8h-4v1.5h4V228.8L-137.6,228.8z
				 M-145.6,228.8h-4v1.5h4V228.8L-145.6,228.8z M-153.6,228.8h-4v1.5h4V228.8L-153.6,228.8z M-161.6,228.8h-3.3l0,0l0,0l0,0l0,0
				l0,0l0,0l0,0l0,0l0,0l0,0l0,0l0,0l0,0l0,0l0,0l0,0l0,0l0,0l0,0l0,0l0,0l0,0l0,0l0,0l0,0l0,0l0,0l0,0l0,0l0,0l0,0l0,0l0,0l0,0l0,0
				l0,0l0,0l0,0l0,0l0,0l0,0l0,0l0,0l0,0l0,0l0,0l0,0l0,0l0,0l0,0l0,0l0,0l0,0l0,0l0,0l0,0l0,0l0,0l0,0l0,0l0,0l0,0l0,0l0,0l0,0l0,0
				l0,0l0,0l0,0l0,0l0,0l0,0l0,0l0,0l0,0l0,0l0,0l0,0l0,0l0,0l0,0l0,0l0,0l0,0l0,0l0,0l0,0l0,0l0,0l0,0l0,0l0,0l0,0l0,0l0,0l0,0l0,0
				l0,0l0,0l0,0l0,0l0,0l0,0l0,0l0,0c-0.1,0-0.3,0-0.4,0.1l0,0l0,0l0,0l0,0l0,0l0,0l0.3,1.5c0.1,0,0.2,0,0.3,0h3.3v-1.6H-161.6z
				 M-167.9,231.8h1.5H-167.9L-167.9,231.8z M-167.9,231.8h1.5H-167.9L-167.9,231.8v4h1.5v-4l0,0H-167.9L-167.9,231.8z
				 M-166.4,239.8h-1.5v4h1.5V239.8L-166.4,239.8z M-166.4,247.8h-1.5v4h1.5V247.8L-166.4,247.8z M-166.4,255.8h-1.5v4h1.5V255.8
				L-166.4,255.8z M-166.4,263.8h-1.5v4h1.5V263.8L-166.4,263.8z M-166.4,271.8h-1.5v1l0,0l0,0l0,0l0,0l0,0l0,0l0,0l0,0l0,0l0,0l0,0
				l0,0l0,0l0,0l0,0l0,0l0,0l0,0l0,0l0,0l0,0l0,0l0,0l0,0l0,0l0,0l0,0l0,0l0,0l0,0l0,0l0,0l0,0l0,0l0,0l0,0l0,0l0,0l0,0l0,0l0,0l0,0
				l0,0l0,0l0,0l0,0l0,0l0,0l0,0l0,0l0,0l0,0l0,0l0,0l0,0l0,0l0,0l0,0l0,0l0,0l0,0l0,0l0,0l0,0l0,0l0,0l0,0l0,0l0,0l0,0l0,0l0,0l0,0
				l0,0l0,0l0,0l0,0l0,0l0,0l0,0l0,0l0,0l0,0l0,0l0,0l0,0l0,0l0,0l0,0l0,0l0,0l0,0l0,0l0,0l0,0l0,0l0,0l0,0l0,0l0,0l0,0l0,0l0,0l0,0
				l0,0l0,0l0,0l0,0l0,0l0,0l0,0l0,0l0,0l0,0l0,0l0,0l0,0l0,0l0,0l0,0l0,0l0,0l0,0l0,0l0,0l0,0l0,0l0,0l0,0l0,0l0,0l0,0l0,0l0,0l0,0
				l0,0l0,0l0,0l0,0l0,0l0,0l0,0l0,0l0,0l0,0l0,0l0,0l0,0l0,0l0,0l0,0l0,0l0,0l0,0l0,0l0,0l0,0l0,0l0,0l0,0l0,0l0,0l0,0l0,0l0,0l0,0
				l0,0l0,0l0,0l0,0l0,0l0,0l0,0l0,0l0,0l0,0l0,0l0,0l0,0l0,0l0,0l0,0l0,0l0,0l0,0l0,0l0,0l0,0l0,0l0,0l0,0l0,0l0,0l0,0l0,0l0,0l0,0
				c0.2,0.8,0.6,1.5,1.3,1.9l0.8-1.3c-0.4-0.3-0.7-0.7-0.7-1.3v-0.3H-166.4z M-158.6,274.3h-4v1.5h4V274.3L-158.6,274.3z
				 M-150.6,274.3h-4v1.5h4V274.3L-150.6,274.3z M-142.6,274.3h-4v1.5h4V274.3L-142.6,274.3z M-134.6,274.3h-4v1.5h4V274.3
				L-134.6,274.3z M-128.3,273.6c-0.3,0.4-0.7,0.7-1.3,0.7h-1v1.5h1l0,0l0,0l0,0l0,0l0,0l0,0l0,0l0,0l0,0l0,0l0,0l0,0l0,0l0,0l0,0
				l0,0l0,0l0,0l0,0l0,0l0,0l0,0l0,0l0,0l0,0l0,0l0,0l0,0l0,0l0,0l0,0l0,0l0,0l0,0l0,0l0,0l0,0l0,0l0,0l0,0l0,0l0,0l0,0l0,0l0,0l0,0
				l0,0l0,0l0,0l0,0l0,0l0,0l0,0l0,0l0,0l0,0l0,0l0,0l0,0l0,0l0,0l0,0l0,0l0,0l0,0l0,0l0,0l0,0l0,0l0,0l0,0l0,0l0,0l0,0l0,0l0,0l0,0
				l0,0l0,0l0,0l0,0l0,0l0,0l0,0l0,0l0,0l0,0l0,0l0,0l0,0l0,0l0,0l0,0l0,0l0,0l0,0l0,0l0,0l0,0l0,0l0,0l0,0l0,0l0,0l0,0l0,0l0,0l0,0
				l0,0l0,0l0,0l0,0l0,0l0,0l0,0l0,0l0,0l0,0l0,0l0,0l0,0l0,0l0,0l0,0l0,0l0,0l0,0l0,0l0,0l0,0l0,0l0,0l0,0l0,0l0,0l0,0l0,0l0,0l0,0
				l0,0l0,0l0,0l0,0l0,0l0,0l0,0l0,0l0,0l0,0l0,0l0,0l0,0l0,0l0,0l0,0l0,0l0,0l0,0l0,0l0,0l0,0l0,0l0,0l0,0l0,0l0,0l0,0l0,0l0,0l0,0
				l0,0l0,0l0,0l0,0l0,0l0,0l0,0l0,0l0,0l0,0l0,0l0,0l0,0l0,0l0,0l0,0l0,0l0,0l0,0l0,0l0,0l0,0l0,0l0,0l0,0l0,0l0,0l0,0l0,0l0,0l0,0
				l0,0l0,0l0,0l0,0l0,0l0,0l0,0l0,0l0,0l0,0l0,0l0,0l0,0l0,0l0,0l0,0l0,0l0,0l0,0l0,0l0,0l0,0l0,0l0,0l0,0l0,0l0,0l0,0l0,0l0,0l0,0
				l0,0l0,0l0,0l0,0l0,0l0,0l0,0l0,0l0,0l0,0l0,0l0,0l0,0l0,0l0,0l0,0l0,0l0,0l0,0l0,0l0,0l0,0l0,0l0,0l0,0l0,0l0,0l0,0l0,0l0,0l0,0
				l0,0l0,0l0,0l0,0l0,0l0,0l0,0l0,0l0,0l0,0l0,0l0,0l0,0l0,0l0,0l0,0l0,0l0,0l0,0l0,0l0,0l0,0l0,0l0,0l0,0l0,0l0,0l0,0l0,0l0,0l0,0
				l0,0l0,0l0,0l0,0l0,0l0,0l0,0l0,0l0,0l0,0l0,0l0,0l0,0l0,0l0,0l0,0l0,0l0,0l0,0l0,0l0,0l0,0l0,0l0,0l0,0l0,0l0,0l0,0l0,0l0,0l0,0
				l0,0l0,0l0,0l0,0l0,0l0,0l0,0l0,0l0,0l0,0l0,0l0,0l0,0l0,0l0,0l0,0l0,0l0,0l0,0l0,0l0,0l0,0l0,0l0,0l0,0l0,0l0,0l0,0l0,0l0,0l0,0
				l0,0l0,0l0,0l0,0l0,0l0,0l0,0l0,0l0,0l0,0l0,0l0,0l0,0l0,0l0,0l0,0l0,0l0,0l0,0l0,0l0,0l0,0l0,0l0,0l0,0l0,0l0,0l0,0l0,0l0,0l0,0
				l0,0l0,0l0,0l0,0l0,0l0,0l0,0l0,0l0,0l0,0l0,0l0,0l0,0l0,0l0,0l0,0l0,0l0,0l0,0l0,0l0,0l0,0l0,0l0,0l0,0l0,0l0,0l0,0l0,0l0,0l0,0
				l0,0l0,0l0,0l0,0l0,0l0,0l0,0l0,0l0,0l0,0l0,0l0,0l0,0l0,0l0,0l0,0l0,0l0,0l0,0l0,0l0,0l0,0l0,0l0,0l0,0l0,0l0,0l0,0l0,0l0,0l0,0
				l0,0l0,0l0,0l0,0l0,0l0,0l0,0l0,0l0,0l0,0l0,0l0,0l0,0l0,0l0,0l0,0l0,0l0,0l0,0l0,0l0,0l0,0l0,0l0,0l0,0l0,0l0,0l0,0l0,0
				c0.6-0.2,1-0.6,1.4-1.1L-128.3,273.6L-128.3,273.6z M-126.6,266.5h-1.5v4h1.5V266.5L-126.6,266.5z M-126.6,258.5h-1.5v4h1.5
				V258.5L-126.6,258.5z M-126.6,250.5h-1.5v4h1.5V250.5L-126.6,250.5z M-126.6,242.5h-1.5v4h1.5V242.5L-126.6,242.5z M-126.6,234.5
				h-1.5v4h1.5V234.5L-126.6,234.5z M-129.6,228.8v1.5c0.6,0,1.1,0.3,1.4,0.9l1.4-0.6c-0.4-0.9-1.2-1.5-2.1-1.7l0,0l0,0l0,0l0,0l0,0
				l0,0l0,0l0,0l0,0l0,0l0,0l0,0l0,0l0,0l0,0l0,0l0,0l0,0l0,0l0,0l0,0l0,0l0,0l0,0l0,0l0,0l0,0l0,0l0,0l0,0l0,0l0,0l0,0l0,0l0,0l0,0
				l0,0l0,0l0,0l0,0l0,0l0,0l0,0l0,0l0,0l0,0l0,0l0,0l0,0l0,0l0,0l0,0l0,0l0,0l0,0l0,0l0,0l0,0l0,0l0,0l0,0l0,0l0,0l0,0l0,0l0,0l0,0
				l0,0l0,0l0,0l0,0l0,0l0,0l0,0l0,0l0,0l0,0l0,0l0,0l0,0l0,0l0,0l0,0l0,0l0,0l0,0l0,0l0,0l0,0l0,0l0,0l0,0l0,0l0,0l0,0l0,0l0,0l0,0
				l0,0l0,0l0,0l0,0l0,0l0,0l0,0l0,0l0,0l0,0l0,0l0,0l0,0l0,0l0,0l0,0l0,0l0,0l0,0l0,0l0,0l0,0l0,0l0,0l0,0l0,0l0,0l0,0l0,0l0,0l0,0
				l0,0l0,0l0,0l0,0l0,0l0,0C-129.5,228.8-129.5,228.8-129.6,228.8C-129.5,228.8-129.5,228.8-129.6,228.8
				C-129.5,228.8-129.5,228.8-129.6,228.8C-129.5,228.8-129.5,228.8-129.6,228.8C-129.5,228.8-129.5,228.8-129.6,228.8L-129.6,228.8
				C-129.5,228.8-129.5,228.8-129.6,228.8C-129.5,228.8-129.5,228.8-129.6,228.8C-129.5,228.8-129.5,228.8-129.6,228.8L-129.6,228.8
				C-129.5,228.8-129.5,228.8-129.6,228.8C-129.5,228.8-129.5,228.8-129.6,228.8C-129.5,228.8-129.5,228.8-129.6,228.8L-129.6,228.8
				C-129.5,228.8-129.5,228.8-129.6,228.8C-129.5,228.8-129.5,228.8-129.6,228.8C-129.5,228.8-129.5,228.8-129.6,228.8L-129.6,228.8
				C-129.5,228.8-129.5,228.8-129.6,228.8C-129.5,228.8-129.5,228.8-129.6,228.8C-129.5,228.8-129.5,228.8-129.6,228.8L-129.6,228.8
				C-129.5,228.8-129.5,228.8-129.6,228.8C-129.5,228.8-129.5,228.8-129.6,228.8C-129.5,228.8-129.5,228.8-129.6,228.8
				C-129.5,228.8-129.5,228.8-129.6,228.8C-129.5,228.8-129.5,228.8-129.6,228.8C-129.5,228.8-129.5,228.8-129.6,228.8
				C-129.5,228.8-129.5,228.8-129.6,228.8L-129.6,228.8C-129.5,228.8-129.5,228.8-129.6,228.8L-129.6,228.8L-129.6,228.8
				L-129.6,228.8L-129.6,228.8L-129.6,228.8L-129.6,228.8L-129.6,228.8L-129.6,228.8L-129.6,228.8L-129.6,228.8L-129.6,228.8z"/>
		</g>
		<line class="st1" x1="-120.9" y1="254.4" x2="-99.5" y2="254.4"/>
		<line class="st1" x1="-120.9" y1="261.6" x2="-99.5" y2="261.6"/>
		<line class="st1" x1="-120.9" y1="268.7" x2="-99.5" y2="268.7"/>
		<polyline class="st2" points="-136.5,264.1 -141.8,258.7 -144.7,261.6 -151.8,254.4 -159.6,262.3 		"/>
		<circle class="st2" cx="-142.2" cy="244.5" r="4.3"/>
	</g>
</g>
</svg>
