<svg xmlns="http://www.w3.org/2000/svg" viewBox="0 0 96 96" enable-background="new 0 0 96 96"><style type="text/css">.st0{display:none;} .st1{display:inline;} .st2{fill:#FFFFFF;} .st3{fill:#55A1D2;} .st4{fill:#AED8EA;}</style><g id="BG" class="st0"><path id="XMLID_125_" class="st1" d="M124.3 0h96v96h-96z"/><path id="XMLID_28_" class="st1" d="M0 0h96v96h-96z"/><path id="XMLID_42_" class="st1" d="M-119.8 0h96v96h-96z"/></g><g id="XMLID_280_"><path id="XMLID_11_" class="st2" d="M63.9 86.1h-37.2c-5 0-9-4-9-9v-46.8h55.2v46.8c0 5-4 9-9 9zm-42.6-52.2v43.2c0 3 2.4 5.4 5.4 5.4h37.2c3 0 5.4-2.4 5.4-5.4v-43.2h-48z"/><path id="XMLID_12_" class="st2" d="M71.8 35h-52.9c-.2 0-2.6-.2-4.2-1.9-.7-.7-1.5-2-1.5-4s.8-3.2 1.5-3.9c1.7-1.6 4.1-1.5 4.3-1.5h52.7c.2 0 2.5 0 4.1 1.6.7.7 1.5 1.9 1.5 3.9s-.8 3.4-1.5 4.1c-1.4 1.3-3.4 1.7-4 1.7zm0-4c.3 0 1.1-.1 1.6-.6.1-.1.4-.4.4-1.3s-.2-1.2-.3-1.3c-.5-.5-1.5-.4-1.5-.4v.6h-53.1c-.4 0-1.3-.3-1.7.2-.1.1-.4.2-.4 1 0 .9.3 1.1.4 1.2.5.5 1.4.6 1.7.6h52.9z"/><circle id="XMLID_54_" class="st3" cx="45.9" cy="44.7" r="4.2"/><path id="XMLID_49_" class="st3" d="M44.5 13.4c-2.3-2.3-5.3-3.5-8.5-3.5-6.6 0-12 5.4-12 12v3.1h4v-3.1c0-2.2.7-4.3 2.3-5.9 1.6-1.6 3.6-2.5 5.8-2.5 2.2 0 4.1.9 5.7 2.5 1.6 1.6 2.2 3.7 2.2 5.9v25.1h4v-25.1c0-3.2-1.2-6.2-3.5-8.5z"/><path id="XMLID_108_" class="st4" d="M71.7 74.3c-5.3 0-9.6-4-9.6-8.9 0-4.2 6.9-14.9 9.6-14.9 2.7 0 9.6 10.8 9.6 14.9 0 4.9-4.3 8.9-9.6 8.9z"/><path id="XMLID_19_" class="st2" d="M71.7 75.9c-6.1 0-11.1-4.6-11.1-10.3 0-4.9 8-17.3 11.1-17.3 3.1 0 11.1 12.5 11.1 17.3 0 5.7-5 10.3-11.1 10.3zm0-23.7c-2.2 2.1-7.5 10-7.5 13.4 0 3.7 3.4 6.7 7.5 6.7 4.2 0 7.5-3 7.5-6.7 0-3.3-5.3-11.3-7.5-13.4z"/><path id="XMLID_50_" class="st2" d="M71.7 69.9c-.8 0-1.5-.5-1.7-1.3-.3-1 .3-1.9 1.3-2.2.4-.1 1.5-.6 1.8-1.4.3-.6.2-1.3-.1-2.2-.4-.9.1-2 1-2.3.9-.4 2 .1 2.3 1 1 2.3.6 4.1 0 5.1-1.2 2.4-3.8 3.2-4.1 3.3h-.5z"/></g></svg>