<svg xmlns="http://www.w3.org/2000/svg" viewBox="0 0 96 96" enable-background="new 0 0 96 96"><style type="text/css">.st0{display:none;} .st1{display:inline;} .st2{fill:#FFFFFF;} .st3{fill:#AED8EA;}</style><g id="BG" class="st0"><path id="XMLID_125_" class="st1" d="M0 0h96v96h-96z"/><path id="XMLID_28_" class="st1" d="M-124.3 0h96v96h-96z"/><path id="XMLID_42_" class="st1" d="M-244.2 0h96v96h-96z"/></g><g id="XMLID_307_"><path id="XMLID_155_" class="st2" d="M81 68.1v3.6h-15.6v-3.6h15.6m0-3.6h-15.6c-2 0-3.6 1.6-3.6 3.6v3.6c0 2 1.6 3.6 3.6 3.6h15.6c2 0 3.6-1.6 3.6-3.6v-3.6c0-2-1.6-3.6-3.6-3.6z"/><path id="XMLID_150_" class="st2" d="M30.6 68.1v3.6h-15.6v-3.6h15.6m0-3.6h-15.6c-2 0-3.6 1.6-3.6 3.6v3.6c0 2 1.6 3.6 3.6 3.6h15.6c2 0 3.6-1.6 3.6-3.6v-3.6c0-2-1.6-3.6-3.6-3.6z"/><path id="XMLID_147_" class="st2" d="M55.8 68.1v3.6h-15.6v-3.6h15.6m0-3.6h-15.6c-2 0-3.6 1.6-3.6 3.6v3.6c0 2 1.6 3.6 3.6 3.6h15.6c2 0 3.6-1.6 3.6-3.6v-3.6c0-2-1.6-3.6-3.6-3.6z"/><path id="XMLID_85_" class="st2" d="M81 24.3v32.4h-15.6v-32.4h15.6m0-3.6h-15.6c-2 0-3.6 1.6-3.6 3.6v32.4c0 2 1.6 3.6 3.6 3.6h15.6c2 0 3.6-1.6 3.6-3.6v-32.4c0-2-1.6-3.6-3.6-3.6z"/><path id="XMLID_81_" class="st2" d="M54.6 24.3v21h-39.6v-21h39.6m0-3.6h-39.6c-2 0-3.6 1.6-3.6 3.6v21c0 2 1.6 3.6 3.6 3.6h39.6c2 0 3.6-1.6 3.6-3.6v-21c0-2-1.6-3.6-3.6-3.6z"/><path id="XMLID_76_" class="st3" d="M54.6 20.7h-39.6c-2 0-3.6 1.6-3.6 3.6v21c0 2 1.6 3.6 3.6 3.6h39.6c2 0 3.6-1.6 3.6-3.6v-21c0-2-1.6-3.6-3.6-3.6z"/><path id="XMLID_72_" class="st2" d="M84.6 15.6c2 0 3.6 1.6 3.6 3.6v57.6c0 2-1.6 3.6-3.6 3.6h-73.2c-2 0-3.6-1.6-3.6-3.6v-57.6c0-2 1.6-3.6 3.6-3.6h73.2m0-3.6h-73.2c-4 0-7.2 3.2-7.2 7.2v57.6c0 4 3.2 7.2 7.2 7.2h73.2c4 0 7.2-4.4 7.2-7.2v-56.4c0-5.2-3.2-8.4-7.2-8.4z"/><path id="XMLID_59_" class="st2" d="M58.2 53.4h-46.8c-.3 0-.6-.3-.6-.6s.3-.6.6-.6h46.8c.3 0 .6.3.6.6s-.3.6-.6.6z"/><path id="XMLID_17_" class="st2" d="M58.2 56.4h-46.8c-.3 0-.6-.3-.6-.6s.3-.6.6-.6h46.8c.3 0 .6.3.6.6s-.3.6-.6.6z"/><path id="XMLID_16_" class="st2" d="M45.5 59.4h-34.1c-.3 0-.6-.3-.6-.6s.3-.6.6-.6h34.1c.3 0 .6.3.6.6s-.3.6-.6.6z"/></g></svg>