<?xml version="1.0" encoding="utf-8"?>
<!-- Generator: Adobe Illustrator 19.0.0, SVG Export Plug-In . SVG Version: 6.00 Build 0)  -->
<svg version="1.1" id="Layer_1" xmlns="http://www.w3.org/2000/svg" xmlns:xlink="http://www.w3.org/1999/xlink" x="0px" y="0px"
	 viewBox="0 0 96 96" style="enable-background:new 0 0 96 96;" xml:space="preserve">
<style type="text/css">
	.st0{fill:none;stroke:#FFFFFF;stroke-width:2;stroke-miterlimit:10;}
	.st1{fill:#8DC9E6;}
	.st2{fill:none;stroke:#FFFFFF;stroke-width:1.5;stroke-miterlimit:10;}
</style>
<g>
	<circle class="st0" cx="33.2" cy="16.4" r="4.7"/>
	<circle class="st1" cx="45.4" cy="45.6" r="8.2"/>
	<circle class="st0" cx="29.5" cy="80.2" r="4.1"/>
	<circle class="st0" cx="83.2" cy="46.9" r="5.8"/>
	<path class="st2" d="M37.8,18.4c7,3.6,15,10.6,22,19.9C72.6,55.3,77.2,73.6,70,79s-23.5-4-36.4-21.1S16.1,22.6,23.3,17.2
		c1.3-1,2.9-1.5,4.8-1.5"/>
	<path class="st2" d="M25.4,80.6c-1.9,0-3.5-0.5-4.8-1.5c-7.3-5.4-2.4-24.2,10.8-42S61.2,9.4,68.5,14.7s2.4,24.2-10.8,42
		C49.9,67.1,41,74.9,33.6,78.4"/>
	<path class="st2" d="M81.4,52.7c-5.9,5.9-19.6,10-35.7,10C24.3,62.7,7,55.4,7,46.3S24.3,30,45.7,30c16.9,0,31.2,4.6,36.5,10.9"/>
</g>
</svg>
