<svg xmlns="http://www.w3.org/2000/svg" viewBox="0 0 96 96" enable-background="new 0 0 96 96"><style type="text/css">.st0{display:none;} .st1{display:inline;} .st2{fill:#FFFFFF;} .st3{fill:#AED8EA;} .st4{fill:#55A1D2;}</style><g id="BG" class="st0"><path id="XMLID_125_" class="st1" d="M244.2 0h96v96h-96z"/><path id="XMLID_28_" class="st1" d="M119.8 0h96v96h-96z"/><path id="XMLID_42_" class="st1" d="M0 0h96v96h-96z"/></g><g id="XMLID_159_"><path id="XMLID_178_" class="st2" d="M65.5 79.2c-3.7 0-8.2-1.3-13.2-3.9l-.2-.1c-.1-.1-2.4-1.7-3.9-4l3-2c1 1.5 2.5 2.7 2.9 3 7.6 3.9 13.8 4.5 16.7 1.5 4.9-5.1.1-21.1-14.9-36.7-10-10.5-21.9-17.5-29.6-17.5-2.3 0-4.1.6-5.3 1.9-1.4 1.5-2 3.7-1.8 6.7 0 .1 0 .9.4 1.8l-3.3 1.5c-.7-1.5-.7-2.9-.7-3.1-.3-3.9.7-7.2 2.8-9.4 1.9-2 4.6-3 7.9-3 8.7 0 21.3 7.3 32.1 18.6 15.3 16.1 21.9 34.4 14.9 41.7-1.9 2-4.6 3-7.8 3z"/><path id="XMLID_176_" class="st2" d="M26.3 79.2c-3.3 0-6-1-7.9-3-7-7.3-.4-25.6 14.9-41.7 10.8-11.3 23.4-18.6 32.1-18.6 3.3 0 6 1 7.9 3 2.1 2.2 3 5.4 2.8 9.3 0 .5 0 2.2-.7 4.2l-3.4-1.2c.6-1.5.5-2.9.5-2.9v-.2c.2-3-.4-5.2-1.8-6.7-1.2-1.3-3-1.9-5.3-1.9-7.7 0-19.5 7-29.5 17.5-14.9 15.6-19.7 31.6-14.8 36.7 2.8 2.9 8.9 2.4 16.3-1.3.3-.2 2.3-1.5 4.1-3.4l2.6 2.5c-2.4 2.5-4.9 4-5 4.1h-.1c-4.7 2.4-9 3.6-12.7 3.6z"/><path id="XMLID_174_" class="st2" d="M45.9 66.1c-21.7 0-38.8-8.1-38.8-18.5 0-4.2 2.7-8.1 7.8-11.3.3-.2 2.5-1.5 5-1.5v3.6c-1.5 0-3.1.9-3.1.9-2.8 1.7-6.1 4.6-6.1 8.2 0 8.1 16.1 14.9 35.2 14.9s35.2-6.8 35.2-14.9c0-3.6-3.3-6.4-6-8.2l-.1-.1c-.4-.3-1.3-.8-1.7-1l1-3.4c1.2.3 2.4 1.2 2.8 1.5 5 3.2 7.7 7.1 7.7 11.2-.1 10.4-17.2 18.6-38.9 18.6z"/><circle id="XMLID_172_" class="st3" cx="34.9" cy="19.8" r="4.8"/><path id="XMLID_170_" class="st4" d="M55.3 47.4c0-4.6-3.8-8.4-8.4-8.4s-8.4 3.8-8.4 8.4 3.8 8.4 8.4 8.4c6.2 0 8.4-5.4 8.4-8.4z"/><path id="XMLID_168_" class="st3" d="M33.7 76.8c0-2.3-1.9-4.2-4.2-4.2s-4.2 1.9-4.2 4.2 1.9 4.2 4.2 4.2c3.9 0 4.2-3.5 4.2-4.2z"/><circle id="XMLID_166_" class="st3" cx="82.9" cy="49.8" r="6"/></g></svg>