<?xml version="1.0" encoding="utf-8"?>
<!-- Generator: Adobe Illustrator 19.0.0, SVG Export Plug-In . SVG Version: 6.00 Build 0)  -->
<svg version="1.1" id="Layer_1" xmlns="http://www.w3.org/2000/svg" xmlns:xlink="http://www.w3.org/1999/xlink" x="0px" y="0px"
	 viewBox="0 0 96 96" style="enable-background:new 0 0 96 96;" xml:space="preserve">
<style type="text/css">
	.st0{fill:none;stroke:#FFFFFF;stroke-width:1.5;}
	.st1{fill:#8DC9E6;}
</style>
<g>
	<g>
		<path class="st0" d="M34.8,74c0.2,0,0.5-0.2,0.6-0.5c5.7-15,13.8-37,19.4-52.1c1.7-0.2,5.9-0.2,12.7-0.2
			C72.7,36.9,80.1,59,85.2,73.9l4.7,0.4c0,2.5,0,5.2-0.1,7.8c-3.1,0-7.6,0-11.1,0c-4.8,0-10.7,0-14.9,0c0-2.6,0-5.3,0.1-7.9l4.5-0.3
			c0.2,0,0.4-0.2,0.3-0.5c-0.5-1.4-1.3-4.4-1.9-5.7c-0.1-0.4-0.3-0.5-0.6-0.5L49,67.4c-0.5,2-1.2,4.6-1.6,6.6l5.1,0.3
			c0,2.5,0,5.2-0.1,7.8c-3.7,0-8.5,0-13.1,0c-3.1,0-6.3,0-9.1,0c0-2.6,0.1-5.3,0.2-7.8L34.8,74z M57.7,38.5
			c-2.1,6.9-4.4,14.2-6.3,20.5c-0.1,0.4-0.1,0.6,0.2,0.6h13c-1.9-6.1-4.2-13.7-6.4-21H57.7z"/>
	</g>
	<g>
		<path class="st1" d="M36.9,42.3c0.2,0.7,1.2,1.1,2.9,1.1v2.9H25.4v-2.9h2.8c0.7,0,1-0.2,1-0.6c0-0.1,0-0.2-0.1-0.4l-1-2.9h-9.7
			L17.5,42c-0.1,0.2-0.1,0.3-0.1,0.5c0,0.6,0.5,0.9,1.6,0.9h2v2.9H10.9l0-2.9c1,0,1.8-0.1,2.2-0.3s0.8-0.4,0.9-0.8l8-22.6h7.2
			L36.9,42.3z M19.5,36.2h7.7l-3.7-11.7L19.5,36.2z"/>
	</g>
</g>
</svg>
