<svg xmlns="http://www.w3.org/2000/svg" viewBox="-199 233 50 50" enable-background="new -199 233 50 50"><style type="text/css">.st0{fill:#FFFFFF;}</style><g id="XMLID_1_"><path id="XMLID_16_" class="st0" d="M-168 248.6h-12c-1.8 0-3.4 1.5-3.4 3.4v12c0 1.8 1.5 3.4 3.4 3.4h12c1.8 0 3.4-1.5 3.4-3.4v-12c0-1.8-1.6-3.4-3.4-3.4m.6 3.4v12c0 .4-.3.6-.6.6h-12c-.4 0-.6-.3-.6-.6v-12c0-.4.3-.6.6-.6h12c.4 0 .6.3.6.6"/><path id="XMLID_14_" class="st0" d="M-170.8 262h-6.4c-.5 0-.8-.3-.8-.8v-6.4c0-.5.3-.8.8-.8h6.4c.5 0 .8.3.8.8v6.4c0 .5-.3.8-.8.8z"/><path id="XMLID_13_" class="st0" d="M-162.8 254h-3.8c-.4 0-.8-.3-.8-.8v-1c0-.4.4-.8.8-.8h3.8c.4 0 .8.4.8.8v1c0 .5-.4.8-.8.8z"/><path id="XMLID_12_" class="st0" d="M-162.8 259.4h-3.8c-.4 0-.8-.3-.8-.8v-1c0-.4.4-.8.8-.8h3.8c.4 0 .8.3.8.8v1c0 .4-.4.8-.8.8z"/><path id="XMLID_11_" class="st0" d="M-162.8 264.6h-3.8c-.4 0-.8-.3-.8-.8v-1c0-.4.4-.8.8-.8h3.8c.4 0 .8.3.8.8v1c0 .5-.4.8-.8.8z"/><path id="XMLID_10_" class="st0" d="M-178.8 250h-1c-.4 0-.8-.3-.8-.8v-2.4c0-.4.4-.8.8-.8h1c.4 0 .8.3.8.8v2.4c0 .5-.3.8-.8.8z"/><path id="XMLID_9_" class="st0" d="M-173.4 250h-1c-.4 0-.8-.3-.8-.8v-2.4c0-.4.3-.8.8-.8h1c.4 0 .8.3.8.8v2.4c0 .5-.4.8-.8.8z"/><path id="XMLID_8_" class="st0" d="M-168.2 250h-1c-.4 0-.8-.3-.8-.8v-2.4c0-.4.3-.8.8-.8h1c.4 0 .8.3.8.8v2.4c0 .5-.3.8-.8.8z"/><path id="XMLID_7_" class="st0" d="M-168.2 270h-1c-.4 0-.8-.4-.8-.8v-2.4c0-.4.3-.8.8-.8h1c.4 0 .8.4.8.8v2.4c0 .4-.3.8-.8.8z"/><path id="XMLID_6_" class="st0" d="M-173.4 270h-1c-.4 0-.8-.4-.8-.8v-2.4c0-.4.3-.8.8-.8h1c.4 0 .8.4.8.8v2.4c0 .4-.4.8-.8.8z"/><path id="XMLID_5_" class="st0" d="M-178.8 270h-1c-.4 0-.8-.4-.8-.8v-2.4c0-.4.4-.8.8-.8h1c.4 0 .8.4.8.8v2.4c0 .4-.3.8-.8.8z"/><path id="XMLID_4_" class="st0" d="M-182.8 254h-2.4c-.4 0-.8-.3-.8-.8v-1c0-.4.3-.8.8-.8h2.4c.4 0 .8.4.8.8v1c0 .5-.3.8-.8.8z"/><path id="XMLID_3_" class="st0" d="M-182.8 259.4h-2.4c-.4 0-.8-.3-.8-.8v-1c0-.4.3-.8.8-.8h2.4c.4 0 .8.3.8.8v1c0 .4-.3.8-.8.8z"/><path id="XMLID_2_" class="st0" d="M-182.8 264.6h-2.4c-.4 0-.8-.3-.8-.8v-1c0-.4.3-.8.8-.8h2.4c.4 0 .8.3.8.8v1c0 .5-.3.8-.8.8z"/></g></svg>