<?xml version="1.0" encoding="utf-8"?>
<!-- Generator: Adobe Illustrator 19.0.0, SVG Export Plug-In . SVG Version: 6.00 Build 0)  -->
<svg version="1.1" id="Layer_1" xmlns="http://www.w3.org/2000/svg" xmlns:xlink="http://www.w3.org/1999/xlink" x="0px" y="0px"
	 viewBox="0 0 50 50" style="enable-background:new 0 0 50 50;" xml:space="preserve">
<style type="text/css">
	.st0{fill-rule:evenodd;clip-rule:evenodd;fill:#FFFFFF;}
</style>
<g id="XMLID_132_">
	<g id="XMLID_146_">
		<defs>
			<path id="XMLID_147_" d="M32.5,13.3h-15c-2.3,0-4.2,1.9-4.2,4.2v15c0,2.3,1.9,4.2,4.2,4.2h15c2.3,0,4.2-1.9,4.2-4.2v-15
				C36.7,15.2,34.8,13.3,32.5,13.3 M33.3,17.5v15c0,0.5-0.4,0.8-0.8,0.8h-15c-0.5,0-0.8-0.4-0.8-0.8v-15c0-0.5,0.4-0.8,0.8-0.8
				c3.4,0,11.7,0,15,0C33,16.7,33.3,17.1,33.3,17.5"/>
		</defs>
		<use xlink:href="#XMLID_147_"  style="overflow:visible;fill-rule:evenodd;clip-rule:evenodd;fill:#FFFFFF;"/>
		<clipPath id="XMLID_2_">
			<use xlink:href="#XMLID_147_"  style="overflow:visible;"/>
		</clipPath>
	</g>
	<path id="XMLID_145_" class="st0" d="M29,30h-8c-0.6,0-1-0.4-1-1v-8c0-0.6,0.4-1,1-1h8c0.6,0,1,0.4,1,1v8C30,29.6,29.6,30,29,30z"
		/>
	<path id="XMLID_144_" class="st0" d="M39,20h-4.7c-0.5,0-1-0.4-1-1v-1.3c0-0.5,0.5-1,1-1H39c0.5,0,1,0.5,1,1V19
		C40,19.6,39.5,20,39,20z"/>
	<path id="XMLID_143_" class="st0" d="M39,26.7h-4.7c-0.5,0-1-0.4-1-1v-1.3c0-0.5,0.5-1,1-1H39c0.5,0,1,0.4,1,1v1.3
		C40,26.2,39.5,26.7,39,26.7z"/>
	<path id="XMLID_142_" class="st0" d="M39,33.3h-4.7c-0.5,0-1-0.4-1-1V31c0-0.5,0.5-1,1-1H39c0.5,0,1,0.4,1,1v1.3
		C40,32.9,39.5,33.3,39,33.3z"/>
	<path id="XMLID_141_" class="st0" d="M19,15h-1.3c-0.5,0-1-0.4-1-1v-3c0-0.5,0.5-1,1-1H19c0.5,0,1,0.4,1,1v3C20,14.6,19.6,15,19,15
		z"/>
	<path id="XMLID_140_" class="st0" d="M25.7,15h-1.3c-0.5,0-1-0.4-1-1v-3c0-0.5,0.4-1,1-1h1.3c0.5,0,1,0.4,1,1v3
		C26.7,14.6,26.2,15,25.7,15z"/>
	<path id="XMLID_139_" class="st0" d="M32.3,15H31c-0.5,0-1-0.4-1-1v-3c0-0.5,0.4-1,1-1h1.3c0.5,0,1,0.4,1,1v3
		C33.3,14.6,32.9,15,32.3,15z"/>
	<path id="XMLID_138_" class="st0" d="M32.3,40H31c-0.5,0-1-0.5-1-1v-3c0-0.5,0.4-1,1-1h1.3c0.5,0,1,0.5,1,1v3
		C33.3,39.5,32.9,40,32.3,40z"/>
	<path id="XMLID_137_" class="st0" d="M25.7,40h-1.3c-0.5,0-1-0.5-1-1v-3c0-0.5,0.4-1,1-1h1.3c0.5,0,1,0.5,1,1v3
		C26.7,39.5,26.2,40,25.7,40z"/>
	<path id="XMLID_136_" class="st0" d="M19,40h-1.3c-0.5,0-1-0.5-1-1v-3c0-0.5,0.5-1,1-1H19c0.5,0,1,0.5,1,1v3C20,39.5,19.6,40,19,40
		z"/>
	<path id="XMLID_135_" class="st0" d="M14,20h-3c-0.5,0-1-0.4-1-1v-1.3c0-0.5,0.4-1,1-1h3c0.5,0,1,0.5,1,1V19C15,19.6,14.6,20,14,20
		z"/>
	<path id="XMLID_134_" class="st0" d="M14,26.7h-3c-0.5,0-1-0.4-1-1v-1.3c0-0.5,0.4-1,1-1h3c0.5,0,1,0.4,1,1v1.3
		C15,26.2,14.6,26.7,14,26.7z"/>
	<path id="XMLID_133_" class="st0" d="M14,33.3h-3c-0.5,0-1-0.4-1-1V31c0-0.5,0.4-1,1-1h3c0.5,0,1,0.4,1,1v1.3
		C15,32.9,14.6,33.3,14,33.3z"/>
</g>
</svg>
