<?xml version="1.0" encoding="utf-8"?>
<!-- Generator: Adobe Illustrator 19.0.0, SVG Export Plug-In . SVG Version: 6.00 Build 0)  -->
<svg version="1.1" id="Layer_1" xmlns="http://www.w3.org/2000/svg" xmlns:xlink="http://www.w3.org/1999/xlink" x="0px" y="0px"
	 viewBox="-199 233 50 50" style="enable-background:new -199 233 50 50;" xml:space="preserve">
<style type="text/css">
	.st0{fill:#FFFFFF;}
</style>
<g id="XMLID_1_">
	<g id="XMLID_15_">
		<g>
			<path id="XMLID_16_" class="st0" d="M-168,248.6h-12c-1.8,0-3.4,1.5-3.4,3.4v12c0,1.8,1.5,3.4,3.4,3.4h12c1.8,0,3.4-1.5,3.4-3.4
				v-12C-164.6,250.2-166.2,248.6-168,248.6 M-167.4,252v12c0,0.4-0.3,0.6-0.6,0.6h-12c-0.4,0-0.6-0.3-0.6-0.6v-12
				c0-0.4,0.3-0.6,0.6-0.6c2.7,0,9.4,0,12,0C-167.6,251.4-167.4,251.7-167.4,252"/>
		</g>
	</g>
	<path id="XMLID_14_" class="st0" d="M-170.8,262h-6.4c-0.5,0-0.8-0.3-0.8-0.8v-6.4c0-0.5,0.3-0.8,0.8-0.8h6.4
		c0.5,0,0.8,0.3,0.8,0.8v6.4C-170,261.7-170.3,262-170.8,262z"/>
	<path id="XMLID_13_" class="st0" d="M-162.8,254h-3.8c-0.4,0-0.8-0.3-0.8-0.8v-1c0-0.4,0.4-0.8,0.8-0.8h3.8c0.4,0,0.8,0.4,0.8,0.8
		v1C-162,253.7-162.4,254-162.8,254z"/>
	<path id="XMLID_12_" class="st0" d="M-162.8,259.4h-3.8c-0.4,0-0.8-0.3-0.8-0.8v-1c0-0.4,0.4-0.8,0.8-0.8h3.8
		c0.4,0,0.8,0.3,0.8,0.8v1C-162,259-162.4,259.4-162.8,259.4z"/>
	<path id="XMLID_11_" class="st0" d="M-162.8,264.6h-3.8c-0.4,0-0.8-0.3-0.8-0.8v-1c0-0.4,0.4-0.8,0.8-0.8h3.8
		c0.4,0,0.8,0.3,0.8,0.8v1C-162,264.3-162.4,264.6-162.8,264.6z"/>
	<path id="XMLID_10_" class="st0" d="M-178.8,250h-1c-0.4,0-0.8-0.3-0.8-0.8v-2.4c0-0.4,0.4-0.8,0.8-0.8h1c0.4,0,0.8,0.3,0.8,0.8
		v2.4C-178,249.7-178.3,250-178.8,250z"/>
	<path id="XMLID_9_" class="st0" d="M-173.4,250h-1c-0.4,0-0.8-0.3-0.8-0.8v-2.4c0-0.4,0.3-0.8,0.8-0.8h1c0.4,0,0.8,0.3,0.8,0.8v2.4
		C-172.6,249.7-173,250-173.4,250z"/>
	<path id="XMLID_8_" class="st0" d="M-168.2,250h-1c-0.4,0-0.8-0.3-0.8-0.8v-2.4c0-0.4,0.3-0.8,0.8-0.8h1c0.4,0,0.8,0.3,0.8,0.8v2.4
		C-167.4,249.7-167.7,250-168.2,250z"/>
	<path id="XMLID_7_" class="st0" d="M-168.2,270h-1c-0.4,0-0.8-0.4-0.8-0.8v-2.4c0-0.4,0.3-0.8,0.8-0.8h1c0.4,0,0.8,0.4,0.8,0.8v2.4
		C-167.4,269.6-167.7,270-168.2,270z"/>
	<path id="XMLID_6_" class="st0" d="M-173.4,270h-1c-0.4,0-0.8-0.4-0.8-0.8v-2.4c0-0.4,0.3-0.8,0.8-0.8h1c0.4,0,0.8,0.4,0.8,0.8v2.4
		C-172.6,269.6-173,270-173.4,270z"/>
	<path id="XMLID_5_" class="st0" d="M-178.8,270h-1c-0.4,0-0.8-0.4-0.8-0.8v-2.4c0-0.4,0.4-0.8,0.8-0.8h1c0.4,0,0.8,0.4,0.8,0.8v2.4
		C-178,269.6-178.3,270-178.8,270z"/>
	<path id="XMLID_4_" class="st0" d="M-182.8,254h-2.4c-0.4,0-0.8-0.3-0.8-0.8v-1c0-0.4,0.3-0.8,0.8-0.8h2.4c0.4,0,0.8,0.4,0.8,0.8v1
		C-182,253.7-182.3,254-182.8,254z"/>
	<path id="XMLID_3_" class="st0" d="M-182.8,259.4h-2.4c-0.4,0-0.8-0.3-0.8-0.8v-1c0-0.4,0.3-0.8,0.8-0.8h2.4c0.4,0,0.8,0.3,0.8,0.8
		v1C-182,259-182.3,259.4-182.8,259.4z"/>
	<path id="XMLID_2_" class="st0" d="M-182.8,264.6h-2.4c-0.4,0-0.8-0.3-0.8-0.8v-1c0-0.4,0.3-0.8,0.8-0.8h2.4c0.4,0,0.8,0.3,0.8,0.8
		v1C-182,264.3-182.3,264.6-182.8,264.6z"/>
</g>
</svg>
