<svg xmlns="http://www.w3.org/2000/svg" width="32" height="32" viewBox="0 0 32 32"><path fill="#fff" d="M24.604 31.887h-11.113c-.292 0-.53-.235-.533-.528l-.026-2.851c-.788-.59-2.084-1.778-3.276-3.861l-5.46-4.619c-.59-.495-.95-1.193-1.014-1.965-.066-.768.172-1.517.673-2.107.548-.65 1.354-1.024 2.21-1.024.676 0 1.334.239 1.852.673l2.633 2.067c.073-.641.141-1.784.141-3.823l-.118-10.765c-.021-.756.253-1.486.772-2.048.527-.565 1.242-.892 2.014-.92l.103-.003c1.564 0 2.833 1.225 2.89 2.787.002.241.031 3.248.052 6.002.387-.294.966-.499 1.856-.573l.469-.021c1.457 0 2.407.756 2.562 2.03.354-.377.792-.632 1.308-.632.236 0 .494.024.787.076 2.804.499 2.714 2.329 2.618 2.878l-.013.074c.122-.044.233-.07.325-.074.726-.034 1.288.249 1.727.851.969 1.328.931 2.366.492 4.056l-.082.323-.018.06-3.249 10.244-.048 3.168c-.004.29-.242.525-.534.525zm-10.584-1.066h10.06l.035-2.253h-10.116l.021 2.253zm-.645-3.319h10.912l3.129-9.868.087-.333v-.001c.413-1.594.347-2.244-.322-3.162-.189-.26-.412-.433-.822-.412-.103.027-.563.277-.72.505-.146.215-.429.291-.664.181-.236-.109-.358-.375-.288-.626l.066-.295.079-.349.004-.011.117-.655c.146-.844-.461-1.414-1.753-1.644-.231-.041-.429-.061-.603-.061-.541 0-1.15 1.065-1.313 1.981-.049.279-.304.472-.592.436-.282-.036-.486-.286-.464-.569l.067-.873-.056-1.195-.001-.015c-.066-.782-.561-1.163-1.511-1.163l-.375.018c-1.511.127-1.583.541-1.723 1.367l-.036.208c-.13 1.133-.206 1.234-.379 1.368-.16.125-.377.147-.56.059s-.299-.274-.3-.478c-.012-2.887-.066-8.665-.069-8.966-.035-.997-.837-1.771-1.824-1.771l-.083.003c-.469.018-.92.224-1.252.58-.328.354-.502.817-.488 1.301l.117 10.779c0 3.671-.208 4.599-.364 4.979-.062.151-.19.266-.348.311-.157.045-.327.015-.458-.082l-.123-.092-3.218-2.526c-.34-.284-.754-.435-1.181-.435-.541 0-1.05.235-1.396.646-.316.373-.467.846-.425 1.33.041.488.267.928.639 1.24l5.534 4.681.12.145c1.033 1.829 2.16 2.917 2.84 3.464zm7.228-5.898c-.295 0-.533-.239-.533-.533v-3.993c0-.295.238-.533.533-.533.294 0 .533.238.533.533v3.993c0 .294-.24.533-.533.533zm-3.412 0c-.294 0-.534-.239-.534-.533v-3.993c0-.295.239-.533.534-.533.294 0 .533.238.533.533v3.993c.001.294-.239.533-.533.533z"/></svg>