<svg xmlns="http://www.w3.org/2000/svg" width="32" height="32" viewBox="0 0 32 32"><path fill="#fff" d="M31.951 29.691h-31.902v-27.382h31.902v27.382zm-21.042-.927h20.114v-12.487h-20.114v12.487zm-9.932 0h9.005v-12.487h-9.005v12.487zm0-13.414h30.047v-6.218h-30.047v6.218zm0-7.145h30.047v-4.969h-30.047v4.969zm2.743-1.553c-.502 0-.911-.408-.911-.91 0-.503.408-.91.911-.91s.91.407.91.91c0 .502-.408.91-.91.91zm4.167-.91c0-.503-.408-.91-.91-.91-.503 0-.911.407-.911.91 0 .502.408.91.911.91.502 0 .91-.408.91-.91zm3.258 0c0-.503-.408-.91-.911-.91-.502 0-.91.407-.91.91 0 .502.408.91.91.91s.911-.408.911-.91zm15.873 12.561h-14.162v.972h14.161v-.972zm0 4.16h-14.162v.972h14.161v-.972zm-3.099-2.079h-11.063v.972h11.062v-.972zm0 4.16h-11.063v.972h11.062v-.972z"/></svg>