<?xml version="1.0" encoding="utf-8"?>
<!-- Generator: Adobe Illustrator 16.0.4, SVG Export Plug-In . SVG Version: 6.00 Build 0)  -->
<!DOCTYPE svg PUBLIC "-//W3C//DTD SVG 1.1//EN" "http://www.w3.org/Graphics/SVG/1.1/DTD/svg11.dtd">
<svg version="1.1" id="Layer_1" xmlns="http://www.w3.org/2000/svg" xmlns:xlink="http://www.w3.org/1999/xlink" x="0px" y="0px"
	 width="200px" height="200px" viewBox="0 0 200 200" enable-background="new 0 0 200 200" xml:space="preserve">
<path fill="#F0F0F0" d="M20.001,100c0,44.183,35.816,80,79.999,80V20C55.817,20,20.001,55.817,20.001,100z"/>
<path fill="#E8E9EA" d="M179.999,100c0-44.183-35.818-80-79.999-80v160C144.181,180,179.999,144.183,179.999,100z"/>
<g>
	<g>
		<path fill="#ABAEB7" d="M34.537,113.646c-0.421,0-0.762-0.344-0.762-0.763V31.108c0-0.421,0.341-0.763,0.762-0.763h130.927
			c0.421,0,0.763,0.342,0.763,0.763v81.776c0,0.42-0.342,0.762-0.763,0.762L34.537,113.646L34.537,113.646z"/>
		<path fill="#656871" d="M165.464,30.345c0.421,0,0.763,0.341,0.763,0.762v81.776c0,0.419-0.342,0.763-0.763,0.763H34.537
			c-0.421,0-0.762-0.344-0.762-0.763V31.108c0-0.421,0.341-0.763,0.762-0.763L165.464,30.345 M165.464,25.094H34.537
			c-3.315,0-6.012,2.698-6.012,6.013v81.776c0,3.316,2.697,6.013,6.012,6.013h130.927c3.315,0,6.013-2.696,6.013-6.013V31.108
			C171.477,27.793,168.779,25.094,165.464,25.094L165.464,25.094z"/>
	</g>
	<g>
		<path fill="#888B94" d="M165.464,30.345h-17.201v83.301h17.201c0.421,0,0.763-0.344,0.763-0.763V31.108
			C166.227,30.686,165.885,30.345,165.464,30.345z"/>
	</g>
	<rect x="44.072" y="30.345" fill="#23A4F3" width="110.015" height="10.509"/>
	<rect x="99.081" y="30.345" fill="#1F93DA" width="55.008" height="10.509"/>
	<rect x="99.081" y="40.854" fill="#E8E9EA" width="55.008" height="72.792"/>
	<rect x="45.079" y="40.854" fill="#FFFFFF" width="54.335" height="72.792"/>
	<rect x="63.191" y="69.492" fill="#9ED639" width="9.467" height="20.642"/>
	<rect x="77.351" y="60.067" fill="#FAAF44" width="9.466" height="30.066"/>
	<path fill="#656871" d="M44.072,118.84c-1.449,0-2.625-1.176-2.625-2.626v-86.57c0-1.449,1.176-2.625,2.625-2.625
		c1.449,0,2.625,1.176,2.625,2.625v86.57C46.697,117.665,45.522,118.84,44.072,118.84z"/>
	<path fill="#656871" d="M155.772,118.84c-1.45,0-2.625-1.176-2.625-2.626v-86.57c0-1.449,1.175-2.625,2.625-2.625
		c1.449,0,2.625,1.176,2.625,2.625v86.57C158.397,117.665,157.222,118.84,155.772,118.84z"/>
	<path fill="#9ED639" d="M106.672,90.157c-0.437,0-0.88-0.109-1.287-0.338c-1.264-0.712-1.707-2.313-0.997-3.577l10.032-17.776
		c0.345-0.609,0.916-1.056,1.593-1.24c0.677-0.188,1.395-0.095,2.003,0.256l10.489,6.037l12.048-13.034
		c0.984-1.064,2.644-1.128,3.708-0.146c1.066,0.984,1.13,2.646,0.146,3.709l-13.469,14.571c-0.83,0.901-2.175,1.108-3.236,0.493
		l-10.012-5.76l-8.729,15.471C108.479,89.677,107.588,90.157,106.672,90.157z"/>
	<path fill="#FAAF44" d="M127.877,87.028c-0.579,0-1.157-0.192-1.633-0.571l-8.591-6.824l-10.512,1.902
		c-1.426,0.267-2.793-0.688-3.05-2.114c-0.258-1.427,0.688-2.793,2.113-3.051l11.682-2.115c0.741-0.137,1.509,0.058,2.103,0.527
		l8.062,6.406l11.965-7.558c1.227-0.772,2.847-0.408,3.622,0.818c0.775,1.228,0.409,2.848-0.817,3.623l-13.542,8.552
		C128.849,86.893,128.363,87.028,127.877,87.028z"/>
</g>
<g>
	<g>
		<path fill="#D8D8D8" d="M70.409,128.878c0-0.217,0.113-0.394,0.25-0.394h10c0.137,0,0.249,0.177,0.249,0.394v43.438
			c0,0.216-0.112,0.394-0.249,0.394h-10c-0.137,0-0.25-0.178-0.25-0.394V128.878z"/>
		<path fill="#656871" d="M80.659,128.484c0.137,0,0.249,0.177,0.249,0.394v43.438c0,0.216-0.112,0.394-0.249,0.394h-10
			c-0.137,0-0.25-0.178-0.25-0.394v-43.438c0-0.217,0.113-0.394,0.25-0.394H80.659 M80.659,123.234h-10
			c-3.034,0-5.5,2.531-5.5,5.644v43.438c0,3.111,2.467,5.644,5.5,5.644h10c3.033,0,5.499-2.532,5.499-5.644v-43.438
			C86.159,125.766,83.691,123.234,80.659,123.234L80.659,123.234z"/>
	</g>
	<g>
		<circle fill="#656871" cx="75.657" cy="150.598" r="12.699"/>
		<path fill="#656871" d="M75.657,138.953c6.432,0,11.645,5.214,11.645,11.645s-5.213,11.644-11.645,11.644
			c-6.429,0-11.644-5.213-11.644-11.644S69.228,138.953,75.657,138.953 M75.657,133.703c-9.316,0-16.894,7.577-16.894,16.895
			c0,9.314,7.578,16.894,16.894,16.894s16.895-7.579,16.895-16.894C92.552,141.28,84.973,133.703,75.657,133.703L75.657,133.703z"/>
	</g>
	<rect x="69.11" y="148.163" fill="#9ED639" width="5.25" height="8.296"/>
	<rect x="76.963" y="144.375" fill="#FAAF44" width="5.25" height="12.084"/>
</g>
<g>
	<path fill="#FFFFFF" d="M106.731,98.891c0-0.218,0.175-0.394,0.393-0.394h36.31c0.218,0,0.393,0.176,0.393,0.394v74.937
		c0,0.218-0.175,0.394-0.393,0.394h-36.31c-0.218,0-0.393-0.176-0.393-0.394V98.891L106.731,98.891z"/>
	<path fill="#656871" d="M143.434,98.498c0.216,0,0.393,0.176,0.393,0.394v74.937c0,0.218-0.177,0.394-0.393,0.394h-36.31
		c-0.218,0-0.393-0.176-0.393-0.394V98.891c0-0.218,0.175-0.394,0.393-0.394H143.434 M143.434,93.248h-36.31
		c-3.112,0-5.643,2.532-5.643,5.644v74.937c0,3.112,2.53,5.644,5.643,5.644h36.31c3.112,0,5.643-2.531,5.643-5.644V98.891
		C149.076,95.779,146.546,93.248,143.434,93.248L143.434,93.248z"/>
	<path fill="#D8D8D8" d="M106.731,165.235v8.449c0,0.298,0.175,0.537,0.393,0.537h36.31c0.218,0,0.393-0.242,0.393-0.537v-8.449
		H106.731z"/>
	<rect x="125.3" y="118.492" fill="#E8E9EA" width="18.548" height="49.365"/>
	<path fill="#656871" d="M143.826,167.86h-37.095c-1.448,0-2.625-1.177-2.625-2.625c0-1.449,1.177-2.625,2.625-2.625h37.095
		c1.449,0,2.625,1.176,2.625,2.625C146.451,166.684,145.275,167.86,143.826,167.86z"/>
	<rect x="106.688" y="110.051" fill="#23A4F3" width="37.182" height="8.442"/>
	<rect x="125.279" y="110.051" fill="#1F93DA" width="18.591" height="8.442"/>
	<rect x="113.486" y="136.739" fill="#9ED639" width="9.466" height="16.619"/>
	<rect x="127.647" y="129.151" fill="#FAAF44" width="9.465" height="24.206"/>
	<path fill="#656871" d="M143.826,110.109h-37.095c-1.448,0-2.625-1.177-2.625-2.625c0-1.45,1.177-2.625,2.625-2.625h37.095
		c1.449,0,2.625,1.175,2.625,2.625C146.451,108.933,145.275,110.109,143.826,110.109z"/>
</g>
</svg>
