<?xml version="1.0" encoding="utf-8"?>
<!-- Generator: Adobe Illustrator 16.0.0, SVG Export Plug-In . SVG Version: 6.00 Build 0)  -->
<!DOCTYPE svg PUBLIC "-//W3C//DTD SVG 1.1//EN" "http://www.w3.org/Graphics/SVG/1.1/DTD/svg11.dtd">
<svg version="1.1" id="Layer_1" xmlns="http://www.w3.org/2000/svg" xmlns:xlink="http://www.w3.org/1999/xlink" x="0px" y="0px"
	 width="32px" height="32px" viewBox="0 0 32 32" enable-background="new 0 0 32 32" xml:space="preserve">
<path fill="#FFFFFF" d="M28.432,30.553H3.584c-1.495,0-2.629-0.533-3.195-1.5c-0.566-0.967-0.475-2.219,0.257-3.521L13.042,3.476
	c0.735-1.309,1.748-2.029,2.851-2.029c1.097,0,2.11,0.714,2.849,2.011L31.34,25.545c0.741,1.299,0.841,2.545,0.279,3.512
	C31.06,30.021,29.927,30.553,28.432,30.553z M15.893,2.339c-0.766,0-1.503,0.559-2.074,1.574L1.424,25.969
	c-0.57,1.016-0.665,1.951-0.265,2.633c0.4,0.684,1.261,1.059,2.425,1.059h24.847c1.163,0,2.021-0.373,2.416-1.053
	c0.395-0.678,0.294-1.609-0.282-2.621L17.968,3.9C17.394,2.893,16.656,2.339,15.893,2.339z M15.473,21.221l-0.498-10.627h2.067
	l-0.498,10.627H15.473z M16.008,22.809c-0.678,0-1.228,0.549-1.228,1.227s0.55,1.227,1.228,1.227s1.228-0.549,1.228-1.227
	S16.686,22.809,16.008,22.809z"/>
</svg>
