<?xml version="1.0" encoding="utf-8"?>
<!-- Generator: Adobe Illustrator 16.0.4, SVG Export Plug-In . SVG Version: 6.00 Build 0)  -->
<!DOCTYPE svg PUBLIC "-//W3C//DTD SVG 1.1//EN" "http://www.w3.org/Graphics/SVG/1.1/DTD/svg11.dtd">
<svg version="1.1" id="Layer_1" xmlns="http://www.w3.org/2000/svg" xmlns:xlink="http://www.w3.org/1999/xlink" x="0px" y="0px"
	 width="32px" height="32px" viewBox="0 0 32 32" enable-background="new 0 0 32 32" xml:space="preserve">
<path fill="#FFFFFF" d="M30.951,3.309v25.382H1.049V3.309H30.951 M31.951,2.309H0.049v27.382h31.902V2.309L31.951,2.309z
	 M10.111,8.043h1.504l5.383,14.148h-1.425l-1.642-4.452H7.776l-1.662,4.452H4.769L10.111,8.043z M13.535,16.65l-1.939-5.283
	c-0.08-0.198-0.162-0.416-0.248-0.653c-0.086-0.237-0.162-0.461-0.228-0.673c-0.079-0.237-0.158-0.481-0.237-0.732h-0.04
	l-0.238,0.712c-0.066,0.211-0.138,0.435-0.217,0.673c-0.08,0.237-0.159,0.462-0.238,0.672L8.172,16.65H13.535z M20.955,22.429
	c-0.475,0-0.918-0.06-1.326-0.178c-0.408-0.119-0.762-0.297-1.059-0.534s-0.531-0.534-0.703-0.891
	c-0.17-0.356-0.256-0.771-0.256-1.247c0-0.606,0.111-1.101,0.336-1.483s0.527-0.689,0.91-0.92c0.383-0.231,0.828-0.406,1.336-0.525
	c0.508-0.118,1.051-0.21,1.633-0.277c0.5-0.052,0.926-0.108,1.275-0.168s0.633-0.135,0.852-0.228
	c0.217-0.092,0.375-0.214,0.475-0.366c0.1-0.151,0.148-0.359,0.148-0.623v-0.198c0-0.699-0.211-1.217-0.633-1.553
	s-1.029-0.504-1.82-0.504c-1.82,0-2.777,0.759-2.869,2.275h-1.207c0.064-0.989,0.432-1.781,1.098-2.375s1.658-0.891,2.979-0.891
	c1.121,0,2.004,0.248,2.65,0.742s0.971,1.303,0.971,2.424v5.56c0,0.304,0.055,0.524,0.168,0.663
	c0.111,0.139,0.279,0.215,0.504,0.228c0.066,0,0.135-0.007,0.209-0.02c0.072-0.014,0.154-0.033,0.246-0.06h0.061v0.891
	c-0.094,0.039-0.205,0.075-0.338,0.108c-0.131,0.033-0.297,0.05-0.494,0.05c-0.449,0-0.805-0.116-1.068-0.347
	s-0.408-0.597-0.436-1.098v-0.218h-0.059c-0.146,0.197-0.32,0.402-0.525,0.613s-0.451,0.402-0.742,0.574
	c-0.289,0.171-0.627,0.31-1.008,0.415C21.879,22.376,21.443,22.429,20.955,22.429z M21.172,21.439c0.555,0,1.047-0.089,1.475-0.268
	c0.43-0.178,0.789-0.405,1.078-0.683c0.291-0.276,0.508-0.59,0.654-0.939c0.145-0.35,0.217-0.702,0.217-1.059V16.65
	c-0.33,0.186-0.729,0.326-1.197,0.426s-0.953,0.182-1.453,0.247c-0.436,0.066-0.838,0.136-1.207,0.208
	c-0.371,0.072-0.689,0.188-0.961,0.347c-0.27,0.158-0.484,0.373-0.643,0.643c-0.158,0.271-0.238,0.624-0.238,1.059
	c0,0.356,0.062,0.653,0.189,0.891c0.125,0.237,0.289,0.429,0.494,0.574c0.203,0.146,0.445,0.247,0.723,0.307
	C20.578,21.41,20.869,21.439,21.172,21.439z"/>
</svg>
