<?xml version="1.0" encoding="utf-8"?>
<!-- Generator: Adobe Illustrator 16.0.4, SVG Export Plug-In . SVG Version: 6.00 Build 0)  -->
<!DOCTYPE svg PUBLIC "-//W3C//DTD SVG 1.1//EN" "http://www.w3.org/Graphics/SVG/1.1/DTD/svg11.dtd">
<svg version="1.1" id="Layer_1" xmlns="http://www.w3.org/2000/svg" xmlns:xlink="http://www.w3.org/1999/xlink" x="0px" y="0px"
	 width="200px" height="200px" viewBox="0 0 200 200" enable-background="new 0 0 200 200" xml:space="preserve">
<g>
	<path fill="#F0F0F0" d="M20.001,100c0,44.181,35.816,80,79.999,80V20C55.817,20.001,20.001,55.819,20.001,100z"/>
	<path fill="#E8E9EA" d="M179.999,100c0-44.181-35.818-80-79.999-80v160C144.181,180,179.999,144.181,179.999,100z"/>
</g>
<g opacity="0.3">
	<path fill="#D8D8D8" d="M37.704,100c0,34.404,27.891,62.299,62.296,62.299V37.701C65.595,37.703,37.704,65.596,37.704,100z"/>
	<path fill="#BDBDBD" d="M162.296,100c0-34.404-27.894-62.299-62.296-62.299v124.598C134.402,162.299,162.296,134.404,162.296,100z"
		/>
</g>
<g>
	<g>
		<defs>
			<circle id="SVGID_1_" cx="100" cy="100" r="80"/>
		</defs>
		<clipPath id="SVGID_2_">
			<use xlink:href="#SVGID_1_"  overflow="visible"/>
		</clipPath>
		<g clip-path="url(#SVGID_2_)">
			<path fill="#E4882B" d="M129.14,91.842c0-16.091-13.046-29.133-29.14-29.133c-16.093,0-29.14,13.044-29.14,29.133
				c0,0.601,0.026,1.195,0.061,1.787c-0.037,0.16-0.061,0.327-0.061,0.498v49.487c0,1.264,1.06,2.285,2.363,2.285h53.555
				c1.305,0,2.362-1.021,2.362-2.285V94.126c0-0.17-0.024-0.337-0.06-0.498C129.114,93.037,129.14,92.443,129.14,91.842z"/>
			<path fill="#50535A" d="M100,62.708c16.094,0,29.14,13.044,29.14,29.133c0,0.601-0.025,1.195-0.062,1.787
				c0.038,0.16,0.062,0.327,0.062,0.498v49.487c0,1.264-1.059,2.285-2.363,2.285H73.223c-1.303,0-2.363-1.021-2.363-2.285V94.126
				c0-0.17,0.024-0.337,0.061-0.498c-0.035-0.592-0.061-1.186-0.061-1.787C70.86,75.751,83.907,62.708,100,62.708 M100,57.458
				c-18.962,0-34.39,15.423-34.39,34.383c0,0.479,0.012,0.967,0.04,1.534c-0.026,0.25-0.04,0.501-0.04,0.75v49.487
				c0,4.155,3.415,7.535,7.613,7.535h53.555c4.197,0,7.612-3.38,7.612-7.535V94.126c0-0.248-0.014-0.499-0.039-0.75
				c0.028-0.567,0.039-1.056,0.039-1.534C134.39,72.882,118.963,57.458,100,57.458L100,57.458z"/>
		</g>
	</g>
	<g>
		<defs>
			<circle id="SVGID_3_" cx="100" cy="100" r="80"/>
		</defs>
		<clipPath id="SVGID_4_">
			<use xlink:href="#SVGID_3_"  overflow="visible"/>
		</clipPath>
		<g clip-path="url(#SVGID_4_)">
			<path fill="#E79B42" d="M129.14,91.842c0-16.091-13.046-29.133-29.14-29.133V145.9h26.776c1.305,0,2.363-1.023,2.363-2.284
				v-49.49c0-0.17-0.023-0.337-0.062-0.498C129.114,93.037,129.14,92.443,129.14,91.842z"/>
			<path fill="#FAAF44" d="M70.86,91.842c0,0.601,0.026,1.195,0.061,1.787c-0.037,0.16-0.061,0.327-0.061,0.498v49.487
				c0,1.264,1.06,2.285,2.363,2.285H100v-83.19C83.907,62.708,70.86,75.751,70.86,91.842z"/>
		</g>
	</g>
	<g>
		<defs>
			<circle id="SVGID_5_" cx="100" cy="100" r="80"/>
		</defs>
		<clipPath id="SVGID_6_">
			<use xlink:href="#SVGID_5_"  overflow="visible"/>
		</clipPath>
		<g clip-path="url(#SVGID_6_)">
			<path fill="#69B5DD" d="M150.658,228.433v-64.688c0-9.731-7.893-17.619-17.621-17.619H66.964c-9.73,0-17.621,7.888-17.621,17.619
				v64.688H150.658z"/>
			<path fill="#50535A" d="M133.037,146.126c9.729,0,17.621,7.888,17.621,17.619v64.688H49.343v-64.688
				c0-9.731,7.891-17.619,17.621-17.619H133.037 M133.037,140.875H66.964c-12.611,0-22.871,10.259-22.871,22.87v64.688
				c0,2.899,2.351,5.25,5.25,5.25h101.312c2.899,0,5.25-2.351,5.25-5.25v-64.688C155.908,151.134,145.646,140.875,133.037,140.875
				L133.037,140.875z"/>
		</g>
	</g>
	<g>
		<defs>
			<circle id="SVGID_7_" cx="100" cy="100" r="80"/>
		</defs>
		<clipPath id="SVGID_8_">
			<use xlink:href="#SVGID_7_"  overflow="visible"/>
		</clipPath>
		<g clip-path="url(#SVGID_8_)">
			<g>
				<path fill="#9ED639" d="M66.964,146.126c-9.73,0-17.621,7.888-17.621,17.619v64.688H100v-82.307H66.964z"/>
			</g>
			<path fill="#8EC033" d="M150.658,163.742c0-9.729-7.893-17.619-17.621-17.619H100v82.31h50.658V163.742z"/>
		</g>
	</g>
	<g>
		<defs>
			<circle id="SVGID_9_" cx="100" cy="100" r="80"/>
		</defs>
		<clipPath id="SVGID_10_">
			<use xlink:href="#SVGID_9_"  overflow="visible"/>
		</clipPath>
		<g clip-path="url(#SVGID_10_)">
			<path fill="#E4882B" d="M91.742,144.673c0,4.561,3.696,8.256,8.258,8.256c4.561,0,8.259-3.695,8.259-8.256
				c0-0.17-0.008-0.339-0.02-0.506c0.012-0.046,0.02-0.092,0.02-0.141v-16.592c0-0.357-0.302-0.647-0.671-0.647H92.411
				c-0.369,0-0.669,0.29-0.669,0.647v16.592c0,0.049,0.008,0.095,0.017,0.141C91.75,144.334,91.742,144.503,91.742,144.673z"/>
			<path fill="#50535A" d="M107.588,126.787c0.369,0,0.671,0.29,0.671,0.647v16.592c0,0.049-0.008,0.095-0.02,0.141
				c0.012,0.167,0.02,0.336,0.02,0.506c0,4.561-3.698,8.256-8.259,8.256c-4.562,0-8.258-3.695-8.258-8.256
				c0-0.17,0.008-0.339,0.017-0.506c-0.009-0.046-0.017-0.092-0.017-0.141v-16.592c0-0.357,0.3-0.647,0.669-0.647H107.588
				 M107.588,121.537H92.411c-3.264,0-5.919,2.646-5.919,5.897v16.592c0,0.09,0.001,0.179,0.006,0.269
				c-0.004,0.126-0.006,0.252-0.006,0.378c0,7.447,6.06,13.507,13.508,13.507s13.509-6.06,13.509-13.507
				c0-0.126-0.003-0.249-0.007-0.376c0.004-0.089,0.007-0.181,0.007-0.271v-16.592C113.509,124.183,110.854,121.537,107.588,121.537
				L107.588,121.537z"/>
		</g>
	</g>
	<g>
		<defs>
			<circle id="SVGID_11_" cx="100" cy="100" r="80"/>
		</defs>
		<clipPath id="SVGID_12_">
			<use xlink:href="#SVGID_11_"  overflow="visible"/>
		</clipPath>
		<g clip-path="url(#SVGID_12_)">
			<path fill="#FEE55B" d="M91.742,144.673c0,4.561,3.696,8.256,8.258,8.256v-26.142h-7.589c-0.369,0-0.669,0.29-0.669,0.647v16.592
				c0,0.049,0.008,0.095,0.017,0.141C91.75,144.334,91.742,144.503,91.742,144.673z"/>
			<path fill="#E1B62A" d="M108.259,144.673c0-0.17-0.008-0.339-0.02-0.506c0.012-0.046,0.02-0.092,0.02-0.141v-16.592
				c0-0.357-0.302-0.647-0.671-0.647H100v26.142C104.561,152.929,108.259,149.233,108.259,144.673z"/>
		</g>
	</g>
	<g>
		<defs>
			<circle id="SVGID_13_" cx="100" cy="100" r="80"/>
		</defs>
		<clipPath id="SVGID_14_">
			<use xlink:href="#SVGID_13_"  overflow="visible"/>
		</clipPath>
		<g clip-path="url(#SVGID_14_)">
			<path fill="#E4882B" d="M80.822,110.472c0,10.589,8.586,19.174,19.178,19.174c10.59,0,19.178-8.585,19.178-19.174
				c0-0.396-0.018-0.788-0.04-1.175c0.024-0.107,0.04-0.216,0.04-0.328V92.507c0-0.832-0.696-1.505-1.555-1.505H82.375
				c-0.857,0-1.555,0.675-1.555,1.505v16.462c0,0.112,0.017,0.221,0.041,0.328C80.837,109.685,80.822,110.077,80.822,110.472z"/>
			<path fill="#50535A" d="M117.624,91.001c0.857,0,1.554,0.675,1.554,1.505v16.462c0,0.112-0.016,0.221-0.038,0.328
				c0.022,0.388,0.038,0.78,0.038,1.175c0,10.589-8.585,19.174-19.176,19.174c-10.592,0-19.179-8.585-19.179-19.174
				c0-0.396,0.017-0.788,0.041-1.175c-0.025-0.107-0.041-0.216-0.041-0.328V92.507c0-0.832,0.697-1.505,1.556-1.505H117.624
				 M117.624,85.751H82.375c-3.752,0-6.805,3.031-6.805,6.755v16.462c0,0.181,0.008,0.357,0.021,0.538
				c-0.014,0.341-0.021,0.66-0.021,0.965c0,13.469,10.959,24.425,24.428,24.425c13.47,0,24.427-10.957,24.427-24.425
				c0-0.305-0.008-0.62-0.022-0.965c0.015-0.181,0.022-0.357,0.022-0.538V92.507C124.428,88.782,121.376,85.751,117.624,85.751
				L117.624,85.751z"/>
		</g>
	</g>
	<g>
		<defs>
			<circle id="SVGID_15_" cx="100" cy="100" r="80"/>
		</defs>
		<clipPath id="SVGID_16_">
			<use xlink:href="#SVGID_15_"  overflow="visible"/>
		</clipPath>
		<g clip-path="url(#SVGID_16_)">
			<path fill="#FEE55B" d="M80.822,110.472c0,10.589,8.586,19.174,19.178,19.174V91.001H82.375c-0.857,0-1.555,0.675-1.555,1.505
				v16.462c0,0.112,0.017,0.221,0.041,0.328C80.837,109.685,80.822,110.077,80.822,110.472z"/>
			<path fill="#E1B62A" d="M119.178,110.472c0-0.396-0.018-0.788-0.04-1.175c0.024-0.107,0.04-0.216,0.04-0.328V92.507
				c0-0.832-0.696-1.505-1.555-1.505H100v38.646C110.59,129.647,119.178,121.062,119.178,110.472z"/>
		</g>
	</g>
</g>
</svg>
