<?xml version="1.0" encoding="utf-8"?>
<!-- Generator: Adobe Illustrator 16.0.0, SVG Export Plug-In . SVG Version: 6.00 Build 0)  -->
<!DOCTYPE svg PUBLIC "-//W3C//DTD SVG 1.1//EN" "http://www.w3.org/Graphics/SVG/1.1/DTD/svg11.dtd">
<svg version="1.1" id="Layer_1" xmlns="http://www.w3.org/2000/svg" xmlns:xlink="http://www.w3.org/1999/xlink" x="0px" y="0px"
	 width="32px" height="32px" viewBox="0 0 32 32" enable-background="new 0 0 32 32" xml:space="preserve">
<g>
	<path fill="#FFFFFF" d="M32,29.873H0V2.127h32V29.873z M22.271,28.834h8.688V14.003l-4.185-5.63l-9.857,13.26L22.271,28.834z
		 M1.686,28.834h19.292l-9.646-12.976L1.686,28.834z M1.039,3.166v24.795l10.292-13.844l4.939,6.645l10.504-14.13l4.185,5.63V3.166
		H1.039z M7.458,12.066c-1.571,0-2.85-1.279-2.85-2.851c0-1.572,1.279-2.851,2.85-2.851s2.85,1.279,2.85,2.851
		C10.308,10.787,9.029,12.066,7.458,12.066z M7.458,7.405c-0.999,0-1.811,0.812-1.811,1.811c0,0.999,0.812,1.812,1.811,1.812
		s1.811-0.812,1.811-1.812C9.269,8.217,8.456,7.405,7.458,7.405z"/>
</g>
</svg>
