<?xml version="1.0" encoding="utf-8"?>
<!-- Generator: Adobe Illustrator 18.1.1, SVG Export Plug-In . SVG Version: 6.00 Build 0)  -->
<!DOCTYPE svg PUBLIC "-//W3C//DTD SVG 1.1//EN" "http://www.w3.org/Graphics/SVG/1.1/DTD/svg11.dtd">
<svg version="1.1" id="Layer_1" xmlns="http://www.w3.org/2000/svg" xmlns:xlink="http://www.w3.org/1999/xlink" x="0px" y="0px"
	 viewBox="0 18 17.6 7.4" enable-background="new 0 18 17.6 7.4" xml:space="preserve">
<g>
	<polygon fill="#00A24E" points="6.1,23 5.5,23.6 5.5,25 6.9,25 7.5,24.4 6.5,24.4 12.9,18 12.1,18 6.1,24 	"/>
	<polygon fill="#00A24E" points="16.8,25.4 17.6,24.6 17.6,22.9 15.2,25.4 	"/>
	<polygon fill="#00A24E" points="17.6,20 17.6,19.1 11.4,25.4 12.2,25.4 	"/>
	<polygon fill="#00A24E" points="5.8,22.2 7,21 6.9,21 9.9,18 8.3,18 5.3,21 5,21 8,18 6.3,18 4.1,20.2 4.1,18.2 2.9,19.4 2.9,22.2 
		4.1,22.2 1.2,25.1 1.2,23.1 0,24.3 0,25.4 2.6,25.4 5.7,22.2 	"/>
</g>
<polygon fill="#008947" points="13.6,18 6.2,25.4 9.6,25.4 17,18 "/>
</svg>
