<?xml version="1.0" encoding="utf-8"?>
<!-- Generator: Adobe Illustrator 18.1.1, SVG Export Plug-In . SVG Version: 6.00 Build 0)  -->
<!DOCTYPE svg PUBLIC "-//W3C//DTD SVG 1.1//EN" "http://www.w3.org/Graphics/SVG/1.1/DTD/svg11.dtd">
<svg version="1.1" id="Layer_1" xmlns="http://www.w3.org/2000/svg" xmlns:xlink="http://www.w3.org/1999/xlink" x="0px" y="0px"
	 viewBox="0 0 18 18" enable-background="new 0 0 18 18" xml:space="preserve">
<g id="XMLID_132_">
	<g id="XMLID_146_">
		<g>
			<path id="XMLID_147_" fill="#FFFFFF" d="M13.5,2h-9C3.1,2,2,3.1,2,4.5v9C2,14.9,3.1,16,4.5,16h9c1.4,0,2.5-1.1,2.5-2.5v-9
				C16,3.1,14.9,2,13.5,2 M14,4.5v9c0,0.3-0.2,0.5-0.5,0.5h-9C4.2,14,4,13.8,4,13.5v-9C4,4.2,4.2,4,4.5,4c2,0,7,0,9,0
				C13.8,4,14,4.3,14,4.5"/>
		</g>
	</g>
	<path id="XMLID_145_" fill="#FFFFFF" d="M11.4,12H6.6C6.2,12,6,11.8,6,11.4V6.6C6,6.2,6.2,6,6.6,6h4.8C11.8,6,12,6.2,12,6.6v4.8
		C12,11.8,11.8,12,11.4,12z"/>
	<path id="XMLID_144_" fill="#FFFFFF" d="M17.4,6h-2.8C14.3,6,14,5.8,14,5.4V4.6C14,4.3,14.3,4,14.6,4h2.8C17.7,4,18,4.3,18,4.6v0.8
		C18,5.8,17.7,6,17.4,6z"/>
	<path id="XMLID_143_" fill="#FFFFFF" d="M17.4,10h-2.8C14.3,10,14,9.8,14,9.4V8.6C14,8.3,14.3,8,14.6,8h2.8C17.7,8,18,8.3,18,8.6
		v0.8C18,9.7,17.7,10,17.4,10z"/>
	<path id="XMLID_142_" fill="#FFFFFF" d="M17.4,14h-2.8c-0.3,0-0.6-0.2-0.6-0.6v-0.8c0-0.3,0.3-0.6,0.6-0.6h2.8
		c0.3,0,0.6,0.2,0.6,0.6v0.8C18,13.7,17.7,14,17.4,14z"/>
	<path id="XMLID_141_" fill="#FFFFFF" d="M5.4,3H4.6C4.3,3,4,2.8,4,2.4V0.6C4,0.3,4.3,0,4.6,0h0.8C5.7,0,6,0.2,6,0.6v1.8
		C6,2.8,5.8,3,5.4,3z"/>
	<path id="XMLID_140_" fill="#FFFFFF" d="M9.4,3H8.6C8.3,3,8,2.8,8,2.4V0.6C8,0.3,8.2,0,8.6,0h0.8C9.7,0,10,0.2,10,0.6v1.8
		C10,2.8,9.7,3,9.4,3z"/>
	<path id="XMLID_139_" fill="#FFFFFF" d="M13.4,3h-0.8C12.3,3,12,2.8,12,2.4V0.6C12,0.3,12.2,0,12.6,0h0.8C13.7,0,14,0.2,14,0.6v1.8
		C14,2.8,13.7,3,13.4,3z"/>
	<path id="XMLID_138_" fill="#FFFFFF" d="M13.4,18h-0.8c-0.3,0-0.6-0.3-0.6-0.6v-1.8c0-0.3,0.2-0.6,0.6-0.6h0.8
		c0.3,0,0.6,0.3,0.6,0.6v1.8C14,17.7,13.7,18,13.4,18z"/>
	<path id="XMLID_137_" fill="#FFFFFF" d="M9.4,18H8.6C8.3,18,8,17.7,8,17.4v-1.8C8,15.3,8.2,15,8.6,15h0.8c0.3,0,0.6,0.3,0.6,0.6
		v1.8C10,17.7,9.7,18,9.4,18z"/>
	<path id="XMLID_136_" fill="#FFFFFF" d="M5.4,18H4.6C4.3,18,4,17.7,4,17.4v-1.8C4,15.3,4.3,15,4.6,15h0.8C5.7,15,6,15.3,6,15.6v1.8
		C6,17.7,5.8,18,5.4,18z"/>
	<path id="XMLID_135_" fill="#FFFFFF" d="M2.4,6H0.6C0.3,6,0,5.8,0,5.4V4.6C0,4.3,0.2,4,0.6,4h1.8C2.7,4,3,4.3,3,4.6v0.8
		C3,5.8,2.8,6,2.4,6z"/>
	<path id="XMLID_134_" fill="#FFFFFF" d="M2.4,10H0.6C0.3,10,0,9.8,0,9.4V8.6C0,8.3,0.2,8,0.6,8h1.8C2.7,8,3,8.2,3,8.6v0.8
		C3,9.7,2.8,10,2.4,10z"/>
	<path id="XMLID_133_" fill="#FFFFFF" d="M2.4,14H0.6C0.3,14,0,13.8,0,13.4v-0.8C0,12.3,0.2,12,0.6,12h1.8C2.7,12,3,12.2,3,12.6v0.8
		C3,13.7,2.8,14,2.4,14z"/>
</g>
</svg>
