<?xml version="1.0" encoding="utf-8"?>
<!-- Generator: Adobe Illustrator 18.1.1, SVG Export Plug-In . SVG Version: 6.00 Build 0)  -->
<!DOCTYPE svg PUBLIC "-//W3C//DTD SVG 1.1//EN" "http://www.w3.org/Graphics/SVG/1.1/DTD/svg11.dtd">
<svg version="1.1" id="Layer_1" xmlns="http://www.w3.org/2000/svg" xmlns:xlink="http://www.w3.org/1999/xlink" x="0px" y="0px"
	 viewBox="0 0 18 18" enable-background="new 0 0 18 18" xml:space="preserve">
<circle id="XMLID_14_" fill="#FFFFFF" cx="9" cy="9" r="2.3"/>
<g id="XMLID_17_">
	<path fill="#FFFFFF" d="M9,14.1c-2.8,0-5.1-2.3-5.1-5.1c0-2.8,2.3-5.1,5.1-5.1s5.1,2.3,5.1,5.1C14.1,11.8,11.8,14.1,9,14.1z M9,4.8
		C6.7,4.8,4.8,6.7,4.8,9s1.9,4.2,4.2,4.2s4.2-1.9,4.2-4.2S11.3,4.8,9,4.8z"/>
	<path fill="#FFFFFF" d="M9,4.7c-0.2,0-0.4-0.2-0.4-0.4V0.4C8.6,0.2,8.8,0,9,0s0.4,0.2,0.4,0.4v3.9C9.4,4.5,9.2,4.7,9,4.7z"/>
	<path fill="#FFFFFF" d="M9,18c-0.2,0-0.4-0.2-0.4-0.4v-3.9c0-0.2,0.2-0.4,0.4-0.4s0.4,0.2,0.4,0.4v3.9C9.4,17.8,9.2,18,9,18z"/>
	<path fill="#FFFFFF" d="M4.3,9.4H0.4C0.2,9.4,0,9.2,0,9s0.2-0.4,0.4-0.4h3.9c0.2,0,0.4,0.2,0.4,0.4S4.5,9.4,4.3,9.4z"/>
	<path fill="#FFFFFF" d="M17.6,9.4h-3.9c-0.2,0-0.4-0.2-0.4-0.4s0.2-0.4,0.4-0.4h3.9C17.8,8.6,18,8.8,18,9S17.8,9.4,17.6,9.4z"/>
</g>
</svg>
