<?xml version="1.0" encoding="utf-8"?>
<!-- Generator: Adobe Illustrator 18.1.1, SVG Export Plug-In . SVG Version: 6.00 Build 0)  -->
<!DOCTYPE svg PUBLIC "-//W3C//DTD SVG 1.1//EN" "http://www.w3.org/Graphics/SVG/1.1/DTD/svg11.dtd">
<svg version="1.1" id="Layer_1" xmlns="http://www.w3.org/2000/svg" xmlns:xlink="http://www.w3.org/1999/xlink" x="0px" y="0px"
	 viewBox="-9 91 18 18" enable-background="new -9 91 18 18" xml:space="preserve">
<circle id="XMLID_14_" fill="#FFFFFF" cx="0" cy="100" r="2.3"/>
<g id="XMLID_17_">
	<path fill="#FFFFFF" d="M0,105.1c-2.8,0-5.1-2.3-5.1-5.1c0-2.8,2.3-5.1,5.1-5.1s5.1,2.3,5.1,5.1C5.1,102.8,2.8,105.1,0,105.1z
		 M0,95.8c-2.3,0-4.2,1.9-4.2,4.2s1.9,4.2,4.2,4.2s4.2-1.9,4.2-4.2S2.3,95.8,0,95.8z"/>
	<path fill="#FFFFFF" d="M0,95.7c-0.2,0-0.4-0.2-0.4-0.4v-3.9c0-0.2,0.2-0.4,0.4-0.4s0.4,0.2,0.4,0.4v3.9C0.4,95.5,0.2,95.7,0,95.7z
		"/>
	<path fill="#FFFFFF" d="M0,109c-0.2,0-0.4-0.2-0.4-0.4v-3.9c0-0.2,0.2-0.4,0.4-0.4s0.4,0.2,0.4,0.4v3.9C0.4,108.8,0.2,109,0,109z"
		/>
	<path fill="#FFFFFF" d="M-4.7,100.4h-3.9c-0.2,0-0.4-0.2-0.4-0.4s0.2-0.4,0.4-0.4h3.9c0.2,0,0.4,0.2,0.4,0.4S-4.5,100.4-4.7,100.4z
		"/>
	<path fill="#FFFFFF" d="M8.6,100.4H4.7c-0.2,0-0.4-0.2-0.4-0.4s0.2-0.4,0.4-0.4h3.9c0.2,0,0.4,0.2,0.4,0.4S8.8,100.4,8.6,100.4z"/>
</g>
</svg>
