<?xml version="1.0" encoding="utf-8"?>
<!-- Generator: Adobe Illustrator 18.1.1, SVG Export Plug-In . SVG Version: 6.00 Build 0)  -->
<!DOCTYPE svg PUBLIC "-//W3C//DTD SVG 1.1//EN" "http://www.w3.org/Graphics/SVG/1.1/DTD/svg11.dtd">
<svg version="1.1" id="Layer_1" xmlns="http://www.w3.org/2000/svg" xmlns:xlink="http://www.w3.org/1999/xlink" x="0px" y="0px"
	 viewBox="-9 91 18 18" enable-background="new -9 91 18 18" xml:space="preserve">
<g id="XMLID_132_">
	<g id="XMLID_146_">
		<g>
			<path id="XMLID_147_" fill="#FFFFFF" d="M4.5,93h-9C-5.9,93-7,94.1-7,95.5v9c0,1.4,1.1,2.5,2.5,2.5h9c1.4,0,2.5-1.1,2.5-2.5v-9
				C7,94.1,5.9,93,4.5,93 M5,95.5v9c0,0.3-0.2,0.5-0.5,0.5h-9c-0.3,0-0.5-0.2-0.5-0.5v-9c0-0.3,0.2-0.5,0.5-0.5c2,0,7,0,9,0
				C4.8,95,5,95.3,5,95.5"/>
		</g>
	</g>
	<path id="XMLID_145_" fill="#FFFFFF" d="M2.4,103h-4.8c-0.4,0-0.6-0.2-0.6-0.6v-4.8c0-0.4,0.2-0.6,0.6-0.6h4.8
		C2.8,97,3,97.2,3,97.6v4.8C3,102.8,2.8,103,2.4,103z"/>
	<path id="XMLID_144_" fill="#FFFFFF" d="M8.4,97H5.6C5.3,97,5,96.8,5,96.4v-0.8C5,95.3,5.3,95,5.6,95h2.8C8.7,95,9,95.3,9,95.6v0.8
		C9,96.8,8.7,97,8.4,97z"/>
	<path id="XMLID_143_" fill="#FFFFFF" d="M8.4,101H5.6c-0.3,0-0.6-0.2-0.6-0.6v-0.8C5,99.3,5.3,99,5.6,99h2.8C8.7,99,9,99.3,9,99.6
		v0.8C9,100.7,8.7,101,8.4,101z"/>
	<path id="XMLID_142_" fill="#FFFFFF" d="M8.4,105H5.6c-0.3,0-0.6-0.2-0.6-0.6v-0.8c0-0.3,0.3-0.6,0.6-0.6h2.8
		c0.3,0,0.6,0.2,0.6,0.6v0.8C9,104.7,8.7,105,8.4,105z"/>
	<path id="XMLID_141_" fill="#FFFFFF" d="M-3.6,94h-0.8C-4.7,94-5,93.8-5,93.4v-1.8c0-0.3,0.3-0.6,0.6-0.6h0.8
		c0.3,0,0.6,0.2,0.6,0.6v1.8C-3,93.8-3.2,94-3.6,94z"/>
	<path id="XMLID_140_" fill="#FFFFFF" d="M0.4,94h-0.8C-0.7,94-1,93.8-1,93.4v-1.8c0-0.3,0.2-0.6,0.6-0.6h0.8C0.7,91,1,91.2,1,91.6
		v1.8C1,93.8,0.7,94,0.4,94z"/>
	<path id="XMLID_139_" fill="#FFFFFF" d="M4.4,94H3.6C3.3,94,3,93.8,3,93.4v-1.8C3,91.3,3.2,91,3.6,91h0.8C4.7,91,5,91.2,5,91.6v1.8
		C5,93.8,4.7,94,4.4,94z"/>
	<path id="XMLID_138_" fill="#FFFFFF" d="M4.4,109H3.6c-0.3,0-0.6-0.3-0.6-0.6v-1.8c0-0.3,0.2-0.6,0.6-0.6h0.8
		c0.3,0,0.6,0.3,0.6,0.6v1.8C5,108.7,4.7,109,4.4,109z"/>
	<path id="XMLID_137_" fill="#FFFFFF" d="M0.4,109h-0.8c-0.3,0-0.6-0.3-0.6-0.6v-1.8c0-0.3,0.2-0.6,0.6-0.6h0.8
		c0.3,0,0.6,0.3,0.6,0.6v1.8C1,108.7,0.7,109,0.4,109z"/>
	<path id="XMLID_136_" fill="#FFFFFF" d="M-3.6,109h-0.8c-0.3,0-0.6-0.3-0.6-0.6v-1.8c0-0.3,0.3-0.6,0.6-0.6h0.8
		c0.3,0,0.6,0.3,0.6,0.6v1.8C-3,108.7-3.2,109-3.6,109z"/>
	<path id="XMLID_135_" fill="#FFFFFF" d="M-6.6,97h-1.8C-8.7,97-9,96.8-9,96.4v-0.8c0-0.3,0.2-0.6,0.6-0.6h1.8
		c0.3,0,0.6,0.3,0.6,0.6v0.8C-6,96.8-6.2,97-6.6,97z"/>
	<path id="XMLID_134_" fill="#FFFFFF" d="M-6.6,101h-1.8c-0.3,0-0.6-0.2-0.6-0.6v-0.8c0-0.3,0.2-0.6,0.6-0.6h1.8
		c0.3,0,0.6,0.2,0.6,0.6v0.8C-6,100.7-6.2,101-6.6,101z"/>
	<path id="XMLID_133_" fill="#FFFFFF" d="M-6.6,105h-1.8c-0.3,0-0.6-0.2-0.6-0.6v-0.8c0-0.3,0.2-0.6,0.6-0.6h1.8
		c0.3,0,0.6,0.2,0.6,0.6v0.8C-6,104.7-6.2,105-6.6,105z"/>
</g>
</svg>
