<svg width="14" height="14" viewBox="0 0 14 14" xmlns="http://www.w3.org/2000/svg" xmlns:xlink="http://www.w3.org/1999/xlink"><title>doesnt-contain</title><desc>Created with Sketch.</desc><defs><path id="a" d="M14 0h-14v12h14v-12z"/></defs><g transform="translate(0 1)" fill="none"><mask id="b"><use xlink:href="#a"/></mask><path d="M9.135.499l-6 10c-.277.478-.114 1.09.364 1.366.478.277 1.09.114 1.367-.363l5.999-10c.277-.478.114-1.09-.363-1.367-.478-.277-1.09-.114-1.367.364m3.865 3.501c-.552 0-1 .448-1 1v5c-.552 0-1 .448-1 1s.448 1 1 1h1.003c.551 0 .997-.446.997-.997v-6.003c0-.552-.448-1-1-1m-11-4h-1.003c-.551 0-.997.446-.997.997v6.003c0 .552.448 1 1 1s1-.448 1-1v-5c.552 0 1-.448 1-1s-.448-1-1-1" fill="#5C5C5C" mask="url(#b)"/></g></svg>