<svg width="14" height="14" viewBox="0 0 14 14" xmlns="http://www.w3.org/2000/svg"><title>in-between</title><desc>Created with Sketch.</desc><path d="M9.269 4h-1.269v-2c0-.553-.447-1-1-1-.553 0-1 .447-1 1v2h-1.269c-.604 0-.947.887-.579 1.361l2.268 3.329c.292.378.868.428 1.16.05l2.269-3.403c.367-.476.024-1.337-.58-1.337m2.741 7h-.02c-.547 0-.99.443-.99.99v.02c0 .547.443.99.99.99h.02c.547 0 .99-.443.99-.99v-.02c0-.547-.443-.99-.99-.99m-3 0h-.02c-.547 0-.99.443-.99.99v.02c0 .547.443.99.99.99h.02c.547 0 .99-.443.99-.99v-.02c0-.547-.443-.99-.99-.99m-4 0h-.02c-.547 0-.99.443-.99.99v.02c0 .547.443.99.99.99h.02c.547 0 .99-.443.99-.99v-.02c0-.547-.443-.99-.99-.99m-3 0h-.02c-.547 0-.99.443-.99.99v.02c0 .547.443.99.99.99h.02c.547 0 .99-.443.99-.99v-.02c0-.547-.443-.99-.99-.99" fill="#5C5C5C"/></svg>