<svg width="40" height="40" viewBox="0 0 40 40" xmlns="http://www.w3.org/2000/svg" xmlns:sketch="http://www.bohemiancoding.com/sketch/ns"><title>arrow left</title><desc>Created with Sketch.</desc><path d="M35.43 16.192h-24.596l8.565-8.349c1.008-.985 1.018-2.592.021-3.589-1-.998-2.625-1.005-3.639-.02l-13.017 12.692c-1.011.985-1.021 2.592-.023 3.589l12.857 12.85c.504.503 1.167.754 1.831.754.653 0 1.306-.244 1.808-.731 1.011-.985 1.021-2.592.023-3.589l-8.532-8.529h24.701c1.422 0 2.571-1.137 2.571-2.538 0-1.401-1.149-2.538-2.571-2.538" sketch:type="MSShapeGroup"/></svg>