<svg width="40" height="40" viewBox="0 0 40 40" xmlns="http://www.w3.org/2000/svg" xmlns:sketch="http://www.bohemiancoding.com/sketch/ns"><title>calendar</title><desc>Created with Sketch.</desc><path d="M33 6h-1v-2.02c0-1.094-.886-1.98-1.98-1.98h-.04c-1.094 0-1.98.886-1.98 1.98v2.02h-16v-2.02c0-1.094-.886-1.98-1.98-1.98h-.04c-1.094 0-1.98.886-1.98 1.98v2.02h-1c-2.756 0-5 2.244-5 5v22c0 2.756 2.244 5 5 5h26c2.756 0 5-2.244 5-5v-22c0-2.756-2.244-5-5-5zm1 27c0 .552-.448 1-1 1h-26c-.552 0-1-.448-1-1v-15h28v15z" sketch:type="MSShapeGroup"/></svg>