<svg width="40" height="40" viewBox="0 0 40 40" xmlns="http://www.w3.org/2000/svg" xmlns:sketch="http://www.bohemiancoding.com/sketch/ns"><title>clock</title><desc>Created with Sketch.</desc><g sketch:type="MSLayerGroup"><path d="M22 19.172v-5.172c0-1.106-.894-2-2-2-1.106 0-2 .894-2 2v6c0 .532.21 1.038.586 1.414l4 4c.39.39.902.586 1.414.586.512 0 1.024-.196 1.414-.586.782-.782.782-2.046 0-2.828l-3.414-3.414" sketch:type="MSShapeGroup"/><path d="M20 2c-9.926 0-18 8.074-18 18s8.074 18 18 18 18-8.074 18-18-8.074-18-18-18zm0 32c-7.718 0-14-6.282-14-14s6.282-14 14-14 14 6.282 14 14-6.282 14-14 14z" sketch:type="MSShapeGroup"/></g></svg>