<svg width="40" height="40" viewBox="0 0 40 40" xmlns="http://www.w3.org/2000/svg" xmlns:sketch="http://www.bohemiancoding.com/sketch/ns"><title>close</title><desc>Created with Sketch.</desc><path d="M23.637 20.001l13.611-13.611c1.005-1.005 1.005-2.631 0-3.636-1.005-1.005-2.631-1.005-3.636 0l-13.611 13.611-13.611-13.611c-1.005-1.005-2.631-1.005-3.636 0-1.005 1.005-1.005 2.631 0 3.636l13.611 13.611-13.611 13.611c-1.005 1.005-1.005 2.631 0 3.636.501.501 1.16.753 1.818.753.658 0 1.317-.252 1.818-.753l13.611-13.611 13.611 13.611c.501.501 1.16.753 1.818.753.658 0 1.317-.252 1.818-.753 1.005-1.005 1.005-2.631 0-3.636l-13.611-13.611" sketch:type="MSShapeGroup"/></svg>