<svg width="40" height="40" viewBox="0 0 40 40" xmlns="http://www.w3.org/2000/svg" xmlns:sketch="http://www.bohemiancoding.com/sketch/ns"><title>expand</title><desc>Created with Sketch.</desc><g sketch:type="MSLayerGroup"><path d="M17.414 22.586c-.782-.782-2.046-.782-2.828 0l-8.586 8.586v-7.172c0-1.104-.894-2-2-2-1.106 0-2 .896-2 2v12c0 1.104.894 2 2 2h12c1.106 0 2-.896 2-2s-.894-2-2-2h-7.172l8.586-8.586c.782-.782.782-2.046 0-2.828M36 2h-12c-1.106 0-2 .896-2 2s.894 2 2 2h7.172l-8.586 8.586c-.782.782-.782 2.046 0 2.828.39.39.902.586 1.414.586.512 0 1.024-.196 1.414-.586l8.586-8.586v7.172c0 1.104.894 2 2 2 1.106 0 2-.896 2-2v-12c0-1.104-.894-2-2-2" sketch:type="MSShapeGroup"/></g></svg>