<svg width="40" height="40" viewBox="0 0 40 40" xmlns="http://www.w3.org/2000/svg" xmlns:sketch="http://www.bohemiancoding.com/sketch/ns"><title>grid</title><desc>Created with Sketch.</desc><g sketch:type="MSLayerGroup"><path d="M8.75 2h-4.5c-1.244 0-2.25 1.006-2.25 2.25v4.5c0 1.242 1.006 2.25 2.25 2.25h4.5c1.244 0 2.25-1.008 2.25-2.25v-4.5c0-1.244-1.006-2.25-2.25-2.25M22.25 2h-4.5c-1.244 0-2.25 1.006-2.25 2.25v4.5c0 1.242 1.006 2.25 2.25 2.25h4.5c1.244 0 2.25-1.008 2.25-2.25v-4.5c0-1.244-1.006-2.25-2.25-2.25M35.75 2h-4.5c-1.244 0-2.25 1.006-2.25 2.25v4.5c0 1.242 1.006 2.25 2.25 2.25h4.5c1.244 0 2.25-1.008 2.25-2.25v-4.5c0-1.244-1.006-2.25-2.25-2.25M8.75 15.5h-4.5c-1.244 0-2.25 1.006-2.25 2.25v4.5c0 1.242 1.006 2.25 2.25 2.25h4.5c1.244 0 2.25-1.008 2.25-2.25v-4.5c0-1.244-1.006-2.25-2.25-2.25M22.25 15.5h-4.5c-1.244 0-2.25 1.006-2.25 2.25v4.5c0 1.242 1.006 2.25 2.25 2.25h4.5c1.244 0 2.25-1.008 2.25-2.25v-4.5c0-1.244-1.006-2.25-2.25-2.25M35.75 15.5h-4.5c-1.244 0-2.25 1.006-2.25 2.25v4.5c0 1.242 1.006 2.25 2.25 2.25h4.5c1.244 0 2.25-1.008 2.25-2.25v-4.5c0-1.244-1.006-2.25-2.25-2.25M8.75 29h-4.5c-1.244 0-2.25 1.006-2.25 2.25v4.5c0 1.242 1.006 2.25 2.25 2.25h4.5c1.244 0 2.25-1.008 2.25-2.25v-4.5c0-1.244-1.006-2.25-2.25-2.25M22.25 29h-4.5c-1.244 0-2.25 1.006-2.25 2.25v4.5c0 1.242 1.006 2.25 2.25 2.25h4.5c1.244 0 2.25-1.008 2.25-2.25v-4.5c0-1.244-1.006-2.25-2.25-2.25M35.75 29h-4.5c-1.244 0-2.25 1.006-2.25 2.25v4.5c0 1.242 1.006 2.25 2.25 2.25h4.5c1.244 0 2.25-1.008 2.25-2.25v-4.5c0-1.244-1.006-2.25-2.25-2.25" sketch:type="MSShapeGroup"/></g></svg>