<svg width="40" height="40" viewBox="0 0 40 40" xmlns="http://www.w3.org/2000/svg" xmlns:sketch="http://www.bohemiancoding.com/sketch/ns"><title>hamburger</title><desc>Created with Sketch.</desc><g sketch:type="MSLayerGroup"><path d="M36.02 8h-32.04c-1.094 0-1.98.886-1.98 1.98v.04c0 1.094.886 1.98 1.98 1.98h32.04c1.094 0 1.98-.886 1.98-1.98v-.04c0-1.094-.886-1.98-1.98-1.98M36.02 28h-32.04c-1.094 0-1.98.886-1.98 1.98v.04c0 1.094.886 1.98 1.98 1.98h32.04c1.094 0 1.98-.886 1.98-1.98v-.04c0-1.094-.886-1.98-1.98-1.98M36.02 18h-32.04c-1.094 0-1.98.886-1.98 1.98v.04c0 1.094.886 1.98 1.98 1.98h32.04c1.094 0 1.98-.886 1.98-1.98v-.04c0-1.094-.886-1.98-1.98-1.98" sketch:type="MSShapeGroup"/></g></svg>