<svg xmlns="http://www.w3.org/2000/svg" width="40" height="40" viewBox="0 0 40 40"><title>arrow left</title><desc>Created with Sketch.</desc><path d="M19.888 4.701c.457 0 .914.172 1.266.519l16.312 16.203c.706.697.714 1.836.014 2.545-.696.707-1.837.713-2.545.014l-15.036-14.94-14.823 14.929c-.703.703-1.84.705-2.545.006-.705-.699-.708-1.838-.007-2.545l16.087-16.2c.352-.354.814-.531 1.277-.531zm.112 8.444l-12.6 12.609v7.752c0 1.146.603 1.793 1.747 1.793h7.253v-9h7.2v9h7.253c1.145 0 1.747-.646 1.747-1.793v-7.752l-12.6-12.609z"/></svg>