<svg width="40" height="40" viewBox="0 0 40 40" xmlns="http://www.w3.org/2000/svg" xmlns:sketch="http://www.bohemiancoding.com/sketch/ns"><title>menu</title><desc>Created with Sketch.</desc><g sketch:type="MSLayerGroup"><path d="M38 9.98c0-1.094-.886-1.98-1.98-1.98h-24.04c-1.094 0-1.98.886-1.98 1.98v.04c0 1.094.886 1.98 1.98 1.98h24.04c1.094 0 1.98-.886 1.98-1.98v-.04M4.04 8h-.04c-1.094 0-1.98.886-1.98 1.98v.04c0 1.094.886 1.98 1.98 1.98h.04c1.092 0 1.98-.886 1.98-1.98v-.04c0-1.094-.888-1.98-1.98-1.98M38 19.98c0-1.094-.886-1.98-1.98-1.98h-24.04c-1.094 0-1.98.886-1.98 1.98v.04c0 1.094.886 1.98 1.98 1.98h24.04c1.094 0 1.98-.886 1.98-1.98v-.04M4.04 18h-.04c-1.094 0-1.98.886-1.98 1.98v.04c0 1.094.886 1.98 1.98 1.98h.04c1.092 0 1.98-.886 1.98-1.98v-.04c0-1.094-.888-1.98-1.98-1.98M38 29.98c0-1.094-.886-1.98-1.98-1.98h-24.04c-1.094 0-1.98.886-1.98 1.98v.04c0 1.094.886 1.98 1.98 1.98h24.04c1.094 0 1.98-.886 1.98-1.98v-.04M4.04 28h-.04c-1.094 0-1.98.886-1.98 1.98v.04c0 1.094.886 1.98 1.98 1.98h.04c1.092 0 1.98-.886 1.98-1.98v-.04c0-1.094-.888-1.98-1.98-1.98" sketch:type="MSShapeGroup"/></g></svg>