<svg width="40" height="40" viewBox="0 0 40 40" xmlns="http://www.w3.org/2000/svg" xmlns:sketch="http://www.bohemiancoding.com/sketch/ns"><title>send</title><desc>Created with Sketch.</desc><g sketch:type="MSLayerGroup"><path d="M34.711 20.389c-1.046 0-1.895.844-1.895 1.889v10.576c0 .735-.851.757-.947.757h-24.632c-.097 0-.947-.023-.947-.757v-17.187c0-.519.424-.944.947-.944h2.842c1.046 0 1.895-.844 1.895-1.889s-.849-1.889-1.895-1.889h-2.842c-2.611 0-4.737 2.117-4.737 4.722v17.187c0 2.542 2.08 4.535 4.737 4.535h24.632c2.656 0 4.737-1.993 4.737-4.535v-10.576c0-1.045-.849-1.889-1.895-1.889M14.979 24.354h-.002.002M14.979 24.354c.521 0 .947-.338 1.053-.784 1.044-4.426 4.038-6.679 9.205-7.367v2.631c0 1.284 1.323 2.014 2.285 1.232l8.526-6.945c.765-.621.75-1.842-.017-2.463l-8.502-6.947c-.961-.78-2.293-.051-2.293 1.233v2.984c-6.579 1.371-10.938 6.5-11.349 15.445-.023.531.481.98 1.091.98" sketch:type="MSShapeGroup"/></g></svg>