<svg width="40" height="40" viewBox="0 0 40 40" xmlns="http://www.w3.org/2000/svg" xmlns:sketch="http://www.bohemiancoding.com/sketch/ns"><title>settings - cog</title><desc>Created with Sketch.</desc><path d="M36.2 16.98l-2.78-.568c-.266-.052-.474-.25-.554-.508-.232-.726-.524-1.43-.878-2.104-.128-.24-.12-.526.03-.754l1.568-2.368c.59-.892.47-2.076-.286-2.832l-1.144-1.146c-.758-.756-1.942-.876-2.832-.286l-2.37 1.568c-.228.148-.514.156-.756.03-.672-.356-1.374-.646-2.102-.878-.258-.082-.454-.288-.508-.554l-.568-2.78c-.214-1.048-1.136-1.8-2.204-1.8h-1.632c-1.068 0-1.99.752-2.204 1.8l-.568 2.78c-.054.266-.25.472-.508.554-.728.232-1.43.522-2.102.878-.242.126-.528.118-.756-.03l-2.37-1.568c-.89-.59-2.074-.47-2.832.286l-1.144 1.146c-.756.756-.876 1.94-.286 2.832l1.568 2.368c.15.228.158.514.03.754-.354.674-.646 1.378-.878 2.104-.08.258-.288.456-.554.508l-2.78.568c-1.048.214-1.8 1.136-1.8 2.206v1.628c0 1.07.752 1.992 1.8 2.206l2.78.568c.266.052.474.25.554.508.232.726.524 1.43.878 2.102.128.242.12.528-.03.756l-1.568 2.368c-.59.892-.47 2.076.286 2.832l1.144 1.146c.756.756 1.942.876 2.832.286l2.37-1.568c.228-.15.514-.156.756-.03.672.356 1.374.646 2.102.878.258.08.454.288.508.552l.568 2.782c.214 1.048 1.136 1.8 2.204 1.8h1.632c1.068 0 1.99-.752 2.204-1.8l.568-2.782c.054-.264.25-.472.508-.552.728-.232 1.43-.522 2.102-.878.242-.126.528-.12.756.03l2.37 1.568c.89.59 2.076.47 2.832-.286l1.144-1.146c.756-.756.876-1.94.286-2.832l-1.568-2.368c-.15-.228-.158-.514-.03-.756.354-.672.646-1.376.878-2.102.08-.258.288-.456.554-.508l2.78-.568c1.048-.214 1.8-1.136 1.8-2.206v-1.628c0-1.07-.752-1.992-1.8-2.206zm-16.2 9.02c-3.314 0-6-2.686-6-6s2.686-6 6-6 6 2.686 6 6-2.686 6-6 6z" sketch:type="MSShapeGroup"/></svg>