<svg xmlns="http://www.w3.org/2000/svg" width="160" height="40" viewBox="0 0 160 40"><path d="M1.031 31.141l3.53-4.951c2.155 2.246 5.502 4.126 9.72 4.126 3.576 0 5.318-1.65 5.318-3.393 0-5.41-17.605-1.696-17.605-13.204 0-5.089 4.401-9.307 11.6-9.307 4.859 0 8.894 1.468 11.92 4.264l-3.622 4.769c-2.476-2.293-5.776-3.347-8.895-3.347-2.796 0-4.354 1.237-4.354 3.071 0 4.859 17.559 1.604 17.559 13.021 0 5.593-3.988 9.811-12.241 9.811-5.869-.001-10.087-1.973-12.93-4.86zm26.677-6.786c0-6.281 4.401-11.6 11.69-11.6 7.336 0 11.736 5.318 11.736 11.6 0 6.326-4.4 11.645-11.736 11.645-7.289 0-11.69-5.318-11.69-11.645zm17.376 0c0-3.438-2.063-6.419-5.686-6.419-3.621 0-5.639 2.98-5.639 6.419 0 3.484 2.018 6.464 5.639 6.464 3.623 0 5.686-2.979 5.686-6.464zm30.238 11.095v-12.837h-14.441v12.837h-6.51v-30.579h6.51v12.012h14.441v-12.012h6.557v30.579h-6.557zm9.815-11.095c0-6.281 4.401-11.6 11.69-11.6 7.335 0 11.736 5.318 11.736 11.6 0 6.326-4.401 11.645-11.736 11.645-7.289 0-11.69-5.318-11.69-11.645zm17.375 0c0-3.438-2.062-6.419-5.685-6.419s-5.639 2.98-5.639 6.419c0 3.484 2.017 6.464 5.639 6.464s5.685-2.979 5.685-6.464zm40.801 11.095l-7.656-11.187-7.702 11.187h-7.748l11.095-15.68-10.407-14.899h7.748l7.015 10.452 6.923-10.452h7.839l-10.406 14.854 11.095 15.726h-7.796zm8.687-28.012c0-1.925 1.605-3.438 3.484-3.438 1.926 0 3.484 1.513 3.484 3.438 0 1.925-1.559 3.484-3.484 3.484-1.879.001-3.484-1.559-3.484-3.484zm.596 28.012v-22.143h5.823v22.143h-5.823z"/></svg>