<svg width="40" height="40" viewBox="0 0 40 40" xmlns="http://www.w3.org/2000/svg" xmlns:sketch="http://www.bohemiancoding.com/sketch/ns"><title>tack</title><desc>Created with Sketch.</desc><path d="M37.413 16.587l-14-14c-.782-.782-2.046-.782-2.828 0s-.782 2.046 0 2.828l.412.414c-2.044 4.72-6.614 9.124-11.354 10.988l-.23-.23c-.782-.782-2.046-.782-2.828 0s-.782 2.046 0 2.828l5.374 5.376-9.298 9.3c-.882.882-.882 2.31 0 3.194.44.44 1.018.662 1.596.662.58 0 1.158-.222 1.598-.662l9.3-9.302 5.43 5.432c.39.39.902.586 1.414.586.512 0 1.024-.196 1.414-.586.782-.782.782-2.046 0-2.828l-.394-.394c1.942-4.656 6.476-9.208 11.13-11.214l.436.436c.39.39.902.586 1.414.586.512 0 1.024-.196 1.414-.586.782-.782.782-2.046 0-2.828" sketch:type="MSShapeGroup"/></svg>