<svg width="40" height="40" viewBox="0 0 40 40" xmlns="http://www.w3.org/2000/svg" xmlns:sketch="http://www.bohemiancoding.com/sketch/ns"><title>timer</title><desc>Created with Sketch.</desc><g sketch:type="MSLayerGroup"><path d="M22.342 21.496v-4.885c0-1.043-.847-1.889-1.895-1.889s-1.895.846-1.895 1.889v5.667c0 .501.199.982.555 1.335l3.789 3.778c.369.368.855.553 1.34.553.485 0 .97-.185 1.34-.553.741-.739.741-1.932 0-2.671l-3.234-3.224" sketch:type="MSShapeGroup"/><path d="M36.452 9.484l-5.068-5.057c-1.415-1.386-3.681-1.386-5.07 0l-3.024 3.015c-.921-.176-1.87-.276-2.842-.276-.966 0-1.91.1-2.825.274l-3.005-2.996c-1.406-1.402-3.699-1.402-5.127 0l-5.125 5.111c-1.406 1.424-1.406 3.71 0 5.111l2.016 2.01c-.697 1.736-1.091 3.621-1.091 5.601 0 8.332 6.8 15.111 15.158 15.111s15.158-6.779 15.158-15.111c0-2.036-.411-3.976-1.148-5.752l1.995-1.989c1.391-1.386 1.391-3.646 0-5.053zm-16.005 24.127c-6.27 0-11.368-5.083-11.368-11.333s5.099-11.333 11.368-11.333c6.27 0 11.368 5.083 11.368 11.333s-5.099 11.333-11.368 11.333z" sketch:type="MSShapeGroup"/></g></svg>