<svg width="40" height="40" viewBox="0 0 40 40" xmlns="http://www.w3.org/2000/svg" xmlns:sketch="http://www.bohemiancoding.com/sketch/ns"><title>trash</title><desc>Created with Sketch.</desc><g sketch:type="MSLayerGroup"><path d="M9.444 34.658c.32 1.928 1.99 3.342 3.944 3.342h13.224c1.954 0 3.624-1.414 3.944-3.342l1.444-20.658h-24l1.444 20.658zm12.556-13.658c0-.552.448-1 1-1h2c.552 0 1 .448 1 1v10c0 .552-.448 1-1 1h-2c-.552 0-1-.448-1-1v-10zm-8 0c0-.552.448-1 1-1h2c.552 0 1 .448 1 1v10c0 .552-.448 1-1 1h-2c-.552 0-1-.448-1-1v-10zM34 6h-8c0-2.208-1.79-4-4-4h-4c-2.21 0-4 1.792-4 4h-8c-1.104 0-2 .896-2 2s.896 2 2 2h28c1.104 0 2-.896 2-2s-.896-2-2-2" sketch:type="MSShapeGroup"/></g></svg>