<svg width="18" height="18" viewBox="0 0 18 18" xmlns="http://www.w3.org/2000/svg"><title>add-grid-record</title><desc>Created with Sketch.</desc><path d="M14 12c-.552 0-1 .448-1 1v1h-1c-.552 0-1 .448-1 1s.448 1 1 1h1v1c0 .552.448 1 1 1s1-.448 1-1v-1h1c.552 0 1-.448 1-1s-.448-1-1-1h-1v-1c0-.552-.448-1-1-1zm-4.5-2h6.5c.552 0 1-.448 1-1v-6.541h-.004c-.023-1.359-1.132-2.459-2.496-2.459h-11c-1.381 0-2.5 1.119-2.5 2.5v13c0 1.381 1.119 2.5 2.5 2.5h4.5c.552 0 1-.448 1-1v-6.5c0-.276.224-.5.5-.5zm2.5-8h2.5c.275 0 .5.225.5.5v1c0 .275-.225.5-.5.5h-2.5v-2zm0 4h2.5c.275 0 .5.225.5.5v1c0 .275-.225.5-.5.5h-2.5v-2zm-4 2h2v-2h-2v2zm-2 8h-2.5c-.275 0-.5-.225-.5-.5v-1c0-.275.225-.5.5-.5h2.5v2zm0-4h-2.5c-.275 0-.5-.225-.5-.5v-1c0-.275.225-.5.5-.5h2.5v2zm0-4h-2.5c-.275 0-.5-.225-.5-.5v-1c0-.275.225-.5.5-.5h2.5v2zm0-4h-2.5c-.275 0-.5-.225-.5-.5v-1c0-.275.225-.5.5-.5h2.5v2z" fill="#6F6F6F"/></svg>