<svg width="18" height="18" viewBox="0 0 18 18" xmlns="http://www.w3.org/2000/svg"><title>add-grid-row</title><desc>Created with Sketch.</desc><path d="M14 12c-.552 0-1 .448-1 1v1h-1c-.552 0-1 .447-1 1 0 .552.448 1 1 1h1v1c0 .552.448 1 1 1s1-.448 1-1v-1h1c.552 0 1-.448 1-1 0-.553-.448-1-1-1h-1v-1c0-.552-.448-1-1-1zm-6 4h-4.5c-.275 0-.5-.225-.5-.5v-1c0-.275.225-.5.5-.5h4.5c.552 0 1-.448 1-1s-.448-1-1-1h-4.5c-.275 0-.5-.225-.5-.5v-1c0-.275.225-.5.5-.5h12.5c.552 0 1-.448 1-1v-6.542h-.004c-.023-1.359-1.132-2.458-2.496-2.458h-11c-1.364 0-2.473 1.099-2.496 2.458h-.004v13.042c0 1.381 1.119 2.5 2.5 2.5h4.5c.552 0 1-.448 1-1 0-.553-.448-1-1-1zm-5-13.5c0-.275.225-.5.5-.5h11c.275 0 .5.225.5.5v1c0 .275-.225.5-.5.5h-11c-.275 0-.5-.225-.5-.5v-1z" fill="#6F6F6F"/></svg>