<svg width="18" height="18" viewBox="0 0 18 18" xmlns="http://www.w3.org/2000/svg" xmlns:xlink="http://www.w3.org/1999/xlink"><title>boat</title><desc>Created with Sketch.</desc><defs><path id="a" d="M9 13h9v-13h-18v13h9z"/></defs><g transform="translate(0 3)" fill="none"><mask id="b"><use xlink:href="#a"/></mask><path d="M16.998 5h-4.998v-1c0-1.1-.9-2-2-2h-3v-1c0-.55-.45-1-1-1s-1 .45-1 1v1c-1.1 0-2 .9-2 2v1h-2c-.55 0-1 .45-1 1l1 6c0 .55.45 1 1 1h10.487c.323 0 .626-.156.813-.419l4.497-5.98c.496-.659.026-1.601-.799-1.601" fill="#6F6F6F" mask="url(#b)"/></g></svg>