<svg width="18" height="18" viewBox="0 0 18 18" xmlns="http://www.w3.org/2000/svg" xmlns:xlink="http://www.w3.org/1999/xlink"><title>clear-screen</title><desc>Created with Sketch.</desc><defs><path id="a" d="M13 12v-12h-13v12h13z"/></defs><g fill="none"><path d="M7.707 10.293c-.391-.391-1.023-.391-1.414 0l-1.793 1.793-1.793-1.793c-.391-.391-1.023-.391-1.414 0s-.391 1.023 0 1.414l1.793 1.793-1.793 1.793c-.391.391-.391 1.023 0 1.414.195.195.451.293.707.293.256 0 .512-.098.707-.293l1.793-1.793 1.793 1.793c.195.195.451.293.707.293.256 0 .512-.098.707-.293.391-.391.391-1.023 0-1.414l-1.793-1.793 1.793-1.793c.391-.391.391-1.023 0-1.414" fill="#6F6F6F"/><g transform="translate(1 2) translate(3)"><mask id="b"><use xlink:href="#a"/></mask><path d="M10.5 0h-8c-1.381 0-2.5 1.119-2.5 2.5v2.5c0 .552.448 1 1 1s1-.448 1-1v-.501c.001-.276.224-.499.5-.499h8c.276 0 .5.224.5.5v5c0 .275-.225.5-.5.5h-3.5c-.552 0-1 .448-1 1s.448 1 1 1h3.5c1.381 0 2.5-1.119 2.5-2.5v-7c0-1.381-1.119-2.5-2.5-2.5" fill="#6F6F6F" mask="url(#b)"/></g></g></svg>