<svg width="18" height="18" viewBox="0 0 18 18" xmlns="http://www.w3.org/2000/svg" xmlns:xlink="http://www.w3.org/1999/xlink"><title>clockwise-90-degrees</title><desc>Created with Sketch.</desc><defs><path id="a" d="M17 0v11.706h-17v-11.706h17z"/></defs><g transform="translate(1 3)" fill="none"><mask id="b"><use xlink:href="#a"/></mask><path d="M16.237 6.004h-1.327c-.486-3.39-3.405-6.004-6.928-6.004-2.867 0-5.335 1.661-6.415 4.153-.249.574.122 1.232.734 1.354.46.092.92-.151 1.104-.583.766-1.806 2.52-2.924 4.571-2.924 2.417 0 4.446 1.722 4.911 4.004h-1.187c-.605 0-.856.48-.731 1l2.42 4.286c.371.526.867.527 1.16.149l2.42-4.435c.125-.417-.127-1-.732-1m-13.237 4v-1c0-.552-.448-1-1-1h-1c-.552 0-1 .448-1 1v1c0 .552.448 1 1 1h1c.552 0 1-.448 1-1" fill="#6F6F6F" mask="url(#b)"/></g></svg>