<svg width="18" height="18" viewBox="0 0 18 18" xmlns="http://www.w3.org/2000/svg"><title>color-options</title><desc>Created with Sketch.</desc><path d="M11.5 6c-.828 0-1.5-.672-1.5-1.5s.672-1.5 1.5-1.5 1.5.672 1.5 1.5-.672 1.5-1.5 1.5m-5 1c-.828 0-1.5-.672-1.5-1.5s.672-1.5 1.5-1.5 1.5.672 1.5 1.5-.672 1.5-1.5 1.5m-2 5c-.828 0-1.5-.672-1.5-1.5s.672-1.5 1.5-1.5 1.5.672 1.5 1.5-.672 1.5-1.5 1.5m4.5-12c-4.971 0-9 4.029-9 9s4.029 9 9 9c.302 0 .601-.016.895-.045l.037-.003c1.006-.104 1.956-.383 2.834-.792.596-.298.907-.645 1.064-.959.134-.278.097-.601.051-.811l-.039-.165-.013-.044c-.463-1.143-1.829-1.181-1.829-1.181s-2-.031-2-2l2-2h4s1.937 0 1.937-1.958l.002-.059c-.506-4.491-4.313-7.983-8.939-7.983" fill="#6F6F6F"/></svg>