<svg width="18" height="18" viewBox="0 0 18 18" xmlns="http://www.w3.org/2000/svg"><title>connections</title><desc>Created with Sketch.</desc><path d="M15 12c-.162 0-.317.023-.472.047l-3.302-6.053c.476-.531.774-1.225.774-1.994 0-1.657-1.343-3-3-3s-3 1.343-3 3c0 .769.298 1.463.774 1.994l-3.302 6.053c-.155-.024-.31-.047-.472-.047-1.657 0-3 1.343-3 3s1.343 3 3 3c1.304 0 2.403-.838 2.816-2h6.368c.413 1.162 1.512 2 2.816 2 1.657 0 3-1.343 3-3s-1.343-3-3-3m-9.774 1.006l3.302-6.054c.155.025.31.048.472.048.162 0 .317-.023.472-.048l3.302 6.054c-.258.287-.458.622-.59.994h-6.368c-.132-.372-.332-.707-.59-.994" fill="#6F6F6F"/></svg>