<svg width="18" height="18" viewBox="0 0 18 18" xmlns="http://www.w3.org/2000/svg"><title>create-report</title><desc>Created with Sketch.</desc><path d="M17 3h-1v-1c0-.552-.448-1-1-1s-1 .448-1 1v1h-1c-.552 0-1 .448-1 1s.448 1 1 1h1v1c0 .552.448 1 1 1s1-.448 1-1v-1h1c.552 0 1-.448 1-1s-.448-1-1-1m-2 6h-4c-.552 0-1-.448-1-1v-4c0-.552-.448-1-1-1h-3.5c-1.207 0-2.217.86-2.449 2h-1.061c-.547 0-.99.443-.99.99v.02c0 .547.443.99.99.99h1.01v2h-1.01c-.547 0-.99.443-.99.99v.02c0 .547.443.99.99.99h1.01v2h-1.01c-.547 0-.99.443-.99.99v.02c0 .547.443.99.99.99h1.061c.232 1.14 1.242 2 2.449 2h8c1.381 0 2.5-1.119 2.5-2.5v-4.5c0-.552-.448-1-1-1m-3 5h-5c-.55 0-1-.45-1-1s.45-1 1-1h5c.55 0 1 .45 1 1s-.45 1-1 1" fill="#6F6F6F"/></svg>