<svg width="18" height="18" viewBox="0 0 18 18" xmlns="http://www.w3.org/2000/svg"><title>download-doc</title><desc>Created with Sketch.</desc><path d="M10.999 18h2.501c1.381 0 2.5-1.119 2.5-2.5v-10.672c0-.53-.211-1.039-.586-1.414l-2.828-2.828c-.375-.375-.884-.586-1.414-.586h-6.672c-1.381 0-2.5 1.119-2.5 2.5v4.5c0 .553.447 1 1 1 .553 0 1-.447 1-1v-4.5c0-.276.224-.5.5-.5h5.5v3c0 .55.45 1 1 1h3v9.5c0 .276-.224.5-.5.5h-2.5c-.543 0-.983.438-.986.979v.031c-.003.546.439.99.985.99m-3.73-5h-1.269v-2c0-.553-.447-1-1-1-.553 0-1 .447-1 1v2h-1.269c-.604 0-.947.887-.579 1.361l2.268 3.33c.292.377.868.427 1.16.049l2.269-3.403c.367-.476.025-1.337-.58-1.337" fill="#6F6F6F"/></svg>