<svg width="18" height="18" viewBox="0 0 18 18" xmlns="http://www.w3.org/2000/svg" xmlns:xlink="http://www.w3.org/1999/xlink"><title>employee-directory</title><desc>Created with Sketch.</desc><defs><path id="a" d="M7.5.051h-7v7h7v-7z"/><path id="c" d="M0 .28v8.72h11.425v-8.72h-11.425z"/><path id="e" d="M9.833 9.884v-9.833h-9.833v9.833h9.833z"/></defs><g fill="none"><g transform="translate(3 .949)"><mask id="b"><use xlink:href="#a"/></mask><path d="M4 7.051c.276 0 .541-.039.798-.1.587-.626 1.304-1.127 2.111-1.456.373-.556.591-1.224.591-1.944 0-1.932-1.566-3.5-3.5-3.5-1.933 0-3.5 1.568-3.5 3.5 0 1.933 1.567 3.5 3.5 3.5" fill="#6F6F6F" mask="url(#b)"/></g><g transform="translate(0 8.949)"><mask id="d"><use xlink:href="#c"/></mask><path d="M6.167 3.051c0-1 .249-1.941.684-2.771-3.797.08-6.851 3.176-6.851 6.992 0 0 0 1.728 2 1.728h9.425c-2.959-.367-5.258-2.892-5.258-5.949" fill="#6F6F6F" mask="url(#d)"/></g><g transform="translate(8 7.949)"><mask id="f"><use xlink:href="#e"/></mask><path d="M9.543 8.179l-2.109-2.109c.35-.595.566-1.28.566-2.019 0-2.206-1.794-4-4-4s-4 1.794-4 4 1.794 4 4 4c.739 0 1.424-.216 2.019-.566l2.109 2.109c.387.387 1.014.387 1.4 0l.015-.015c.387-.386.387-1.013 0-1.4m-5.543-2.128c-1.102 0-2-.897-2-2 0-1.102.898-2 2-2 1.102 0 2 .898 2 2 0 1.103-.898 2-2 2" fill="#6F6F6F" mask="url(#f)"/></g></g></svg>