<svg width="18" height="18" viewBox="0 0 18 18" xmlns="http://www.w3.org/2000/svg" xmlns:xlink="http://www.w3.org/1999/xlink"><title>generate-key</title><desc>Created with Sketch.</desc><defs><path id="a" d="M17.751 8.388v8.388h-17.751v-16.776h17.751v8.388z"/></defs><g transform="translate(0 1)" fill="none"><mask id="b"><use xlink:href="#a"/></mask><path d="M15.751 5v-.989c0-.552-.448-1-1-1s-1 .448-1 1v.989h-1c-.552 0-1 .448-1 1s.448 1 1 1h1v1c0 .552.448 1 1 1s1-.448 1-1v-1h1c.552 0 1-.448 1-1s-.448-1-1-1h-1zm.708 10.046l-7.288-7.289c1.286-1.941 1.075-4.582-.636-6.292-.976-.977-2.255-1.465-3.535-1.465-1.28 0-2.56.488-3.536 1.465-1.952 1.952-1.952 5.118 0 7.071.976.976 2.256 1.464 3.536 1.464.962 0 1.924-.277 2.757-.829l1.485 1.486-1.585 1.586c-.389.389-.389 1.025 0 1.414s1.025.389 1.414 0l1.586-1.586 1.414 1.414-1.586 1.586c-.389.389-.389 1.025 0 1.414s1.025.389 1.414 0l1.586-1.585 1.56 1.56c.389.388 1.026.388 1.414 0 .389-.389.389-1.026 0-1.414zm-11.459-7.046c-.802 0-1.555-.312-2.122-.879-.566-.566-.878-1.32-.878-2.121 0-.801.312-1.555.878-2.121.567-.567 1.32-.879 2.122-.879.801 0 1.554.312 2.121.879.567.566.879 1.32.879 2.121 0 .801-.312 1.555-.879 2.121-.567.567-1.32.879-2.121.879z" fill="#6F6F6F" mask="url(#b)"/></g></svg>