<svg width="18" height="18" viewBox="0 0 18 18" xmlns="http://www.w3.org/2000/svg"><title>group-selection</title><desc>Created with Sketch.</desc><path d="M6 10.5c-3.314 0-6 2.5-6 5.231 0 0 0 2.269 2.5 2.269h7c2.5 0 2.5-2.269 2.5-2.269 0-2.731-2.686-5.231-6-5.231m9.5-8c0-1.381-1.119-2.5-2.5-2.5s-2.5 1.119-2.5 2.5 1.119 2.5 2.5 2.5 2.5-1.119 2.5-2.5m-9.5 0c-1.657 0-3 1.343-3 3s1.343 3 3 3 3-1.343 3-3-1.343-3-3-3m7.05 5c-1.546 0-2.925.66-3.833 1.64 2.106.865 3.757 2.534 4.44 4.548h2.281c2.062 0 2.062-1.873 2.062-1.873 0-2.253-2.216-4.315-4.95-4.315" fill="#6F6F6F"/></svg>