<svg width="18" height="18" viewBox="0 0 18 18" xmlns="http://www.w3.org/2000/svg" xmlns:xlink="http://www.w3.org/1999/xlink"><title>inventory</title><desc>Created with Sketch.</desc><defs><path id="a" d="M8 18h8v-18h-16v18h8z"/></defs><g transform="translate(1)" fill="none"><mask id="b"><use xlink:href="#a"/></mask><path d="M3.893 18h-1.901.508c-1.381 0-2.5-1.119-2.5-2.5v-11c0-1.252.924-2.28 2.125-2.462v-.038h1.718l.847-1.078c.361-.603 1.013-.922 1.716-.922h3.34c.703 0 1.354.319 1.716.922l.846 1.078h1.567v.038c1.201.182 2.125 1.21 2.125 2.462v11c0 1.381-1.119 2.5-2.5 2.5h-9.607zm0-2h-1.901.508c-.276 0-.5-.224-.5-.5v-11c0-.276.224-.5.5-.5h11c.276 0 .5.224.5.5v11c0 .276-.224.5-.5.5h-9.607zm7.107-9h-6c-.55 0-1 .45-1 1s.45 1 1 1h6c.55 0 1-.45 1-1s-.45-1-1-1zm0 4h-6c-.55 0-1 .45-1 1s.45 1 1 1h6c.55 0 1-.45 1-1s-.45-1-1-1z" fill="#6F6F6F" mask="url(#b)"/></g></svg>