<svg width="18" height="18" viewBox="0 0 18 18" xmlns="http://www.w3.org/2000/svg"><title>map</title><desc>Created with Sketch.</desc><path d="M15.368.805l-1.591.53-.001.001-.408.135-.01.006-.941.318.001.011-.102.016c-.102.034-.209.052-.316.052-.107 0-.214-.018-.316-.052l-5.261-1.754c-.137-.045-.28-.068-.423-.068-.143 0-.286.023-.423.068l-.441.148-1.768.589-.194.065-1.806.601c-.817.273-1.368 1.037-1.368 1.898v11.784c0 1.365 1.337 2.329 2.632 1.897l1.618-.539 1.488-.487.262-.042c.107 0 .214.017.316.051l5.261 1.754c.137.045.28.068.423.068.143 0 .286-.023.423-.068l.533-.178 1.676-.559 2-.667c.817-.272 1.368-1.036 1.368-1.897v-11.784c0-1.365-1.337-2.328-2.632-1.897zm-3.371 15.013l-5.048-1.682c-.307-.103-.626-.154-.949-.154v-11.946l5.051 1.684c.307.102.626.153.949.153v11.28l.001.005-.004.66z" fill="#6F6F6F"/></svg>