<svg width="18" height="18" viewBox="0 0 18 18" xmlns="http://www.w3.org/2000/svg"><title>marquee</title><desc>Created with Sketch.</desc><path d="M1 5c-.552 0-1-.447-1-1v-2c0-1.103.897-2 2-2h2c.552 0 1 .447 1 1 0 .553-.448 1-1 1h-2v2c0 .553-.448 1-1 1m16 0c-.552 0-1-.447-1-1v-2h-2c-.552 0-1-.447-1-1 0-.553.448-1 1-1h2c1.103 0 2 .897 2 2v2c0 .553-.448 1-1 1m-1 13h-2c-.552 0-1-.447-1-1 0-.553.448-1 1-1h2v-2c0-.553.448-1 1-1s1 .447 1 1v2c0 1.103-.897 2-2 2m-12 0h-2c-1.103 0-2-.897-2-2v-2c0-.553.448-1 1-1s1 .447 1 1v2h2c.552 0 1 .447 1 1 0 .553-.448 1-1 1m-3-7c-.552 0-1-.447-1-1v-2c0-.553.448-1 1-1s1 .447 1 1v2c0 .553-.448 1-1 1m16 0c-.552 0-1-.447-1-1v-2c0-.553.448-1 1-1s1 .447 1 1v2c0 .553-.448 1-1 1m-7-9h-2c-.552 0-1-.447-1-1 0-.553.448-1 1-1h2c.552 0 1 .447 1 1 0 .553-.448 1-1 1m0 16h-2c-.552 0-1-.447-1-1 0-.553.448-1 1-1h2c.552 0 1 .447 1 1 0 .553-.448 1-1 1" fill="#6F6F6F"/></svg>