<svg width="18" height="18" viewBox="0 0 18 18" xmlns="http://www.w3.org/2000/svg"><title>palette</title><desc>Created with Sketch.</desc><path d="M11.5 6c-.828 0-1.5-.672-1.5-1.5s.672-1.5 1.5-1.5 1.5.672 1.5 1.5-.672 1.5-1.5 1.5m-5 1c-.828 0-1.5-.672-1.5-1.5s.672-1.5 1.5-1.5 1.5.672 1.5 1.5-.672 1.5-1.5 1.5m-2 5c-.828 0-1.5-.672-1.5-1.5s.672-1.5 1.5-1.5 1.5.672 1.5 1.5-.672 1.5-1.5 1.5m4.5-12c-4.971 0-9 4.029-9 9 0 4.97 4.029 9 9 9 .302 0 .601-.016.895-.045l.037-.003c1.006-.104 1.956-.383 2.834-.792.596-.298.907-.645 1.064-.959.134-.278.097-.601.052-.811l-.04-.165-.013-.045c-.463-1.142-1.829-1.18-1.829-1.18s-2-.031-2-2l2-2h4s1.937 0 1.937-1.958l.002-.059c-.506-4.491-4.313-7.983-8.939-7.983" fill="#5C5C5C"/></svg>