<svg width="18" height="18" viewBox="0 0 18 18" xmlns="http://www.w3.org/2000/svg"><title>pdf-file</title><desc>Created with Sketch.</desc><path d="M15.414 3.414l-2.828-2.828c-.375-.375-.884-.586-1.414-.586h-5.672c-1.381 0-2.5 1.119-2.5 2.5v13c0 1.381 1.119 2.5 2.5 2.5h8c1.381 0 2.5-1.119 2.5-2.5v-10.672c0-.53-.211-1.039-.586-1.414zm-10.414-.914c0-.276.224-.5.5-.5h4.5v3c0 .55.45 1 1 1h3v2.5c0 .276-.224.5-.5.5h-8c-.276 0-.5-.224-.5-.5v-6zm2 9.5v2h-2v2h-1v-5h3v1zm4 3c0 .552-.448 1-1 1h-2v-5h2c.552 0 1 .448 1 1v3zm4-3h-2v1h1v1h-1v2h-1v-5h3v1zm-6 3h1v-3h-1v3zm-4-2h1v-1h-1v1z" fill="#6F6F6F"/></svg>