<svg width="18" height="18" viewBox="0 0 18 18" xmlns="http://www.w3.org/2000/svg" xmlns:xlink="http://www.w3.org/1999/xlink"><title>phone</title><desc>Created with Sketch.</desc><defs><path id="a" d="M8.999 18h8.999v-18h-17.998v18h8.999z"/></defs><g fill="none"><mask id="b"><use xlink:href="#a"/></mask><path d="M17.561 12.994l-2.217-2.216c-.583-.584-1.538-.584-2.121 0l-2.222 2.222s-.993 1.008-2.001 0l-4-4s-1.023-.976 0-2l.011-.014 2.21-2.211c.584-.583.584-1.538 0-2.121l-2.216-2.216c-.584-.584-1.538-.584-2.121 0l-2.446 2.445c-.212.212-.32.477-.377.751l-.045.228-.012.103-.004.035s0 14 14.001 14l.009-.01c.399.012.802-.126 1.105-.429l2.446-2.446c.583-.583.583-1.537 0-2.121" fill="#6F6F6F" mask="url(#b)"/></g></svg>