<svg width="18" height="18" viewBox="0 0 18 18" xmlns="http://www.w3.org/2000/svg"><title>quick-access</title><desc>Created with Sketch.</desc><path d="M3 5h4v1.269c0 .604.887.947 1.362.58l3.328-2.269c.378-.292.429-.868.051-1.16l-3.404-2.268c-.476-.367-1.337-.025-1.337.579v1.269h-4c-.553 0-1 .448-1 1 0 .553.447 1 1 1m11.5-4h-2.784l1.134.755.058.04.055.042c.659.509 1.037 1.282 1.037 2.12 0 .855-.406 1.68-1.087 2.206l-.047.037-.049.033-1.126.767h3.309v7.5c0 .275-.225.5-.5.5h-10c-.275 0-.5-.225-.5-.5v-6.5c0-.552-.448-1-1-1s-1 .448-1 1v6.5c0 1.381 1.119 2.5 2.5 2.5h10c1.381 0 2.5-1.119 2.5-2.5v-11c0-1.381-1.119-2.5-2.5-2.5" fill="#6F6F6F"/></svg>