<svg width="18" height="18" viewBox="0 0 18 18" xmlns="http://www.w3.org/2000/svg"><title>reject</title><desc>Created with Sketch.</desc><path d="M14.5 2h-10c-1.379 0-2.5 1.121-2.5 2.5v10.099c0 1.346 1.098 2.401 2.5 2.401h10c1.402 0 2.5-1.055 2.5-2.401v-10.099c0-1.379-1.121-2.5-2.5-2.5zm.5 12.599c0 .389-.449.401-.5.401h-10c-.051 0-.5-.012-.5-.401v-10.099c0-.276.224-.5.5-.5h10c.275 0 .5.224.5.5v10.099zm-2.293-8.306c-.391-.39-1.023-.39-1.414 0l-1.793 1.793-1.793-1.793c-.391-.39-1.023-.39-1.414 0s-.391 1.023 0 1.414l1.793 1.793-1.793 1.793c-.391.391-.391 1.023 0 1.414.195.195.451.293.707.293.256 0 .512-.098.707-.293l1.793-1.793 1.793 1.793c.195.195.451.293.707.293.256 0 .512-.098.707-.293.391-.391.391-1.023 0-1.414l-1.793-1.793 1.793-1.793c.391-.391.391-1.024 0-1.414z" fill="#6F6F6F"/></svg>