<svg width="18" height="18" viewBox="0 0 18 18" xmlns="http://www.w3.org/2000/svg" xmlns:xlink="http://www.w3.org/1999/xlink"><title>run-quick-access</title><desc>Created with Sketch.</desc><defs><path id="a" d="M0 18h13v-18h-13v18z"/></defs><g transform="translate(3)" fill="none"><mask id="b"><use xlink:href="#a"/></mask><path d="M4 .731v1.269h-3c-.553 0-1 .447-1 1 0 .553.447 1 1 1h3v1.269c0 .604.887.947 1.362.58l3.328-2.269c.378-.292.429-.868.051-1.16l-3.404-2.269c-.476-.367-1.337-.024-1.337.58zm5.913 4.432l-.096.07-3.295 2.245c-.469.342-1.033.522-1.635.522-1.059 0-1.987-.543-2.49-1.35-.239-.385-.63-.65-1.084-.65h-.084c-.679 0-1.229.55-1.229 1.229v8.271c0 1.381 1.119 2.5 2.5 2.5h8c1.381 0 2.5-1.119 2.5-2.5v-8c0-1.381-1.119-2.5-2.5-2.5-.341 0-.587.163-.587.163zm1.087 10.337c0 .275-.225.5-.5.5h-8c-.275 0-.5-.225-.5-.5v-5c0-.276.224-.5.5-.5h8c.276 0 .5.224.5.5v5zm-6-.5l3-2-3-2v4z" fill="#6F6F6F" mask="url(#b)"/></g></svg>