<svg width="18" height="18" viewBox="0 0 18 18" xmlns="http://www.w3.org/2000/svg" xmlns:xlink="http://www.w3.org/1999/xlink"><title>save-and-close</title><desc>Created with Sketch.</desc><defs><path id="a" d="M0 15h17v-15h-17v15z"/></defs><g transform="translate(0 2)" fill="none"><mask id="b"><use xlink:href="#a"/></mask><path d="M7 5h-2c-.55 0-1-.45-1-1s.45-1 1-1h2c.55 0 1 .45 1 1s-.45 1-1 1m9.707-4.707c-.391-.391-1.023-.391-1.414 0l-1.793 1.793-1.793-1.793c-.391-.391-1.023-.391-1.414 0s-.391 1.023 0 1.414l1.793 1.793-1.793 1.793c-.391.391-.391 1.023 0 1.414.195.195.451.293.707.293.256 0 .512-.098.707-.293l1.793-1.793 1.793 1.793c.195.195.451.293.707.293.256 0 .512-.098.707-.293.391-.391.391-1.023 0-1.414l-1.793-1.793 1.793-1.793c.391-.391.391-1.023 0-1.414m-4.707 8.707c-.552 0-1 .448-1 1v2.5c0 .276-.224.5-.5.5h-8c-.276 0-.5-.224-.5-.5v-3c0-.276.224-.5.5-.5h4.5c.552 0 1-.448 1-1s-.448-1-1-1h-4c-.552 0-1-.448-1-1v-3h-1c-.55 0-1 .45-1 1v9c0 1.105.895 2 2 2h9c1.105 0 2-.895 2-2v-3c0-.552-.448-1-1-1" fill="#6F6F6F" mask="url(#b)"/></g></svg>