<svg width="18" height="18" viewBox="0 0 18 18" xmlns="http://www.w3.org/2000/svg" xmlns:xlink="http://www.w3.org/1999/xlink"><title>secondary-close</title><desc>Created with Sketch.</desc><defs><path id="a" d="M0 9h9v-9h-9v9z"/></defs><g transform="translate(5 5)" fill="none"><mask id="b"><use xlink:href="#a"/></mask><path d="M5.914 4.5l2.793-2.793c.391-.391.391-1.023 0-1.414s-1.023-.391-1.414 0l-2.793 2.793-2.793-2.793c-.391-.391-1.023-.391-1.414 0s-.391 1.023 0 1.414l2.793 2.793-2.793 2.793c-.391.391-.391 1.023 0 1.414.195.195.451.293.707.293.256 0 .512-.098.707-.293l2.793-2.793 2.793 2.793c.195.195.451.293.707.293.256 0 .512-.098.707-.293.391-.391.391-1.023 0-1.414l-2.793-2.793z" fill="#6F6F6F" mask="url(#b)"/></g></svg>