<svg width="18" height="18" viewBox="0 0 18 18" xmlns="http://www.w3.org/2000/svg"><title>select-all</title><desc>Created with Sketch.</desc><path d="M13 6h-8c-.55 0-1-.45-1-1s.45-1 1-1h8c.55 0 1 .45 1 1s-.45 1-1 1m0 4h-8c-.55 0-1-.45-1-1s.45-1 1-1h8c.55 0 1 .45 1 1s-.45 1-1 1m0 4h-8c-.55 0-1-.45-1-1s.45-1 1-1h8c.55 0 1 .45 1 1s-.45 1-1 1m3-11c0 .55.45 1 1 1s1-.45 1-1v-.5c0-1.375-1.125-2.5-2.5-2.5h-.5c-.55 0-1 .45-1 1s.45 1 1 1c0 0 1.094-.094 1 1m-13-1c.55 0 1-.45 1-1s-.45-1-1-1h-.5c-1.375 0-2.5 1.125-2.5 2.5v.5c0 .55.45 1 1 1s1-.45 1-1c0 0-.094-1.094 1-1m-1 13c0-.55-.45-1-1-1s-1 .45-1 1v.5c0 1.375 1.125 2.5 2.5 2.5h.5c.55 0 1-.45 1-1s-.45-1-1-1c0 0-1.094.094-1-1m13 1c-.55 0-1 .45-1 1s.45 1 1 1h.5c1.375 0 2.5-1.125 2.5-2.5v-.5c0-.55-.45-1-1-1s-1 .45-1 1c0 0 .094 1.094-1 1m2-8c-.55 0-1-.45-1-1v-1c0-.55.45-1 1-1s1 .45 1 1v1c0 .55-.45 1-1 1m0 5c-.55 0-1-.45-1-1v-1c0-.55.45-1 1-1s1 .45 1 1v1c0 .55-.45 1-1 1m-7-12c0-.55.45-1 1-1h1c.55 0 1 .45 1 1s-.45 1-1 1h-1c-.55 0-1-.45-1-1m-5 0c0-.55.45-1 1-1h1c.55 0 1 .45 1 1s-.45 1-1 1h-1c-.55 0-1-.45-1-1m-4 9c.55 0 1 .45 1 1v1c0 .55-.45 1-1 1s-1-.45-1-1v-1c0-.55.45-1 1-1m0-5c.55 0 1 .45 1 1v1c0 .55-.45 1-1 1s-1-.45-1-1v-1c0-.55.45-1 1-1m7 12c0 .55-.45 1-1 1h-1c-.55 0-1-.45-1-1s.45-1 1-1h1c.55 0 1 .45 1 1m5 0c0 .55-.45 1-1 1h-1c-.55 0-1-.45-1-1s.45-1 1-1h1c.55 0 1 .45 1 1" fill="#6F6F6F"/></svg>