<svg width="18" height="18" viewBox="0 0 18 18" xmlns="http://www.w3.org/2000/svg" xmlns:xlink="http://www.w3.org/1999/xlink"><title>select</title><desc>Created with Sketch.</desc><defs><path id="a" d="M0 13.396h13.396v-13.396h-13.396v13.396z"/></defs><g transform="translate(2 2)" fill="none"><mask id="b"><use xlink:href="#a"/></mask><path d="M11.001 12.981c.548.551 1.437.553 1.989.009.544-.553.542-1.442-.009-1.989l-4.012-3.987.029-.03 2.642-2.642c.182-.182.281-.413.292-.669 0-.47-.518-1.122-1.65-1.575l-.299-.098-8-2c-.203 0-.372.032-.536.069-.138.037-.286.085-.439.161l-.011.004c-.102.052-.203.121-.301.196l-.14.126-.126.14c-.075.098-.144.198-.196.301l-.004.01c-.076.154-.124.301-.16.44-.037.163-.07.333-.07.535l2 8 .099.3c.453 1.132 1.087 1.649 1.575 1.649.255-.01.487-.109.668-.291l2.642-2.642.03-.03 3.987 4.013" fill="#6F6F6F" mask="url(#b)"/></g></svg>