<svg width="18" height="18" viewBox="0 0 18 18" xmlns="http://www.w3.org/2000/svg" xmlns:xlink="http://www.w3.org/1999/xlink"><title>tree-nodes</title><desc>Created with Sketch.</desc><defs><path id="a" d="M0 2h6v-2h-6v2z"/></defs><g fill="none"><path d="M18 3.99c0-.547-.443-.99-.99-.99h-12.02c-.547 0-.99.443-.99.99v.02c0 .546.443.99.99.99h12.02c.547 0 .99-.444.99-.99v-.02zm0 5c0-.547-.443-.99-.99-.99h-8.02c-.547 0-.99.443-.99.99v.02c0 .546.443.99.99.99h8.02c.547 0 .99-.444.99-.99v-.02z" fill="#6F6F6F"/><g transform="translate(0 3) translate(12 10)"><mask id="b"><use xlink:href="#a"/></mask><path d="M6 .99c0-.547-.443-.99-.99-.99h-4.02c-.547 0-.99.443-.99.99v.02c0 .546.443.99.99.99h4.02c.547 0 .99-.444.99-.99v-.02z" fill="#6F6F6F" mask="url(#b)"/></g><path d="M2 4c0-.552-.448-1-1-1s-1 .448-1 1 .448 1 1 1 1-.448 1-1m4 5c0-.552-.448-1-1-1s-1 .448-1 1 .448 1 1 1 1-.448 1-1m4 5c0-.552-.448-1-1-1s-1 .448-1 1 .448 1 1 1 1-.448 1-1" fill="#6F6F6F"/></g></svg>