<svg width="18" height="18" viewBox="0 0 18 18" xmlns="http://www.w3.org/2000/svg" xmlns:xlink="http://www.w3.org/1999/xlink"><title>unsubscribe</title><desc>Created with Sketch.</desc><defs><path id="a" d="M0 18h18v-18h-18v18z"/></defs><g fill="none"><mask id="b"><use xlink:href="#a"/></mask><path d="M9 14c0-.552-.448-1-1-1h-5.5c-.051 0-.5-.012-.5-.401v-10.099c0-.276.224-.5.5-.5h10c.275 0 .5.224.5.5v5.5c0 .552.448 1 1 1s1-.448 1-1v-5.5c0-1.381-1.119-2.5-2.5-2.5h-10c-1.381 0-2.5 1.119-2.5 2.5v10.099c0 1.346 1.098 2.401 2.5 2.401h5.5c.552 0 1-.448 1-1zm2-2s0-1 1-1l4 1s1 .031 1 1l-1.242 1.242 1.949 1.965c.391.39.391 1.024 0 1.414l-.086.086c-.39.391-1.023.391-1.414 0l-1.949-1.965-1.258 1.258s-.692-.033-1-1c-.344-1.078-1-4-1-4zm-2.086-4.5l1.793-1.793c.391-.391.391-1.023 0-1.414s-1.023-.391-1.414 0l-1.793 1.793-1.793-1.793c-.391-.391-1.023-.391-1.414 0s-.391 1.023 0 1.414l1.793 1.793-1.793 1.793c-.391.39-.391 1.023 0 1.414.195.195.451.293.707.293.256 0 .512-.098.707-.293l1.793-1.793 1.5 1.5c.195.195.451.293.707.293.256 0 .512-.098.707-.293.391-.391.391-1.024 0-1.414l-1.5-1.5z" fill="#6F6F6F" mask="url(#b)"/></g></svg>