<svg width="18" height="18" viewBox="0 0 18 18" xmlns="http://www.w3.org/2000/svg" xmlns:xlink="http://www.w3.org/1999/xlink"><title>zoom-100-percent</title><desc>Created with Sketch.</desc><defs><path id="a" d="M8.354 17h8.354v-16.707h-16.707v16.708h8.354z"/></defs><g fill="none"><g transform="translate(1) translate(0 .707)"><mask id="b"><use xlink:href="#a"/></mask><path d="M16.414 15.293l-3.815-3.816c.876-1.169 1.401-2.615 1.401-4.184 0-3.86-3.141-7-7-7s-7 3.14-7 7 3.141 7 7 7c1.569 0 3.016-.526 4.185-1.402l3.815 3.816c.195.195.451.293.707.293.256 0 .512-.098.707-.293.391-.391.391-1.023 0-1.414m-9.414-3c-2.757 0-5-2.243-5-5s2.243-5 5-5 5 2.243 5 5-2.243 5-5 5" fill="#6F6F6F" mask="url(#b)"/></g><path d="M8 11c-.55 0-1-.45-1-1v-4c0-.55.45-1 1-1s1 .45 1 1v4c0 .55-.45 1-1 1m-1-2h2c.55 0 1 .45 1 1s-.45 1-1 1h-2c-.55 0-1-.45-1-1s.45-1 1-1m.854-1.587l.707-.707c.389-.389.389-1.025 0-1.414s-1.025-.389-1.414 0l-.707.707c-.389.389-.389 1.025 0 1.414s1.025.389 1.414 0" fill="#6F6F6F"/></g></svg>