<svg width="14" height="14" viewBox="0 0 14 14" xmlns="http://www.w3.org/2000/svg" xmlns:xlink="http://www.w3.org/1999/xlink"><title>chart</title><desc>Created with Sketch.</desc><defs><path id="a" d="M0 14h13.645v-13.645h-13.645v13.645z"/></defs><g fill="none"><g transform="translate(0 -1) translate(0 .645)"><mask id="b"><use xlink:href="#a"/></mask><path d="M11.344 12.441l.743-.743c3.285-4.793.958-9.838-3.084-11.282-.659-.235-1.358.239-1.358.939v5.645c0 .553-.447 1-1 1h-5.644c-.7 0-1.175.699-.94 1.358 1.445 4.042 6.49 6.369 11.283 3.083" fill="#5C5D5D" mask="url(#b)"/></g><path d="M4.276.065c-1.956.704-3.506 2.254-4.21 4.21-.239.664.228 1.37.933 1.37h3.646c.553 0 1-.448 1-1v-3.646c0-.706-.705-1.173-1.369-.934" fill="#5C5D5D"/></g></svg>