<svg width="14" height="14" viewBox="0 0 14 14" xmlns="http://www.w3.org/2000/svg"><title>excel</title><desc>Created with Sketch.</desc><path d="M11.5 7h-8c-.276 0-.5-.224-.5-.5v-4c0-.276.224-.5.5-.5h4.5v2c0 .55.45 1 1 1h3v1.5c0 .276-.224.5-.5.5zm-3.5 2h4v-1h-4v1zm0 2h4v-1h-4v1zm0 2h4v-1h-4v1zm-5-4h4v-1h-4v1zm0 2h4v-1h-4v1zm0 2h4v-1h-4v1zm10.414-9.586l-2.828-2.828c-.375-.375-.884-.586-1.414-.586h-5.672c-1.381 0-2.5 1.119-2.5 2.5v9c0 1.381 1.119 2.5 2.5 2.5h8c1.381 0 2.5-1.119 2.5-2.5v-6.672c0-.53-.211-1.039-.586-1.414z" fill="#5C5D5D"/></svg>