<svg xmlns="http://www.w3.org/2000/svg" width="14" height="14" viewBox="-0.5 0.5 14 14" enable-background="new -0.5 0.5 14 14"><path fill="#5C5C5C" d="M11.5 2.5h-6l-.846-1.078c-.362-.604-1.013-.922-1.716-.922h-1.438c-1.105 0-2 .896-2 2v1h14c0-1.104-.659-1-2-1zm-12 2v7.5c0 1.38 1.12 2.5 2.5 2.5h9c1.38 0 2.5-1.12 2.5-2.5v-7.5h-14zm5.75 4.97l-.03.28 2.959 1.38c.25-.24.58-.38.94-.38.76 0 1.38.62 1.38 1.37 0 .76-.62 1.38-1.38 1.38-.75 0-1.37-.62-1.37-1.38l.02-.2-3.01-1.41c-.24.21-.54.33-.88.33-.76 0-1.38-.59-1.38-1.35s.62-1.4 1.38-1.4c.36 0 .69.15.93.38l2.961-1.37-.02-.22c0-.76.62-1.38 1.37-1.38.76 0 1.38.62 1.38 1.38 0 .75-.62 1.37-1.38 1.37-.36 0-.68-.14-.93-.37l-2.96 1.37.02.22z"/></svg>