<svg xmlns="http://www.w3.org/2000/svg" width="14" height="14" viewBox="-0.5 0.5 14 14" enable-background="new -0.5 0.5 14 14"><g fill="#5C5D5D"><path d="M3 6.5c-1.378 0-2.5 1.122-2.5 2.5 0 .275.224.5.5.5s.5-.225.5-.5c0-.827.673-1.5 1.5-1.5s1.5.673 1.5 1.5c0 .826-.673 1.5-1.5 1.5-.276 0-.5.225-.5.5v1.25c0 .275.224.5.5.5s.5-.225.5-.5v-.799c1.139-.234 2-1.243 2-2.451 0-1.378-1.122-2.5-2.5-2.5m0 7c.276 0 .5.225.5.5s-.224.5-.5.5-.5-.225-.5-.5.224-.5.5-.5"/><path d="M12.91 3.91l-2.82-2.82c-.38-.38-.89-.59-1.42-.59h-4.67c-1.38 0-2.5 1.12-2.5 2.5v1.5c0 .552.448 1 1 1s1-.448 1-1v-1.5c0-.28.22-.5.5-.5h3.5v3c0 .55.45 1 1 1h3v5.5c0 .28-.22.5-.5.5h-4.5c-.552 0-1 .447-1 1s.448 1 1 1h4.5c1.38 0 2.5-1.12 2.5-2.5v-6.67c0-.53-.21-1.04-.59-1.42z"/></g></svg>