<svg xmlns="http://www.w3.org/2000/svg" width="14" height="14" viewBox="-0.5 0.5 14 14" enable-background="new -0.5 0.5 14 14"><path d="M11.9 4.5h-8c-.91 0-1.71.56-2 1.46l-2.3 6.29c-.4 1.13.4 2.25 1.5 2.25h8.4c.9 0 1.69-.56 2-1.46l1.9-6.29c.39-1.13-.4-2.25-1.5-2.25zm-6.65 4.97l-.03.28 2.959 1.38c.25-.24.58-.38.94-.38.76 0 1.38.62 1.38 1.37 0 .76-.62 1.38-1.38 1.38-.75 0-1.37-.62-1.37-1.38l.02-.2-3.01-1.41c-.24.21-.54.33-.88.33-.76 0-1.38-.59-1.38-1.35s.62-1.4 1.38-1.4c.36 0 .69.15.93.38l2.961-1.37-.02-.22c0-.76.62-1.38 1.37-1.38.76 0 1.38.62 1.38 1.38 0 .75-.62 1.37-1.38 1.37-.36 0-.68-.14-.93-.37l-2.96 1.37.02.22zm.844-6.97c-.399 0-.699-.2-.899-.6l-.3-.6c-.301-.5-.801-.8-1.301-.8h-2.1c-1.1 0-1.995.9-1.995 2l.001 2.074c0 .5.096.746.297.801.328.066.499-.101.8-.901.199-.6.798-1 1.398-1h9.505s.188-.974-1.751-.974h-3.655z" fill="#5C5C5C"/></svg>