<svg xmlns="http://www.w3.org/2000/svg" width="14" height="14" viewBox="-0.5 0.5 14 14" enable-background="new -0.5 0.5 14 14"><path fill="#5C5C5C" d="M12.91 3.91l-2.82-2.82c-.38-.38-.89-.59-1.42-.59h-5.67c-1.38 0-2.5 1.12-2.5 2.5v9c0 1.38 1.12 2.5 2.5 2.5h8c1.38 0 2.5-1.12 2.5-2.5v-6.67c0-.53-.21-1.04-.59-1.42zm-10.41-.91c0-.28.22-.5.5-.5h4.5v2c0 .55.45 1 1 1h3v1.5c0 .28-.22.5-.5.5h-8c-.28 0-.5-.22-.5-.5v-4zm2 10.5h-1v-2h-1v2h-1v-5h1v2h1v-2h1v5zm4-4h-1v4h-1v-4h-1v-1h3v1zm4 4h-1v-3h-1v3h-1v-5h1v1h1v-1h1v5z"/></svg>