<svg xmlns="http://www.w3.org/2000/svg" width="14" height="14" viewBox="-0.5 0.5 14 14" enable-background="new -0.5 0.5 14 14"><path fill="#5C5C5C" d="M11 .5h-6.98c-1.22 0-2.22.86-2.45 2h-1.6c-.26 0-.47.21-.47.47v.06c0 .26.21.47.47.47h1.55v2h-1.55c-.26 0-.47.21-.47.47v.06c0 .26.21.47.47.47h1.55v2h-1.55c-.26 0-.47.21-.47.47v.06c0 .26.21.47.47.47h1.55v2h-1.55c-.26 0-.47.21-.47.47v.061c0 .26.21.47.47.47h1.6c.23 1.14 1.23 2 2.45 2h6.98c1.38 0 2.5-1.12 2.5-2.5v-9.001c0-1.38-1.12-2.5-2.5-2.5zm-3.89 11.84c0 .101-.08.18-.18.16-1.21-.23-2.15-1.2-2.39-2.41-.01-.11.06-.19.16-.19h2.22c.11 0 .19.09.19.189v2.251zm.93.16c-.1.02-.18-.06-.18-.16v-2.63c0-.31-.25-.56-.561-.56h-2.599c-.1 0-.17-.091-.16-.19.27-1.399 1.48-2.46 2.94-2.46 1.65 0 2.99 1.359 2.99 3.02 0 1.48-1.05 2.71-2.43 2.98zm1.46-8h-4c-.55 0-1-.45-1-1s.45-1 1-1h4c.55 0 1 .45 1 1s-.45 1-1 1z"/></svg>