<svg xmlns="http://www.w3.org/2000/svg" width="14" height="14" viewBox="-0.5 0.5 14 14" enable-background="new -0.5 0.5 14 14"><path fill="#5C5D5D" d="M6.5 9.5v3h1v-3h-1zm0 0v3h1v-3h-1zm6.41-5.59l-2.82-2.82c-.38-.38-.89-.59-1.42-.59h-5.67c-1.38 0-2.5 1.12-2.5 2.5v9c0 1.38 1.12 2.5 2.5 2.5h8c1.38 0 2.5-1.12 2.5-2.5v-6.67c0-.53-.21-1.04-.59-1.42zm-10.41-.91c0-.28.22-.5.5-.5h4.5v2c0 .55.45 1 1 1h3v1.5c0 .28-.22.5-.5.5h-8c-.28 0-.5-.22-.5-.5v-4zm2 8.5h-1l1 2h-1l-1-2v2h-1v-5h3v3zm4 1h-1v1h-2v-5h2v1h1v3zm4 1h-3v-5h1v4h2v1zm-10-3h1v-1h-1v1z"/></svg>