<svg width="14" height="14" viewBox="0 0 14 14" xmlns="http://www.w3.org/2000/svg" xmlns:xlink="http://www.w3.org/1999/xlink"><title>link</title><desc>Created with Sketch.</desc><defs><path id="a" d="M3 10h-3v-10h6v10h-3z"/></defs><g fill="none"><g transform="translate(0 2)"><mask id="b"><use xlink:href="#a"/></mask><path d="M5 10h-.501c-2.481 0-4.5-2.019-4.5-4.5v-1c0-2.481 2.019-4.5 4.5-4.5h.501c.552 0 1 .447 1 1 0 .553-.448 1-1 1h-.501c-1.378 0-2.5 1.121-2.5 2.5v1c0 1.379 1.122 2.5 2.5 2.5h.501c.552 0 1 .447 1 1 0 .553-.448 1-1 1" fill="#5C5D5D" mask="url(#b)"/></g><path d="M9.5 12h-.499c-.553 0-1-.447-1-1 0-.553.447-1 1-1h.499c1.378 0 2.5-1.121 2.5-2.5v-1c0-1.379-1.122-2.5-2.5-2.5h-.499c-.553 0-1-.447-1-1 0-.553.447-1 1-1h.499c2.481 0 4.5 2.019 4.5 4.5v1c0 2.481-2.019 4.5-4.5 4.5M9 8h-4c-.55 0-1-.45-1-1s.45-1 1-1h4c.55 0 1 .45 1 1s-.45 1-1 1" fill="#5C5D5D"/></g></svg>