<svg width="14" height="14" viewBox="0 0 14 14" xmlns="http://www.w3.org/2000/svg"><title>user-folder-open</title><desc>Created with Sketch.</desc><g fill="#5C5C5C"><path d="M4.586 0h-2.586c-1.104 0-2 .895-2 2v1h13c0-1.104-.895-2-2-2h-5l-.707-.707c-.187-.188-.442-.293-.707-.293m1.414 7c0 1.105-.895 2-2 2s-2-.895-2-2 .895-2 2-2 2 .895 2 2M6.988 14c.668 0 1.177-.652.962-1.285-.535-1.579-2.19-2.715-3.95-2.715-1.76 0-3.415 1.136-3.95 2.715-.215.633.294 1.285.962 1.285h5.976zm-6.988-12v2.1c0 .5.098.745.3.8.327.067.5-.1.8-.9.2-.6.8-1 1.4-1m9.9 2h-4.956c.344.591.556 1.268.556 2 0 .745-.218 1.435-.574 2.033 1.113.722 1.99 1.776 2.419 3.041.213.63.19 1.308-.03 1.926h.185c.9 0 1.7-.5 2-1.3l1.9-5.7c.4-1-.4-2-1.5-2"/></g></svg>