<svg width="14" height="14" viewBox="0 0 14 14" xmlns="http://www.w3.org/2000/svg"><title>user-folder-closed</title><desc>Created with Sketch.</desc><g fill="#5C5C5C"><path d="M4.586 0h-2.586c-1.104 0-2 .895-2 2v1h14c0-1.104-.895-2-2-2h-6l-.707-.707c-.187-.188-.442-.293-.707-.293m-2.586 7c0 1.105.895 2 2 2s2-.895 2-2-.895-2-2-2-2 .895-2 2"/><path d="M1.012 14c-.668 0-1.177-.652-.962-1.285.535-1.579 2.19-2.715 3.95-2.715 1.76 0 3.415 1.136 3.95 2.715.215.633-.294 1.285-.962 1.285h-5.976zm6.432-9c.344.591.556 1.268.556 2 0 .186-.013.369-.039.547l-.092.425-.022.098c-.042.145-.096.286-.154.424l-.026.071c-.07.16-.15.315-.239.464 1.118.723 1.999 1.778 2.429 3.044.074.22.11.446.128.673l.002.029c.015.211.01.421-.02.63l-.007.064c-.029.18-.071.358-.133.531h2.173c1.105 0 2-.896 2-2v-7h-6.556z"/></g></svg>