<svg xmlns="http://www.w3.org/2000/svg" width="32" height="32" viewBox="0 0 32 32"><path d="M9.286 23v-6.025c-.026-.866.099-1.682.374-2.442s.662-1.431 1.162-2.009c.498-.578 1.097-1.057 1.791-1.438.695-.381 1.453-.623 2.268-.729v2.601c-1 .342-1.684.846-2.049 1.517-.368.669-.551 1.489-.551 2.462h2.6v6.063h-5.595zm8.39 0v-6.025c-.025-.866.1-1.682.375-2.442s.663-1.431 1.162-2.009c.498-.578 1.096-1.057 1.792-1.438.695-.381 1.45-.623 2.265-.729v2.601c-.998.342-1.681.846-2.049 1.517-.367.669-.552 1.489-.552 2.462h2.601v6.063h-5.594z"/></svg>