<?xml version="1.0" encoding="utf-8"?>
<!-- Generator: Adobe Illustrator 18.1.1, SVG Export Plug-In . SVG Version: 6.00 Build 0)  -->
<!DOCTYPE svg PUBLIC "-//W3C//DTD SVG 1.1//EN" "http://www.w3.org/Graphics/SVG/1.1/DTD/svg11.dtd">
<svg version="1.1" id="Layer_1" xmlns="http://www.w3.org/2000/svg" xmlns:xlink="http://www.w3.org/1999/xlink" x="0px" y="0px"
	 viewBox="-6 -6 44 44" enable-background="new -6 -6 44 44" xml:space="preserve">
<path fill="#D52027" d="M0,0h32v32H0V0z"/>
<g>
	<path fill="#FFFFFF" d="M2.9,13.2h2v6.6h-2L2.9,13.2z M6,13.2h1.9v0.6c0,0,0.3-0.8,1.9-0.8c2.1,0,2.4,1.3,2.4,3.1v3.6h-2v-3.2
		c0-0.8,0-1.7-1.1-1.7c-1.1,0-1.2,0.8-1.2,1.7v3.3H6C6,19.8,6,13.2,6,13.2z M13.4,12.1c0-1.4,0.4-2.6,2.6-2.6c0.4,0,0.8,0,1.2,0.1
		L17,11.2c-0.2-0.1-0.4-0.1-0.7-0.1c-0.6,0-1,0.2-1,1.1v1h1.5v1.6h-1.5v4.9h-2L13.4,12.1L13.4,12.1z M20.8,13.1c2,0,3.6,1.3,3.6,3.4
		c0,2.1-1.6,3.4-3.6,3.4c-2,0-3.6-1.4-3.6-3.4C17.1,14.4,18.8,13.1,20.8,13.1 M20.8,18.2c1,0,1.6-0.7,1.6-1.7c0-1-0.6-1.7-1.6-1.7
		c-1,0-1.6,0.7-1.6,1.7C19.2,17.5,19.8,18.2,20.8,18.2"/>
	<path fill="#FFFFFF" d="M25.2,13.2h2v0.6c0,0,0.5-0.8,2.6-0.7v1.8c-0.3-0.1-0.6-0.1-0.9-0.1c-1.5,0-1.7,1.1-1.7,2.4v2.7h-2V13.2z
		 M2.9,11.1l2-1.4v2.5h-2L2.9,11.1z"/>
</g>
<g>
	<path fill="#B5B5B5" d="M33.7,32v-1.8H33V30h1.6v0.2h-0.7V32H33.7z"/>
	<path fill="#B5B5B5" d="M34.9,32v-2h0.4l0.5,1.4c0,0.1,0.1,0.2,0.1,0.3c0-0.1,0.1-0.2,0.1-0.3l0.5-1.4h0.4v2h-0.3v-1.7L35.9,32
		h-0.2l-0.6-1.7V32H34.9z"/>
</g>
</svg>
