<?xml version="1.0" encoding="utf-8"?>
<!-- Generator: Adobe Illustrator 18.1.1, SVG Export Plug-In . SVG Version: 6.00 Build 0)  -->
<!DOCTYPE svg PUBLIC "-//W3C//DTD SVG 1.1//EN" "http://www.w3.org/Graphics/SVG/1.1/DTD/svg11.dtd">
<svg version="1.1" id="Layer_1" xmlns="http://www.w3.org/2000/svg" xmlns:xlink="http://www.w3.org/1999/xlink" x="0px" y="0px"
	 viewBox="0 0 32 32" enable-background="new 0 0 32 32" xml:space="preserve">
<path fill="#B3B4B4" d="M28.2,24.8V23h-1.8v-1.8h-2.2c1.4-2,2.2-4.4,2.2-7C26.5,7.5,21,2,14.2,2S2,7.5,2,14.2s5.5,12.2,12.2,12.2
	c2.6,0,5-0.8,7-2.2v2.2H23v1.8h1.8V30h3.5v-1.8H30v-3.5H28.2z M14.2,23c-4.8,0-8.8-3.9-8.8-8.8s3.9-8.8,8.8-8.8S23,9.4,23,14.2
	S19.1,23,14.2,23z"/>
</svg>
