<svg xmlns="http://www.w3.org/2000/svg" width="32" height="32" viewBox="0 0 32 32"><path d="M12.312 25.594h14.688m-19.882-.017"/><path d="M12.266 6.354v4.549h14.687v-4.549h-14.687zm-.001 11.722h14.688v-4.549h-14.688v4.549zm.001 7.173h14.687v-4.55h-14.687v4.55zm-5.139-14.187h.991v-4.922h-.807l-.038.196c-.043.148-.106.265-.189.353-.122.129-.28.215-.475.258-.121.028-.335.049-.639.062v.659h1.157v3.394zm.025 6.14c.09-.077.256-.202.499-.373l.387-.275c.327-.231.562-.44.704-.628.218-.283.327-.606.327-.971 0-.475-.154-.857-.463-1.146-.308-.289-.723-.433-1.243-.433-.659 0-1.118.246-1.376.737-.137.258-.213.596-.229 1.015h.94c.012-.276.048-.478.108-.604.106-.22.308-.329.601-.329.216 0 .381.069.497.207.115.138.172.312.172.52 0 .256-.101.491-.302.706-.132.138-.42.367-.865.686-.515.367-.84.715-.978 1.043-.143.291-.219.613-.228.967h3.37v-.852h-2.146c.061-.103.136-.193.225-.27zm1.17 5.482c.117-.046.23-.13.339-.255.173-.199.258-.443.258-.733 0-.41-.144-.736-.432-.979-.288-.244-.668-.365-1.138-.365-.254 0-.468.029-.642.092-.174.061-.324.148-.451.265-.168.162-.293.341-.372.532-.075.221-.117.451-.126.696h.903c-.005-.242.046-.437.154-.581.106-.145.274-.217.503-.217.198 0 .353.059.461.176.11.119.165.271.165.459 0 .29-.107.482-.321.577-.124.057-.343.087-.656.092v.693c.32 0 .555.03.704.091.262.109.392.325.392.647 0 .245-.069.432-.212.563-.141.129-.306.195-.495.195-.31 0-.523-.119-.641-.357-.062-.13-.095-.292-.095-.488h-.95c.017.391.095.709.237.95.271.454.756.682 1.451.682.565 0 .992-.158 1.28-.474.288-.314.433-.681.433-1.098 0-.396-.123-.708-.37-.937-.164-.15-.291-.226-.379-.226z"/></svg>