<svg version="1" xmlns="http://www.w3.org/2000/svg" width="32" height="32" viewBox="0 0 32 32"><style type="text/css"><![CDATA[
	.st0{fill:#333333;}
]]></style><path class="st0" d="M9.262 21.621l7.275 4.268c.222.129.49.129.712 0l7.274-4.268c.221-.129.355-.366.355-.625v-8.533c0-.257-.136-.497-.355-.624l-7.274-4.267c-.11-.065-.233-.097-.356-.097s-.246.032-.354.097l-7.274 4.267c-.22.127-.356.367-.356.624v8.533c-.003.259.134.496.353.625zm6.92-4.439v6.83l-5.854-3.433v-6.83l5.854 3.433zm1.422 6.83v-6.83l5.854-3.434v6.83l-5.854 3.434zm5.144-11.549l-5.855 3.433-5.854-3.433 5.854-3.433 5.855 3.433z"/></svg>