<svg xmlns="http://www.w3.org/2000/svg" width="32" height="32" viewBox="0 0 32 32"><path fill="#333" d="M16.026 13.572c-1.657 0-3.005 1.349-3.005 3.007 0 1.658 1.348 3.009 3.005 3.009 1.656 0 3.004-1.352 3.004-3.009 0-1.658-1.348-3.007-3.004-3.007zm0-5.572c-7.965 0-15.986 8.673-15.986 8.673s8.021 8.67 15.986 8.67c7.963 0 15.985-8.67 15.985-8.67s-8.022-8.673-15.985-8.673zm0 14.719c-3.386 0-6.131-2.747-6.131-6.139 0-3.391 2.745-6.137 6.131-6.137 3.384 0 6.127 2.746 6.127 6.137 0 3.392-2.743 6.139-6.127 6.139z"/></svg>