<?xml version="1.0" encoding="utf-8"?>
<!-- Generator: Adobe Illustrator 18.1.1, SVG Export Plug-In . SVG Version: 6.00 Build 0)  -->
<!DOCTYPE svg PUBLIC "-//W3C//DTD SVG 1.1//EN" "http://www.w3.org/Graphics/SVG/1.1/DTD/svg11.dtd">
<svg version="1.1" xmlns="http://www.w3.org/2000/svg" xmlns:xlink="http://www.w3.org/1999/xlink" x="0px" y="0px"
	 viewBox="0 0 32 32" enable-background="new 0 0 32 32" xml:space="preserve">
  <path d="M26.9,5.1c-1.7-1.7-3-3.1-3.8-3.1H4.6C3.2,2,2,3.2,2,4.6v22.8C2,28.8,3.2,30,4.6,30h22.8c1.4,0,2.6-1.2,2.6-2.6V8.9 C30,8.2,28.5,6.8,26.9,5.1z M16,26.9c-2.6 0-4.6-2.1-4.6-4.6c0-2.6,2.1-4.6,4.6-4.6s4.6,2.1,4.6,4.6C20.6,24.8,18.6,26.9,16,26.9z M21.2,11.6H5.5V5.5h15.8V11.6z"></path>
</svg>
