<?xml version="1.0" encoding="utf-8"?>
<!-- Generator: Adobe Illustrator 18.1.1, SVG Export Plug-In . SVG Version: 6.00 Build 0)  -->
<!DOCTYPE svg PUBLIC "-//W3C//DTD SVG 1.1//EN" "http://www.w3.org/Graphics/SVG/1.1/DTD/svg11.dtd">
<svg version="1.1" xmlns="http://www.w3.org/2000/svg" xmlns:xlink="http://www.w3.org/1999/xlink" x="0px" y="0px"
	 viewBox="0 0 32 32" enable-background="new 0 0 32 32" xml:space="preserve">
  <path d="M29.3,5.6L18.9,16l10.4,10.4c0.8,0.8,0.8,2.2,0,3c-0.8,0.8-2.2,0.8-3,0L16,18.9L5.6,29.3c-0.8,0.8-2.1,0.8-3,0
  	c-0.8-0.8-0.8-2.1,0-3L13,16L2.6,5.6c-0.8-0.8-0.8-2.1,0-3s2.1-0.8,3,0L16,13L26.4,2.6c0.8-0.8,2.1-0.8,3,0S30.2,4.8,29.3,5.6
  	L29.3,5.6z"></path>
</svg>
