<?xml version="1.0" encoding="utf-8"?>
<!-- Generator: Adobe Illustrator 16.0.0, SVG Export Plug-In . SVG Version: 6.00 Build 0)  -->
<!DOCTYPE svg PUBLIC "-//W3C//DTD SVG 1.1//EN" "http://www.w3.org/Graphics/SVG/1.1/DTD/svg11.dtd">
<svg version="1.1" id="Layer_1" xmlns="http://www.w3.org/2000/svg" xmlns:xlink="http://www.w3.org/1999/xlink" x="0px" y="0px"
	 width="32px" height="32px" viewBox="0 0 32 32" enable-background="new 0 0 32 32" xml:space="preserve">
<path d="M24.753,19.832c-1.244,0-2.373,0.478-3.228,1.254l-9.186-4.685c0.037-0.239,0.062-0.482,0.062-0.731
	c0-0.14-0.01-0.278-0.021-0.416l9.271-4.728c0.839,0.709,1.92,1.137,3.102,1.137c2.655,0,4.805-2.151,4.805-4.804
	c0-2.654-2.149-4.806-4.805-4.806c-2.654,0-4.805,2.151-4.805,4.806c0,0.146,0.01,0.291,0.022,0.434l-9.261,4.722
	c-0.839-0.715-1.925-1.149-3.113-1.149c-2.654,0-4.806,2.151-4.806,4.805c0,2.654,2.152,4.805,4.806,4.805
	c1.069,0,2.055-0.354,2.853-0.945l9.511,4.849c-0.004,0.088-0.013,0.173-0.013,0.258c0,2.654,2.15,4.807,4.805,4.807
	c2.655,0,4.805-2.152,4.805-4.807C29.558,21.983,27.408,19.832,24.753,19.832z"/>
</svg>
