<svg xmlns="http://www.w3.org/2000/svg" width="32" height="32" viewBox="0 0 32 32"><path fill="#666" d="M298.721 46.182v-1.494c0-1.072-.832-1.944-1.852-1.944h-8.008l-2.141-2.167h-4.807c-1.023 0-1.85.87-1.85 1.942v13.438c0 1.071.826 1.944 1.85 1.944h14.955000000000002v-.009c1.068-.04 1.924-.913 1.924-1.992l1-7.957c.001-.767-.436-1.425-1.071-1.761zm-1.851-2.105c.285 0 .518.274.518.611v1.257h-13.551c-1.105 0-2 .895-2 1.999l-.439 3.505v-7.373h15.472zm.601 11.204c0 .52-.24.979-.609 1.288h-13.938c-.369-.309-.609-.768-.609-1.288l.941-6.438c0-.931.758-1.687 1.689-1.687h11.779c.934 0 1.688.756 1.688 1.687l-.941 6.438z"/><path fill="#333" d="M299.098 107.544v-1.494c0-1.072-.832-1.944-1.852-1.944h-8.008l-2.141-2.167h-4.807c-1.023 0-1.85.87-1.85 1.942v13.438c0 1.071.826 1.944 1.85 1.944h14.955000000000002v-.009c1.068-.04 1.924-.913 1.924-1.992l1-7.957c.001-.766-.436-1.425-1.071-1.761zm-1.851-2.105c.285 0 .518.274.518.611v1.257h-13.551c-1.105 0-2 .895-2 1.999l-.439 3.505v-7.373h15.472zm.601 11.205c0 .52-.24.979-.609 1.288h-13.938c-.369-.309-.609-.768-.609-1.288l.941-6.438c0-.931.758-1.687 1.689-1.687h11.779c.934 0 1.688.756 1.688 1.687l-.941 6.438z"/></svg>