<svg width="18" height="18" viewBox="0 0 18 18" xmlns="http://www.w3.org/2000/svg"><title>mute</title><desc>Created with Sketch.</desc><path d="M13 2.756v-1.754c0-.791-.875-1.269-1.541-.841l-6.237 4.009h-2.722c-1.375 0-2.5 1.125-2.5 2.5v3c0 1.375 1.125 2.5 2.5 2.5h1.086l9.414-9.414zm3.854.268c-.389-.389-1.025-.389-1.414 0l-12.586 12.586c-.389.389-.389 1.025 0 1.414s1.025.389 1.414 0l3.328-3.328 3.863 2.484c.666.427 1.541-.051 1.541-.842v-7.046l3.854-3.854c.389-.389.389-1.025 0-1.414" fill="#5C5C5C"/></svg>