<svg width="32" height="40" viewBox="0 0 32 40" xmlns="http://www.w3.org/2000/svg"><title>avi</title><desc>Created with Sketch.</desc><g fill="none"><path d="M4 0c-2.2 0-4 1.8-4 4v32c0 2.2 1.8 4 4 4h24c2.2 0 4-1.8 4-4v-26l-10.021-10h-17.979z" fill="#999"/><path d="M22 6.25c0 2.071 1.679 3.75 3.75 3.75h6.25l-10-9.979v6.229z" fill="#5C5C5C"/><path d="M9.67 20.32l.93-2.62h.02l.9 2.62h-1.85zm.15-4.38l-2.7 7.14h1.58l.56-1.59h2.67l.54 1.59h1.63l-2.67-7.14h-1.61zm7.714 7.14l2.37-7.14h-1.62l-1.61 5.02h-.02l-1.59-5.02h-1.61l2.31 7.14h1.77zm3.394-7.14v7.14h1.57v-7.14h-1.57z" fill="#fff"/></g></svg>