<svg width="32" height="40" viewBox="0 0 32 40" xmlns="http://www.w3.org/2000/svg"><title>csv</title><desc>Created with Sketch.</desc><g fill="none"><path d="M4 0c-2.2 0-4 1.8-4 4v32c0 2.2 1.8 4 4 4h24c2.2 0 4-1.8 4-4v-26l-10.021-10h-17.979z" fill="#76B051"/><path d="M22 6.25c0 2.071 1.679 3.75 3.75 3.75h6.25l-10-9.979v6.229z" fill="#56932E"/><path d="M10.85 18.34h1.52c-.047-.413-.16-.78-.34-1.1-.18-.32-.408-.588-.685-.805-.277-.217-.59-.382-.94-.495-.35-.113-.722-.17-1.115-.17-.547 0-1.038.097-1.475.29-.437.193-.805.46-1.105.8-.3.34-.53.738-.69 1.195-.16.457-.24.952-.24 1.485 0 .52.08 1.005.24 1.455.16.45.39.842.69 1.175.3.333.668.595 1.105.785.437.19.928.285 1.475.285.44 0 .843-.067 1.21-.2s.687-.327.96-.58c.273-.253.493-.56.66-.92.167-.36.27-.763.31-1.21h-1.52c-.06.48-.225.867-.495 1.16-.27.293-.645.44-1.125.44-.353 0-.653-.068-.9-.205-.247-.137-.447-.318-.6-.545-.153-.227-.265-.482-.335-.765-.07-.283-.105-.575-.105-.875 0-.313.035-.617.105-.91.07-.293.182-.555.335-.785.153-.23.353-.413.6-.55.247-.137.547-.205.9-.205.193 0 .378.032.555.095.177.063.335.152.475.265.14.113.257.245.35.395.093.15.153.315.18.495zm3.72 2.37h-1.52c-.007.44.073.82.24 1.14.167.32.392.583.675.79.283.207.61.358.98.455.37.097.752.145 1.145.145.487 0 .915-.057 1.285-.17.37-.113.68-.272.93-.475.25-.203.438-.445.565-.725.127-.28.19-.583.19-.91 0-.4-.085-.728-.255-.985-.17-.257-.372-.462-.605-.615-.233-.153-.468-.265-.705-.335-.237-.07-.422-.118-.555-.145l-1.085-.28c-.277-.073-.493-.147-.65-.22-.157-.073-.262-.153-.315-.24-.053-.087-.08-.2-.08-.34 0-.153.033-.28.1-.38.067-.1.152-.183.255-.25.103-.067.218-.113.345-.14.127-.027.253-.04.38-.04.193 0 .372.017.535.05.163.033.308.09.435.17.127.08.228.19.305.33.077.14.122.317.135.53h1.52c0-.413-.078-.765-.235-1.055-.157-.29-.368-.528-.635-.715-.267-.187-.572-.322-.915-.405-.343-.083-.702-.125-1.075-.125-.32 0-.64.043-.96.13-.32.087-.607.22-.86.4-.253.18-.458.405-.615.675-.157.27-.235.588-.235.955 0 .327.062.605.185.835.123.23.285.422.485.575.2.153.427.278.68.375.253.097.513.178.78.245.26.073.517.14.77.2s.48.13.68.21c.2.08.362.18.485.3s.185.277.185.47c0 .18-.047.328-.14.445-.093.117-.21.208-.35.275-.14.067-.29.112-.45.135-.16.023-.31.035-.45.035-.207 0-.407-.025-.6-.075-.193-.05-.362-.127-.505-.23-.143-.103-.258-.238-.345-.405-.087-.167-.13-.37-.13-.61zm8.74 2.37l2.37-7.14h-1.62l-1.61 5.02h-.02l-1.59-5.02h-1.61l2.31 7.14h1.77z" fill="#fff"/></g></svg>