<svg width="32" height="40" viewBox="0 0 32 40" xmlns="http://www.w3.org/2000/svg"><title>doc</title><desc>Created with Sketch.</desc><g fill="none"><path d="M4 0c-2.2 0-4 1.8-4 4v32c0 2.2 1.8 4 4 4h24c2.2 0 4-1.8 4-4v-26l-10.021-10h-17.979z" fill="#368AC0"/><path d="M22 6.25c0 2.071 1.679 3.75 3.75 3.75h6.25l-10-9.979v6.229z" fill="#1D5F8A"/><path d="M6.96 21.76v-4.5h1.12c.387 0 .712.055.975.165.263.11.475.268.635.475.16.207.275.455.345.745.07.29.105.615.105.975 0 .393-.05.727-.15 1-.1.273-.233.495-.4.665-.167.17-.357.292-.57.365-.213.073-.433.11-.66.11h-1.4zm-1.57-5.82v7.14h3.08c.547 0 1.022-.092 1.425-.275.403-.183.74-.435 1.01-.755s.472-.7.605-1.14c.133-.44.2-.92.2-1.44 0-.593-.082-1.11-.245-1.55-.163-.44-.39-.807-.68-1.1-.29-.293-.633-.513-1.03-.66-.397-.147-.825-.22-1.285-.22h-3.08zm8.67 3.6c0-.313.035-.617.105-.91.07-.293.182-.555.335-.785.153-.23.353-.413.6-.55.247-.137.547-.205.9-.205s.653.068.9.205c.247.137.447.32.6.55.153.23.265.492.335.785.07.293.105.597.105.91 0 .3-.035.592-.105.875-.07.283-.182.538-.335.765-.153.227-.353.408-.6.545-.247.137-.547.205-.9.205s-.653-.068-.9-.205c-.247-.137-.447-.318-.6-.545-.153-.227-.265-.482-.335-.765-.07-.283-.105-.575-.105-.875zm-1.57 0c0 .52.08 1.005.24 1.455.16.45.39.842.69 1.175.3.333.668.595 1.105.785.437.19.928.285 1.475.285.553 0 1.047-.095 1.48-.285.433-.19.8-.452 1.1-.785.3-.333.53-.725.69-1.175.16-.45.24-.935.24-1.455 0-.533-.08-1.028-.24-1.485-.16-.457-.39-.855-.69-1.195-.3-.34-.667-.607-1.1-.8-.433-.193-.927-.29-1.48-.29-.547 0-1.038.097-1.475.29-.437.193-.805.46-1.105.8-.3.34-.53.738-.69 1.195-.16.457-.24.952-.24 1.485zm12.85-1.2h1.52c-.047-.413-.16-.78-.34-1.1-.18-.32-.408-.588-.685-.805-.277-.217-.59-.382-.94-.495-.35-.113-.722-.17-1.115-.17-.547 0-1.038.097-1.475.29-.437.193-.805.46-1.105.8-.3.34-.53.738-.69 1.195-.16.457-.24.952-.24 1.485 0 .52.08 1.005.24 1.455.16.45.39.842.69 1.175.3.333.668.595 1.105.785.437.19.928.285 1.475.285.44 0 .843-.067 1.21-.2s.687-.327.96-.58c.273-.253.493-.56.66-.92.167-.36.27-.763.31-1.21h-1.52c-.06.48-.225.867-.495 1.16-.27.293-.645.44-1.125.44-.353 0-.653-.068-.9-.205-.247-.137-.447-.318-.6-.545-.153-.227-.265-.482-.335-.765-.07-.283-.105-.575-.105-.875 0-.313.035-.617.105-.91.07-.293.182-.555.335-.785.153-.23.353-.413.6-.55.247-.137.547-.205.9-.205.193 0 .378.032.555.095.177.063.335.152.475.265.14.113.257.245.35.395.093.15.153.315.18.495z" fill="#fff"/></g></svg>