<svg width="32" height="40" viewBox="0 0 32 40" xmlns="http://www.w3.org/2000/svg"><title>gif</title><desc>Created with Sketch.</desc><g fill="none"><path d="M4 0c-2.2 0-4 1.8-4 4v32c0 2.2 1.8 4 4 4h24c2.2 0 4-1.8 4-4v-26l-10.021-10h-17.979z" fill="#999"/><path d="M22 6.25c0 2.071 1.679 3.75 3.75 3.75h6.25l-10-9.979v6.229z" fill="#5C5C5C"/><path d="M13.116 22.27l.16.81h1v-3.86h-3v1.17h1.58c-.047.5-.212.882-.495 1.145-.283.263-.685.395-1.205.395-.353 0-.653-.068-.9-.205-.247-.137-.447-.318-.6-.545-.153-.227-.265-.482-.335-.765-.07-.283-.105-.575-.105-.875 0-.313.035-.617.105-.91.07-.293.182-.555.335-.785.153-.23.353-.413.6-.55.247-.137.547-.205.9-.205.38 0 .703.1.97.3.267.2.447.5.54.9h1.5c-.04-.407-.15-.767-.33-1.08-.18-.313-.408-.577-.685-.79-.277-.213-.587-.375-.93-.485-.343-.11-.698-.165-1.065-.165-.547 0-1.038.097-1.475.29-.437.193-.805.46-1.105.8-.3.34-.53.738-.69 1.195-.16.457-.24.952-.24 1.485 0 .52.08 1.005.24 1.455.16.45.39.842.69 1.175.3.333.668.595 1.105.785.437.19.928.285 1.475.285.347 0 .69-.072 1.03-.215.34-.143.65-.395.93-.755zm2.43-6.33v7.14h1.57v-7.14h-1.57zm2.95 0v7.14h1.57v-2.95h2.99v-1.22h-2.99v-1.65h3.45v-1.32h-5.02z" fill="#fff"/></g></svg>