<svg width="32" height="40" viewBox="0 0 32 40" xmlns="http://www.w3.org/2000/svg"><title>grid</title><desc>Created with Sketch.</desc><g fill="none"><path d="M4 0c-2.2 0-4 1.8-4 4v32c0 2.2 1.8 4 4 4h24c2.2 0 4-1.8 4-4v-26l-10.021-10h-17.979z" fill="#999"/><path d="M22 6.25c0 2.071 1.679 3.75 3.75 3.75h6.25l-10-9.979v6.229z" fill="#5C5C5C"/><path d="M11 14h-2c-.553 0-1 .447-1 1v2c0 .552.447 1 1 1h2c.553 0 1-.448 1-1v-2c0-.553-.447-1-1-1m6 0h-2c-.553 0-1 .447-1 1v2c0 .552.447 1 1 1h2c.553 0 1-.448 1-1v-2c0-.553-.447-1-1-1m6 0h-2c-.553 0-1 .447-1 1v2c0 .552.447 1 1 1h2c.553 0 1-.448 1-1v-2c0-.553-.447-1-1-1m-12 6h-2c-.553 0-1 .447-1 1v2c0 .552.447 1 1 1h2c.553 0 1-.448 1-1v-2c0-.553-.447-1-1-1m6 0h-2c-.553 0-1 .447-1 1v2c0 .552.447 1 1 1h2c.553 0 1-.448 1-1v-2c0-.553-.447-1-1-1m6 0h-2c-.553 0-1 .447-1 1v2c0 .552.447 1 1 1h2c.553 0 1-.448 1-1v-2c0-.553-.447-1-1-1m-12 6h-2c-.553 0-1 .447-1 1v2c0 .552.447 1 1 1h2c.553 0 1-.448 1-1v-2c0-.553-.447-1-1-1m6 0h-2c-.553 0-1 .447-1 1v2c0 .552.447 1 1 1h2c.553 0 1-.448 1-1v-2c0-.553-.447-1-1-1m6 0h-2c-.553 0-1 .447-1 1v2c0 .552.447 1 1 1h2c.553 0 1-.448 1-1v-2c0-.553-.447-1-1-1" fill="#fff"/></g></svg>