<svg width="32" height="40" viewBox="0 0 32 40" xmlns="http://www.w3.org/2000/svg"><title>html</title><desc>Created with Sketch.</desc><g fill="none"><path d="M4 0c-2.2 0-4 1.8-4 4v32c0 2.2 1.8 4 4 4h24c2.2 0 4-1.8 4-4v-26l-10.021-10h-17.979z" fill="#B94E4E"/><path d="M22 6.25c0 2.071 1.679 3.75 3.75 3.75h6.25l-10-9.979v6.229z" fill="#A13030"/><path d="M2.43 15.94v7.14h1.57v-3.08h2.89v3.08h1.57v-7.14h-1.57v2.74h-2.89v-2.74h-1.57zm8.99 1.32v5.82h1.57v-5.82h2.14v-1.32h-5.85v1.32h2.14zm4.53-1.32v7.14h1.47v-5.01h.02l1.75 5.01h1.21l1.75-5.06h.02v5.06h1.47v-7.14h-2.21l-1.58 4.91h-.02l-1.67-4.91h-2.21zm9.07 0v7.14h5.05v-1.32h-3.48v-5.82h-1.57z" fill="#fff"/></g></svg>