<svg width="32" height="40" viewBox="0 0 32 40" xmlns="http://www.w3.org/2000/svg"><title>img</title><desc>Created with Sketch.</desc><g fill="none"><path d="M4 0c-2.2 0-4 1.8-4 4v32c0 2.2 1.8 4 4 4h24c2.2 0 4-1.8 4-4v-26l-10.021-10h-17.979z" fill="#999"/><path d="M22 6.25c0 2.071 1.679 3.75 3.75 3.75h6.25l-10-9.979v6.229z" fill="#5C5C5C"/><path d="M22.523 13h-13.046c-1.389 0-2.477 1.055-2.477 2.401v13.198c0 1.346 1.088 2.401 2.477 2.401h13.046c1.389 0 2.477-1.055 2.477-2.401v-13.198c0-1.346-1.088-2.401-2.477-2.401m-13.046 2h13.046c.051 0 .496.012.496.401v11.619l-3.125-2.869-2.894 1.911-3.958-3.596-4.06 2.534v-9.5c0-.275.221-.5.495-.5m11.523 4c0-1.105-.895-2-2-2s-2 .895-2 2 .895 2 2 2 2-.895 2-2" fill="#fff"/></g></svg>