<svg width="32" height="40" viewBox="0 0 32 40" xmlns="http://www.w3.org/2000/svg"><title>mp3</title><desc>Created with Sketch.</desc><g fill="none"><path d="M4 0c-2.2 0-4 1.8-4 4v32c0 2.2 1.8 4 4 4h24c2.2 0 4-1.8 4-4v-26l-10.021-10h-17.979z" fill="#999"/><path d="M22 6.25c0 2.071 1.679 3.75 3.75 3.75h6.25l-10-9.979v6.229z" fill="#5C5C5C"/><path d="M6.04 15.94v7.14h1.47v-5.01h.02l1.75 5.01h1.21l1.75-5.06h.02v5.06h1.47v-7.14h-2.21l-1.58 4.91h-.02l-1.67-4.91h-2.21zm10.64 3.36v-2.14h1.22c.18 0 .353.013.52.04.167.027.313.078.44.155s.228.185.305.325c.077.14.115.323.115.55 0 .227-.038.41-.115.55-.077.14-.178.248-.305.325-.127.077-.273.128-.44.155-.167.027-.34.04-.52.04h-1.22zm-1.57-3.36v7.14h1.57v-2.56h1.65c.447 0 .827-.065 1.14-.195.313-.13.568-.302.765-.515.197-.213.34-.458.43-.735.09-.277.135-.558.135-.845 0-.293-.045-.577-.135-.85-.09-.273-.233-.517-.43-.73-.197-.213-.452-.385-.765-.515s-.693-.195-1.14-.195h-3.22zm8.26 2.97v1l.545.015c.19.01.365.047.525.11.16.063.292.165.395.305.103.14.155.343.155.61 0 .34-.11.608-.33.805-.22.197-.49.295-.81.295-.207 0-.385-.037-.535-.11-.15-.073-.275-.172-.375-.295-.1-.123-.177-.27-.23-.44-.053-.17-.083-.348-.09-.535h-1.35c-.007.407.052.767.175 1.08.123.313.298.578.525.795.227.217.502.382.825.495.323.113.682.17 1.075.17.34 0 .667-.05.98-.15.313-.1.59-.247.83-.44s.432-.433.575-.72c.143-.287.215-.613.215-.98 0-.4-.11-.743-.33-1.03-.22-.287-.523-.473-.91-.56v-.02c.327-.093.572-.27.735-.53.163-.26.245-.56.245-.9 0-.313-.07-.59-.21-.83-.14-.24-.322-.443-.545-.61-.223-.167-.475-.292-.755-.375-.28-.083-.56-.125-.84-.125-.36 0-.687.058-.98.175-.293.117-.545.282-.755.495-.21.213-.373.468-.49.765-.117.297-.182.625-.195.985h1.35c-.007-.36.082-.658.265-.895s.455-.355.815-.355c.26 0 .49.08.69.24.2.16.3.39.3.69 0 .2-.048.36-.145.48-.097.12-.22.212-.37.275-.15.063-.312.102-.485.115-.173.013-.337.013-.49 0z" fill="#fff"/></g></svg>