<svg width="32" height="40" viewBox="0 0 32 40" xmlns="http://www.w3.org/2000/svg"><title>mpp</title><desc>Created with Sketch.</desc><g fill="none"><path d="M4 0c-2.2 0-4 1.8-4 4v32c0 2.2 1.8 4 4 4h24c2.2 0 4-1.8 4-4v-26l-10.021-10h-17.979z" fill="#999"/><path d="M22 6.25c0 2.071 1.679 3.75 3.75 3.75h6.25l-10-9.979v6.229z" fill="#5C5C5C"/><path d="M5.485 15.94v7.14h1.47v-5.01h.02l1.75 5.01h1.21l1.75-5.06h.02v5.06h1.47v-7.14h-2.21l-1.58 4.91h-.02l-1.67-4.91h-2.21zm10.64 3.36v-2.14h1.22c.18 0 .353.013.52.04.167.027.313.078.44.155s.228.185.305.325c.077.14.115.323.115.55 0 .227-.038.41-.115.55-.077.14-.178.248-.305.325-.127.077-.273.128-.44.155-.167.027-.34.04-.52.04h-1.22zm-1.57-3.36v7.14h1.57v-2.56h1.65c.447 0 .827-.065 1.14-.195.313-.13.568-.302.765-.515.197-.213.34-.458.43-.735.09-.277.135-.558.135-.845 0-.293-.045-.577-.135-.85-.09-.273-.233-.517-.43-.73-.197-.213-.452-.385-.765-.515s-.693-.195-1.14-.195h-3.22zm8.24 3.36v-2.14h1.22c.18 0 .353.013.52.04.167.027.313.078.44.155s.228.185.305.325c.077.14.115.323.115.55 0 .227-.038.41-.115.55-.077.14-.178.248-.305.325-.127.077-.273.128-.44.155-.167.027-.34.04-.52.04h-1.22zm-1.57-3.36v7.14h1.57v-2.56h1.65c.447 0 .827-.065 1.14-.195.313-.13.568-.302.765-.515.197-.213.34-.458.43-.735.09-.277.135-.558.135-.845 0-.293-.045-.577-.135-.85-.09-.273-.233-.517-.43-.73-.197-.213-.452-.385-.765-.515s-.693-.195-1.14-.195h-3.22z" fill="#fff"/></g></svg>