<svg width="32" height="40" viewBox="0 0 32 40" xmlns="http://www.w3.org/2000/svg"><title>msg</title><desc>Created with Sketch.</desc><g fill="none"><path d="M4 0c-2.2 0-4 1.8-4 4v32c0 2.2 1.8 4 4 4h24c2.2 0 4-1.8 4-4v-26l-10.021-10h-17.979z" fill="#368AC0"/><path d="M22 6.25c0 2.071 1.679 3.75 3.75 3.75h6.25l-10-9.979v6.229z" fill="#1D5F8A"/><path d="M5.115 15.94v7.14h1.47v-5.01h.02l1.75 5.01h1.21l1.75-5.06h.02v5.06h1.47v-7.14h-2.21l-1.58 4.91h-.02l-1.67-4.91h-2.21zm10.14 4.77h-1.52c-.007.44.073.82.24 1.14.167.32.392.583.675.79.283.207.61.358.98.455.37.097.752.145 1.145.145.487 0 .915-.057 1.285-.17.37-.113.68-.272.93-.475.25-.203.438-.445.565-.725.127-.28.19-.583.19-.91 0-.4-.085-.728-.255-.985-.17-.257-.372-.462-.605-.615-.233-.153-.468-.265-.705-.335-.237-.07-.422-.118-.555-.145l-1.085-.28c-.277-.073-.493-.147-.65-.22-.157-.073-.262-.153-.315-.24-.053-.087-.08-.2-.08-.34 0-.153.033-.28.1-.38.067-.1.152-.183.255-.25.103-.067.218-.113.345-.14.127-.027.253-.04.38-.04.193 0 .372.017.535.05.163.033.308.09.435.17.127.08.228.19.305.33.077.14.122.317.135.53h1.52c0-.413-.078-.765-.235-1.055-.157-.29-.368-.528-.635-.715-.267-.187-.572-.322-.915-.405-.343-.083-.702-.125-1.075-.125-.32 0-.64.043-.96.13-.32.087-.607.22-.86.4-.253.18-.458.405-.615.675-.157.27-.235.588-.235.955 0 .327.062.605.185.835.123.23.285.422.485.575.2.153.427.278.68.375.253.097.513.178.78.245.26.073.517.14.77.2s.48.13.68.21c.2.08.362.18.485.3s.185.277.185.47c0 .18-.047.328-.14.445-.093.117-.21.208-.35.275-.14.067-.29.112-.45.135-.16.023-.31.035-.45.035-.207 0-.407-.025-.6-.075-.193-.05-.362-.127-.505-.23-.143-.103-.258-.238-.345-.405-.087-.167-.13-.37-.13-.61zm10.58 1.56l.16.81h1v-3.86h-3v1.17h1.58c-.047.5-.212.882-.495 1.145-.283.263-.685.395-1.205.395-.353 0-.653-.068-.9-.205-.247-.137-.447-.318-.6-.545-.153-.227-.265-.482-.335-.765-.07-.283-.105-.575-.105-.875 0-.313.035-.617.105-.91.07-.293.182-.555.335-.785.153-.23.353-.413.6-.55.247-.137.547-.205.9-.205.38 0 .703.1.97.3.267.2.447.5.54.9h1.5c-.04-.407-.15-.767-.33-1.08-.18-.313-.408-.577-.685-.79-.277-.213-.587-.375-.93-.485-.343-.11-.698-.165-1.065-.165-.547 0-1.038.097-1.475.29-.437.193-.805.46-1.105.8-.3.34-.53.738-.69 1.195-.16.457-.24.952-.24 1.485 0 .52.08 1.005.24 1.455.16.45.39.842.69 1.175.3.333.668.595 1.105.785.437.19.928.285 1.475.285.347 0 .69-.072 1.03-.215.34-.143.65-.395.93-.755z" fill="#fff"/></g></svg>