<svg width="32" height="40" viewBox="0 0 32 40" xmlns="http://www.w3.org/2000/svg"><title>note</title><desc>Created with Sketch.</desc><g fill="none"><path d="M4 0c-2.2 0-4 1.8-4 4v32c0 2.2 1.8 4 4 4h24c2.2 0 4-1.8 4-4v-26l-10.021-10h-17.979z" fill="#999"/><path d="M22 6.25c0 2.071 1.679 3.75 3.75 3.75h6.25l-10-9.979v6.229z" fill="#5C5C5C"/><path d="M2.8 15.94v7.14h1.47v-4.78h.02l2.97 4.78h1.57v-7.14h-1.47v4.79h-.02l-2.98-4.79h-1.56zm8.67 3.6c0-.313.035-.617.105-.91.07-.293.182-.555.335-.785.153-.23.353-.413.6-.55.247-.137.547-.205.9-.205s.653.068.9.205c.247.137.447.32.6.55.153.23.265.492.335.785.07.293.105.597.105.91 0 .3-.035.592-.105.875-.07.283-.182.538-.335.765-.153.227-.353.408-.6.545-.247.137-.547.205-.9.205s-.653-.068-.9-.205c-.247-.137-.447-.318-.6-.545-.153-.227-.265-.482-.335-.765-.07-.283-.105-.575-.105-.875zm-1.57 0c0 .52.08 1.005.24 1.455.16.45.39.842.69 1.175.3.333.668.595 1.105.785.437.19.928.285 1.475.285.553 0 1.047-.095 1.48-.285.433-.19.8-.452 1.1-.785.3-.333.53-.725.69-1.175.16-.45.24-.935.24-1.455 0-.533-.08-1.028-.24-1.485-.16-.457-.39-.855-.69-1.195-.3-.34-.667-.607-1.1-.8-.433-.193-.927-.29-1.48-.29-.547 0-1.038.097-1.475.29-.437.193-.805.46-1.105.8-.3.34-.53.738-.69 1.195-.16.457-.24.952-.24 1.485zm9.67-2.28v5.82h1.57v-5.82h2.14v-1.32h-5.85v1.32h2.14zm4.53-1.32v7.14h5.42v-1.32h-3.85v-1.75h3.46v-1.22h-3.46v-1.53h3.77v-1.32h-5.34z" fill="#fff"/></g></svg>