<svg width="32" height="40" viewBox="0 0 32 40" xmlns="http://www.w3.org/2000/svg"><title>pdf</title><desc>Created with Sketch.</desc><g fill="none"><path d="M4 0c-2.2 0-4 1.8-4 4v32c0 2.2 1.8 4 4 4h24c2.2 0 4-1.8 4-4v-26l-10.021-10h-17.979z" fill="#B94E4E"/><path d="M22 6.25c0 2.071 1.679 3.75 3.75 3.75h6.25l-10-9.979v6.229z" fill="#A13030"/><path d="M7.755 19.3v-2.14h1.22c.18 0 .353.013.52.04.167.027.313.078.44.155s.228.185.305.325c.077.14.115.323.115.55 0 .227-.038.41-.115.55-.077.14-.178.248-.305.325-.127.077-.273.128-.44.155-.167.027-.34.04-.52.04h-1.22zm-1.57-3.36v7.14h1.57v-2.56h1.65c.447 0 .827-.065 1.14-.195.313-.13.568-.302.765-.515.197-.213.34-.458.43-.735.09-.277.135-.558.135-.845 0-.293-.045-.577-.135-.85-.09-.273-.233-.517-.43-.73-.197-.213-.452-.385-.765-.515s-.693-.195-1.14-.195h-3.22zm8.24 5.82v-4.5h1.12c.387 0 .712.055.975.165.263.11.475.268.635.475.16.207.275.455.345.745.07.29.105.615.105.975 0 .393-.05.727-.15 1-.1.273-.233.495-.4.665-.167.17-.357.292-.57.365-.213.073-.433.11-.66.11h-1.4zm-1.57-5.82v7.14h3.08c.547 0 1.022-.092 1.425-.275.403-.183.74-.435 1.01-.755s.472-.7.605-1.14c.133-.44.2-.92.2-1.44 0-.593-.082-1.11-.245-1.55-.163-.44-.39-.807-.68-1.1-.29-.293-.633-.513-1.03-.66-.397-.147-.825-.22-1.285-.22h-3.08zm7.41 0v7.14h1.57v-2.95h2.99v-1.22h-2.99v-1.65h3.45v-1.32h-5.02z" fill="#fff"/></g></svg>