<svg width="32" height="40" viewBox="0 0 32 40" xmlns="http://www.w3.org/2000/svg"><title>prj</title><desc>Created with Sketch.</desc><g fill="none"><path d="M4 0c-2.2 0-4 1.8-4 4v32c0 2.2 1.8 4 4 4h24c2.2 0 4-1.8 4-4v-26l-10.021-10h-17.979z" fill="#999"/><path d="M22 6.25c0 2.071 1.679 3.75 3.75 3.75h6.25l-10-9.979v6.229z" fill="#5C5C5C"/><path d="M8.535 19.3v-2.14h1.22c.18 0 .353.013.52.04.167.027.313.078.44.155s.228.185.305.325c.077.14.115.323.115.55 0 .227-.038.41-.115.55-.077.14-.178.248-.305.325-.127.077-.273.128-.44.155-.167.027-.34.04-.52.04h-1.22zm-1.57-3.36v7.14h1.57v-2.56h1.65c.447 0 .827-.065 1.14-.195.313-.13.568-.302.765-.515.197-.213.34-.458.43-.735.09-.277.135-.558.135-.845 0-.293-.045-.577-.135-.85-.09-.273-.233-.517-.43-.73-.197-.213-.452-.385-.765-.515s-.693-.195-1.14-.195h-3.22zm8.24 3.23v-2.01h1.72c.36 0 .63.078.81.235.18.157.27.408.27.755 0 .36-.09.62-.27.78-.18.16-.45.24-.81.24h-1.72zm-1.57-3.23v7.14h1.57v-2.79h1.57c.393 0 .677.087.85.26.173.173.287.447.34.82.04.287.07.587.09.9.02.313.073.583.16.81h1.57c-.073-.1-.128-.222-.165-.365-.037-.143-.063-.295-.08-.455l-.035-.47-.02-.4c-.013-.18-.038-.36-.075-.54-.037-.18-.095-.345-.175-.495-.08-.15-.183-.28-.31-.39-.127-.11-.287-.192-.48-.245v-.02c.4-.16.688-.393.865-.7.177-.307.265-.67.265-1.09 0-.273-.048-.528-.145-.765-.097-.237-.237-.445-.42-.625s-.403-.322-.66-.425c-.257-.103-.545-.155-.865-.155h-3.85zm11.4 4.89v-4.89h-1.57v4.82l-.015.395c-.01.137-.04.263-.09.38-.05.117-.132.212-.245.285-.113.073-.273.11-.48.11-.187 0-.338-.03-.455-.09-.117-.06-.208-.142-.275-.245-.067-.103-.113-.228-.14-.375-.027-.147-.04-.307-.04-.48v-.32h-1.42v.62c0 .393.067.728.2 1.005.133.277.31.503.53.68.22.177.47.307.75.39.28.083.57.125.87.125.533 0 .957-.082 1.27-.245.313-.163.553-.367.72-.61.167-.243.273-.505.32-.785.047-.28.07-.537.07-.77z" fill="#fff"/></g></svg>