<svg width="32" height="40" viewBox="0 0 32 40" xmlns="http://www.w3.org/2000/svg"><title>psd</title><desc>Created with Sketch.</desc><g fill="none"><path d="M4 0c-2.2 0-4 1.8-4 4v32c0 2.2 1.8 4 4 4h24c2.2 0 4-1.8 4-4v-26l-10.021-10h-17.979z" fill="#368AC0"/><path d="M22 6.25c0 2.071 1.679 3.75 3.75 3.75h6.25l-10-9.979v6.229z" fill="#1D5F8A"/><path d="M7.475 19.3v-2.14h1.22c.18 0 .353.013.52.04.167.027.313.078.44.155s.228.185.305.325c.077.14.115.323.115.55 0 .227-.038.41-.115.55-.077.14-.178.248-.305.325-.127.077-.273.128-.44.155-.167.027-.34.04-.52.04h-1.22zm-1.57-3.36v7.14h1.57v-2.56h1.65c.447 0 .827-.065 1.14-.195.313-.13.568-.302.765-.515.197-.213.34-.458.43-.735.09-.277.135-.558.135-.845 0-.293-.045-.577-.135-.85-.09-.273-.233-.517-.43-.73-.197-.213-.452-.385-.765-.515s-.693-.195-1.14-.195h-3.22zm7.74 4.77h-1.52c-.007.44.073.82.24 1.14.167.32.392.583.675.79.283.207.61.358.98.455.37.097.752.145 1.145.145.487 0 .915-.057 1.285-.17.37-.113.68-.272.93-.475.25-.203.438-.445.565-.725.127-.28.19-.583.19-.91 0-.4-.085-.728-.255-.985-.17-.257-.372-.462-.605-.615-.233-.153-.468-.265-.705-.335-.237-.07-.422-.118-.555-.145l-1.085-.28c-.277-.073-.493-.147-.65-.22-.157-.073-.262-.153-.315-.24-.053-.087-.08-.2-.08-.34 0-.153.033-.28.1-.38.067-.1.152-.183.255-.25.103-.067.218-.113.345-.14.127-.027.253-.04.38-.04.193 0 .372.017.535.05.163.033.308.09.435.17.127.08.228.19.305.33.077.14.122.317.135.53h1.52c0-.413-.078-.765-.235-1.055-.157-.29-.368-.528-.635-.715-.267-.187-.572-.322-.915-.405-.343-.083-.702-.125-1.075-.125-.32 0-.64.043-.96.13-.32.087-.607.22-.86.4-.253.18-.458.405-.615.675-.157.27-.235.588-.235.955 0 .327.062.605.185.835.123.23.285.422.485.575.2.153.427.278.68.375.253.097.513.178.78.245.26.073.517.14.77.2s.48.13.68.21c.2.08.362.18.485.3s.185.277.185.47c0 .18-.047.328-.14.445-.093.117-.21.208-.35.275-.14.067-.29.112-.45.135-.16.023-.31.035-.45.035-.207 0-.407-.025-.6-.075-.193-.05-.362-.127-.505-.23-.143-.103-.258-.238-.345-.405-.087-.167-.13-.37-.13-.61zm6.99 1.05v-4.5h1.12c.387 0 .712.055.975.165.263.11.475.268.635.475.16.207.275.455.345.745.07.29.105.615.105.975 0 .393-.05.727-.15 1-.1.273-.233.495-.4.665-.167.17-.357.292-.57.365-.213.073-.433.11-.66.11h-1.4zm-1.57-5.82v7.14h3.08c.547 0 1.022-.092 1.425-.275.403-.183.74-.435 1.01-.755s.472-.7.605-1.14c.133-.44.2-.92.2-1.44 0-.593-.082-1.11-.245-1.55-.163-.44-.39-.807-.68-1.1-.29-.293-.633-.513-1.03-.66-.397-.147-.825-.22-1.285-.22h-3.08z" fill="#fff"/></g></svg>