<svg width="32" height="40" viewBox="0 0 32 40" xmlns="http://www.w3.org/2000/svg"><title>pub</title><desc>Created with Sketch.</desc><g fill="none"><path d="M4 0c-2.2 0-4 1.8-4 4v32c0 2.2 1.8 4 4 4h24c2.2 0 4-1.8 4-4v-26l-10.021-10h-17.979z" fill="#579E95"/><path d="M22 6.25c0 2.071 1.679 3.75 3.75 3.75h6.25l-10-9.979v6.229z" fill="#317C73"/><path d="M7.7 19.3v-2.14h1.22c.18 0 .353.013.52.04.167.027.313.078.44.155s.228.185.305.325c.077.14.115.323.115.55 0 .227-.038.41-.115.55-.077.14-.178.248-.305.325-.127.077-.273.128-.44.155-.167.027-.34.04-.52.04h-1.22zm-1.57-3.36v7.14h1.57v-2.56h1.65c.447 0 .827-.065 1.14-.195.313-.13.568-.302.765-.515.197-.213.34-.458.43-.735.09-.277.135-.558.135-.845 0-.293-.045-.577-.135-.85-.09-.273-.233-.517-.43-.73-.197-.213-.452-.385-.765-.515s-.693-.195-1.14-.195h-3.22zm12.73 4.44v-4.44h-1.57v4.44c0 .533-.107.925-.32 1.175-.213.25-.6.375-1.16.375-.32 0-.575-.045-.765-.135-.19-.09-.338-.207-.445-.35-.107-.143-.177-.308-.21-.495s-.05-.377-.05-.57v-4.44h-1.57v4.44c0 .973.265 1.693.795 2.16.53.467 1.278.7 2.245.7.953 0 1.7-.235 2.24-.705.54-.47.81-1.188.81-2.155zm2.92-1.55v-1.67h1.47c.14 0 .275.012.405.035.13.023.245.065.345.125.1.06.18.143.24.25.06.107.09.243.09.41 0 .3-.09.517-.27.65-.18.133-.41.2-.69.2h-1.59zm-1.57-2.89v7.14h3.46c.32 0 .632-.04.935-.12.303-.08.573-.203.81-.37.237-.167.425-.382.565-.645.14-.263.21-.575.21-.935 0-.447-.108-.828-.325-1.145-.217-.317-.545-.538-.985-.665.32-.153.562-.35.725-.59.163-.24.245-.54.245-.9 0-.333-.055-.613-.165-.84-.11-.227-.265-.408-.465-.545-.2-.137-.44-.235-.72-.295-.28-.06-.59-.09-.93-.09h-3.36zm1.57 5.92v-1.96h1.71c.34 0 .613.078.82.235.207.157.31.418.31.785 0 .187-.032.34-.095.46s-.148.215-.255.285c-.107.07-.23.12-.37.15-.14.03-.287.045-.44.045h-1.68z" fill="#fff"/></g></svg>