<svg width="32" height="40" viewBox="0 0 32 40" xmlns="http://www.w3.org/2000/svg"><title>rar</title><desc>Created with Sketch.</desc><g fill="none"><path d="M4 0c-2.2 0-4 1.8-4 4v32c0 2.2 1.8 4 4 4h24c2.2 0 4-1.8 4-4v-26l-10.021-10h-17.979z" fill="#999"/><path d="M22 6.25c0 2.071 1.679 3.75 3.75 3.75h6.25l-10-9.979v6.229z" fill="#5C5C5C"/><path d="M7.615 19.17v-2.01h1.72c.36 0 .63.078.81.235.18.157.27.408.27.755 0 .36-.09.62-.27.78-.18.16-.45.24-.81.24h-1.72zm-1.57-3.23v7.14h1.57v-2.79h1.57c.393 0 .677.087.85.26.173.173.287.447.34.82.04.287.07.587.09.9.02.313.073.583.16.81h1.57c-.073-.1-.128-.222-.165-.365-.037-.143-.063-.295-.08-.455l-.035-.47-.02-.4c-.013-.18-.038-.36-.075-.54-.037-.18-.095-.345-.175-.495-.08-.15-.183-.28-.31-.39-.127-.11-.287-.192-.48-.245v-.02c.4-.16.688-.393.865-.7.177-.307.265-.67.265-1.09 0-.273-.048-.528-.145-.765-.097-.237-.237-.445-.42-.625s-.403-.322-.66-.425c-.257-.103-.545-.155-.865-.155h-3.85zm9.02 4.38l.93-2.62h.02l.9 2.62h-1.85zm.15-4.38l-2.7 7.14h1.58l.56-1.59h2.67l.54 1.59h1.63l-2.67-7.14h-1.61zm6.47 3.23v-2.01h1.72c.36 0 .63.078.81.235.18.157.27.408.27.755 0 .36-.09.62-.27.78-.18.16-.45.24-.81.24h-1.72zm-1.57-3.23v7.14h1.57v-2.79h1.57c.393 0 .677.087.85.26.173.173.287.447.34.82.04.287.07.587.09.9.02.313.073.583.16.81h1.57c-.073-.1-.128-.222-.165-.365-.037-.143-.063-.295-.08-.455l-.035-.47-.02-.4c-.013-.18-.038-.36-.075-.54-.037-.18-.095-.345-.175-.495-.08-.15-.183-.28-.31-.39-.127-.11-.287-.192-.48-.245v-.02c.4-.16.688-.393.865-.7.177-.307.265-.67.265-1.09 0-.273-.048-.528-.145-.765-.097-.237-.237-.445-.42-.625s-.403-.322-.66-.425c-.257-.103-.545-.155-.865-.155h-3.85z" fill="#fff"/></g></svg>