<svg width="32" height="40" viewBox="0 0 32 40" xmlns="http://www.w3.org/2000/svg"><title>tiff</title><desc>Created with Sketch.</desc><g fill="none"><path d="M4 0c-2.2 0-4 1.8-4 4v32c0 2.2 1.8 4 4 4h24c2.2 0 4-1.8 4-4v-26l-10.021-10h-17.979z" fill="#999"/><path d="M22 6.25c0 2.071 1.679 3.75 3.75 3.75h6.25l-10-9.979v6.229z" fill="#5C5C5C"/><path d="M7.81 17.26v5.82h1.57v-5.82h2.14v-1.32h-5.85v1.32h2.14zm4.53-1.32v7.14h1.57v-7.14h-1.57zm2.95 0v7.14h1.57v-2.95h2.99v-1.22h-2.99v-1.65h3.45v-1.32h-5.02zm5.93 0v7.14h1.57v-2.95h2.99v-1.22h-2.99v-1.65h3.45v-1.32h-5.02z" fill="#fff"/></g></svg>