<svg width="32" height="40" viewBox="0 0 32 40" xmlns="http://www.w3.org/2000/svg"><title>txt</title><desc>Created with Sketch.</desc><g fill="none"><path d="M4 0c-2.2 0-4 1.8-4 4v32c0 2.2 1.8 4 4 4h24c2.2 0 4-1.8 4-4v-26l-10.021-10h-17.979z" fill="#999"/><path d="M22 6.25c0 2.071 1.679 3.75 3.75 3.75h6.25l-10-9.979v6.229z" fill="#5C5C5C"/><path d="M8.825 17.26v5.82h1.57v-5.82h2.14v-1.32h-5.85v1.32h2.14zm6.28 2.08l-2.49 3.74h1.76l1.59-2.47 1.56 2.47h1.87l-2.49-3.73 2.29-3.41h-1.72l-1.45 2.28-1.4-2.28h-1.82l2.3 3.4zm6.5-2.08v5.82h1.57v-5.82h2.14v-1.32h-5.85v1.32h2.14z" fill="#fff"/></g></svg>