<svg width="32" height="40" viewBox="0 0 32 40" xmlns="http://www.w3.org/2000/svg"><title>xls</title><desc>Created with Sketch.</desc><g fill="none"><path d="M4 0c-2.2 0-4 1.8-4 4v32c0 2.2 1.8 4 4 4h24c2.2 0 4-1.8 4-4v-26l-10.021-10h-17.979z" fill="#76B051"/><path d="M22 6.25c0 2.071 1.679 3.75 3.75 3.75h6.25l-10-9.979v6.229z" fill="#56932E"/><path d="M8.895 19.34l-2.49 3.74h1.76l1.59-2.47 1.56 2.47h1.87l-2.49-3.73 2.29-3.41h-1.72l-1.45 2.28-1.4-2.28h-1.82l2.3 3.4zm4.92-3.4v7.14h5.05v-1.32h-3.48v-5.82h-1.57zm7 4.77h-1.52c-.007.44.073.82.24 1.14.167.32.392.583.675.79.283.207.61.358.98.455.37.097.752.145 1.145.145.487 0 .915-.057 1.285-.17.37-.113.68-.272.93-.475.25-.203.438-.445.565-.725.127-.28.19-.583.19-.91 0-.4-.085-.728-.255-.985-.17-.257-.372-.462-.605-.615-.233-.153-.468-.265-.705-.335-.237-.07-.422-.118-.555-.145l-1.085-.28c-.277-.073-.493-.147-.65-.22-.157-.073-.262-.153-.315-.24-.053-.087-.08-.2-.08-.34 0-.153.033-.28.1-.38.067-.1.152-.183.255-.25.103-.067.218-.113.345-.14.127-.027.253-.04.38-.04.193 0 .372.017.535.05.163.033.308.09.435.17.127.08.228.19.305.33.077.14.122.317.135.53h1.52c0-.413-.078-.765-.235-1.055-.157-.29-.368-.528-.635-.715-.267-.187-.572-.322-.915-.405-.343-.083-.702-.125-1.075-.125-.32 0-.64.043-.96.13-.32.087-.607.22-.86.4-.253.18-.458.405-.615.675-.157.27-.235.588-.235.955 0 .327.062.605.185.835.123.23.285.422.485.575.2.153.427.278.68.375.253.097.513.178.78.245.26.073.517.14.77.2s.48.13.68.21c.2.08.362.18.485.3s.185.277.185.47c0 .18-.047.328-.14.445-.093.117-.21.208-.35.275-.14.067-.29.112-.45.135-.16.023-.31.035-.45.035-.207 0-.407-.025-.6-.075-.193-.05-.362-.127-.505-.23-.143-.103-.258-.238-.345-.405-.087-.167-.13-.37-.13-.61z" fill="#fff"/></g></svg>