<svg width="32" height="40" viewBox="0 0 32 40" xmlns="http://www.w3.org/2000/svg"><title>xml</title><desc>Created with Sketch.</desc><g fill="none"><path d="M4 0c-2.2 0-4 1.8-4 4v32c0 2.2 1.8 4 4 4h24c2.2 0 4-1.8 4-4v-26l-10.021-10h-17.979z" fill="#999"/><path d="M22 6.25c0 2.071 1.679 3.75 3.75 3.75h6.25l-10-9.979v6.229z" fill="#5C5C5C"/><path d="M7.605 19.34l-2.49 3.74h1.76l1.59-2.47 1.56 2.47h1.87l-2.49-3.73 2.29-3.41h-1.72l-1.45 2.28-1.4-2.28h-1.82l2.3 3.4zm4.92-3.4v7.14h1.47v-5.01h.02l1.75 5.01h1.21l1.75-5.06h.02v5.06h1.47v-7.14h-2.21l-1.58 4.91h-.02l-1.67-4.91h-2.21zm9.07 0v7.14h5.05v-1.32h-3.48v-5.82h-1.57z" fill="#fff"/></g></svg>