<svg width="18" height="18" viewBox="0 0 18 18" xmlns="http://www.w3.org/2000/svg" xmlns:sketch="http://www.bohemiancoding.com/sketch/ns"><title>amend</title><desc>Created with Sketch.</desc><path d="M16.996 2.459c-.023-1.359-1.132-2.459-2.496-2.459h-11c-1.364 0-2.473 1.1-2.496 2.459h-.004v13.041c0 1.378 1.122 2.5 2.5 2.5h11c1.378 0 2.5-1.122 2.5-2.5v-13.041h-.004zm-13.996 9.041v-1c0-.275.225-.5.5-.5h11c.275 0 .5.225.5.5v1c0 .275-.225.5-.5.5h-11c-.275 0-.5-.225-.5-.5zm0-9c0-.275.225-.5.5-.5h11c.275 0 .5.225.5.5v1c0 .275-.225.5-.5.5h-11c-.275 0-.5-.225-.5-.5v-1zm12 13c0 .275-.225.5-.5.5h-11c-.275 0-.5-.225-.5-.5v-1c0-.275.225-.5.5-.5h11c.275 0 .5.225.5.5v1z" sketch:type="MSShapeGroup" fill="#343434"/></svg>