<svg width="18" height="18" viewBox="0 0 18 18" xmlns="http://www.w3.org/2000/svg" xmlns:sketch="http://www.bohemiancoding.com/sketch/ns"><title>area</title><desc>Created with Sketch.</desc><path d="M18 1.005c.002-.405-.241-.772-.615-.928-.373-.155-.805-.072-1.092.216l-5.5 5.5-4.793-4.793-4 4v-4c0-.553-.447-1-1-1-.553 0-1 .447-1 1v13.5c0 1.93 1.57 3.5 3.5 3.5h13.5c.404 0 .769-.243.924-.617.07-.17.091-.35.066-.524-.043-.832-.017-9.888.01-15.854zm-14.5 14.995c-.827 0-1.5-.673-1.5-1.5v-4.419l3.375 2.7c.396.317.971.287 1.332-.074l9.281-9.281c-.034 7.437-.044 10.904.007 12.574h-12.495z" sketch:type="MSShapeGroup" fill="#343434"/></svg>