<svg xmlns="http://www.w3.org/2000/svg" viewBox="0 0 18 18" enable-background="new 0 0 18 18"><style type="text/css">.st0{fill-rule:evenodd;clip-rule:evenodd;fill:#5C5C5C;}</style><path id="XMLID_3209_" class="st0" d="M16.1 1c-3.5 0-5.9.4-7.1 1.2-1.4-.9-4.5-1.2-7.1-1.2-.2 0-.5.1-.6.3-.2.1-.3.4-.3.6v12.4c0 .5.4.9.9.9 5.1 0 6.1.9 6.2 1.1.1.4.5.7.9.7.5 0 .8-.3.9-.8.5-.5 3.4-1 6.2-1 .5 0 .9-.4.9-.9v-12.4c0-.5-.4-.9-.9-.9zm-8 13.2c-1.2-.5-3-.7-5.3-.8v-10.6c2.5.1 4.9.5 5.3 1v10.4zm7.1-.7c-2.4.1-4.1.3-5.3.8v-10.5c.4-.5 2.8-.9 5.3-1v10.7z"/></svg>