<svg width="18" height="18" viewBox="0 0 18 18" xmlns="http://www.w3.org/2000/svg" xmlns:sketch="http://www.bohemiancoding.com/sketch/ns"><title>bubble</title><desc>Created with Sketch.</desc><path d="M17 16h-13.5c-.827 0-1.5-.673-1.5-1.5v-13.5c0-.552-.448-1-1-1s-1 .448-1 1v13.5c0 1.93 1.57 3.5 3.5 3.5h13.5c.552 0 1-.447 1-1 0-.553-.448-1-1-1zm-11-7c1.105 0 2-.895 2-2s-.895-2-2-2-2 .895-2 2 .895 2 2 2zm7-1c1.657 0 3-1.343 3-3s-1.343-3-3-3-3 1.343-3 3 1.343 3 3 3zm-2.5 5c.828 0 1.5-.671 1.5-1.5 0-.828-.672-1.5-1.5-1.5s-1.5.672-1.5 1.5c0 .829.672 1.5 1.5 1.5z" sketch:type="MSShapeGroup" fill="#2F2C2C"/></svg>