<svg width="18" height="18" viewBox="0 0 18 18" xmlns="http://www.w3.org/2000/svg" xmlns:sketch="http://www.bohemiancoding.com/sketch/ns"><title>calculator</title><desc>Created with Sketch.</desc><path d="M15.5 0h-12c-1.379 0-2.5 1.121-2.5 2.5v13c0 1.379 1.121 2.5 2.5 2.5h12c1.378 0 2.5-1.121 2.5-2.5v-13c0-1.379-1.122-2.5-2.5-2.5zm-9.5 14c0 .55-.45 1-1 1h-1c-.55 0-1-.45-1-1v-1c0-.55.45-1 1-1h1c.55 0 1 .45 1 1v1zm0-5c0 .55-.45 1-1 1h-1c-.55 0-1-.45-1-1v-1c0-.55.45-1 1-1h1c.55 0 1 .45 1 1v1zm5 5c0 .55-.45 1-1 1h-1c-.55 0-1-.45-1-1v-1c0-.55.45-1 1-1h1c.55 0 1 .45 1 1v1zm0-5c0 .55-.45 1-1 1h-1c-.55 0-1-.45-1-1v-1c0-.55.45-1 1-1h1c.55 0 1 .45 1 1v1zm5 5c0 .55-.45 1-1 1h-1c-.55 0-1-.45-1-1v-1c0-.55.45-1 1-1h1c.55 0 1 .45 1 1v1zm0-5c0 .55-.45 1-1 1h-1c-.55 0-1-.45-1-1v-1c0-.55.45-1 1-1h1c.55 0 1 .45 1 1v1zm-1-5h-11c-.55 0-1-.45-1-1s.45-1 1-1h11c.55 0 1 .45 1 1s-.45 1-1 1z" sketch:type="MSShapeGroup" fill="#2F2C2C"/></svg>