<svg width="18" height="18" viewBox="0 0 18 18" xmlns="http://www.w3.org/2000/svg" xmlns:sketch="http://www.bohemiancoding.com/sketch/ns"><title>cascade</title><desc>Created with Sketch.</desc><path d="M6 11v-5h5c.552 0 1-.448 1-1s-.448-1-1-1h-4.5c-1.381 0-2.5 1.119-2.5 2.5v4.5c0 .552.448 1 1 1s1-.448 1-1zm-4-4v-5h5c.552 0 1-.448 1-1s-.448-1-1-1h-4.5c-1.381 0-2.5 1.119-2.5 2.5v4.5c0 .552.448 1 1 1s1-.448 1-1zm13.5 1h-5c-1.379 0-2.5 1.122-2.5 2.5v5c0 1.379 1.121 2.5 2.5 2.5h5c1.379 0 2.5-1.121 2.5-2.5v-5c0-1.378-1.121-2.5-2.5-2.5zm-5.5 4h6v4h-6v-4z" sketch:type="MSShapeGroup" fill="#2F2C2C"/></svg>