<svg width="18" height="18" viewBox="0 0 18 18" xmlns="http://www.w3.org/2000/svg" xmlns:sketch="http://www.bohemiancoding.com/sketch/ns"><title>change-font</title><desc>Created with Sketch.</desc><path d="M2.508.927c.139-.37.399-.5.799-.5h.389c.37 0 .701.09.88.599l1.979 5.507c.06.16.16.45.16.63 0 .401-.35.72-.77.72-.359 0-.619-.13-.739-.451l-.42-1.199h-2.639l-.429 1.199c-.111.321-.34.451-.73.451-.45 0-.759-.281-.759-.72 0-.18.099-.47.16-.63l2.119-5.606zm.989 1.279h-.02l-.969 2.889h1.919l-.93-2.889zm5.84 13.704l-.304 1.007c-.228.779-1.083 1.083-1.766 1.083-.989 0-1.995-.741-1.995-1.767 0-.627.361-1.634.683-2.545l2.907-8.093c.418-1.14.988-1.767 2.09-1.767h1.367c1.103 0 1.672.627 2.09 1.767l2.907 8.093c.323.911.684 1.918.684 2.545 0 1.026-1.007 1.767-1.995 1.767-.684 0-1.539-.304-1.767-1.083l-.303-1.007h-4.598zm2.317-7.731h-.037l-1.482 4.996h3.002l-1.483-4.996z" sketch:type="MSShapeGroup" fill="#2F2C2C"/></svg>