<svg width="18" height="18" viewBox="0 0 18 18" xmlns="http://www.w3.org/2000/svg" xmlns:sketch="http://www.bohemiancoding.com/sketch/ns"><title>clear-screen</title><desc>Created with Sketch.</desc><path d="M7 7v-1h9v5.5c0 .275-.225.5-.5.5h-3.5c-.552 0-1 .448-1 1s.448 1 1 1h3.5c1.381 0 2.5-1.119 2.5-2.5v-7c0-1.381-1.119-2.5-2.5-2.5h-8c-1.381 0-2.5 1.119-2.5 2.5v2.5c0 .552.448 1 1 1s1-.448 1-1zm-.086 6.5l1.793-1.793c.391-.391.391-1.023 0-1.414s-1.023-.391-1.414 0l-1.793 1.793-1.793-1.793c-.391-.391-1.023-.391-1.414 0s-.391 1.023 0 1.414l1.793 1.793-1.793 1.793c-.391.391-.391 1.023 0 1.414.195.195.451.293.707.293.256 0 .512-.098.707-.293l1.793-1.793 1.793 1.793c.195.195.451.293.707.293.256 0 .512-.098.707-.293.391-.391.391-1.023 0-1.414l-1.793-1.793z" sketch:type="MSShapeGroup" fill="#2F2C2C"/></svg>