<svg width="18" height="18" viewBox="0 0 18 18" xmlns="http://www.w3.org/2000/svg" xmlns:sketch="http://www.bohemiancoding.com/sketch/ns"><title>close-and-cancel-changes</title><desc>Created with Sketch.</desc><path d="M9 12h-4c-.55 0-1 .45-1 1s.45 1 1 1h4c.55 0 1-.45 1-1s-.45-1-1-1zm-1-4h-3c-.55 0-1 .45-1 1s.45 1 1 1h3c.55 0 1-.45 1-1s-.45-1-1-1zm0-4h-5.5c-1.381 0-2.5 1.119-2.5 2.5v9c0 1.381 1.119 2.5 2.5 2.5h9c1.381 0 2.5-1.119 2.5-2.5v-4.5c0-.552-.448-1-1-1s-1 .448-1 1v4.5c0 .276-.224.5-.5.5h-9c-.276 0-.5-.224-.5-.5v-9c0-.276.224-.5.5-.5h5.5c.552 0 1-.448 1-1s-.448-1-1-1zm9.707-2.707c-.391-.391-1.023-.391-1.414 0l-1.793 1.793-1.793-1.793c-.391-.391-1.023-.391-1.414 0s-.391 1.024 0 1.414l1.793 1.793-1.793 1.793c-.391.391-.391 1.023 0 1.414.195.195.451.293.707.293.256 0 .512-.098.707-.293l1.793-1.793 1.793 1.793c.195.195.451.293.707.293.256 0 .512-.098.707-.293.391-.391.391-1.023 0-1.414l-1.793-1.793 1.793-1.793c.391-.39.391-1.023 0-1.414z" sketch:type="MSShapeGroup" fill="#343434"/></svg>