<svg width="18" height="18" viewBox="0 0 18 18" xmlns="http://www.w3.org/2000/svg" xmlns:sketch="http://www.bohemiancoding.com/sketch/ns"><title>close-and-save-changes</title><desc>Created with Sketch.</desc><path d="M17.993 3.886c0-3.865-3.993-3.886-3.993-3.886v2h-3v-2h-1c-.55 0-1 .45-1 1v6c0 1.104.895 2 2 2h5c1.105 0 2-.896 2-2v-3l-.007-.114zm-6.993.114h5v3h-5v-3zm-2 8h-4c-.55 0-1 .45-1 1s.45 1 1 1h4c.55 0 1-.45 1-1s-.45-1-1-1zm-3-4h-1c-.55 0-1 .45-1 1s.45 1 1 1h1c.55 0 1-.45 1-1s-.45-1-1-1zm0-4h-3.5c-1.381 0-2.5 1.119-2.5 2.5v9c0 1.381 1.119 2.5 2.5 2.5h9c1.381 0 2.5-1.119 2.5-2.5v-2.5c0-.552-.448-1-1-1s-1 .448-1 1v2.5c0 .276-.224.5-.5.5h-9c-.276 0-.5-.224-.5-.5v-9c0-.276.224-.5.5-.5h3.5c.552 0 1-.448 1-1s-.448-1-1-1z" sketch:type="MSShapeGroup" fill="#343434"/></svg>