<svg width="18" height="18" viewBox="0 0 18 18" xmlns="http://www.w3.org/2000/svg"><title>collapse-all</title><desc>Created with Sketch.</desc><path d="M13.01 10h-4.02c-.546 0-.99.443-.99.99v.02c0 .547.444.99.99.99h4.02c.547 0 .99-.443.99-.99v-.02c0-.547-.443-.99-.99-.99m2.99 5.5c0 .275-.225.5-.5.5h-9c-.275 0-.5-.225-.5-.5v-8.998c0-.277.22-.5.497-.5l9.003.011c.278 0 .5.221.5.5v8.987zm-.5-11.5h-9c-1.378 0-2.5 1.122-2.5 2.5v9c0 1.378 1.122 2.5 2.5 2.5h9c1.379 0 2.5-1.122 2.5-2.5v-9c0-1.378-1.121-2.5-2.5-2.5zm-1.5-3c0-.552-.448-1-1-1h-10.5c-1.381 0-2.5 1.119-2.5 2.5v10.5c0 .552.448 1 1 1s1-.448 1-1v-11h11c.552 0 1-.448 1-1" fill="#5C5C5C"/></svg>