<svg width="18" height="18" viewBox="0 0 18 18" xmlns="http://www.w3.org/2000/svg" xmlns:sketch="http://www.bohemiancoding.com/sketch/ns"><title>connect</title><desc>Created with Sketch.</desc><path d="M15.5 5h-3c-1.375 0-2.5 1.125-2.5 2.5v.5h-2v-.5c0-1.375-1.125-2.5-2.5-2.5h-3c-1.375 0-2.5 1.125-2.5 2.5v3c0 1.375 1.125 2.5 2.5 2.5h3c1.375 0 2.5-1.125 2.5-2.5v-.5h2v.5c0 1.375 1.125 2.5 2.5 2.5h3c1.375 0 2.5-1.125 2.5-2.5v-3c0-1.375-1.125-2.5-2.5-2.5zm-9.5 5.5c0 .271-.229.5-.5.5h-3c-.271 0-.5-.229-.5-.5v-3c0-.271.229-.5.5-.5h3c.271 0 .5.229.5.5v3zm10 0c0 .271-.229.5-.5.5h-3c-.271 0-.5-.229-.5-.5v-3c0-.271.229-.5.5-.5h3c.271 0 .5.229.5.5v3z" sketch:type="MSShapeGroup" fill="#606266"/></svg>