<svg width="18" height="18" viewBox="0 0 18 18" xmlns="http://www.w3.org/2000/svg" xmlns:sketch="http://www.bohemiancoding.com/sketch/ns"><title>contacts</title><desc>Created with Sketch.</desc><path d="M15.5 0h-11c-1.207 0-2.217.86-2.449 2h-1.061c-.547 0-.99.443-.99.99v.02c0 .547.443.99.99.99h1.01v2h-1.01c-.547 0-.99.443-.99.99v.019c0 .547.443.991.99.991h1.01v2h-1.01c-.547 0-.99.443-.99.99v.02c0 .546.443.99.99.99h1.01v2h-1.01c-.547 0-.99.443-.99.99v.02c0 .547.443.99.99.99h1.061c.232 1.14 1.242 2 2.449 2h11c1.379 0 2.5-1.122 2.5-2.5v-13c0-1.379-1.121-2.5-2.5-2.5zm-5.5 4c1.105 0 2 .895 2 2s-.895 2-2 2-2-.895-2-2 .895-2 2-2zm0 11c-4 0-4-1-4-1 0-3.979 4-4 4-4 3.979.146 4 4 4 4s0 1-4 1z" sketch:type="MSShapeGroup" fill="#343434"/></svg>