<svg width="18" height="18" viewBox="0 0 18 18" xmlns="http://www.w3.org/2000/svg" xmlns:sketch="http://www.bohemiancoding.com/sketch/ns"><title>copy-from</title><desc>Created with Sketch.</desc><path d="M13.978 18h.522c1.381 0 2.5-1.119 2.5-2.5v-10.672c0-.53-.211-1.039-.586-1.414l-2.828-2.828c-.375-.375-.884-.586-1.414-.586h-6.672c-1.381 0-2.5 1.119-2.5 2.5v3.5c0 .553.447 1 1 1 .553 0 1-.447 1-1v-3.5c0-.276.224-.5.5-.5h5.5v3c0 .55.45 1 1 1h3v9.5c0 .276-.224.5-.5.5h-.522c-.542 0-.983.437-.986.979v.031c-.003.546.44.99.986.99zm-2.985-5.114c0-3.865-3.993-3.886-3.993-3.886v2h-3v-2h-1c-.55 0-1 .45-1 1v6c0 1.104.895 2 2 2h5c1.105 0 2-.896 2-2v-3l-.007-.114zm-6.993.114h5v3h-5v-3z" sketch:type="MSShapeGroup" fill="#343434"/></svg>