<svg width="18" height="18" viewBox="0 0 18 18" xmlns="http://www.w3.org/2000/svg" xmlns:sketch="http://www.bohemiancoding.com/sketch/ns"><title>copy-URL</title><desc>Created with Sketch.</desc><path d="M13.978 18h.522c1.381 0 2.5-1.119 2.5-2.5v-10.672c0-.53-.211-1.039-.586-1.414l-2.828-2.828c-.375-.375-.884-.586-1.414-.586h-6.672c-1.381 0-2.5 1.119-2.5 2.5v3.5c0 .553.447 1 1 1 .553 0 1-.447 1-1v-3.5c0-.276.224-.5.5-.5h5.5v3c0 .55.45 1 1 1h3v9.5c0 .276-.224.5-.5.5h-.522c-.542 0-.983.437-.986.979v.031c-.003.546.44.99.986.99zm-6.978-10c-2.722 0-5 2.279-5 5s2.28 5 5 5 5-2.279 5-5c0-2.722-2.277-5-5-5zm.013 8c-1.684 0-3.013-1.343-3.013-3 0-.354.06-.689.172-1.005.065.002.841.027.841 1.005 0 1 1 1 1 1-.001 0 1 0 1 1v1zm2.09-.864c.001-.015.031-1.136-1.103-1.136-1 0-1-1-1-1 0-.635.423-1 1-1 1.128 0 1.127-1.113 1.127-1.113.539.541.873 1.288.873 2.113 0 .837-.344 1.592-.897 2.136z" sketch:type="MSShapeGroup" fill="#343434"/></svg>