<svg width="18" height="18" viewBox="0 0 18 18" xmlns="http://www.w3.org/2000/svg" xmlns:sketch="http://www.bohemiancoding.com/sketch/ns"><title>counter-clockwise-90-degrees</title><desc>Created with Sketch.</desc><path d="M5.664 9.004h-1.187c.464-2.282 2.494-4.004 4.91-4.004 2.052 0 3.806 1.118 4.572 2.924.184.432.644.675 1.104.583.612-.122.983-.78.734-1.354-1.08-2.492-3.548-4.153-6.415-4.153-3.523 0-6.442 2.615-6.928 6.004h-1.327c-.605 0-.857.583-.732 1l2.42 4.436c.292.377.789.376 1.16-.15l2.42-4.286c.125-.52-.126-1-.731-1zm10.336 2h-1c-.552 0-1 .448-1 1v1c0 .552.448 1 1 1h1c.552 0 1-.448 1-1v-1c0-.552-.448-1-1-1z" sketch:type="MSShapeGroup" fill="#2F2C2C"/></svg>