<svg width="18" height="18" viewBox="0 0 18 18" xmlns="http://www.w3.org/2000/svg" xmlns:sketch="http://www.bohemiancoding.com/sketch/ns"><title>dashboard</title><desc>Created with Sketch.</desc><path d="M10.6 5.358c.395.096.811-.028 1.049-.358l.046-.063c.391-.541.13-1.327-.517-1.492-3.841-.984-8.111.642-10.177 4.467-.534.99-.863 2.057-.994 3.141-.071.586.395 1.103.986 1.104.495 0 .907-.367.972-.857.089-.666.276-1.329.566-1.97 1.484-3.285 4.947-4.73 8.069-3.972zm5.368 3.51c-.301.278-.381.707-.248 1.095.151.44.255.888.315 1.337.065.49.477.857.972.857.591-.001 1.057-.518.986-1.104-.072-.594-.203-1.182-.394-1.755-.232-.693-1.095-.927-1.631-.43zm-.347-3.661c-.39-.39-1.023-.39-1.414 0l-4.867 4.867c-.164-.043-.333-.074-.511-.074-1.105 0-2 .896-2 2s.895 2 2 2c1.104 0 2-.896 2-2 0-.178-.031-.347-.075-.512l4.867-4.866c.391-.391.391-1.024 0-1.415z" sketch:type="MSShapeGroup" fill="#343434"/></svg>