<svg width="18" height="18" viewBox="0 0 18 18" xmlns="http://www.w3.org/2000/svg" xmlns:sketch="http://www.bohemiancoding.com/sketch/ns"><title>del-grid-record</title><desc>Created with Sketch.</desc><path d="M16.707 11.293c-.391-.391-1.023-.391-1.414 0l-1.793 1.793-1.793-1.793c-.391-.391-1.023-.391-1.414 0s-.391 1.023 0 1.414l1.793 1.793-1.793 1.793c-.391.39-.391 1.023 0 1.414.195.195.451.293.707.293.256 0 .512-.098.707-.293l1.793-1.793 1.793 1.793c.195.195.451.293.707.293.256 0 .512-.098.707-.293.391-.391.391-1.024 0-1.414l-1.793-1.793 1.793-1.793c.391-.391.391-1.023 0-1.414zm-7.707-2.293h7c.552 0 1-.448 1-1v-5.542h-.004c-.023-1.359-1.132-2.458-2.496-2.458h-11c-1.381 0-2.5 1.119-2.5 2.5v13c0 1.381 1.119 2.5 2.5 2.5h3.5c.552 0 1-.448 1-1v-7c0-.552.448-1 1-1zm3-7h2.5c.275 0 .5.225.5.5v1c0 .275-.225.5-.5.5h-2.5v-2zm0 4h2.5c.275 0 .5.225.5.5v1c0 .275-.225.5-.5.5h-2.5v-2zm-4 0h2v2h-2v-2zm-2 10h-2.5c-.275 0-.5-.225-.5-.5v-1c0-.275.225-.5.5-.5h2.5v2zm0-4h-2.5c-.275 0-.5-.225-.5-.5v-1c0-.275.225-.5.5-.5h2.5v2zm0-4h-2.5c-.275 0-.5-.225-.5-.5v-1c0-.275.225-.5.5-.5h2.5v2zm0-4h-2.5c-.275 0-.5-.225-.5-.5v-1c0-.275.225-.5.5-.5h2.5v2z" sketch:type="MSShapeGroup" fill="#343434"/></svg>