<svg width="18" height="18" viewBox="0 0 18 18" xmlns="http://www.w3.org/2000/svg" xmlns:sketch="http://www.bohemiancoding.com/sketch/ns"><title>display</title><desc>Created with Sketch.</desc><path d="M3.531 16h-.031c-.276 0-.5-.224-.5-.5v-13c0-.276.224-.5.5-.5h.031c.553 0 1-.448 1-1h.016c0-.549-.519-.992-1.068-.998-1.37.011-2.479 1.124-2.479 2.498v13c0 1.374 1.109 2.487 2.479 2.498.549-.006 1.068-.449 1.068-.998h-.016c0-.552-.447-1-1-1zm11.938 0h.031c.276 0 .5-.224.5-.5v-13c0-.276-.224-.5-.5-.5h-.031c-.553 0-1-.448-1-1h-.016c0-.549.52-.992 1.068-.998 1.371.011 2.479 1.124 2.479 2.498v13c0 1.374-1.108 2.487-2.479 2.498-.548-.006-1.068-.449-1.068-.998h.016c0-.552.447-1 1-1zm-2.055-9.253l-2.161-2.161c-.376-.375-.884-.586-1.415-.586h-2.338c-1.379 0-2.5 1.121-2.5 2.5v5c0 1.379 1.121 2.5 2.5 2.5h4c1.379 0 2.5-1.121 2.5-2.5v-3.338c0-.531-.211-1.039-.586-1.415zm-1.414 4.753c0 .276-.224.5-.5.5h-4c-.276 0-.5-.224-.5-.5v-5c0-.276.224-.5.5-.5h1.5v2c0 .55.45 1 1 1h2v2.5z" sketch:type="MSShapeGroup" fill="#343434"/></svg>