<svg width="18" height="18" viewBox="0 0 18 18" xmlns="http://www.w3.org/2000/svg" xmlns:sketch="http://www.bohemiancoding.com/sketch/ns"><title>employee-directory</title><desc>Created with Sketch.</desc><g sketch:type="MSLayerGroup" fill="#3A3E3E"><path d="M7 8c.276 0 .541-.04.798-.1.587-.626 1.304-1.127 2.111-1.456.373-.556.591-1.224.591-1.944 0-1.932-1.566-3.5-3.5-3.5-1.933 0-3.5 1.568-3.5 3.5 0 1.933 1.567 3.5 3.5 3.5m-.833 4c0-1 .249-1.942.683-2.772-3.796.081-6.85 3.177-6.85 6.993 0 .001 0 1.728 2 1.728h9.425c-2.959-.367-5.258-2.892-5.258-5.949" sketch:type="MSShapeGroup"/><path d="M12 14c-1.102 0-2-.897-2-2 0-1.102.898-2 2-2 1.102 0 2 .898 2 2 0 1.103-.898 2-2 2zm5.543 2.128l-2.109-2.109c.35-.595.566-1.28.566-2.019 0-2.206-1.794-4-4-4s-4 1.794-4 4 1.794 4 4 4c.739 0 1.424-.216 2.019-.566l2.109 2.109c.387.387 1.014.387 1.4 0l.015-.015c.387-.386.387-1.013 0-1.4z" sketch:type="MSShapeGroup"/></g></svg>
