<svg width="18" height="18" viewBox="0 0 18 18" xmlns="http://www.w3.org/2000/svg" xmlns:sketch="http://www.bohemiancoding.com/sketch/ns"><title>expense-report</title><desc>Created with Sketch.</desc><path d="M10 16h2-2zm4-.05c1.14-.233 2-1.243 2-2.45v-11c0-1.379-1.122-2.5-2.5-2.5h-9c-1.378 0-2.5 1.121-2.5 2.5v11c0 1.207.86 2.217 2 2.45l2 .05h2l6-.05zm-1-4.94c0 .547-.443.99-.99.99h-3.02c-.547 0-.99-.443-.99-.99v-.02c0-.547.443-.99.99-.99h3.02c.547 0 .99.443.99.99v.02zm0-4c0 .546-.443.99-.99.99h-6.02c-.547 0-.99-.444-.99-.99v-.02c0-.547.443-.99.99-.99h6.02c.547 0 .99.443.99.99v.02zm0-4.001c0 .547-.443.991-.99.991h-6.02c-.547 0-.99-.444-.99-.991v-.019c0-.547.443-.99.99-.99h6.02c.547 0 .99.443.99.99v.019zm-10 10.991c-.55 0-1 .45-1 1v2c0 .55.45 1 1 1s1-.45 1-1v-2c0-.55-.45-1-1-1zm4 0c-.55 0-1 .45-1 1v2c0 .55.45 1 1 1s1-.45 1-1v-2c0-.55-.45-1-1-1zm4 0c-.55 0-1 .45-1 1v2c0 .55.45 1 1 1s1-.45 1-1v-2c0-.55-.45-1-1-1zm4 0c-.55 0-1 .45-1 1v2c0 .55.45 1 1 1s1-.45 1-1v-2c0-.55-.45-1-1-1z" sketch:type="MSShapeGroup" fill="#2F2C2C"/></svg>