<svg width="18" height="18" viewBox="0 0 18 18" xmlns="http://www.w3.org/2000/svg" xmlns:sketch="http://www.bohemiancoding.com/sketch/ns"><title>export-to-PDF</title><desc>Created with Sketch.</desc><path d="M2.732 5h1.268v1c0 .553.447 1 1 1 .553 0 1-.447 1-1v-1h1.269c.605 0 .947-.887.58-1.361l-2.269-3.329c-.292-.378-.868-.428-1.16-.05l-2.268 3.403c-.368.476-.025 1.337.58 1.337zm12.682-.586l-2.828-2.828c-.375-.375-.884-.586-1.415-.586h-1.171v5c0 .55.45 1 1 1h3v2h-10c-.552 0-1 .447-1 1v5.5c0 1.381 1.119 2.5 2.5 2.5h8c1.381 0 2.5-1.119 2.5-2.5v-9.672c0-.53-.211-1.039-.586-1.414zm-8.414 7.586v2h-2v2h-1v-5h3v1zm4 3c0 .552-.448 1-1 1h-2v-5h2c.552 0 1 .448 1 1v3zm4-3h-2v1h1v1h-1v2h-1v-5h3v1zm-10 0h1v1h-1v-1zm4 0h1v3h-1v-3z" sketch:type="MSShapeGroup" fill="#2F2C2C"/></svg>