<svg width="18" height="18" viewBox="0 0 18 18" xmlns="http://www.w3.org/2000/svg" xmlns:sketch="http://www.bohemiancoding.com/sketch/ns"><title>get-more-row</title><desc>Created with Sketch.</desc><path d="M15 4c-.552 0-1 .447-1 1v1h-1c-.552 0-1 .448-1 1s.448 1 1 1h1v1c0 .552.448 1 1 1s1-.448 1-1v-1h1c.552 0 1-.448 1-1s-.448-1-1-1h-1v-1c0-.553-.448-1-1-1zm0 10h-12.5c-1.381 0-2.5-1.119-2.5-2.5v-1c0-1.381 1.119-2.5 2.5-2.5h6.5c.552 0 1 .447 1 1 0 .552-.448 1-1 1h-6.5c-.275 0-.5.225-.5.5v1c0 .275.225.5.5.5h12.5c.552 0 1 .448 1 1s-.448 1-1 1zm1-13c0 .552-.448 1-1 1h-12.5c-.275 0-.5.225-.5.5v2c0 .275.225.5.5.5h6.5c.552 0 1 .447 1 1 0 .552-.448 1-1 1h-6.5c-1.381 0-2.5-1.12-2.5-2.5v-2c0-1.381 1.119-2.5 2.5-2.5h12.5c.552 0 1 .448 1 1zm1 17h-16c-.55 0-1-.45-1-1s.45-1 1-1h16c.55 0 1 .45 1 1s-.45 1-1 1z" sketch:type="MSShapeGroup" fill="#343434"/></svg>