<svg width="18" height="18" viewBox="0 0 18 18" xmlns="http://www.w3.org/2000/svg" xmlns:sketch="http://www.bohemiancoding.com/sketch/ns"><title>group</title><desc>Created with Sketch.</desc><path d="M11.5 3c.271 0 .5.229.5.5v8c0 .271-.229.5-.5.5h-8c-.271 0-.5-.229-.5-.5v-8c0-.271.229-.5.5-.5h8m0-2h-8c-1.375 0-2.5 1.125-2.5 2.5v8c0 1.375 1.125 2.5 2.5 2.5h8c1.375 0 2.5-1.125 2.5-2.5v-8c0-1.375-1.125-2.5-2.5-2.5m4 6c.271 0 .5.229.5.5v8c0 .271-.229.5-.5.5h-8c-.271 0-.5-.229-.5-.5v-8c0-.271.229-.5.5-.5h8m0-2h-8c-1.375 0-2.5 1.125-2.5 2.5v8c0 1.375 1.125 2.5 2.5 2.5h8c1.375 0 2.5-1.125 2.5-2.5v-8c0-1.375-1.125-2.5-2.5-2.5" sketch:type="MSShapeGroup" fill="#3F4347"/></svg>