<svg width="18" height="18" viewBox="0 0 18 18" xmlns="http://www.w3.org/2000/svg" xmlns:sketch="http://www.bohemiancoding.com/sketch/ns"><title>HCM-button-icon-check-x</title><desc>Created with Sketch.</desc><path d="M14.414 13l3.293-3.293c.391-.391.391-1.023 0-1.414s-1.023-.391-1.414 0l-3.293 3.293-3.293-3.293c-.391-.391-1.023-.391-1.414 0s-.391 1.023 0 1.414l3.293 3.293-3.293 3.293c-.391.39-.391 1.023 0 1.414.195.195.451.293.707.293.256 0 .512-.098.707-.293l3.293-3.293 3.293 3.293c.195.195.451.293.707.293.256 0 .512-.098.707-.293.391-.391.391-1.024 0-1.414l-3.293-3.293zm-10.351-5c-.254 0-.508-.096-.703-.288l-3.063-3.001c-.393-.388-.397-1.021-.008-1.414.387-.394 1.021-.396 1.414-.009l2.353 2.3 5.235-5.293c.39-.39 1.022-.393 1.414-.005.392.39.394 1.023.004 1.415l-5.937 6c-.196.196-.453.295-.709.295z" sketch:type="MSShapeGroup" fill="#2F2C2C"/></svg>