<svg width="18" height="18" viewBox="0 0 18 18" xmlns="http://www.w3.org/2000/svg" xmlns:sketch="http://www.bohemiancoding.com/sketch/ns"><title>headphones</title><desc>Created with Sketch.</desc><path d="M16 8c0-3.86-3.141-7-7-7s-7 3.14-7 7v3c0 1.1.9 2 2 2s2-.9 2-2v-1c0-1.1-.9-2-2-2 0-2.757 2.243-5 5-5s5 2.243 5 5c-1.1 0-2 .9-2 2v1c0 1.1.9 2 2 2v1.5c0 .275-.225.5-.5.5h-2.777c-.347-.595-.985-1-1.723-1-1.104 0-2 .895-2 2s.896 2 2 2c.738 0 1.376-.405 1.723-1h2.777c1.381 0 2.5-1.119 2.5-2.5v-6.5" sketch:type="MSShapeGroup" fill="#3A3D3D"/></svg>