<svg width="18" height="18" viewBox="0 0 18 18" xmlns="http://www.w3.org/2000/svg" xmlns:sketch="http://www.bohemiancoding.com/sketch/ns"><title>helperlist-select</title><desc>Created with Sketch.</desc><path d="M8 8h-3c-.55 0-1 .45-1 1s.45 1 1 1h3c.55 0 1-.45 1-1s-.45-1-1-1zm0 4h-3c-.55 0-1 .45-1 1s.45 1 1 1h3c.55 0 1-.45 1-1s-.45-1-1-1zm7.5-12h-13c-1.381 0-2.5 1.119-2.5 2.5v13c0 1.38 1.119 2.5 2.5 2.5h6.542c.547 0 .988-.449.98-.996l-.001-.041c-.008-.535-.445-.963-.98-.963h-6.541c-.275 0-.5-.225-.5-.5v-9.5h14v3c0 .552.448 1 1 1s1-.448 1-1v-6.5c0-1.381-1.119-2.5-2.5-2.5zm-12.5 4c-.552 0-1-.448-1-1s.448-1 1-1 1 .448 1 1-.448 1-1 1zm12.758 10.242l1.242-1.242c0-.969-1-1-1-1l-4-1c-1 0-1 1-1 1s.656 2.922 1 4c.309.968 1 1 1 1l1.258-1.258 1.949 1.965c.391.391 1.024.391 1.414 0l.086-.086c.391-.391.391-1.023 0-1.414l-1.949-1.965z" sketch:type="MSShapeGroup" fill="#2F2C2C"/></svg>