<svg width="18" height="18" viewBox="0 0 18 18" xmlns="http://www.w3.org/2000/svg" xmlns:sketch="http://www.bohemiancoding.com/sketch/ns"><title>help</title><desc>Created with Sketch.</desc><path d="M9.1 1c-2.757 0-5 2.243-5 5 0 .552.448 1 1 1s1-.448 1-1c0-1.654 1.346-3 3-3s3 1.346 3 3-1.346 3-3 3c-.552 0-1 .448-1 1v2.5c0 .552.448 1 1 1s1-.448 1-1v-1.6c2.279-.465 4-2.485 4-4.9 0-2.757-2.243-5-5-5zm0 14c.552 0 1 .448 1 1s-.448 1-1 1-1-.448-1-1 .448-1 1-1z" sketch:type="MSShapeGroup" fill="#2F2C2C"/></svg>