<svg width="30" height="30" viewBox="0 0 30 30" xmlns="http://www.w3.org/2000/svg"><title>icon-icon</title><desc>Created with Sketch.</desc><path d="M11 17h3v-3h-3v3zm0 6h3v-3h-3v3zm6 0h3v-3h-3v3zm0-6h3v-3h-3v3zm-6-6h3v-3h-3v3zm12 14.25c0 .415-.336.75-.75.75h-13.5c-.415 0-.75-.335-.75-.75v-19.5c0-.415.335-.75.75-.75h8.25v4.5c0 .825.675 1.5 1.5 1.5h4.5v14.25zm2.121-18.129l-4.242-4.242c-.563-.563-1.326-.879-2.122-.879h-10.007c-2.068 0-3.75 1.682-3.75 3.75v19.5c0 2.068 1.682 3.75 3.75 3.75h13.5c2.068 0 3.75-1.682 3.75-3.75v-16.008c0-.795-.316-1.558-.879-2.121z"/></svg>