<svg width="18" height="18" viewBox="0 0 18 18" xmlns="http://www.w3.org/2000/svg" xmlns:sketch="http://www.bohemiancoding.com/sketch/ns"><title>insert-grid-row</title><desc>Created with Sketch.</desc><path d="M15.973 11.81c-.405-.148-.78-.374-1.094-.689l-2-2c-.567-.566-.879-1.32-.879-2.121 0-.801.312-1.555.879-2.121l2-2c.313-.313.686-.539 1.09-.688-.154-1.231-1.196-2.191-2.469-2.191h-11c-1.379 0-2.5 1.122-2.5 2.5v13c0 1.379 1.121 2.5 2.5 2.5h11c1.379 0 2.5-1.121 2.5-2.5v-3.69h-.027zm-13.973-9.31c0-.275.225-.5.5-.5h11c.275 0 .5.225.5.5v1c0 .275-.225.5-.5.5h-11c-.275 0-.5-.225-.5-.5v-1zm12 13c0 .275-.225.5-.5.5h-11c-.275 0-.5-.225-.5-.5v-1c0-.275.225-.5.5-.5h11c.275 0 .5.225.5.5v1zm0-4c0 .275-.225.5-.5.5h-11c-.275 0-.5-.225-.5-.5v-1c0-.275.225-.5.5-.5h11c.275 0 .5.225.5.5v1zm.293-3.793l2 2c.195.195.451.293.707.293.256 0 .512-.098.707-.293.391-.391.391-1.023 0-1.414l-1.293-1.293 1.293-1.293c.391-.39.391-1.023 0-1.414-.195-.195-.451-.293-.707-.293-.256 0-.512.098-.707.293l-2 2c-.391.391-.391 1.024 0 1.414z" sketch:type="MSShapeGroup" fill="#343434"/></svg>