<svg width="18" height="18" viewBox="0 0 18 18" xmlns="http://www.w3.org/2000/svg" xmlns:sketch="http://www.bohemiancoding.com/sketch/ns"><title>language</title><desc>Created with Sketch.</desc><path d="M15.5 1h-12c-1.375 0-2.5 1.125-2.5 2.5v8c0 1.375 1.125 2.5 2.5 2.5h10.5l4 4v-14.5c0-1.375-1.125-2.5-2.5-2.5zm-11 8c-.828 0-1.5-.671-1.5-1.5 0-.828.672-1.5 1.5-1.5s1.5.672 1.5 1.5c0 .829-.672 1.5-1.5 1.5zm5 0c-.828 0-1.5-.671-1.5-1.5 0-.828.672-1.5 1.5-1.5s1.5.672 1.5 1.5c0 .829-.672 1.5-1.5 1.5zm5 0c-.828 0-1.5-.671-1.5-1.5 0-.828.672-1.5 1.5-1.5s1.5.672 1.5 1.5c0 .829-.672 1.5-1.5 1.5z" sketch:type="MSShapeGroup" fill="#2F2C2C"/></svg>