<svg width="18" height="18" viewBox="0 0 18 18" xmlns="http://www.w3.org/2000/svg" xmlns:sketch="http://www.bohemiancoding.com/sketch/ns"><title>lasso</title><desc>Created with Sketch.</desc><path d="M17.934 6.633c-.328-3.268-3.953-5.633-8.355-5.633-.41 0-.827.021-1.249.063-4.945.496-8.664 3.793-8.306 7.365.211 2.104 1.792 3.829 4.064 4.794l.068.217-2.884 2.884c-.391.391-.391 1.024 0 1.414.195.196.451.293.707.293.256 0 .512-.097.707-.293l2.884-2.883c.282.11.587.176.909.176.803 0 1.509-.385 1.966-.973.389-.002.783-.02 1.182-.059 4.946-.496 8.665-3.794 8.307-7.365zm-3.491 3.339c-1.239 1.099-3.067 1.841-5.015 2.036l-.499.025c-.231-1.142-1.24-2.003-2.45-2.003-.873 0-1.638.449-2.086 1.125-1.352-.697-2.26-1.74-2.379-2.926-.145-1.446.878-2.588 1.501-3.141 1.239-1.098 3.067-1.84 5.015-2.035.35-.036.703-.053 1.049-.053 3.354 0 6.15 1.683 6.365 3.832.145 1.446-.878 2.588-1.501 3.14z" sketch:type="MSShapeGroup" fill="#606266"/></svg>