<svg width="18" height="18" viewBox="0 0 18 18" xmlns="http://www.w3.org/2000/svg" xmlns:sketch="http://www.bohemiancoding.com/sketch/ns"><title>ledger</title><desc>Created with Sketch.</desc><path d="M17 0c-3.932 0-6.606.47-7.97 1.399-1.63-1.101-5.037-1.387-8.026-1.399h-.004c-.265 0-.518.105-.706.292-.188.188-.294.443-.294.708v14c0 .553.448 1 1 1 5.686 0 6.852 1.006 7.018 1.19.088.454.481.798.959.81h.023c.514 0 .943-.39.995-.897.547-.569 3.828-1.089 7.009-1.103.551-.002.996-.449.996-1v-14c0-.553-.448-1-1-1zm-1 2.011v8.003c-2.891.073-4.784.409-6 .873v-7.708c.204-.209 1.317-1.06 6-1.168zm-14 .01c2.83.101 5.5.57 6 1.078v7.803c-1.343-.533-3.343-.833-6-.891v-7.99zm0 11.99v-2c4.693.107 5.8.955 6 1.162v1.729c-1.343-.532-3.343-.833-6-.891zm8 .876v-1.788c.501-.508 3.171-.974 6-1.077v1.992c-2.891.073-4.784.409-6 .873z" sketch:type="MSShapeGroup" fill="#2F2C2C"/></svg>