<svg width="18" height="18" viewBox="0 0 18 18" xmlns="http://www.w3.org/2000/svg" xmlns:sketch="http://www.bohemiancoding.com/sketch/ns"><title>line-chart</title><desc>Created with Sketch.</desc><path d="M17 18h-13.5c-1.93 0-3.5-1.57-3.5-3.5v-13.5c0-.553.448-1 1-1s1 .447 1 1v13.5c0 .827.673 1.5 1.5 1.5h13.5c.552 0 1 .447 1 1 0 .553-.448 1-1 1zm-12.001-6c-.208 0-.419-.066-.599-.2-.442-.331-.531-.958-.2-1.4l3-4c.332-.441.958-.531 1.4-.2l3.24 2.43 4.392-5.27c.353-.425.983-.481 1.408-.128.424.353.482.984.128 1.409l-5 6c-.34.409-.942.478-1.368.159l-3.2-2.4-2.4 3.2c-.196.262-.497.4-.801.4z" sketch:type="MSShapeGroup" fill="#343434"/></svg>