<svg width="18" height="18" viewBox="0 0 18 18" xmlns="http://www.w3.org/2000/svg" xmlns:sketch="http://www.bohemiancoding.com/sketch/ns"><title>overlay-line-bar</title><desc>Created with Sketch.</desc><path d="M4 12v4.001h-1.5c-.051 0-.5-.012-.5-.402v-5.937l3.2-4.262 3.2 2.4c.426.32 1.028.249 1.369-.16l4.424-5.31 2.252 1.502c.487.323 1.156.165 1.44-.365.246-.46.061-1.038-.374-1.328l-2.956-1.971c-.426-.284-.996-.2-1.323.192l-4.392 5.27-3.24-2.43c-.442-.331-1.068-.241-1.4.2l-2.2 2.934v-5.334c0-.552-.448-1-1-1s-1 .448-1 1v14.599c0 1.347 1.098 2.401 2.5 2.401h13c1.402 0 2.5-1.054 2.5-2.401v-8.599c0-.552-.448-1-1-1s-1 .448-1 1v8.599c0 .39-.449.402-.5.402h-1.5v-6.001c0-.552-.448-1-1-1s-1 .448-1 1v6.001h-2v-5.001c0-.552-.448-1-1-1s-1 .448-1 1v5.001h-2v-4.001c0-.552-.448-1-1-1s-1 .448-1 1" sketch:type="MSShapeGroup" fill="#343434"/></svg>