<svg width="18" height="18" viewBox="0 0 18 18" xmlns="http://www.w3.org/2000/svg" xmlns:sketch="http://www.bohemiancoding.com/sketch/ns"><title>new-expense-report</title><desc>Created with Sketch.</desc><path d="M8 16h2v-5c0-.552.448-1 1-1h3v-7.5c0-1.381-1.119-2.5-2.5-2.5h-9c-1.381 0-2.5 1.119-2.5 2.5v11c0 1.208.86 2.217 2 2.45l6 .05zm-4 0h2-2zm7-8.99c0 .546-.443.99-.99.99h-6.02c-.547 0-.99-.444-.99-.99v-.02c0-.547.443-.99.99-.99h6.02c.547 0 .99.443.99.99v.02zm0-4c0 .547-.443.99-.99.99h-6.02c-.547 0-.99-.443-.99-.99v-.02c0-.547.443-.99.99-.99h6.02c.547 0 .99.443.99.99v.02zm6 11.472h-1v-1c0-.553-.448-1-1-1s-1 .447-1 1v1h-1c-.552 0-1 .447-1 1 0 .552.448 1 1 1h1v1c0 .552.448 1 1 1s1-.448 1-1v-1h1c.552 0 1-.448 1-1 0-.553-.448-1-1-1zm-16-2.482c-.55 0-1 .45-1 1v4c0 .55.45 1 1 1s1-.45 1-1v-4c0-.55-.45-1-1-1zm4 1c-.55 0-1 .45-1 1v3c0 .55.45 1 1 1s1-.45 1-1v-3c0-.55-.45-1-1-1zm4 1c-.55 0-1 .45-1 1v2c0 .55.45 1 1 1s1-.45 1-1v-2c0-.55-.45-1-1-1z" sketch:type="MSShapeGroup" fill="#2F2C2C"/></svg>