<svg width="18" height="18" viewBox="0 0 18 18" xmlns="http://www.w3.org/2000/svg" xmlns:sketch="http://www.bohemiancoding.com/sketch/ns"><title>new-payment-request</title><desc>Created with Sketch.</desc><path d="M16 9h-10c-1.105 0-2 .896-2 2v4c0 1.105.895 2 2 2h10c1.105 0 2-.895 2-2v-4c0-1.104-.895-2-2-2zm-2-6v-1c0-.55.45-1 1-1s1 .45 1 1v1h1c.55 0 1 .45 1 1s-.45 1-1 1h-1v1c0 .55-.45 1-1 1s-1-.45-1-1v-1h-1c-.55 0-1-.45-1-1s.45-1 1-1h1zm-3 12c-1.105 0-2-.895-2-2 0-1.104.895-2 2-2s2 .896 2 2c0 1.105-.895 2-2 2zm-2-10h-7c-1.105 0-2 .896-2 2v4c0 1.104.895 2 2 2v-4c0-1.1.9-2 2-2h5c.552 0 1-.448 1-1s-.448-1-1-1z" sketch:type="MSShapeGroup" fill="#343434"/></svg>