<svg width="18" height="18" viewBox="0 0 18 18" xmlns="http://www.w3.org/2000/svg" xmlns:sketch="http://www.bohemiancoding.com/sketch/ns"><title>no-attachment</title><desc>Created with Sketch.</desc><path d="M16.707 16.106l-14-14c-.391-.391-1.023-.391-1.414 0-.391.39-.391 1.023 0 1.414l2.707 2.707v7.803c0 2.226 1.7 3.97 3.932 3.97 2.143 0 3.948-1.721 4.049-3.792l3.312 3.312c.195.195.451.293.707.293.256 0 .512-.098.707-.293.391-.391.391-1.024 0-1.414zm-6.707-2.076c0 1.068-.947 1.97-2.129 1.97-1.066 0-1.871-.847-1.871-1.97v-5.803l1 1v1.773c0 .553.447 1 1 1 .486 0 .871-.352.962-.811l1.038 1.038v1.803zm-3.266-10.71c.619-.803 1.578-1.32 2.712-1.32 1.927 0 3.554 1.596 3.554 3.485v4.101l2 2v-6.101c0-2.973-2.543-5.485-5.644-5.485-1.678 0-3.178.796-4.16 2.038.186.038.366.111.511.255l1.027 1.027zm5.266 5.266v-2.17c0-1.332-1.159-2.416-2.613-2.416-.568 0-1.071.189-1.473.5l1.5 1.5h.002c.275 0 .584.178.584.416v.17l2 2z" sketch:type="MSShapeGroup" fill="#2F2C2C"/></svg>
