<svg width="18" height="18" viewBox="0 0 18 18" xmlns="http://www.w3.org/2000/svg" xmlns:sketch="http://www.bohemiancoding.com/sketch/ns"><title>no-filter</title><desc>Created with Sketch.</desc><path d="M6.946 12c-.552 0-1 .447-1 1 0 .553.448 1 1 1h2.78l-1.208-2h-1.572zm-.846-4h-1.154c-.552 0-1 .447-1 1 0 .553.448 1 1 1h2.363l-1.209-2zm-2.363-4h-.737c-.552 0-1 .447-1 1 0 .553.448 1 1 1h1.946l-1.209-2zm11.209 0l-6.604.04-1.485-2.518c-.285-.471-.903-.623-1.373-.338-.471.284-.623.902-.339 1.373l7.832 12.961c.284.471.902.623 1.373.339.471-.285.623-.903.339-1.373l-2.743-4.484h.998c.552 0 1-.447 1-1 0-.553-.448-1-1-1h-2.207l-1.187-1.96 5.396-.04c.552 0 1-.447 1-1 0-.553-.448-1-1-1z" sketch:type="MSShapeGroup" fill="#2F2C2C"/></svg>