<svg width="18" height="18" viewBox="0 0 18 18" xmlns="http://www.w3.org/2000/svg" xmlns:sketch="http://www.bohemiancoding.com/sketch/ns"><title>overlay-line</title><desc>Created with Sketch.</desc><path d="M2 9.376v4.02l5.244-6.051c.33-.38.891-.456 1.31-.177l2.263 1.509 1.866-2.177-4.594-4.083-6.089 6.959zm0-3.037v-5.339c0-.553-.447-1-1-1-.553 0-1 .447-1 1v13.5c0 1.93 1.57 3.5 3.5 3.5h13.5c.553 0 1-.447 1-1 0-.553-.447-1-1-1h-13.5c-.324 0-.624-.103-.869-.278l5.547-6.401 2.267 1.511c.423.282.986.203 1.314-.182l2.418-2.822 2.159 1.919c.412.367 1.045.33 1.411-.083.367-.412.33-1.045-.083-1.411l-2.185-1.943 2.28-2.66c.36-.418.311-1.049-.109-1.409-.418-.359-1.05-.312-1.409.108l-2.257 2.633-5.32-4.729c-.199-.177-.468-.271-.727-.251-.266.017-.514.139-.69.34l-5.247 5.997z" sketch:type="MSShapeGroup" fill="#343434"/></svg>