<svg width="18" height="18" viewBox="0 0 18 18" xmlns="http://www.w3.org/2000/svg" xmlns:sketch="http://www.bohemiancoding.com/sketch/ns"><title>payment-request</title><desc>Created with Sketch.</desc><path d="M4 5h10c0-1.105-.895-2-2-2h-10c-1.105 0-2 .895-2 2v4c0 1.104.895 2 2 2v-4c0-1.1.9-2 2-2zm12 2h-10c-1.105 0-2 .895-2 2v4c0 1.104.895 2 2 2h10c1.105 0 2-.896 2-2v-4c0-1.105-.895-2-2-2zm-5 6c-1.105 0-2-.896-2-2 0-1.105.895-2 2-2s2 .895 2 2c0 1.104-.895 2-2 2z" sketch:type="MSShapeGroup" fill="#343434"/></svg>