<svg width="18" height="18" viewBox="0 0 18 18" xmlns="http://www.w3.org/2000/svg" xmlns:sketch="http://www.bohemiancoding.com/sketch/ns"><title>pie-chart</title><desc>Created with Sketch.</desc><path d="M7.01 9.99h-4.701c-.653 0-1.155.623-.971 1.25.763 2.607 2.815 4.66 5.422 5.422.627.184 1.25-.318 1.25-.971v-4.701c0-.552-.448-1-1-1zm9.969-1.607c-.016-.214-.045-.432-.078-.649l-.052-.346-.031-.123c-.667-3.032-3.051-5.416-6.083-6.083l-.123-.03-.346-.053c-.217-.033-.435-.062-.649-.078l-.33-.016c-.219-.008-.435-.006-.649.004l-.306.016c-.265.022-.526.057-.783.105l-.125.019c-.3.06-.592.139-.878.232l-.217.08c-.213.076-.423.158-.627.251l-.246.119c-.199.099-.393.206-.582.321l-.195.118c-.51.33-.983.714-1.404 1.149l-.043.047c-.195.205-.378.419-.551.643l-.083.111c-.164.221-.317.448-.457.685l-.048.078c-.316.546-.572 1.132-.753 1.749-.185.63.315 1.258.972 1.258h6.698c.552 0 1 .448 1 1v6.699c0 .656.628 1.156 1.258.971.617-.181 1.203-.437 1.749-.753l.078-.047c.237-.141.465-.294.685-.458l.111-.083c.224-.173.439-.356.643-.551l.047-.043c.435-.421.819-.894 1.149-1.404l.119-.195c.114-.189.221-.383.32-.582l.119-.246c.093-.204.176-.413.251-.627l.08-.217c.093-.286.172-.578.232-.878l.019-.124c.048-.258.083-.519.105-.784l.016-.306c.01-.214.012-.431.005-.649l-.017-.33z" sketch:type="MSShapeGroup" fill="#343434"/></svg>