<svg width="18" height="18" viewBox="0 0 18 18" xmlns="http://www.w3.org/2000/svg" xmlns:sketch="http://www.bohemiancoding.com/sketch/ns"><title>queries</title><desc>Created with Sketch.</desc><path d="M5 6c-.55 0-1-.45-1-1s.45-1 1-1 1 .45 1 1-.45 1-1 1zm2 4h-2c-.55 0-1-.45-1-1s.45-1 1-1h2c.55 0 1 .45 1 1s-.45 1-1 1zm2 4h-4c-.55 0-1-.45-1-1s.45-1 1-1h4c.55 0 1 .45 1 1s-.45 1-1 1zm-4-14h-2.5c-1.375 0-2.5 1.125-2.5 2.5v13c0 1.375 1.125 2.5 2.5 2.5h9c1.375 0 2.5-1.125 2.5-2.5v-4.5c0-.553-.448-1-1-1s-1 .447-1 1v4.5c0 .275-.225.5-.5.5h-9c-.275 0-.5-.225-.5-.5v-13c0-.275.225-.5.5-.5h2.5c.552 0 1-.448 1-1s-.448-1-1-1zm12.543 8.128l-2.109-2.109c.35-.595.566-1.28.566-2.019 0-2.206-1.794-4-4-4s-4 1.794-4 4 1.794 4 4 4c.739 0 1.424-.216 2.019-.566l2.109 2.109c.387.387 1.014.387 1.4 0l.015-.015c.387-.386.387-1.013 0-1.4zm-5.543-2.128c-1.102 0-2-.897-2-2 0-1.102.898-2 2-2 1.102 0 2 .898 2 2 0 1.103-.898 2-2 2z" sketch:type="MSShapeGroup" fill="#2F2C2C"/></svg>