<svg width="18" height="18" viewBox="0 0 18 18" xmlns="http://www.w3.org/2000/svg" xmlns:sketch="http://www.bohemiancoding.com/sketch/ns"><title>quick-edit</title><desc>Created with Sketch.</desc><path d="M15 16h-5.22l-2 2h7.22c.55 0 1-.45 1-1s-.45-1-1-1zm2-4h-3.22l-2 2h5.22c.55 0 1-.45 1-1s-.45-1-1-1zm-2.91-11.997c-.64 0-1.28.242-1.77.727l-1.14 1.14-10.53 10.54c-.37.37-.65 1.05-.65 1.57v3.02c0 .55.45 1 1 1h3.03c.53 0 1.19-.28 1.56-.65l10.86-10.85.82-.82c.97-.98.97-2.56 0-3.54l-1.41-1.41c-.49-.485-1.13-.727-1.77-.727zm-12.09 15.997v-1.98l.06-.2 9.21-9.21 2.25 1.98-9.31 9.32-.18.09h-2.03z" sketch:type="MSShapeGroup" fill="#2F2C2C"/></svg>