<svg width="18" height="18" viewBox="0 0 18 18" xmlns="http://www.w3.org/2000/svg" xmlns:sketch="http://www.bohemiancoding.com/sketch/ns"><title>refresh-current</title><desc>Created with Sketch.</desc><path d="M2.462 9.467c1.949-1.949 5.122-1.949 7.071 0 .343-.343.862-1 1.414-1 .553 0 1 .447 1 1v2.828c0 .553-.447 1-1 1h-2.828c-.276 0-.526-.112-.707-.293-.181-.181-.293-.431-.293-.707 0-.552.646-1.06 1-1.414-1.17-1.17-3.073-1.17-4.243 0-1.17 1.17-1.17 3.073 0 4.243 1.17 1.17 3.073 1.17 4.243 0 .391-.391 1.023-.391 1.414 0s.391 1.023 0 1.414c-1.949 1.949-5.122 1.949-7.071 0-1.949-1.949-1.949-5.122 0-7.071zm11.516 8.533h.522c1.381 0 2.5-1.119 2.5-2.5v-10.672c0-.53-.211-1.039-.586-1.414l-2.828-2.828c-.375-.375-.884-.586-1.414-.586h-6.672c-1.381 0-2.5 1.119-2.5 2.5v2.5c0 .553.447 1 1 1 .553 0 1-.447 1-1v-2.5c0-.276.224-.5.5-.5h5.5v3c0 .55.45 1 1 1h3v9.5c0 .276-.224.5-.5.5h-.521c-.543 0-.984.437-.987.98v.03c-.003.546.44.99.986.99z" sketch:type="MSShapeGroup" fill="#343434"/></svg>