<svg width="18" height="18" viewBox="0 0 18 18" xmlns="http://www.w3.org/2000/svg" xmlns:sketch="http://www.bohemiancoding.com/sketch/ns"><title>restore-user</title><desc>Created with Sketch.</desc><path d="M9 3.5c0-1.381-1.119-2.5-2.5-2.5s-2.5 1.119-2.5 2.5 1.119 2.5 2.5 2.5 2.5-1.119 2.5-2.5zm7.485 4.962c-1.949-1.949-5.121-1.949-7.071 0-.342-.342-.862-1-1.414-1-.552 0-1 .448-1 1v2.829c0 .552.448.999 1 .999h2.828c.276 0 .527-.111.707-.292.181-.181.293-.431.293-.707 0-.553-.646-1.061-1-1.415 1.17-1.169 3.073-1.169 4.243 0 1.17 1.17 1.17 3.073 0 4.243-1.17 1.17-3.073 1.17-4.243 0-.39-.391-1.023-.391-1.414 0s-.391 1.023 0 1.414c1.95 1.95 5.122 1.95 7.071 0 1.95-1.949 1.95-5.122 0-7.071zm-11.485 2.829v-3.781c-2.295.618-4 2.668-4 5.158 0 0 0 1.332 1.542 1.332h4.174c-1.013-.482-1.716-1.515-1.716-2.709z" sketch:type="MSShapeGroup" fill="#2F2C2C"/></svg>