<svg width="18" height="18" viewBox="0 0 18 18" xmlns="http://www.w3.org/2000/svg" xmlns:sketch="http://www.bohemiancoding.com/sketch/ns"><title>ring</title><desc>Created with Sketch.</desc><path d="M9 .992c0-.602.528-1.064 1.125-.983 1.254.172 3.341.721 5.126 2.458 0 0 2.258 1.963 2.681 5.366.073.585-.399 1.102-.989 1.102h-.005c-.5 0-.917-.368-.98-.864-.126-.992-.574-2.677-2.112-4.183 0 0-1.439-1.59-3.982-1.901-.492-.06-.864-.479-.864-.975v-.02zm6.479 10.583c-1.2 2.935-4.334 4.882-7.812 4.236-2.803-.52-4.945-2.614-5.517-5.407-.722-3.531 1.236-6.732 4.21-7.948.376-.154.64-.498.64-.905v-.078c0-.667-.672-1.151-1.293-.906-3.689 1.455-6.195 5.274-5.627 9.585.508 3.845 3.539 7.007 7.363 7.652 4.449.75 8.432-1.79 9.925-5.576.245-.62-.239-1.293-.906-1.293h-.078c-.407 0-.751.264-.905.64z" sketch:type="MSShapeGroup" fill="#343434"/></svg>