<svg width="18" height="18" viewBox="0 0 18 18" xmlns="http://www.w3.org/2000/svg" xmlns:sketch="http://www.bohemiancoding.com/sketch/ns"><title>rocket</title><desc>Created with Sketch.</desc><g sketch:type="MSLayerGroup" fill="#3A3D3D"><path d="M13 12c0 .55.45 1 1 1s1-.45 1-1v-2c0-.55-.45-1-1-1h-1v3m-8 0c0 .55-.45 1-1 1s-1-.45-1-1v-2c0-.55.45-1 1-1h1v3m2 4c0-.55.45-1 1-1h2c.55 0 1 .45 1 1s-.45 1-1 1h-2c-.55 0-1-.45-1-1" sketch:type="MSShapeGroup"/><path d="M9 1c-1.65 0-3 1.35-3 3v9h6v-9c0-1.65-1.35-3-3-3zm1 6c0 .55-.45 1-1 1s-1-.45-1-1v-2c0-.55.45-1 1-1s1 .45 1 1v2z" sketch:type="MSShapeGroup"/></g></svg>