<svg width="18" height="18" viewBox="0 0 18 18" xmlns="http://www.w3.org/2000/svg" xmlns:sketch="http://www.bohemiancoding.com/sketch/ns"><title>save-as</title><desc>Created with Sketch.</desc><path d="M9 1h-7c-.55 0-1 .45-1 1v10c0 .55.45 1 1 1s1-.45 1-1v-9h6c.55 0 1-.45 1-1s-.45-1-1-1zm3 6h-2c-.55 0-1-.45-1-1s.45-1 1-1h2c.55 0 1 .45 1 1s-.45 1-1 1zm3 0v1c0 .552-.448 1-1 1h-6c-.552 0-1-.448-1-1v-3h-1c-.55 0-1 .45-1 1v9c0 1.104.895 2 2 2h9c1.105 0 2-.896 2-2v-5s0-3-3-3zm-8 4h9v4h-9v-4z" sketch:type="MSShapeGroup" fill="#343434"/></svg>