<svg width="18" height="18" viewBox="0 0 18 18" xmlns="http://www.w3.org/2000/svg" xmlns:sketch="http://www.bohemiancoding.com/sketch/ns"><title>save-and-close</title><desc>Created with Sketch.</desc><path d="M7 7h-2c-.55 0-1-.45-1-1s.45-1 1-1h2c.55 0 1 .45 1 1s-.45 1-1 1zm9.707-4.707c-.391-.391-1.023-.391-1.414 0l-1.793 1.793-1.793-1.793c-.391-.391-1.023-.391-1.414 0s-.391 1.023 0 1.414l1.793 1.793-1.793 1.793c-.391.391-.391 1.023 0 1.414.195.195.451.293.707.293.256 0 .512-.098.707-.293l1.793-1.793 1.793 1.793c.195.195.451.293.707.293.256 0 .512-.098.707-.293.391-.391.391-1.023 0-1.414l-1.793-1.793 1.793-1.793c.391-.391.391-1.023 0-1.414zm-4.707 8.707c-.552 0-1 .448-1 1v3h-9v-4h5c.552 0 1-.448 1-1s-.448-1-1-1h-4c-.552 0-1-.448-1-1v-3h-1c-.55 0-1 .45-1 1v9c0 1.104.895 2 2 2h9c1.105 0 2-.896 2-2v-3c0-.552-.448-1-1-1z" sketch:type="MSShapeGroup" fill="#2F2C2C"/></svg>