<svg width="18" height="18" viewBox="0 0 18 18" xmlns="http://www.w3.org/2000/svg" xmlns:sketch="http://www.bohemiancoding.com/sketch/ns"><title>save-and-new</title><desc>Created with Sketch.</desc><path d="M8 6h-2c-.55 0-1-.45-1-1s.45-1 1-1h2c.55 0 1 .45 1 1s-.45 1-1 1zm5 4c-.552 0-1 .448-1 1v3h-9v-4h5c.552 0 1-.448 1-1s-.448-1-1-1h-4c-.552 0-1-.448-1-1v-3h-1c-.55 0-1 .45-1 1v9c0 1.105.895 2 2 2h9c1.105 0 2-.895 2-2v-3c0-.552-.448-1-1-1zm3-6h-1v-1c0-.552-.448-1-1-1s-1 .448-1 1v1h-1c-.552 0-1 .448-1 1s.448 1 1 1h1v1c0 .552.448 1 1 1s1-.448 1-1v-1h1c.552 0 1-.448 1-1s-.448-1-1-1z" sketch:type="MSShapeGroup" fill="#2F2C2C"/></svg>