<svg width="18" height="18" viewBox="0 0 18 18" xmlns="http://www.w3.org/2000/svg" xmlns:sketch="http://www.bohemiancoding.com/sketch/ns"><title>screen-2</title><desc>Created with Sketch.</desc><path d="M10.298 3.715c-.388-.389-.388-1.025 0-1.414l1.415-1.414c.389-.389 1.025-.389 1.414 0s.389 1.025 0 1.414l-1.414 1.414c-.389.389-1.026.389-1.415 0zm-9.411 9.412c-.389-.389-.389-1.026 0-1.414l1.414-1.414c.389-.389 1.025-.389 1.414 0 .389.388.389 1.025 0 1.414l-1.414 1.414c-.389.389-1.025.389-1.414 0zm16.821 4.581c-.389.389-1.025.389-1.414 0l-5.996-5.995c-.388-.389-.388-1.026 0-1.414.389-.389 1.026-.389 1.415 0l5.995 5.995c.389.389.389 1.025 0 1.414zm-13.993-13.993c-.389.389-1.025.389-1.414 0l-1.414-1.414c-.389-.389-.389-1.025 0-1.414s1.025-.389 1.414 0l1.414 1.414c.389.389.389 1.025 0 1.414zm7.292 2.285s-3 0-3-3c0-.55-.45-1-1-1s-1 .45-1 1c0 0 0 3-3 3-.55 0-1 .45-1 1s.45 1 1 1v.007c0-.001 3 0 3 3h.001c.004.547.451.993.999.993.547 0 .995-.446.998-.993h.002c0-.001 0-3 3-3v-.007c.55 0 1-.45 1-1s-.45-1-1-1z" sketch:type="MSShapeGroup" fill="#343434"/></svg>