<svg width="18" height="18" viewBox="0 0 18 18" xmlns="http://www.w3.org/2000/svg" xmlns:sketch="http://www.bohemiancoding.com/sketch/ns"><title>script</title><desc>Created with Sketch.</desc><path d="M18 15.5v-4.5c0-.552-.448-1-1-1h-3v-7.5c0-1.375-1.125-2.5-2.5-2.5h-8c-1.375 0-2.5 1.125-2.5 2.5v13c0 1.375 1.125 2.5 2.5 2.5h12c1.381 0 2.5-1.119 2.5-2.5zm-6-.5c0 .352.07.686.182 1h-8.682c-.271 0-.5-.229-.5-.5v-13c0-.271.229-.5.5-.5h8c.271 0 .5.229.5.5v12.5zm4 0c0 .552-.449 1-1 1h.094-.096c-.552 0-1-.448-1-1v-3h2.002v3zm-7-9h-3c-.55 0-1-.45-1-1s.45-1 1-1h3c.55 0 1 .45 1 1s-.45 1-1 1zm0 4h-3c-.55 0-1-.45-1-1s.45-1 1-1h3c.55 0 1 .45 1 1s-.45 1-1 1zm0 4h-3c-.55 0-1-.45-1-1s.45-1 1-1h3c.55 0 1 .45 1 1s-.45 1-1 1z" sketch:type="MSShapeGroup" fill="#2F2C2C"/></svg>