<?xml version="1.0" encoding="UTF-8" standalone="no"?>
<svg width="18px" height="18px" viewBox="0 0 18 18" version="1.1" xmlns="http://www.w3.org/2000/svg" xmlns:xlink="http://www.w3.org/1999/xlink" xmlns:sketch="http://www.bohemiancoding.com/sketch/ns">
    <!-- Generator: Sketch 3.3.3 (12072) - http://www.bohemiancoding.com/sketch -->
    <title>script</title>
    <desc>Created with Sketch.</desc>
    <defs></defs>
    <g id="toolbar-icons" stroke="none" stroke-width="1" fill="none" fill-rule="evenodd" sketch:type="MSPage">
        <g id="script" sketch:type="MSArtboardGroup" fill="#2F2C2C">
            <path d="M18,15.5 L18,11 C18,10.448 17.552,10 17,10 L14,10 L14,2.5 C14,1.125 12.875,0 11.5,0 L3.5,0 C2.125,0 1,1.125 1,2.5 L1,15.5 C1,16.875 2.125,18 3.5,18 L15.5,18 C16.881,18 18,16.881 18,15.5 L18,15.5 Z M12,15 C12,15.352 12.07,15.686 12.182,16 L3.5,16 C3.229,16 3,15.771 3,15.5 L3,2.5 C3,2.229 3.229,2 3.5,2 L11.5,2 C11.771,2 12,2.229 12,2.5 L12,15 L12,15 Z M16,15 C16,15.552 15.551,16 15,16 L15.094,16 L14.998,16 C14.446,16 13.998,15.552 13.998,15 L13.998,12 L16,12 L16,15 Z M9,6 L6,6 C5.45,6 5,5.55 5,5 C5,4.45 5.45,4 6,4 L9,4 C9.55,4 10,4.45 10,5 C10,5.55 9.55,6 9,6 Z M9,10 L6,10 C5.45,10 5,9.55 5,9 C5,8.45 5.45,8 6,8 L9,8 C9.55,8 10,8.45 10,9 C10,9.55 9.55,10 9,10 Z M9,14 L6,14 C5.45,14 5,13.55 5,13 C5,12.45 5.45,12 6,12 L9,12 C9.55,12 10,12.45 10,13 C10,13.55 9.55,14 9,14 Z" id="Fill-1" sketch:type="MSShapeGroup"></path>
        </g>
    </g>
</svg>