<svg width="18" height="18" viewBox="0 0 18 18" xmlns="http://www.w3.org/2000/svg" xmlns:sketch="http://www.bohemiancoding.com/sketch/ns"><title>send-submit</title><desc>Created with Sketch.</desc><path d="M11 11.267s0-.939 1-.939l4 .939s1 .029 1 .939l-1.242 1.166 1.949 1.845c.391.367.391.961 0 1.328l-.086.081c-.39.367-1.023.367-1.414 0l-1.949-1.845-1.258 1.181s-.692-.03-1-.939c-.344-1.012-1-3.756-1-3.756zm-2 5.633c-4.963 0-9-3.79-9-8.45 0-4.66 4.037-8.45 9-8.45s9 3.79 9 8.45c0 .519-.447.939-1 .939-.553 0-1-.42-1-.939 0-3.623-3.141-6.572-7-6.572s-7 2.949-7 6.572 3.141 6.572 7 6.572c.553 0 1 .42 1 .939 0 .519-.447.939-1 .939zm-1.002-3.875l-.251-.029c-2.206-.535-3.747-2.404-3.747-4.546 0-2.589 2.243-4.694 5-4.694 2.279 0 4.271 1.445 4.84 3.515.138.501-.183 1.014-.718 1.144-.533.134-1.08-.172-1.218-.674-.341-1.24-1.536-2.107-2.904-2.107-1.654 0-3 1.264-3 2.817 0 1.285.924 2.406 2.247 2.727.534.131.856.642.719 1.145-.116.423-.523.704-.968.704z" sketch:type="MSShapeGroup" fill="#343434"/></svg>