<svg width="18" height="18" viewBox="0 0 18 18" xmlns="http://www.w3.org/2000/svg" xmlns:sketch="http://www.bohemiancoding.com/sketch/ns"><title>server</title><desc>Created with Sketch.</desc><path d="M14.5 0h-11c-1.925 0-3.5 1.575-3.5 3.5v1c0 1.925 1.575 3.5 3.5 3.5h11c1.925 0 3.5-1.575 3.5-3.5v-1c0-1.925-1.575-3.5-3.5-3.5zm-10.5 6c-1.105 0-2-.895-2-2s.895-2 2-2 2 .895 2 2-.895 2-2 2zm11-1h-6c-.55 0-1-.45-1-1s.45-1 1-1h6c.55 0 1 .45 1 1s-.45 1-1 1zm-.5 5h-11c-1.925 0-3.5 1.575-3.5 3.5v1c0 1.925 1.575 3.5 3.5 3.5h11c1.925 0 3.5-1.575 3.5-3.5v-1c0-1.925-1.575-3.5-3.5-3.5zm-10.5 6c-1.105 0-2-.895-2-2s.895-2 2-2 2 .895 2 2-.895 2-2 2zm11-1h-6c-.55 0-1-.45-1-1s.45-1 1-1h6c.55 0 1 .45 1 1s-.45 1-1 1z" sketch:type="MSShapeGroup" fill="#3B3E3E"/></svg>