<svg width="18" height="18" viewBox="0 0 18 18" xmlns="http://www.w3.org/2000/svg" xmlns:sketch="http://www.bohemiancoding.com/sketch/ns"><title>show-last-x-days</title><desc>Created with Sketch.</desc><path d="M16.414 3.414l-2.828-2.828c-.375-.375-.884-.586-1.414-.586h-6.672c-1.381 0-2.5 1.119-2.5 2.5v.5c0 .553.447 1 1 1 .553 0 1-.447 1-1v-.5c0-.276.224-.5.5-.5h5.5v3c0 .55.45 1 1 1h3v9.5c0 .276-.224.5-.5.5h-.514c-.543 0-.983.438-.986.98v.03c-.003.546.439.99.985.99h.515c1.381 0 2.5-1.119 2.5-2.5v-10.672c0-.53-.211-1.039-.586-1.414zm-9.414 2.586c-3.308 0-6 2.692-6 6s2.692 6 6 6 6-2.692 6-6-2.692-6-6-6zm0 10c-2.206 0-4-1.795-4-4s1.794-4 4-4 4 1.795 4 4-1.794 4-4 4zm1-4.414v-1.586c0-.553-.447-1-1-1-.553 0-1 .447-1 1v2c0 .266.106.519.293.707l1 1c.195.195.451.293.707.293.256 0 .512-.098.707-.293.391-.391.391-1.024 0-1.414l-.707-.707" sketch:type="MSShapeGroup" fill="#343434"/></svg>