<svg width="18" height="18" viewBox="0 0 18 18" xmlns="http://www.w3.org/2000/svg" xmlns:sketch="http://www.bohemiancoding.com/sketch/ns"><title>special-item</title><desc>Created with Sketch.</desc><path d="M15 0h-12c-1.65 0-3 1.35-3 3v12c0 1.65 1.35 3 3 3h12c1.65 0 3-1.35 3-3v-12c0-1.65-1.35-3-3-3zm-5 14h-5c-.55 0-1-.45-1-1s.45-1 1-1h5c.55 0 1 .45 1 1s-.45 1-1 1zm3-4h-8c-.55 0-1-.45-1-1s.45-1 1-1h8c.55 0 1 .45 1 1s-.45 1-1 1zm0-4h-8c-.55 0-1-.45-1-1s.45-1 1-1h8c.55 0 1 .45 1 1s-.45 1-1 1z" sketch:type="MSShapeGroup" fill="#3F4347"/></svg>