<svg width="18" height="18" viewBox="0 0 18 18" xmlns="http://www.w3.org/2000/svg" xmlns:sketch="http://www.bohemiancoding.com/sketch/ns"><title>spreadsheet</title><desc>Created with Sketch.</desc><path d="M15.5 0h-13c-1.375 0-2.5 1.125-2.5 2.5v13c0 1.375 1.125 2.5 2.5 2.5h13c1.375 0 2.5-1.125 2.5-2.5v-13c0-1.375-1.125-2.5-2.5-2.5zm-1.5 6h2v2h-2v-2zm-4 0h2v2h-2v-2zm-4 0h2v2h-2v-2zm-4 0h2v2h-2v-2zm0 4h2v2h-2v-2zm4 0h2v2h-2v-2zm4 0h2v2h-2v-2zm4 0h2v2h-2v-2zm1.5-8c.271 0 .5.229.5.5v1.5h-2v-2h1.5zm-5.5 0h2v2h-2v-2zm-4 0h2v2h-2v-2zm-4 .5c0-.271.229-.5.5-.5h1.5v2h-2v-1.5zm.5 13.5c-.271 0-.5-.229-.5-.5v-1.5h2v2h-1.5zm3.5-2h2v2h-2v-2zm4 0h2v2h-2v-2zm6 1.5c0 .271-.229.5-.5.5h-1.5v-2h2v1.5z" sketch:type="MSShapeGroup" fill="#2F2C2C"/></svg>