<svg width="18" height="18" viewBox="0 0 18 18" xmlns="http://www.w3.org/2000/svg" xmlns:sketch="http://www.bohemiancoding.com/sketch/ns"><title>subscribe</title><desc>Created with Sketch.</desc><path d="M8.063 11c-.254 0-.508-.096-.703-.288l-4.063-4.001c-.393-.388-.397-1.021-.008-1.413.387-.395 1.021-.397 1.414-.009l3.353 3.299 7.235-7.293c.39-.39 1.022-.393 1.414-.005.392.39.394 1.023.004 1.415l-7.937 8c-.196.196-.453.295-.709.295zm-.063 3c0 .552-.448 1-1 1h-4.5c-1.402 0-2.5-1.055-2.5-2.401v-10.099c0-1.381 1.119-2.5 2.5-2.5h8.5c.552 0 1 .447 1 1 0 .553-.448 1-1 1h-8.5c-.276 0-.5.224-.5.5v10.099c0 .389.449.401.5.401h4.5c.552 0 1 .448 1 1zm2.932-2.068s0-1 1-1l4 1s1 .031 1 1l-1.242 1.242 2.085 1.965c.391.39.391 1.024 0 1.414l-.085.086c-.391.39-1.024.39-1.415 0l-2.085-1.965-1.258 1.258s-.692-.033-1-1c-.344-1.078-1-4-1-4z" sketch:type="MSShapeGroup" fill="#343434"/></svg>