<svg width="18" height="18" viewBox="0 0 18 18" xmlns="http://www.w3.org/2000/svg" xmlns:sketch="http://www.bohemiancoding.com/sketch/ns"><title>workflow</title><desc>Created with Sketch.</desc><path d="M17 13.277v-1.777c0-1.93-1.57-3.5-3.5-3.5h-3.5v-3.277c.595-.347 1-.985 1-1.723 0-1.104-.895-2-2-2s-2 .896-2 2c0 .738.405 1.376 1 1.723v3.277h-3.5c-2.568 0-3.5 2.093-3.5 3.5v1.777c-.595.347-1 .985-1 1.723 0 1.105.895 2 2 2s2-.895 2-2c0-.738-.405-1.376-1-1.723v-1.777c0-.25.072-1.5 1.5-1.5h3.5v3.277c-.595.347-1 .985-1 1.723 0 1.105.895 2 2 2s2-.895 2-2c0-.738-.405-1.376-1-1.723v-3.277h3.5c.827 0 1.5.673 1.5 1.5v1.777c-.595.347-1 .985-1 1.723 0 1.105.895 2 2 2s2-.895 2-2c0-.738-.405-1.376-1-1.723" sketch:type="MSShapeGroup" fill="#fff"/></svg>