<svg width="18" height="18" viewBox="0 0 18 18" xmlns="http://www.w3.org/2000/svg" xmlns:sketch="http://www.bohemiancoding.com/sketch/ns"><title>zoom-100%</title><desc>Created with Sketch.</desc><path d="M7.293 13c-2.757 0-5-2.244-5-5 0-2.757 2.243-5 5-5s5 2.243 5 5c0 2.756-2.243 5-5 5zm9.414 3l-3.815-3.816c.876-1.169 1.401-2.615 1.401-4.184 0-3.86-3.141-7-7-7s-7 3.14-7 7 3.141 7 7 7c1.569 0 3.016-.526 4.185-1.402l3.815 3.816c.195.195.451.293.707.293.256 0 .512-.098.707-.293.391-.391.391-1.023 0-1.414zm-9.414-5c-.55 0-1-.45-1-1v-4c0-.55.45-1 1-1s1 .45 1 1v4c0 .55-.45 1-1 1m-1-2h2c.55 0 1 .45 1 1s-.45 1-1 1h-2c-.55 0-1-.45-1-1s.45-1 1-1m.853-1.587l.707-.707c.389-.389.389-1.026 0-1.415-.389-.388-1.025-.388-1.414 0l-.707.708c-.389.389-.389 1.025 0 1.414.389.388 1.025.388 1.414 0" sketch:type="MSShapeGroup" fill="#606266"/></svg>