<?xml version="1.0" encoding="utf-8"?>
<!-- Generator: Adobe Illustrator 16.0.0, SVG Export Plug-In . SVG Version: 6.00 Build 0)  -->
<!DOCTYPE svg PUBLIC "-//W3C//DTD SVG 1.1//EN" "http://www.w3.org/Graphics/SVG/1.1/DTD/svg11.dtd">
<svg version="1.1" id="Calque_1" xmlns="http://www.w3.org/2000/svg" xmlns:xlink="http://www.w3.org/1999/xlink" x="0px" y="0px"
	 width="41px" height="34px" viewBox="0 0 41 34" enable-background="new 0 0 41 34" xml:space="preserve">
<path fill="#FFFFFF" d="M0.693,0v34h39.613V0H0.693z M39.154,1.152V7.32H1.846V1.152H39.154z M1.846,32.848V8.473h37.31v24.375
	H1.846z M5.059,5.393c-0.625,0-1.131-0.506-1.131-1.129c0-0.625,0.506-1.132,1.131-1.132c0.623,0,1.129,0.507,1.129,1.132
	C6.188,4.887,5.684,5.393,5.059,5.393z M9.102,5.393c-0.623,0-1.129-0.506-1.129-1.129c0-0.625,0.506-1.132,1.129-1.132
	s1.131,0.507,1.131,1.132C10.232,4.887,9.725,5.393,9.102,5.393z M13.146,5.393c-0.623,0-1.129-0.506-1.129-1.129
	c0-0.625,0.506-1.132,1.129-1.132c0.625,0,1.131,0.507,1.131,1.132C14.277,4.887,13.771,5.393,13.146,5.393z M25.589,24.543
	l-0.862-0.764l3.406-3.853l-3.406-3.852l0.862-0.765l4.081,4.615L25.589,24.543z M15.41,24.543l-4.08-4.615l4.08-4.615l0.863,0.765
	l-3.405,3.853l3.405,3.853L15.41,24.543z M18.184,28.391l-1.08-0.396l5.883-15.988l1.08,0.398L18.184,28.391z"/>
</svg>
